<?xml version="1.0" encoding="UTF-8"?>
<svg width="1200pt" height="1200pt" version="1.1" viewBox="0 0 1200 1200" xmlns="http://www.w3.org/2000/svg">
 <path d="m261.19 133.4c-19.266 0-38.531 7.2656-53.062 21.844l-52.922 52.969c-29.062 29.062-29.062 77.016 0 106.12l141.37 141.37c1.875 1.9219 4.0781 3.5156 6.4219 4.7812l67.172 33.375 103.12 103.22-8.7656 8.7656c-9.7969 9.75-9.7969 25.641 0 35.391l388.87 388.87c48.656 48.656 128.11 48.656 176.76 0 48.656-48.656 48.656-128.16 0-176.81l-388.82-388.87c-9.7969-9.8438-25.688-9.8438-35.438 0l-8.8125 8.9062-103.17-103.17-33.609-67.125c-1.1719-2.3906-2.7188-4.5938-4.5938-6.4688l-141.37-141.37c-14.531-14.531-33.797-21.844-53.062-21.844zm0 49.5c6.2812 0 12.562 2.5312 17.625 7.5469l138.56 138.56 33.609 67.172c1.1719 2.3906 2.7656 4.5469 4.6406 6.4219l105.98 106.08-53.062 53.016-105.94-106.08c-1.9688-1.875-4.2188-3.4219-6.6562-4.5938l-66.984-33.609-138.56-138.61c-10.078-10.078-10.078-25.172 0-35.25l53.109-53.109c5.0625-5.0625 11.344-7.5469 17.625-7.5469zm130.82 186.05c-6 0.375-11.672 3-15.938 7.2188-9.75 9.75-9.75 25.594 0 35.344s25.594 9.75 35.344 0 9.75-25.594 0-35.344c-5.1094-5.1094-12.234-7.7344-19.453-7.2188zm231.52 148.69 371.29 371.16c29.672 29.672 29.672 76.406 0 106.12-29.672 29.672-76.406 29.672-106.12 0l-371.29-371.34zm316.22 359.81c-16.031 0-32.109 6-44.203 18.094-24.188 24.188-24.188 64.219 0 88.406s64.172 24.188 88.359 0 24.188-64.219 0-88.406c-12.094-12.094-28.125-18.094-44.203-18.094zm0 49.734c3.0938 0 6.2344 1.2656 8.8125 3.7969 5.1094 5.1094 5.1094 12.609 0 17.719s-12.422 5.1094-17.531 0-5.1094-12.609 0-17.719c2.5312-2.5312 5.625-3.7969 8.7188-3.7969z"/>
</svg>
