<?xml version="1.0" encoding="UTF-8"?>
<svg width="1200pt" height="1200pt" version="1.1" viewBox="0 0 1200 1200" xmlns="http://www.w3.org/2000/svg">
 <path d="m344.72 119.91c-57.656 0-115.27 22.031-159.1 65.859-87.656 87.656-87.656 230.48 0 318.19 23.953 23.812 52.781 42.75 85.312 53.156 33.984 10.875 63.562 11.438 88.922 16.219s47.109 12.328 73.828 37.312l477.42 441.98h0.046875l0.5625 0.5625c39.844 34.875 101.2 37.594 140.11-1.3125 38.906-38.906 36.188-100.27 1.3125-140.11l-0.5625-0.5625-441.98-477.42c-24.984-26.719-32.484-48.469-37.266-73.828s-5.3438-54.938-16.266-88.922c-10.406-32.531-29.344-61.359-53.156-85.312-43.828-43.828-101.44-65.859-159.1-65.859zm0 49.875c44.719 0 89.391 17.016 123.71 51.281 18.984 19.125 33.328 41.438 40.969 65.344 8.3438 25.969 8.9531 52.219 14.766 82.875 5.7656 30.609 18.328 64.969 49.875 98.719h-0.1875l441.61 476.9c19.734 22.688 20.953 51.984 1.125 71.766-19.828 19.828-49.125 18.609-71.766-1.125h-0.1875l-476.72-441.61v0.1875c-33.75-31.547-68.109-44.062-98.719-49.875-30.609-5.7656-56.859-6.4219-82.875-14.766-23.859-7.6406-46.219-21.938-65.344-40.969-68.531-68.531-68.531-178.97 0-247.5 34.266-34.266 79.078-51.281 123.84-51.281zm0 25.078c-1.3594 0-2.7188 0.14062-4.0781 0.375-37.078 0.98438-73.875 15.422-102 43.547s-42.562 64.922-43.547 102c-0.23438 1.3594-0.375 2.7188-0.375 4.125 0 1.3594 0.14062 2.7188 0.375 4.0781 0.98438 37.078 15.422 73.922 43.547 102.05s64.922 42.562 102 43.547c1.3594 0.23438 2.7188 0.375 4.0781 0.375 1.4062 0 2.8125-0.09375 4.2188-0.375 37.031-1.0312 73.828-15.422 101.95-43.547 0.375-0.375 0.65625-0.75 0.98438-1.0781l0.09375-0.09375c27.375-27.938 41.438-64.219 42.469-100.73 0.23438-1.4062 0.375-2.8125 0.375-4.2656 0-1.4062-0.14062-2.8125-0.375-4.2188-1.0312-36.562-15.141-72.797-42.562-100.78-0.32812-0.375-0.65625-0.75-0.98438-1.0781-28.125-28.125-64.969-42.562-102.05-43.547-1.3594-0.23438-2.7188-0.375-4.125-0.375zm24.703 53.016c9.0938 2.3438 17.906 6.0469 26.203 11.016l0.046875 0.046875c-7.6406 9.8906-6.75 23.906 2.0625 32.812 8.8594 8.8594 22.969 9.75 32.906 2.0625 4.9688 8.2969 8.625 17.062 10.969 26.156v0.046875c-12.516 1.5469-21.938 12.188-21.938 24.844 0.09375 12.562 9.4688 23.156 21.984 24.703-2.3438 9.0938-6 17.906-10.922 26.203-4.3594-3.4219-9.75-5.2969-15.281-5.2969-6.6562 0-13.031 2.625-17.719 7.3594-8.9062 8.9062-9.7969 23.062-2.0625 33-8.2969 4.9219-17.109 8.5312-26.156 10.875-1.5938-12.469-12.188-21.891-24.797-21.891-12.609-0.046875-23.297 9.375-24.844 21.891-9.0469-2.3438-17.812-6-26.062-10.922 7.6406-9.9844 6.7031-24.094-2.2031-32.953-4.6406-4.6875-10.922-7.3125-17.531-7.3594-5.5312 0-10.922 1.875-15.281 5.2969-4.9688-8.2969-8.625-17.156-10.922-26.25 12.375-1.6406 21.703-12.141 21.75-24.656 0.046875-12.562-9.2344-23.203-21.703-24.844 2.3438-9.0938 6-17.906 10.922-26.156v-0.046875c9.9375 7.5938 23.906 6.7031 32.766-2.0625 8.8125-8.8594 9.7031-22.875 2.1562-32.766 8.2969-4.9688 17.109-8.6719 26.156-11.016v-0.046875c1.5938 12.469 12.234 21.844 24.797 21.844 12.562-0.046875 23.156-9.4219 24.703-21.891zm609.84 708.42h0.046875c-6 0.42188-11.625 3-15.891 7.2656-9.75 9.75-9.75 25.594 0 35.344 9.7969 9.75 25.594 9.75 35.391 0 9.75-9.75 9.75-25.594 0-35.344-5.1562-5.1562-12.281-7.7812-19.5-7.2656z"/>
</svg>
