<?xml version="1.0" encoding="UTF-8"?>
<svg width="1200pt" height="1200pt" version="1.1" viewBox="0 0 1200 1200" xmlns="http://www.w3.org/2000/svg">
 <path d="m928.97 150.19c-7.5469-0.84375-15.094 1.8281-20.438 7.2188l-83.578 83.719c-15.469-13.266-30.797-25.828-45.422-36.797-18.422-13.828-34.641-24.516-48.938-32.344-14.25-7.8281-25.781-13.312-39.844-14.391-7.0312-0.5625-15.797 0.09375-24.188 5.7188-8.3906 5.5781-13.5 15.938-14.531 24.047-1.1719 8.7656 3.1875 15.516 5.5312 22.688l-85.078 85.781-0.046875-0.046875c-4.6406 4.7344-7.2656 11.109-7.2188 17.719v29.156l-222.56 222.56h-29.156c-6.6094-0.046875-12.984 2.5781-17.719 7.2188l-106.64 106.73c-6.7031 5.7656-10.688 14.156-11.859 21.234-2.4844 15.234 2.0156 26.531 7.6875 39.328 10.5 23.531 29.625 51.656 56.578 84.422l-84.281 84.281h0.046875c-7.2656 7.2656-9.375 18.234-5.2969 27.703l29.672 69.047c2.5312 5.9531 7.2188 10.688 13.125 13.266l69.188 29.484c9.375 4.0781 20.25 2.0156 27.516-5.1094l84.375-84.375c31.641 26.062 59.109 44.906 82.125 55.594 12.891 6 24.094 10.594 38.859 9.1406 6.8438-0.65625 15.281-3.75 21.609-9.8906h0.046875c0.09375-0.09375 0.23438-0.14062 0.375-0.1875l108.7-108.7h-0.046875c4.7344-4.6875 7.4062-11.062 7.4531-17.719v-29.156l222.56-222.56h29.156-0.046875c6.6562 0 13.078-2.6719 17.766-7.3594l84.891-85.031c7.125 2.3906 13.922 6.7969 22.5 5.9062 7.9688-0.84375 18.141-5.2969 24.188-13.5s7.0781-17.25 6.7031-24.375c-0.75-14.203-6.0469-25.734-13.688-39.891s-18.281-30.188-31.922-48.516c-11.25-15.094-24.234-30.891-37.969-46.922l83.766-83.719-0.046875-0.046875c7.1719-7.2188 9.1875-18.141 5.1562-27.469l-29.484-69.188c-2.5781-5.9531-7.3125-10.641-13.312-13.125l-69.047-29.672v-0.046875c-2.2969-0.98438-4.7344-1.5938-7.2188-1.875zm2.9531 54.703 19.688 8.3906-75 75c-4.8281-4.6406-9.6094-9.2344-14.438-13.781zm-222.56 12.75c10.875 6.1406 24.234 14.766 40.219 26.766 68.344 51.281 156.84 139.97 207.42 207.79 12.562 16.828 21.75 31.078 27.703 42.047l0.046875-0.046875c-7.1719-2.0625-14.906-0.89062-21.047 3.3281l-52.031 52.125c-4.5938-8.7656-10.125-17.906-16.688-27.797-22.828-34.219-57.422-75.422-99.328-117.33s-83.062-76.5-117.28-99.328c-9.9844-6.6562-19.219-12.234-28.078-16.828l52.125-52.5h-0.046875c4.7344-4.875 7.2656-11.484 7.0312-18.281zm277.6 30.938 8.4375 19.781-69.609 69.656c-4.5469-4.8281-9.2344-9.6094-13.875-14.391zm-371.72 78.75c7.7812 2.8125 20.531 9.5156 35.391 19.453 30.141 20.109 69.656 53.203 109.64 93.188s73.078 79.453 93.188 109.64c9.9844 14.953 16.688 27.75 19.5 35.484h-25.688l-0.046875-0.046875c-6.6562 0-13.031 2.625-17.719 7.3594l-229.13 229.03c-0.65625-1.0312-1.2188-2.0156-1.9219-3.0469-22.828-34.219-57.422-75.422-99.328-117.33s-83.062-76.5-117.28-99.328c-1.0312-0.65625-2.0156-1.2188-3.0469-1.9219l229.03-229.03h0.046875c4.7344-4.6875 7.3594-11.062 7.3594-17.719zm-299.21 295.82c0.75 0.1875 1.3125 0.28125 2.25 0.65625 7.7344 2.7656 20.719 9.5156 35.812 19.594 30.141 20.109 69.75 53.016 109.73 93s72.938 79.594 93.047 109.78c10.031 15.094 16.828 27.984 19.594 35.719 0.375 1.0312 0.46875 1.5938 0.65625 2.3906l-60.891 60.797c-6.375-12.328-14.672-25.594-24.891-39.938-22.359-31.359-53.25-67.453-89.391-103.78-36.141-36.281-72.469-67.641-104.11-90.516-15.328-11.109-29.531-20.203-42.609-27zm-75.375 110.62c8.5312 4.9219 17.062 9.8906 27.797 17.625 8.2031 5.9531 17.016 12.703 26.062 20.016l-17.25 17.203c-17.719-22.359-28.312-39.797-36.609-54.844zm91.922 70.406c4.8281 4.4062 9.7031 8.9531 14.578 13.641l-108.56 108.47-19.734-8.3906zm49.875 48.891c4.6406 4.875 9.1875 9.75 13.641 14.578l-113.72 113.72-8.4375-19.688zm46.406 52.547c8.0625 9.9375 15.422 19.547 21.797 28.453 7.0312 9.8906 11.25 17.812 15.797 25.734-15-8.3438-32.859-19.453-54.891-36.891zm-206.06 68.25 2.5312 1.0781 1.0781 2.5312-2.5312-1.0781z"/>
</svg>
