<?xml version="1.0" encoding="UTF-8"?>
<svg width="1200pt" height="1200pt" version="1.1" viewBox="0 0 1200 1200" xmlns="http://www.w3.org/2000/svg">
 <path d="m764.72 145.08c-39.516-0.28125-75.375 11.859-101.67 38.203l-71.906 71.906c-31.219 31.219-43.922 78.656-35.719 131.44l-169.03 168.89c-50.953-7.875-98.531 2.9062-131.26 35.625-23.859 24.094-47.953 48-71.859 71.906-36 36-44.859 89.719-33.703 143.02s41.812 108.38 88.875 155.44 102.09 77.719 155.44 88.875c53.297 11.156 107.02 2.3906 143.02-33.656 23.812-24.094 47.953-47.953 71.906-71.906 32.766-32.766 43.641-80.297 35.719-131.29l168.94-168.94c52.781 8.1562 100.12-4.5938 131.34-35.812 23.859-24 47.906-47.906 71.859-71.859 46.781-46.781 49.125-123.61 15.656-197.63-33.422-73.969-97.594-138.14-171.56-171.56-32.344-14.625-65.297-22.406-96.047-22.641zm-23.766 52.078c0.46875 5.8594 3.0938 11.344 7.2188 15.469 9.75 9.7031 25.5 9.7031 35.25 0l13.828-13.781c10.219 2.25 20.906 5.4844 31.875 9.7969-7.875 9.8906-7.125 24.094 1.7344 33.094 9.75 9.7031 25.5 9.7031 35.25 0l9.1406-9.0938c11.203 7.2656 21.984 15.422 32.344 24.281l-4.4062 4.4062c-9.8438 9.75-9.8438 25.688 0 35.438 9.75 9.7031 25.5 9.7031 35.25 0l4.5-4.5c8.8594 10.359 17.062 21.188 24.328 32.391l-9.0469 9.0469c-9.7969 9.75-9.7969 25.641 0 35.391 9 8.8594 23.203 9.6094 33.094 1.7344 4.3594 11.016 7.5 21.703 9.75 31.922l-13.734 13.781c-9.7031 9.75-9.7031 25.5 0 35.25 4.125 4.125 9.5625 6.7031 15.375 7.2188-3.2812 16.547-10.172 30.422-20.109 40.969-0.46875-11.109-1.875-22.5-4.3125-34.125-24.047-114.84-129.42-220.22-244.26-244.26-11.672-2.4375-23.062-3.8438-34.172-4.3594 10.547-9.9844 24.469-16.875 41.062-20.109zm-48.656 69.609c9.7031 0.09375 20.203 1.2188 31.547 3.6094 90.609 18.984 186.66 115.03 205.64 205.64 9.5156 45.328-0.375 77.625-20.109 97.359-11.484 11.484-27.234 19.594-47.297 22.5l34.875-34.875c16.406-16.406 22.734-39.656 21.562-62.953-1.1719-23.25-9.1406-47.766-22.5-72.703-26.719-49.875-71.766-94.875-121.64-121.64-24.938-13.359-49.219-21.141-72.516-22.312-23.25-1.1719-46.547 5.1562-62.953 21.562l-34.969 34.969c2.9062-20.156 11.016-36 22.5-47.531 14.812-14.812 36.703-24.047 65.812-23.719zm6.9844 64.688c13.359 0.65625 31.547 5.7656 51.469 16.453 39.844 21.375 79.969 61.266 101.34 101.11 10.688 19.922 15.797 38.109 16.453 51.469s-2.4375 20.719-6.8438 25.078l-232.69 232.69c-1.5-3.7031-2.9062-7.3594-4.5938-11.016-33.422-73.969-97.641-138.19-171.61-171.61-3.75-1.6875-7.4531-3.1875-11.25-4.6875l232.6-232.6c4.4062-4.4062 11.719-7.5 25.078-6.8438zm-341.44 271.36c22.172 0.28125 47.391 6.0469 74.344 18.234 61.641 27.844 118.83 85.078 146.68 146.68 27.375 60.516 22.172 112.27-4.0781 140.21-0.09375-2.5781-0.1875-5.2031-0.46875-7.8281l6.2812-6.2812c9.6562-9.75 9.6562-25.453 0-35.203-4.2656-4.2656-9.8906-6.8438-15.938-7.2656-3.9375-12.797-9-25.594-15.094-38.344l4.5938-4.5938c9.7031-9.75 9.7031-25.5 0-35.25-7.9688-7.9688-20.344-9.6094-30.141-3.9844-7.6406-11.109-16.078-22.031-25.359-32.625l0.46875-0.46875c9.7031-9.75 9.7031-25.5 0-35.25-9.7969-9.8438-25.688-9.8438-35.438 0l-0.375 0.375c-10.547-9.2344-21.422-17.625-32.484-25.266 5.625-9.7969 3.9375-22.172-4.0312-30.141-9.75-9.7031-25.5-9.7031-35.25 0l-4.5469 4.5469c-12.703-6.0938-25.547-11.062-38.344-15.047-0.375-6.0938-3-11.766-7.3125-16.078-4.6875-4.6406-11.062-7.2656-17.672-7.2188-6.6562-0.046875-13.031 2.5781-17.719 7.2188l-6.3281 6.3281c-2.5312-0.1875-5.0625-0.375-7.5938-0.46875 15.469-14.531 38.203-22.688 65.766-22.312zm-78.75 71.953c11.391-0.375 23.766 0.84375 36.844 3.5625 41.906 8.7656 89.578 34.5 130.36 75.281 40.828 40.828 66.516 88.453 75.281 130.36 8.7656 41.906 1.2656 75.891-20.109 97.312-21.422 21.422-55.453 28.922-97.359 20.109-41.906-8.7656-89.531-34.5-130.31-75.281-40.828-40.828-66.562-88.453-75.328-130.36-8.7656-41.906-1.2656-75.984 20.109-97.359 14.719-14.719 35.391-22.828 60.516-23.625zm13.641 42.422c-13.828 0.375-28.547 5.0625-39.422 15.938-10.828 10.828-15.516 25.547-15.938 39.422-0.375 13.828 2.8125 27.609 8.1094 41.484 10.594 27.797 30.141 56.812 56.906 83.531 26.766 26.766 55.688 46.312 83.484 56.906 13.922 5.2969 27.656 8.5312 41.484 8.1094 13.828-0.375 28.547-5.1094 39.422-15.984 10.828-10.828 15.516-25.547 15.938-39.422 0.375-13.828-2.7656-27.609-8.0625-41.484-10.594-27.797-30.188-56.766-56.953-83.484-26.766-26.766-55.688-46.312-83.484-56.906-13.922-5.2969-27.656-8.5312-41.484-8.1094zm1.5469 50.109c4.7344-0.09375 12.703 1.125 22.172 4.7344 18.938 7.2188 43.453 23.062 65.906 45.516s38.344 47.016 45.562 65.906c3.6094 9.4688 4.9688 17.578 4.8281 22.312-0.1875 4.7344-1.125 5.25-1.3125 5.4844-0.1875 0.1875-0.9375 1.3125-5.625 1.4531-4.7344 0.09375-12.703-1.3594-22.172-4.9688-18.938-7.2188-43.453-23.109-65.906-45.562s-38.344-46.969-45.562-65.859c-3.6094-9.4688-4.9688-17.344-4.8281-22.078 0.1875-4.7344 1.125-5.5781 1.3125-5.7656s0.84375-1.0312 5.625-1.1719z"/>
</svg>
