<?xml version="1.0" encoding="UTF-8"?>
<svg width="1200pt" height="1200pt" version="1.1" viewBox="0 0 1200 1200" xmlns="http://www.w3.org/2000/svg">
 <path d="m461.21 137.53c-41.109 0-74.906 33.844-74.906 74.953v300.05h-25.078c0.046875-6.8438-2.7656-13.453-7.7344-18.188-4.9219-4.7344-11.625-7.2188-18.469-6.8906l-249.84 12.141c-39.609 1.9219-73.828 34.031-73.828 75.141v26.766c0 41.156 34.078 73.125 73.828 74.906l250.03 11.062c6.7969 0.28125 13.406-2.2031 18.281-6.8906 4.9219-4.6875 7.7344-11.203 7.7344-18h25.078v324.98c0 41.109 33.797 74.906 74.906 74.906h50.062c41.109 0 75.094-33.797 75.094-74.906v-775.08c0-41.109-33.984-74.953-75.094-74.953zm227.53 0c-41.109 0-75.094 33.844-75.094 74.953v775.08c0 41.109 33.984 74.906 75.094 74.906h50.062c41.109 0 74.906-33.797 74.906-74.906v-324.98h24.891c0.046875 6.8438 2.8594 13.359 7.8281 18.047 4.9219 4.7344 11.578 7.2188 18.422 6.8438l250.03-11.062c39.75-1.7344 73.828-33.75 73.828-74.906v-26.766c0-41.156-34.219-73.219-73.828-75.141l-250.03-12.141c-6.8438-0.32812-13.547 2.1562-18.516 6.8906s-7.7344 11.344-7.7344 18.188h-24.891v-300.05c0-41.109-33.797-74.953-74.906-74.953zm-227.53 50.016h50.062c14.297 0 25.078 10.688 25.078 24.938v99.844l-8.3438 0.1875c-6.6094 0.1875-12.891 3-17.484 7.8281-4.5469 4.8281-6.9844 11.25-6.7969 17.859 0.375 13.734 11.719 24.562 25.406 24.328l7.2188-0.1875v200.06l-8.3438 0.28125c-13.688 0.375-24.562 11.719-24.281 25.406 0.09375 6.6562 2.8594 12.984 7.5938 17.578 4.7812 4.5938 11.203 7.125 17.812 6.9844l7.2188-0.1875v224.9l-8.3438 0.28125c-13.781 0.375-24.656 11.859-24.281 25.641 0.32812 13.734 11.672 24.609 25.406 24.375l7.2188-0.1875v100.27c0 14.297-10.828 24.891-25.078 24.891h-50.062c-14.297 0-24.891-10.641-24.891-24.891v-775.08c0-14.297 10.641-24.938 24.891-24.938zm227.53 0h50.062c14.297 0 24.891 10.688 24.891 24.938v775.08c0 14.297-10.641 24.891-24.891 24.891h-50.062c-14.297 0-25.078-10.641-25.078-24.891v-100.27l7.0312 0.1875v0.046875c6.6562 0.1875 13.078-2.2969 17.859-6.8906 4.8281-4.5469 7.5938-10.828 7.7812-17.484 0.375-13.781-10.547-25.266-24.328-25.641l-8.3438-0.28125v-224.9l7.0312 0.1875c6.6562 0.1875 13.125-2.2969 17.953-6.9375 4.7812-4.5938 7.5469-10.922 7.6875-17.625 0.23438-13.688-10.594-25.031-24.328-25.406l-8.3438-0.28125v-200.02l7.0312 0.1875c6.6094 0.1875 13.078-2.2969 17.859-6.8438 4.8281-4.5938 7.5938-10.875 7.7812-17.531 0.1875-6.6094-2.2969-13.031-6.8438-17.859s-10.828-7.6406-17.484-7.8281l-8.3438-0.1875v-99.844c0-14.297 10.828-24.938 25.078-24.938zm-377.53 351.24v97.594l-223.87-9.9844c-15.609-0.65625-26.016-10.641-26.016-24.891v-26.766c0-14.25 10.5-24.328 26.203-25.078zm577.45 0 223.82 10.875c15.75 0.75 26.203 10.828 26.203 25.078v26.766c0 14.25-10.406 24.234-26.016 24.891l-224.02 9.9844zm-527.44 23.766h25.078v50.062h-25.078zm452.48 0h24.891v50.062h-24.891z"/>
</svg>
