<?xml version="1.0" encoding="UTF-8"?>
<svg width="1200pt" height="1200pt" version="1.1" viewBox="0 0 1200 1200" xmlns="http://www.w3.org/2000/svg">
 <path d="m396.71 67.641-0.046875 0.046875c-34.219 0-62.531 28.312-62.531 62.531-17.156 0-33 7.125-44.297 18.469l-141.37 141.37c-11.297 11.297-18.469 27.141-18.469 44.297-34.219 0-62.344 28.125-62.344 62.344s28.125 62.578 62.344 62.578c38.812 0 74.062-16.781 97.453-46.781l709.36 633.05c-8.1562 13.969-24.562 23.766-20.109 40.406 8.8125 33.094 43.547 53.156 76.594 44.297 33.141-8.8594 58.125-33.234 74.344-62.531 29.297-16.219 53.625-41.297 62.531-74.344v-0.1875c8.9531-33.562-11.672-67.969-44.297-76.594-16.922-4.5-26.719 12.375-40.781 20.859l-632.29-709.22c33.984-26.203 67.969-97.406 27.891-142.22-11.062-12.328-27.516-18.328-44.109-18.328zm-0.046875 50.062c3.3281 0 6.5625 1.3125 8.8594 3.6562 2.3438 2.3438 3.6562 5.5781 3.6562 8.8594 0 30.984-18.844 57.281-45.234 68.672-15.703 6.7969-20.062 26.953-8.625 39.656l660.84 741.71c12.469 14.062 35.438 9.8438 42.094-7.6875 2.2969-5.9531 8.4375-9.3281 14.953-7.5469 6.4688 1.7344 10.828 8.0625 8.8594 15.281-5.8125 21.656-21.047 39.469-41.016 48.75-5.3906 2.4844-9.6562 6.8438-12.141 12.188-9.2344 19.922-27.094 34.969-48.75 40.781-6.9844 1.875-13.406-1.875-15.281-8.8125-1.7344-6.4219 1.5938-12.469 7.3594-14.812 17.062-6.9375 21.047-29.344 7.3594-41.719l-741.14-661.22c-12.703-11.438-32.859-7.0312-39.656 8.6719-11.297 26.062-37.594 45.234-68.859 45.234-7.2188 0-12.328-5.3438-12.375-12.562 0-7.2188 5.1562-12.422 12.375-12.422 13.219 0 26.109-5.3906 35.438-14.766 9.375-9.375 14.531-22.031 14.531-35.25 0-3.6094 1.5-6.5156 3.8438-8.8125v-0.1875l141.42-141.37c2.2969-2.2969 5.2031-3.7031 8.8125-3.7031 13.219 0 26.109-5.3906 35.438-14.766 9.375-9.375 14.531-22.031 14.531-35.25 0-7.2188 5.3438-12.562 12.562-12.562zm-89.016 127.64c-16.031 0-32.109 6.0469-44.203 18.141-24.188 24.188-24.188 64.172 0 88.359 10.875 10.875 36 31.5 64.406 50.578 14.203 9.5625 28.5 18.141 42.609 23.953 7.0781 2.9062 14.156 5.3906 22.5 6.0938 8.3906 0.65625 20.438-0.84375 29.531-9.9844 9.0938-9.0938 10.453-21.188 9.75-29.531-0.65625-8.3906-3-15.234-5.9062-22.312-5.8125-14.109-14.438-28.594-23.953-42.844-19.078-28.406-39.703-53.531-50.578-64.406-12.094-12.094-28.125-18.141-44.203-18.141zm-0.09375 49.734c3.1406 0 6.2812 1.2656 8.8125 3.7969 3.75 3.75 27.469 31.453 44.484 56.812 3 4.5 4.2188 7.6875 6.8438 12-4.3125-2.5781-7.5469-3.7969-12-6.8438-25.359-17.016-53.203-40.734-57-44.484-5.1094-5.1094-5.1094-12.422 0-17.531 2.5312-2.5312 5.6719-3.7969 8.8125-3.7969z"/>
</svg>
