<?xml version="1.0" encoding="UTF-8"?>
<svg width="1200pt" height="1200pt" version="1.1" viewBox="0 0 1200 1200" xmlns="http://www.w3.org/2000/svg">
 <path d="m647.53 297.98c-4.6875-4.7344-11.109-7.4062-17.766-7.4062s-13.031 2.6719-17.719 7.4062l-22.594 22.594-54.703-27.281v-0.046875c-9.6094-4.7344-21.141-2.8594-28.734 4.7344l-17.766 17.766-53.109-53.109 0.046875-0.046875c-6.3281-6.2812-15.562-8.6719-24.188-6.3281-0.65625-0.89062-1.3594-1.7344-2.1562-2.5312l-41.625-41.625c-1.5469-7.7344-4.3125-15.375-8.4375-22.547-3.2344-5.5781-7.0312-10.547-11.344-14.953l0.046875 0.09375c-23.344-23.719-60.938-29.812-90.984-12.469-30.094 17.391-63.75 41.062-102.28 90.656-44.719 57.609-68.625 130.03-68.625 205.31 0 13.828 11.25 25.031 25.078 24.984 13.828 0 25.031-11.25 24.984-25.078 0-64.266 21.75-125.02 58.547-175.18 8.2969-11.297 27.562-22.078 50.578 0.9375 8.7656 8.6719 20.906 14.625 34.359 17.109l41.297 41.297-0.09375-0.046876c0.79688 0.79688 1.6406 1.5 2.5312 2.1562-2.3438 8.625 0.046875 17.859 6.3281 24.188l53.109 53.109-17.766 17.766 0.046875-0.046874c-7.5469 7.5938-9.4688 19.172-4.6875 28.734l27.281 54.703-22.547 22.547h-0.046875c-4.7344 4.6875-7.3594 11.062-7.3594 17.719 0 6.7031 2.625 13.078 7.3594 17.766s11.109 7.3125 17.719 7.2656c6.6094 0 12.984-2.6719 17.672-7.3594l30.328-30.328c10.219-2.2969 38.766-6.5156 57.984 12.703l141.47 141.47c19.266 19.266 15 47.766 12.703 57.984l-30.328 30.328c-4.7344 4.6875-7.3594 11.062-7.4062 17.672 0 6.6562 2.625 13.031 7.3125 17.719 4.6875 4.7344 11.062 7.4062 17.719 7.4062 6.7031 0 13.078-2.6719 17.766-7.4062l35.344-35.344 141.32 141.32c19.266 19.266 51.422 19.266 70.688 0l8.7188-8.7188 35.344 35.344-8.7188 8.7188h0.046875c-5.7656 5.6719-8.3906 13.828-7.0781 21.797s6.375 14.812 13.641 18.375l70.734 35.203-0.046875 0.046875c9.6094 4.8281 21.188 3 28.828-4.5469l70.734-70.734c7.6875-7.6406 9.6094-19.359 4.7344-29.016l-35.344-70.594-0.046875 0.046875c-3.5625-7.2656-10.406-12.375-18.422-13.641-7.9688-1.3125-16.078 1.3594-21.797 7.0781l-8.7188 8.7188-35.344-35.344 8.7188-8.7188c19.266-19.266 19.266-51.422 0-70.688l-141.32-141.32 35.391-35.391c4.7344-4.6875 7.4062-11.109 7.4062-17.766s-2.6719-13.031-7.4062-17.719c-4.6875-4.6875-11.062-7.3125-17.672-7.3125-6.6562 0-13.031 2.6719-17.719 7.4062l-30.328 30.328c-10.219 2.2969-38.766 6.5156-57.984-12.703l-141.47-141.47c-19.266-19.266-15-47.766-12.703-57.984l30.328-30.328v-0.046876c4.7344-4.6406 7.3594-11.016 7.3594-17.625 0.046875-6.6562-2.5781-13.031-7.2656-17.719zm-95.344 59.812-127.78 127.78-11.672-23.625 115.88-115.88zm272.02 293.81 141.32 141.32-8.7188 8.7188-141.32-141.32zm-43.359-27.422-90 90c-3.9844-15.234-11.719-30.984-25.734-45l-141.47-141.47c-14.859-14.859-30.047-22.641-44.344-26.391l88.688-88.688c3.75 14.297 11.531 29.484 26.391 44.344l141.47 141.47c14.016 14.016 29.766 21.703 45 25.734zm266.26 299.34 11.859 23.625-45.141 45.141-23.625-11.859zm-629.39-607.97 35.344 35.344-35.344 35.344-35.344-35.344zm-106.97-106.88c1.7812 1.6875 3.4219 3.7031 4.7344 5.9531 7.0312 12.234 3.1875 27.141-9.0469 34.172s-27.188 3.0469-34.266-9.1875c-7.0312-12.234-2.9531-27.047 9.2344-34.125 9.9375-5.7188 21.516-4.1719 29.297 3.1406zm44.156 61.828 18.562 18.562-17.766 17.766-18.516-18.516c7.0312-4.9688 12.938-11.062 17.672-17.812zm425.21 425.21 141.32 141.32-17.766 17.766-141.32-141.32zm176.68 176.68 35.344 35.344-17.766 17.766-35.344-35.344zm-229.82-123.52 141.32 141.32-8.7188 8.7188-141.32-141.32z"/>
</svg>
