<?xml version="1.0" encoding="UTF-8"?>
<svg width="1200pt" height="1200pt" version="1.1" viewBox="0 0 1200 1200" xmlns="http://www.w3.org/2000/svg">
 <path d="m153.84 84.516c-35.156 5.5312-65.719 32.156-75.562 69-8.7188 32.625 1.3594 68.297 22.969 91.172 208.97 208.97 421.22 421.22 631.36 631.4 4.6875 4.6875 11.062 7.3125 17.672 7.3125h28.5l43.641 43.641v28.5c0 6.6562 2.625 12.984 7.3125 17.672l77.672 77.672c16.078 16.078 40.031 29.25 62.25 41.438 22.219 12.234 41.672 21.703 41.672 21.703 9.6094 4.6406 21.094 2.7188 28.594-4.8281l77.672-77.719c7.5-7.5469 9.4219-18.984 4.7812-28.547 0 0-9.4219-19.406-21.609-41.672-12.234-22.219-25.359-46.172-41.438-62.25l-77.672-77.719c-4.6875-4.6875-11.062-7.3125-17.672-7.3125h-28.5l-43.594-43.594v-28.5c0-6.6562-2.625-12.984-7.3125-17.672l-408.05-408.05c-10.219-10.219-22.688-17.25-35.859-20.766h-0.046874l-287.48-76.547c-21.469-5.7188-33.188-27.375-26.531-52.359 6.5156-24.422 28.969-37.5 50.438-31.734 13.359 3.6094 27.094-4.3125 30.656-17.672 3.5625-13.312-4.3594-27.047-17.672-30.609-12.188-3.2812-24.422-3.75-36.141-1.9219zm60.188 202.26 213.61 56.906c4.875 1.3125 9.4688 3.8438 13.406 7.8281l400.74 400.74v28.5c0 6.6562 2.625 12.984 7.3125 17.672l58.266 58.266c4.6875 4.6875 11.062 7.3125 17.672 7.3125h28.5l70.359 70.406c5.4375 5.4375 21.469 30.047 33 51.047 6.9375 12.656 8.625 16.406 12.328 23.719l-51.797 51.797c-7.3125-3.7031-11.062-5.4375-23.672-12.375-20.953-11.531-45.562-27.562-51.047-33l-70.359-70.359v-28.5c0-6.6562-2.625-12.984-7.3125-17.672l-58.312-58.312c-4.6875-4.6875-11.062-7.3125-17.672-7.3125h-28.453z"/>
</svg>
