<?xml version="1.0" encoding="UTF-8"?>
<svg width="1200pt" height="1200pt" version="1.1" viewBox="0 0 1200 1200" xmlns="http://www.w3.org/2000/svg">
 <path d="m346.03 151.5c-4.2656 1.125-8.1562 3.4219-11.25 6.5156l-176.76 176.76c-4.6875 4.6875-7.3594 11.062-7.3594 17.719s2.6719 13.031 7.3594 17.719l70.641 70.688c14.719 14.719 31.969 19.172 45.234 23.578s22.547 8.6719 25.5 11.625l123.79 123.79-176.76 176.86c-14.719 14.719-28.688 21.562-38.766 24.938s-14.203 3.1406-14.203 3.1406h-0.046875c-6.6094-0.046875-12.984 2.5312-17.719 7.2188l-17.672 17.719c-4.6875 4.6875-7.3594 11.062-7.3594 17.719s2.6719 13.031 7.3594 17.719l176.76 176.81c4.6875 4.6875 11.062 7.3594 17.719 7.3594s13.031-2.6719 17.719-7.3594l17.531-17.719c4.7344-4.6875 7.3594-11.062 7.3594-17.719 0 0-0.1875-4.125 3.1406-14.203 3.375-10.078 10.219-24.047 24.938-38.766l176.76-176.86 176.81 176.86c14.719 14.719 21.516 28.688 24.891 38.766s3.1875 14.203 3.1875 14.203c-0.046876 6.6094 2.5312 12.984 7.1719 17.719l17.719 17.672c4.7344 4.6875 11.109 7.3594 17.766 7.3594 6.6094 0 13.031-2.6719 17.719-7.3594l176.81-176.76c4.6875-4.6875 7.3594-11.062 7.3594-17.719s-2.6719-13.031-7.3594-17.719l-17.719-17.719h-0.046875c-4.6875-4.6875-11.062-7.2656-17.719-7.2188 0 0-4.125 0.1875-14.203-3.1875s-24.047-10.172-38.766-24.891l-176.86-176.81 123.74-123.79c2.9531-2.9531 12.375-7.2656 25.641-11.672s30.281-8.8594 45-23.578l70.828-70.688v0.046875c4.7344-4.7344 7.4062-11.109 7.4062-17.766s-2.6719-13.031-7.4062-17.719l-176.76-176.76h0.046875c-4.6875-4.6875-11.109-7.3594-17.719-7.3594-6.6562 0-13.078 2.6719-17.766 7.3594l-70.688 70.641c-14.719 14.719-19.359 31.969-23.766 45.234s-8.6719 22.547-11.625 25.5l-123.74 123.79-123.79-123.79c-2.9531-2.9531-7.2188-12.234-11.625-25.5s-8.8594-30.469-23.578-45.234l-70.688-70.641c-6.2812-6.3281-15.562-8.8594-24.188-6.5156zm6.4688 59.484 35.297 35.391s-0.046875 0-0.046875 0.046875l-141.37 141.37-35.25-35.25zm494.95 0.1875 141.37 141.37-35.25 35.25-141.47-141.28zm-64.312 77.109 128.39 128.39c-0.46875 0.1875-0.75 0.28125-1.3125 0.46875-13.266 4.4062-30.281 9.0938-45 23.812l-141.14 141.1h-0.046874c-0.14063 0.09375-0.23438 0.1875-0.375 0.28125-0.046876 0.09375-0.14063 0.1875-0.1875 0.28125l-141.1 141c-0.046875 0-0.09375 0.046875-0.09375 0.046875-0.046875 0.046875-0.046875 0.046875-0.046875 0.09375l-194.48 194.39c-20.625 20.625-31.453 41.906-36.891 58.359-1.6406 4.9219-0.84375 4.9219-1.6406 9.0469l-134.72-134.72c4.0781-0.84375 3.9844-0.046874 8.8125-1.6406 16.406-5.4844 37.875-16.5 58.5-37.125l477.28-477.28c14.719-14.719 19.219-31.969 23.625-45.234 0.1875-0.5625 0.28125-0.84375 0.46875-1.3125zm-366.52 0.1875c0.1875 0.46875 0.28125 0.65625 0.46875 1.1719 4.4062 13.266 9.0938 30.469 23.812 45.234l123.71 123.71-106.17 106.17-123.71-123.71c-14.719-14.719-31.969-19.406-45.234-23.812-0.46875-0.1875-0.75-0.28125-1.1719-0.46875zm324.66 346.97 176.81 176.68c20.625 20.625 41.906 31.641 58.359 37.125 4.9219 1.6406 4.9219 0.84375 9.0469 1.6406l-134.72 134.72c-0.84375-4.125 0-4.0781-1.6406-9.0469-5.4844-16.406-16.5-37.734-37.125-58.359l-176.68-176.81z"/>
</svg>
