<?xml version="1.0" encoding="UTF-8"?>
<svg width="1200pt" height="1200pt" version="1.1" viewBox="0 0 1200 1200" xmlns="http://www.w3.org/2000/svg">
 <path d="m1112.6 262.45c-6.6562 0.046875-13.031 2.7188-17.719 7.4531l-17.672 17.719h-464.48c-13.828-0.046875-25.078 11.109-25.125 24.891v200.06c0.046875 13.781 11.297 24.938 25.125 24.891h464.48l17.672 17.719c7.1719 7.125 17.906 9.2344 27.234 5.3438 9.3281-3.8438 15.375-12.984 15.375-23.062v-249.84c0.09375-10.125-5.9531-19.312-15.281-23.25-3.0469-1.2656-6.2812-1.9219-9.6094-1.9219zm-824.9 0.046875c-6.6562 0-13.031 2.625-17.766 7.3594-4.6875 4.6875-7.3594 11.109-7.3125 17.766v274.97c0 14.297-10.641 24.938-24.891 24.938h-25.125c-6.6094 0-12.984 2.6719-17.672 7.3594s-7.3125 11.062-7.2656 17.719v12.703c-69.375 3.3281-125.11 60.891-125.11 131.06 0 72.281 59.109 131.21 131.39 131.21h568.22c0.046875 10.734 6.9375 20.25 17.156 23.625l75.469 25.078c2.5312 0.84375 5.1562 1.2656 7.7812 1.2656h125.11c13.781-0.046875 24.938-11.297 24.891-25.078v-99.984c-0.046875-13.734-11.156-24.844-24.891-24.938h-125.11c-2.7188 0-5.3906 0.42188-7.9688 1.2656l-74.906 24.891v0.046875c-10.219 3.3281-17.109 12.844-17.156 23.625v0.1875h-568.55c-45.469 0-81.375-35.766-81.375-81.188 0-43.312 32.672-77.953 75.094-81.094v12.234h-0.046875c0.046875 13.734 11.203 24.844 24.938 24.891h50.016c92.906 0 168.98-72.656 174.56-164.16l10.688-10.781h89.719c13.781 0.046875 25.031-11.109 25.078-24.938v-200.06 0.046875c-0.046875-13.828-11.297-24.984-25.078-24.938h-89.719l-17.531-17.719c-4.6875-4.6875-11.062-7.3594-17.719-7.3594zm24.891 50.016h74.906v224.95c0.046875 0.09375 0.046875 0.1875 0.046875 0.28125-0.1875 69.562-55.359 124.87-124.97 124.87h-24.891v-25.125c41.109 0 74.906-33.844 74.906-74.953zm124.97 24.891h75.094v150.05h-75.094zm200.06 0h449.9v150.05h-449.9zm228.98 500.16h96v50.016h-96l-54.234-18.047v-13.875z"/>
</svg>
