<?xml version="1.0" encoding="UTF-8"?>
<svg width="1200pt" height="1200pt" version="1.1" viewBox="0 0 1200 1200" xmlns="http://www.w3.org/2000/svg">
 <path d="m364.78 270c-182.39 0-330.79 148.03-330.79 330.05s148.45 330.05 330.79 330.05c91.875 0 175.13-37.641 235.18-98.203 90.891 91.875 228.19 123 350.72 77.484 129.71-48.141 215.76-171.98 215.44-310.08-0.28125-138.1-86.953-261.52-216.84-309.1-32.484-11.906-65.953-18.422-99.328-19.875-92.25-4.0312-183.52 30.656-249.98 97.828-60-60.562-143.26-98.203-235.18-98.203zm0 50.016c155.44 0 280.82 125.11 280.82 280.03 0 154.92-125.39 280.03-280.82 280.03s-280.82-125.11-280.82-280.03c0-154.92 125.39-280.03 280.82-280.03zm461.68 0.09375c35.25-1.125 71.109 4.4062 105.61 17.062 110.44 40.453 183.74 144.98 184.03 262.26 0.28125 117.28-72.609 222.14-182.86 263.06-105.56 39.188-223.5 11.484-300.71-68.953 4.0781-5.5781 7.9688-11.344 11.672-17.203 68.344 73.781 174.61 102.28 272.11 70.359 107.91-35.297 180.52-136.55 179.16-249.84-1.3594-113.3-76.406-212.72-185.11-245.39-96.188-28.922-199.36 0.28125-266.11 72.328-3.75-5.8594-7.6875-11.625-11.766-17.25 51.656-53.859 121.6-84.141 193.92-86.438zm-461.68 20.297c-143.39 0-260.26 116.48-260.26 259.64 0 143.16 116.86 259.64 260.26 259.64 143.39 0 260.26-116.48 260.26-259.64 0-143.16-116.86-259.64-260.26-259.64zm464.68 50.016c11.859-0.28125 23.766 0.46875 35.672 2.1562l-35.719 133.03-0.046875-0.046875c-0.23438 0.9375-0.375 1.875-0.46875 2.8594-8.3438 0.75-16.406 2.9531-23.859 6.4219v0.046875c-0.65625-0.84375-1.3594-1.6406-2.0625-2.3438l-97.594-97.359c35.438-27.797 78.984-43.547 124.03-44.766zm-489.66 1.5v137.72l-0.046875-0.046875c0.09375 0.98438 0.1875 1.9219 0.375 2.9062-7.4062 2.7188-14.25 6.6562-20.297 11.531v-0.046875c-0.84375-0.60938-1.6875-1.2188-2.5781-1.7344l-118.31-71.25c33.609-42.938 83.672-72.375 140.86-79.125zm50.016 0c57.047 6.7031 106.97 36 140.58 78.703l-118.17 71.484h-0.046875c-0.84375 0.5625-1.6406 1.2188-2.4375 1.9219-6.0469-4.875-12.891-8.8125-20.297-11.531 0.1875-0.98438 0.28125-1.9219 0.375-2.9062zm523.64 13.547c54.094 21.562 95.812 64.172 116.91 116.53l-133.31 35.625h-0.046875c-0.98438 0.32812-1.9688 0.70312-2.9062 1.125-4.7344-6.7969-10.641-12.797-17.484-17.625 0.42188-0.84375 0.75-1.7344 1.0312-2.625zm-243.37 65.016 97.641 97.453h-0.046875c0.75 0.65625 1.5 1.2188 2.25 1.7812-1.7344 3.7031-3.1406 7.6406-4.2656 11.719-1.0781 4.0312-1.7812 8.0625-2.1562 12.047-0.98438 0.1875-1.9688 0.28125-2.9531 0.5625l-65.297 17.625c0.09375-3.8906 0.28125-7.7812 0.28125-11.719 0-45.656-9.3281-89.156-26.156-128.72 0.1875-0.28125 0.375-0.5625 0.65625-0.84375zm-496.97 43.312 118.36 71.297-0.046875-0.046875c0.84375 0.46875 1.7344 0.89062 2.625 1.2188-0.84375 4.4531-1.3594 9.0469-1.3594 13.734 0 4.7344 0.46875 9.375 1.3594 13.875-0.89062 0.375-1.7344 0.75-2.5781 1.2188l-118.27 71.531c-12-26.391-18.703-55.688-18.703-86.625 0-30.797 6.7031-59.953 18.562-86.25zm390.14 16.688c7.6406 21.75 11.812 45.141 11.812 69.516s-4.1719 47.719-11.812 69.469c-11.719-45.562-11.719-93.375 0-139.03zm-53.531 11.109c-6.9375 38.531-6.9375 77.953-0.046874 116.44l-71.578-43.125-0.046874 0.046875c-0.84375-0.46875-1.7344-0.84375-2.625-1.2188 0.84375-4.4531 1.3594-9.0469 1.3594-13.734 0-4.7344-0.46875-9.375-1.3594-13.875 0.89062-0.32812 1.7812-0.75 2.625-1.2188zm533.53 28.641c1.2656 8.9531 2.1562 18 2.25 27.188 0.5625 49.172-16.078 95.297-45 132.05l-97.641-97.406-0.046876 0.046875c-0.70312-0.65625-1.4531-1.2656-2.2031-1.8281 1.7344-3.7031 3.1406-7.5938 4.2656-11.672 1.0781-4.0781 1.8281-8.1562 2.2031-12.188 0.9375-0.09375 1.875-0.28125 2.8125-0.46875zm-208.97 7.7812c2.2031-0.09375 4.4062 0.1875 6.7031 0.75 12.094 3.2344 18.844 14.953 15.609 26.906-3.2344 11.953-14.906 18.703-27 15.469s-18.797-14.906-15.562-26.859c2.625-9.7031 10.781-16.031 20.25-16.312zm-469.5 0.046875c12.516 0 22.031 9.5625 22.031 21.938s-9.5156 21.938-22.031 21.938c-12.516 0-22.078-9.5625-22.078-21.938s9.5625-21.938 22.078-21.938zm411.71 63.281c4.7344 6.75 10.547 12.703 17.391 17.531v0.046875c-0.42188 0.84375-0.75 1.7344-1.0312 2.625l-35.719 133.08c-33.891-13.5-64.266-35.953-87.656-65.953 8.5781-20.203 15.188-41.438 19.641-63.469l84.516-22.781c0.98438-0.28125 1.9688-0.5625 2.8594-0.98438zm-366.66 14.531v0.046875c0.79687 0.65625 1.5938 1.2656 2.4375 1.875l118.36 71.25c-33.609 42.938-83.672 72.375-140.86 79.125v-137.76c-0.046875-0.9375-0.1875-1.9219-0.375-2.8594 7.4531-2.7656 14.344-6.7031 20.391-11.625zm-89.906 0.1875c6.0469 4.8281 12.797 8.7188 20.156 11.438l0.046874 0.046875c-0.1875 0.9375-0.32812 1.9219-0.42187 2.8594v137.68c-57.047-6.7031-106.97-36-140.58-78.75l118.17-71.438v0.046875c0.9375-0.5625 1.7812-1.1719 2.625-1.8281zm545.68 8.9531v0.046875c0.5625 0.84375 1.2188 1.6406 1.9219 2.4375l97.547 97.312c-18.891 14.766-40.453 26.578-64.266 34.359-31.5 10.312-64.078 12.703-95.344 8.25l35.672-132.94c0.23438-0.98438 0.42188-1.9219 0.5625-2.9062 8.3438-0.75 16.406-3.0469 23.859-6.5625z"/>
</svg>
