<?xml version="1.0" encoding="UTF-8"?>
<svg width="1200pt" height="1200pt" version="1.1" viewBox="0 0 1200 1200" xmlns="http://www.w3.org/2000/svg">
 <path d="m642.61 265.31c-307.64 0-557.53 250.92-557.53 559.74 0 20.531-7.4062 30.797-19.922 40.406-12.469 9.6094-30.516 16.031-45.375 19.922l0.046875-0.046875c-13.5 2.8594-22.125 16.078-19.266 29.578s16.125 22.125 29.625 19.312l168.14-28.219c12.047-2.0156 20.859-12.516 20.812-24.75v-56.25c0-10.5 0.46875-20.906 1.2188-31.219l418.55 62.203c10.547 1.5469 20.906-3.7969 25.781-13.266 4.875-9.5156 3.2344-21.047-4.1719-28.734l-299.34-306.89c74.812-66.844 173.29-107.44 281.44-107.44 234.1 0 423.32 190.08 423.32 425.34h0.046876c-0.046876 8.3906 4.125 16.219 11.062 20.859l84.047 56.25c7.6875 5.1562 17.578 5.6719 25.734 1.3125 8.1562-4.4062 13.219-12.891 13.172-22.172v-56.25c0-308.81-249.74-559.74-557.39-559.74zm0 49.969c280.5 0 507.42 227.86 507.42 509.76v9.6094l-37.266-24.891c-8.5312-254.68-214.36-460.03-470.16-460.03-261.19 0-473.48 213.14-473.48 475.26v35.203l-56.062 9.4219c8.7188-14.391 21.938-24.703 21.938-44.625 0-281.9 227.06-509.76 507.56-509.76zm-316.74 227.44 247.03 253.03-346.08-51.469c14.625-76.5 49.547-145.64 99.047-201.56z"/>
</svg>
