<?xml version="1.0" encoding="UTF-8"?>
<svg width="1200pt" height="1200pt" version="1.1" viewBox="0 0 1200 1200" xmlns="http://www.w3.org/2000/svg">
 <path d="m600.1 24.984c-82.312 0-150.05 67.734-150.05 150.05v525.05h-37.453c-34.219 0-62.578 28.172-62.578 62.391s28.359 62.578 62.578 62.578h32.859l-16.078 224.95h-66.797c-34.219 0-62.578 28.359-62.578 62.578s28.359 62.578 62.578 62.578h475.03c34.219 0 62.391-28.359 62.391-62.578s-28.172-62.578-62.391-62.578h-66.797l-16.219-224.95h33.047c34.219 0 62.578-28.359 62.578-62.578s-28.359-62.391-62.578-62.391h-37.453v-525.05c0-82.312-67.734-150.05-150.05-150.05zm0 50.016c54.891 0 100.03 45.141 100.03 100.03v549.94c0 6.6094 2.5781 12.984 7.2656 17.672 4.6875 4.7344 11.016 7.4062 17.672 7.4062h62.578c7.2188 0 12.562 5.1562 12.562 12.375s-5.3438 12.562-12.562 12.562h-59.812c-6.9375 0-13.547 2.8594-18.281 7.9688-4.7344 5.0625-7.125 11.859-6.6562 18.75l19.734 274.97v0.046875c0.9375 13.078 11.812 23.203 24.938 23.25h90.047c7.2188 0 12.562 5.3438 12.562 12.562s-5.3438 12.562-12.562 12.562h-475.03c-7.2188 0-12.562-5.3438-12.562-12.562s5.3438-12.562 12.562-12.562h90.094c13.078-0.046875 24-10.172 24.891-23.25l19.734-274.97v-0.046875c0.51562-6.9375-1.9219-13.781-6.7031-18.844-4.7344-5.0625-11.391-7.9219-18.375-7.875h-59.625c-7.2188 0-12.562-5.3438-12.562-12.562s5.3438-12.375 12.562-12.375h62.578c6.6094 0 12.984-2.6719 17.672-7.4062 4.6406-4.6875 7.2656-11.062 7.2188-17.672v-549.94c0-54.891 45.141-100.03 100.03-100.03zm0 25.078c-41.062 0-75.094 33.844-75.094 74.906v549.98c-0.046875 6.6562 2.625 13.031 7.3125 17.766 4.7344 4.6875 11.109 7.3594 17.766 7.3125h100.03c6.6562 0 12.984-2.6719 17.672-7.4062 4.6875-4.6875 7.2656-11.062 7.2656-17.672v-549.94c0-41.062-33.844-74.906-74.906-74.906zm0 49.828c15.609 0 24.938 9.4688 24.938 25.078v525.05h-50.016v-525.05c0-15.609 9.4688-25.078 25.078-25.078zm-52.594 625.08c-13.125 0-24 10.125-24.891 23.25l-9.0469 124.92c-0.51562 6.9375 1.9219 13.781 6.7031 18.844 4.7812 5.1094 11.438 7.9688 18.375 7.9219h122.9c6.9375 0 13.547-2.9062 18.281-7.9688s7.125-11.859 6.6562-18.797l-8.8594-124.92c-0.9375-13.125-11.812-23.25-24.938-23.25zm23.25 50.016h58.688l5.3438 74.906h-69.375zm-37.641 150.05v-0.046875c-13.125 0.046875-24 10.172-24.891 23.25l-5.3438 74.906v0.046875c-0.51562 6.8906 1.9219 13.734 6.6094 18.797 4.7344 5.0625 11.344 7.9688 18.281 7.9688h144.52c6.9375 0.046875 13.641-2.8125 18.375-7.9219 4.7812-5.0625 7.2188-11.906 6.7031-18.844l-5.5312-74.906v-0.046875c-0.9375-13.078-11.812-23.203-24.891-23.25zm23.438 50.016h87.094l1.8281 24.891h-90.797z"/>
</svg>
