<?xml version="1.0" encoding="UTF-8"?>
<svg width="1200pt" height="1200pt" version="1.1" viewBox="0 0 1200 1200" xmlns="http://www.w3.org/2000/svg">
 <path d="m397.55 60.094c-38.766-2.0625-78.422 11.109-115.59 32.484-12.938 7.4531-24.047 19.172-27.281 34.688-1.7344 8.3438-0.84375 16.781 1.875 24.516-12.094 7.9219-27.281 18.703-38.953 30.141v-0.046875 0.1875c-10.781 10.547-14.109 24.094-14.016 36.375s3.5625 24.281 11.625 34.875c16.219 21.234 27.609 33.891 33.938 45.938 6.3281 12.094 9.9844 25.312 9.9844 54.234 0 11.062-5.5312 37.453-11.625 67.172-6.0938 29.766-12.469 64.031-11.625 98.531 2.3906 97.406 15.656 203.48 15.656 402.89 0 22.922-0.5625 41.812-6.8438 59.438s-18.047 35.672-46.312 57.047c-13.5 10.219-22.688 24.281-24.375 39.328-1.6875 15 3.7969 28.312 11.062 37.828s16.312 16.266 26.766 20.438c10.453 4.2188 24.703 7.2656 38.906-2.5781 93.281-64.781 162.79-152.34 164.06-264.66 0.09375-6.0938 0-38.391 0-41.719 0-68.297-14.953-104.06-28.781-127.69-13.781-23.625-21.984-29.859-21.984-63.656v-55.547c0-21.797 0.09375-34.125 5.1562-47.062 4.3594-11.156 13.875-25.266 33.328-45.234 10.266 3.1406 20.812 6.6094 31.781 11.484 0.1875 0.75 0.375 1.5938 0.75 4.9688 0.46875 4.5469 0.84375 11.203 4.0312 19.734 3.2344 8.5312 11.625 18.844 22.359 23.625 42.281 18.797 103.31 40.688 155.9 58.875 26.297 9.0938 50.297 17.297 68.484 23.438s33.938 11.859 31.734 10.875c12.938 5.6719 26.297 8.0156 38.906 5.2969 12.656-2.6719 23.062-10.266 29.719-18.469 77.203-94.922 152.39-188.76 230.11-289.55 7.9219-10.266 14.672-27.797 4.9688-44.672s-28.312-21.375-47.438-21.188c-171.1 1.7344-210.56 0-346.74 0-37.922 0-51.938-9.4219-66.047-28.406-14.156-19.031-25.312-51.281-41.766-90.422-22.219-53.016-61.5-84.281-105.38-91.734-5.4844-0.9375-11.016-1.5-16.547-1.8281zm-2.4844 50.016c3.7031 0.1875 7.2656 0.5625 10.688 1.125h0.046875c27.562 4.6875 50.203 20.438 67.547 61.828 15.516 37.031 26.203 71.906 47.812 100.92s57.047 48.516 106.12 48.516c132.19 0 177.61 1.5469 338.16 0-73.219 94.547-144.74 183.89-217.97 273.89-1.2188 1.5-0.84375 1.0781-1.125 1.125-0.1875 0.046875-2.3438 0.46875-8.4844-2.25-8.25-3.6094-17.531-6.375-35.812-12.562-18.234-6.1875-42.188-14.203-68.25-23.25-50.859-17.625-109.08-38.953-148.18-56.109-0.1875-1.2188-0.375-1.4531-0.75-4.4531-0.5625-4.9688-1.0312-12.328-4.7812-21.047s-12.234-18.375-22.922-23.25c-30.141-13.781-55.969-18.703-70.641-24.188-7.3594-2.7188-11.484-5.1562-13.688-7.3594s-3.8438-4.5-5.1562-11.625c-0.84375-4.6406 0.5625-12.281 6.0938-23.438s14.438-24.375 22.828-39.094c8.4375-14.719 16.922-31.172 18.656-51.141 1.7344-19.922-5.8594-42.75-23.25-60.141-22.219-22.219-65.672-75.562-87.094-100.59 0.046875-0.046875-0.84375 0.5625 2.0625-1.125 31.359-18 62.438-27 88.172-25.828zm-108.89 82.688c21.891 26.25 49.5 59.391 70.359 80.25 9 9 9.4688 13.078 8.8125 20.297s-5.0156 18.094-12.141 30.609c-7.1719 12.516-16.5 26.391-24.188 41.906s-14.438 33.984-10.547 54.844c2.7656 14.812 9.4688 28.125 18.984 37.641 4.4531 4.4531 9.2812 7.9688 14.25 10.922-13.875 16.172-23.109 30.797-28.969 45.703-8.9062 22.734-8.6719 43.547-8.6719 65.344v55.547c0 44.578 17.203 69 28.828 88.922s21.938 40.641 21.938 102.42v40.969c-1.0312 89.906-55.219 160.78-137.29 219.42-1.0781-0.84375-2.0625-1.3125-2.7188-2.2031-1.4062-1.8281-1.0781-2.4375-1.125-2.0625s-0.65625-0.65625 4.9688-4.9688c34.031-25.734 53.625-52.828 63.281-80.062s9.6094-53.062 9.6094-76.219c0-201.61-13.406-310.31-15.656-404.02-0.65625-27.422 4.6406-58.641 10.5-87.469 5.8594-28.781 12.75-54.047 12.75-77.156 0-33.703-5.2969-57.656-15.656-77.484s-23.484-33.703-38.391-53.156c-0.46875-0.65625-1.5-3.1406-1.5-4.9688 0-0.75 0.09375-1.0312 0.1875-1.1719 8.0156-7.5 21.188-16.5 32.484-23.906zm127.82 180.89c-6.6094 0-12.984 2.625-17.672 7.3125s-7.3125 11.016-7.3125 17.672c0 6.6094 2.625 12.984 7.3125 17.672s11.062 7.3125 17.672 7.3125c6.6562 0 12.984-2.625 17.672-7.3125s7.3594-11.062 7.3594-17.672c0-13.828-11.203-24.984-25.031-24.984z"/>
</svg>
