<?xml version="1.0" encoding="UTF-8"?>
<svg width="1200pt" height="1200pt" version="1.1" viewBox="0 0 1200 1200" xmlns="http://www.w3.org/2000/svg">
 <path d="m557.34 374.95c-24.422 0-44.812 20.391-44.812 44.812v35.25c0 24.422 20.391 45.047 44.812 45.047h17.531v24.891h-24.891c-3.1875 0.046875-6.2812 0.65625-9.2344 1.8281l-438.84 173.16h-39.469c-34.219 0-62.391 28.312-62.391 62.531s28.172 62.531 62.391 62.531h100.73c11.016-1.0781 20.062-9.2344 22.172-20.109l352.08-114.94v9.9844c-0.046875 13.875 11.203 25.172 25.078 25.078h12.375v72.891c0.046875 13.828 11.344 24.938 25.125 24.891 13.734-0.046875 24.844-11.156 24.891-24.891v-72.891h12.562c13.875 0.046875 25.172-11.203 25.078-25.078v-9.9844l350.81 114.42c2.0156 11.531 11.766 20.109 23.438 20.672h100.55c34.219 0 62.578-28.312 62.578-62.531s-28.359-62.531-62.578-62.531h-39.469l-438.66-173.16c-2.9062-1.1719-6.0469-1.7812-9.2344-1.8281h-25.078v-24.891h17.719c24.422 0 44.812-20.625 44.812-45.047v-35.25c0-24.422-20.391-44.812-44.812-44.812zm5.1562 50.016h74.953v25.078h-74.953zm-7.5469 150.05h90.234l438.89 173.29c2.9531 1.125 6.0938 1.6875 9.2344 1.6406h44.156c7.2188 0 12.562 5.3438 12.562 12.562s-5.3438 12.562-12.562 12.562h-76.406c-5.2969-6.1406-10.969-11.344-16.453-13.078h-0.1875l-399.24-130.13c-16.125-5.2031-32.672 6.8906-32.672 23.812v19.406h-25.078v-19.406c0-16.969-16.5-29.016-32.672-23.812l-399.32 130.13c-5.5312 1.7344-11.344 6.9375-16.641 13.078h-76.359c-7.2188 0-12.422-5.3438-12.422-12.562s5.2031-12.562 12.422-12.562h44.297c3.1406 0.046875 6.2812-0.5625 9.2344-1.6406z"/>
</svg>
