<?xml version="1.0" encoding="UTF-8"?>
<svg width="1200pt" height="1200pt" version="1.1" viewBox="0 0 1200 1200" xmlns="http://www.w3.org/2000/svg">
 <path d="m593.63 115.97c-46.969 0-85.453 38.672-85.453 85.641v303.89c0 5.0625-3.2812 12.938-9.375 19.031s-14.156 9.5625-19.219 9.5625h-193.97c-46.969 0-85.594 38.484-85.594 85.453v378.89c0 46.969 38.625 85.594 85.594 85.594h628.97c46.969 0 85.453-38.625 85.453-85.594v-378.89c0-46.969-38.484-85.453-85.453-85.453h-193.97c-5.0625 0-13.125-3.4688-19.219-9.5625s-9.375-13.969-9.375-19.031v-303.89c0-46.969-38.672-85.641-85.641-85.641zm0 50.016h12.75c20.156 0 35.578 15.516 35.578 35.625v303.89c0 21.75 10.266 40.453 24.234 54.422s32.719 24.047 54.422 24.047h193.97c20.156 0 35.391 15.469 35.391 35.578v378.89c0 20.156-15.234 35.578-35.391 35.578h-628.97c-20.156 0-35.578-15.469-35.578-35.578v-378.89c0-20.156 15.469-35.578 35.578-35.578h193.97c21.75 0 40.453-10.031 54.422-24.047 13.969-13.969 24.047-32.719 24.047-54.422v-303.89c0-20.156 15.469-35.625 35.578-35.625zm6.4219 41.859v-0.046875c-7.0781 0-13.922 2.8125-18.938 7.875-5.0156 5.0156-7.875 11.812-7.875 18.938 0.046875 14.812 12.047 26.766 26.812 26.766 14.812 0 26.812-11.953 26.812-26.766 0-7.125-2.8125-13.922-7.8281-18.984-5.0156-5.0156-11.859-7.8281-18.984-7.8281zm-294.66 401.26c-13.734 0-24.891 11.109-24.938 24.891v350.11c0.046875 13.734 11.203 24.844 24.938 24.891h589.26c13.781 0.046875 25.031-11.109 25.078-24.891v-350.11c-0.046875-13.828-11.297-24.984-25.078-24.891zm25.078 50.016h539.21v299.9h-539.21z"/>
</svg>
