<?xml version="1.0" encoding="UTF-8"?>
<svg width="1200pt" height="1200pt" version="1.1" viewBox="0 0 1200 1200" xmlns="http://www.w3.org/2000/svg">
 <path d="m262.5 400.13c-95.25 0-163.4 18.188-208.69 61.453-45.844 43.828-53.766 103.27-53.766 152.06v25.312c0 48.75 13.781 93.984 43.781 126.94 15.609 17.156 40.219 33.938 71.766 33.984 32.859 0.046875 59.625-18.703 76.359-41.344-1.5 2.0156 3.1406-3.8438 7.4062-9.2344 4.3125-5.3906 9.7969-12.516 15.281-19.406 10.969-13.781 21.609-27.141 21.609-27.141 21.422-26.672 17.062-66.422-9.6094-87.844s-66.422-17.062-87.844 9.6094c0 0-5.0625 6.6562-9.5156 11.953-1.6875 2.0156-4.3594 5.2031-4.3594-2.4375v-20.391c0-36.562 4.5-51.469 15.141-61.641 10.125-9.6562 42.891-26.953 122.34-26.953h0.1875c25.359-0.09375 103.83-0.28125 111.23-0.09375 1.5 0.09375 7.1719 0.5625 10.031 1.875 4.3594 2.0156 10.5 5.0156 17.531 8.2969 14.062 6.5156 31.078 15.094 51.844 15.047 52.828-0.09375 95.438-0.1875 146.72-0.1875v0.046875c51.281 0.046875 93.891 0.046875 146.72 0.1875 20.766 0.046875 37.781-8.5312 51.844-15.047 7.0312-3.2812 13.172-6.2812 17.531-8.2969 2.8594-1.3125 8.4844-1.7344 10.031-1.875 7.4062-0.1875 85.875 0 111.23 0.09375h0.1875c79.453 0 112.22 17.297 122.34 26.953 10.641 10.172 15.141 25.031 15.141 61.641v20.391c0 7.6406-2.6719 4.4531-4.3594 2.4375-4.4531-5.2969-9.5156-11.953-9.5156-11.953-21.422-26.719-61.172-31.078-87.844-9.6094-26.719 21.422-31.078 61.172-9.6094 87.844 0 0 10.641 13.359 21.609 27.141 5.4844 6.8906 11.016 13.969 15.281 19.406 4.3125 5.3906 8.9062 11.25 7.4062 9.2344 16.734 22.688 43.5 41.391 76.359 41.344 31.547-0.046875 56.156-16.828 71.766-33.984 30-32.953 43.781-78.188 43.781-126.94v-25.312c0-48.797-7.9219-108.23-53.766-152.06-45.281-43.266-113.44-61.453-208.69-61.453h-337.55zm0 50.109h675.1c88.922 0 142.13 16.922 174.24 47.625 31.594 30.188 38.25 72.281 38.25 115.88v25.266c0 39.375-11.062 71.438-30.844 93.234-9.2812 10.172-20.812 17.719-34.688 17.719-12.562 0-27.234-8.9062-36.188-21.047-2.4844-3.375-3.9844-5.25-8.2969-10.688s-10.031-12.469-15.516-19.406c-18.609-23.344-21.797-26.953-21.797-27.328-4.5-5.625-3.5625-13.031 2.0625-17.531s13.031-3.75 17.531 1.875c0 0.09375 34.359 43.219 41.719 52.781 10.312 13.312 30.562 12.844 40.219-0.9375 9.5625-13.594 20.625-37.312 20.859-69.234v-24.703c0-41.109-6.1875-74.484-30.609-97.781-24.938-23.812-70.641-40.641-156.89-40.641-40.406-0.09375-80.812 0.09375-121.22 0.5625-12.328 0.375-15.375 3.4688-21.047 6.0938-5.6719 2.625-11.625 5.625-17.719 8.4375-12.188 5.625-25.547 9.8438-30.797 9.7969-51.281-0.09375-93.891-0.09375-146.72-0.1875v-0.046875c-52.828 0.09375-95.438 0.09375-146.72 0.1875-5.25 0-18.656-4.1719-30.797-9.7969-6.0938-2.8125-12.047-5.8594-17.719-8.4375-5.6719-2.625-8.7188-5.7188-21.047-6.0938-40.406-0.46875-80.812-0.65625-121.22-0.5625-86.25 0-131.95 16.781-156.89 40.641-24.422 23.344-30.609 56.719-30.609 97.781v24.703c0.1875 31.922 11.297 55.641 20.859 69.234 9.6562 13.781 29.906 14.297 40.219 0.98438 7.3594-9.5625 41.719-52.688 41.719-52.781 4.5-5.625 11.906-6.375 17.531-1.875s6.5625 11.906 2.0625 17.531c0 0.375-3.1875 3.9844-21.797 27.328-5.4844 6.8906-11.203 13.922-15.516 19.406-4.3125 5.4375-5.8125 7.3594-8.2969 10.688-8.9531 12.141-23.625 21.047-36.188 21.047-13.875 0-25.406-7.5469-34.688-17.719-19.781-21.75-30.844-53.859-30.844-93.234v-25.266c0-43.594 6.6562-85.688 38.25-115.88 32.109-30.703 85.312-47.578 174.24-47.625z"/>
</svg>
