<?xml version="1.0" encoding="UTF-8"?>
<svg width="1200pt" height="1200pt" version="1.1" viewBox="0 0 1200 1200" xmlns="http://www.w3.org/2000/svg">
 <path d="m300.05 162.56c-82.688 0-150.05 67.359-150.05 150.05v275.02c0.046875 13.781 11.297 24.938 25.078 24.891h150.05v25.078h-150.05c-13.781-0.046875-25.031 11.109-25.078 24.938v75.094c0 6.6094 2.6719 12.984 7.3594 17.672 4.7344 4.6875 11.109 7.3125 17.719 7.2656h75.469v200.06c0 41.109 33.844 74.906 74.953 74.906h175.08c110.39 0 199.92-89.484 199.92-199.87 0-27.844-13.172-50.953-23.438-75.094h248.02c13.781-0.046875 24.891-11.203 24.891-24.938v-125.11c-0.046875-13.734-11.156-24.844-24.891-24.891v-50.344c15.094-11.484 24.891-29.578 24.891-49.734v-43.031l77.344-7.1719c12.844-1.2188 22.641-11.906 22.734-24.75v-75.141c-0.046875-13.688-11.156-24.844-24.891-24.891h-275.02c-13.828-0.046875-25.031 11.109-25.078 24.891v100.08c-0.046875 7.0312 2.9531 13.734 8.1562 18.469s12.141 7.0781 19.172 6.4219l22.688-2.0625v27.141c0 20.203 9.9375 38.297 25.078 49.828h0.046875v50.25c-13.828-0.046875-25.078 11.062-25.125 24.891v25.078h-250.08v-25.078h150.05c13.781 0.046875 25.031-11.109 25.078-24.891v-275.02c0-82.688-67.359-150.05-150.05-150.05zm0 50.062h250.03c55.828 0 100.03 44.156 100.03 99.984v249.84h-450.14v-249.84c0-55.828 44.203-99.984 100.03-99.984zm475.03 150h224.95v27.141l-77.156 6.9844c-12.938 1.0781-22.922 11.953-22.875 24.938v65.859c0 7.3594-5.0156 12.562-12.375 12.562h-50.016c-7.3594 0-12.562-5.2031-12.562-12.562v-54.656l0.046875 0.046875c-0.046875-7.0312-3.0469-13.688-8.25-18.375s-12.141-6.9844-19.078-6.3281l-22.641 2.0156zm75.094 187.5h24.891v37.5h-24.891zm-475.03 62.391h100.03v50.016c-0.046875 13.781 11.109 25.031 24.938 25.078h300.1c13.781-0.046875 24.938-11.297 24.891-25.078v-24.891h74.906v74.906h-255.56v-0.046875c-9.3281 0-17.859 5.2031-22.172 13.453s-3.6562 18.234 1.6406 25.875c16.875 24.281 26.578 53.766 26.578 85.828 0 83.531-66.328 149.86-149.86 149.86h-175.08c-14.297 0-24.938-10.641-24.938-24.891v-99.516h77.484c11.719 56.578 62.156 99.516 122.02 99.516 68.438 0 124.55-56.156 124.55-124.6 0-68.438-56.109-124.36-124.55-124.36-59.953 0-110.39 42.844-122.02 99.469h-77.484v-75.469l-0.046876-0.046875c0.046876-6.6562-2.5781-13.078-7.3125-17.766-4.6875-4.7344-11.109-7.3594-17.766-7.3594h-75.469v-24.891h150.05c6.6562 0.046875 13.031-2.625 17.766-7.3125 4.6875-4.7344 7.3125-11.109 7.3125-17.766zm124.97 151.13c41.438 0 74.578 32.906 74.578 74.344s-33.141 74.578-74.578 74.578-74.578-33.141-74.578-74.578 33.141-74.344 74.578-74.344z"/>
</svg>
