<?xml version="1.0" encoding="UTF-8"?>
<svg width="1200pt" height="1200pt" version="1.1" viewBox="0 0 1200 1200" xmlns="http://www.w3.org/2000/svg">
 <path d="m309.71 134.11c-45.562-0.09375-90.656 17.484-124.4 51.188 0 0.046875-0.046876 0.046875-0.046876 0.09375-53.906 54-66.656 136.97-31.453 204.61 7.7812 15 27.891 18.094 39.844 6.1406l26.906-26.859c8.1562-8.1562 20.203-8.1562 28.312-0.046874 8.1094 8.1094 8.1094 20.203-0.046876 28.359l-26.859 26.859c-11.953 12-8.8125 32.156 6.2344 39.891 34.781 17.953 74.25 21.328 112.41 14.156l287.21 255.28 317.68 317.72c19.266 19.266 51.422 19.266 70.688 0l35.344-35.391c19.266-19.266 19.266-51.422 0-70.688l-317.68-317.68-255.28-287.16c7.1719-38.156 3.7969-77.672-14.156-112.45-7.7812-15.094-27.984-18.234-39.938-6.1875l-31.828 31.875c-8.1562 8.1562-20.25 8.1094-28.359 0s-8.1094-20.156 0.046875-28.312l31.734-31.734c11.953-11.953 8.8125-32.062-6.1406-39.844-25.359-13.219-52.875-19.688-80.203-19.781zm-7.4062 50.531c9.9844-0.46875 20.062 0.1875 30.047 2.1094l-3.3281 3.375c-27.141 27.141-27.188 71.906-0.046875 99.047s71.953 27.141 99.094 0l2.4844-2.5312c3.3281 18.609 3.8438 37.594-1.4062 56.109-2.3438 8.2031-0.28125 17.062 5.3438 23.438l147 165.42-49.828 49.828-165.42-147.05c-6.4219-5.6719-15.281-7.6875-23.484-5.2969-18.984 5.3906-38.344 4.5938-57.375 0.98438 24.797-27.328 25.172-69.797-1.1719-96.141-26.672-26.672-69.984-26.391-97.266-0.65625-7.9219-40.078 3.6562-82.359 33.656-112.45l0.046875-0.046875v-0.046875c22.406-22.359 51.656-34.5 81.656-36zm312.52 384.32 82.734 93.047 318.71 318.71-35.344 35.344-318.74-318.66-93-82.734z"/>
</svg>
