<?xml version="1.0" encoding="UTF-8"?>
<svg width="1200pt" height="1200pt" version="1.1" viewBox="0 0 1200 1200" xmlns="http://www.w3.org/2000/svg">
 <path d="m259.78 123.19c-26.016 0-50.062 13.359-70.688 33.984l-53.109 52.922c-24.188 24.188-24.188 64.266 0 88.406 24.188 24.188 64.219 24.188 88.359 0l17.203-17.203c7.8281-7.8281 12.797-12.281 16.078-14.953 0.9375 0.65625 0.375-0.09375 4.0312 3.7031 6.1875 6.375 15.234 17.109 27.281 31.547l387 463.22c-21.984 14.391-42.75 35.016-35.625 61.641 8.8594 33.047 43.547 52.922 76.594 44.109 23.906-6.4219 42.703-21.234 61.641-35.578l2.7656 2.7656 105.94 105.89-26.438 26.578c-24.188 24.188-24.188 64.266 0 88.406 24.188 24.188 64.219 24.188 88.359 0l45.797-45.797c15.141-0.5625 31.172 4.2656 42.609-7.1719l26.344-26.578c24.188-24.188 24.188-64.266 0-88.406l-733.55-733.55c-20.625-20.625-44.672-33.984-70.688-33.984zm0 50.016c9.3281 0 20.531 4.5 35.25 19.219l733.74 733.74c5.2031 5.2031 5.2031 12.328 0 17.531l-26.578 26.578c-4.0312 4.0312-9.4688 4.6406-14.203 2.3906h0.046875c-9.5625-4.5469-20.906-2.625-28.406 4.8281l-45.75 45.75c-5.2031 5.2031-12.516 5.2031-17.719 0-5.2031-5.2031-5.2031-12.328 0-17.531l44.297-44.297-0.046875 0.046876c9.7031-9.7969 9.7031-25.547 0-35.297l-123.84-123.84-15.516-15.656c-4.6875-4.6875-11.062-7.3125-17.672-7.3125-6.6562 0-13.031 2.625-17.719 7.3125-16.688 16.734-37.734 29.391-61.688 35.812-6.9375 1.875-13.406-1.875-15.281-8.8125s1.875-13.453 8.8125-15.328c8.5781-2.2969 16.688-5.625 24.375-9.75l0.046875-0.046875c6.6094-3.5625 11.25-9.8906 12.703-17.25 1.4062-7.4062-0.51562-15-5.3438-20.766l-402.14-480.89c-12.047-14.438-21.188-25.406-29.672-34.172-8.5312-8.7656-16.5-16.641-29.906-20.109-13.359-3.4688-27.938 2.0156-36.703 8.2969s-15.562 13.594-24.562 22.547l-17.203 17.156c-5.2031 5.2031-12.469 5.2031-17.672 0s-5.2031-12.516 0-17.719l52.922-53.109c14.719-14.719 26.109-19.172 35.438-19.172zm724.69 735.56h0.046875c-6.6562-0.046875-12.984 2.625-17.672 7.3125s-7.3125 11.016-7.3125 17.672c0 6.6094 2.625 12.984 7.3125 17.672s11.016 7.3125 17.672 7.3125c13.781 0 24.984-11.203 24.984-24.984 0-6.6562-2.625-12.984-7.3125-17.672s-11.062-7.3125-17.672-7.3125z"/>
</svg>
