<?xml version="1.0" encoding="UTF-8"?>
<svg width="1200pt" height="1200pt" version="1.1" viewBox="0 0 1200 1200" xmlns="http://www.w3.org/2000/svg">
 <path d="m600.05 0.046875c-21.703 0-42.094 7.4062-57.75 20.109-15.703 12.703-27 29.906-36 49.266-18 38.766-27.234 87.891-34.172 142.26-13.875 108.75-17.719 238.97-41.719 328.5-24.891 92.953-60.375 147.89-91.688 199.13-31.312 51.234-59.438 100.78-59.438 172.74v22.688c0 52.406 36.469 111.19 79.547 164.21 21.516 26.531 45.094 50.625 68.812 68.859 23.672 18.234 46.969 32.109 73.828 32.109h197.11c60 0 111.61-47.859 152.06-101.53 40.453-53.625 70.125-113.86 70.125-163.69v-22.688c0-71.672-27.234-117.98-57.891-167.06-30.656-49.031-66.047-103.55-93.234-204.84-24-89.531-27.844-219.74-41.719-328.5-6.9375-54.375-16.125-103.5-34.125-142.26-9-19.359-20.484-36.562-36.188-49.266s-35.859-20.109-57.562-20.109zm0 50.062c11.156 0 18.516 2.8125 26.156 9.0469 7.6875 6.2344 15.328 16.594 22.172 31.359 13.688 29.484 23.203 75.141 29.906 127.55 13.359 104.77 16.359 235.64 43.031 335.16 28.828 107.58 68.625 169.82 99.094 218.44 30.422 48.656 50.391 80.719 50.391 140.48v22.688c0 26.156-24.375 85.922-60.141 133.4-35.812 47.484-82.688 81.797-112.03 81.797h-197.11c-6 0-23.906-6.7031-43.359-21.609-19.453-14.953-41.016-36.656-60.562-60.703-39.094-48.094-68.25-109.27-68.25-132.84v-22.688c0-59.484 21.188-96.234 52.031-146.72 30.891-50.484 70.547-112.45 97.266-212.21 26.672-99.516 29.812-230.39 43.172-335.16 6.7031-52.406 16.172-98.016 29.906-127.55 6.8438-14.766 14.484-25.125 22.172-31.359 7.6875-6.2344 15.047-9.0469 26.203-9.0469zm0 324.94c-22.922 0-44.484 16.312-54.281 36.891-9.8438 20.578-14.016 45.891-16.781 78.609-5.625 65.438-3.6562 160.97-3.6562 292.74 0 47.531-3.3281 95.672 2.0156 135.66 2.6719 20.016 7.3125 38.531 18.844 54.422 11.531 15.891 32.109 26.578 53.859 26.578s42.375-10.641 53.906-26.578c11.531-15.891 16.172-34.453 18.844-54.422 5.3438-39.984 2.0156-88.125 2.0156-135.66 0-131.76 1.7344-227.29-3.8438-292.74-2.8125-32.719-6.9844-58.031-16.781-78.609-9.8438-20.578-31.125-36.891-54.047-36.891zm-3.0469 49.969c0.75 0 1.6406 0.09375 2.9531 0.09375h0.046875c5.2969 0 4.2656-1.5938 9.0469 8.4375s9.375 31.172 11.953 61.266c5.1562 60.234 3.7031 156.28 3.7031 288.47 0 49.5 2.5312 97.359-1.6406 128.95-2.1094 15.797-6.0938 26.859-9.6094 31.734s-4.5469 5.9062-13.406 5.9062c-8.9062 0-9.9375-1.0312-13.5-5.9062-3.5156-4.875-7.5-15.938-9.6094-31.734-4.2188-31.594-1.6406-79.453-1.6406-128.95 0-132.19-1.6406-228.24 3.5156-288.47 2.5781-30.141 7.3594-51.234 12.141-61.266 3.6094-7.5 3.8906-8.5312 6.0469-8.5312z"/>
</svg>
