<?xml version="1.0" encoding="UTF-8"?>
<svg width="1200pt" height="1200pt" version="1.1" viewBox="0 0 1200 1200" xmlns="http://www.w3.org/2000/svg">
 <path d="m600.05 149.95c-123.19 0-234.98 49.734-316.31 130.18-0.60938 0.5625-1.2656 1.1719-1.8281 1.8281-0.75 0.65625-1.4531 1.4062-2.1094 2.1562-80.25 81.328-129.89 192.94-129.89 315.98s49.641 234.61 129.94 315.89c1.3125 1.6406 2.8125 3.1406 4.5 4.4062 0.046876 0.046875 0.046876 0.09375 0.09375 0.09375 80.625 79.359 191.02 128.63 312.71 129.37 0.046875 0 0.09375 0.046875 0.1875 0.046875v0.046875c1.9219 0.1875 3.8906 0.1875 5.8594-0.046875h0.09375c121.31-0.84375 231.28-49.875 311.76-128.86 0.046874-0.046875 0.09375-0.046875 0.1875-0.09375 2.2031-1.5938 4.1719-3.5625 5.7656-5.7656v-0.046875c79.266-80.719 128.44-191.06 129-312.84 0.14063-1.5469 0.14063-3.0938 0-4.5938-0.65625-122.06-50.062-232.74-129.71-313.55-1.3125-1.6875-2.8125-3.2344-4.5469-4.5469-81.281-80.109-192.71-129.71-315.61-129.71zm12 50.297c71.484 2.1094 138.24 22.828 195.52 57.609 5.4844 3.3281 10.875 6.7969 16.219 10.406 6.2344 4.2188 12.281 8.625 18.281 13.172l-25.172 3.0938h-0.046875c-13.688 1.6875-23.438 14.109-21.75 27.844 0.79688 6.5625 4.1719 12.562 9.4219 16.641 5.2031 4.0781 11.859 5.9531 18.469 5.1094l68.344-8.2969c19.172 20.344 36.234 42.609 50.812 66.656 23.344 38.484 40.406 81.281 49.688 126.89 1.7812 8.6719 3.1406 17.484 4.3594 26.344l-19.688-15.422 0.046875 0.046875c-5.25-4.125-11.859-6-18.469-5.2031-6.5625 0.84375-12.516 4.2188-16.594 9.4219-4.1719 5.25-6.0469 11.906-5.25 18.516s4.2188 12.656 9.4688 16.734l53.953 42.234c-0.46875 16.594-1.875 32.953-4.3125 48.984-7.0781 46.406-22.078 90.188-43.594 129.84-9.2344 17.016-19.641 33.234-31.172 48.609-0.65625 0.84375-1.3594 1.6875-2.0625 2.5781l-3.1406-25.172h0.046875c-0.79688-6.5625-4.1719-12.562-9.4219-16.688-5.2031-4.0781-11.859-5.9062-18.422-5.1094-6.6094 0.84375-12.609 4.2188-16.688 9.4688-4.0781 5.2031-5.9062 11.859-5.1094 18.422l8.4375 68.297c-59.109 55.688-135.24 93.469-219.89 104.95l15.422-19.688h0.046875c8.4375-10.875 6.4688-26.578-4.4531-35.062-5.2031-4.0781-11.859-5.9531-18.469-5.1562-6.5625 0.79688-12.516 4.2188-16.594 9.4219l-42.234 53.953c-2.8594-0.09375-5.7656-0.09375-8.625-0.28125-83.109-4.1719-159.37-33.656-221.48-80.859l25.312-3.1406h-0.046875c6.6094-0.79687 12.609-4.1719 16.688-9.4219s5.9062-11.859 5.1094-18.469c-0.79688-6.5625-4.2188-12.562-9.4219-16.641-5.25-4.0781-11.859-5.9531-18.469-5.1094l-68.391 8.4375c-1.6406-1.7344-3.3281-3.4219-4.9219-5.1562-53.062-58.359-88.922-132.56-100.03-214.74l19.828 15.469-0.046875-0.046875c10.922 8.4844 26.578 6.4688 35.062-4.4062s6.5625-26.578-4.2656-35.062l-54.141-42.281c2.5312-86.391 32.344-165.84 81.188-230.06l3.0938 25.312v-0.046875c1.6875 13.688 14.156 23.438 27.844 21.797 6.5625-0.84375 12.562-4.2188 16.641-9.4688 4.0781-5.2031 5.9531-11.859 5.1094-18.422l-8.2969-68.391v-0.046875c59.203-55.734 135.32-93.516 220.03-105l-15.516 19.875c-8.5312 10.828-6.6094 26.531 4.2188 35.062 5.25 4.125 11.906 6 18.516 5.2031 6.6562-0.79688 12.656-4.2188 16.734-9.4688zm-12 74.25c-179.48 0-325.6 146.11-325.6 325.6s146.11 325.55 325.6 325.55 325.55-146.06 325.55-325.55-146.06-325.6-325.55-325.6zm0 50.062c152.48 0 275.48 123.1 275.48 275.53 0 152.48-123.05 275.48-275.48 275.48-152.48 0-275.53-123.05-275.53-275.48 0-152.48 123.1-275.53 275.53-275.53z"/>
</svg>
