<?xml version="1.0" encoding="UTF-8"?>
<svg width="1200pt" height="1200pt" version="1.1" viewBox="0 0 1200 1200" xmlns="http://www.w3.org/2000/svg">
 <path d="m928.36 287.44c-20.672-0.84375-42.328 0.98438-64.781 5.7188l-465.61 98.016c-65.672 13.828-114.7 56.484-121.97 111.66-6.8438 51.75 18.328 95.531 48 124.55 30.281 29.625 40.312 53.766 41.531 73.453s-6.1875 37.359-19.547 54.094c-25.641 31.969-65.953 44.766-99.656 22.312l-120.71-80.484c-28.453-18.984-67.734-11.109-86.719 17.344-18.984 28.5-10.969 67.781 17.531 86.719l120.71 80.484c91.641 61.031 205.97 26.953 266.29-48.328 61.031-76.172 63.891-201.37-31.922-295.08-3.5625-3.4688-7.125-8.9062-9.2344-13.641-1.4062-3.1875-1.4531-2.9062-1.6406-3.3281 1.5469-0.9375 6.7031-3.9375 23.062-7.3594l465.79-98.016c55.125-11.578 77.859 0.375 109.97 27.844 37.594 32.156 46.031 55.359 47.062 66.047 1.1719 12.047-0.98438 17.016-13.641 28.594-10.781 9.8906-32.297 19.172-53.344 22.312-21.047 3.1875-41.344-0.46875-48.188-4.7812l-102.8-64.594c-28.969-18.234-67.969-9.4219-86.203 19.547s-9.4219 67.969 19.547 86.203l102.8 64.594c81.234 51.094 186.14 29.719 252.47-30.984 34.219-31.312 58.875-78.984 53.719-132.89-5.1094-53.25-36.984-103.59-90.234-149.11-38.672-33.094-90.422-58.547-152.26-60.891zm-2.0156 50.016c49.359 1.875 90.141 21.844 121.78 48.891 46.922 40.125 69.375 79.359 72.891 115.88 3.4688 35.953-13.172 68.766-37.641 91.172-51.094 46.781-133.03 62.719-191.9 25.641l-102.8-64.594c-6.0938-3.8438-7.9219-11.062-4.0781-17.156s11.25-7.875 17.344-4.0781l102.8 64.594c24.094 15.188 53.391 16.359 82.312 12s57.891-15.094 79.547-34.875c19.734-18.047 32.109-43.453 29.531-70.312-2.7188-28.219-20.438-61.828-64.219-99.281-37.969-32.484-85.688-52.875-152.81-38.766l-465.61 98.016c-21.938 4.5938-35.906 9.4688-47.062 18.469-11.109 9-15.375 24.469-16.078 29.531-1.7812 13.547 1.6875 21.938 6.0938 31.922s10.734 20.156 19.922 29.156c80.016 78.281 73.219 171.74 28.031 228.1-45.844 57.234-131.26 83.438-199.69 37.828l-120.71-80.484c-6-3.9844-7.5-11.344-3.5156-17.344s11.344-7.3125 17.344-3.3281l120.71 80.484c56.859 37.875 127.55 15.469 166.26-32.859 18.797-23.438 32.766-53.672 30.656-88.219-2.1562-34.547-20.109-70.734-56.484-106.31-22.172-21.703-37.875-49.781-33.609-82.125 3.8438-28.922 32.297-58.781 82.875-69.375l465.61-98.016c18.609-3.9375 36.047-5.2969 52.406-4.5938z"/>
</svg>
