<?xml version="1.0" encoding="UTF-8"?>
<svg width="1200pt" height="1200pt" version="1.1" viewBox="0 0 1200 1200" xmlns="http://www.w3.org/2000/svg">
 <path d="m600 150c-13.828 0-24.984 11.203-24.984 24.984v2.3438c-20.484 1.2188-40.641 3.7969-60.234 7.8281l-0.5625-2.1562c-3.6094-13.312-17.297-21.234-30.609-17.672-13.359 3.5625-21.281 17.297-17.719 30.609l0.65625 2.2969c-19.359 6.4688-38.109 14.25-56.109 23.297l-1.2188-2.1094c-6.8906-11.953-22.172-16.078-34.125-9.1875s-16.031 22.219-9.1406 34.172l1.2188 2.1562c-16.969 11.203-33.047 23.578-48.188 37.031l-1.7344-1.7344c-4.6875-4.6875-11.062-7.3125-17.672-7.3125s-12.938 2.625-17.625 7.3125c-9.75 9.75-9.75 25.547 0 35.297l1.7344 1.7344c-13.453 15.141-25.828 31.266-37.031 48.188l-2.1562-1.2188c-5.7188-3.2812-12.562-4.2188-18.938-2.4844-6.4219 1.6875-11.906 5.9062-15.234 11.625-6.8906 11.953-2.7188 27.234 9.2344 34.125l2.0625 1.2188c-9.0469 18-16.828 36.75-23.297 56.109l-2.2969-0.65625c-13.359-3.5625-27.047 4.4062-30.609 17.719s4.3594 27.047 17.672 30.609l2.1562 0.5625c-4.0312 19.641-6.6094 39.75-7.8281 60.234h-2.3438c-13.828 0-24.984 11.203-24.984 24.984 0 13.828 11.203 24.984 24.984 24.984h2.3438c1.2188 20.484 3.7969 40.641 7.8281 60.234l-2.1562 0.5625c-13.312 3.6094-21.234 17.297-17.672 30.609 3.5625 13.359 17.297 21.281 30.609 17.719l2.2969-0.65625c6.4688 19.359 14.25 38.109 23.297 56.109l-2.0625 1.2188c-11.953 6.8906-16.125 22.172-9.2344 34.125s22.219 16.031 34.172 9.1406l2.1562-1.2188c11.203 16.969 23.578 33.047 37.031 48.188l-1.7344 1.7344c-9.75 9.75-9.75 25.547 0 35.297s25.547 9.75 35.297 0l1.7344-1.7344c15.141 13.453 31.266 25.828 48.188 37.031l-1.2188 2.1562c-6.8906 11.953-2.8125 27.234 9.1406 34.125s27.234 2.7656 34.125-9.1875l1.2188-2.0625c18 9.0469 36.75 16.828 56.109 23.297l-0.65625 2.2969c-3.5625 13.359 4.4062 27.047 17.719 30.609s27.047-4.3594 30.609-17.672l0.5625-2.1562c19.641 4.0312 39.75 6.6094 60.234 7.8281v2.4375c0 13.828 11.203 24.984 24.984 24.984 13.828 0 24.984-11.203 24.984-24.984v-2.3438c20.484-1.2188 40.641-3.7969 60.234-7.8281l0.5625 2.1562c3.6094 13.312 17.297 21.234 30.609 17.672 13.359-3.5625 21.281-17.297 17.719-30.609l-0.65625-2.2969c19.359-6.4688 38.109-14.25 56.109-23.297l1.2188 2.0625c6.8906 11.953 22.172 16.078 34.125 9.1875s16.031-22.172 9.1406-34.125l-1.2188-2.1562c16.969-11.203 33.047-23.578 48.188-37.031l1.7344 1.7344c9.75 9.75 25.547 9.75 35.297 0s9.75-25.547 0-35.297l-1.7344-1.7344c13.453-15.141 25.828-31.266 37.031-48.188l2.1562 1.2188c11.953 6.8906 27.234 2.8125 34.125-9.1406s2.7656-27.234-9.1875-34.125l-2.0625-1.2188c9.0469-18 16.828-36.75 23.297-56.109l2.2969 0.65625c13.359 3.5625 27.047-4.4062 30.609-17.719s-4.3594-27.047-17.672-30.609l-2.1562-0.5625c4.0312-19.641 6.6094-39.75 7.8281-60.234h2.3438c13.828 0 24.984-11.203 24.984-24.984 0-13.828-11.203-24.984-24.984-24.984h-2.3438c-1.2188-20.484-3.7969-40.641-7.8281-60.234l2.1562-0.5625c13.312-3.6094 21.234-17.297 17.672-30.609-3.5625-13.359-17.297-21.281-30.609-17.719l-2.2969 0.65625c-6.4688-19.359-14.25-38.109-23.297-56.109l2.0625-1.2188c11.953-6.8906 16.125-22.172 9.2344-34.125s-22.219-16.031-34.172-9.1406l-2.1562 1.2188c-11.203-16.969-23.578-33.047-37.031-48.188l1.7344-1.7344c9.75-9.75 9.75-25.547 0-35.297-4.6875-4.6875-11.016-7.3125-17.625-7.3125-6.6562 0-12.984 2.625-17.672 7.3125l-1.7344 1.7344c-15.141-13.453-31.266-25.828-48.188-37.031l1.2188-2.1562c6.8906-11.953 2.8125-27.234-9.1406-34.125v-0.046875c-11.953-6.8906-27.234-2.7188-34.125 9.2344l-1.2188 2.0625c-18-9.0469-36.75-16.828-56.109-23.297l0.65625-2.2969c3.5625-13.359-4.4062-27.047-17.719-30.609s-27.047 4.3594-30.609 17.672l-0.5625 2.1562c-19.641-4.0312-39.75-6.6094-60.234-7.8281v-2.3438c0-13.828-11.203-24.984-24.984-24.984zm0 76.547c206.53 0 373.45 166.87 373.45 373.45 0 206.53-166.87 373.45-373.45 373.45-206.53 0-373.45-166.87-373.45-373.45 0-206.53 166.87-373.45 373.45-373.45zm0 10.453c-13.781 0-24.984 11.203-24.984 24.984v2.0625c-43.219 3.1875-84.188 14.391-121.4 32.438l-0.98438-1.6875c-3.3281-5.7656-8.7656-9.9375-15.188-11.672-6.375-1.6875-13.219-0.84375-18.938 2.4844-11.953 6.8906-16.031 22.219-9.1406 34.172l1.0312 1.8281c-34.828 23.812-65.016 53.953-88.828 88.828l-1.8281-1.0312c-5.7656-3.3281-12.562-4.2656-18.984-2.5312s-11.859 5.9062-15.188 11.672c-6.8906 11.953-2.7188 27.234 9.2344 34.125l1.6875 0.98438c-18 37.172-29.297 78.141-32.484 121.4h-2.0625c-13.781 0-24.984 11.203-24.984 24.984s11.203 24.984 24.984 24.984h2.0625c3.1875 43.219 14.438 84.188 32.484 121.4l-1.6875 0.98437c-11.953 6.8906-16.125 22.172-9.2344 34.125 6.8906 11.953 22.219 16.031 34.172 9.1406l1.8281-1.0312c23.812 34.828 53.953 65.016 88.828 88.828l-1.0312 1.8281c-6.9375 11.953-2.8125 27.281 9.1406 34.172 11.953 6.8906 27.234 2.7188 34.125-9.2344l0.98438-1.6875c37.172 18 78.141 29.297 121.4 32.484v2.0625c0 13.781 11.203 24.984 24.984 24.984s24.984-11.203 24.984-24.984v-2.0625c43.219-3.1875 84.188-14.438 121.4-32.484l0.98438 1.6875c6.8906 11.953 22.172 16.125 34.125 9.2344 11.953-6.8906 16.031-22.219 9.1406-34.172l-1.0312-1.8281c34.828-23.812 65.016-53.953 88.828-88.828l1.8281 1.0312c11.953 6.9375 27.234 2.8125 34.125-9.1406 6.8906-11.953 2.7656-27.234-9.1875-34.125l-1.6875-0.98437c18-37.172 29.297-78.141 32.484-121.4h2.0625c13.781 0 24.984-11.203 24.984-24.984s-11.203-24.984-24.984-24.984h-2.0625c-3.1875-43.219-14.438-84.188-32.484-121.4l1.6875-0.98438c11.953-6.8906 16.125-22.172 9.2344-34.125-3.3281-5.7656-8.7656-9.9375-15.188-11.672-6.4219-1.6875-13.266-0.75-18.984 2.5312l-1.8281 1.0312c-23.812-34.828-53.953-65.016-88.828-88.828l1.0312-1.8281c6.9375-11.953 2.8125-27.281-9.1406-34.172-5.7188-3.3281-12.562-4.1719-18.938-2.4375v-0.046875c-6.4219 1.7344-11.859 5.9531-15.188 11.719l-0.98438 1.6875c-37.172-18-78.141-29.297-121.4-32.484v-2.0625c0-13.781-11.203-24.984-24.984-24.984zm0 75.984c158.81 0 287.02 128.21 287.02 287.02s-128.21 287.02-287.02 287.02-287.02-128.21-287.02-287.02 128.21-287.02 287.02-287.02zm0 12c-13.828 0-24.984 11.203-24.984 24.984v1.2188c-73.031 7.3125-136.92 46.266-177.79 102.89l-1.2188-0.75c-11.953-6.8906-27.234-2.8125-34.125 9.1406s-2.8125 27.234 9.1406 34.125l1.1719 0.65625c-14.203 31.359-22.172 66.094-22.172 102.7 0 36.562 7.9688 71.344 22.172 102.7l-1.1719 0.65625c-11.953 6.8906-16.031 22.172-9.1406 34.125s22.172 16.031 34.125 9.1406l1.2188-0.75c40.828 56.578 104.72 95.531 177.79 102.84v1.2656c0 13.828 11.203 24.984 24.984 24.984 13.828 0 24.984-11.203 24.984-24.984v-1.2656c73.031-7.3125 136.92-46.219 177.79-102.84l1.2188 0.75c11.953 6.8906 27.234 2.8125 34.125-9.1406s2.8125-27.234-9.1406-34.125l-1.1719-0.65625c14.203-31.359 22.172-66.094 22.172-102.7 0-36.562-7.9688-71.344-22.172-102.7l1.1719-0.65625c11.953-6.8906 16.031-22.172 9.1406-34.125s-22.172-16.031-34.125-9.1406l-1.2188 0.75c-40.828-56.578-104.72-95.578-177.79-102.89v-1.2188c0-13.828-11.203-24.984-24.984-24.984zm0 75c110.77 0 200.02 89.25 200.02 200.02s-89.25 200.02-200.02 200.02-200.02-89.25-200.02-200.02 89.25-200.02 200.02-200.02zm0 50.016c-82.547 0-150 67.453-150 150s67.453 150 150 150 150-67.453 150-150-67.453-150-150-150zm0 50.016c55.547 0 99.984 44.484 99.984 99.984 0 55.547-44.484 99.984-99.984 99.984-55.547 0-99.984-44.484-99.984-99.984 0-55.547 44.484-99.984 99.984-99.984z"/>
</svg>
