<?xml version="1.0" encoding="UTF-8"?>
<svg width="1200pt" height="1200pt" version="1.1" viewBox="0 0 1200 1200" xmlns="http://www.w3.org/2000/svg">
 <path d="m248.58 135.32c-26.531 0-51.891 10.594-70.641 29.344-38.812 38.859-38.812 102.52 0 141.37 15.094 15.047 36.469 18.562 57.188 21.797l115.92 116.06v73.078c0 33.328 27.75 60.891 61.078 60.891h202.97c28.359 0 52.688-20.016 59.297-46.547 2.4844 2.6719 5.3438 5.5312 9.375 8.6719 9.75 7.6406 24.938 12.984 41.906 12.938-95.438 71.578-155.29 118.22-198.74 139.74-52.266 25.875-82.828 23.391-156.32-2.9531-12.984-4.7812-27.375 1.9688-32.062 15l-43.734 120.32c-4.5469 12.516 1.5938 26.391 13.875 31.547l52.594 21.984c-0.65625 48.75 8.25 98.484 43.359 133.4 41.391 41.156 100.17 60 157.78 50.25 10.219-1.7344 18.281-9.6094 20.297-19.781l6.3281-31.359c5.2969-1.125 10.453-2.5781 15.469-4.3125l1.2656 2.2031c6.9375 11.906 22.219 15.938 34.125 9.0469 12-6.8906 16.125-22.172 9.2344-34.125l-1.2188-2.1562c13.031-11.344 23.812-25.266 31.547-41.109l2.3438 0.65625c13.312 3.6094 27-4.2656 30.609-17.531 3.5625-13.359-4.3594-27.094-17.719-30.656l-2.3438-0.65625c1.2188-17.578-1.2188-35.062-6.8438-51.422l2.2031-1.2656c12-6.8906 16.125-22.172 9.2344-34.125-6.9375-11.906-22.266-15.938-34.172-9.0469l-2.1562 1.2188c-2.4375-2.7656-4.9688-5.4844-7.5938-8.0625 15.047-15.094 33.094-27.656 48.188-37.781 0.046874-0.046875 0.046874-0.09375 0.1875-0.1875 146.11-84.188 228.98-114.7 281.26-150.37 26.297-17.953 45.609-39.516 55.969-67.734 9.7031-26.484 12.234-57.188 12.562-97.734 0.09375-2.5781 0.1875-5.1562 0.1875-7.8281v-0.046874c0-68.812-56.297-125.16-125.11-125.16h-200.06c-20.484 0-38.391 8.2031-49.266 18.844-3.7969 3.7031-6.75 7.3125-9.4219 10.828-10.781-17.672-30.328-29.672-52.266-29.672h-192.89l-81.141-81.188c-3.2812-20.625-6.7969-42-21.797-57.047-18.75-18.75-44.203-29.297-70.688-29.297zm0 50.016c13.266 0 26.062 5.1562 35.438 14.531 10.031 10.078 15.188 24.047 14.391 38.25-0.375 7.0781 2.3438 14.016 7.3594 18.984l63.422 63.562c-11.203 11.062-18.234 26.391-18.234 43.125v9.1875l-80.672-80.625c-5.0156-4.9688-11.906-7.6406-18.984-7.2188-14.156 0.75-27.984-4.5938-38.016-14.531-19.734-19.734-19.734-50.953 0-70.688 9.375-9.375 21.984-14.531 35.25-14.531zm-1.7344 24.984c-6 0.46875-11.625 3.0469-15.891 7.2656-9.75 9.75-9.75 25.594 0 35.344s25.594 9.75 35.344 0 9.75-25.594 0-35.344c-5.1094-5.1562-12.234-7.7812-19.5-7.2656zm165.28 142.6h202.97c6.4688 0 11.062 4.4062 11.062 10.875v7.4531c-10.922 3.7969-26.578 6.75-50.016 6.75-13.828-0.046875-25.031 11.109-25.078 24.891v75.094c0.046875 13.828 11.297 24.938 25.078 24.891 21.891 0 37.781 1.2656 50.016 3.1406v10.922c0 6.4688-4.5938 10.875-11.062 10.875h-202.97c-6.4688 0-11.062-4.4062-11.062-10.875v-153.19c0-6.4688 4.5938-10.875 11.062-10.875zm313.92 0h200.06c42 0 75.094 33.094 75.094 75.094 0 32.531-8.7188 48.703-20.672 59.016s-30.516 15.891-54.422 15.891h-200.26c-9.5156 0.09375-9.2344-0.65625-11.25-2.2031-1.9688-1.5469-6.5625-7.6875-15.703-16.078-14.625-13.359-52.594-20.812-97.781-25.266v-36c19.359-2.1094 39.984-3.4688 53.156-9.6094 19.359-9 32.156-22.031 40.594-33.188s13.5-19.688 17.016-23.109c3.4688-3.4219 3.8906-4.5938 14.203-4.5938zm7.9219 50.016c-13.875-0.046875-25.172 11.203-25.078 25.078 0.046875 13.828 11.297 24.938 25.078 24.891h192.14c13.828 0.046875 25.031-11.109 25.078-24.891 0.046875-13.875-11.203-25.172-25.078-25.078zm236.9 144.24c-4.5938 4.125-9.9375 8.2969-16.547 12.797-42.375 28.922-129.32 62.672-279.37 149.29-0.46875 0.28125-0.98438 0.5625-1.4531 0.9375-28.172 18.891-84.656 53.344-98.391 117.05-12 60.328-24.188 120.61-36.328 180.89-36.094 1.4062-72.938-5.7656-98.906-31.594-30-29.859-43.688-72.234-36.891-114 1.875-11.438-4.4062-22.734-15.141-27.141l-37.828-15.656 30.094-82.688c62.578 18.375 115.08 27.281 169.03 0.5625 61.266-30.375 131.48-90.844 260.29-186.14l116.77 1.5469c15.188 0 30.375-1.7344 44.766-5.8125zm-440.95 217.55c-54.656 1.1719-102.84 40.359-113.91 95.344-12.234 60.703 24.75 117.8 84.375 134.53 13.922 3.8438 28.219-1.7344 31.172-15.891l36.891-183.47c2.8125-14.203-6.9844-27.891-21.375-29.672-5.7656-0.75-11.484-0.98438-17.156-0.84375zm95.297 68.625c15.703 19.688 21.516 46.031 14.672 71.25-5.9062 21.703-20.438 39.281-39.375 49.547l23.484-116.3c0.28125-1.5 0.75-3 1.2188-4.5zm-116.39 4.9688-15.469 77.672c-16.734-1.9688-32.578-25.594-28.406-46.125 4.125-20.531 28.172-33.797 43.875-31.547z"/>
</svg>
