<?xml version="1.0" encoding="UTF-8"?>
<svg width="1200pt" height="1200pt" version="1.1" viewBox="0 0 1200 1200" xmlns="http://www.w3.org/2000/svg">
 <path d="m653.7 188.65c-4.9453 0.019531-9.6836 1.9961-13.184 5.4922-3.5 3.5-5.4727 8.2383-5.4922 13.188 0.019531 4.9453 1.9961 9.6836 5.4922 13.184 3.5 3.4961 8.2383 5.4727 13.184 5.4922h45.961v70.059c-158.21 38.23-276.01 181.81-276.01 352.66 0 200.01 161.45 362.62 360.17 362.62s359.98-162.62 359.98-362.62c0-170.83-117.67-314.38-275.83-352.62v-70.094h45.812c4.9727 0.019532 9.75-1.9375 13.277-5.4414 3.5312-3.5039 5.5234-8.2617 5.543-13.234-0.019531-4.9727-2.0117-9.7344-5.543-13.238-3.5273-3.5039-8.3047-5.4609-13.277-5.4414zm83.461 37.352h93.273v63.098c-15.27-1.9922-30.816-3.0039-46.617-3.0039-15.805 0-31.387 1.0078-46.656 3.0039zm46.656 97.594c178.3 0 322.63 145.23 322.63 325.12 0 179.89-144.33 325.27-322.63 325.27-178.3 0-322.63-145.38-322.63-325.27s144.33-325.12 322.63-325.12zm-583.41 2.6367v0.003906c-5-0.019531-9.7969 1.957-13.332 5.4922-3.5352 3.5352-5.5117 8.332-5.4922 13.332 0.019531 4.9727 2.0117 9.7344 5.543 13.234 3.5312 3.5039 8.3086 5.4609 13.281 5.4414h236.68-0.003906c4.9727 0.019531 9.75-1.9375 13.281-5.4414 3.5312-3.5 5.5234-8.2617 5.543-13.234 0.019532-5-1.957-9.7969-5.4922-13.332-3.5352-3.5352-8.332-5.5117-13.332-5.4922zm579.93 100.75v0.003906c-4.9727 0.019531-9.7344 2.0117-13.234 5.543-3.5039 3.5273-5.4609 8.3047-5.4414 13.277v232.66c-0.027343 4.9766 1.9258 9.7656 5.4258 13.301 3.5039 3.5391 8.2734 5.5391 13.25 5.5586h133.85c5.0039 0.019532 9.8086-1.9648 13.344-5.5039 3.5352-3.543 5.5078-8.3516 5.4805-13.355-0.019531-4.9727-2.0156-9.7344-5.5469-13.238-3.5273-3.5039-8.3047-5.4609-13.277-5.4414h-115.17v-213.98h-0.003906c0.019531-4.9727-1.9336-9.75-5.4375-13.277-3.5039-3.5312-8.2656-5.5234-13.238-5.543zm-670.16 51.234c-4.9727-0.019532-9.75 1.9375-13.281 5.4414-3.5312 3.5-5.5234 8.2617-5.543 13.234 0.019532 4.9727 2.0117 9.7344 5.543 13.238s8.3086 5.4609 13.281 5.4414h236.68-0.003906c4.9727 0.019532 9.75-1.9375 13.281-5.4414s5.5234-8.2656 5.543-13.238c-0.019532-4.9727-2.0117-9.7344-5.543-13.234-3.5312-3.5039-8.3086-5.4609-13.281-5.4414zm-35.156 151.83c-4.9727-0.019531-9.75 1.9375-13.281 5.4414-3.5312 3.5-5.5234 8.2617-5.543 13.234-0.019531 5 1.957 9.7969 5.4922 13.332 3.5352 3.5352 8.332 5.5117 13.332 5.4922h236.68-0.003906c5 0.019531 9.7969-1.957 13.332-5.4922 3.5352-3.5352 5.5117-8.332 5.4922-13.332-0.019532-4.9727-2.0117-9.7344-5.543-13.234-3.5312-3.5039-8.3086-5.4609-13.281-5.4414zm35.156 151.83c-4.9727-0.019531-9.75 1.9375-13.281 5.4375-3.5312 3.5039-5.5234 8.2656-5.543 13.238-0.019531 4.9961 1.957 9.7969 5.4922 13.332 3.5352 3.5352 8.332 5.5117 13.332 5.4922h236.68-0.003906c5 0.019532 9.7969-1.957 13.332-5.4922 3.5352-3.5352 5.5117-8.3359 5.4922-13.332-0.019532-4.9727-2.0117-9.7344-5.543-13.238-3.5312-3.5-8.3086-5.457-13.281-5.4375zm90.234 151.83c-4.9727-0.019532-9.75 1.9336-13.281 5.4375-3.5312 3.5039-5.5234 8.2656-5.543 13.238-0.019532 4.9961 1.957 9.7969 5.4922 13.332 3.5352 3.5312 8.332 5.5078 13.332 5.4883h236.68-0.003906c5 0.019531 9.7969-1.957 13.332-5.4883 3.5352-3.5352 5.5117-8.3359 5.4922-13.332-0.019531-4.9727-2.0117-9.7344-5.543-13.238-3.5312-3.5039-8.3086-5.457-13.281-5.4375z"/>
</svg>
