<?xml version="1.0" encoding="UTF-8"?>
<svg width="1200pt" height="1200pt" version="1.1" viewBox="0 0 1200 1200" xmlns="http://www.w3.org/2000/svg">
 <path d="m600 76.828c-206.44 0-375 168.56-375 375 0 106.55 48.844 203.9 91.547 294.37 38.953 82.5 20.859 162.94 20.859 241.74 0 34.219 28.359 62.391 62.578 62.391s62.578-28.172 62.578-62.391c0-97.031 13.641-196.6-32.859-295.08-42.703-90.516-79.734-175.97-79.734-241.03 0-138.89 111.14-250.08 250.08-250.08 138.89 0 250.08 111.14 250.08 250.08 0 61.266-42.422 147.05-92.25 237.71-54.094 98.391-45.422 199.4-45.422 299.9 0 34.219 28.359 62.391 62.578 62.391s62.578-28.172 62.578-62.391c0-77.109-15.844-156.71 29.719-239.53 49.781-90.562 107.77-188.21 107.77-298.03 0-206.44-168.56-375-375-375zm0 50.016c179.29 0 324.98 145.74 324.98 324.98 0 91.734-51.328 182.63-101.48 273.89-54.422 98.953-36 194.39-36 263.72 0 7.2188-5.3438 12.375-12.562 12.375s-12.562-5.1562-12.562-12.375c0-103.08-6.8438-192.19 39.141-275.72 50.203-91.266 98.344-179.53 98.344-261.89 0-165.74-134.16-299.9-299.9-299.9-165.74 0-300.1 134.16-300.1 299.9 0 82.734 41.578 171.42 84.516 262.4 39.188 83.016 28.031 172.5 28.031 273.71 0 7.2188-5.3438 12.375-12.562 12.375s-12.562-5.1562-12.562-12.375c0-70.031 21.047-164.02-25.641-262.97-42.938-90.984-86.719-182.26-86.719-273.14 0-179.29 145.74-324.98 324.98-324.98z"/>
 <path d="m587.44 864.32c-44.25 0-84.375 7.2656-115.69 20.297-15.656 6.5156-29.203 14.438-40.031 25.078-10.828 10.688-19.172 25.312-19.172 42.047h-0.046875v87.75-0.046875 0.14062c0.1875 25.781 18.328 44.578 39.844 57.234s49.125 21.281 81.375 26.016h0.046875c10.359 1.5469 20.578-3.5156 25.641-12.75l17.906-33.188h20.109l18.047 33.188h0.046875c5.0156 9.2344 15.234 14.297 25.594 12.75 32.297-4.7812 59.859-13.359 81.375-26.016s39.703-31.594 39.844-57.375v-87.516h0.046875v-0.1875c0-16.734-8.3438-31.359-19.172-42.047s-24.375-18.562-40.031-25.078c-31.312-13.031-71.484-20.297-115.73-20.297zm0 50.016c38.625 0 73.547 6.8438 96.516 16.406 11.484 4.7812 19.828 10.312 24.188 14.578s4.2656 5.9062 4.2656 6.4219c0 0.65625-1.6406 6.6562-15.141 14.578-10.078 5.9062-28.969 10.359-47.391 14.578l-15.328-28.453-0.046875 0.046875c-4.3594-8.0625-12.797-13.078-21.984-13.078h-50.016c-9.1875-0.046875-17.719 4.9688-22.078 13.078l-15.328 28.453c-18.375-4.2188-37.219-8.6719-47.25-14.578-13.5-7.9219-15.281-14.062-15.281-14.766 0-0.5625 0-2.1094 4.2656-6.2812 4.3594-4.2656 12.703-9.75 24.188-14.531 22.969-9.5625 57.891-16.453 96.469-16.453zm-10.125 75.094h20.25l15 27.656v9.8438h-50.062v-10.219zm-114.8 25.359c14.531 7.125 31.266 12.75 50.016 16.781v33.938c-13.969-3.375-26.953-7.125-34.734-11.672-13.5-7.9219-15.281-13.875-15.281-14.531zm249.84 0v24.516c0 0.65625-1.6406 6.6094-15.141 14.531-7.7344 4.5469-20.719 8.25-34.688 11.625v-33.938c18.656-4.0312 35.344-9.6562 49.828-16.734z"/>
</svg>
