<?xml version="1.0" encoding="UTF-8"?>
<svg width="1200pt" height="1200pt" version="1.1" viewBox="0 0 1200 1200" xmlns="http://www.w3.org/2000/svg">
 <path d="m549.98 75c-6.7031-0.046875-13.078 2.625-17.812 7.3125-4.6875 4.7344-7.3125 11.109-7.3125 17.766v49.828h-49.828c-41.109 0-75.094 34.031-75.094 75.141v124.92c0 14.578 5.3438 24.609 10.828 34.734 5.4844 10.078 12.047 19.781 18.328 29.156 6.2344 9.375 12.141 18.375 16.031 25.5s4.8281 12.797 4.8281 10.688v25.078c0 16.688-8.3438 29.766-20.859 48.516s-29.156 43.078-29.156 76.406v449.9c0 41.109 33.984 75.094 75.094 75.094h249.84c41.109 0 75.141-33.984 75.141-75.094v-449.9c0-33.328-16.828-57.656-29.344-76.406s-20.719-31.875-20.719-48.516v-25.078c0.1875-16.969 8.2031-29.672 19.594-43.969 5.7188-7.1719 12.188-14.109 18.047-22.5 5.9062-8.3906 12.422-19.078 12.422-33.609v-124.97c0-41.109-34.031-75.094-75.141-75.094h-50.016v-49.828h0.046875c0.046875-13.781-11.062-25.031-24.891-25.078zm24.891 50.016h50.062v24.891h-50.062zm-99.797 74.906h249.84c14.297 0 25.078 10.875 25.078 25.125v50.016h-300.05v-50.016c0-14.297 10.828-25.078 25.078-25.078zm-25.078 125.16h300.05v24.891c0-2.0156 0.09375 0-3.3281 4.8281s-9.2812 11.719-16.031 20.109c-13.453 16.828-30.328 41.531-30.656 74.906v25.266c0 33.328 16.641 57.469 29.156 76.219s20.859 32.062 20.859 48.75v449.9c0 14.297-10.828 25.078-25.078 25.078h-249.84c-14.297 0-25.078-10.828-25.078-25.078v-449.9c0-16.688 8.3438-30 20.859-48.75s29.156-42.891 29.156-76.219v-25.078c0-14.578-5.3906-24.609-10.875-34.734-5.4844-10.078-12-19.781-18.281-29.156-6.2344-9.375-12.188-18.328-16.078-25.453s-4.7812-12.844-4.7812-10.734z"/>
</svg>
