<?xml version="1.0" encoding="UTF-8"?>
<svg width="1200pt" height="1200pt" version="1.1" viewBox="0 0 1200 1200" xmlns="http://www.w3.org/2000/svg">
 <path d="m303.05 187.5c-2.7188 0-11.766 0.28125-21.047 3.75v-0.046875c-16.312 6.0938-30.844 20.766-38.812 41.109-0.046875 0.09375-0.046875 0.1875-0.09375 0.28125-46.641 123.1-68.719 256.87-22.266 376.92 9.6094 24.891 10.078 33.422 9.4219 41.719-0.5625 7.2656-3.6562 18.469-4.7344 36.375-0.1875 0-0.28125-0.046875-0.46875-0.046875h-50.016c-13.828 0-24.984 11.203-24.984 24.984v75c0 13.828 11.203 24.984 24.984 24.984h50.016v112.5c0 48.047 39.469 87.516 87.516 87.516s87.516-39.469 87.516-87.516v-112.5h24.984v24.984c0 13.828 11.203 24.984 24.984 24.984h75c13.828 0 24.984-11.203 24.984-24.984v-174.98c0-13.828-11.203-24.984-24.984-24.984h-75c-13.828 0-24.984 11.203-24.984 24.984v24.984h-24.984v-16.031c0-19.875-6.75-38.391-17.906-53.016 0.28125 0.28125-0.375-0.84375-2.5312-3.2812l-0.09375-0.09375c-42.938-48.281-60.047-100.31-61.078-158.81-0.75-44.672 8.4844-93.047 24.422-143.81h166.5c13.828 0 24.984-11.203 24.984-24.984v-12.516h224.39c13.828 0 24.984-11.203 24.984-24.984 0-13.828-11.203-24.984-24.984-24.984h-224.39v-12.516c0-13.828-11.203-24.984-24.984-24.984zm596.86 0.046875c-9.8438-0.375-19.172 1.7344-27.188 5.4844-30.75 14.25-41.438 46.641-32.016 71.766 0 0.046875 0.046875 0.046875 0.046875 0.09375 25.828 68.203 41.953 132.98 40.922 191.44s-18.141 110.53-61.078 158.81l-0.09375 0.09375c-2.2031 2.4375-2.7656 3.5625-2.5312 3.2812-11.156 14.672-17.906 33.141-17.906 53.016v16.031h-24.984v-24.984c0-13.828-11.203-24.984-24.984-24.984h-75c-13.828 0-24.984 11.203-24.984 24.984v174.98c0 13.828 11.203 24.984 24.984 24.984h75c13.828 0 24.984-11.203 24.984-24.984v-24.984h24.984v112.5c0 48.047 39.469 87.516 87.516 87.516s87.516-39.469 87.516-87.516v-112.5h50.016c13.828 0 24.984-11.203 24.984-24.984v-75c0-13.828-11.203-24.984-24.984-24.984h-50.016c-0.1875 0-0.28125 0.046875-0.46875 0.046875-1.0781-17.906-4.125-29.109-4.7344-36.375-0.65625-8.25-0.1875-16.781 9.4219-41.719 46.453-120.05 24.375-253.82-22.266-376.92-0.046875-0.09375-0.046875-0.1875-0.09375-0.28125-8.0156-20.344-22.5-35.016-38.812-41.109v0.046875c-6.0938-2.2969-12.188-3.4688-18.094-3.7031zm-538.03 50.016h122.39v24.984h-124.22c2.5781-7.9688 3.1406-16.547 1.8281-24.984zm-60.609 0.09375c1.875-0.1875 3.8438 0.28125 4.9688 0.75 7.9219 3.6562 5.5781 10.547 6.1406 8.9531-27.047 71.438-45.281 141.79-44.109 209.9 1.2188 68.156 22.969 134.11 73.688 191.11l0.1875 0.1875-0.046875 0.046875 0.1875 0.1875c4.8281 6.3281 7.6406 14.062 7.6406 22.734v253.5c0 21.188-16.312 37.5-37.5 37.5s-37.5-16.312-37.5-37.5v-228.14c0 0.84375 0.046875-0.28125 0.046875-0.75 0.375-16.875 3.7031-24.797 5.0156-40.781s-1.5938-35.25-12.703-63.891c-39.891-103.08-21.75-224.29 22.359-340.87 3.9375-10.078 7.3594-11.672 9.6562-12.562h0.046875c0.5625-0.1875 1.1719-0.375 1.8281-0.46875zm595.6 0c1.2188-0.09375 2.5312 0 3.6562 0.46875h0.046875c2.2969 0.84375 5.7188 2.4844 9.6562 12.562 44.109 116.58 62.297 237.74 22.359 340.87-11.062 28.641-14.016 47.859-12.703 63.891 1.3125 15.984 4.6875 23.906 5.0156 40.781 0 0.46875 0.046875 1.5938 0.046875 0.75v228.14c0 21.188-16.312 37.5-37.5 37.5s-37.5-16.312-37.5-37.5v-253.5c0-8.6719 2.8125-16.406 7.6406-22.734l0.1875-0.1875-0.046875-0.046875 0.1875-0.1875c50.719-57 72.469-122.95 73.688-191.11 1.2188-68.109-17.016-138.47-44.109-209.9 0.5625 1.6406-1.7812-5.25 6.1406-8.9531 0.75-0.375 1.875-0.65625 3.1406-0.75zm-421.87 449.9h24.984v125.02h-24.984v-24.984c0-13.828-11.203-24.984-24.984-24.984h-50.016v-24.984h50.016c13.828 0 24.984-11.203 24.984-24.984zm225 0h24.984v24.984c0 13.828 11.203 24.984 24.984 24.984h50.016v24.984h-50.016c-13.828 0-24.984 11.203-24.984 24.984v24.984h-24.984zm-500.02 50.016h24.984v24.984h-24.984zm774.98 0h24.984v24.984h-24.984zm-662.48 162.52c-13.828 0-24.984 11.203-24.984 24.984 0 13.828 11.203 24.984 24.984 24.984 13.828 0 24.984-11.203 24.984-24.984 0-13.828-11.203-24.984-24.984-24.984zm575.02 0c-13.828 0-24.984 11.203-24.984 24.984 0 13.828 11.203 24.984 24.984 24.984 13.828 0 24.984-11.203 24.984-24.984 0-13.828-11.203-24.984-24.984-24.984z"/>
</svg>
