<?xml version="1.0" encoding="UTF-8"?>
<svg width="1200pt" height="1200pt" version="1.1" viewBox="0 0 1200 1200" xmlns="http://www.w3.org/2000/svg">
 <path d="m497.81 227.16c-34.734 0.375-69.844 8.4375-102.66 24.703-0.32812 0.1875-0.60938 0.375-0.9375 0.5625l-205.78 113.34c-2.2031 1.3594-4.2188 3.0938-5.9531 5.1094l-103.12-23.062c-6.4688-1.4531-13.266-0.23438-18.844 3.3281-5.625 3.5625-9.5625 9.1875-11.016 15.703l-20.672 93.422v-0.046875c-2.9062 13.406 5.4844 26.625 18.797 29.719l101.48 23.297c1.2188 7.4531 5.8125 13.969 12.422 17.672l160.92 88.969c48.234 27.703 89.672 28.406 118.12 33.984 27.281 5.3438 44.578 11.109 69 51.328v242.81h-0.046875c0.09375 13.734 11.203 24.844 24.984 24.891h99.984c13.828 0.046875 25.031-11.109 25.125-24.891v-290.76l263.9 193.69c5.5781 4.125 12.656 5.7188 19.453 4.4062 6.8438-1.3125 12.844-5.3906 16.5-11.25l36-57.938v-0.046876c7.0312-11.344 3.8438-26.25-7.1719-33.75-73.641-50.062-126.71-85.547-165.94-121.6-19.969-18.328-36.516-36.75-50.953-57.75h13.125c41.625 0 58.688 18.234 84.141 43.359 25.406 25.125 59.531 57.562 116.25 56.625l100.03-1.6406v-0.046875c9.5625-0.23438 18.141-5.8594 22.125-14.531 0 0 34.828-74.766 58.547-130.64 8.6719-20.438 8.0625-42.562-1.5-60.328s-29.391-30.797-51.469-30.797c-79.453 0-150.42-1.9219-379.26-2.0156-3.8906-36.609-16.734-72.656-38.953-104.81-33.094-47.859-81.656-79.969-135.1-93.562l0.046875-0.046875c-20.062-5.1094-40.781-7.5469-61.641-7.3125zm0.65625 50.016c60.328-0.75 119.3 27.656 155.02 79.359 43.547 63 41.156 143.53-1.7344 203.34-16.969-73.312-57.422-129.89-77.719-158.9-15.328-21.891-38.672-35.625-63.328-39.328-24.656-3.6562-50.531 2.7188-70.828 21.234-20.531 18.703-28.594 44.25-27.281 66.609s10.219 42.188 23.25 56.906c37.828 42.938 61.969 72.422 66.797 82.453 7.8281 16.312 6.9844 15.75 6.9844 37.266v4.7812c-19.688-14.859-40.125-22.406-59.438-26.156-35.391-6.9375-65.016-6.375-103.17-28.406l-0.046875-0.046875c-0.14062-0.09375-0.28125-0.14062-0.375-0.1875l-144.47-79.875 19.828-89.906h-0.046875c0.14062-0.32812 0.28125-0.65625 0.375-0.9375 0.09375-0.46875 0.1875-0.89062 0.28125-1.3125l194.95-107.39c25.922-12.844 53.578-19.219 81-19.547zm-405.61 124.92 75.047 16.828-9.9844 45-75.047-17.203zm407.68 7.125c11.906 0.5625 23.531 7.5 32.531 20.344 26.203 37.5 76.547 110.3 76.547 196.55v296.95h-50.016v-296.95c0-22.312-1.9688-38.297-11.812-58.828-12.141-25.359-36.656-51.141-74.578-94.125-5.1094-5.7656-10.125-16.5-10.688-26.344s1.4531-18.188 10.875-26.766c8.4375-7.6875 17.859-11.203 27.094-10.781zm-0.375 13.781v-0.046875c-13.828 0-25.031 11.203-25.031 24.984 0 13.828 11.203 24.984 25.031 24.984 6.6094 0 12.984-2.625 17.672-7.3125s7.3125-11.016 7.3125-17.672c0-6.6094-2.625-12.984-7.3125-17.672s-11.062-7.3125-17.672-7.3125zm233.02 60c228.74 0.09375 299.16 1.9688 379.5 1.9688 4.4062 0 5.5781 1.125 7.3594 4.4531s2.9531 9.3281-0.375 17.156c-20.578 48.516-45.188 101.39-51.469 114.98l-84.188 1.4531c-39.047 0.65625-54.703-16.969-80.25-42.234-25.594-25.266-60.656-57.75-119.2-57.75h-41.297c-3.0469-6.5625-6-13.359-8.9062-20.484v-0.09375c-0.89062-1.7812-2.0156-3.4688-3.2812-5.0156 0.84375-4.8281 1.5469-9.6562 2.1094-14.484zm226.31 15.047v-0.046875c-13.781 0.046875-24.891 11.203-24.938 24.938v59.438c0.046876 13.734 11.203 24.844 24.938 24.891h75.094c9.9844-0.046875 18.984-6.0938 22.875-15.328l25.078-59.25h0.046874c3.2344-7.6875 2.3906-16.547-2.25-23.531-4.5938-6.9844-12.422-11.156-20.812-11.156zm25.078 50.062h37.312l-3.8906 9.2344h-33.422zm-276.61 16.078c21.609 40.594 47.812 73.172 80.625 103.31 38.672 35.531 90.75 70.266 152.26 112.03l-9.5625 15.328-254.06-186.52c12.141-13.641 22.406-28.5 30.75-44.156z"/>
</svg>
