<?xml version="1.0" encoding="UTF-8"?>
<svg width="1200pt" height="1200pt" version="1.1" viewBox="0 0 1200 1200" xmlns="http://www.w3.org/2000/svg">
 <path d="m515.48 150c-2.2969 0.046875-4.5938 0.42188-6.7969 1.125l-265.36 74.906c-10.781 3-18.281 12.797-18.328 24v550.13c0.046875 10.875 7.125 20.531 17.531 23.812l241.4 74.953c2.3906 0.70312 4.875 1.0781 7.4062 1.0781h8.6719v50.016c-0.046875 6.6094 2.5781 12.984 7.2188 17.719 4.6875 4.7344 11.062 7.3594 17.672 7.4062v50.016c0.046875 13.781 11.297 24.938 25.125 24.891h100.03c13.734-0.046875 24.844-11.156 24.891-24.891v-50.016c6.7031 0.046875 13.078-2.625 17.812-7.3594 4.6875-4.6875 7.3594-11.109 7.3125-17.766v-50.016h8.6719c2.4844 0 4.9688-0.375 7.3594-1.0781l241.36-74.953c10.453-3.2812 17.531-12.938 17.531-23.812v-550.13c0-11.203-7.4531-21-18.234-24l-265.6-74.906c-2.1562-0.70312-4.4062-1.0781-6.6562-1.125zm3.5156 50.016h162.05l243.94 69.047v512.68l-220.18 68.438h-209.63l-220.18-68.438v-512.68zm147.47 25.078-30.281 0.046875c-13.734 0.046875-24.844 11.156-24.891 24.891v155.39c0 8.8125 4.6406 16.969 12.188 21.469 7.5938 4.5 16.969 4.6875 24.703 0.46875 65.578-35.859 130.4-72.891 195.42-108.89v0.046875c8.8594-4.9219 13.922-14.719 12.75-24.797-1.1719-10.031-8.2969-18.422-18.047-21.188l-165.19-46.547v0.046875c-2.1562-0.60938-4.4062-0.9375-6.6562-0.98438zm-132.84 0.046875c-2.3438 0-4.6406 0.32812-6.8438 0.9375l-165 46.5c-9.7969 2.6719-16.969 11.016-18.188 21.094s3.7969 19.922 12.656 24.844c64.969 36.234 130.03 73.078 195.61 108.89 7.7344 4.1719 17.109 3.9844 24.703-0.51562 7.5469-4.4531 12.188-12.609 12.234-21.422v-155.44c-0.09375-13.688-11.203-24.844-24.938-24.891zm3.5156 50.016h1.6406v87.844c-35.062-19.406-70.172-39.047-105.23-58.688zm124.18 0h1.6406l103.55 29.156c-35.062 19.594-70.219 39.094-105.23 58.5zm-336.71 57.328-0.046875-0.046875c-13.688 0.14062-24.75 11.25-24.797 24.984v383.68c0 11.016 7.1719 20.766 17.719 24l189.71 58.875c2.3906 0.75 4.9219 1.125 7.4062 1.125h49.266c13.781-0.046875 24.891-11.203 24.938-24.938v-309.28c-0.046876-9.0469-4.875-17.391-12.75-21.797l-238.97-133.45c-3.8438-2.1094-8.1562-3.2344-12.516-3.1875zm550.92 0-0.046875-0.046875c-4.3594-0.046875-8.6719 1.0781-12.469 3.1875l-238.97 133.45c-7.875 4.4062-12.75 12.75-12.75 21.797v309.32c0.046875 13.734 11.156 24.844 24.891 24.891h49.266c2.5312 0 5.0156-0.375 7.4531-1.125l189.71-58.875c10.547-3.2344 17.719-12.984 17.719-24v-383.68c-0.046876-13.734-11.109-24.844-24.844-24.984zm-525.74 67.453 189 105.7v269.48h-20.297l-168.71-52.453zm500.53 0v322.74l-168.71 52.453h-20.297v-269.48zm-300.28 500.11h100.03v25.078-0.046875c-13.828-0.046875-25.031 11.109-25.078 24.891v50.062h-50.062v-50.062c-0.046875-13.688-11.156-24.844-24.891-24.891z"/>
</svg>
