<?xml version="1.0" encoding="UTF-8"?>
<svg width="1200pt" height="1200pt" version="1.1" viewBox="0 0 1200 1200" xmlns="http://www.w3.org/2000/svg">
 <path d="m600.24 125.02c-9.4688-0.14062-18.141 5.0625-22.5 13.453l-20.719 40.5c-8.3906 0.84375-16.734 2.0156-25.078 3.375l-29.672-33.516h-0.046875c-6.1875-7.0312-15.797-10.031-24.891-7.7812-9.1875 2.3906-16.266 9.75-18.281 19.031l-9.4688 44.297c-7.9219 3-15.797 6.2344-23.531 9.7031l-37.125-24.656h0.046875c-7.875-5.25-18-5.625-26.25-0.9375-8.2969 4.6406-13.219 13.594-12.75 23.062l2.2969 45.094c-6.8906 4.9688-13.641 10.125-20.25 15.562l-42.188-14.203v0.046875c-8.9531-3-18.844-0.70312-25.547 5.9062-6.7031 6.6562-9.0938 16.5-6.1875 25.5l13.781 43.078c-5.2969 6.4688-10.312 13.031-15.141 19.734l-45.094-2.2969-0.046875-0.046875c-9.4688-0.5625-18.469 4.3594-23.156 12.609-4.7344 8.25-4.3125 18.469 0.98438 26.391l24.656 37.172c-3.4688 7.7344-6.7031 15.562-9.6562 23.438l-44.344 9.5156v-0.046875c-9.1875 2.0156-16.5 9.0469-18.844 18.141-2.3906 9.1406 0.5625 18.797 7.6406 25.031l33.562 29.719c-1.3594 8.3438-2.5312 16.688-3.375 25.031l-40.547 20.719v0.046875c-8.4375 4.3125-13.688 12.984-13.594 22.453 0.09375 9.4219 5.4844 18.047 13.969 22.219l39.984 20.016c0.84375 8.3906 2.0156 16.734 3.375 25.078l-33.609 30.562c-6.9375 6.375-9.75 16.031-7.2656 25.125 2.5312 9.0469 9.8906 15.984 19.078 17.859l43.594 8.7656c3 7.9688 6.2812 15.891 9.75 23.719l-24.609 37.969 0.046875 0.046875c-5.0625 7.9688-5.25 18.047-0.42188 26.156 4.7812 8.1094 13.734 12.844 23.109 12.234l44.25-2.7656c4.9688 6.9375 10.172 13.781 15.609 20.438l-13.734 43.031h0.046875c-2.8125 8.9531-0.375 18.703 6.3281 25.266 6.6562 6.6094 16.5 8.8594 25.406 5.9062l42.094-14.016c6.6562 5.4375 13.453 10.594 20.344 15.562l-2.2969 45.094v0.046875c-0.46875 9.4688 4.4531 18.375 12.703 23.016 8.25 4.6875 18.422 4.2656 26.25-1.0312l36.891-24.516c7.8281 3.5156 15.75 6.75 23.719 9.75l9.4688 44.297h0.046875c2.0156 9.1875 9 16.5 18.141 18.891 9.0938 2.3438 18.797-0.60938 25.031-7.6406l29.719-33.516c8.3438 1.3594 16.688 2.4844 25.031 3.3281l20.719 40.312c4.3125 8.4375 12.984 13.734 22.406 13.688 9.4688-0.046875 18.094-5.3906 22.312-13.875l19.969-40.078c8.3906-0.84375 16.781-1.9688 25.125-3.3281l30.516 33.609c6.3281 6.9844 16.078 9.7969 25.125 7.3125 9.0938-2.4844 16.031-9.8906 17.906-19.125l8.7656-43.641c7.9688-3 15.891-6.2344 23.719-9.7031l37.969 24.422 0.046875-0.046875c7.9219 5.0156 17.953 5.2031 26.062 0.46875s12.844-13.594 12.328-22.969l-2.7656-44.25c6.9375-5.0156 13.781-10.172 20.531-15.609l42.984 13.734-0.09375-0.046875c9 2.9062 18.844 0.51562 25.5-6.1875 6.6094-6.7031 8.9062-16.594 5.9062-25.547l-14.156-42.094c5.625-6.8906 10.922-13.922 16.078-21.047l44.25 2.7656v0.046875c9.3281 0.51562 18.234-4.2188 22.969-12.328 4.7344-8.0625 4.5469-18.141-0.46875-26.062l-24.422-37.922c3.5156-7.8281 6.75-15.797 9.75-23.766l43.594-8.7656v-0.046875c9.2344-1.875 16.641-8.7656 19.125-17.859 2.5312-9.0938-0.32812-18.844-7.2656-25.172l-33.562-30.516c1.3594-8.3906 2.4844-16.734 3.3281-25.172l40.031-19.922c8.4375-4.2188 13.828-12.844 13.875-22.266 0.046875-9.4688-5.25-18.141-13.688-22.406l-40.266-20.672c-0.84375-8.3906-2.0156-16.734-3.375-25.078l33.516-29.719-0.046875-0.046875c7.0781-6.2344 10.031-15.891 7.6406-25.031-2.3438-9.0938-9.6562-16.125-18.844-18.141l-44.297-9.4688c-3.0469-7.9688-6.2344-15.891-9.75-23.719l24.516-36.891h-0.046875c5.2969-7.875 5.7188-18.047 1.0781-26.297s-13.594-13.172-23.016-12.703l-45.094 2.2969c-4.9688-6.8906-10.125-13.641-15.562-20.25l14.203-42.188h-0.046875c3-8.9531 0.70312-18.797-5.9062-25.5-6.6562-6.7031-16.453-9.0938-25.453-6.2344h-0.046875l-43.031 13.734c-6.7031-5.4375-13.547-10.594-20.438-15.562l2.7656-44.297c0.89062-12.844-8.1094-24.281-20.812-26.391-6.0938-0.98438-12.375 0.32812-17.531 3.6562l-37.969 24.609c-7.8281-3.5156-15.75-6.75-23.719-9.75l-8.7656-43.594h-0.046875c-1.875-9.2812-8.8125-16.688-17.953-19.219-9.0938-2.4375-18.797 0.42188-25.078 7.4062l-30.516 33.562c-8.3438-1.3594-16.688-2.4844-25.078-3.3281l-20.016-39.984-0.046875-0.046875c-4.2188-8.3906-12.75-13.734-22.172-13.781zm-0.1875 101.44c95.484 0 190.92 36.516 263.95 109.5 146.06 146.06 146.21 382.08 0.1875 528.14-146.06 146.06-382.18 146.06-528.24 0s-145.97-382.08 0.09375-528.14c73.031-73.031 168.52-109.5 264-109.5zm0 23.719c-68.109 0-136.26 19.781-195.28 59.438v-0.046875c-11.016 7.4062-14.344 22.125-7.5469 33.562l42.984 71.625-25.453 25.453-70.922-42.609v-0.046875c-11.391-6.7969-26.156-3.4688-33.516 7.5938-78.938 117.84-78.938 271.97 0 389.81v-0.046875c7.4531 10.969 22.172 14.203 33.516 7.4062l70.922-42.422 25.453 25.266-42.609 71.062-0.046874-0.046875c-6.7969 11.391-3.4688 26.156 7.5938 33.562 117.84 78.938 271.97 78.938 389.81 0h-0.046875c11.016-7.4531 14.25-22.219 7.3594-33.562l-42.422-71.062 25.266-25.266 71.062 42.422-0.046875 0.046875c11.391 6.8438 26.156 3.6094 33.609-7.4062 78.938-117.8 78.938-271.97 0-389.81v0.046875c-7.4062-11.062-22.172-14.391-33.609-7.5938l-71.062 42.609-25.266-25.453 42.75-71.625 0.09375 0.046875c6.7969-11.391 3.5625-26.109-7.4062-33.562-59.016-39.656-127.08-59.438-195.24-59.438zm0 49.828c50.203 0 98.672 18.797 143.95 43.969l-37.125 61.969v-0.09375c-5.8594 9.8438-4.3594 22.359 3.7031 30.469l53.109 52.969 0.046875 0.046875c8.0625 8.1094 20.625 9.6562 30.469 3.8438l61.219-36.703c50.062 90.328 50.062 196.82 0 287.16l-61.219-36.703v-0.046875c-9.7969-5.8594-22.359-4.3594-30.469 3.6562l-53.109 53.156-0.046875 0.046875c-8.0625 8.1094-9.5625 20.672-3.7031 30.469l36.703 61.219c-90.328 50.062-196.82 50.062-287.16 0l36.703-61.219h0.046875c5.8125-9.8438 4.2188-22.406-3.8906-30.469l-52.969-53.156v-0.046875c-8.1094-8.0156-20.672-9.5156-30.469-3.6562l-61.219 36.703c-50.062-90.328-50.062-196.82 0-287.16l61.219 36.703v0.046875c9.8438 5.8125 22.406 4.2656 30.469-3.8438l52.969-52.969v-0.046875c8.1094-8.0625 9.7031-20.625 3.8906-30.469l-37.125-61.969c45.281-25.172 93.797-43.969 144-43.969zm215.9 56.297v-0.046875c-6 0.42188-11.625 3-15.844 7.2656-9.7969 9.7969-9.7969 25.594 0 35.344 9.75 9.7969 25.547 9.7969 35.344 0 9.75-9.75 9.75-25.547 0-35.344-5.1562-5.1094-12.234-7.7812-19.5-7.2656zm-436.03 0.5625v-0.046875c-6 0.42188-11.625 3.0469-15.891 7.2656-9.75 9.7969-9.75 25.594 0 35.344 9.7969 9.7969 25.594 9.7969 35.391 0 9.75-9.75 9.75-25.547 0-35.344-5.1562-5.1094-12.234-7.7812-19.5-7.2656zm436.6 435.52v-0.046875c-6.0469 0.42188-11.672 3-15.938 7.2656-9.75 9.75-9.75 25.594 0 35.344s25.594 9.75 35.344 0 9.75-25.594 0-35.344c-5.1094-5.1094-12.188-7.7812-19.406-7.2656zm-436.03 0.5625-0.046875-0.046875c-6 0.42188-11.625 3-15.891 7.2656-9.75 9.75-9.75 25.594 0 35.344s25.594 9.75 35.344 0 9.75-25.594 0-35.344c-5.1094-5.1094-12.188-7.7812-19.453-7.2656z"/>
</svg>
