<?xml version="1.0" encoding="UTF-8"?>
<svg width="1200pt" height="1200pt" version="1.1" viewBox="0 0 1200 1200" xmlns="http://www.w3.org/2000/svg">
 <path d="m285.79 162.47c-67.781 0-127.31 45.797-144.89 111.28-15.188 56.625 4.3125 116.11 47.812 153.1-9.375 9.1406-15.328 21.844-15.328 35.719v50.016c0 2.2031 0.32812 4.4062 0.9375 6.5156-15.328 8.625-26.016 24.891-26.016 43.453v100.03c0.046875 13.828 11.297 24.984 25.078 24.938h50.062v25.078h-50.062c-13.781-0.046875-25.031 11.109-25.078 24.891v100.03c0 18.562 10.688 34.828 26.016 43.453v0.046875c-0.60938 2.1094-0.9375 4.3125-0.9375 6.5625v74.906c0 27.281 22.781 50.062 50.062 50.062h124.92c27.281 0 50.016-22.781 50.016-50.062v-64.922c65.672 86.109 165.66 140.06 275.02 140.11 192.98 0 349.92-157.08 349.92-350.11 0-192.98-156.89-349.92-349.92-349.92-110.34 0.28125-210.28 55.125-275.02 141.94v-16.969c0-13.922-5.9062-26.625-15.328-35.719 3.0469-2.5781 6-5.3438 8.8594-8.2031l-0.046875-0.09375c0.14062-0.09375 0.28125-0.23438 0.375-0.375 72.422-75.609 172.13-118.78 276.79-119.91 104.39-1.125 204.98 39.797 278.95 113.44h0.046875c0.14062 0.1875 0.28125 0.375 0.46875 0.5625 26.297 26.297 69.703 26.297 96 0s26.297-69.75 0-96.047c-0.28125-0.23438-0.5625-0.46875-0.89062-0.65625-98.391-97.969-231.47-153.19-370.36-153.19zm0 50.016h387.56c125.9 0 246.61 50.016 335.68 138.98v-0.046875l0.1875 0.1875c7.1719 7.1719 7.1719 18.141 0 25.359-7.0312 7.0312-17.719 7.1719-24.891 0.375-0.14062-0.1875-0.28125-0.32812-0.375-0.46875-83.531-83.531-197.26-129.94-315.37-128.68v0.046875c-118.12 1.2656-230.72 49.969-312.47 135.24v0.046875c-19.031 18.797-44.016 28.641-69.328 28.969h-4.6875c-15.891-0.5625-31.781-4.9219-46.266-13.312-39.281-22.688-58.266-68.719-46.547-112.55 11.766-43.828 51.141-74.203 96.516-74.203zm0 25.125c-41.109 0-74.953 33.797-74.953 74.906s33.844 75.094 74.953 75.094 75.094-33.984 75.094-75.094-33.984-74.906-75.094-74.906zm0 50.016c14.109 0 25.078 10.781 25.078 24.891s-11.016 25.078-25.078 25.078c-14.109 0-24.891-11.016-24.891-25.078 0-14.109 10.781-24.891 24.891-24.891zm387.56 99.984c165.98 0 300.1 133.92 300.1 299.9 0 165.98-134.11 300.1-300.1 300.1-102.42 0-197.72-52.312-252.84-138.61-4.875-7.5938-13.5-12-22.5-11.438h-199.69v-74.953h218.34c34.453 115.08 134.68 199.6 256.69 199.87 151.6 0 274.97-123.37 274.97-274.97 0-151.6-123.37-274.97-274.97-274.97h-0.1875c-131.63 0.46875-235.82 98.203-261.14 224.95h-213.71v-74.953h187.5-0.046875c9.3281 0 17.906-5.2031 22.172-13.453 51.516-99.047 153.71-161.16 265.36-161.48zm-449.9 74.953h124.92v50.016h-124.92zm449.9 0c124.55 0 224.95 100.41 224.95 224.95s-100.41 224.95-224.95 224.95c-106.88-0.1875-198.61-75.188-219.98-179.95-2.4375-11.625-12.703-19.969-24.562-19.922h-80.484v-25.078h77.156c12.844 0 23.625-9.75 24.891-22.5 11.531-114.84 107.53-201.98 222.94-202.45zm-400.08 224.95h25.078v25.078h-25.078zm-49.828 200.06h124.92v74.906h-124.92z"/>
</svg>
