<?xml version="1.0" encoding="UTF-8"?>
<svg width="1200pt" height="1200pt" version="1.1" viewBox="0 0 1200 1200" xmlns="http://www.w3.org/2000/svg">
 <path d="m384.47 87.562c-46.547 0-87.469 31.453-87.469 74.906v831.94c0 66.656 60.75 118.12 125.16 118.12h124.92c31.547 0 60.141-15.75 72.375-41.484 4.5469-9.5625-0.375-22.594 0.75-33.422h201.89c22.078 0 44.672-8.5312 61.078-26.578 16.359-17.953 24.281-46.125 17.344-76.219l-53.859-301.55c-4.3594-24.469 11.062-55.406 23.625-86.203 11.672-28.641 11.812-58.828-5.1562-79.922s-44.203-28.312-74.203-28.406c-60-0.1875-141.28 27.703-234.37 85.453-29.719 18.422-48.516 42.797-57.047 68.672-8.5312 25.828-7.1719 51.984-1.8281 75.281l73.828 319.5h-74.438c-14.297 0-24.891-10.875-24.891-25.125v-800.02c0-43.453-41.109-74.906-87.656-74.906zm0 50.016h0.046875c26.016 0 37.641 12.984 37.641 24.891v250.08h-75.141v-250.08c0-11.906 11.438-24.891 37.453-24.891zm-37.453 324.98h75.141v324.98h-75.141zm443.68 26.156h0.046875c21.562 0.09375 32.297 5.9531 35.391 9.7969 3.1406 3.8906 5.5312 10.547-2.2031 29.484-10.5 25.781-34.922 66.234-26.438 113.86l54.094 302.86v0.046875c0.046875 0.42188 0.14062 0.84375 0.1875 1.2656 3.9844 17.016 0.1875 24.891-5.5312 31.219-5.7188 6.2812-15.703 10.359-24.188 10.359h-200.95c-0.5625-2.3906 0.84375-4.0781 0.1875-6.4688l-74.953-324.24c-3.9375-17.109-4.2656-33.703 0.5625-48.375 4.8281-14.719 14.578-28.594 36-41.906 87.797-54.469 164.58-78 207.74-77.859zm-406.13 23.812c-6.375 0-12.797 2.4375-17.672 7.3125-9.75 9.75-9.75 25.594 0 35.344s25.594 9.75 35.344 0 9.75-25.594 0-35.344c-4.875-4.875-11.297-7.3125-17.672-7.3125zm0 174.98c-6.375 0-12.797 2.4375-17.672 7.3125-9.75 9.75-9.75 25.594 0 35.344s25.594 9.75 35.344 0 9.75-25.594 0-35.344c-4.875-4.875-11.297-7.3125-17.672-7.3125zm-37.547 150h75.141v124.92c0 41.109 33.797 75.141 74.906 75.141h76.734c-0.5625 2.9062 1.3125 10.031 0.375 11.953-4.2656 9.0469-8.7188 12.938-27.141 12.938h-124.92c-35.578 0-75.141-34.781-75.141-68.109z"/>
</svg>
