<?xml version="1.0" encoding="UTF-8"?>
<svg width="1200pt" height="1200pt" version="1.1" viewBox="0 0 1200 1200" xmlns="http://www.w3.org/2000/svg">
 <path d="m647.53 297.94c-4.7344-4.7344-11.109-7.3594-17.766-7.3594s-13.031 2.625-17.766 7.3594l-22.594 22.594-54.703-27.281h0.046875c-9.6094-4.7344-21.141-2.8594-28.734 4.6875l-17.766 17.766-53.109-53.109h0.046875c-6.375-6.2344-15.562-8.5781-24.141-6.2344-0.70312-0.9375-1.4062-1.8281-2.2031-2.625l-41.625-41.625c-1.5469-7.7344-4.3125-15.375-8.4375-22.547-3.2344-5.5781-7.0312-10.547-11.344-14.953l0.046875 0.09375c-23.344-23.719-60.938-29.812-90.984-12.469-30.094 17.391-63.75 41.062-102.28 90.656-44.719 57.609-68.625 130.03-68.625 205.31 0 13.828 11.25 25.031 25.078 24.984 13.828 0 25.031-11.25 24.984-25.078 0-64.266 21.75-125.02 58.547-175.18 8.2969-11.297 27.562-22.078 50.578 0.9375 8.7656 8.6719 20.906 14.625 34.359 17.109l41.297 41.297-0.09375-0.046876c0.79688 0.79688 1.6875 1.5469 2.625 2.2031-2.3906 8.5781 0 17.766 6.2344 24.141l53.109 53.109-17.766 17.766v-0.046874c-7.5469 7.5938-9.4219 19.125-4.6875 28.734l27.281 54.703-22.547 22.547c-4.7344 4.6875-7.4062 11.062-7.4062 17.719 0 6.7031 2.6719 13.078 7.4062 17.766 4.6875 4.6875 11.062 7.3125 17.719 7.2656 6.6094 0 12.984-2.6719 17.625-7.3594l30.328-30.328c10.219-2.2969 38.766-6.5156 57.984 12.703l265.18 265.18c19.266 19.266 15 47.766 12.703 57.984l-30.328 30.328h0.046875c-4.7344 4.6875-7.3594 11.062-7.4062 17.672 0 6.6562 2.625 12.984 7.3125 17.719s11.062 7.4062 17.766 7.4062c6.6562 0 13.031-2.6719 17.766-7.4062l22.594-22.594 54.609 27.281v0.046875c9.5625 4.7344 21.141 2.8125 28.688-4.7344l26.484-26.484 35.344 35.344-8.7188 8.7188v0.046875c-5.7188 5.7188-8.3906 13.828-7.0781 21.797s6.375 14.812 13.641 18.422l70.688 35.203h0.046875c9.5625 4.8281 21.188 3 28.828-4.5469l70.734-70.734c7.6875-7.6406 9.5625-19.359 4.6875-29.016l-35.344-70.594v0.046875c-3.5625-7.2656-10.453-12.375-18.422-13.641-8.0156-1.3125-16.125 1.3594-21.797 7.0781l-8.7188 8.7188-35.344-35.344 26.484-26.484h-0.046875c7.5469-7.5469 9.4219-19.125 4.6875-28.688l-27.281-54.609 22.641-22.641c4.7344-4.6875 7.4062-11.109 7.4062-17.766-0.046875-6.7031-2.7188-13.078-7.4531-17.766-4.6875-4.6875-11.062-7.3125-17.672-7.2656-6.6562 0-12.984 2.6719-17.672 7.3594l-30.328 30.328c-10.219 2.2969-38.766 6.5156-57.984-12.703l-265.18-265.18c-19.266-19.266-15-47.766-12.703-57.984l30.328-30.328c4.6875-4.6875 7.3125-11.062 7.3594-17.672 0-6.6094-2.625-12.984-7.2656-17.719zm-95.344 59.812-127.78 127.78-11.672-23.625 115.88-115.88zm406.64 406.64 11.672 23.531-115.88 115.88-23.578-11.625zm-390.79-351.71c3.75 14.297 11.531 29.484 26.391 44.344l265.18 265.18c14.812 14.812 30.047 22.688 44.297 26.391l-88.641 88.641c-3.75-14.25-11.578-29.484-26.391-44.297l-265.18-265.18c-14.859-14.859-30.047-22.641-44.344-26.391zm479.11 510.84 11.859 23.625-45.141 45.141-23.625-11.859zm-629.39-607.97 35.344 35.344-35.344 35.344-35.344-35.344zm-106.97-106.88c1.7812 1.6875 3.4219 3.7031 4.7344 5.9531 7.0312 12.234 3.1875 27.141-9.0469 34.172s-27.188 3.0469-34.266-9.1875c-7.0312-12.234-2.9531-27.047 9.2344-34.125 9.9375-5.7188 21.516-4.1719 29.297 3.1406zm44.156 61.828 18.562 18.562-17.766 17.766-18.516-18.516c7.0312-4.9688 12.938-11.062 17.672-17.812zm601.87 601.87 35.344 35.344-17.766 17.766-35.344-35.344z"/>
</svg>
