<?xml version="1.0" encoding="UTF-8"?>
<svg width="1200pt" height="1200pt" version="1.1" viewBox="0 0 1200 1200" xmlns="http://www.w3.org/2000/svg">
 <path d="m299.9 75.047c-6.6094 0-12.984 2.6719-17.625 7.3594-4.6875 4.7344-7.3125 11.109-7.2656 17.719v62.344h-25.078c-13.828 0.046875-24.984 11.297-24.938 25.125v74.953c-0.046875 13.781 11.109 25.031 24.938 25.078h25.078v612.32c-0.046875 13.781 11.109 25.031 24.891 25.078 6.6562 0.046875 13.078-2.625 17.766-7.3125 4.7344-4.7344 7.3594-11.109 7.3594-17.766v-612.32h24.891c1.1719 0 2.2969-0.09375 3.4688-0.28125 4.4531 7.7812 12.703 12.562 21.609 12.609h50.062v129.32c-0.046875 10.266 6.1875 19.453 15.656 23.297 79.125 31.219 141.1 107.67 134.34 195.42l-25.078 324.98c-3.375 44.062 12.047 83.578 39.891 110.53s67.078 41.484 110.16 41.484c43.078 0 82.312-14.578 110.16-41.484 27.844-26.953 43.078-66.469 39.703-110.53l-24.891-324.98c-6.75-87.75 55.031-164.21 134.11-195.42 9.6094-3.75 15.891-12.984 15.891-23.297v-304.26c0-6.6094-2.6719-12.984-7.4062-17.672-4.6875-4.6406-11.062-7.2656-17.719-7.2188h-124.92c-13.734 0.046875-24.844 11.156-24.891 24.891v74.906h-50.062v-24.891c0.046875-6.6562-2.5781-13.078-7.3125-17.766-4.6875-4.7344-11.109-7.3594-17.766-7.3125h-124.92v-24.938c0-6.6094-2.6719-12.984-7.4062-17.672-4.6875-4.6406-11.062-7.2656-17.719-7.2188h-124.92c-13.734 0.046875-24.844 11.156-24.891 24.891v24.891h-50.062v0.046875c-9 0-17.297 4.9219-21.703 12.75-1.125-0.14062-2.25-0.23438-3.375-0.28125h-24.891v-62.344c0-6.6562-2.625-13.031-7.3594-17.766-4.6875-4.7344-11.109-7.3594-17.766-7.3125zm175.13 74.906h74.906v150.05c0 41.109 33.844 75.094 74.953 75.094h150.05c41.109 0 75.094-33.984 75.094-75.094v-150.05h74.906v268.5c-87.984 42.469-157.97 127.92-149.86 233.48l24.938 324.94c2.3906 30.938-7.4062 54.094-24.75 70.875-17.344 16.828-43.359 27.281-75.281 27.281s-58.125-10.5-75.469-27.281-27.094-39.984-24.703-70.875l25.078-324.94c8.1094-105.56-61.922-191.02-149.86-233.48zm-75.094 50.016h25.078v50.062h-25.078zm200.06 0h99.984v50.062h-99.984zm-324.98 12.609h74.906v25.078h-74.906zm474.98 37.453h50.062v50.016c0 14.297-10.828 25.078-25.078 25.078h-150.05c-14.297 0-24.891-10.828-24.891-25.078h124.92l-0.046875-0.046875c13.781 0.046875 25.031-11.109 25.078-24.938zm-51.469 612.52c-33.375 0-61.078 27.703-61.078 61.078v52.969c0 33.375 27.703 61.078 61.078 61.078h2.9062c33.375 0 60.891-27.703 60.891-61.078v-52.969c0-33.375-27.516-61.078-60.891-61.078zm0 50.016h2.9062c6.5156 0 10.875 4.5469 10.875 11.062v52.969c0 6.5156-4.3594 11.062-10.875 11.062h-2.9062c-6.5156 0-11.062-4.5469-11.062-11.062v-52.969c0-6.5156 4.5469-11.062 11.062-11.062z"/>
</svg>
