<?xml version="1.0" encoding="UTF-8"?>
<svg width="1200pt" height="1200pt" version="1.1" viewBox="0 0 1200 1200" xmlns="http://www.w3.org/2000/svg">
 <path d="m637.97 150.05c-25.5 0.375-49.922 4.1719-74.109 10.266-11.156 2.8125-18.938 12.891-18.844 24.375v30.281c-43.219-6.5625-82.781-4.875-122.16 4.2656l-0.046875-0.046875c-11.297 2.625-19.359 12.703-19.359 24.328v272.39l-42.047-48.75v0.046875c-7.5938-8.9062-20.297-11.344-30.656-5.9062l-110.16 58.172v-0.046875c-10.734 5.7188-15.797 18.328-12 29.906 56.719 172.45 153.52 373.69 246.74 491.26h-0.046875c4.7344 5.9531 11.953 9.4219 19.594 9.4219h399.89c10.594 0.046875 20.062-6.6094 23.625-16.594 50.016-142.97 94.266-377.63 94.266-724.92h0.046875c0.046875-10.359-6.3281-19.688-16.031-23.438-27.141-10.453-61.547-18.656-94.688-10.875v-41.156c0.046875-9.75-5.5781-18.562-14.391-22.688-40.266-18.891-85.078-21.422-131.21-9.0469v-16.594c0.046875-11.297-7.4531-21.188-18.328-24.188-28.172-7.7344-54.656-10.828-80.109-10.453zm1.8281 54.188c15.094-0.09375 30.516 1.2656 46.594 4.4062v139.36h-0.046875c0 6.6562 2.625 13.078 7.3125 17.766 4.7344 4.7344 11.156 7.3594 17.812 7.3125 6.6094 0 12.984-2.625 17.672-7.3594 4.6875-4.6875 7.3125-11.062 7.2656-17.719v-94.453c36.469-12.141 66.422-8.2031 95.578 1.9688v140.81c-0.046875 6.6562 2.5781 13.078 7.3125 17.812 4.6875 4.6875 11.109 7.3125 17.766 7.3125 6.6562-0.046874 12.984-2.6719 17.672-7.4062 4.6875-4.6875 7.3125-11.062 7.2656-17.719v-69.188c16.031-6.5156 38.203-1.3594 59.25 4.0312-2.1562 317.95-41.484 535.55-85.969 668.81h-30.281c0-29.156-7.9688-53.625-23.438-70.922-15.469-17.25-36.047-25.969-56.812-30.984-41.578-10.078-88.172-8.4375-129-17.672-52.594-11.859-96.609-40.453-144.89-99.328-45.891-55.969-94.453-139.55-151.97-257.02l17.578-9.2812 73.078 84.516c6.7969 7.9219 17.812 10.781 27.609 7.1719s16.312-12.938 16.359-23.344v-315.24c29.484-4.875 57.984-7.5469 91.5-2.2031v98.719c-0.09375 13.828 11.062 25.031 24.891 25.125 6.6562 0 13.078-2.625 17.766-7.3594 4.7344-4.6875 7.3594-11.109 7.3125-17.766v-155.58c14.812-2.9062 29.672-4.5 44.766-4.5938zm-365.02 343.13c57.891 118.27 107.25 204.24 157.31 265.31 52.922 64.547 108.42 101.91 172.55 116.39 49.031 11.062 97.406 10.219 128.26 17.719 15.422 3.75 25.266 8.8594 31.359 15.656s10.734 16.688 10.734 37.5h-285.32c-81.516-105.7-169.45-288.14-224.21-447.71z"/>
</svg>
