<?xml version="1.0" encoding="UTF-8"?>
<svg width="1200pt" height="1200pt" version="1.1" viewBox="0 0 1200 1200" xmlns="http://www.w3.org/2000/svg">
 <path d="m910.45 329.29h-471.52l-2.0156-7.7344c-9.2344-33-44.156-52.594-77.156-43.359-32.953 9.2344-52.547 44.016-43.359 76.969l43.172 154.64-297.32 224.21c-20.953 15.75-28.5 41.953-23.25 64.219s23.672 42.469 49.453 47.25l423.19 78.422-0.1875-0.1875c20.625 4.0312 40.078-3 53.531-14.953 0.09375-0.046875 0.28125-0.09375 0.375-0.1875l401.39-366.52 74.016 222.37c10.828 32.484 46.688 50.344 79.172 39.516 32.438-10.828 50.297-46.547 39.516-78.984l-104.06-312.79-27.516-92.109c-7.7344-25.875-33-44.672-58.5-44.672-30.891 0-62.906 21.328-58.875 53.906zm57.938-3.8906c5.4375 0.1875 9.8906 3.6094 11.438 8.8594l27.703 92.625c0.046875 0.28125 0.09375 0.46875 0.1875 0.75l104.25 313.18c2.25 6.8438-1.125 13.406-7.9219 15.703-6.8438 2.2969-13.594-1.125-15.891-7.9219l-86.203-258.94c-5.7188-17.156-27.234-22.734-40.594-10.5l-429.61 392.16c-3.1875 2.8125-6.8438 4.0781-10.688 3.3281h-0.375l-423-78.422c-6.2812-1.1719-8.8594-4.6406-9.9844-9.4219s-0.46875-9.0469 4.5938-12.938l310.97-234.37c8.25-6.1875 11.859-16.828 9.0469-26.766l-47.812-171.1c-1.9219-6.9375 1.7344-13.547 8.6719-15.516s13.547 1.7344 15.516 8.6719l7.2188 26.203c3.0469 10.828 12.938 18.328 24.188 18.281h513.42c16.828 0.046875 28.922-16.219 24-32.297-5.8594-21.562 10.969-21.609 10.875-21.609zm-527.44 78.984c-16.406 0.09375-28.312 15.703-24 31.547l101.67 364.31c4.9688 18 27.188 24.422 40.969 11.812l399-364.31c16.641-15.375 5.8594-43.219-16.781-43.359zm32.859 49.828h403.78l-321.66 293.44zm-55.922 119.2c-7.8281-2.6719-16.453-1.2656-23.062 3.7031l-219.24 165.52c-17.25 13.125-10.781 40.453 10.5 44.484l280.13 52.031c18.188 3.375 33.609-13.547 28.594-31.359l-60.891-217.4c-2.2031-7.9688-8.25-14.344-16.078-16.969zm-22.125 65.719 40.031 143.39-184.92-34.125z"/>
</svg>
