<?xml version="1.0" encoding="UTF-8"?>
<svg width="1200pt" height="1200pt" version="1.1" viewBox="0 0 1200 1200" xmlns="http://www.w3.org/2000/svg">
 <path d="m497.21 100.08c-24.094 0-44.297 13.078-56.25 28.031s-18.891 31.266-25.875 45.609c-14.297 29.297-20.016 63.797-30.984 88.969-5.4844 12.562-11.906 22.125-18.797 28.031-6.9375 5.9062-14.297 9.2344-27.891 9.2344h-165.14c-46.453 0-84.703 38.25-84.703 84.703v105.75c0 46.453 38.25 84.516 84.703 84.516 48.75 0 75.469 10.5 97.078 30.797 21.609 20.344 38.766 54.094 57 102.98l73.688 224.02c20.109 61.172 44.016 103.12 75.844 130.26 31.828 27.133 70.5 36.891 111.61 36.891h25.125c41.109 0 79.828-9.75 111.61-36.891 31.828-27.141 55.547-69.094 75.703-130.26l73.828-224.02c18.234-48.891 35.25-82.641 56.812-102.98 21.609-20.344 48.469-30.797 97.219-30.797 46.453 0 84.703-38.062 84.703-84.516v-105.75c0-46.453-38.25-84.703-84.703-84.703h-165.32c-13.594 0-20.766-3.3281-27.703-9.2344s-13.312-15.469-18.797-28.031c-10.969-25.172-16.688-59.672-30.984-88.969-6.9844-14.344-13.922-30.656-25.875-45.609s-32.156-28.031-56.25-28.031zm0 49.828h205.6c8.9531 0 11.344 1.9688 17.344 9.4219 5.9531 7.4531 12.422 21 19.922 36.375 8.8594 18.188 15.609 53.766 30.094 86.906 7.2188 16.547 16.875 33.141 32.109 46.125 15.234 12.984 36.234 21.188 60.141 21.188h165.32c19.641 0 34.734 15.094 34.734 34.734v105.7c0 19.641-15.094 34.5-34.734 34.5-56.625 0-99.844 14.625-131.39 44.297-31.547 29.672-50.484 70.922-69.516 122.02-24.938 75.328-49.641 150.71-74.438 226.08-18.562 56.391-39.094 89.297-60.703 107.77-21.609 18.469-45.281 24.891-79.219 24.891h-25.078c-33.891 0-57.516-6.4688-79.172-24.891-21.609-18.469-42.188-51.375-60.75-107.77l-73.969-225.14c-15.234-45.938-37.406-87.281-69.984-122.95-31.547-29.672-74.766-44.297-131.39-44.297-19.641 0-34.688-14.906-34.688-34.5v-105.7c0-19.641 15.047-34.734 34.688-34.734h165.19c23.906 0 45.094-8.2031 60.328-21.188s24.844-29.578 32.062-46.125c14.484-33.141 21.188-68.719 30.094-86.906 7.5-15.375 14.016-28.922 19.969-36.375s8.3906-9.4219 17.344-9.4219zm15.281 25.078c-13.828 0-24.984 11.203-24.984 24.984 0 13.828 11.203 24.984 24.984 24.984 13.828 0 24.984-11.203 24.984-24.984 0-13.828-11.203-24.984-24.984-24.984zm174.98 0c-13.828 0-24.984 11.203-24.984 24.984 0 13.828 11.203 24.984 24.984 24.984 13.828 0 24.984-11.203 24.984-24.984 0-13.828-11.203-24.984-24.984-24.984zm-174.98 99.984c-13.828 0-24.984 11.203-24.984 24.984 0 13.828 11.203 24.984 24.984 24.984 13.828 0 24.984-11.203 24.984-24.984 0-13.828-11.203-24.984-24.984-24.984zm174.98 0c-13.828 0-24.984 11.203-24.984 24.984 0 13.828 11.203 24.984 24.984 24.984 13.828 0 24.984-11.203 24.984-24.984 0-13.828-11.203-24.984-24.984-24.984zm-500.02 99.984c-13.828 0-24.984 11.203-24.984 24.984 0 13.828 11.203 24.984 24.984 24.984 13.828 0 24.984-11.203 24.984-24.984 0-13.828-11.203-24.984-24.984-24.984zm825 0c-13.828 0-24.984 11.203-24.984 24.984 0 13.828 11.203 24.984 24.984 24.984 13.828 0 24.984-11.203 24.984-24.984 0-13.828-11.203-24.984-24.984-24.984zm-825 75c-13.828 0-24.984 11.203-24.984 24.984 0 13.828 11.203 24.984 24.984 24.984 13.828 0 24.984-11.203 24.984-24.984 0-13.828-11.203-24.984-24.984-24.984zm825 0c-13.828 0-24.984 11.203-24.984 24.984 0 13.828 11.203 24.984 24.984 24.984 13.828 0 24.984-11.203 24.984-24.984 0-13.828-11.203-24.984-24.984-24.984z"/>
</svg>
