<?xml version="1.0" encoding="UTF-8"?>
<svg width="1200pt" height="1200pt" version="1.1" viewBox="0 0 1200 1200" xmlns="http://www.w3.org/2000/svg">
 <path d="m600.14 146.76c-73.078 0-146.11 2.8125-201.89 9.0469-27.891 3.0938-51.422 6.9844-69.797 12.188-9.1875 2.625-16.922 5.3906-24.562 10.172-6.8906 4.2656-16.219 12.375-18.047 25.266-67.266 270.74-72.797 537.32-24.188 828.98 2.0156 12.047 12.469 20.859 24.703 20.859h241.4c9.3281-0.046875 17.812-5.25 22.125-13.5 0 0 14.297-28.359 29.953-96.328 7.0312-30.516 13.125-107.06 20.297-156.1 7.2188 49.031 13.219 125.58 20.25 156.1 15.656 67.969 29.953 96.328 29.953 96.328 4.2656 8.25 12.797 13.453 22.078 13.5h241.4c12.188-0.09375 22.5-8.9062 24.516-20.859 48.656-291.84 43.172-558.47-24.234-829.4v-0.046875c-1.9219-12.609-11.016-20.578-17.812-24.797-7.6406-4.7812-15.562-7.5469-24.75-10.172-18.375-5.25-41.672-9.0938-69.562-12.188-55.828-6.1875-128.76-9.0469-201.84-9.0469zm0 49.828c66.562 0 130.87 3.4219 182.34 8.4844-42.375 6.5156-87.703 13.688-182.34 13.688-94.594 0-140.02-7.125-182.39-13.688 51.422-5.0625 115.78-8.4844 182.39-8.4844zm271.18 45.797c52.641 257.58 40.172 419.34-3.2812 513.05-45.094 97.219-120.28 127.18-208.36 127.18l0.046875-0.046875c-0.28125 0.046875-0.51562 0.14062-0.79688 0.1875-12.328-65.812-25.172-159.52-33.891-290.44h0.046875c-1.0312-13.031-11.906-23.062-24.938-23.062-13.078 0-23.906 10.031-24.938 23.062-8.7188 130.87-21.562 224.53-33.891 290.34-0.23438-0.046875-0.51562-0.046875-0.75-0.046875-88.078 0-163.26-29.953-208.36-127.18-43.453-93.703-55.875-255.47-3.2812-513 8.2969 2.5781 18.281 5.2031 30.75 7.875 44.578 9.4688 118.59 18.469 240.47 18.469s195.84-9 240.42-18.469c12.516-2.6719 22.5-5.3438 30.75-7.9219zm-587.02 528.28c0.84375 1.9219 1.5938 3.9375 2.4375 5.8125 51.188 110.39 146.72 153.28 244.36 155.86-12.516 54.234-18.844 65.062-21.562 70.969h-199.87c-12.562-79.359-21-156.66-25.359-232.64zm631.6 0.046876c-4.3594 75.938-12.797 153.24-25.359 232.55h-200.06c-2.7656-5.9062-8.9062-16.734-21.375-70.969 97.594-2.5781 193.18-45.469 244.36-155.86 0.84375-1.875 1.5938-3.8906 2.4375-5.7656z"/>
</svg>
