<?xml version="1.0" encoding="UTF-8"?>
<svg width="1200pt" height="1200pt" version="1.1" viewBox="0 0 1200 1200" xmlns="http://www.w3.org/2000/svg">
 <path d="m930.61 243.52c-22.219 0.84375-44.484 6.6094-65.25 17.578-94.734 50.062-207.14 52.969-300.56 2.9062-67.125-35.953-150.98-21.422-200.06 37.828-49.031 59.203-49.266 145.36-0.375 204.66 11.625 14.109 25.312 25.688 40.219 34.688 0.09375 0.046875 0.14062 0.046875 0.1875 0.09375 55.031 35.109 97.875 86.297 123.1 146.34-64.078 8.5312-129.66-2.0625-187.82-33.234-67.125-35.953-150.98-21.234-200.06 37.969-49.031 59.203-49.266 145.4-0.375 204.71 48.938 59.344 133.13 74.156 200.44 38.203 94.922-50.766 208.26-45.422 305.21 5.1562 67.453 35.203 149.26 10.641 194.16-48.328 45.047-59.109 43.5-141.71-3.6562-199.13-10.781-13.172-23.484-24.234-37.312-33.141v-0.046875c-0.60938-0.51562-1.3125-0.98438-1.9688-1.4062-55.453-35.156-98.672-86.484-124.03-146.9 66.516-7.5938 135.42 6.1406 197.68 38.625 67.453 35.203 149.26 10.641 194.16-48.328 45.047-59.109 43.453-141.89-3.7031-199.31-23.578-28.688-55.641-47.812-90.234-55.359-12.984-2.8125-26.25-4.0312-39.609-3.5156zm2.3438 49.969c9.0469-0.28125 18.094 0.5625 26.953 2.4844 23.578 5.2031 45.703 18.328 62.016 38.203 32.578 39.703 33.656 96.422 2.5312 137.29-31.219 41.016-87.469 57.047-131.39 34.125-109.92-57.375-241.13-64.219-351.89-4.9688-34.688 18.562-74.812 18-107.02 0.1875-0.84375-0.5625-1.6875-1.1719-2.5312-1.6875l-0.046875-0.046875c-0.51562-0.23438-0.98438-0.46875-1.5-0.65625-10.031-6.1406-19.266-14.016-27.141-23.578-33.797-41.016-33.703-100.03 0.1875-140.95 33.891-40.875 91.125-50.906 138.24-25.688 108.84 58.312 238.97 54.375 347.44-2.9062 13.969-7.3594 29.062-11.203 44.156-11.719zm4.2656 40.688c-38.391 0-69.984 31.734-69.984 70.125s31.594 70.172 69.984 70.172 69.938-31.781 69.938-70.172-31.547-70.125-69.938-70.125zm-451.4 0.046875c-11.297 0.28125-22.641 3.2812-33 9.2812-33.234 19.266-44.719 62.578-25.594 95.859s62.297 44.906 95.484 25.688c33.234-19.266 44.672-62.578 25.547-95.859-13.172-22.875-37.641-35.531-62.438-34.969zm1.4062 49.875c7.0312-0.1875 13.875 3.4219 17.766 10.219 5.6719 9.8906 2.5781 21.75-7.2188 27.422-9.7969 5.6719-21.562 2.4375-27.234-7.4531-5.6719-9.8906-2.625-21.75 7.1719-27.422 3.0469-1.7812 6.3281-2.625 9.5156-2.7188zm450 0.09375c11.25 0 19.922 8.6719 19.922 20.109s-8.6719 20.109-19.922 20.109-19.922-8.6719-19.922-20.109 8.6719-20.109 19.922-20.109zm-314.86 137.26c16.266 42.094 40.031 80.531 69.797 113.72-17.625 2.25-35.062 7.5469-51.516 16.266-20.297 10.734-41.484 19.125-63.047 25.5-16.5-42.234-40.5-80.812-70.594-114.05 19.828-2.3906 39.422-8.25 57.75-18.047 18.562-9.9375 37.875-17.625 57.609-23.344zm85.781 162.47c9.0469-0.375 18.094 0.46875 26.953 2.4375 10.828 2.3906 21.328 6.5625 31.125 12.188 1.1719 0.75 2.2969 1.5 3.4688 2.25v-0.046874c0.32812 0.1875 0.70312 0.32812 1.0781 0.46875 9.75 6.2812 18.703 14.109 26.391 23.438 32.578 39.703 33.703 96.234 2.5781 137.11-31.219 41.016-87.469 57.234-131.39 34.312-109.92-57.375-241.18-64.219-351.94-4.9688-47.203 25.266-104.44 15.141-138.24-25.828-33.797-41.016-33.703-100.08 0.1875-141 33.891-40.875 91.125-51.047 138.24-25.828 108.84 58.312 239.02 54.562 347.53-2.7656 13.969-7.3594 29.016-11.203 44.109-11.812zm-445.31 40.828c-38.391 0-69.938 31.734-69.938 70.125 0 38.391 31.547 70.125 69.938 70.125s69.984-31.734 69.984-70.125c0-38.391-31.594-70.125-69.984-70.125zm449.58 0c-38.391 0-69.938 31.734-69.938 70.125 0 38.391 31.547 70.125 69.938 70.125s69.984-31.734 69.984-70.125c0-38.391-31.594-70.125-69.984-70.125zm-449.58 50.016c11.25 0 19.922 8.6719 19.922 20.109s-8.6719 20.109-19.922 20.109-19.922-8.6719-19.922-20.109 8.6719-20.109 19.922-20.109zm449.58 0c11.25 0 19.922 8.6719 19.922 20.109s-8.6719 20.109-19.922 20.109-19.922-8.6719-19.922-20.109 8.6719-20.109 19.922-20.109z"/>
</svg>
