<?xml version="1.0" encoding="UTF-8"?>
<svg width="1200pt" height="1200pt" version="1.1" viewBox="0 0 1200 1200" xmlns="http://www.w3.org/2000/svg">
 <path d="m450.19 50.016c-6.6562-0.046875-13.031 2.5781-17.766 7.2656s-7.4062 11.062-7.4062 17.719v200.02c0 3.1406-3.2344 16.734-9.8438 32.953s-15.938 35.906-25.453 57c-18.984 42.141-39.703 89.203-39.703 135.05v575.02c0 41.109 33.891 75 75 75h350.02c41.109 0 75-33.891 75-75v-575.02c0-63.094-48.938-100.36-48.938-100.36l-151.08-117.61s-24.984-20.953-24.984-49.453v-156.52h-0.046875c0-13.734-11.062-24.891-24.797-24.984zm24.797 50.203 99.984 0.65625v49.125h-99.984zm0 99.797h99.984v32.578c0 55.875 44.297 88.922 44.297 88.922l151.03 117.61s29.672 24 29.672 60.891v575.02c0 14.297-10.734 24.984-24.984 24.984h-350.02c-14.297 0-24.984-10.734-24.984-24.984v-575.02c0-29.156 16.828-73.5 35.297-114.56 9.2344-20.531 18.703-40.406 26.109-58.594 7.4531-18.188 13.594-33.891 13.594-51.844zm-24.984 324.98c-6.6094 0-12.984 2.6719-17.672 7.3594s-7.3125 11.016-7.3125 17.672c0 6.6094 2.625 12.984 7.3125 17.672s11.062 7.3125 17.672 7.3125h150c13.828 0 25.031-11.203 25.031-24.984 0-6.6562-2.6719-12.984-7.3594-17.672s-11.016-7.3594-17.672-7.3594zm0 75c-6.6094 0-12.984 2.6719-17.672 7.3594s-7.3125 11.016-7.3125 17.672c0 6.6094 2.625 12.984 7.3125 17.672s11.062 7.3125 17.672 7.3125h300c13.828 0 25.031-11.203 25.031-24.984 0-6.6562-2.6719-12.984-7.3594-17.672s-11.016-7.3594-17.672-7.3594zm150 99.984c-96.375 0-174.98 78.656-174.98 174.98 0 96.375 78.656 174.98 174.98 174.98 96.375 0 174.98-78.656 174.98-174.98 0-96.375-78.656-174.98-174.98-174.98zm-24.984 52.5v72.891c-1.875 0.98438-3.7031 2.0156-5.4844 3.1875l-63.234-36.516c17.625-19.922 41.531-34.078 68.719-39.562zm50.016 0c27.188 5.4844 51.094 19.641 68.719 39.562l-63.234 36.516c-1.7344-1.1719-3.5625-2.2031-5.4844-3.1875zm-143.63 82.875 63.094 36.422c-0.09375 1.0781-0.1875 2.1562-0.1875 3.2344s0.09375 2.1562 0.1875 3.2344l-63.094 36.422c-4.125-12.422-6.375-25.781-6.375-39.656s2.2969-27.188 6.375-39.656zm237.24 0c4.125 12.422 6.3281 25.781 6.3281 39.656s-2.25 27.188-6.3281 39.656l-63.094-36.422c0.09375-1.0781 0.09375-2.1562 0.09375-3.2344s-0.046875-2.1562-0.09375-3.2344zm-149.11 86.062c1.7344 1.1719 3.5625 2.2031 5.4844 3.1875v72.891c-27.188-5.4844-51.094-19.641-68.719-39.562zm60.938 0 63.234 36.516c-17.625 19.922-41.531 34.078-68.719 39.562v-72.891c1.875-0.98438 3.7031-2.0156 5.4844-3.1875z"/>
</svg>
