<?xml version="1.0" encoding="UTF-8"?>
<svg width="1200pt" height="1200pt" version="1.1" viewBox="0 0 1200 1200" xmlns="http://www.w3.org/2000/svg">
 <path d="m118.41 190.36c-10.172-0.14062-19.406 5.8594-23.391 15.234-3.9375 9.3281-1.875 20.156 5.2969 27.375l213.66 213.71c46.125 46.125 106.36 44.625 141.37 44.625 17.484 0 30.562 0.5625 38.766 2.0625 8.2031 1.4531 11.016 2.8594 14.391 6.2344l61.828 61.828-17.719 17.719c-4.6875 4.6875-7.3594 11.109-7.3594 17.719 0 6.6562 2.6719 13.078 7.3594 17.766l362.44 362.26c43.781 43.781 115.31 43.781 159.1 0 43.781-43.781 43.781-115.31 0-159.1l-362.44-362.44c-9.75-9.7031-25.5-9.7031-35.25 0l-17.719 17.719-61.828-61.828c-46.125-46.125-106.59-44.812-141.56-44.812-17.484 0-30.328-0.375-38.531-1.875-8.2031-1.4531-11.016-3.0469-14.391-6.4219l-159.1-159.1c-4.5938-4.5469-10.828-7.1719-17.297-7.2188zm60.891 50.719 35.812 0.5625 151.92 151.92h-0.046875 0.1875c11.344 11.297 26.156 17.625 40.781 20.25s29.531 2.5781 47.391 2.5781c35.719 0 75.656-0.1875 106.17 30.281l61.781 61.828-17.531 17.531-61.969-61.828c-11.344-11.297-26.203-17.484-40.828-20.109s-29.719-2.7656-47.625-2.7656c-35.719 0-75.422 0.375-105.89-30.094zm514.87 267.42 88.266 88.312-88.359 88.312-88.266-88.266zm123.71 123.74 220.82 221.02c24.797 24.797 24.797 63.609 0 88.359-24.797 24.797-63.375 24.797-88.172 0l-221.11-221.11z"/>
</svg>
