<?xml version="1.0" encoding="UTF-8"?>
<svg width="1200pt" height="1200pt" version="1.1" viewBox="0 0 1200 1200" xmlns="http://www.w3.org/2000/svg">
 <path d="m177.94 209.86h0.046875c-33.984 33.984-33.984 89.719 0 123.66l53.016 53.016-17.625 17.625c-9.8438 9.7969-9.8438 25.734 0 35.484l88.312 88.312c9.7969 9.7031 25.641 9.6562 35.344-0.09375l42.141 42.141-12.797 38.391c-8.4844 25.031 22.688 44.391 41.344 25.688l19.641-19.641c-5.625 10.125-9.9844 19.5-12.469 29.156-2.8125 11.062-4.6406 26.906 8.0625 39.656 12.703 12.703 28.594 10.969 39.656 8.1094s21.703-7.9688 33.656-14.859c8.0156-4.6406 16.641-10.453 25.547-16.781l27.141 27.141c-6.3281 8.9062-12.141 17.578-16.781 25.547-6.9375 11.953-12.047 22.594-14.859 33.656-2.8594 11.062-4.6406 26.906 8.0625 39.656 12.703 12.703 28.594 10.969 39.656 8.1094s21.703-7.9688 33.656-14.859c19.172-11.156 41.391-27.422 65.344-47.672l18.375 18.375c-20.25 23.953-36.562 46.125-47.719 65.344-6.9375 11.953-12.141 22.5-15 33.562s-4.6406 26.906 8.0625 39.656c12.703 12.703 28.594 10.969 39.656 8.1094s21.703-7.9219 33.656-14.859c19.172-11.156 41.344-27.469 65.344-47.719l18.422 18.422c-20.25 23.953-36.562 46.125-47.719 65.344-6.9375 11.953-12.047 22.594-14.859 33.656-2.8594 11.062-4.7344 26.812 7.9688 39.516 7.875 7.875 17.531 9.5156 24.422 9.5625s12.609-1.2188 18.422-3c11.578-3.5156 23.438-9.2812 36.234-16.734 3.0938-1.7812 6.3281-3.9844 9.5156-5.9531l79.406 79.406c33.984 33.984 89.719 33.984 123.71 0.046875 33.984-33.984 33.938-89.719-0.046875-123.71l-74.672-74.672c6.3281-7.6875 11.953-14.906 16.219-21.141 6.8438-9.9844 11.484-17.953 14.109-27.656 1.3125-4.875 2.1562-10.5 0.65625-17.625-1.5469-7.0781-6.9844-15.281-13.547-19.312-13.172-8.0625-22.453-4.8281-30-2.8594s-14.625 5.0625-21.703 8.8594c-4.6875 2.4844-8.7656 6.7031-13.453 9.75 0.28125-0.375 0.84375-0.9375 1.0312-1.3125 6.9375-11.953 12.188-22.734 15-33.797 2.8594-11.062 4.5938-26.672-8.1094-39.375s-28.406-11.062-39.516-8.2031c-11.062 2.8594-21.844 8.0625-33.797 15-19.172 11.156-41.297 27.328-65.203 47.531l-18.375-18.375c20.203-23.906 36.422-46.031 47.578-65.203 6.9375-11.953 12.141-22.781 15-33.844s4.5938-26.672-8.1094-39.375-28.406-11.062-39.516-8.2031c-11.062 2.8594-21.844 8.0625-33.797 15-7.9688 4.6406-16.594 10.359-25.453 16.594l-27.188-27.188c6.2344-8.8594 12-17.438 16.641-25.406 6.9375-11.953 12.141-22.781 15-33.844s4.6406-26.625-8.0625-39.375c-12.703-12.703-28.453-11.109-39.516-8.25s-21.844 8.0625-33.797 15c-7.9688 4.6406-16.594 10.359-25.453 16.594l-25.641-25.641c6-7.6406 11.672-15.141 16.406-22.266 7.7344-11.625 13.828-22.5 16.969-34.969 3.0938-12.516 1.5-30-9.375-41.484-6.6562-7.0781-16.781-9.6562-26.016-6.6562l-37.828 12.516-42.281-42.281c9.6562-9.75 9.6562-25.453 0-35.203l61.828-8.8594 192.19 192.19c4.6875 4.6875 11.109 7.3594 17.766 7.3125l35.344 0.09375c6.6562-0.046875 12.984-2.7188 17.625-7.4062l70.734-70.734c4.7344-4.6875 7.4062-11.016 7.4062-17.625l-0.09375-35.344c0-6.6562-2.625-13.031-7.3125-17.766l-247.4-247.4c-9.7031-9.7969-25.547-9.8438-35.344-0.09375l-67.875 67.875-168.61 24.281-3.4688 0.375-0.84375 0.5625c-4.9688 0.75-9.6094 3.0469-13.312 6.5156l-17.766 17.766-35.344-35.344c-33.984-33.984-89.766-33.984-123.74 0zm35.438 35.344c15-15 37.969-15 52.969 0l53.016 53.016c9.7969 9.8438 25.734 9.8438 35.484 0l29.484-29.484 172.13-24.703c5.3438-0.75 10.266-3.2344 14.109-7.0312l56.016-56.016 53.109 53.109-70.734 70.734-24.422-24.422c-5.5312-5.5312-13.359-8.1562-21.141-7.0312l-123.66 17.766c-20.438 2.8125-28.875 27.797-14.25 42.422l17.625 17.625-123.66 123.66-52.969-52.969 17.766-17.766c9.7031-9.75 9.6562-25.5-0.046875-35.25l-70.688-70.688c-15-15-15-37.969 0-52.969zm12.188 12.141c-9.75 9.75-9.75 25.594 0 35.344s25.594 9.75 35.344 0 9.75-25.594 0-35.344-25.594-9.75-35.344 0zm146.86 235.13 88.312-88.312 53.156 53.156-88.312 88.312zm271.82-152.26 70.734-70.734 134.02 134.02v14.625l-56.109 56.109h-14.625zm-98.391 201.98 18.281 18.281c-5.9062 4.9688-11.812 10.031-17.906 15.516-6.9375 6.2812-13.641 11.906-20.109 17.203l-13.078-13.078c5.1094-6.3281 10.688-12.75 16.734-19.5 5.8125-6.4688 10.641-12.234 16.031-18.422zm-63.656 77.766 4.1719 4.1719c-2.1562 1.3594-8.1562 4.7812-10.172 6.0469 1.2656-2.0625 4.6406-8.0625 6.0469-10.172zm79.406 8.7188c5.9062-4.9688 11.766-9.9844 17.906-15.469 6.9844-6.2812 13.688-11.953 20.156-17.203l13.125 13.125c-5.25 6.4688-10.969 13.125-17.25 20.109-5.4375 6.1406-10.5 12-15.469 17.906zm78.047-63.375c1.9219-1.2656 7.7344-4.4531 9.5625-5.625-1.1719 1.8281-4.3594 7.6406-5.625 9.5625zm8.5781 79.266 18.375 18.375c-5.9062 4.9688-11.812 10.031-17.906 15.516-6.9375 6.2812-13.688 11.859-20.109 17.156l-12.984-12.984c5.25-6.4688 10.922-13.125 17.203-20.109 5.4844-6.1406 10.5-12.047 15.469-17.953zm-63.609 77.812 4.1719 4.1719c-2.0625 1.4062-8.1094 4.6875-10.078 5.9531 1.2188-2.0156 4.5469-7.9688 5.9531-10.078zm117.61-23.812c17.531-14.297 33.188-25.219 46.688-33.703-8.4844 13.5-19.406 29.156-33.703 46.688zm15.797 86.484 12.984 12.984c-17.719 14.484-33.516 25.641-47.109 34.125 8.4844-13.594 19.594-29.391 34.125-47.109zm86.672 15.938c17.531-14.297 33.188-25.219 46.688-33.703-8.4844 13.5-19.406 29.156-33.703 46.688zm55.125 37.641 17.953 17.953c-2.4375 2.9531-5.2969 6.2344-8.0625 9.4219l-17.25-17.25c2.4375-3.375 5.0156-6.7969 7.3594-10.125zm-39.375 48.797 13.734 13.734c-3.1875 2.7656-6.4688 5.3906-9.75 8.0156l-9.9375-9.9375c-0.5625-0.5625-1.2656-1.2188-2.0156-1.7344 2.625-3.2812 5.0625-6.5625 7.9219-10.031zm39.562 57.328c9.6562-7.9219 19.125-16.219 27.938-25.031 9.6094-9.6094 18.328-18.562 26.156-26.812l72.609 72.609c15 15 15 37.969 0 52.969s-37.969 15-52.969 0zm79.219 26.156c-9.75 9.75-9.75 25.594 0 35.344s25.594 9.75 35.344 0 9.75-25.594 0-35.344-25.594-9.75-35.344 0z"/>
</svg>
