<?xml version="1.0" encoding="UTF-8"?>
<svg width="1200pt" height="1200pt" version="1.1" viewBox="0 0 1200 1200" xmlns="http://www.w3.org/2000/svg">
 <path d="m588.74 125.16c-210.61 5.0156-392.95 148.4-447.52 351.89-67.828 253.13 82.734 513.89 335.86 581.68 253.13 67.828 513.89-82.734 581.68-335.86 67.828-253.13-82.734-513.89-335.86-581.68-43.734-11.719-88.922-17.156-134.21-16.078zm1.125 50.016c40.5-0.98438 81 3.75 120.1 14.203 227.02 60.844 361.26 293.58 300.42 520.6-60.797 227.02-293.39 361.26-520.4 300.42-227.02-60.797-361.45-293.39-300.66-520.4 48.844-182.29 211.82-310.36 400.5-314.86zm10.125 24.797c-13.828 0-25.031 11.203-25.031 24.984 0 13.828 11.203 25.031 25.031 25.031 13.781 0 24.984-11.203 24.984-25.031 0-13.781-11.203-24.984-24.984-24.984zm-96.469 12.797h-0.046876c-2.3438-0.046875-4.7344 0.23438-6.9844 0.84375-13.359 3.5625-21.281 17.297-17.719 30.609 3.6094 13.359 17.297 21.234 30.656 17.672 13.312-3.5625 21.234-17.297 17.672-30.609-2.9062-10.734-12.516-18.234-23.578-18.516zm192.98 0h-0.046874c-11.109 0.23438-20.719 7.7812-23.578 18.516-3.5625 13.312 4.3594 27 17.672 30.609 13.359 3.5625 27.047-4.3594 30.609-17.672 3.5625-13.359-4.3125-27.047-17.672-30.656-2.2969-0.60938-4.6406-0.89062-7.0312-0.84375zm-282.79 37.453h-0.046875c-4.7812-0.23438-9.5156 0.89062-13.688 3.2812-5.7188 3.3281-9.9375 8.8125-11.625 15.234-1.7344 6.375-0.84375 13.219 2.4844 18.984 6.9375 11.906 22.219 15.984 34.172 9.0938 11.906-6.8906 15.984-22.172 9.0938-34.125-4.2188-7.3594-11.953-12.094-20.438-12.469zm372.66 0h-0.046875c-8.5312 0.42188-16.219 5.1094-20.484 12.469-6.8906 11.953-2.8125 27.234 9.1406 34.172 11.953 6.8906 27.234 2.7656 34.125-9.1406 3.3281-5.7656 4.2656-12.562 2.5312-18.984s-5.9062-11.906-11.672-15.188c-4.125-2.3906-8.8594-3.5625-13.641-3.3281zm-186.47 24.797c-66.188 0.46875-130.64 20.953-184.78 59.016h-0.046875c-10.688 7.4531-13.875 21.797-7.3594 33.047l69.562 120.32c4.4531 7.7812 12.75 12.562 21.703 12.562s17.203-4.7812 21.656-12.562l100.97-174.94c4.4531-7.7812 4.4531-17.297-0.046875-25.031s-12.797-12.469-21.703-12.422zm125.86 29.625h-0.046875c-8.3906 0.51562-15.938 5.1562-20.156 12.422l-69.562 120.37v-0.046875c-4.4531 7.7812-4.4531 17.297 0.046875 25.031s12.75 12.469 21.703 12.422h202.13c8.9062 0 17.109-4.7812 21.562-12.516 4.4062-7.6875 4.4531-17.203 0-24.938-33.469-57.094-83.719-102.61-143.76-130.45-3.7031-1.7344-7.8281-2.5312-11.953-2.2969zm-392.68 5.2031-0.046876 0.046875c-6 0.42188-11.672 2.9531-15.938 7.2188-9.75 9.75-9.75 25.594 0 35.344 9.7969 9.75 25.594 9.75 35.391 0 9.75-9.75 9.75-25.594 0-35.344-5.1562-5.1094-12.234-7.7344-19.453-7.2188zm530.34 0-0.046875 0.046875c-6 0.42188-11.625 3-15.891 7.2188-9.75 9.75-9.75 25.594 0 35.344s25.594 9.75 35.344 0 9.75-25.594 0-35.344c-5.1094-5.1094-12.234-7.7812-19.453-7.2188zm-316.5 32.344-47.812 82.688-33-56.812c24.891-14.484 52.828-19.734 80.812-25.828zm187.13 25.641c24.984 14.344 43.688 36 62.953 57.234h-95.953zm-459.89 19.641h-0.09375c-8.5312 0.42188-16.219 5.1094-20.484 12.516-6.8906 11.906-2.8125 27.188 9.1406 34.125 11.953 6.8906 27.234 2.8125 34.125-9.1406 3.3281-5.7656 4.2188-12.562 2.5312-18.984-1.7344-6.4219-5.9062-11.859-11.672-15.188-4.125-2.3906-8.8594-3.5625-13.641-3.3281zm651.84 0h-0.09375c-4.7812-0.23438-9.5156 0.9375-13.688 3.3281-5.7188 3.2812-9.9375 8.7656-11.625 15.188-1.7344 6.4219-0.79687 13.219 2.5312 18.984 6.8906 11.906 22.172 16.031 34.125 9.1406 11.906-6.9375 15.984-22.219 9.0938-34.172-4.2188-7.3594-11.953-12.047-20.438-12.469zm-585.74 37.594h-0.09375c-8.8594 0-17.062 4.6875-21.562 12.375-28.5 49.406-43.547 105.56-43.547 162.61v-0.046876c-0.046875 0.375-0.046875 0.75 0 1.0781 0.375 9.0469 1.2188 18.141 2.3906 27.141 1.5938 12.422 12.141 21.75 24.703 21.797h139.18-0.046875c8.9531-0.046876 17.156-4.7812 21.609-12.516 4.4531-7.7344 4.4531-17.25 0-24.984l-101.11-175.08-0.9375 1.4531h-0.046875c-3.9375-7.9688-11.812-13.219-20.625-13.828zm-103.03 52.828h-0.09375c-11.062 0.28125-20.672 7.8281-23.531 18.562-3.5625 13.312 4.3594 27.047 17.672 30.609 13.359 3.5625 27.047-4.3594 30.609-17.672 3.6094-13.359-4.3125-27.047-17.672-30.609-2.2969-0.60938-4.6875-0.9375-7.0781-0.84375zm725.63 0h-0.09375c-2.3438-0.046875-4.7344 0.23438-7.0312 0.84375-13.312 3.5625-21.234 17.297-17.672 30.609 3.6094 13.359 17.297 21.281 30.609 17.672 13.359-3.5625 21.281-17.25 17.719-30.609-2.9062-10.734-12.516-18.281-23.625-18.562zm-362.76 22.078c-54.938 0-100.03 45.094-100.03 100.03s45.094 99.984 100.03 99.984 99.984-45.047 99.984-99.984-45.047-100.03-99.984-100.03zm-251.95 13.688 49.875 86.391h-72.891v-0.1875c0-30.281 13.359-57.75 23.062-86.203zm251.95 36.328c27.891 0 50.016 22.125 50.016 50.062 0 27.891-22.078 50.016-50.016 50.016-27.891 0-50.062-22.078-50.062-50.016 0-27.891 22.125-50.062 50.062-50.062zm158.68 0h-0.046875c-8.9062 0-17.109 4.7812-21.562 12.516-4.4531 7.6875-4.4531 17.203 0 24.938l100.92 174.94c4.4531 7.7344 12.75 12.516 21.656 12.516 8.9531 0 17.25-4.7812 21.703-12.516 28.5-49.359 43.5-105.38 43.547-162.37v-1.3125c-0.375-9.0469-1.2188-18.094-2.3906-27.094-1.5938-12.469-12.188-21.75-24.703-21.797zm-533.72 24.984h-0.046876c-13.828 0-25.031 11.203-25.031 24.984 0 13.828 11.203 25.031 25.031 25.031 13.781 0 24.984-11.203 24.984-25.031 0-13.781-11.203-24.984-24.984-24.984zm750 0h-0.046876c-13.828 0-25.031 11.203-25.031 24.984 0 13.828 11.203 25.031 25.031 25.031 13.781 0 24.984-11.203 24.984-25.031 0-13.781-11.203-24.984-24.984-24.984zm-172.92 25.031h72.891v0.1875c-0.046876 30.141-13.406 57.516-23.062 85.828zm-563.72 72-0.046875 0.046875c-2.3906-0.046875-4.7812 0.23438-7.0781 0.84375-13.312 3.5625-21.234 17.25-17.672 30.609 3.5625 13.312 17.297 21.234 30.609 17.672 13.359-3.5625 21.281-17.297 17.672-30.609-2.8594-10.688-12.422-18.234-23.531-18.516zm723.24 0-0.046876 0.046875c-11.062 0.23438-20.625 7.7812-23.531 18.516-3.5625 13.312 4.3594 27 17.672 30.609 13.359 3.5625 27.047-4.3594 30.656-17.672 3.5625-13.359-4.3594-27.047-17.719-30.656-2.2969-0.60938-4.6875-0.89062-7.0781-0.84375zm-260.63 27.984-0.046875 0.046875c-8.8594-0.046875-17.109 4.6875-21.562 12.328l-100.97 175.13-0.046875 0.046874c-4.4062 7.6875-4.4062 17.203 0.046875 24.891 4.4531 7.7344 12.656 12.516 21.562 12.562 66.281 0 131.06-20.297 185.48-58.125 10.688-7.4062 13.875-21.797 7.3594-33.047l-70.125-121.45h0.046875c-4.5469-7.7344-12.844-12.422-21.797-12.328zm-360.79 24.891-0.046874 0.046875c-8.9531 0-17.25 4.7812-21.703 12.562-4.4531 7.7812-4.4062 17.344 0.14063 25.078 33.469 57.094 83.531 102.61 143.53 130.45 11.766 5.5781 25.828 1.1719 32.344-10.078l69.375-120.56c4.4531-7.7344 4.4062-17.25 0-24.938-4.4531-7.7344-12.656-12.469-21.562-12.516zm-63.75 37.547-0.046874 0.046875c-4.7812-0.23438-9.5625 0.9375-13.688 3.3281-5.7656 3.2812-9.9375 8.7656-11.625 15.188-1.7344 6.4219-0.84375 13.219 2.4844 18.984 6.9375 11.906 22.219 16.031 34.125 9.1406 11.953-6.9375 16.031-22.219 9.1406-34.172-4.2188-7.3594-11.953-12.047-20.438-12.469zm647.16 0-0.046875 0.046875c-8.4844 0.42188-16.219 5.1094-20.484 12.516-6.8906 11.906-2.7656 27.188 9.1406 34.125 11.953 6.8906 27.234 2.8125 34.125-9.1406 3.3281-5.7656 4.2656-12.562 2.5312-18.984-1.6875-6.4219-5.9062-11.859-11.625-15.188-4.1719-2.3906-8.9062-3.5625-13.688-3.3281zm-520.45 12.516h95.953l-33 57c-24.984-14.344-43.641-35.766-62.953-57zm298.03 0 33.375 57.703c-25.219 14.438-53.484 19.781-81.797 25.688zm-368.11 65.25h-0.046874c-6 0.42188-11.672 3-15.938 7.2188-9.75 9.7969-9.75 25.594 0 35.391 9.7969 9.75 25.594 9.75 35.391 0 9.75-9.7969 9.75-25.594 0-35.391-5.1562-5.1094-12.234-7.7344-19.453-7.2188zm530.34 0h-0.046875c-6 0.42188-11.625 3-15.891 7.2188-9.75 9.7969-9.75 25.594 0 35.391 9.75 9.75 25.594 9.75 35.344 0 9.75-9.7969 9.75-25.594 0-35.391-5.1094-5.1094-12.234-7.7344-19.453-7.2188zm-452.06 59.578h-0.046875c-8.4844 0.42188-16.219 5.1094-20.484 12.469-6.8906 11.953-2.8125 27.188 9.1406 34.125 11.953 6.8906 27.234 2.8125 34.125-9.1406s2.8125-27.234-9.1406-34.125c-4.125-2.3906-8.8594-3.5625-13.641-3.3281zm377.34 0h-0.046875c-4.7812-0.23438-9.5156 0.9375-13.688 3.3281-11.953 6.8906-16.031 22.172-9.1406 34.125 6.9375 11.953 22.219 16.031 34.172 9.1406 11.906-6.9375 15.984-22.219 9.0938-34.125-4.2656-7.3594-11.953-12.094-20.438-12.469zm-286.31 37.406h-0.09375c-11.062 0.28125-20.672 7.8281-23.531 18.562-3.5625 13.312 4.3594 27.047 17.672 30.609 13.359 3.5625 27.047-4.3594 30.656-17.672 3.5625-13.359-4.3594-27.047-17.672-30.609-2.3438-0.65625-4.7344-0.9375-7.0781-0.84375zm195.32 0h-0.09375c-2.3906-0.046875-4.7812 0.23438-7.0781 0.84375-13.312 3.5625-21.234 17.297-17.672 30.609 3.5625 13.359 17.297 21.234 30.609 17.672 13.359-3.5625 21.234-17.25 17.672-30.609-2.8594-10.734-12.422-18.281-23.531-18.562zm-97.641 12.797h-0.09375c-13.828 0-25.031 11.203-25.031 24.984 0 13.828 11.203 25.031 25.031 25.031 13.781 0 24.984-11.203 24.984-25.031 0-13.781-11.203-24.984-24.984-24.984z"/>
</svg>
