<?xml version="1.0" encoding="UTF-8"?>
<svg width="1200pt" height="1200pt" version="1.1" viewBox="0 0 1200 1200" xmlns="http://www.w3.org/2000/svg">
 <path d="m425.06 100.27c-96.375 0-175.13 78.75-175.13 175.08 0 74.344 46.875 138.05 112.55 163.31v36.562h-129.71c-19.312-15.562-43.828-24.938-70.359-24.938-61.828 0-112.36 50.766-112.36 112.59 0 26.578 9.3281 51.047 24.891 70.359v121.55c-28.172 35.203-33.75 85.594-9.9844 126.79 1.8281 3.1406 4.5 8.5781 10.172 14.578 0.84375 0.84375 15.703 19.031 39.469 48.328 23.766 29.344 58.5 72 106.17 129 23.25 27.844 63.328 34.031 94.266 16.219 30.938-17.859 45.797-55.734 33.422-89.859-11.672-32.062-23.766-63.609-35.812-95.203l767.86 20.672c38.484 1.0312 69.422-31.172 69.422-68.859v-62.344c0-37.688-30.984-69.844-69.422-68.859l-730.6 19.547v-50.719c0-10.875 8.0156-18.797 18.844-18.797h712.36c37.688 0 68.859-31.172 68.859-68.859v-62.391c0-37.688-31.172-68.812-68.859-68.812h-593.72v-36.516c65.719-25.219 112.59-88.969 112.59-163.36 0-96.375-78.609-175.08-174.94-175.08zm0 50.016c69.328 0 124.92 55.781 124.92 125.11 0 69.328-55.594 124.97-124.92 124.97s-125.16-55.641-125.16-124.97 55.828-125.11 125.16-125.11zm-77.297 50.156v-0.046875c-7.5938 0.65625-14.484 4.7812-18.703 11.156-3.6562 5.4844-4.9688 12.281-3.6562 18.75 1.3125 6.5156 5.1562 12.234 10.688 15.891l51.75 34.453c0.1875 1.4531 0.46875 2.9062 0.84375 4.3594 5.3906 20.062 25.875 31.875 45.938 26.531 20.062-5.3906 31.875-25.828 26.531-45.891-5.3438-19.922-25.594-31.734-45.562-26.625l-51.844-34.5c-4.7344-3.1406-10.359-4.5938-16.031-4.125zm64.734 249.42c4.125 0.28125 8.3438 0.46875 12.562 0.46875 4.1719 0 8.25-0.1875 12.375-0.46875v25.406h-24.891zm-250.08 50.531c34.828 0 62.578 27.75 62.578 62.531 0 34.828-27.797 62.344-62.578 62.344-34.828 0-62.344-27.562-62.344-62.344 0-34.828 27.562-62.531 62.344-62.531zm106.08 24.891h812.63c10.875 0 18.797 7.9219 18.797 18.797v62.391c0 10.875-7.9219 18.797-18.797 18.797h-712.36c-37.688 0-68.859 31.172-68.859 68.859v52.078l-67.734 1.8281c-19.828-17.344-41.391-34.219-68.016-34.969v-0.046875c-0.5625-0.09375-1.1719-0.1875-1.7344-0.28125-12.844 0-25.453 2.4375-37.453 6.7031v-50.625c11.719 4.1719 24.328 6.4688 37.453 6.4688 61.828 0 112.59-50.578 112.59-112.41 0-13.172-2.2969-25.875-6.5156-37.641zm-104.81 12.609-0.046875-0.046875c-4.7812-0.23438-9.5156 0.9375-13.688 3.3281-11.906 6.8906-16.031 22.172-9.0938 34.125 6.8906 11.953 22.125 16.078 34.125 9.1875 5.7188-3.3281 9.9375-8.8125 11.625-15.188 1.7344-6.4219 0.79688-13.266-2.5312-18.984-4.2188-7.3594-11.953-12.047-20.438-12.469zm890.26 12.469c-4.4062-0.09375-8.9062 0.98438-13.031 3.375-11.953 6.8906-16.078 22.172-9.1875 34.125 6.8906 11.953 22.219 16.078 34.172 9.1875 11.953-6.8906 16.031-22.219 9.1406-34.172-4.5469-7.8281-12.656-12.328-21.094-12.516zm-891.47 212.44c19.688 0.09375 38.109 9.5156 49.875 25.312l-0.09375-0.046875c4.9219 6.5156 12.703 10.219 20.859 9.9375l91.359-2.4375c0.1875 0 0.375 0.046875 0.5625 0.046875 0.28125 0 0.5625-0.09375 0.84375-0.09375l756-20.203c10.078-0.28125 18.281 8.0156 18.281 18.844v62.344c0 10.875-8.2031 19.125-18.281 18.844l-804.98-21.609h0.046874c-8.3438-0.28125-16.312 3.6094-21.141 10.406-4.875 6.7969-6.0469 15.562-3.0938 23.391 16.359 43.359 33.094 86.484 48.75 129.56 3.9844 10.922-0.65625 23.25-11.25 29.344-10.547 6.0938-23.578 3.9375-30.984-4.9688-47.438-56.766-81.891-99.047-105.56-128.26-23.672-29.203-34.547-43.312-41.906-51.141v-0.1875c0.1875 0.1875-1.125-1.5469-3.3281-5.3438-13.875-24-10.219-52.734 7.0312-72.281 1.6875-1.3594 3.1875-2.9062 4.5-4.6406 3.375-3.1406 7.1719-5.9531 11.344-8.3438 9.5156-5.4844 20.25-8.4844 31.219-8.4844zm1.2188 37.594-0.046874-0.046875c-4.7812-0.23438-9.5156 0.9375-13.688 3.3281-11.906 6.8906-16.031 22.172-9.1406 34.125 6.9375 11.953 22.172 16.031 34.172 9.1875 5.7188-3.3281 9.9375-8.8125 11.625-15.234 1.7344-6.375 0.79687-13.219-2.5312-18.984-4.2656-7.3594-11.953-12.047-20.438-12.422z"/>
</svg>
