<?xml version="1.0" encoding="UTF-8"?>
<svg width="1200pt" height="1200pt" version="1.1" viewBox="0 0 1200 1200" xmlns="http://www.w3.org/2000/svg">
 <path d="m924.94 149.95-275.02 0.046875h0.046875c-6.7031 0-13.078 2.625-17.812 7.3594-4.6875 4.6875-7.3125 11.109-7.3125 17.766v324.98c0.046875 13.828 11.297 24.984 25.125 24.891v112.12l-586.87 316.08c-9.0938 4.9688-14.156 15.094-12.75 25.359 1.4531 10.266 9.0938 18.609 19.172 20.906l224.95 50.062c5.7188 1.2188 11.625 0.42188 16.828-2.25 270.94-139.82 367.69-197.06 614.95-197.06 37.5 0 63.375-1.2656 85.078-5.7188s39.328-13.219 54.094-24.75h-0.046875c0.32812-0.23438 0.65625-0.51562 0.9375-0.75 37.5-32.531 57.656-48.797 70.641-70.5s12.938-43.594 12.938-73.453v-100.03l0.046875-0.046875c-0.09375-13.688-11.203-24.844-24.938-24.891h-175.13v-76.031l26.016-0.98438v0.046875c13.359-0.5625 23.953-11.531 24-24.938v-23.016h75.094v0.046875c13.781-0.09375 24.938-11.297 24.891-25.125v-74.953c0.046875-13.781-11.109-25.031-24.891-25.078h-75.094v-24.938c0-6.7031-2.625-13.078-7.3594-17.812-4.6875-4.6875-11.109-7.3125-17.766-7.3125l-24.891 0.1875v-75.094c0.046875-6.6562-2.5781-13.031-7.2656-17.719-4.6406-4.7344-11.016-7.4062-17.625-7.4062zm-250.08 50.062h224.95v75.328c-0.046875 6.7031 2.625 13.125 7.4062 17.859 4.7344 4.7344 11.203 7.3125 17.859 7.2656l24.703-0.1875v123.84l-25.828 1.0781v-0.046875c-13.453 0.46875-24.141 11.484-24.141 24.984v24.891h-224.95zm324.98 150.05h50.016v25.078h-50.016zm-299.9 174.94h74.953v25.078c0 13.922-1.2188 14.766-10.359 21.984s-28.078 16.594-52.781 31.734l-11.812 6.3281zm124.97 0h74.906v50.016c-0.046875 6.6562 2.5781 13.078 7.3125 17.812 4.6875 4.7344 11.109 7.3594 17.766 7.3594h132.32l-116.91 100.12c-299.06 2.625-485.21 127.92-763.26 272.02l-31.312-6.9844 590.9-318.19 0.046875 0.046875c0.42188-0.23438 0.89062-0.51562 1.3125-0.75 22.359-13.734 40.969-22.125 57.562-35.25s29.344-35.391 29.344-61.078zm274.97 104.48v45.562c0 29.859 0.046875 37.969-5.7188 47.625-5.7188 9.5625-23.25 26.156-60.141 58.172-9.9375 7.6875-17.438 11.438-32.672 14.531-15.469 3.1875-38.859 4.8281-75.094 4.8281-252 0-366.47 62.859-629.48 198.74l-44.203-9.7969c253.45-133.92 424.78-238.97 697.26-238.97h-0.046875c3.8438 0 7.5938-0.89063 11.016-2.5781 0.046875 0 0.14062-0.046874 0.1875-0.09375 1.9219-0.89062 3.7031-2.0625 5.2969-3.4219z"/>
</svg>
