<?xml version="1.0" encoding="UTF-8"?>
<svg width="1200pt" height="1200pt" version="1.1" viewBox="0 0 1200 1200" xmlns="http://www.w3.org/2000/svg">
 <path d="m600.05 112.55c-137.9 0-250.08 110.2-250.08 246.74v528.19h-50.016v-0.046875c-13.734 0.046875-24.844 11.156-24.891 24.891v125.16c0.046875 13.734 11.156 24.844 24.891 24.891h125.16c-0.09375 13.828 11.062 25.078 24.891 25.125h300.05c6.6094 0 12.984-2.6719 17.672-7.4062 4.6875-4.6875 7.3125-11.062 7.2656-17.719h124.92c13.781 0.09375 25.031-11.062 25.078-24.891v-125.16c-0.046875-13.781-11.297-24.938-25.078-24.891h-49.828v-528.19c0-136.55-112.17-246.74-250.03-246.74zm0 49.828c111.42 0 200.06 87.609 200.06 196.92v528.19h-25.078l-0.046875-0.046875c-0.046875-13.734-11.203-24.891-24.938-24.891h-300.05c-13.734 0.046875-24.844 11.156-24.891 24.891h-25.078v-528.19c0-109.31 88.641-196.92 200.06-196.92zm-124.97 750h249.84v125.16h-249.84zm49.828 12.562v-0.046875c-13.828 0.046875-24.984 11.297-24.938 25.078v50.062c0.09375 13.734 11.203 24.844 24.938 24.891 13.781 0.09375 25.031-11.062 25.078-24.891v-50.062c0.046875-6.6562-2.625-13.031-7.3125-17.766-4.7344-4.6875-11.109-7.3125-17.766-7.3125zm75.141 0v-0.046875c-6.7031-0.046875-13.078 2.5781-17.812 7.3125-4.7344 4.6875-7.3594 11.109-7.3594 17.766v50.062c0.046875 6.6562 2.7188 12.984 7.4062 17.672 4.7344 4.6875 11.109 7.2656 17.766 7.2188 13.734-0.046875 24.844-11.156 24.891-24.891v-50.062c0.046875-13.781-11.109-25.031-24.891-25.078zm74.906 0v-0.046875c-13.828 0.046875-24.984 11.297-24.891 25.078v50.062c0.046875 13.734 11.156 24.844 24.891 24.891 6.6094 0.046875 12.984-2.5781 17.672-7.2188 4.7344-4.6875 7.4062-11.016 7.4062-17.672v-50.062c0.046875-6.6562-2.625-13.031-7.3125-17.766-4.7344-4.6875-11.109-7.3594-17.766-7.3125zm-349.92 12.562h100.03v74.953h-100.03zm449.95 0h99.984v74.953h-99.984z"/>
</svg>
