<?xml version="1.0" encoding="UTF-8"?>
<svg width="1200pt" height="1200pt" version="1.1" viewBox="0 0 1200 1200" xmlns="http://www.w3.org/2000/svg">
 <path d="m268.18 146.68c-15.422 0-31.406 4.2656-45.938 12.938-23.25 13.875-37.453 36.422-42.281 59.812s-1.5 47.484 6.4688 69.938l15.141 42.75c-9.5156 7.6875-18.938 15.422-28.078 23.109-28.078 23.531-52.031 48.094-67.922 76.969s-22.875 62.344-17.531 98.578c5.4375 37.031 21.797 110.53 179.76 268.5 84.562 80.484 173.02 163.4 268.31 212.39 95.297 48.984 201.24 62.109 305.44-0.75 19.031-11.484 43.406-27.516 67.312-43.5l35.625 30.938c18 15.609 39.188 27.375 62.766 31.406 23.531 4.0312 49.828-0.98438 71.25-17.531 21.422-16.594 32.859-40.781 34.875-64.594s-4.125-47.344-14.766-68.672l-33.234-66.75c14.344-41.906 17.344-89.203 11.297-134.95-11.719-88.781-56.062-176.21-129.19-217.78l-24.516-14.062-12.938-109.22c-2.8125-23.672-10.594-46.688-25.312-65.531s-37.594-32.906-64.594-35.062-51.703 8.1094-69.188 24.375c-17.484 16.266-28.734 37.828-35.25 60.75l-1.6406 6.0469c-49.312-28.078-98.672-56.062-147.98-84.141-35.203-20.062-71.859-28.922-107.58-29.016h-0.046874c-24.891-0.046875-49.172 4.0781-72.844 10.969l-31.922-35.297c-21.984-24.281-51.516-42.656-85.453-42.609zm0 50.062c14.812 0 33.047 9.2812 48.328 26.156l18.938 20.953c-32.156 15.141-62.906 34.875-92.25 56.297l-9.75-27.609c-5.5312-15.609-7.0781-31.125-4.5938-43.031s7.5469-20.25 18.984-27.094c7.1719-4.2656 13.594-5.7188 20.297-5.7188zm4.0781 20.109c-4.7812-0.1875-9.5156 1.0781-13.641 3.5156-11.859 7.0781-15.703 22.406-8.625 34.266s22.406 15.703 34.266 8.625 15.703-22.406 8.625-34.266c-4.3594-7.3125-12.141-11.906-20.672-12.141zm186.14 46.828 0.046874 0.046875c27.703 0.046875 54.75 6.6094 82.875 22.5l175.69 99.844c14.109 7.9688 31.922 0.65625 36.328-15l10.547-36.703c4.5469-15.938 12.281-29.344 21.188-37.641s17.906-12.281 31.219-11.25c13.266 1.0781 21.516 6.2812 29.016 15.891 7.5 9.5625 12.984 24.328 14.953 40.781l14.531 121.78c0.9375 7.875 5.4844 14.906 12.375 18.844l35.625 20.109c53.484 30.375 94.172 104.81 104.25 181.03s-9.4219 149.58-62.156 184.74c-1.3594 0.65625-96.047 67.453-149.11 99.469-89.391 53.906-170.86 43.266-256.74-0.9375-61.172-31.453-122.58-81.094-183.32-135.98h459.47c82.547 0 150-67.5 150-150.05s-67.453-150.05-150-150.05h-696.14c-0.5625-2.625-1.0781-5.25-1.4531-7.7812-3.8438-26.109 0.5625-46.5 11.953-67.172s30.562-41.344 56.109-62.766c79.547-66.609 169.74-129.89 252.84-129.74zm352.6 42.656c-12.422 0.75-22.359 10.547-23.344 22.969-1.0781 13.781 9.1875 25.828 22.969 26.906s25.828-9.1875 26.906-22.969-9.1875-25.828-22.969-26.906c-1.1719-0.09375-2.3906-0.09375-3.5625 0zm-653.44 274.74h565.97c-23.906 26.578-38.484 61.688-38.484 100.03 0 38.391 14.578 73.453 38.484 100.03h-401.72c-6.3281-5.9531-12.703-11.766-18.984-17.766-2.4844-2.4844-4.5-4.7344-6.9375-7.1719h301.13c14.203 0 25.031 0 34.5-0.75s19.266-0.28125 30.469-11.438c5.5781-5.5781 8.9062-14.391 9.2344-21.047 0.28125-6.6562-0.98438-11.438-2.3906-15.703-2.7656-8.5781-6.5625-15.891-11.297-25.453l-11.766-23.578c-12.375-24.984-41.531-52.031-85.594-52.031l-373.74 0.046876c-4.5 0-8.625 1.3125-12.234 3.375-6.1875-9.8906-12.047-19.594-16.594-28.5zm677.53 0c55.547 0 99.984 44.531 99.984 100.03 0 55.547-44.484 100.03-99.984 100.03-55.547 0-100.03-44.531-100.03-100.03 0-55.547 44.531-100.03 100.03-100.03zm0 25.125c-41.109 0-74.953 33.797-74.953 74.906 0 41.109 33.844 75.094 74.953 75.094s74.906-33.984 74.906-75.094c0-41.109-33.797-74.906-74.906-74.906zm-628.31 50.016h353.34c25.688 0 34.406 11.25 40.781 24.188l11.812 23.625c0.46875 0.9375 0.46875 0.9375 0.98438 1.8281-5.3906 0.09375-8.9531 0.375-16.641 0.375h-348.14c-15.75-17.625-30-34.406-42.094-50.016zm628.31 0c14.109 0 25.078 10.781 25.078 24.891 0 14.109-11.016 25.078-25.078 25.078-14.109 0-24.938-11.016-24.938-25.078 0-14.109 10.828-24.891 24.938-24.891zm201.79 211.22 16.828 33.844c7.3594 14.859 10.828 30.188 9.7969 42.281-1.0312 12.141-5.2031 21-15.703 29.156-10.547 8.1562-20.109 9.75-32.062 7.6875-12-2.0625-26.062-9.0938-38.578-19.922l-25.453-22.078c19.688-13.547 41.297-28.5 41.297-28.5 9.2344-6.7969 20.297-10.406 43.828-42.469zm-15.703 44.016c-6-0.375-11.953 1.5-16.688 5.1562-10.922 8.4844-12.938 24.188-4.4531 35.109 8.4375 10.922 24.141 12.891 35.062 4.4531 10.922-8.4375 12.891-24.141 4.4531-35.062-4.4531-5.7188-11.109-9.2812-18.375-9.6562z"/>
</svg>
