<?xml version="1.0" encoding="UTF-8"?>
<svg width="1200pt" height="1200pt" version="1.1" viewBox="0 0 1200 1200" xmlns="http://www.w3.org/2000/svg">
 <path d="m654.19 0.046875c-4.3594 0.1875-8.625 1.4531-12.375 3.75l-11.906 7.4062c-2.4375-1.4062-5.1094-2.4375-7.875-2.9531-6.4688-1.1719-13.172 0.28125-18.609 4.0312-7.2656 4.9688-11.391 13.406-10.828 22.219l-56.484 35.203c-8.3906-5.2969-19.125-5.0625-27.328 0.46875-7.5 5.2031-11.578 14.109-10.594 23.203l-11.391 7.0781c-11.766 7.3125-15.328 22.781-7.9688 34.5 7.3125 11.766 22.781 15.328 34.5 7.9688l10.406-6.4688 7.3594 10.875c-4.2656 2.8125-9.0938 5.8594-12.797 8.4844-14.625 10.547-26.016 20.719-33.609 34.125-7.5469 13.406-9.5625 28.219-9.5625 42.844v942.32c0.046875 13.734 11.156 24.844 24.891 24.891h74.906c13.828 0.09375 25.078-11.062 25.125-24.891v-942.32c0-19.688 1.6406-31.453 3.8438-37.641 2.25-6.1875 4.0781-8.1094 10.875-13.078 13.641-9.9375 46.875-28.547 99.469-59.953 10.594-7.4062 13.781-21.656 7.3594-32.859l-12.375-21.984c-3.375-5.9062-9.0469-10.172-15.656-11.812-6.7031-1.6875-13.781-0.5625-19.594 3.1406-2.2969 1.4531-3.9375 2.3906-6.1406 3.7969l-7.5938-11.109 8.0625-5.0156c11.719-7.3125 15.281-22.828 7.9219-34.5-3.5625-5.625-9.1875-9.5625-15.656-11.016-2.1094-0.46875-4.2656-0.65625-6.4219-0.65625zm-36.328 77.719 7.5938 11.109c-19.922 12.234-37.172 22.734-51.984 31.734l-7.2656-10.641zm-62.391 113.72c-2.8125 12.422-5.3438 24.516-5.3438 41.297v917.26h-25.078v-917.26c0-10.406 1.125-14.156 3.3281-18.047s7.2656-9.6562 19.172-18.281c1.2188-0.84375 6.5625-4.0312 7.9688-4.9688z"/>
</svg>
