<?xml version="1.0" encoding="UTF-8"?>
<svg width="1200pt" height="1200pt" version="1.1" viewBox="0 0 1200 1200" xmlns="http://www.w3.org/2000/svg">
 <path d="m275.06 162.42c-41.109 0-75.141 34.031-75.141 75.141v187.5h-50.016c-41.109 0-74.906 33.797-74.906 74.906v287.53c0 41.109 33.797 74.906 74.906 74.906h900.05c14.297 0 25.078 10.828 25.078 25.078v24.891c0 14.297-10.828 25.078-25.078 25.078h-850.03v-25.078c-0.046875-13.734-11.156-24.844-24.891-24.891h-74.906c-13.828-0.046875-25.031 11.109-25.078 24.891v100.03c-0.046875 13.875 11.203 25.172 25.078 25.078h74.906c13.828-0.046875 24.938-11.297 24.891-25.078v-24.891h850.03c41.109 0 75.094-34.031 75.094-75.141v-24.891c0-41.109-33.984-75.094-75.094-75.094h-900.05c-14.297 0-24.891-10.641-24.891-24.891v-287.53c0-14.297 10.641-24.891 24.891-24.891h50.016v187.5c0 41.109 34.031 74.906 75.141 74.906h774.89c41.109 0 75.094-33.797 75.094-74.906v-425.02c0-41.109-33.984-75.141-75.094-75.141zm0 50.062h774.89c14.297 0 25.078 10.828 25.078 25.078v425.02c0 14.297-10.828 24.891-25.078 24.891h-774.89c-14.297 0-25.078-10.641-25.078-24.891v-425.02c0-14.297 10.828-25.078 25.078-25.078zm62.344 25.078c-34.219 0-62.344 28.125-62.344 62.344s28.125 62.531 62.344 62.531 62.578-28.312 62.578-62.531-28.359-62.344-62.578-62.344zm112.59 24.891c-13.828 0.046875-24.938 11.297-24.891 25.078v324.98c0.046875 13.734 11.156 24.844 24.891 24.891h575.06c13.734-0.046875 24.844-11.156 24.891-24.891v-324.98c0.046875-13.828-11.109-25.031-24.891-25.078zm-112.59 25.078c7.2188 0 12.562 5.1562 12.562 12.375s-5.3438 12.562-12.562 12.562-12.375-5.3438-12.375-12.562 5.1562-12.375 12.375-12.375zm137.72 24.891h524.86v275.02h-524.86zm-137.72 74.906c-34.219 0-62.344 28.359-62.344 62.578s28.125 62.531 62.344 62.531 62.578-28.312 62.578-62.531-28.359-62.578-62.578-62.578zm0 50.062c7.2188 0 12.562 5.3438 12.562 12.562s-5.3438 12.562-12.562 12.562-12.375-5.3438-12.375-12.562 5.1562-12.562 12.375-12.562zm0 99.984c-34.219 0-62.344 28.359-62.344 62.578s28.125 62.531 62.344 62.531 62.578-28.312 62.578-62.531-28.359-62.578-62.578-62.578zm0 50.062c7.2188 0 12.562 5.3438 12.562 12.562s-5.3438 12.562-12.562 12.562-12.375-5.3438-12.375-12.562 5.1562-12.562 12.375-12.562zm-212.39 350.06h24.891v50.062h-24.891z"/>
</svg>
