<?xml version="1.0" encoding="UTF-8"?>
<svg width="1200pt" height="1200pt" version="1.1" viewBox="0 0 1200 1200" xmlns="http://www.w3.org/2000/svg">
 <path d="m162.56 237.56c-13.828-0.046875-25.078 11.109-25.125 24.891v75.094c0 6.6562 2.6719 13.031 7.3594 17.719 4.7344 4.6406 11.109 7.2656 17.766 7.2656h12.562v50.016h-12.562v-0.046875c-6.7031 0-13.078 2.625-17.812 7.3594-4.6875 4.6875-7.3125 11.109-7.3125 17.766v387.37c0 75.422 62.297 137.48 137.68 137.48h49.828c75.422 0 137.72-62.109 137.72-137.48v-449.9c0-8.9062 3.4219-12.562 12.375-12.562h50.016c8.9062 0 12.562 3.6094 12.562 12.562v449.9c0 75.422 62.109 137.48 137.48 137.48h50.016c75.422 0 137.48-62.109 137.48-137.48v-449.9c0-8.9062 3.6562-12.562 12.562-12.562h50.016c8.9062 0 12.375 3.6094 12.375 12.562v337.5l-0.09375-0.046875c0 6.6562 2.6719 13.031 7.3594 17.719 4.7344 4.6875 11.109 7.2656 17.766 7.2656h12.562v200.06-0.046875c0.046874 13.734 11.156 24.844 24.891 24.938 13.828 0.046875 25.031-11.109 25.125-24.938v-200.06h12.375l-0.046874 0.046875c6.6562 0 13.031-2.625 17.719-7.2656 4.7344-4.6875 7.3594-11.062 7.4062-17.719v-337.5c0-75.422-62.109-137.48-137.48-137.48h-50.016c-75.422 0-137.48 62.109-137.48 137.48v449.9c0 8.9062-3.6094 12.562-12.562 12.562h-50.016c-8.9062 0-12.562-3.6562-12.562-12.562v-449.9c0-75.422-62.109-137.48-137.48-137.48h-50.016c-75.422 0-137.48 62.109-137.48 137.48v449.9c0 8.9062-3.6562 12.562-12.562 12.562h-49.828c-8.9062 0-12.562-3.6562-12.562-12.562v-387.37l0.046874 0.046875c0-6.6562-2.625-13.078-7.3125-17.766-4.7344-4.7344-11.109-7.3594-17.812-7.3594h-12.375v-50.016h12.375v0.046875c6.6562 0 13.031-2.625 17.766-7.2656 4.6875-4.6875 7.3594-11.062 7.3594-17.719v-75.094c-0.046874-13.781-11.297-24.938-25.125-24.891zm24.891 50.016h25.125v24.891h-25.125zm287.53 0h50.016c47.953 0 87.516 39.562 87.516 87.516v449.9c0 33.938 28.641 62.531 62.531 62.531h50.016c33.938 0 62.578-28.641 62.578-62.531v-449.9c0-47.953 39.516-87.516 87.469-87.516h50.016c47.953 0 87.516 39.562 87.516 87.516v312.42h-25.078v-312.42c0-33.938-28.453-62.578-62.391-62.578h-50.016c-33.938 0-62.531 28.688-62.531 62.578v449.9c0 47.953-39.562 87.469-87.516 87.469h-50.016c-47.953 0-87.469-39.516-87.469-87.469v-449.9c0-33.938-28.688-62.578-62.578-62.578h-50.016c-33.938 0-62.344 28.688-62.344 62.578v449.9c0 47.953-39.75 87.469-87.703 87.469h-49.828c-47.953 0-87.703-39.516-87.703-87.469v-362.44h25.125v362.44c0 33.938 28.641 62.531 62.531 62.531h49.828c33.938 0 62.578-28.641 62.578-62.531v-449.9c0-47.953 39.516-87.516 87.469-87.516z"/>
</svg>
