<?xml version="1.0" encoding="UTF-8"?>
<svg width="1200pt" height="1200pt" version="1.1" viewBox="0 0 1200 1200" xmlns="http://www.w3.org/2000/svg">
 <path d="m600.14 106.17c-50.531 0-75.375 0.75-93.609 5.3438-9.0938 2.2969-19.078 6.4219-25.641 16.266-1.9219 2.8594-3.1406 5.6719-3.9844 8.2969-88.922 67.031-146.9 69.891-195.1 116.25-24.844 23.859-42.328 58.125-54.656 111.28s-20.438 126.52-26.578 234.74v0.046876c-0.42188 6.8438 1.9688 13.594 6.6562 18.609 4.6406 5.0156 11.203 7.875 18.047 7.9688l88.969 1.0781c11.531 0.14062 21.703-7.6406 24.562-18.797l3.5156-13.688c19.828 140.02 27 281.72 7.9219 453.61-1.3594 12.844 7.2656 24.609 19.922 27.141 129.74 26.016 329.86 26.016 459.89 0 12.656-2.5312 21.281-14.297 19.922-27.141-19.078-171.89-11.859-313.6 7.9688-453.61l3.4688 13.688c2.8594 11.156 12.984 18.938 24.562 18.797l88.969-1.0781c6.7969-0.14062 13.312-3.0469 17.906-8.0625 4.6406-5.0156 7.0312-11.672 6.6094-18.516-6.0938-108.23-14.062-181.6-26.391-234.74-12.328-53.156-29.812-87.422-54.656-111.28-48.234-46.359-106.22-49.219-195.1-116.25-0.84375-2.625-2.0625-5.4375-3.9844-8.2969-6.5156-9.7969-16.547-13.969-25.641-16.266-18.188-4.5469-43.031-5.3438-93.562-5.3438zm0 50.062c40.406 0 55.172 1.6406 66.422 3.1406-8.9531 17.016-25.547 40.594-66.422 40.594-40.828 0-57.516-23.531-66.469-40.594 11.203-1.4531 26.062-3.1406 66.469-3.1406zm-108.66 31.031c14.859 22.828 41.484 51.938 84 60.281v0.046875c-0.1875 0.79688-0.375 1.5938-0.46875 2.3906v789.74c-62.25-1.0312-123.37-5.625-174-14.25 21.234-213.52 12.375-388.74-26.391-567.89-2.3906-11.391-12.328-19.641-24-19.875-11.625-0.23438-21.891 7.6406-24.75 18.938l-30.609 119.06-41.719-0.375c5.7656-87.609 12.516-158.11 22.312-200.44 11.062-47.859 24.094-70.688 40.594-86.531 30.234-29.109 87.797-38.719 175.03-101.06zm217.08 0.046875c87.281 62.344 144.94 71.953 175.18 101.02 16.453 15.844 29.484 38.672 40.594 86.531 9.7969 42.328 16.547 112.83 22.312 200.44l-41.719 0.375-30.609-119.06 0.046876 0.046875c-2.8125-11.297-13.078-19.172-24.75-18.938-11.625 0.23438-21.609 8.4844-24 19.875-38.766 179.11-47.766 354.32-26.578 567.89-50.719 8.625-111.8 13.219-174 14.25v-789.74c0-0.79688-0.09375-1.5938-0.1875-2.3906 42.375-8.3906 68.953-37.453 83.719-60.234z"/>
</svg>
