<?xml version="1.0" encoding="UTF-8"?>
<svg width="1200pt" height="1200pt" version="1.1" viewBox="0 0 1200 1200" xmlns="http://www.w3.org/2000/svg">
 <path d="m425.21 75c-96.516 0-175.13 78.422-175.13 174.94v699.94c0 96.516 78.609 175.13 175.13 175.13h349.92c96.516 0 174.89-78.609 174.89-175.13v-699.94c0-96.516-78.375-174.94-174.89-174.94zm0 50.016h349.92c69.703 0 124.92 55.266 124.92 124.97v699.94c0 69.703-55.219 125.16-124.92 125.16h-349.92c-69.703 0-125.16-55.453-125.16-125.16v-699.94c0-69.703 55.453-124.97 125.16-124.97zm81.188 24.891c-6.6562-0.046875-13.078 2.5781-17.812 7.3125-4.7344 4.6875-7.3594 11.109-7.3594 17.766 0.046875 6.6562 2.7188 12.984 7.4531 17.672 4.6875 4.6875 11.062 7.2656 17.719 7.2188h187.5c13.734-0.046875 24.844-11.156 24.891-24.891 0.046875-13.781-11.109-25.031-24.891-25.078zm-131.26 75.141c-13.828-0.046875-25.031 11.109-25.078 24.891v600.14c0.046875 13.828 11.25 24.984 25.078 24.891h449.95c13.781 0.09375 25.031-11.062 25.078-24.891v-600.14c-0.046875-13.781-11.297-24.938-25.078-24.891zm24.938 50.016h400.08v549.94h-400.08zm-24.938 624.84c-6.6562-0.046875-13.078 2.5781-17.766 7.3125-4.7344 4.6875-7.3594 11.109-7.3125 17.766v24.891c0 41.109 34.031 75.141 75.141 75.141h101.11v0.046875c6.6562 0 13.078-2.625 17.766-7.3594 4.7344-4.6875 7.3594-11.109 7.3125-17.766v-74.953c0.046875-6.6562-2.5781-13.078-7.3125-17.766-4.6875-4.7344-11.109-7.3594-17.766-7.3125zm298.78 0c-6.6562-0.046875-13.078 2.5781-17.766 7.3125-4.7344 4.6875-7.3594 11.109-7.3594 17.766v74.953c0 6.6562 2.625 13.078 7.3594 17.766 4.6875 4.7344 11.109 7.3594 17.766 7.3594h101.16c41.109 0 75.094-34.031 75.094-75.141v-24.938c0.046876-6.6562-2.5781-13.078-7.3125-17.766-4.6875-4.7344-11.109-7.3594-17.766-7.3125zm-273.84 50.016h101.25v25.125h-76.172c-14.297 0-25.078-10.875-25.078-25.125zm298.78 0h101.3c0 14.297-10.828 25.125-25.078 25.125h-76.219z"/>
</svg>
