<?xml version="1.0" encoding="UTF-8"?>
<svg width="1200pt" height="1200pt" version="1.1" viewBox="0 0 1200 1200" xmlns="http://www.w3.org/2000/svg">
 <path d="m349.92 387.47c-80.578 0-139.74 29.391-192.66 82.312l-74.906 75.094c-24.703 24.703-44.531 44.109-59.25 66.094-14.672 21.984-23.109 47.297-23.109 76.547v50.016c0 41.109 33.844 74.953 74.953 74.953h1050c41.109 0 74.953-33.844 74.953-74.953v-174.94c0-54.188-13.969-99.375-44.859-130.26-30.891-30.891-75.891-44.859-130.08-44.859zm0 50.062h675.1c45.844 0 75.703 11.156 94.828 30.281s30.141 48.984 30.141 94.828v24.891l-487.4 0.046875c-80.578 0-139.92 29.344-192.89 82.266l-74.906 75.094c-6.5156 6.5156-11.719 11.953-17.156 17.531h-302.68c-14.297 0-24.891-10.641-24.891-24.891v-50.016c0-20.719 4.3125-33.281 14.766-48.938 10.453-15.656 28.078-33.797 52.781-58.5l75.094-74.906c47.062-47.062 87.797-67.734 157.22-67.734zm-150.05 150.05c-41.109 0-74.906 33.984-74.906 75.094s33.797 74.906 74.906 74.906 75.141-33.797 75.141-74.906-34.031-75.094-75.141-75.094zm462.71 49.969h487.4v100.03c0 14.297-10.688 24.891-24.938 24.891h-677.06l57.188-57.234c47.062-47.062 87.984-67.734 157.4-67.734zm-462.71 0.046875c14.109 0 25.125 11.016 25.125 25.078 0 14.109-11.062 24.891-25.125 24.891-14.109 0-24.891-10.781-24.891-24.891s10.781-25.078 24.891-25.078z"/>
</svg>
