<?xml version="1.0" encoding="UTF-8"?>
<svg width="1200pt" height="1200pt" version="1.1" viewBox="0 0 1200 1200" xmlns="http://www.w3.org/2000/svg">
 <path d="m874.97 193.82c-34.172 0.046875-62.297 28.219-62.344 62.391v112.36h-725.26c-34.312 0.046875-62.578 28.641-62.391 62.953 0.09375 34.078 28.312 62.344 62.391 62.391h36.469l428.53 430.74c3.5156 44.906 39.375 81.609 85.125 81.609 48.047 0 87.469-39.469 87.469-87.516 0-6.8438-2.0625-13.312-3.6562-19.922l98.156-305.06h207.42c15.094 17.016 41.016 25.078 60.562 25.125h0.1875c48.047 0 87.516-39.656 87.516-87.703s-39.469-87.469-87.516-87.469h-0.1875c-19.594 0.046875-44.438 7.5938-60.75 25.078h-131.58c23.812-18.938 42.281-49.031 42.281-87.516v-125.11c-0.046876-34.172-28.172-62.344-62.344-62.391zm0 0c-1.3594-0.046875-2.7188 0-4.0312 0.1875v0.1875zm0 50.016v0.046875c7.1719 0 12.562 5.1562 12.562 12.375v125.11c0 31.969-25.453 59.156-56.625 62.203-9.8438 1.0312-18.188 7.7344-21.234 17.156l-8.2969 25.5c-5.0156 16.078 6.9844 32.438 23.812 32.484h212.58c7.8281 0 15.188-3.7031 19.922-9.9844 7.0781-9.4219 18.094-14.906 29.906-14.953 21 0 37.453 16.453 37.453 37.453s-16.453 37.641-37.453 37.641c-11.766-0.046875-22.828-5.5312-29.906-14.953-4.6875-6.3281-12.047-10.078-19.922-10.172h-236.63c-10.875 0-20.438 7.0312-23.766 17.391l-105.38 327.74c-1.6875 5.4375-1.5469 11.297 0.5625 16.594 1.6406 4.2656 2.3906 8.7188 2.3906 13.266 0 21-16.453 37.453-37.453 37.453s-37.453-16.453-37.453-37.453c0-0.75 0-1.6875 0.1875-3.1406 1.0781-7.7344-1.5469-15.516-7.0312-21.047l-441.05-443.26c-4.6875-4.7344-11.062-7.3594-17.719-7.3594h-47.016c-7.1719 0-12.328-5.3438-12.375-12.562v-0.1875c-0.046875-7.2188 5.1094-12.562 12.375-12.562h737.58c9.0469 0 19.172-3.1406 26.578-10.359s11.062-17.672 11.062-26.953v-125.11c0-7.1719 5.1562-12.375 12.375-12.422zm-524.86 200.06-109.83 0.046875c-22.031 0.1875-33.094 26.672-17.719 42.422l385.36 388.82c6 6 14.625 8.5781 22.922 6.8438 1.3594-0.28125 2.1562-0.375 2.3906-0.375 9.5156-1.3594 17.391-8.0156 20.297-17.156l124.55-388.08c5.0625-16.078-6.9844-32.484-23.812-32.531h-66.797c-13.734 0.046874-24.844 11.203-24.891 24.938 0 7.1719-5.3438 12.562-12.562 12.562-7.1719 0-12.328-5.3438-12.375-12.562-0.046875-13.828-11.297-24.984-25.078-24.938h-62.578c-13.828-0.046876-25.031 11.156-25.078 24.938 0 7.1719-5.1562 12.562-12.375 12.562-7.1719 0-12.328-5.3438-12.375-12.562-0.046875-13.828-11.297-24.984-25.078-24.938h-50.016c-13.828-0.046876-25.031 11.156-25.078 24.938 0 7.125-5.4375 12.281-12.562 12.375-7.0312-0.1875-12.375-5.25-12.422-12.375-0.046875-13.734-11.156-24.891-24.891-24.938zm-49.828 50.062h30.094c12.188 26.812 35.344 37.266 57.141 37.266s45.656-10.641 57.188-37.266h11.016c10.828 26.812 36.328 37.219 56.766 37.266 20.484-0.046875 44.859-10.359 57.375-37.266h23.344c6.75 18.703 28.5 37.266 56.766 37.266s48.609-16.922 57.094-37.266h13.031l-102.8 319.82zm787.18 12.375c-13.828 0-24.984 11.203-24.984 24.984 0 13.828 11.203 24.984 24.984 24.984 13.828 0 24.984-11.203 24.984-24.984 0-13.828-11.203-24.984-24.984-24.984zm-450 387.52c-13.828 0-24.984 11.203-24.984 24.984 0 13.828 11.203 24.984 24.984 24.984 13.828 0 24.984-11.203 24.984-24.984 0-13.828-11.203-24.984-24.984-24.984z"/>
</svg>
