<?xml version="1.0" encoding="UTF-8"?>
<svg width="1200pt" height="1200pt" version="1.1" viewBox="0 0 1200 1200" xmlns="http://www.w3.org/2000/svg">
 <path d="m1087.8 231.71c-11.906-1.0781-23.297 6.5156-26.484 18.562 0 0-5.25 20.531-30.422 49.594-25.172 29.109-69.469 64.359-148.92 85.641-45 12.047-91.969 0.46875-140.44-13.875s-98.109-32.766-148.78-19.172c-12.188 3.2812-26.578 8.3906-37.828 12.516-1.0781-0.9375-2.1562-1.8281-3.3281-2.6719-13.922-10.266-34.922-15-56.438-9.2344h-0.375l-296.76 82.969c-3.2812-10.406-12.891-17.438-23.766-17.484-13.875-0.046875-25.172 11.203-25.078 25.078h-74.906c-13.734 0.046875-24.891 11.203-24.891 24.938v74.906c-0.046875 13.828 11.109 25.031 24.891 25.078h74.906c0.046875 13.828 11.297 24.938 25.078 24.891 13.547-0.09375 24.516-10.875 24.844-24.422 68.672 2.25 118.22 13.828 153.24 31.266 39.094 19.453 61.078 45.328 75.469 78.281 28.875 65.906 21.422 163.45 21.422 264.98 0.046876 13.828 11.297 24.938 25.078 24.891h124.97c13.734-0.046875 24.844-11.156 24.891-24.891 0-99.984 0.1875-156.32 3.1406-191.76 2.9531-35.438 7.4531-48.656 19.172-72.188 2.7656-5.4844 3.4219-11.766 1.875-17.672l-0.5625-1.9688c-15.609-59.062-16.359-96.703-10.359-116.53 6.0938-20.109 15.375-26.344 36.703-32.062 42.703-11.484 126.56 0.84375 213.14-13.266 83.766-13.641 166.45-60.141 217.03-111.14 25.312-25.5 44.062-51.938 46.125-82.688 1.0312-15.375-3.7031-32.016-14.203-44.672s-25.406-21.328-43.359-26.906v-0.046874c-1.6875-0.5625-3.4219-0.84375-5.1094-0.98438zm6.1875 57.844c0.75 0.65625 3.4219 1.4531 3.8906 2.0156 2.4375 2.9531 3.0469 4.5 2.7188 9.2344-0.65625 9.4219-10.969 30.188-31.734 51.141-41.531 41.859-119.16 85.406-189.71 96.891-75.938 12.375-155.02-2.7656-217.97 14.203-21.938 5.9062-42.797 18.328-57.094 37.359l-24.797-90.938c9.6562-3.375 20.203-6.9375 26.344-8.5781 30.094-8.0625 72.047 4.125 121.6 18.797 49.547 14.672 106.83 30.469 167.58 14.203 88.406-23.672 142.55-64.922 173.86-101.11 19.453-22.453 19.688-30.188 25.266-43.172zm-580.26 110.67c4.5938-0.46875 6.3281 0.65625 8.3906 2.25 2.7188 2.0156 5.4375 6.7969 6.0469 9.2344l70.312 257.63c-10.266 22.734-18.188 44.109-21.047 78.422-2.8594 34.5-2.9062 92.906-2.9062 170.72h-77.484c1.3594-90.281 10.125-183.32-23.438-260.02-18.422-42.047-50.156-78.703-98.906-102.98-43.969-21.891-101.16-34.219-175.55-36.469v-31.453l314.63-87.328zm-414.42 93.422h49.828v24.891h-49.828zm436.64 174.89c-13.828 0-24.984 11.203-24.984 24.984 0 13.828 11.203 24.984 24.984 24.984 13.828 0 24.984-11.203 24.984-24.984 0-13.828-11.203-24.984-24.984-24.984z"/>
</svg>
