<?xml version="1.0" encoding="UTF-8"?>
<svg width="1200pt" height="1200pt" version="1.1" viewBox="0 0 1200 1200" xmlns="http://www.w3.org/2000/svg">
 <path d="m124.82 228.19c-13.734 0.046875-24.891 11.156-24.938 24.891v550.13c0 93 75.703 168.66 168.71 168.66h56.625c13.828-0.046875 24.984-11.25 24.938-25.078v-78.797c-0.046875-13.734-11.203-24.891-24.938-24.891h-60.328c-22.547 0-40.031-17.297-40.031-39.844v-100.03h425.39c13.828-0.046875 24.938-11.297 24.891-25.078v-24.891h150.04v150.05c0 22.547-17.297 39.844-39.844 39.844h-60.328c-13.828-0.046875-25.031 11.109-25.078 24.891v78.797c-0.046876 13.875 11.203 25.172 25.078 25.078h56.438c93 0 168.71-75.609 168.71-168.66v-275.21h25.078c-0.046875 13.828 11.109 25.078 24.891 25.125h75.094c13.828-0.046875 24.984-11.344 24.938-25.125v-124.92c-0.046875-13.734-11.203-24.844-24.938-24.891h-75.094c-13.734 0.046875-24.844 11.156-24.891 24.891h-25.125v-150.05c-0.046875-13.734-11.156-24.844-24.891-24.891h-75.141c-13.734 0.046875-24.844 11.156-24.891 24.891v23.625h-150.04v-23.625c-0.046875-13.734-11.156-24.844-24.891-24.891zm25.078 50.016h25.312c0.09375 175.03-0.375 350.02-0.375 525.05 0 49.406 40.641 89.859 90.047 89.859h35.25v28.828h-31.547c-66.188 0-118.64-52.453-118.64-118.64v-125.16zm75.281 0h399.89v375h-400.08zm649.97 0h24.891v525.05c0 66.188-52.453 118.64-118.64 118.64h-31.547v-28.828h35.438c49.406 0 89.859-40.453 89.859-89.859zm-200.06 48.516h150.04v26.438h-150.04zm-187.5 1.4531c-34.219 0-62.344 28.172-62.344 62.391s28.125 62.531 62.344 62.531 62.578-28.312 62.578-62.531-28.359-62.391-62.578-62.391zm0 50.062c7.2188 0 12.562 5.1562 12.562 12.375s-5.3438 12.562-12.562 12.562-12.562-5.3438-12.562-12.562 5.3438-12.375 12.562-12.375zm187.5 24.891h150.04v125.02h-150.04zm350.11 25.078h24.891v74.906h-24.891c0.046875-13.875-11.203-25.172-25.078-25.078h-50.016v-24.891h50.016c13.828 0.046875 25.031-11.109 25.078-24.891zm-350.11 149.9h150.04v25.031h-150.04z"/>
</svg>
