<?xml version="1.0" encoding="UTF-8"?>
<svg width="1200pt" height="1200pt" version="1.1" viewBox="0 0 1200 1200" xmlns="http://www.w3.org/2000/svg">
 <path d="m600 80.016c-67.312 0-129.05 7.7812-176.81 21.047-23.906 6.6562-44.297 14.531-60.891 24.703s-30.844 22.875-35.766 42.516c-1.5469 5.8125-1.5 8.2969-1.5 11.812v99.984c0 8.8594 4.6875 17.109 12.375 21.562l12.562 7.4062v721.03c0 18.281 11.109 32.766 23.625 42.609 12.516 9.8906 27.938 17.109 46.266 23.438 36.75 12.75 85.453 21.094 141.37 23.859 14.25 0.65625 26.203-10.688 26.203-24.984v-124.03c4.1719-0.09375 8.3438-0.14062 12.562-0.14062s8.3906 0.046875 12.562 0.14062v124.03c0 14.297 11.953 25.594 26.203 24.938 55.922-2.7656 104.44-11.062 141.19-23.812 18.328-6.3281 33.938-13.547 46.453-23.438 12.562-9.8438 23.625-24.281 23.625-42.609v-721.03l12.562-7.4062c7.6875-4.4531 12.375-12.656 12.375-21.562v-100.03c0-3.4688-0.65625-6.8438-2.0156-9.9844-0.09375-0.65625 0.70312-1.0312 0.51562-1.6406-4.9219-19.594-19.172-32.484-35.766-42.656s-37.219-18.047-61.078-24.703c-47.766-13.266-109.31-21.047-176.63-21.047zm0 50.016c63.469 0 121.6 7.5938 163.31 19.172 20.859 5.8125 37.547 12.703 48.141 19.219 10.641 6.4688 13.5 12.234 13.5 12.188s1.7344-1.2656-3.6562 3.8438-17.438 12.375-34.547 18.797c-34.172 12.891-87.75 23.203-150.42 26.062-13.312 0.65625-23.766 11.625-23.766 24.938v666.66c-4.1719-0.09375-8.3438-0.09375-12.562-0.09375v0.046875c-4.2188 0-8.3906 0-12.562 0.09375v-666.71c0-13.312-10.453-24.281-23.766-24.891-62.672-2.8594-116.25-13.172-150.42-26.016-17.109-6.4688-29.156-13.781-34.547-18.891-5.1094-4.8281-3.75-3.75-3.6562-3.6562v-0.375c0.09375-0.09375 3-5.625 13.5-12 10.594-6.5156 27.281-13.406 48.141-19.219 41.719-11.578 99.844-19.172 163.31-19.172zm-224.95 108.33c7.1719 3.7031 12.141 8.6719 20.531 11.812 35.812 13.547 87.234 20.391 141.89 24.75v790.78c-38.953-3.75-77.344-8.5312-101.16-16.781-14.953-5.2031-26.016-11.016-31.734-15.516-3.9375-3.0938-4.5938-4.4531-4.6406-4.3125v-734.26c0-8.9062-4.6875-17.109-12.328-21.609l-12.562-7.5469zm449.9 0v27.328l-12.703 7.5469c-7.5938 4.5469-12.234 12.75-12.188 21.609v734.29c-0.14062 0.09375-0.9375 1.3594-4.5938 4.2656-5.7188 4.5-16.781 10.312-31.734 15.516-23.766 8.25-62.297 13.031-101.16 16.781l-0.1875-790.78c54.656-4.3594 106.08-11.203 141.89-24.75 8.4375-3.1406 13.5-8.1094 20.672-11.812z"/>
</svg>
