<?xml version="1.0" encoding="UTF-8"?>
<svg width="1200pt" height="1200pt" version="1.1" viewBox="0 0 1200 1200" xmlns="http://www.w3.org/2000/svg">
 <path d="m590.58 138.28c-229.22 2.625-397.87 153.79-434.16 349.36-0.09375 0.375-0.09375 0.75-0.1875 1.0781-1.7344 12.281-1.0312 24.516 4.4062 35.25 5.4375 10.734 14.297 17.203 21.234 21.234 13.922 8.1094 23.625 10.828 34.312 21.375 11.062 10.922 18.047 24.516 25.5 38.25 3.7031 6.8438 7.4062 13.922 13.828 21.047s18.094 14.531 30.984 14.531h7.5938l133.55 242.44c1.7812 32.766 16.594 65.719 38.25 95.297 23.062 31.547 54.469 59.25 91.688 73.828 37.219 14.578 81.75 14.484 120.89-10.875 37.734-24.422 69.422-69.422 93.609-139.64l151.92-109.36c2.1094 0.1875 4.2656 0.375 6.375 0.46875 10.969 0.375 22.219-0.98438 33.375-5.5781 11.203-4.5938 23.297-13.594 28.828-28.031 0.046876-0.046875 0.09375-0.09375 0.1875-0.1875 71.25-193.36 68.062-346.82-2.25-453.79-70.312-107.02-204-161.21-377.58-166.45-7.5-0.1875-14.953-0.28125-22.359-0.1875zm0.84375 50.016c6.6094-0.046875 13.266 0 20.016 0.1875h0.046875c164.06 4.9688 278.53 54.75 337.18 143.95 58.5 88.969 65.156 223.5-2.4844 407.76-0.09375-0.046874-0.375 0.046876-1.4062 0.46875-2.625 1.0781-7.7812 2.2031-12.75 2.0625-3.0469-0.09375-4.5469-0.75-6.6562-1.3125v-68.672c0-25.031-11.578-45.328-24.516-58.641-6.4688-6.6562-13.359-11.672-20.297-15.516-6.9844-3.8438-13.172-7.1719-23.812-7.1719h-29.672c-23.906 0-40.5 13.5-50.906 21.938-10.406 8.3906-14.812 10.875-16.969 10.875h-32.859c-0.46875 0-6.7969-1.9688-16.219-10.875s-20.906-22.734-33.422-37.781c-25.031-30.141-54.234-67.172-99.328-77.156-117.75-26.062-240.84-18.375-369.1-8.8594 4.7344-22.969 11.578-45.141 20.156-66.422 1.3594 0.1875 2.6719 0.375 4.0312 0.375h25.078c13.734-0.046874 24.844-11.156 24.891-24.891 0.046875-13.828-11.109-25.031-24.891-25.078h-4.5938c64.406-109.17 183.84-183.56 338.48-185.11zm-165.24 185.11c-13.828 0.046875-24.938 11.297-24.891 25.078 0.046875 13.734 11.156 24.844 24.891 24.891h79.922c13.828 0.046875 25.031-11.109 25.078-24.891 0.046875-13.875-11.203-25.172-25.078-25.078zm-8.7656 159.74c51.844-0.046876 101.86 3.4219 149.21 13.922 21.188 4.6875 47.156 30.844 71.625 60.328 12.234 14.766 24.188 29.719 37.453 42.234 13.219 12.516 28.875 24.469 50.391 24.562v39.516h-98.719c-30.375 0-50.906-19.266-58.875-33.609l-34.125-61.219s-28.641-55.547-92.109-55.547h-52.406c-21.281 0-35.625 11.578-44.859 18.469-9.2812 6.8906-13.594 8.6719-13.641 8.6719h-39.891c-1.1719-1.6406-3.0938-4.2188-5.9062-9.4219-5.4844-10.078-15.656-25.875-28.031-40.781v-0.046876c54.422-3.4688 108-7.0312 159.84-7.0781zm-27.516 80.156h52.406c30.938 0 44.062 20.438 47.812 28.547l34.875 62.578c1.6875 3.0938 3.75 6.1406 5.9062 9.2344l-76.219 114.42-105.14-190.87c11.156-3.9375 19.312-10.781 25.406-15.281 8.9531-6.6562 13.406-8.625 15-8.625zm437.16 28.031h26.859c0.1875 0.09375 1.3125 0.28125 2.4844 0.98437 2.3438 1.3125 5.6719 3.5625 8.6719 6.6562 6 6.1875 10.312 14.203 10.312 23.766v40.969h-99.281v-42.141c14.062-4.4062 24.094-13.453 31.406-19.359 9.9375-8.0156 14.625-10.875 19.547-10.875zm119.02 99.234c-0.046875 0.1875-0.09375 0.28125-0.1875 0.46875 0.09375-0.28125-0.28125 0.1875-0.1875 0 0.1875-0.1875 0.1875-0.28125 0.28125-0.46875zm-377.72 7.2188c16.359 9.5156 36.094 15.938 59.062 15.938h98.719v117.8c-22.125 65.812-49.641 101.44-74.766 117.7-25.594 16.594-49.781 16.312-75.469 6.2344-25.688-10.078-51.234-31.594-69.516-56.625-16.125-22.078-26.203-46.828-28.359-65.438zm207.79 15.938h101.81l-101.81 73.312z"/>
</svg>
