<?xml version="1.0" encoding="UTF-8"?>
<svg width="1200pt" height="1200pt" version="1.1" viewBox="0 0 1200 1200" xmlns="http://www.w3.org/2000/svg">
 <path d="m600.1 109.5c-80.906 0-154.18 10.125-209.29 27.656-27.562 8.7188-50.719 19.078-68.672 32.531-17.953 13.453-32.344 32.016-32.344 55.172 0 2.5781 0.1875 5.1094 0.5625 7.5938-56.672 33.094-90.141 76.359-90.328 123.56-0.046876 0.09375-0.046876 0.28125-0.09375 0.375v129.32c0 39.938 23.812 75.609 60 103.73 11.531 8.9531 24.562 17.25 38.719 24.984-12.094 9.8906-22.219 20.531-30.094 32.016-11.766 17.203-18.281 36.797-18.516 56.391-0.046874 0.1875-0.046874 0.28125-0.09375 0.46875 0 43.359-35.062 56.812-35.062 56.812-9.0938 3.9844-15 12.984-15 22.922v114.19c0 39.938 23.812 75.797 60 103.92 36.188 28.078 85.922 50.25 146.34 65.859 120.84 31.266 266.72 31.266 387.56 0 60.422-15.656 110.16-37.781 146.34-65.859 36.188-28.078 59.812-63.938 59.812-103.92v-114.19c0-9.9375-5.8594-18.891-14.953-22.922 0 0-35.109-13.5-35.109-56.812-0.1875-19.875-6.7969-39.797-18.797-57.234-7.8281-11.344-17.766-21.844-29.672-31.641 14.156-7.7344 27.188-16.078 38.719-24.984 36.188-28.078 59.812-63.75 59.812-103.73v-129.32c0-0.1875-0.046875-0.28125-0.046875-0.46875-0.1875-47.25-33.516-90.562-90.234-123.71 0.375-2.4375 0.5625-4.9219 0.5625-7.4531 0-23.156-14.531-41.719-32.484-55.172s-40.969-23.766-68.484-32.531c-55.125-17.484-128.29-27.656-209.26-27.656zm0 49.828c76.641 0 146.02 10.219 194.16 25.5 24.047 7.6406 42.703 16.688 53.672 24.891 10.922 8.2031 12.422 13.266 12.422 15.141s-1.4531 7.0781-12.422 15.281c-10.922 8.2031-29.578 17.297-53.672 24.938-48.141 15.281-117.52 25.453-194.16 25.453-76.641 0-146.06-10.172-194.21-25.453-24.047-7.6406-42.703-16.734-53.672-24.938-10.922-8.2031-12.422-13.453-12.422-15.281 0-1.875 1.4531-6.9375 12.422-15.141 10.922-8.2031 29.578-17.25 53.672-24.891 48.141-15.281 117.56-25.5 194.21-25.5zm-0.046875 39.75c-45.047 0-81.516 11.578-81.516 25.875 0.046875 14.25 36.516 25.828 81.516 25.828 44.953 0 81.422-11.578 81.516-25.828 0.046875-14.297-36.469-25.875-81.516-25.875zm283.97 76.078c47.719 27.422 65.953 56.344 65.906 81.234v0.42188c0 1.3594-0.046875 2.6719-0.1875 3.9844-2.4844 28.266-31.594 64.359-99.844 93.75v0.1875c-136.5 58.781-364.03 58.688-500.29-0.1875-68.109-29.438-97.078-65.672-99.469-93.891-2.1562-25.734 15.562-56.484 65.859-85.406 1.9688 1.6875 4.0312 3.375 6.0938 4.9219 4.9688 3.7031 10.359 7.1719 16.125 10.453-7.4531 4.2656-14.203 8.8125-20.203 13.734-16.969 13.922-29.203 32.953-28.219 54.422 0.98438 21.516 14.484 39.375 32.344 52.781 17.812 13.406 41.297 24.141 71.203 33.422 119.53 37.031 299.53 36.75 417.28-1.0781 29.438-9.4688 52.453-20.438 69.797-34.172s30.094-32.344 29.906-53.859-13.172-39.75-30.656-53.391c-5.3906-4.2188-11.391-8.1562-17.906-11.859 5.7188-3.2812 11.156-6.75 16.125-10.453 2.1094-1.5938 4.1719-3.3281 6.1875-5.0625zm-479.68 41.438c47.297 13.359 106.03 21.656 170.76 23.391-0.46875 16.031-0.1875 32.156-0.1875 48.188-0.046875 13.922 11.25 25.172 25.125 25.078 13.828-0.046875 24.938-11.297 24.891-25.078 0.046875-16.078 0-32.156-0.09375-48.188 64.688-1.6875 123.37-10.031 170.72-23.344 25.125 8.1094 43.031 17.484 53.203 25.406 10.359 8.0625 11.438 12.844 11.484 14.391 0 1.5469-0.75 6-10.875 14.016s-28.406 17.578-54.094 25.828c-102.8 33-282.19 33.422-387.14 0.9375-26.25-8.1562-45.094-17.484-55.922-25.641s-12.328-13.359-12.422-14.953 0.28125-5.7656 9.9844-13.688c16.078-12.703 35.578-19.266 54.562-26.344zm-154.36 135.61c20.953 18.141 47.859 34.359 79.875 48.188 153.89 66.469 385.69 66.516 539.81 0.1875 32.203-13.875 59.25-30.047 80.25-48.234v33.516c0 20.109-11.812 42.047-40.359 64.219s-72.656 42.656-128.26 57.047c-111.19 28.781-251.26 28.781-362.44 0-55.594-14.391-99.703-34.875-128.26-57.047s-40.594-44.109-40.594-64.219zm101.48 186.14c5.8594 2.2031 11.812 4.3125 17.906 6.3281-9.1406 5.5312-17.25 11.625-23.953 18.656-10.5 10.969-24 25.641-23.391 41.906 0.65625 16.219 15.188 30.75 26.906 41.719 23.391 21.891 58.312 34.828 101.67 44.672s95.156 15.328 149.86 15.281c54.703-0.046874 106.36-5.5781 149.68-15.469 43.316-9.8906 78.234-22.922 101.53-44.859 11.625-10.969 25.969-25.453 26.438-41.719 0.84375-28.266-27.375-48.141-47.25-60.141 6.0938-2.0156 12.047-4.1719 17.859-6.3281 19.875 12.094 33.375 24.703 41.297 36.234 11.203 16.266 10.828 28.828 9.5625 35.062-3.4688 22.406-29.391 52.781-87.516 77.109-116.2 48.656-307.4 48.75-423.89 0.1875-58.219-24.281-84.141-54.703-87.703-77.156-1.7812-11.203 0.46875-22.031 9.4219-35.062 7.9219-11.578 21.469-24.234 41.484-36.422zm102 27.656c94.312 17.391 198.98 17.391 293.26 0 38.062 9.5625 63.375 23.109 71.672 31.688 4.7344 4.875 3.5625 7.875-1.125 12.562-10.5 9.9375-39.656 23.625-78.422 32.484-38.719 8.8594-87.094 14.203-138.42 14.203s-99.938-5.2031-138.74-14.016c-38.809-8.8125-67.922-22.5-78.609-32.484-4.5-4.5-5.8125-8.0156-1.4531-12.562 8.2031-8.5781 33.562-22.266 71.859-31.875zm-176.53 105.56c20.578 24.281 52.172 44.906 92.109 61.594 133.4 55.641 329.26 55.547 462.47-0.1875 39.656-16.594 71.016-37.125 91.547-61.312 9.1406 10.922 19.078 18.328 26.625 23.156-1.5469 18.938-13.5 39.328-40.078 59.953-28.547 22.172-72.656 42.844-128.26 57.234-111.19 28.781-251.26 28.781-362.44 0-55.594-14.391-99.703-35.062-128.26-57.234-26.578-20.625-38.719-41.016-40.266-59.953 7.5469-4.8281 17.531-12.234 26.672-23.203zm-26.953 114.33c3.2344 2.8125 6.4688 5.6719 9.9844 8.3438 36.188 28.078 85.922 50.438 146.34 66.047 120.84 31.266 266.72 31.266 387.56 0 60.422-15.656 110.16-37.969 146.34-66.047 3.4219-2.625 6.6094-5.4375 9.75-8.2031v11.344c0 20.109-11.812 42.234-40.359 64.406-28.547 22.172-72.656 42.656-128.26 57.047-111.19 28.781-251.26 28.781-362.44 0-55.594-14.391-99.703-34.875-128.26-57.047-28.547-22.172-40.594-44.297-40.594-64.406z"/>
</svg>
