<?xml version="1.0" encoding="UTF-8"?>
<svg width="1200pt" height="1200pt" version="1.1" viewBox="0 0 1200 1200" xmlns="http://www.w3.org/2000/svg">
 <path d="m199.87 100.08c-13.734 0.046875-24.844 11.156-24.891 24.891v74.906c-0.046875 13.828 11.109 25.078 24.891 25.125h25.125v250.03c0.046875 13.734 11.156 24.844 24.891 24.891h50.016v24.891h-124.97c-14.297 0-25.078-10.641-25.078-24.891v-112.59h25.078c13.734-0.046875 24.844-11.156 24.891-24.891v-74.906c0.046875-13.828-11.109-25.031-24.891-25.078h-99.984c-13.828 0.046875-24.938 11.297-24.891 25.078v74.906c0.046875 13.734 11.156 24.844 24.891 24.891h25.078v112.59c0 41.109 33.797 74.906 74.906 74.906h124.97v50.062h-124.97c-41.109 0-74.906 33.797-74.906 74.906v125.16h-25.078c-13.734 0.046875-24.844 11.156-24.891 24.891v74.906c-0.046875 13.828 11.109 25.031 24.891 25.078h99.984c13.828-0.046875 24.938-11.297 24.891-25.078v-74.906c-0.046875-13.734-11.156-24.844-24.891-24.891h-25.078v-125.16c0-14.297 10.828-24.891 25.078-24.891h124.97v24.891h-50.016c-13.828 0.046875-24.938 11.297-24.891 25.078v249.84h-25.125c-13.828 0.046875-24.938 11.344-24.891 25.125v74.906c-0.046875 13.828 11.109 25.031 24.891 25.078h100.03c13.875 0.046875 25.172-11.203 25.078-25.078v-74.906c0.046875-13.875-11.203-25.219-25.078-25.125h-24.891v-224.95h24.891v100.03c-0.046875 13.875 11.203 25.172 25.078 25.078h799.87c13.875 0.046875 25.172-11.203 25.078-25.078v-474.84c0.046874-13.875-11.203-25.172-25.078-25.078h-799.87c-13.875-0.046875-25.172 11.203-25.078 25.078v74.953h-24.891v-224.95h24.891c13.875 0.046875 25.172-11.25 25.078-25.125v-74.906c-0.046875-13.828-11.297-24.938-25.078-24.891zm25.125 49.828h50.016v25.078h-50.016zm-124.97 162.61h49.828v24.891h-49.828zm249.84 87.516h750.05v25.078h-750.05zm0 75.094h750.05v24.891h-750.05zm0 74.906h750.05v24.891h-750.05zm0 74.953h750.05v200.06h-750.05zm-249.84 250.03h49.828v24.891h-49.828zm124.97 149.86h50.016v25.078h-50.016z"/>
</svg>
