<?xml version="1.0" encoding="UTF-8"?>
<svg width="1200pt" height="1200pt" version="1.1" viewBox="0 0 1200 1200" xmlns="http://www.w3.org/2000/svg">
 <path d="m419.34 49.453c-6.6562 0-12.984 2.625-17.672 7.3125s-7.3594 11.062-7.3594 17.672v25.031c0 6.6094 2.6719 12.984 7.3594 17.672s11.016 7.3125 17.672 7.3125c8.8594-0.046875 17.062-4.7812 21.516-12.516h1.2188c7.9688 0 13.641 5.6719 13.641 13.641v999.98c0 13.828 11.203 24.984 24.984 24.984 13.828 0 24.984-11.203 24.984-24.984v-999.98c0-34.828-28.828-63.609-63.609-63.609h-1.125c-4.4531-7.7344-12.703-12.516-21.609-12.516zm150 0c-6.6562 0-12.984 2.625-17.672 7.3125s-7.3594 11.062-7.3594 17.672v25.031c0 6.6094 2.6719 12.984 7.3594 17.672s11.016 7.3125 17.672 7.3125c8.8594-0.046875 17.062-4.7812 21.516-12.516h1.2188c7.9688 0 13.641 5.6719 13.641 13.641v999.98c0 13.828 11.203 24.984 24.984 24.984 13.828 0 24.984-11.203 24.984-24.984v-999.98c0-34.828-28.828-63.609-63.609-63.609h-1.125c-4.4531-7.7344-12.703-12.516-21.609-12.516zm150 0c-6.6562 0-12.984 2.625-17.672 7.3125s-7.3594 11.062-7.3594 17.672v25.031c0 6.6094 2.6719 12.984 7.3594 17.672s11.016 7.3125 17.672 7.3125c8.8594-0.046875 17.062-4.7812 21.516-12.516h1.2188c7.9688 0 13.641 5.6719 13.641 13.641v999.98c0 13.828 11.203 24.984 24.984 24.984 13.828 0 24.984-11.203 24.984-24.984v-999.98c0-34.828-28.828-63.609-63.609-63.609h-1.125c-4.4531-7.7344-12.703-12.516-21.609-12.516z"/>
</svg>
