<?xml version="1.0" encoding="UTF-8"?>
<svg width="1200pt" height="1200pt" version="1.1" viewBox="0 0 1200 1200" xmlns="http://www.w3.org/2000/svg">
 <path d="m376.13 250.26c-8.9062 0-17.203 4.7812-21.609 12.562l-6.2344 10.875-21.609-12.562c-11.906-6.8906-27.188-2.8594-34.125 9.0469-6.8906 12-2.7656 27.281 9.2344 34.172l17.25 10.031c-2.3438 1.2188-4.9688 2.4375-8.0156 3.4688-10.359 3.5156-23.297 5.1094-32.297 5.1094h-1.4531c-84 4.5938-159.52 51.891-202.5 124.4-44.812 75.609-39.844 177.1-6.2344 239.02 4.3594 8.0625 9.6562 20.109 11.812 30.844 0.5625 3.0469 0.9375 5.8594 1.0312 8.4375l-17.109-9.9844c-11.953-6.8906-27.234-2.7188-34.125 9.2344-6.9375 11.953-2.9062 27.234 9.0469 34.172l21.562 12.562 0.046875 0.046874-6.1406 10.641c-6.8906 11.906-2.8594 27.188 9.0469 34.125l64.828 37.547c0.046875 0.046876 0.09375 0.046876 0.1875 0.09375 0.046875 0 0.09375 0.046876 0.1875 0.046876l62.391 36.141c24.562 14.203 52.547 12.656 79.547 7.3594 27-5.2969 54.75-15.094 81.75-24.562 26.953-9.4688 53.203-18.469 74.766-22.688s36.797-2.9062 44.672 1.6406l120.52 69.562h0.1875c25.359 14.344 55.031 27.562 101.48 27.562l350.11 0.5625h48.188c44.438 0 80.812-36.609 80.812-81v-13.078c0-44.438-36.375-81.047-80.812-81.047h-23.109v-136.6h21.984c44.438 0 81-36.422 81-80.859v-13.078c0-44.438-36.609-81-81-81h-350.86c-39.938 0-64.547 24.891-80.297 36.516-7.875 5.8125-13.266 8.3906-18.047 9.0469s-11.25 0.28125-24.234-7.1719l-21.562-12.562c-34.312-19.781-38.203-41.531-41.719-70.312-1.7344-14.391-2.25-29.812-6.2344-45.984s-13.641-34.781-31.922-45.375l-127.74-73.688c-3.7969-2.2031-8.1094-3.3281-12.516-3.3281zm9.1875 59.297 21.609 12.469-50.719 88.078c-35.906-14.344-74.672-15.797-110.39-6.2344-43.312 11.625-82.219 39.656-106.31 81.375-43.922 76.078-23.719 171.98 43.406 224.86l-50.812 88.219-21.75-12.516 12.562-21.797c10.875-18.891 9.9375-39.047 6.4219-56.625-3.5156-17.578-10.266-33.328-17.531-45.938l0.75 1.0781c-30.375-60.375-28.312-131.63 5.5312-190.03 33.844-58.406 94.688-95.812 161.86-99.516h-1.3125c14.484 0 31.406-2.1562 48.328-7.9219 16.922-5.7656 34.922-15.094 45.797-33.984zm64.969 37.453 40.969 23.625c4.7344 2.7188 6.1875 4.9688 8.4375 14.016s3.1406 23.391 5.1562 40.031c4.0312 33.328 17.016 79.125 66.281 107.58l21.562 12.422c19.5 11.25 38.812 15.844 56.109 13.453s30.609-10.688 40.969-18.328c20.672-15.234 30.938-26.766 50.578-26.766h350.86c17.578 0 30.984 13.406 30.984 30.984v13.125c0 17.578-13.406 30.797-30.984 30.797h-47.062c-13.828 0.046875-24.938 11.297-24.891 25.078v186.56c0.046875 13.734 11.156 24.844 24.891 24.891h48.188c17.578 0 30.797 13.406 30.797 30.984v13.078c0 17.578-13.219 30.984-30.797 30.984h-48.188l-350.11-0.5625c-38.156 0-53.344-7.7344-76.547-20.859h-0.1875l-120.32-69.562c-24.562-14.203-52.359-12.656-79.359-7.3594s-54.844 15.047-81.797 24.516-53.156 18.469-74.719 22.688-36.984 2.9062-44.859-1.6406l-40.969-23.625 50.953-88.125c79.359 31.734 172.55 1.125 216.47-74.953 43.969-76.125 23.812-172.26-43.359-225.14zm-161.95 100.59c22.078-0.46875 44.578 4.875 65.25 16.781 60.047 34.688 80.484 110.67 45.797 170.72-34.688 60.047-110.72 80.438-170.76 45.75-60.047-34.688-80.438-110.67-45.75-170.72 17.344-30 45.047-50.016 75.891-58.312 9.6562-2.5781 19.547-4.0312 29.578-4.2656zm792.84 77.062c-6.375 0-12.797 2.4375-17.672 7.3125-9.75 9.75-9.75 25.594 0 35.344s25.594 9.75 35.344 0 9.75-25.594 0-35.344c-4.875-4.875-11.297-7.3125-17.672-7.3125zm0 315.05c-6.375 0-12.797 2.4375-17.672 7.3125-9.75 9.75-9.75 25.594 0 35.344s25.594 9.75 35.344 0 9.75-25.594 0-35.344c-4.875-4.875-11.297-7.3125-17.672-7.3125z"/>
</svg>
