<?xml version="1.0" encoding="UTF-8"?>
<svg width="1200pt" height="1200pt" version="1.1" viewBox="0 0 1200 1200" xmlns="http://www.w3.org/2000/svg">
 <path d="m314.02 113.25c-37.172 0.09375-66.562 33.609-61.828 70.5v0.1875l23.625 179.34h-7.0312c-15.188-11.766-30.141-24.891-49.781-24.891-48.047 0-87.703 39.469-87.703 87.516s39.656 87.469 87.703 87.469c19.641-0.046875 34.688-13.312 49.781-25.078h23.438l17.719 134.39c9.4688 71.953 66.047 140.63 148.4 140.63h72.141l-286.6 152.29c-26.344-7.875-62.25-3.8438-88.219 23.344s-31.594 68.297-14.016 101.53c17.578 33.234 54.609 51.422 91.688 45.234 37.078-6.1875 61.266-34.406 68.906-59.672l494.72-262.74h65.156c82.312 0 139.13-68.766 148.6-140.76l57.562-438.52v-0.1875c4.7344-36.844-24.469-70.359-61.641-70.5h-0.1875zm0 50.016h692.44c7.9688 0.046875 13.359 6.3281 12.375 14.203l-57.562 438.47c-6.7031 50.906-44.906 97.266-99.141 97.266h-71.438c-4.0312 0.046875-8.0625 1.0781-11.625 2.9531l-510.05 270.71c-7.0312 3.6562-11.906 10.453-13.125 18.281-2.5312 16.078-14.766 28.5-30.797 31.219-16.031 2.6719-31.688-5.0156-39.328-19.406-7.5938-14.344-5.1094-31.828 6.0938-43.547 11.25-11.719 28.5-14.859 43.172-7.9219 7.125 3.3281 15.422 3.0938 22.359-0.5625l385.18-204.52c23.531-12.094 14.625-47.625-11.812-47.203h-172.36c-54.188 0-92.203-46.312-98.906-97.266l-20.484-155.95c-1.6875-12.375-12.234-21.562-24.703-21.562l-45.422-0.1875c-7.9219 0-15.422 3.7969-20.109 10.172-6.9375 9.3281-17.906 14.859-29.672 14.953-21 0-37.641-16.453-37.641-37.453 0-20.953 16.5-37.359 37.453-37.453 11.812 0 23.016 5.5312 30.094 14.953 4.7344 6.3281 12.234 9.9844 20.109 9.9844l35.25-0.1875c15.047-0.046875 26.672-13.266 24.703-28.219l-27.281-207.61c-0.9375-7.8281 4.4531-14.016 12.375-14.016zm42.844 25.078h-0.046875c-7.1719 0-14.016 3.1406-18.797 8.5312-4.7344 5.4375-6.8906 12.609-5.9531 19.734l13.125 100.55c1.6406 12.516 12.328 21.844 24.891 21.797h123.84c13.828-0.046875 24.938-11.297 24.891-25.125v-100.55 0.046875c0-13.781-11.156-24.938-24.891-24.984zm212.02 0h-0.046875c-6.6562 0-13.031 2.625-17.719 7.2656-4.7344 4.6875-7.3594 11.062-7.3594 17.719v100.55-0.046875c-0.046875 6.7031 2.5781 13.078 7.3125 17.812 4.6875 4.6875 11.109 7.3125 17.766 7.3125h174.94c6.6562-0.046875 13.031-2.6719 17.672-7.4062 4.6875-4.6875 7.3125-11.062 7.3125-17.719v-100.55 0.046875c-0.046875-13.781-11.203-24.938-24.984-24.984zm250.08 0h-0.046875c-13.734 0.046875-24.844 11.203-24.891 24.984v100.55-0.046875c-0.046875 13.828 11.109 25.078 24.891 25.125h131.44c12.562 0.046875 23.25-9.2812 24.891-21.797l13.078-100.55c0.9375-7.125-1.2188-14.297-5.9531-19.688-4.7344-5.4375-11.578-8.5312-18.75-8.5781zm-433.69 50.062h83.812v50.531h-76.969zm208.55 0h124.92v50.531h-124.92zm250.26 0h91.172l-6.6562 50.531h-84.516zm-464.16 125.63h-0.046875c-7.2188 0.046875-14.016 3.1406-18.75 8.5781-4.7344 5.3906-6.8906 12.562-5.9531 19.688l13.078 99.281c1.5938 12.422 12.188 21.75 24.75 21.797h100.92c13.828-0.09375 24.938-11.297 24.891-25.125v-99.281c0-13.734-11.156-24.891-24.891-24.938zm188.95 0h-0.046875c-6.6562 0-13.031 2.5781-17.719 7.2656-4.7344 4.6875-7.3594 11.062-7.3594 17.672v99.281c-0.046875 6.6562 2.5781 13.078 7.3125 17.766 4.6875 4.7344 11.109 7.3594 17.766 7.3594h174.94c6.6562-0.046875 13.031-2.6719 17.672-7.4062 4.6875-4.6875 7.3125-11.062 7.3125-17.719v-99.281c-0.046875-13.734-11.203-24.891-24.984-24.938zm250.08 0h-0.046875c-13.734 0.046875-24.844 11.203-24.891 24.938v99.281c-0.046875 13.828 11.109 25.031 24.891 25.125h108.52c12.609 0.046875 23.297-9.2812 24.891-21.797l12.938-99.281c0.9375-7.125-1.2188-14.297-5.9531-19.734-4.7344-5.3906-11.578-8.5312-18.797-8.5312zm-600.05 36.797-0.046875 0.046875c-13.781 0-24.984 11.156-24.984 24.984 0 6.6094 2.625 12.984 7.3125 17.672s11.062 7.3125 17.672 7.3125c6.6562 0 12.984-2.625 17.719-7.3125 4.6875-4.6875 7.3125-11.062 7.3125-17.672 0-6.6562-2.625-12.984-7.3125-17.672-4.7344-4.6875-11.062-7.3125-17.719-7.3125zm189.61 13.219h60.562v49.266h-54.094zm185.29 0h124.92v49.266h-124.92zm250.26 0h68.062l-6.6562 49.266h-61.406zm-441.28 124.36-0.046875 0.046875c-7.1719 0-14.016 3.0938-18.75 8.5312-4.7344 5.3906-6.9375 12.562-6 19.688l6.0938 46.125c2.6719 20.344 9.375 38.766 22.172 52.969s32.062 22.688 51.984 22.688h35.625l0.046875 0.046875c13.828-0.046875 24.938-11.297 24.891-25.078v-100.08c-0.046875-13.734-11.156-24.844-24.891-24.891zm166.08 0-0.046875 0.046875c-13.828-0.046875-25.031 11.109-25.078 24.891v100.08c-0.046875 6.6562 2.5781 13.031 7.3125 17.766 4.6875 4.6875 11.109 7.3594 17.766 7.3125h174.94c6.6562 0 13.031-2.6719 17.672-7.3594 4.6875-4.7344 7.3125-11.109 7.3125-17.719v-100.08c-0.09375-13.734-11.203-24.844-24.984-24.891zm250.08 0-0.046875 0.046875c-13.688 0.046875-24.844 11.156-24.891 24.891v100.08c-0.046875 13.781 11.109 25.031 24.891 25.078h43.172c19.969 0 39.281-8.4844 52.031-22.688 12.797-14.203 19.5-32.625 22.172-52.969l6.0469-46.125 0.046875-0.046875c0.9375-7.125-1.2656-14.297-6-19.688s-11.531-8.4844-18.703-8.5312zm-387.56 50.016h37.641v50.062h-10.688c-7.6406 0-10.875-1.7344-14.812-6.0938-3.8906-4.3594-8.2031-12.984-9.9844-26.016v-0.1875zm162.42 0h124.92v50.062h-124.92zm250.26 0h45l-2.2031 17.906c-1.7344 13.078-6.0469 21.703-9.9844 26.016-3.9375 4.3594-7.125 6.0469-14.812 6.0469h-18.047zm-625.13 385.92-0.09375 0.046875c-6.6094 0-12.984 2.625-17.672 7.3125s-7.3125 11.062-7.3125 17.672c0 13.828 11.203 25.031 24.984 25.031 6.6562 0 12.984-2.625 17.719-7.3594 4.6875-4.6875 7.3125-11.016 7.3125-17.672 0-6.6094-2.625-12.984-7.3125-17.672-4.7344-4.6875-11.062-7.3125-17.719-7.3125z"/>
</svg>
