<svg xmlns="http://www.w3.org/2000/svg" xmlns:xlink="http://www.w3.org/1999/xlink" width="362" zoomAndPan="magnify" viewBox="0 0 271.5 65.249999" height="87" preserveAspectRatio="xMidYMid meet" version="1.0"><defs><g/><clipPath id="9e5af08495"><path d="M 0.445312 5 L 34 5 L 34 43 L 0.445312 43 Z M 0.445312 5 " clip-rule="nonzero"/></clipPath><clipPath id="eb67ba4c92"><rect x="0" width="218" y="0" height="51"/></clipPath></defs><g transform="matrix(1, 0, 0, 1, 26, 6)"><g clip-path="url(#eb67ba4c92)"><g clip-path="url(#9e5af08495)"><g fill="#000000" fill-opacity="1"><g transform="translate(3.40089, 38.354156)"><g><path d="M 3.351562 4.0625 C 1.5625 4.0625 0.148438 3.539062 -0.898438 2.496094 C -1.945312 1.449219 -2.46875 0.03125 -2.46875 -1.753906 L -2.46875 -26.5625 C -2.46875 -28.351562 -1.945312 -29.765625 -0.898438 -30.8125 C 0.148438 -31.859375 1.5625 -32.382812 3.351562 -32.382812 L 15.476562 -32.382812 C 19.332031 -32.382812 22.4375 -31.429688 24.792969 -29.523438 C 26.117188 -28.453125 27.109375 -27.144531 27.777344 -25.601562 C 28.402344 -24.15625 28.710938 -22.550781 28.710938 -20.78125 C 28.710938 -18.804688 28.332031 -17.066406 27.574219 -15.570312 C 26.792969 -14.027344 25.578125 -12.699219 23.929688 -11.589844 L 21.65625 -14.957031 L 25.722656 -14.957031 L 25.722656 -14.757812 L 21.65625 -14.757812 L 23.265625 -18.488281 C 25.398438 -17.570312 27.042969 -16.183594 28.210938 -14.324219 C 29.34375 -12.523438 29.910156 -10.390625 29.910156 -7.9375 C 29.910156 -6.054688 29.539062 -4.34375 28.796875 -2.808594 C 28.03125 -1.222656 26.902344 0.113281 25.414062 1.203125 C 22.8125 3.109375 19.550781 4.0625 15.636719 4.0625 Z M 3.351562 -4.0625 L 15.636719 -4.0625 C 17.78125 -4.0625 19.441406 -4.492188 20.613281 -5.351562 C 21.011719 -5.644531 21.300781 -5.976562 21.480469 -6.34375 C 21.679688 -6.761719 21.78125 -7.292969 21.78125 -7.9375 C 21.78125 -8.832031 21.632812 -9.523438 21.328125 -10.003906 C 21.058594 -10.433594 20.632812 -10.773438 20.046875 -11.027344 L 17.59375 -12.085938 L 17.59375 -17.117188 L 19.382812 -18.324219 C 19.867188 -18.648438 20.179688 -18.957031 20.328125 -19.25 C 20.5 -19.589844 20.585938 -20.097656 20.585938 -20.78125 C 20.585938 -21.429688 20.496094 -21.964844 20.316406 -22.378906 C 20.179688 -22.699219 19.964844 -22.972656 19.679688 -23.207031 C 18.816406 -23.90625 17.414062 -24.253906 15.476562 -24.253906 L 3.351562 -24.253906 L 3.34375 -24.257812 C 3.414062 -24.265625 3.496094 -24.28125 3.585938 -24.304688 C 4.046875 -24.433594 4.46875 -24.6875 4.847656 -25.066406 C 5.226562 -25.445312 5.480469 -25.867188 5.609375 -26.328125 C 5.632812 -26.417969 5.648438 -26.5 5.65625 -26.570312 L 5.660156 -26.5625 L 5.660156 -1.753906 L 5.65625 -1.75 C 5.648438 -1.820312 5.632812 -1.902344 5.609375 -1.992188 C 5.480469 -2.453125 5.226562 -2.871094 4.847656 -3.253906 C 4.46875 -3.632812 4.046875 -3.886719 3.585938 -4.011719 C 3.496094 -4.039062 3.414062 -4.054688 3.34375 -4.0625 Z M 14.039062 -11.164062 C 14.078125 -11.164062 14.109375 -11.164062 14.125 -11.164062 C 14.09375 -11.164062 14.050781 -11.152344 14 -11.140625 C 13.699219 -11.0625 13.40625 -10.910156 13.121094 -10.679688 C 12.699219 -10.339844 12.40625 -9.929688 12.234375 -9.457031 C 12.164062 -9.257812 12.128906 -9.097656 12.128906 -8.972656 C 12.128906 -8.800781 12.175781 -8.597656 12.261719 -8.363281 C 12.433594 -7.902344 12.722656 -7.511719 13.121094 -7.1875 C 13.40625 -6.957031 13.699219 -6.804688 14 -6.726562 C 14.050781 -6.714844 14.09375 -6.707031 14.125 -6.703125 C 14.109375 -6.703125 14.078125 -6.707031 14.039062 -6.707031 L 10.847656 -6.707031 L 10.847656 -10.769531 L 14.914062 -10.769531 L 14.914062 -7.101562 L 10.847656 -7.101562 L 10.847656 -11.164062 Z M 14.039062 -3.035156 L 6.785156 -3.035156 L 6.785156 -14.832031 L 14.039062 -14.832031 C 15.742188 -14.832031 17.136719 -14.390625 18.226562 -13.511719 C 18.972656 -12.910156 19.519531 -12.148438 19.867188 -11.230469 C 20.125 -10.539062 20.257812 -9.785156 20.257812 -8.972656 C 20.257812 -8.160156 20.136719 -7.410156 19.890625 -6.726562 C 19.550781 -5.765625 18.996094 -4.976562 18.226562 -4.355469 C 17.136719 -3.476562 15.742188 -3.035156 14.039062 -3.035156 Z M 13.242188 -21.972656 C 13.273438 -21.972656 13.292969 -21.972656 13.300781 -21.972656 C 13.269531 -21.96875 13.222656 -21.960938 13.171875 -21.949219 C 12.882812 -21.878906 12.597656 -21.734375 12.320312 -21.523438 C 11.871094 -21.183594 11.550781 -20.761719 11.359375 -20.261719 C 11.261719 -20.007812 11.210938 -19.78125 11.210938 -19.582031 C 11.210938 -19.394531 11.257812 -19.175781 11.351562 -18.933594 C 11.53125 -18.457031 11.828125 -18.058594 12.238281 -17.726562 C 12.523438 -17.5 12.820312 -17.34375 13.121094 -17.265625 C 13.183594 -17.25 13.238281 -17.238281 13.28125 -17.234375 L 13.285156 -17.234375 C 13.273438 -17.234375 13.257812 -17.234375 13.242188 -17.234375 L 10.847656 -17.234375 L 10.847656 -21.300781 L 14.914062 -21.300781 L 14.914062 -17.910156 L 10.847656 -17.910156 L 10.847656 -21.972656 Z M 13.242188 -13.84375 L 6.785156 -13.84375 L 6.785156 -25.363281 L 13.242188 -25.363281 C 14.882812 -25.363281 16.242188 -24.933594 17.316406 -24.074219 C 18.0625 -23.476562 18.605469 -22.722656 18.953125 -21.8125 C 19.210938 -21.128906 19.339844 -20.386719 19.339844 -19.582031 C 19.339844 -18.773438 19.207031 -18.027344 18.945312 -17.34375 C 18.585938 -16.40625 18.015625 -15.644531 17.234375 -15.050781 C 16.175781 -14.246094 14.847656 -13.84375 13.242188 -13.84375 Z M 13.242188 -13.84375 "/></g></g></g></g><g fill="#000000" fill-opacity="1"><g transform="translate(29.805153, 38.354156)"><g><path d="M 2.910156 4.0625 C 1.203125 4.0625 -0.164062 3.546875 -1.199219 2.515625 C -2.230469 1.480469 -2.746094 0.113281 -2.746094 -1.59375 L -2.746094 -19.144531 C -2.746094 -20.925781 -2.203125 -22.328125 -1.113281 -23.355469 C -0.09375 -24.320312 1.25 -24.804688 2.910156 -24.804688 L 8.496094 -24.804688 C 10.230469 -24.804688 11.605469 -24.292969 12.625 -23.273438 C 13.644531 -22.253906 14.15625 -20.878906 14.15625 -19.144531 L 14.15625 -1.59375 C 14.15625 0.0664062 13.671875 1.410156 12.707031 2.429688 C 11.679688 3.519531 10.273438 4.0625 8.496094 4.0625 Z M 2.910156 -4.0625 L 8.496094 -4.0625 C 8.421875 -4.0625 8.308594 -4.042969 8.152344 -3.996094 C 7.648438 -3.851562 7.195312 -3.570312 6.796875 -3.148438 C 6.445312 -2.777344 6.210938 -2.367188 6.085938 -1.921875 C 6.046875 -1.777344 6.027344 -1.667969 6.027344 -1.59375 L 6.027344 -19.144531 C 6.027344 -19.09375 6.046875 -18.996094 6.082031 -18.859375 C 6.214844 -18.371094 6.480469 -17.925781 6.878906 -17.527344 C 7.277344 -17.128906 7.722656 -16.863281 8.210938 -16.734375 C 8.347656 -16.695312 8.441406 -16.675781 8.496094 -16.675781 L 2.910156 -16.675781 C 2.984375 -16.675781 3.09375 -16.695312 3.238281 -16.738281 C 3.683594 -16.859375 4.09375 -17.097656 4.464844 -17.449219 C 4.886719 -17.84375 5.167969 -18.296875 5.3125 -18.800781 C 5.355469 -18.957031 5.378906 -19.070312 5.378906 -19.144531 L 5.378906 -1.59375 C 5.378906 -1.6875 5.355469 -1.816406 5.308594 -1.980469 C 5.175781 -2.441406 4.921875 -2.859375 4.546875 -3.230469 C 4.175781 -3.605469 3.757812 -3.859375 3.296875 -3.992188 C 3.132812 -4.039062 3.003906 -4.0625 2.910156 -4.0625 Z M -2.988281 -26.445312 C -2.988281 -28.734375 -2.371094 -30.5 -1.136719 -31.730469 C 0.09375 -32.960938 1.855469 -33.578125 4.148438 -33.578125 L 7.257812 -33.578125 C 9.550781 -33.578125 11.3125 -32.960938 12.546875 -31.730469 C 13.777344 -30.5 14.394531 -28.734375 14.394531 -26.445312 L 14.394531 -26.003906 C 14.394531 -23.714844 13.777344 -21.953125 12.546875 -20.71875 C 11.3125 -19.488281 9.550781 -18.871094 7.257812 -18.871094 L 4.148438 -18.871094 C 1.855469 -18.871094 0.09375 -19.488281 -1.136719 -20.71875 C -2.371094 -21.953125 -2.988281 -23.714844 -2.988281 -26.003906 Z M 5.140625 -26.445312 L 5.140625 -26.003906 C 5.140625 -25.785156 5.148438 -25.644531 5.160156 -25.59375 C 5.082031 -25.886719 4.898438 -26.175781 4.609375 -26.464844 C 4.320312 -26.753906 4.027344 -26.9375 3.738281 -27.019531 C 3.789062 -27.003906 3.925781 -26.996094 4.148438 -26.996094 L 7.257812 -26.996094 C 7.480469 -26.996094 7.617188 -27.003906 7.671875 -27.019531 C 7.378906 -26.9375 7.089844 -26.753906 6.800781 -26.464844 C 6.507812 -26.175781 6.324219 -25.886719 6.246094 -25.59375 C 6.261719 -25.644531 6.265625 -25.785156 6.265625 -26.003906 L 6.265625 -26.445312 C 6.265625 -26.667969 6.261719 -26.804688 6.246094 -26.855469 C 6.324219 -26.5625 6.507812 -26.273438 6.800781 -25.984375 C 7.089844 -25.695312 7.378906 -25.511719 7.671875 -25.429688 C 7.617188 -25.445312 7.480469 -25.453125 7.257812 -25.453125 L 4.148438 -25.453125 C 3.925781 -25.453125 3.789062 -25.445312 3.738281 -25.429688 C 4.027344 -25.511719 4.320312 -25.695312 4.609375 -25.984375 C 4.898438 -26.273438 5.082031 -26.5625 5.160156 -26.855469 C 5.148438 -26.804688 5.140625 -26.667969 5.140625 -26.445312 Z M 5.140625 -26.445312 "/></g></g></g><g fill="#000000" fill-opacity="1"><g transform="translate(41.212433, 38.354156)"><g><path d="M 2.871094 4.0625 C 1.164062 4.0625 -0.199219 3.554688 -1.21875 2.535156 C -2.238281 1.515625 -2.746094 0.136719 -2.746094 -1.59375 L -2.746094 -27.921875 C -2.746094 -29.652344 -2.238281 -31.03125 -1.21875 -32.050781 C -0.199219 -33.070312 1.164062 -33.578125 2.871094 -33.578125 L 8.496094 -33.578125 C 10.25 -33.578125 11.636719 -33.035156 12.667969 -31.945312 C 13.632812 -30.925781 14.113281 -29.582031 14.113281 -27.921875 L 14.113281 -13.921875 L 10.050781 -13.921875 L 10.050781 -17.984375 L 10.6875 -17.984375 L 10.6875 -13.921875 L 6.960938 -15.539062 L 9.195312 -20.683594 C 9.847656 -22.164062 10.742188 -23.238281 11.886719 -23.90625 C 12.90625 -24.503906 14.222656 -24.804688 15.835938 -24.804688 L 20.222656 -24.804688 C 21.597656 -24.804688 22.761719 -24.5 23.71875 -23.890625 C 24.476562 -23.410156 25.058594 -22.777344 25.464844 -21.996094 C 25.847656 -21.269531 26.039062 -20.476562 26.039062 -19.625 C 26.039062 -18.902344 25.855469 -18.066406 25.484375 -17.113281 L 25.441406 -17.007812 L 21.6875 -8.765625 L 17.988281 -10.449219 L 21.585938 -12.34375 L 22.015625 -11.519531 L 25.636719 -3.996094 C 26.144531 -2.980469 26.398438 -1.996094 26.398438 -1.035156 C 26.398438 -0.125 26.171875 0.714844 25.722656 1.480469 C 25.277344 2.234375 24.660156 2.835938 23.875 3.277344 C 22.949219 3.800781 21.824219 4.0625 20.5 4.0625 L 15.953125 4.0625 C 14.320312 4.0625 13.007812 3.820312 12.007812 3.335938 C 11.191406 2.941406 10.503906 2.367188 9.945312 1.613281 C 9.515625 1.035156 9.175781 0.363281 8.933594 -0.398438 L 7.417969 -5.097656 C 7.601562 -4.546875 7.941406 -4.085938 8.429688 -3.71875 C 8.96875 -3.316406 9.546875 -3.117188 10.171875 -3.117188 L 10.050781 -3.117188 L 10.050781 -7.179688 L 14.113281 -7.179688 L 14.113281 -1.59375 C 14.113281 0.0664062 13.632812 1.410156 12.667969 2.429688 C 11.636719 3.519531 10.25 4.0625 8.496094 4.0625 Z M 2.871094 -4.0625 L 8.496094 -4.0625 C 8.398438 -4.0625 8.261719 -4.039062 8.089844 -3.988281 C 7.589844 -3.839844 7.148438 -3.5625 6.757812 -3.148438 C 6.40625 -2.777344 6.171875 -2.367188 6.046875 -1.921875 C 6.007812 -1.777344 5.988281 -1.667969 5.988281 -1.59375 L 5.988281 -11.242188 L 10.171875 -11.242188 C 11.351562 -11.242188 12.398438 -10.902344 13.308594 -10.222656 C 14.171875 -9.574219 14.785156 -8.695312 15.15625 -7.585938 L 16.671875 -2.875 C 16.644531 -2.96875 16.574219 -3.089844 16.46875 -3.230469 C 16.238281 -3.542969 15.929688 -3.792969 15.554688 -3.976562 C 15.4375 -4.03125 15.332031 -4.070312 15.238281 -4.097656 L 15.242188 -4.101562 C 15.410156 -4.074219 15.648438 -4.0625 15.953125 -4.0625 L 20.5 -4.0625 C 20.546875 -4.0625 20.578125 -4.0625 20.605469 -4.066406 C 20.59375 -4.066406 20.578125 -4.0625 20.550781 -4.058594 C 20.339844 -4.019531 20.117188 -3.929688 19.878906 -3.796875 C 19.398438 -3.527344 19.011719 -3.144531 18.722656 -2.648438 C 18.421875 -2.140625 18.273438 -1.601562 18.273438 -1.035156 C 18.273438 -0.800781 18.300781 -0.589844 18.355469 -0.40625 C 18.363281 -0.382812 18.367188 -0.363281 18.375 -0.351562 C 18.367188 -0.367188 18.347656 -0.40625 18.316406 -0.472656 L 14.726562 -7.929688 L 18.386719 -9.691406 L 14.792969 -7.800781 L 13.464844 -10.320312 L 18 -20.273438 L 21.699219 -18.585938 L 17.910156 -20.058594 C 17.949219 -20.164062 17.976562 -20.230469 17.984375 -20.261719 C 17.9375 -20.089844 17.914062 -19.875 17.914062 -19.625 C 17.914062 -19.144531 18.03125 -18.675781 18.269531 -18.226562 C 18.53125 -17.726562 18.894531 -17.328125 19.355469 -17.035156 C 19.625 -16.863281 19.886719 -16.75 20.148438 -16.695312 C 20.195312 -16.6875 20.234375 -16.679688 20.265625 -16.675781 C 20.261719 -16.675781 20.246094 -16.675781 20.222656 -16.675781 L 15.835938 -16.675781 C 15.636719 -16.675781 15.496094 -16.671875 15.417969 -16.65625 C 15.578125 -16.683594 15.769531 -16.765625 15.996094 -16.894531 C 16.265625 -17.054688 16.476562 -17.234375 16.628906 -17.4375 C 16.65625 -17.46875 16.671875 -17.496094 16.683594 -17.511719 C 16.671875 -17.496094 16.660156 -17.472656 16.648438 -17.449219 L 13.355469 -9.855469 L 5.988281 -9.855469 L 5.988281 -27.921875 C 5.988281 -27.847656 6.007812 -27.738281 6.046875 -27.59375 C 6.171875 -27.148438 6.40625 -26.738281 6.757812 -26.367188 C 7.148438 -25.953125 7.589844 -25.675781 8.089844 -25.527344 C 8.261719 -25.476562 8.398438 -25.453125 8.496094 -25.453125 L 2.871094 -25.453125 C 2.949219 -25.453125 3.066406 -25.472656 3.21875 -25.515625 C 3.703125 -25.652344 4.136719 -25.914062 4.527344 -26.304688 C 4.925781 -26.703125 5.191406 -27.144531 5.324219 -27.632812 C 5.359375 -27.769531 5.378906 -27.867188 5.378906 -27.921875 L 5.378906 -1.59375 C 5.378906 -1.648438 5.359375 -1.742188 5.324219 -1.882812 C 5.191406 -2.371094 4.925781 -2.8125 4.527344 -3.210938 C 4.136719 -3.601562 3.703125 -3.863281 3.21875 -4 C 3.066406 -4.042969 2.949219 -4.0625 2.871094 -4.0625 Z M 2.871094 -4.0625 "/></g></g></g><g fill="#000000" fill-opacity="1"><g transform="translate(63.269163, 38.354156)"><g><path d="M 11.128906 4.660156 C 6.4375 4.660156 2.855469 3.375 0.382812 0.800781 C -2.050781 -1.726562 -3.265625 -4.984375 -3.265625 -8.972656 L -3.265625 -11.804688 C -3.265625 -13.84375 -2.957031 -15.683594 -2.335938 -17.324219 C -1.664062 -19.109375 -0.644531 -20.625 0.722656 -21.878906 C 3.28125 -24.226562 6.761719 -25.402344 11.167969 -25.402344 C 14.109375 -25.402344 16.648438 -24.855469 18.785156 -23.757812 C 21.074219 -22.582031 22.800781 -20.949219 23.957031 -18.859375 C 25.054688 -16.878906 25.601562 -14.6875 25.601562 -12.285156 L 25.601562 -10.332031 C 25.601562 -8.574219 25.066406 -7.121094 23.996094 -5.96875 C 22.847656 -4.730469 21.269531 -4.113281 19.265625 -4.113281 L 9.574219 -4.113281 L 9.574219 -8.175781 L 13.636719 -8.175781 L 13.636719 -7.65625 L 13.632812 -7.65625 C 13.628906 -7.710938 13.613281 -7.773438 13.59375 -7.84375 C 13.511719 -8.148438 13.355469 -8.4375 13.128906 -8.714844 C 12.832031 -9.078125 12.46875 -9.34375 12.039062 -9.515625 C 11.761719 -9.628906 11.496094 -9.6875 11.246094 -9.6875 C 11.292969 -9.6875 11.332031 -9.6875 11.355469 -9.691406 C 11.34375 -9.691406 11.320312 -9.6875 11.289062 -9.679688 C 11.0625 -9.628906 10.824219 -9.523438 10.578125 -9.363281 C 10.527344 -9.332031 10.492188 -9.300781 10.46875 -9.277344 C 10.488281 -9.296875 10.515625 -9.332031 10.550781 -9.378906 C 10.953125 -9.917969 11.394531 -10.359375 11.871094 -10.703125 C 12.726562 -11.328125 13.703125 -11.640625 14.796875 -11.640625 C 15.75 -11.640625 16.722656 -11.40625 17.722656 -10.9375 L 15.996094 -7.257812 L 17.546875 -11.015625 L 21.019531 -9.578125 C 21.964844 -9.1875 22.742188 -8.65625 23.34375 -7.992188 C 23.765625 -7.527344 24.089844 -7.011719 24.316406 -6.445312 C 24.5625 -5.835938 24.683594 -5.203125 24.683594 -4.546875 C 24.683594 -3.613281 24.449219 -2.675781 23.976562 -1.734375 L 23.957031 -1.691406 L 23.933594 -1.652344 C 22.75 0.585938 20.964844 2.238281 18.578125 3.296875 C 16.523438 4.207031 14.042969 4.660156 11.128906 4.660156 Z M 11.128906 -3.464844 C 12.894531 -3.464844 14.28125 -3.6875 15.285156 -4.132812 C 15.953125 -4.429688 16.441406 -4.867188 16.75 -5.449219 L 20.339844 -3.550781 L 16.707031 -5.367188 C 16.609375 -5.167969 16.558594 -4.894531 16.558594 -4.546875 C 16.558594 -4.15625 16.632812 -3.773438 16.78125 -3.40625 C 16.910156 -3.078125 17.09375 -2.789062 17.320312 -2.535156 C 17.464844 -2.378906 17.613281 -2.246094 17.769531 -2.148438 C 17.832031 -2.109375 17.878906 -2.082031 17.910156 -2.070312 L 14.351562 -3.542969 L 14.265625 -3.582031 C 14.25 -3.589844 14.242188 -3.59375 14.238281 -3.59375 C 14.257812 -3.585938 14.28125 -3.578125 14.308594 -3.574219 C 14.453125 -3.535156 14.617188 -3.515625 14.796875 -3.515625 C 15.464844 -3.515625 16.082031 -3.722656 16.648438 -4.132812 C 16.832031 -4.265625 16.964844 -4.390625 17.050781 -4.503906 C 16.445312 -3.695312 15.769531 -3.046875 15.027344 -2.5625 C 14.007812 -1.894531 12.746094 -1.558594 11.246094 -1.558594 C 10.441406 -1.558594 9.6875 -1.703125 8.992188 -1.984375 C 8.144531 -2.328125 7.429688 -2.847656 6.855469 -3.550781 C 5.957031 -4.636719 5.507812 -6.007812 5.507812 -7.65625 L 5.507812 -12.238281 L 19.265625 -12.238281 C 19.285156 -12.238281 19.300781 -12.242188 19.316406 -12.242188 L 19.304688 -12.238281 C 19.246094 -12.230469 19.171875 -12.214844 19.089844 -12.1875 C 18.703125 -12.066406 18.355469 -11.835938 18.042969 -11.5 C 17.808594 -11.25 17.640625 -10.972656 17.542969 -10.667969 C 17.496094 -10.527344 17.476562 -10.414062 17.476562 -10.332031 L 17.476562 -12.285156 C 17.476562 -13.285156 17.265625 -14.167969 16.847656 -14.925781 C 16.488281 -15.570312 15.898438 -16.105469 15.078125 -16.527344 C 14.105469 -17.027344 12.800781 -17.277344 11.167969 -17.277344 C 8.871094 -17.277344 7.222656 -16.8125 6.21875 -15.890625 C 5.3125 -15.0625 4.859375 -13.699219 4.859375 -11.804688 L 4.859375 -8.972656 C 4.859375 -7.167969 5.320312 -5.785156 6.238281 -4.832031 C 7.113281 -3.921875 8.746094 -3.464844 11.128906 -3.464844 Z M 8.699219 -13.480469 L 8.699219 -13.839844 L 8.703125 -13.835938 C 8.707031 -13.777344 8.722656 -13.710938 8.738281 -13.632812 C 8.828125 -13.28125 9.003906 -12.941406 9.265625 -12.621094 C 9.652344 -12.144531 10.113281 -11.816406 10.65625 -11.636719 C 10.863281 -11.566406 11.035156 -11.53125 11.167969 -11.53125 C 11.320312 -11.53125 11.507812 -11.570312 11.722656 -11.640625 C 12.222656 -11.8125 12.652344 -12.105469 13.015625 -12.53125 C 13.296875 -12.859375 13.488281 -13.207031 13.585938 -13.578125 C 13.621094 -13.703125 13.636719 -13.789062 13.636719 -13.839844 L 13.636719 -13.480469 L 9.574219 -13.480469 L 9.574219 -17.542969 L 12.761719 -17.542969 L 12.761719 -13.480469 Z M 16.828125 -9.417969 L 5.507812 -9.417969 L 5.507812 -13.839844 C 5.507812 -15.453125 5.953125 -16.78125 6.847656 -17.820312 C 7.449219 -18.523438 8.207031 -19.03125 9.117188 -19.339844 C 9.746094 -19.550781 10.429688 -19.660156 11.167969 -19.660156 C 11.914062 -19.660156 12.597656 -19.554688 13.226562 -19.34375 C 14.1875 -19.023438 14.972656 -18.488281 15.582031 -17.734375 C 16.410156 -16.707031 16.828125 -15.410156 16.828125 -13.839844 Z M 16.828125 -9.417969 "/></g></g></g><g fill="#000000" fill-opacity="1"><g transform="translate(85.405663, 38.354156)"><g/></g></g><g fill="#000000" fill-opacity="1"><g transform="translate(91.707587, 38.354156)"><g><path d="M 12.722656 4.660156 C 9.148438 4.660156 6.015625 4.039062 3.320312 2.789062 C 1.785156 2.078125 0.484375 1.171875 -0.585938 0.0703125 C -1.703125 -1.085938 -2.542969 -2.425781 -3.097656 -3.953125 C -3.394531 -4.722656 -3.542969 -5.480469 -3.542969 -6.222656 C -3.542969 -6.890625 -3.425781 -7.53125 -3.1875 -8.144531 C -2.941406 -8.769531 -2.585938 -9.328125 -2.121094 -9.824219 C -1.457031 -10.53125 -0.589844 -11.070312 0.480469 -11.449219 L 5.058594 -13.082031 C 5.953125 -13.398438 6.78125 -13.554688 7.539062 -13.554688 C 8.695312 -13.554688 9.746094 -13.214844 10.695312 -12.527344 C 11.40625 -12.015625 12.003906 -11.335938 12.492188 -10.484375 L 8.972656 -8.457031 L 12.410156 -10.625 C 12.234375 -10.90625 12.019531 -11.089844 11.773438 -11.179688 C 11.949219 -11.117188 12.308594 -11.082031 12.84375 -11.082031 C 13.242188 -11.082031 13.570312 -11.097656 13.828125 -11.128906 C 13.914062 -11.140625 13.980469 -11.148438 14.035156 -11.160156 C 14.042969 -11.164062 14.046875 -11.164062 14.046875 -11.164062 C 14.03125 -11.160156 14.011719 -11.152344 13.988281 -11.144531 C 13.511719 -10.976562 13.101562 -10.664062 12.753906 -10.207031 C 12.339844 -9.664062 12.128906 -9.066406 12.128906 -8.414062 C 12.128906 -7.707031 12.363281 -7.070312 12.824219 -6.511719 C 13.125 -6.148438 13.453125 -5.902344 13.808594 -5.769531 C 13.433594 -5.910156 12.691406 -6.0625 11.585938 -6.234375 C 9.019531 -6.671875 6.910156 -7.152344 5.269531 -7.675781 C 3.089844 -8.367188 1.167969 -9.660156 -0.496094 -11.554688 C -2.34375 -13.652344 -3.265625 -16.460938 -3.265625 -19.984375 C -3.265625 -22.632812 -2.527344 -24.992188 -1.050781 -27.054688 C 0.382812 -29.058594 2.398438 -30.574219 4.988281 -31.597656 C 7.316406 -32.519531 10.011719 -32.980469 13.082031 -32.980469 C 16.691406 -32.980469 19.695312 -32.445312 22.097656 -31.371094 C 24.867188 -30.132812 26.929688 -28.132812 28.292969 -25.367188 C 28.757812 -24.4375 28.992188 -23.519531 28.992188 -22.613281 C 28.992188 -21.921875 28.855469 -21.257812 28.578125 -20.617188 C 28.335938 -20.058594 28 -19.550781 27.570312 -19.09375 C 26.976562 -18.464844 26.214844 -17.945312 25.28125 -17.535156 L 20.328125 -15.441406 C 19.398438 -15.070312 18.550781 -14.882812 17.789062 -14.882812 C 17.15625 -14.882812 16.550781 -14.992188 15.96875 -15.214844 C 15.363281 -15.445312 14.824219 -15.785156 14.347656 -16.226562 C 13.828125 -16.710938 13.355469 -17.351562 12.925781 -18.148438 C 12.988281 -18.035156 13.089844 -17.910156 13.238281 -17.78125 C 13.421875 -17.617188 13.625 -17.5 13.851562 -17.425781 C 13.671875 -17.484375 13.414062 -17.515625 13.082031 -17.515625 C 12.796875 -17.515625 12.582031 -17.503906 12.433594 -17.476562 C 12.421875 -17.476562 12.414062 -17.476562 12.410156 -17.472656 C 12.425781 -17.476562 12.441406 -17.480469 12.460938 -17.488281 C 12.5625 -17.519531 12.671875 -17.566406 12.789062 -17.628906 C 13.179688 -17.835938 13.511719 -18.144531 13.78125 -18.558594 C 14.109375 -19.058594 14.273438 -19.601562 14.273438 -20.183594 C 14.273438 -20.878906 14.042969 -21.5 13.585938 -22.046875 C 13.289062 -22.394531 12.976562 -22.628906 12.640625 -22.75 C 13.074219 -22.59375 13.945312 -22.429688 15.253906 -22.253906 C 17.667969 -21.894531 19.730469 -21.421875 21.4375 -20.835938 C 23.65625 -20.078125 25.554688 -18.710938 27.136719 -16.746094 C 28.824219 -14.644531 29.671875 -11.882812 29.671875 -8.457031 C 29.671875 -5.453125 28.757812 -2.894531 26.929688 -0.777344 C 25.277344 1.136719 23.136719 2.542969 20.5 3.445312 C 18.132812 4.257812 15.542969 4.660156 12.722656 4.660156 Z M 12.722656 -3.464844 C 14.640625 -3.464844 16.355469 -3.722656 17.867188 -4.242188 C 19.117188 -4.671875 20.085938 -5.285156 20.773438 -6.085938 C 21.289062 -6.679688 21.542969 -7.46875 21.542969 -8.457031 C 21.542969 -9.976562 21.296875 -11.039062 20.804688 -11.652344 C 20.207031 -12.398438 19.539062 -12.894531 18.804688 -13.148438 C 17.5625 -13.574219 16.019531 -13.921875 14.179688 -14.199219 C 12.300781 -14.449219 10.871094 -14.75 9.894531 -15.101562 C 8.855469 -15.472656 8.011719 -16.042969 7.367188 -16.8125 C 6.554688 -17.777344 6.148438 -18.902344 6.148438 -20.183594 C 6.148438 -21.214844 6.425781 -22.15625 6.980469 -23.003906 C 7.476562 -23.761719 8.144531 -24.363281 8.988281 -24.808594 C 10.035156 -25.363281 11.398438 -25.640625 13.082031 -25.640625 C 14.292969 -25.640625 15.40625 -25.472656 16.421875 -25.132812 C 17.246094 -24.859375 17.976562 -24.4375 18.621094 -23.871094 C 19.226562 -23.335938 19.71875 -22.703125 20.097656 -21.976562 C 20.128906 -21.917969 20.148438 -21.882812 20.152344 -21.875 C 20.089844 -21.96875 19.996094 -22.070312 19.875 -22.183594 C 19.582031 -22.453125 19.25 -22.660156 18.871094 -22.804688 C 18.515625 -22.941406 18.15625 -23.007812 17.789062 -23.007812 C 17.574219 -23.007812 17.386719 -22.988281 17.222656 -22.949219 C 17.199219 -22.941406 17.1875 -22.9375 17.175781 -22.933594 C 17.191406 -22.941406 17.1875 -22.9375 17.164062 -22.925781 L 22.023438 -24.980469 C 22.039062 -24.988281 22.050781 -24.996094 22.058594 -24.996094 C 22.042969 -24.992188 22.027344 -24.980469 22.007812 -24.964844 C 21.886719 -24.890625 21.769531 -24.789062 21.652344 -24.664062 C 21.429688 -24.429688 21.253906 -24.15625 21.121094 -23.84375 C 20.949219 -23.453125 20.863281 -23.042969 20.863281 -22.613281 C 20.863281 -22.359375 20.894531 -22.128906 20.957031 -21.917969 C 20.980469 -21.839844 20.996094 -21.792969 21.003906 -21.777344 C 20.507812 -22.785156 19.765625 -23.511719 18.785156 -23.949219 C 17.4375 -24.554688 15.535156 -24.855469 13.082031 -24.855469 C 11.046875 -24.855469 9.34375 -24.582031 7.976562 -24.042969 C 6.871094 -23.605469 6.0625 -23.03125 5.558594 -22.324219 C 5.09375 -21.675781 4.859375 -20.894531 4.859375 -19.984375 C 4.859375 -18.503906 5.109375 -17.484375 5.601562 -16.921875 C 6.277344 -16.15625 6.988281 -15.65625 7.734375 -15.417969 C 9.015625 -15.011719 10.710938 -14.625 12.824219 -14.265625 C 14.484375 -14.011719 15.761719 -13.714844 16.664062 -13.378906 C 17.65625 -13.003906 18.464844 -12.441406 19.085938 -11.695312 C 19.867188 -10.75 20.257812 -9.65625 20.257812 -8.414062 C 20.257812 -7.234375 19.910156 -6.1875 19.214844 -5.277344 C 18.585938 -4.457031 17.757812 -3.863281 16.722656 -3.492188 C 15.722656 -3.136719 14.429688 -2.957031 12.84375 -2.957031 C 11.359375 -2.957031 10.078125 -3.148438 9.007812 -3.539062 C 7.511719 -4.078125 6.355469 -4.996094 5.539062 -6.285156 L 5.453125 -6.425781 C 5.546875 -6.269531 5.707031 -6.105469 5.9375 -5.9375 C 6.40625 -5.597656 6.941406 -5.429688 7.539062 -5.429688 C 7.679688 -5.429688 7.796875 -5.441406 7.890625 -5.460938 C 7.875 -5.457031 7.839844 -5.445312 7.785156 -5.425781 L 3.1875 -3.785156 L 3.183594 -3.785156 C 3.210938 -3.800781 3.246094 -3.816406 3.285156 -3.839844 C 3.460938 -3.941406 3.632812 -4.078125 3.796875 -4.253906 C 4.050781 -4.523438 4.246094 -4.835938 4.382812 -5.1875 C 4.515625 -5.527344 4.582031 -5.871094 4.582031 -6.222656 C 4.582031 -6.40625 4.566406 -6.574219 4.53125 -6.722656 C 4.523438 -6.753906 4.515625 -6.78125 4.507812 -6.804688 L 4.535156 -6.738281 C 4.695312 -6.296875 4.933594 -5.910156 5.253906 -5.585938 C 5.621094 -5.203125 6.113281 -4.871094 6.734375 -4.585938 C 8.34375 -3.839844 10.34375 -3.464844 12.722656 -3.464844 Z M 12.722656 -3.464844 "/></g></g></g><g fill="#000000" fill-opacity="1"><g transform="translate(117.433793, 38.354156)"><g><path d="M 13.71875 4.0625 C 9.199219 4.0625 5.703125 3.097656 3.226562 1.171875 C 1.765625 0.0351562 0.679688 -1.445312 -0.0234375 -3.269531 C -0.644531 -4.863281 -0.953125 -6.699219 -0.953125 -8.773438 L -0.953125 -14 L 3.109375 -14 L 3.109375 -9.9375 L 1.753906 -9.9375 C 0.046875 -9.9375 -1.316406 -10.445312 -2.335938 -11.464844 C -3.355469 -12.484375 -3.863281 -13.863281 -3.863281 -15.59375 L -3.863281 -19.144531 C -3.863281 -20.878906 -3.355469 -22.253906 -2.335938 -23.273438 C -1.316406 -24.292969 0.046875 -24.804688 1.753906 -24.804688 L 3.109375 -24.804688 L 3.109375 -20.742188 L -0.953125 -20.742188 L -0.953125 -23.929688 C -0.953125 -25.710938 -0.40625 -27.113281 0.679688 -28.140625 C 1.703125 -29.109375 3.042969 -29.589844 4.707031 -29.589844 L 10.289062 -29.589844 C 12.023438 -29.589844 13.402344 -29.082031 14.421875 -28.0625 C 15.441406 -27.042969 15.949219 -25.664062 15.949219 -23.929688 L 15.949219 -20.742188 L 11.886719 -20.742188 L 11.886719 -24.804688 L 13.800781 -24.804688 C 15.554688 -24.804688 16.941406 -24.261719 17.972656 -23.171875 C 18.9375 -22.148438 19.417969 -20.808594 19.417969 -19.144531 L 19.417969 -15.59375 C 19.417969 -13.933594 18.9375 -12.589844 17.972656 -11.570312 C 16.941406 -10.480469 15.554688 -9.9375 13.800781 -9.9375 L 11.886719 -9.9375 L 11.886719 -14 L 15.949219 -14 L 15.949219 -9.492188 C 15.949219 -9.609375 15.921875 -9.757812 15.863281 -9.933594 C 15.742188 -10.300781 15.539062 -10.632812 15.25 -10.929688 C 14.949219 -11.234375 14.609375 -11.453125 14.226562 -11.582031 C 14.03125 -11.648438 13.863281 -11.679688 13.71875 -11.679688 C 15.453125 -11.679688 16.835938 -11.164062 17.871094 -10.132812 C 18.902344 -9.101562 19.417969 -7.714844 19.417969 -5.984375 L 19.417969 -1.714844 C 19.417969 0.00390625 18.929688 1.378906 17.945312 2.414062 C 16.90625 3.515625 15.496094 4.0625 13.71875 4.0625 Z M 13.71875 -4.0625 C 13.632812 -4.0625 13.507812 -4.039062 13.34375 -3.988281 C 12.859375 -3.847656 12.425781 -3.574219 12.046875 -3.171875 C 11.695312 -2.800781 11.460938 -2.394531 11.34375 -1.957031 C 11.316406 -1.867188 11.300781 -1.789062 11.292969 -1.71875 L 11.292969 -1.714844 L 11.292969 -5.984375 C 11.292969 -5.914062 11.3125 -5.808594 11.355469 -5.660156 C 11.488281 -5.191406 11.742188 -4.765625 12.125 -4.386719 C 12.503906 -4.003906 12.929688 -3.75 13.398438 -3.617188 C 13.546875 -3.574219 13.652344 -3.554688 13.71875 -3.554688 C 12.964844 -3.554688 12.261719 -3.667969 11.609375 -3.890625 C 10.765625 -4.175781 10.046875 -4.628906 9.441406 -5.246094 C 8.363281 -6.347656 7.824219 -7.761719 7.824219 -9.492188 L 7.824219 -18.0625 L 13.800781 -18.0625 C 13.703125 -18.0625 13.566406 -18.039062 13.394531 -17.988281 C 12.894531 -17.839844 12.453125 -17.558594 12.0625 -17.148438 C 11.710938 -16.777344 11.476562 -16.367188 11.351562 -15.921875 C 11.3125 -15.777344 11.292969 -15.667969 11.292969 -15.59375 L 11.292969 -19.144531 C 11.292969 -19.074219 11.3125 -18.964844 11.351562 -18.820312 C 11.476562 -18.371094 11.710938 -17.964844 12.0625 -17.589844 C 12.453125 -17.179688 12.894531 -16.902344 13.394531 -16.753906 C 13.566406 -16.703125 13.703125 -16.675781 13.800781 -16.675781 L 7.824219 -16.675781 L 7.824219 -23.929688 C 7.824219 -23.878906 7.839844 -23.78125 7.878906 -23.644531 C 8.011719 -23.15625 8.273438 -22.714844 8.671875 -22.316406 C 9.070312 -21.917969 9.515625 -21.652344 10.003906 -21.519531 C 10.140625 -21.480469 10.238281 -21.464844 10.289062 -21.464844 L 4.707031 -21.464844 C 4.777344 -21.464844 4.886719 -21.484375 5.03125 -21.523438 C 5.480469 -21.644531 5.886719 -21.882812 6.261719 -22.234375 C 6.679688 -22.632812 6.964844 -23.082031 7.109375 -23.585938 C 7.152344 -23.742188 7.175781 -23.859375 7.175781 -23.929688 L 7.175781 -16.675781 L 1.753906 -16.675781 C 1.832031 -16.675781 1.949219 -16.699219 2.101562 -16.742188 C 2.585938 -16.875 3.023438 -17.136719 3.410156 -17.527344 C 3.808594 -17.925781 4.074219 -18.371094 4.207031 -18.859375 C 4.246094 -18.996094 4.261719 -19.09375 4.261719 -19.144531 L 4.261719 -15.59375 C 4.261719 -15.648438 4.246094 -15.742188 4.207031 -15.882812 C 4.074219 -16.371094 3.808594 -16.8125 3.410156 -17.210938 C 3.023438 -17.601562 2.585938 -17.863281 2.101562 -18 C 1.949219 -18.042969 1.832031 -18.0625 1.753906 -18.0625 L 7.175781 -18.0625 L 7.175781 -8.773438 C 7.175781 -6.960938 7.523438 -5.78125 8.21875 -5.242188 C 8.644531 -4.910156 9.246094 -4.644531 10.03125 -4.445312 C 11.035156 -4.191406 12.265625 -4.0625 13.71875 -4.0625 Z M 13.71875 -4.0625 "/></g></g></g><g fill="#000000" fill-opacity="1"><g transform="translate(133.467793, 38.354156)"><g><path d="M 11.089844 4.660156 C 6.75 4.660156 3.308594 3.515625 0.769531 1.222656 C -0.585938 0 -1.597656 -1.457031 -2.273438 -3.152344 C -2.910156 -4.746094 -3.226562 -6.511719 -3.226562 -8.457031 L -3.226562 -12.285156 C -3.226562 -14.226562 -2.910156 -15.996094 -2.273438 -17.585938 C -1.597656 -19.285156 -0.585938 -20.742188 0.769531 -21.960938 C 3.308594 -24.253906 6.75 -25.402344 11.089844 -25.402344 C 15.484375 -25.402344 18.949219 -24.253906 21.480469 -21.953125 C 22.824219 -20.730469 23.828125 -19.273438 24.5 -17.578125 C 25.128906 -15.988281 25.441406 -14.222656 25.441406 -12.285156 L 25.441406 -8.457031 C 25.441406 -6.515625 25.128906 -4.753906 24.5 -3.164062 C 23.828125 -1.46875 22.824219 -0.0078125 21.480469 1.210938 C 18.949219 3.511719 15.484375 4.660156 11.089844 4.660156 Z M 11.089844 -3.464844 C 13.390625 -3.464844 15.03125 -3.910156 16.011719 -4.800781 C 16.425781 -5.175781 16.734375 -5.625 16.941406 -6.148438 C 17.191406 -6.78125 17.316406 -7.550781 17.316406 -8.457031 L 17.316406 -12.285156 C 17.316406 -13.191406 17.191406 -13.960938 16.941406 -14.589844 C 16.734375 -15.113281 16.425781 -15.566406 16.011719 -15.9375 C 15.03125 -16.828125 13.390625 -17.277344 11.089844 -17.277344 C 8.832031 -17.277344 7.207031 -16.828125 6.210938 -15.929688 C 5.796875 -15.554688 5.484375 -15.105469 5.277344 -14.582031 C 5.027344 -13.953125 4.902344 -13.1875 4.902344 -12.285156 L 4.902344 -8.457031 C 4.902344 -7.550781 5.027344 -6.789062 5.277344 -6.160156 C 5.484375 -5.636719 5.796875 -5.1875 6.210938 -4.8125 C 7.207031 -3.914062 8.832031 -3.464844 11.089844 -3.464844 Z M 13.636719 -8.097656 C 13.636719 -8.402344 13.574219 -8.714844 13.445312 -9.035156 C 13.257812 -9.507812 12.964844 -9.914062 12.570312 -10.246094 C 12.246094 -10.519531 11.898438 -10.707031 11.523438 -10.8125 C 11.355469 -10.859375 11.207031 -10.882812 11.089844 -10.882812 C 10.984375 -10.882812 10.851562 -10.863281 10.695312 -10.820312 C 10.335938 -10.71875 9.996094 -10.539062 9.675781 -10.28125 C 9.273438 -9.949219 8.976562 -9.546875 8.78125 -9.066406 C 8.648438 -8.738281 8.582031 -8.414062 8.582031 -8.097656 L 8.582031 -12.644531 C 8.582031 -12.347656 8.640625 -12.042969 8.765625 -11.730469 C 8.949219 -11.261719 9.238281 -10.859375 9.628906 -10.527344 C 9.949219 -10.257812 10.292969 -10.070312 10.664062 -9.96875 C 10.832031 -9.921875 10.972656 -9.898438 11.089844 -9.898438 C 11.21875 -9.898438 11.375 -9.921875 11.554688 -9.972656 C 11.9375 -10.085938 12.292969 -10.28125 12.617188 -10.5625 C 13 -10.898438 13.28125 -11.296875 13.460938 -11.761719 C 13.578125 -12.066406 13.636719 -12.359375 13.636719 -12.644531 Z M 5.507812 -8.097656 L 5.507812 -12.644531 C 5.507812 -13.363281 5.628906 -14.042969 5.875 -14.675781 C 6.179688 -15.472656 6.648438 -16.144531 7.289062 -16.699219 C 8.304688 -17.582031 9.570312 -18.023438 11.089844 -18.023438 C 12.597656 -18.023438 13.863281 -17.59375 14.878906 -16.734375 C 15.53125 -16.183594 16.011719 -15.507812 16.328125 -14.707031 C 16.582031 -14.066406 16.707031 -13.378906 16.707031 -12.644531 L 16.707031 -8.097656 C 16.707031 -7.355469 16.574219 -6.660156 16.3125 -6.007812 C 15.988281 -5.210938 15.496094 -4.542969 14.832031 -4 C 13.824219 -3.171875 12.574219 -2.757812 11.089844 -2.757812 C 9.59375 -2.757812 8.34375 -3.183594 7.335938 -4.03125 C 6.683594 -4.578125 6.203125 -5.25 5.890625 -6.042969 C 5.636719 -6.683594 5.507812 -7.367188 5.507812 -8.097656 Z M 5.507812 -8.097656 "/></g></g></g><g fill="#000000" fill-opacity="1"><g transform="translate(155.684069, 38.354156)"><g><path d="M 2.871094 4.0625 C 1.164062 4.0625 -0.207031 3.546875 -1.238281 2.515625 C -2.269531 1.480469 -2.785156 0.113281 -2.785156 -1.59375 L -2.785156 -16.910156 C -2.785156 -18.4375 -2.453125 -19.710938 -1.785156 -20.730469 C -1.082031 -21.808594 0.0234375 -22.636719 1.53125 -23.21875 C 4.257812 -24.273438 7.574219 -24.804688 11.488281 -24.804688 L 12.683594 -24.804688 C 14.417969 -24.804688 15.792969 -24.292969 16.8125 -23.273438 C 17.832031 -22.253906 18.34375 -20.878906 18.34375 -19.144531 L 18.34375 -14.878906 C 18.34375 -13.214844 17.859375 -11.875 16.894531 -10.851562 C 15.867188 -9.761719 14.464844 -9.21875 12.683594 -9.21875 L 11.128906 -9.21875 C 10.988281 -9.21875 10.878906 -9.214844 10.792969 -9.210938 C 10.773438 -9.210938 10.757812 -9.210938 10.746094 -9.210938 C 10.765625 -9.210938 10.792969 -9.214844 10.824219 -9.21875 L 10.539062 -9.179688 L 10.25 -9.179688 C 10.738281 -9.179688 11.214844 -9.269531 11.671875 -9.453125 C 12.285156 -9.699219 12.800781 -10.074219 13.222656 -10.582031 C 13.578125 -11.007812 13.832031 -11.488281 13.980469 -12.019531 C 14.070312 -12.347656 14.113281 -12.671875 14.113281 -13.003906 L 14.113281 -1.59375 C 14.113281 0.0664062 13.632812 1.410156 12.667969 2.429688 C 11.636719 3.519531 10.234375 4.0625 8.457031 4.0625 Z M 2.871094 -4.0625 L 8.457031 -4.0625 C 8.382812 -4.0625 8.269531 -4.042969 8.113281 -3.996094 C 7.605469 -3.851562 7.15625 -3.570312 6.757812 -3.148438 C 6.40625 -2.777344 6.171875 -2.367188 6.046875 -1.921875 C 6.007812 -1.777344 5.988281 -1.667969 5.988281 -1.59375 L 5.988281 -13.003906 C 5.988281 -14.0625 6.316406 -14.988281 6.980469 -15.785156 C 7.433594 -16.328125 7.992188 -16.734375 8.652344 -17 C 9.164062 -17.203125 9.695312 -17.304688 10.25 -17.304688 L 10.25 -13.242188 L 9.675781 -17.265625 C 10.050781 -17.320312 10.535156 -17.34375 11.128906 -17.34375 L 12.683594 -17.34375 C 12.609375 -17.34375 12.496094 -17.324219 12.339844 -17.277344 C 11.835938 -17.132812 11.382812 -16.851562 10.984375 -16.429688 C 10.632812 -16.058594 10.398438 -15.648438 10.277344 -15.203125 C 10.234375 -15.058594 10.214844 -14.949219 10.214844 -14.878906 L 10.214844 -19.144531 C 10.214844 -19.09375 10.234375 -18.996094 10.269531 -18.859375 C 10.402344 -18.371094 10.667969 -17.925781 11.066406 -17.527344 C 11.464844 -17.128906 11.910156 -16.863281 12.398438 -16.734375 C 12.535156 -16.695312 12.628906 -16.675781 12.683594 -16.675781 L 11.488281 -16.675781 C 8.589844 -16.675781 6.246094 -16.328125 4.449219 -15.632812 C 4.394531 -15.609375 4.355469 -15.59375 4.324219 -15.578125 C 4.335938 -15.582031 4.355469 -15.597656 4.382812 -15.613281 C 4.613281 -15.769531 4.824219 -15.992188 5.015625 -16.285156 C 5.179688 -16.535156 5.285156 -16.773438 5.335938 -17.003906 C 5.339844 -17.023438 5.34375 -17.039062 5.34375 -17.050781 C 5.339844 -17.015625 5.339844 -16.96875 5.339844 -16.910156 L 5.339844 -1.59375 C 5.339844 -1.6875 5.316406 -1.816406 5.269531 -1.980469 C 5.132812 -2.441406 4.882812 -2.859375 4.507812 -3.230469 C 4.136719 -3.605469 3.71875 -3.859375 3.257812 -3.992188 C 3.09375 -4.039062 2.964844 -4.0625 2.871094 -4.0625 Z M 2.871094 -4.0625 "/></g></g></g><g fill="#000000" fill-opacity="1"><g transform="translate(170.122647, 38.354156)"><g><path d="M 11.128906 4.660156 C 6.4375 4.660156 2.855469 3.375 0.382812 0.800781 C -2.050781 -1.726562 -3.265625 -4.984375 -3.265625 -8.972656 L -3.265625 -11.804688 C -3.265625 -13.84375 -2.957031 -15.683594 -2.335938 -17.324219 C -1.664062 -19.109375 -0.644531 -20.625 0.722656 -21.878906 C 3.28125 -24.226562 6.761719 -25.402344 11.167969 -25.402344 C 14.109375 -25.402344 16.648438 -24.855469 18.785156 -23.757812 C 21.074219 -22.582031 22.800781 -20.949219 23.957031 -18.859375 C 25.054688 -16.878906 25.601562 -14.6875 25.601562 -12.285156 L 25.601562 -10.332031 C 25.601562 -8.574219 25.066406 -7.121094 23.996094 -5.96875 C 22.847656 -4.730469 21.269531 -4.113281 19.265625 -4.113281 L 9.574219 -4.113281 L 9.574219 -8.175781 L 13.636719 -8.175781 L 13.636719 -7.65625 L 13.632812 -7.65625 C 13.628906 -7.710938 13.613281 -7.773438 13.59375 -7.84375 C 13.511719 -8.148438 13.355469 -8.4375 13.128906 -8.714844 C 12.832031 -9.078125 12.46875 -9.34375 12.039062 -9.515625 C 11.761719 -9.628906 11.496094 -9.6875 11.246094 -9.6875 C 11.292969 -9.6875 11.332031 -9.6875 11.355469 -9.691406 C 11.34375 -9.691406 11.320312 -9.6875 11.289062 -9.679688 C 11.0625 -9.628906 10.824219 -9.523438 10.578125 -9.363281 C 10.527344 -9.332031 10.492188 -9.300781 10.46875 -9.277344 C 10.488281 -9.296875 10.515625 -9.332031 10.550781 -9.378906 C 10.953125 -9.917969 11.394531 -10.359375 11.871094 -10.703125 C 12.726562 -11.328125 13.703125 -11.640625 14.796875 -11.640625 C 15.75 -11.640625 16.722656 -11.40625 17.722656 -10.9375 L 15.996094 -7.257812 L 17.546875 -11.015625 L 21.019531 -9.578125 C 21.964844 -9.1875 22.742188 -8.65625 23.34375 -7.992188 C 23.765625 -7.527344 24.089844 -7.011719 24.316406 -6.445312 C 24.5625 -5.835938 24.683594 -5.203125 24.683594 -4.546875 C 24.683594 -3.613281 24.449219 -2.675781 23.976562 -1.734375 L 23.957031 -1.691406 L 23.933594 -1.652344 C 22.75 0.585938 20.964844 2.238281 18.578125 3.296875 C 16.523438 4.207031 14.042969 4.660156 11.128906 4.660156 Z M 11.128906 -3.464844 C 12.894531 -3.464844 14.28125 -3.6875 15.285156 -4.132812 C 15.953125 -4.429688 16.441406 -4.867188 16.75 -5.449219 L 20.339844 -3.550781 L 16.707031 -5.367188 C 16.609375 -5.167969 16.558594 -4.894531 16.558594 -4.546875 C 16.558594 -4.15625 16.632812 -3.773438 16.78125 -3.40625 C 16.910156 -3.078125 17.09375 -2.789062 17.320312 -2.535156 C 17.464844 -2.378906 17.613281 -2.246094 17.769531 -2.148438 C 17.832031 -2.109375 17.878906 -2.082031 17.910156 -2.070312 L 14.351562 -3.542969 L 14.265625 -3.582031 C 14.25 -3.589844 14.242188 -3.59375 14.238281 -3.59375 C 14.257812 -3.585938 14.28125 -3.578125 14.308594 -3.574219 C 14.453125 -3.535156 14.617188 -3.515625 14.796875 -3.515625 C 15.464844 -3.515625 16.082031 -3.722656 16.648438 -4.132812 C 16.832031 -4.265625 16.964844 -4.390625 17.050781 -4.503906 C 16.445312 -3.695312 15.769531 -3.046875 15.027344 -2.5625 C 14.007812 -1.894531 12.746094 -1.558594 11.246094 -1.558594 C 10.441406 -1.558594 9.6875 -1.703125 8.992188 -1.984375 C 8.144531 -2.328125 7.429688 -2.847656 6.855469 -3.550781 C 5.957031 -4.636719 5.507812 -6.007812 5.507812 -7.65625 L 5.507812 -12.238281 L 19.265625 -12.238281 C 19.285156 -12.238281 19.300781 -12.242188 19.316406 -12.242188 L 19.304688 -12.238281 C 19.246094 -12.230469 19.171875 -12.214844 19.089844 -12.1875 C 18.703125 -12.066406 18.355469 -11.835938 18.042969 -11.5 C 17.808594 -11.25 17.640625 -10.972656 17.542969 -10.667969 C 17.496094 -10.527344 17.476562 -10.414062 17.476562 -10.332031 L 17.476562 -12.285156 C 17.476562 -13.285156 17.265625 -14.167969 16.847656 -14.925781 C 16.488281 -15.570312 15.898438 -16.105469 15.078125 -16.527344 C 14.105469 -17.027344 12.800781 -17.277344 11.167969 -17.277344 C 8.871094 -17.277344 7.222656 -16.8125 6.21875 -15.890625 C 5.3125 -15.0625 4.859375 -13.699219 4.859375 -11.804688 L 4.859375 -8.972656 C 4.859375 -7.167969 5.320312 -5.785156 6.238281 -4.832031 C 7.113281 -3.921875 8.746094 -3.464844 11.128906 -3.464844 Z M 8.699219 -13.480469 L 8.699219 -13.839844 L 8.703125 -13.835938 C 8.707031 -13.777344 8.722656 -13.710938 8.738281 -13.632812 C 8.828125 -13.28125 9.003906 -12.941406 9.265625 -12.621094 C 9.652344 -12.144531 10.113281 -11.816406 10.65625 -11.636719 C 10.863281 -11.566406 11.035156 -11.53125 11.167969 -11.53125 C 11.320312 -11.53125 11.507812 -11.570312 11.722656 -11.640625 C 12.222656 -11.8125 12.652344 -12.105469 13.015625 -12.53125 C 13.296875 -12.859375 13.488281 -13.207031 13.585938 -13.578125 C 13.621094 -13.703125 13.636719 -13.789062 13.636719 -13.839844 L 13.636719 -13.480469 L 9.574219 -13.480469 L 9.574219 -17.542969 L 12.761719 -17.542969 L 12.761719 -13.480469 Z M 16.828125 -9.417969 L 5.507812 -9.417969 L 5.507812 -13.839844 C 5.507812 -15.453125 5.953125 -16.78125 6.847656 -17.820312 C 7.449219 -18.523438 8.207031 -19.03125 9.117188 -19.339844 C 9.746094 -19.550781 10.429688 -19.660156 11.167969 -19.660156 C 11.914062 -19.660156 12.597656 -19.554688 13.226562 -19.34375 C 14.1875 -19.023438 14.972656 -18.488281 15.582031 -17.734375 C 16.410156 -16.707031 16.828125 -15.410156 16.828125 -13.839844 Z M 16.828125 -9.417969 "/></g></g></g><g fill="#000000" fill-opacity="1"><g transform="translate(192.259154, 38.354156)"><g><path d="M 10.6875 4.660156 C 7.402344 4.660156 4.65625 4.132812 2.449219 3.074219 C 1.183594 2.464844 0.09375 1.6875 -0.816406 0.738281 C -1.75 -0.238281 -2.472656 -1.371094 -2.980469 -2.65625 C -3.304688 -3.492188 -3.464844 -4.269531 -3.464844 -4.984375 C -3.464844 -6.339844 -3.011719 -7.511719 -2.109375 -8.507812 C -1.433594 -9.25 -0.5625 -9.800781 0.511719 -10.15625 L 1.792969 -6.300781 L 0.414062 -10.125 L 4.332031 -11.535156 L 4.378906 -11.554688 C 5.273438 -11.851562 6.074219 -12 6.78125 -12 C 7.867188 -12 8.832031 -11.71875 9.671875 -11.160156 C 10.21875 -10.792969 10.710938 -10.320312 11.148438 -9.738281 C 11.015625 -9.910156 10.84375 -10.054688 10.628906 -10.167969 C 10.417969 -10.277344 10.230469 -10.34375 10.066406 -10.375 C 10.097656 -10.367188 10.171875 -10.367188 10.289062 -10.367188 C 10.613281 -10.367188 10.859375 -10.375 11.027344 -10.390625 C 10.898438 -10.363281 10.757812 -10.316406 10.601562 -10.253906 C 10.039062 -10.019531 9.574219 -9.640625 9.203125 -9.113281 C 8.789062 -8.523438 8.582031 -7.878906 8.582031 -7.179688 C 8.582031 -6.816406 8.648438 -6.449219 8.789062 -6.082031 C 9.011719 -5.5 9.363281 -5.011719 9.851562 -4.613281 C 10.191406 -4.332031 10.542969 -4.140625 10.902344 -4.03125 C 10.945312 -4.015625 10.976562 -4.007812 11.003906 -4.003906 C 10.988281 -4.007812 10.964844 -4.007812 10.933594 -4.015625 C 10.589844 -4.0625 9.960938 -4.113281 9.046875 -4.160156 C 5.378906 -4.328125 2.535156 -5.113281 0.523438 -6.519531 C -0.769531 -7.425781 -1.742188 -8.597656 -2.390625 -10.035156 C -2.972656 -11.324219 -3.265625 -12.777344 -3.265625 -14.398438 C -3.265625 -16.082031 -2.945312 -17.621094 -2.304688 -19.011719 C -1.636719 -20.460938 -0.652344 -21.691406 0.652344 -22.707031 C 2.957031 -24.503906 6.089844 -25.402344 10.050781 -25.402344 C 13.300781 -25.402344 15.9375 -24.914062 17.957031 -23.941406 C 20.175781 -22.875 21.90625 -21.257812 23.148438 -19.09375 C 23.71875 -18.09375 24.007812 -17.097656 24.007812 -16.113281 C 24.007812 -15.445312 23.878906 -14.804688 23.625 -14.1875 C 23.394531 -13.625 23.070312 -13.113281 22.648438 -12.652344 C 22.058594 -12 21.296875 -11.472656 20.363281 -11.070312 L 16.695312 -9.476562 L 15.078125 -13.203125 L 16.796875 -9.519531 C 15.851562 -9.078125 14.945312 -8.859375 14.078125 -8.859375 C 13.074219 -8.859375 12.167969 -9.125 11.367188 -9.660156 C 10.964844 -9.929688 10.589844 -10.257812 10.242188 -10.644531 C 10.296875 -10.578125 10.378906 -10.507812 10.484375 -10.429688 L 10.417969 -10.480469 L 10.351562 -10.535156 C 10.378906 -10.511719 10.421875 -10.488281 10.476562 -10.464844 C 10.609375 -10.414062 10.71875 -10.378906 10.808594 -10.367188 C 10.773438 -10.371094 10.707031 -10.375 10.609375 -10.375 C 10.296875 -10.375 10.0625 -10.367188 9.910156 -10.351562 C 9.894531 -10.351562 9.886719 -10.351562 9.878906 -10.351562 C 9.894531 -10.351562 9.914062 -10.355469 9.941406 -10.359375 C 10.113281 -10.394531 10.296875 -10.453125 10.492188 -10.535156 C 11.148438 -10.808594 11.671875 -11.257812 12.0625 -11.875 C 12.421875 -12.441406 12.597656 -13.042969 12.597656 -13.679688 C 12.597656 -14.554688 12.3125 -15.324219 11.738281 -15.988281 C 11.355469 -16.433594 10.914062 -16.746094 10.410156 -16.925781 C 10.308594 -16.960938 10.230469 -16.984375 10.175781 -16.996094 C 10.21875 -16.988281 10.289062 -16.976562 10.382812 -16.964844 C 10.664062 -16.925781 11.046875 -16.890625 11.53125 -16.855469 C 14.324219 -16.671875 16.570312 -16.25 18.269531 -15.601562 C 20.421875 -14.773438 22.003906 -13.5625 23.015625 -11.96875 C 23.96875 -10.46875 24.445312 -8.65625 24.445312 -6.542969 C 24.445312 -4.808594 24.101562 -3.226562 23.417969 -1.800781 C 22.714844 -0.328125 21.679688 0.917969 20.316406 1.949219 C 17.914062 3.757812 14.707031 4.660156 10.6875 4.660156 Z M 10.6875 -3.464844 C 12.894531 -3.464844 14.472656 -3.824219 15.421875 -4.539062 C 15.734375 -4.773438 15.957031 -5.03125 16.089844 -5.308594 C 16.242188 -5.628906 16.316406 -6.039062 16.316406 -6.542969 C 16.316406 -6.878906 16.289062 -7.160156 16.234375 -7.382812 C 16.207031 -7.492188 16.179688 -7.570312 16.152344 -7.613281 C 16.167969 -7.59375 16.179688 -7.578125 16.1875 -7.566406 C 16.171875 -7.585938 16.140625 -7.609375 16.101562 -7.636719 C 15.929688 -7.761719 15.679688 -7.886719 15.355469 -8.011719 C 14.421875 -8.371094 12.957031 -8.617188 10.964844 -8.75 C 9.445312 -8.855469 8.34375 -9.03125 7.65625 -9.277344 C 6.820312 -9.582031 6.128906 -10.046875 5.582031 -10.683594 C 4.84375 -11.542969 4.472656 -12.542969 4.472656 -13.679688 C 4.472656 -14.613281 4.714844 -15.460938 5.199219 -16.222656 C 5.714844 -17.042969 6.429688 -17.640625 7.335938 -18.023438 C 7.847656 -18.238281 8.449219 -18.378906 9.148438 -18.445312 C 9.554688 -18.484375 10.042969 -18.503906 10.609375 -18.503906 C 11.714844 -18.503906 12.679688 -18.339844 13.496094 -18.011719 C 14.214844 -17.722656 14.882812 -17.328125 15.496094 -16.824219 L 12.921875 -13.679688 L 15.359375 -16.929688 C 15.679688 -16.691406 15.984375 -16.410156 16.28125 -16.078125 C 16.175781 -16.199219 16.039062 -16.316406 15.875 -16.421875 C 15.3125 -16.796875 14.714844 -16.988281 14.078125 -16.988281 C 13.839844 -16.988281 13.625 -16.960938 13.433594 -16.90625 C 13.394531 -16.894531 13.367188 -16.886719 13.339844 -16.875 C 13.339844 -16.875 13.347656 -16.878906 13.359375 -16.882812 L 13.40625 -16.90625 L 17.128906 -18.527344 C 17.117188 -18.519531 17.085938 -18.503906 17.042969 -18.472656 C 16.902344 -18.382812 16.769531 -18.265625 16.636719 -18.121094 C 16.417969 -17.875 16.242188 -17.597656 16.109375 -17.277344 C 15.957031 -16.902344 15.878906 -16.515625 15.878906 -16.113281 C 15.878906 -15.808594 15.921875 -15.523438 16.007812 -15.269531 C 16.039062 -15.171875 16.070312 -15.097656 16.101562 -15.046875 C 15.691406 -15.757812 15.136719 -16.28125 14.429688 -16.621094 C 13.523438 -17.058594 12.066406 -17.277344 10.050781 -17.277344 C 8.890625 -17.277344 7.90625 -17.167969 7.097656 -16.953125 C 6.480469 -16.789062 6 -16.570312 5.648438 -16.300781 C 5.382812 -16.09375 5.191406 -15.863281 5.078125 -15.609375 C 4.933594 -15.296875 4.859375 -14.894531 4.859375 -14.398438 C 4.859375 -13.734375 4.96875 -13.332031 5.179688 -13.183594 C 5.460938 -12.984375 5.894531 -12.8125 6.484375 -12.660156 C 7.28125 -12.457031 8.273438 -12.328125 9.460938 -12.273438 C 10.621094 -12.214844 11.496094 -12.144531 12.082031 -12.058594 C 13.292969 -11.886719 14.265625 -11.5 14.996094 -10.902344 C 15.632812 -10.382812 16.09375 -9.738281 16.386719 -8.964844 C 16.601562 -8.402344 16.707031 -7.808594 16.707031 -7.179688 C 16.707031 -6.160156 16.417969 -5.242188 15.84375 -4.425781 C 15.3125 -3.675781 14.609375 -3.117188 13.726562 -2.75 C 12.910156 -2.410156 11.761719 -2.238281 10.289062 -2.238281 C 8.9375 -2.238281 7.800781 -2.476562 6.878906 -2.957031 C 6 -3.414062 5.257812 -4.046875 4.648438 -4.859375 C 4.765625 -4.703125 4.9375 -4.546875 5.164062 -4.398438 C 5.6875 -4.046875 6.226562 -3.875 6.78125 -3.875 C 6.933594 -3.875 7.058594 -3.882812 7.152344 -3.902344 C 7.113281 -3.894531 7.046875 -3.875 6.949219 -3.84375 L 5.664062 -7.699219 L 7.042969 -3.875 L 3.128906 -2.460938 L 3.078125 -2.445312 C 3.351562 -2.539062 3.628906 -2.734375 3.902344 -3.039062 C 4.148438 -3.3125 4.339844 -3.621094 4.472656 -3.96875 C 4.597656 -4.304688 4.660156 -4.640625 4.660156 -4.984375 C 4.660156 -5.199219 4.640625 -5.386719 4.601562 -5.558594 C 4.59375 -5.585938 4.585938 -5.613281 4.582031 -5.628906 C 4.582031 -5.628906 4.582031 -5.632812 4.578125 -5.640625 C 5.148438 -4.191406 7.1875 -3.464844 10.6875 -3.464844 Z M 10.6875 -3.464844 "/></g></g></g><g fill="#ffde59" fill-opacity="1"><g transform="translate(3.40089, 38.354156)"><g><path d="M 3.34375 0 C 2.6875 0 2.226562 -0.125 1.96875 -0.375 C 1.71875 -0.632812 1.59375 -1.09375 1.59375 -1.75 L 1.59375 -26.5625 C 1.59375 -27.226562 1.71875 -27.6875 1.96875 -27.9375 C 2.226562 -28.195312 2.6875 -28.328125 3.34375 -28.328125 L 15.484375 -28.328125 C 18.378906 -28.328125 20.628906 -27.671875 22.234375 -26.359375 C 23.847656 -25.054688 24.65625 -23.195312 24.65625 -20.78125 C 24.65625 -19.445312 24.421875 -18.320312 23.953125 -17.40625 C 23.484375 -16.488281 22.71875 -15.671875 21.65625 -14.953125 L 21.65625 -14.765625 C 23.007812 -14.171875 24.046875 -13.300781 24.765625 -12.15625 C 25.484375 -11.019531 25.84375 -9.613281 25.84375 -7.9375 C 25.84375 -5.414062 24.898438 -3.460938 23.015625 -2.078125 C 21.128906 -0.691406 18.671875 0 15.640625 0 Z M 14.046875 -7.09375 C 14.785156 -7.09375 15.328125 -7.234375 15.671875 -7.515625 C 16.023438 -7.796875 16.203125 -8.28125 16.203125 -8.96875 C 16.203125 -9.613281 16.023438 -10.070312 15.671875 -10.34375 C 15.328125 -10.625 14.785156 -10.765625 14.046875 -10.765625 L 10.84375 -10.765625 L 10.84375 -7.09375 Z M 13.25 -17.90625 C 13.9375 -17.90625 14.445312 -18.03125 14.78125 -18.28125 C 15.113281 -18.539062 15.28125 -18.976562 15.28125 -19.59375 C 15.28125 -20.195312 15.113281 -20.628906 14.78125 -20.890625 C 14.445312 -21.160156 13.9375 -21.296875 13.25 -21.296875 L 10.84375 -21.296875 L 10.84375 -17.90625 Z M 13.25 -17.90625 "/></g></g></g><g fill="#ffde59" fill-opacity="1"><g transform="translate(29.805153, 38.354156)"><g><path d="M 2.90625 0 C 2.320312 0 1.910156 -0.117188 1.671875 -0.359375 C 1.429688 -0.597656 1.3125 -1.007812 1.3125 -1.59375 L 1.3125 -19.140625 C 1.3125 -19.753906 1.429688 -20.175781 1.671875 -20.40625 C 1.910156 -20.632812 2.320312 -20.75 2.90625 -20.75 L 8.5 -20.75 C 9.113281 -20.75 9.53125 -20.632812 9.75 -20.40625 C 9.976562 -20.175781 10.09375 -19.753906 10.09375 -19.140625 L 10.09375 -1.59375 C 10.09375 -1.007812 9.976562 -0.597656 9.75 -0.359375 C 9.53125 -0.117188 9.113281 0 8.5 0 Z M 1.078125 -26.453125 C 1.078125 -27.617188 1.296875 -28.421875 1.734375 -28.859375 C 2.171875 -29.296875 2.976562 -29.515625 4.15625 -29.515625 L 7.265625 -29.515625 C 8.429688 -29.515625 9.234375 -29.296875 9.671875 -28.859375 C 10.109375 -28.421875 10.328125 -27.617188 10.328125 -26.453125 L 10.328125 -26.015625 C 10.328125 -24.835938 10.109375 -24.03125 9.671875 -23.59375 C 9.234375 -23.15625 8.429688 -22.9375 7.265625 -22.9375 L 4.15625 -22.9375 C 2.976562 -22.9375 2.171875 -23.15625 1.734375 -23.59375 C 1.296875 -24.03125 1.078125 -24.835938 1.078125 -26.015625 Z M 1.078125 -26.453125 "/></g></g></g><g fill="#ffde59" fill-opacity="1"><g transform="translate(41.212433, 38.354156)"><g><path d="M 2.875 0 C 2.289062 0 1.882812 -0.109375 1.65625 -0.328125 C 1.425781 -0.554688 1.3125 -0.976562 1.3125 -1.59375 L 1.3125 -27.921875 C 1.3125 -28.535156 1.425781 -28.953125 1.65625 -29.171875 C 1.882812 -29.398438 2.289062 -29.515625 2.875 -29.515625 L 8.5 -29.515625 C 9.082031 -29.515625 9.484375 -29.394531 9.703125 -29.15625 C 9.929688 -28.914062 10.046875 -28.503906 10.046875 -27.921875 L 10.046875 -13.921875 L 10.6875 -13.921875 L 12.921875 -19.0625 C 13.210938 -19.726562 13.550781 -20.175781 13.9375 -20.40625 C 14.320312 -20.632812 14.957031 -20.75 15.84375 -20.75 L 20.21875 -20.75 C 21.394531 -20.75 21.984375 -20.375 21.984375 -19.625 C 21.984375 -19.414062 21.890625 -19.070312 21.703125 -18.59375 L 17.984375 -10.453125 L 18.390625 -9.6875 L 21.984375 -2.234375 C 22.222656 -1.753906 22.34375 -1.351562 22.34375 -1.03125 C 22.34375 -0.34375 21.726562 0 20.5 0 L 15.953125 0 C 14.941406 0 14.21875 -0.101562 13.78125 -0.3125 C 13.34375 -0.53125 13.019531 -0.972656 12.8125 -1.640625 L 11.28125 -6.34375 C 11.101562 -6.90625 10.734375 -7.1875 10.171875 -7.1875 L 10.046875 -7.1875 L 10.046875 -1.59375 C 10.046875 -1.007812 9.929688 -0.597656 9.703125 -0.359375 C 9.484375 -0.117188 9.082031 0 8.5 0 Z M 2.875 0 "/></g></g></g><g fill="#ffde59" fill-opacity="1"><g transform="translate(63.269163, 38.354156)"><g><path d="M 11.125 0.59375 C 7.59375 0.59375 4.988281 -0.273438 3.3125 -2.015625 C 1.632812 -3.753906 0.796875 -6.070312 0.796875 -8.96875 L 0.796875 -11.8125 C 0.796875 -14.894531 1.6875 -17.253906 3.46875 -18.890625 C 5.25 -20.523438 7.816406 -21.34375 11.171875 -21.34375 C 13.453125 -21.34375 15.367188 -20.941406 16.921875 -20.140625 C 18.484375 -19.347656 19.644531 -18.265625 20.40625 -16.890625 C 21.164062 -15.523438 21.546875 -13.988281 21.546875 -12.28125 L 21.546875 -10.328125 C 21.546875 -9.640625 21.367188 -9.109375 21.015625 -8.734375 C 20.671875 -8.359375 20.085938 -8.171875 19.265625 -8.171875 L 9.578125 -8.171875 L 9.578125 -7.65625 C 9.578125 -6.300781 10.132812 -5.625 11.25 -5.625 C 11.9375 -5.625 12.453125 -5.734375 12.796875 -5.953125 C 13.148438 -6.179688 13.484375 -6.507812 13.796875 -6.9375 C 13.960938 -7.15625 14.117188 -7.316406 14.265625 -7.421875 C 14.410156 -7.523438 14.585938 -7.578125 14.796875 -7.578125 C 15.140625 -7.578125 15.539062 -7.472656 16 -7.265625 L 19.46875 -5.828125 C 20.238281 -5.503906 20.625 -5.078125 20.625 -4.546875 C 20.625 -4.253906 20.53125 -3.921875 20.34375 -3.546875 C 19.601562 -2.140625 18.46875 -1.097656 16.9375 -0.421875 C 15.40625 0.253906 13.46875 0.59375 11.125 0.59375 Z M 12.765625 -13.484375 L 12.765625 -13.84375 C 12.765625 -14.457031 12.648438 -14.898438 12.421875 -15.171875 C 12.203125 -15.453125 11.785156 -15.59375 11.171875 -15.59375 C 10.585938 -15.59375 10.175781 -15.453125 9.9375 -15.171875 C 9.695312 -14.898438 9.578125 -14.457031 9.578125 -13.84375 L 9.578125 -13.484375 Z M 12.765625 -13.484375 "/></g></g></g><g fill="#ffde59" fill-opacity="1"><g transform="translate(85.405663, 38.354156)"><g/></g></g><g fill="#ffde59" fill-opacity="1"><g transform="translate(91.707587, 38.354156)"><g><path d="M 12.71875 0.59375 C 9.738281 0.59375 7.171875 0.0976562 5.015625 -0.890625 C 2.867188 -1.890625 1.4375 -3.375 0.71875 -5.34375 C 0.582031 -5.6875 0.515625 -5.976562 0.515625 -6.21875 C 0.515625 -6.539062 0.617188 -6.8125 0.828125 -7.03125 C 1.046875 -7.257812 1.378906 -7.457031 1.828125 -7.625 L 6.421875 -9.25 C 6.867188 -9.414062 7.242188 -9.5 7.546875 -9.5 C 8.097656 -9.5 8.570312 -9.148438 8.96875 -8.453125 C 9.289062 -7.953125 9.765625 -7.585938 10.390625 -7.359375 C 11.015625 -7.128906 11.832031 -7.015625 12.84375 -7.015625 C 13.957031 -7.015625 14.796875 -7.113281 15.359375 -7.3125 C 15.921875 -7.519531 16.203125 -7.890625 16.203125 -8.421875 C 16.203125 -8.953125 15.878906 -9.335938 15.234375 -9.578125 C 14.597656 -9.816406 13.585938 -10.039062 12.203125 -10.25 C 9.867188 -10.644531 7.96875 -11.078125 6.5 -11.546875 C 5.039062 -12.015625 3.722656 -12.910156 2.546875 -14.234375 C 1.378906 -15.566406 0.796875 -17.484375 0.796875 -19.984375 C 0.796875 -21.765625 1.28125 -23.332031 2.25 -24.6875 C 3.21875 -26.050781 4.625 -27.097656 6.46875 -27.828125 C 8.320312 -28.554688 10.523438 -28.921875 13.078125 -28.921875 C 16.109375 -28.921875 18.5625 -28.5 20.4375 -27.65625 C 22.3125 -26.820312 23.71875 -25.460938 24.65625 -23.578125 C 24.84375 -23.203125 24.9375 -22.882812 24.9375 -22.625 C 24.9375 -22.082031 24.507812 -21.628906 23.65625 -21.265625 L 18.75 -19.1875 C 18.351562 -19.03125 18.035156 -18.953125 17.796875 -18.953125 C 17.523438 -18.953125 17.296875 -19.035156 17.109375 -19.203125 C 16.921875 -19.378906 16.722656 -19.664062 16.515625 -20.0625 C 16.191406 -20.675781 15.726562 -21.082031 15.125 -21.28125 C 14.53125 -21.476562 13.847656 -21.578125 13.078125 -21.578125 C 12.066406 -21.578125 11.335938 -21.457031 10.890625 -21.21875 C 10.441406 -20.976562 10.21875 -20.632812 10.21875 -20.1875 C 10.21875 -19.601562 10.566406 -19.179688 11.265625 -18.921875 C 11.972656 -18.671875 13.125 -18.441406 14.71875 -18.234375 C 16.84375 -17.910156 18.644531 -17.492188 20.125 -16.984375 C 21.601562 -16.484375 22.882812 -15.554688 23.96875 -14.203125 C 25.0625 -12.847656 25.609375 -10.929688 25.609375 -8.453125 C 25.609375 -6.460938 25.019531 -4.785156 23.84375 -3.421875 C 22.675781 -2.066406 21.125 -1.054688 19.1875 -0.390625 C 17.25 0.265625 15.09375 0.59375 12.71875 0.59375 Z M 12.71875 0.59375 "/></g></g></g><g fill="#ffde59" fill-opacity="1"><g transform="translate(117.433793, 38.354156)"><g><path d="M 13.71875 0 C 10.132812 0 7.46875 -0.675781 5.71875 -2.03125 C 3.976562 -3.382812 3.109375 -5.632812 3.109375 -8.78125 L 3.109375 -14 L 1.75 -14 C 1.164062 -14 0.757812 -14.113281 0.53125 -14.34375 C 0.3125 -14.570312 0.203125 -14.988281 0.203125 -15.59375 L 0.203125 -19.140625 C 0.203125 -19.753906 0.3125 -20.175781 0.53125 -20.40625 C 0.757812 -20.632812 1.164062 -20.75 1.75 -20.75 L 3.109375 -20.75 L 3.109375 -23.9375 C 3.109375 -24.550781 3.226562 -24.96875 3.46875 -25.1875 C 3.707031 -25.414062 4.117188 -25.53125 4.703125 -25.53125 L 10.296875 -25.53125 C 10.898438 -25.53125 11.316406 -25.414062 11.546875 -25.1875 C 11.773438 -24.96875 11.890625 -24.550781 11.890625 -23.9375 L 11.890625 -20.75 L 13.796875 -20.75 C 14.390625 -20.75 14.796875 -20.628906 15.015625 -20.390625 C 15.242188 -20.148438 15.359375 -19.734375 15.359375 -19.140625 L 15.359375 -15.59375 C 15.359375 -15.007812 15.242188 -14.597656 15.015625 -14.359375 C 14.796875 -14.117188 14.390625 -14 13.796875 -14 L 11.890625 -14 L 11.890625 -9.5 C 11.890625 -8.25 12.5 -7.625 13.71875 -7.625 C 14.332031 -7.625 14.757812 -7.503906 15 -7.265625 C 15.238281 -7.023438 15.359375 -6.597656 15.359375 -5.984375 L 15.359375 -1.71875 C 15.359375 -1.082031 15.238281 -0.632812 15 -0.375 C 14.757812 -0.125 14.332031 0 13.71875 0 Z M 13.71875 0 "/></g></g></g><g fill="#ffde59" fill-opacity="1"><g transform="translate(133.467793, 38.354156)"><g><path d="M 11.09375 0.59375 C 7.789062 0.59375 5.253906 -0.203125 3.484375 -1.796875 C 1.722656 -3.390625 0.84375 -5.609375 0.84375 -8.453125 L 0.84375 -12.28125 C 0.84375 -15.125 1.722656 -17.34375 3.484375 -18.9375 C 5.253906 -20.539062 7.789062 -21.34375 11.09375 -21.34375 C 14.4375 -21.34375 16.984375 -20.539062 18.734375 -18.9375 C 20.492188 -17.34375 21.375 -15.125 21.375 -12.28125 L 21.375 -8.453125 C 21.375 -5.609375 20.492188 -3.390625 18.734375 -1.796875 C 16.984375 -0.203125 14.4375 0.59375 11.09375 0.59375 Z M 9.578125 -8.09375 C 9.578125 -7.25 10.082031 -6.828125 11.09375 -6.828125 C 12.125 -6.828125 12.640625 -7.25 12.640625 -8.09375 L 12.640625 -12.640625 C 12.640625 -13.523438 12.125 -13.96875 11.09375 -13.96875 C 10.082031 -13.96875 9.578125 -13.523438 9.578125 -12.640625 Z M 9.578125 -8.09375 "/></g></g></g><g fill="#ffde59" fill-opacity="1"><g transform="translate(155.684069, 38.354156)"><g><path d="M 2.875 0 C 2.289062 0 1.878906 -0.117188 1.640625 -0.359375 C 1.398438 -0.597656 1.28125 -1.007812 1.28125 -1.59375 L 1.28125 -16.90625 C 1.28125 -17.625 1.390625 -18.15625 1.609375 -18.5 C 1.835938 -18.851562 2.296875 -19.160156 2.984375 -19.421875 C 5.242188 -20.304688 8.078125 -20.75 11.484375 -20.75 L 12.6875 -20.75 C 13.300781 -20.75 13.71875 -20.632812 13.9375 -20.40625 C 14.164062 -20.175781 14.28125 -19.753906 14.28125 -19.140625 L 14.28125 -14.875 C 14.28125 -14.289062 14.164062 -13.878906 13.9375 -13.640625 C 13.71875 -13.398438 13.300781 -13.28125 12.6875 -13.28125 L 11.125 -13.28125 C 10.726562 -13.28125 10.4375 -13.269531 10.25 -13.25 C 10.113281 -13.25 10.046875 -13.164062 10.046875 -13 L 10.046875 -1.59375 C 10.046875 -1.007812 9.929688 -0.597656 9.703125 -0.359375 C 9.484375 -0.117188 9.066406 0 8.453125 0 Z M 2.875 0 "/></g></g></g><g fill="#ffde59" fill-opacity="1"><g transform="translate(170.122647, 38.354156)"><g><path d="M 11.125 0.59375 C 7.59375 0.59375 4.988281 -0.273438 3.3125 -2.015625 C 1.632812 -3.753906 0.796875 -6.070312 0.796875 -8.96875 L 0.796875 -11.8125 C 0.796875 -14.894531 1.6875 -17.253906 3.46875 -18.890625 C 5.25 -20.523438 7.816406 -21.34375 11.171875 -21.34375 C 13.453125 -21.34375 15.367188 -20.941406 16.921875 -20.140625 C 18.484375 -19.347656 19.644531 -18.265625 20.40625 -16.890625 C 21.164062 -15.523438 21.546875 -13.988281 21.546875 -12.28125 L 21.546875 -10.328125 C 21.546875 -9.640625 21.367188 -9.109375 21.015625 -8.734375 C 20.671875 -8.359375 20.085938 -8.171875 19.265625 -8.171875 L 9.578125 -8.171875 L 9.578125 -7.65625 C 9.578125 -6.300781 10.132812 -5.625 11.25 -5.625 C 11.9375 -5.625 12.453125 -5.734375 12.796875 -5.953125 C 13.148438 -6.179688 13.484375 -6.507812 13.796875 -6.9375 C 13.960938 -7.15625 14.117188 -7.316406 14.265625 -7.421875 C 14.410156 -7.523438 14.585938 -7.578125 14.796875 -7.578125 C 15.140625 -7.578125 15.539062 -7.472656 16 -7.265625 L 19.46875 -5.828125 C 20.238281 -5.503906 20.625 -5.078125 20.625 -4.546875 C 20.625 -4.253906 20.53125 -3.921875 20.34375 -3.546875 C 19.601562 -2.140625 18.46875 -1.097656 16.9375 -0.421875 C 15.40625 0.253906 13.46875 0.59375 11.125 0.59375 Z M 12.765625 -13.484375 L 12.765625 -13.84375 C 12.765625 -14.457031 12.648438 -14.898438 12.421875 -15.171875 C 12.203125 -15.453125 11.785156 -15.59375 11.171875 -15.59375 C 10.585938 -15.59375 10.175781 -15.453125 9.9375 -15.171875 C 9.695312 -14.898438 9.578125 -14.457031 9.578125 -13.84375 L 9.578125 -13.484375 Z M 12.765625 -13.484375 "/></g></g></g><g fill="#ffde59" fill-opacity="1"><g transform="translate(192.259154, 38.354156)"><g><path d="M 10.6875 0.59375 C 5.34375 0.59375 2.046875 -0.988281 0.796875 -4.15625 C 0.660156 -4.5 0.59375 -4.773438 0.59375 -4.984375 C 0.59375 -5.597656 0.992188 -6.035156 1.796875 -6.296875 L 5.671875 -7.703125 C 6.140625 -7.859375 6.507812 -7.9375 6.78125 -7.9375 C 7.050781 -7.9375 7.265625 -7.882812 7.421875 -7.78125 C 7.578125 -7.675781 7.734375 -7.515625 7.890625 -7.296875 C 8.128906 -6.984375 8.414062 -6.738281 8.75 -6.5625 C 9.082031 -6.382812 9.597656 -6.296875 10.296875 -6.296875 C 11.222656 -6.296875 11.84375 -6.363281 12.15625 -6.5 C 12.476562 -6.632812 12.640625 -6.863281 12.640625 -7.1875 C 12.640625 -7.445312 12.566406 -7.632812 12.421875 -7.75 C 12.273438 -7.875 11.96875 -7.96875 11.5 -8.03125 C 11.039062 -8.101562 10.289062 -8.164062 9.25 -8.21875 C 6.351562 -8.351562 4.21875 -8.894531 2.84375 -9.84375 C 1.476562 -10.800781 0.796875 -12.320312 0.796875 -14.40625 C 0.796875 -16.582031 1.578125 -18.28125 3.140625 -19.5 C 4.710938 -20.726562 7.015625 -21.34375 10.046875 -21.34375 C 12.679688 -21.34375 14.726562 -20.988281 16.1875 -20.28125 C 17.65625 -19.582031 18.800781 -18.515625 19.625 -17.078125 C 19.832031 -16.703125 19.9375 -16.378906 19.9375 -16.109375 C 19.9375 -15.578125 19.539062 -15.140625 18.75 -14.796875 L 15.078125 -13.203125 C 14.679688 -13.015625 14.347656 -12.921875 14.078125 -12.921875 C 13.890625 -12.921875 13.734375 -12.957031 13.609375 -13.03125 C 13.492188 -13.113281 13.375 -13.222656 13.25 -13.359375 C 13.132812 -13.492188 13.023438 -13.601562 12.921875 -13.6875 C 12.628906 -13.925781 12.316406 -14.109375 11.984375 -14.234375 C 11.648438 -14.367188 11.191406 -14.4375 10.609375 -14.4375 C 9.734375 -14.4375 9.164062 -14.382812 8.90625 -14.28125 C 8.65625 -14.175781 8.53125 -13.976562 8.53125 -13.6875 C 8.53125 -13.414062 8.695312 -13.21875 9.03125 -13.09375 C 9.363281 -12.976562 10.101562 -12.882812 11.25 -12.8125 C 13.644531 -12.644531 15.5 -12.304688 16.8125 -11.796875 C 18.125 -11.296875 19.046875 -10.625 19.578125 -9.78125 C 20.117188 -8.945312 20.390625 -7.867188 20.390625 -6.546875 C 20.390625 -4.304688 19.550781 -2.554688 17.875 -1.296875 C 16.195312 -0.0351562 13.800781 0.59375 10.6875 0.59375 Z M 10.6875 0.59375 "/></g></g></g></g></g></svg>