<svg xmlns="http://www.w3.org/2000/svg" viewBox="0 0 48 48" role="img" aria-label="Gmail">
  <path fill="#4caf50" d="M45 16.18v17.64c0 .83-.67 1.5-1.5 1.5H4.5c-.83 0-1.5-.67-1.5-1.5V16.18l19.69 12.34c.62.39 1.41.39 2.03 0L45 16.18z"/>
  <path fill="#1e88e5" d="M45 16.18 28.72 26.36 45 35.32V16.18z"/>
  <path fill="#e53935" d="M3 16.18v19.14c0 .83.67 1.5 1.5 1.5h1.5V16.18L3 16.18z"/>
  <path fill="#c62828" d="M45 16.18 19.28 26.36 3 16.18 19.28 6 28.72 6 45 16.18z"/>
  <path fill="#fbc02d" d="M43.5 6H28.72L19.28 6 4.5 6C3.67 6 3 6.67 3 7.5v8.68l16.28 10.18 9.44-10.18L45 16.18V7.5c0-.83-.67-1.5-1.5-1.5z"/>
</svg>
