<svg xmlns="http://www.w3.org/2000/svg" xmlns:xlink="http://www.w3.org/1999/xlink" width="351" zoomAndPan="magnify" viewBox="0 0 263.25 65.249999" height="87" preserveAspectRatio="xMidYMid meet" version="1.0"><defs><g/><clipPath id="f70138fded"><path d="M 130 12 L 159 12 L 159 51.894531 L 130 51.894531 Z M 130 12 " clip-rule="nonzero"/></clipPath><clipPath id="d984a72b73"><path d="M 205 12 L 234.652344 12 L 234.652344 44 L 205 44 Z M 205 12 " clip-rule="nonzero"/></clipPath><clipPath id="5ae5bbd06b"><rect x="0" width="235" y="0" height="52"/></clipPath></defs><g transform="matrix(1, 0, 0, 1, 13, 6)"><g clip-path="url(#5ae5bbd06b)"><g fill="#000000" fill-opacity="1"><g transform="translate(3.69616, 38.354156)"><g><path d="M 3.351562 4.0625 C 1.605469 4.0625 0.214844 3.574219 -0.820312 2.589844 C -1.917969 1.550781 -2.46875 0.128906 -2.46875 -1.675781 L -2.46875 -26.644531 C -2.46875 -28.445312 -1.917969 -29.867188 -0.820312 -30.910156 C 0.214844 -31.890625 1.605469 -32.382812 3.351562 -32.382812 L 8.214844 -32.382812 C 9.578125 -32.382812 10.703125 -32.167969 11.589844 -31.742188 C 12.789062 -31.167969 13.710938 -30.195312 14.363281 -28.820312 L 20.1875 -16.449219 L 16.511719 -14.71875 L 12.84375 -16.464844 L 18.707031 -28.789062 C 19.308594 -30.125 20.175781 -31.089844 21.3125 -31.683594 C 22.207031 -32.148438 23.332031 -32.382812 24.6875 -32.382812 L 29.835938 -32.382812 C 31.578125 -32.382812 32.96875 -31.890625 34.003906 -30.910156 C 35.105469 -29.867188 35.652344 -28.445312 35.652344 -26.644531 L 35.652344 -1.675781 C 35.652344 0.128906 35.105469 1.550781 34.003906 2.589844 C 32.96875 3.574219 31.578125 4.0625 29.835938 4.0625 L 24.171875 4.0625 C 22.425781 4.0625 21.035156 3.574219 20 2.589844 C 18.902344 1.550781 18.351562 0.128906 18.351562 -1.675781 L 18.351562 -4.148438 C 18.351562 -6.046875 18.503906 -7.910156 18.804688 -9.738281 C 19.097656 -11.511719 19.722656 -14.007812 20.671875 -17.226562 L 24.570312 -16.074219 L 24.570312 -12.011719 L 24.089844 -12.011719 L 24.089844 -16.074219 L 27.890625 -14.636719 C 26.683594 -11.441406 25.925781 -9.46875 25.621094 -8.71875 L 25.601562 -8.675781 L 23.871094 -4.683594 C 23.34375 -3.476562 22.578125 -2.566406 21.582031 -1.949219 C 20.648438 -1.371094 19.515625 -1.082031 18.1875 -1.082031 L 14.679688 -1.082031 C 13.347656 -1.082031 12.21875 -1.371094 11.28125 -1.949219 C 10.351562 -2.527344 9.605469 -3.371094 9.050781 -4.484375 L 9.015625 -4.550781 L 7.191406 -8.570312 C 6.863281 -9.285156 6.132812 -11.363281 4.996094 -14.796875 L 8.855469 -16.074219 L 8.855469 -12.011719 L 8.375 -12.011719 L 8.375 -16.074219 L 12.304688 -17.109375 C 13.246094 -13.542969 13.839844 -10.957031 14.085938 -9.355469 C 14.34375 -7.6875 14.472656 -5.9375 14.472656 -4.109375 L 14.472656 -1.675781 C 14.472656 0.128906 13.925781 1.550781 12.824219 2.589844 C 11.789062 3.574219 10.398438 4.0625 8.65625 4.0625 Z M 3.351562 -4.0625 L 8.65625 -4.0625 C 8.671875 -4.0625 8.6875 -4.0625 8.695312 -4.0625 C 8.695312 -4.0625 8.691406 -4.0625 8.683594 -4.0625 C 8.625 -4.054688 8.554688 -4.042969 8.472656 -4.023438 C 8.027344 -3.90625 7.617188 -3.667969 7.238281 -3.308594 C 6.828125 -2.921875 6.550781 -2.480469 6.410156 -1.992188 C 6.367188 -1.84375 6.347656 -1.738281 6.347656 -1.675781 L 6.347656 -4.109375 C 6.347656 -5.523438 6.25 -6.859375 6.054688 -8.113281 C 5.851562 -9.4375 5.316406 -11.746094 4.445312 -15.039062 L 3.101562 -20.136719 L 11.789062 -20.136719 L 12.710938 -17.347656 C 13.757812 -14.191406 14.382812 -12.382812 14.589844 -11.933594 L 16.382812 -7.984375 L 12.683594 -6.300781 L 16.316406 -8.117188 C 16.289062 -8.179688 16.238281 -8.253906 16.167969 -8.339844 C 16.003906 -8.535156 15.800781 -8.710938 15.558594 -8.859375 C 15.292969 -9.027344 15.027344 -9.136719 14.765625 -9.191406 C 14.71875 -9.199219 14.675781 -9.207031 14.644531 -9.210938 C 14.652344 -9.207031 14.664062 -9.207031 14.679688 -9.207031 L 18.1875 -9.207031 C 18.203125 -9.207031 18.214844 -9.207031 18.222656 -9.210938 C 18.1875 -9.207031 18.148438 -9.199219 18.097656 -9.191406 C 17.839844 -9.136719 17.574219 -9.027344 17.304688 -8.859375 C 17.03125 -8.691406 16.804688 -8.488281 16.621094 -8.253906 C 16.527344 -8.136719 16.460938 -8.023438 16.414062 -7.921875 L 18.128906 -11.871094 L 21.855469 -10.25 L 18.09375 -11.785156 C 18.375 -12.46875 19.105469 -14.378906 20.289062 -17.511719 L 21.285156 -20.136719 L 30.007812 -20.136719 L 28.464844 -14.921875 C 27.609375 -12.023438 27.0625 -9.855469 26.824219 -8.410156 C 26.59375 -7.023438 26.480469 -5.601562 26.480469 -4.148438 L 26.480469 -1.675781 C 26.480469 -1.738281 26.457031 -1.84375 26.414062 -1.992188 C 26.273438 -2.480469 26 -2.921875 25.589844 -3.308594 C 25.210938 -3.667969 24.796875 -3.90625 24.355469 -4.023438 C 24.273438 -4.042969 24.203125 -4.054688 24.140625 -4.0625 C 24.132812 -4.0625 24.128906 -4.0625 24.128906 -4.0625 C 24.140625 -4.0625 24.152344 -4.0625 24.171875 -4.0625 L 29.835938 -4.0625 C 29.851562 -4.0625 29.867188 -4.0625 29.875 -4.0625 C 29.875 -4.0625 29.871094 -4.0625 29.863281 -4.0625 C 29.804688 -4.054688 29.734375 -4.042969 29.652344 -4.023438 C 29.207031 -3.90625 28.796875 -3.667969 28.414062 -3.308594 C 28.007812 -2.921875 27.730469 -2.480469 27.589844 -1.992188 C 27.546875 -1.84375 27.527344 -1.738281 27.527344 -1.675781 L 27.527344 -26.644531 C 27.527344 -26.582031 27.546875 -26.476562 27.589844 -26.328125 C 27.730469 -25.835938 28.007812 -25.398438 28.414062 -25.011719 C 28.796875 -24.652344 29.207031 -24.414062 29.652344 -24.296875 C 29.734375 -24.277344 29.804688 -24.261719 29.863281 -24.253906 C 29.871094 -24.253906 29.875 -24.253906 29.875 -24.253906 C 29.867188 -24.253906 29.851562 -24.253906 29.835938 -24.253906 L 24.6875 -24.253906 C 24.558594 -24.253906 24.476562 -24.253906 24.4375 -24.246094 C 24.625 -24.277344 24.835938 -24.351562 25.074219 -24.476562 C 25.433594 -24.664062 25.726562 -24.902344 25.949219 -25.183594 C 26.019531 -25.273438 26.050781 -25.3125 26.046875 -25.296875 L 16.496094 -5.21875 L 7.015625 -25.34375 C 7.054688 -25.265625 7.121094 -25.171875 7.214844 -25.0625 C 7.441406 -24.796875 7.726562 -24.582031 8.074219 -24.417969 C 8.277344 -24.320312 8.445312 -24.257812 8.582031 -24.238281 C 8.511719 -24.25 8.390625 -24.253906 8.214844 -24.253906 L 3.351562 -24.253906 C 3.332031 -24.253906 3.320312 -24.253906 3.308594 -24.253906 C 3.308594 -24.253906 3.3125 -24.253906 3.320312 -24.253906 C 3.382812 -24.261719 3.453125 -24.277344 3.535156 -24.296875 C 3.976562 -24.414062 4.390625 -24.652344 4.769531 -25.011719 C 5.179688 -25.398438 5.453125 -25.835938 5.59375 -26.328125 C 5.636719 -26.476562 5.660156 -26.582031 5.660156 -26.644531 L 5.660156 -1.675781 C 5.660156 -1.738281 5.636719 -1.84375 5.59375 -1.992188 C 5.453125 -2.480469 5.179688 -2.921875 4.769531 -3.308594 C 4.390625 -3.667969 3.976562 -3.90625 3.535156 -4.023438 C 3.453125 -4.042969 3.382812 -4.054688 3.320312 -4.0625 C 3.3125 -4.0625 3.308594 -4.0625 3.308594 -4.0625 C 3.320312 -4.0625 3.332031 -4.0625 3.351562 -4.0625 Z M 3.351562 -4.0625 "/></g></g></g><g fill="#000000" fill-opacity="1"><g transform="translate(36.880967, 38.354156)"><g><path d="M 10.488281 4.660156 C 7.480469 4.660156 5.058594 4.363281 3.222656 3.761719 C 0.847656 2.984375 -0.886719 1.695312 -1.980469 -0.109375 C -2.945312 -1.699219 -3.425781 -3.683594 -3.425781 -6.0625 C -3.425781 -8.695312 -2.84375 -10.847656 -1.675781 -12.519531 C -0.433594 -14.296875 1.382812 -15.507812 3.773438 -16.148438 C 5.554688 -16.628906 7.859375 -16.867188 10.6875 -16.867188 L 11.488281 -16.867188 L 11.488281 -12.804688 L 7.421875 -12.804688 L 7.421875 -13.960938 C 7.421875 -13.628906 7.492188 -13.292969 7.628906 -12.949219 C 7.828125 -12.457031 8.132812 -12.039062 8.546875 -11.699219 C 8.875 -11.425781 9.234375 -11.234375 9.621094 -11.128906 C 9.800781 -11.078125 9.957031 -11.054688 10.089844 -11.054688 C 10.222656 -11.054688 10.375 -11.078125 10.550781 -11.125 C 10.902344 -11.21875 11.238281 -11.386719 11.546875 -11.628906 C 11.597656 -11.667969 11.648438 -11.722656 11.707031 -11.800781 C 11.429688 -11.433594 11.199219 -11.15625 11.011719 -10.96875 L 8.136719 -13.839844 L 11.386719 -11.402344 C 10.878906 -10.722656 10.273438 -10.191406 9.570312 -9.804688 C 8.765625 -9.359375 7.902344 -9.140625 6.980469 -9.140625 C 6.152344 -9.140625 5.261719 -9.324219 4.3125 -9.695312 L 0.734375 -11.15625 C -0.222656 -11.554688 -1.003906 -12.082031 -1.605469 -12.746094 C -2.027344 -13.210938 -2.351562 -13.726562 -2.578125 -14.296875 C -2.824219 -14.902344 -2.945312 -15.535156 -2.945312 -16.195312 C -2.945312 -17.125 -2.710938 -18.0625 -2.238281 -19.007812 L -2.21875 -19.046875 L -2.195312 -19.089844 C -1.011719 -21.328125 0.773438 -22.976562 3.160156 -24.035156 C 5.210938 -24.945312 7.695312 -25.402344 10.609375 -25.402344 C 15.210938 -25.402344 18.644531 -24.234375 20.917969 -21.898438 C 23.164062 -19.59375 24.285156 -16.46875 24.285156 -12.523438 L 24.285156 -3.070312 C 24.285156 -1.523438 23.980469 -0.261719 23.367188 0.71875 C 22.710938 1.769531 21.664062 2.59375 20.230469 3.191406 C 18 4.171875 14.753906 4.660156 10.488281 4.660156 Z M 10.488281 -3.464844 C 12.148438 -3.464844 13.5625 -3.546875 14.738281 -3.714844 C 15.730469 -3.855469 16.519531 -4.054688 17.105469 -4.308594 C 17.148438 -4.328125 17.183594 -4.34375 17.207031 -4.355469 C 17.191406 -4.347656 17.164062 -4.332031 17.132812 -4.308594 C 16.890625 -4.136719 16.671875 -3.898438 16.476562 -3.589844 C 16.300781 -3.308594 16.195312 -3.050781 16.148438 -2.816406 C 16.15625 -2.847656 16.160156 -2.929688 16.160156 -3.070312 L 16.160156 -12.523438 C 16.160156 -14.269531 15.804688 -15.503906 15.097656 -16.230469 C 14.84375 -16.492188 14.429688 -16.710938 13.859375 -16.886719 C 13.015625 -17.144531 11.929688 -17.277344 10.609375 -17.277344 C 8.84375 -17.277344 7.457031 -17.050781 6.453125 -16.605469 C 5.78125 -16.308594 5.292969 -15.871094 4.988281 -15.292969 L 1.394531 -17.191406 L 5.03125 -15.375 C 5.128906 -15.574219 5.179688 -15.847656 5.179688 -16.195312 C 5.179688 -16.585938 5.105469 -16.964844 4.957031 -17.332031 C 4.824219 -17.660156 4.644531 -17.953125 4.417969 -18.203125 C 4.273438 -18.363281 4.121094 -18.492188 3.964844 -18.59375 C 3.90625 -18.632812 3.855469 -18.660156 3.8125 -18.679688 L 7.257812 -17.269531 C 7.316406 -17.246094 7.351562 -17.230469 7.363281 -17.230469 C 7.261719 -17.253906 7.132812 -17.265625 6.980469 -17.265625 C 6.507812 -17.265625 6.0625 -17.148438 5.644531 -16.917969 C 5.328125 -16.746094 5.074219 -16.53125 4.886719 -16.277344 L 5.058594 -16.507812 L 5.261719 -16.714844 C 5.183594 -16.632812 5.125 -16.570312 5.082031 -16.519531 C 5.109375 -16.550781 5.152344 -16.605469 5.203125 -16.675781 C 5.582031 -17.179688 6.035156 -17.636719 6.558594 -18.042969 C 7.53125 -18.800781 8.710938 -19.179688 10.089844 -19.179688 C 11.53125 -19.179688 12.746094 -18.773438 13.730469 -17.957031 C 14.375 -17.421875 14.855469 -16.765625 15.167969 -15.984375 C 15.421875 -15.351562 15.550781 -14.675781 15.550781 -13.960938 L 15.550781 -8.738281 L 10.6875 -8.738281 C 8.574219 -8.738281 6.96875 -8.59375 5.878906 -8.300781 C 5.398438 -8.171875 5.097656 -8.023438 4.984375 -7.863281 C 4.9375 -7.792969 4.886719 -7.65625 4.835938 -7.457031 C 4.746094 -7.089844 4.703125 -6.625 4.703125 -6.0625 C 4.703125 -5.550781 4.742188 -5.117188 4.820312 -4.765625 C 4.863281 -4.558594 4.914062 -4.410156 4.972656 -4.320312 C 4.960938 -4.332031 4.953125 -4.34375 4.949219 -4.351562 C 4.960938 -4.335938 4.984375 -4.320312 5.015625 -4.296875 C 5.183594 -4.179688 5.425781 -4.066406 5.75 -3.960938 C 6.761719 -3.628906 8.34375 -3.464844 10.488281 -3.464844 Z M 13.117188 -6.101562 C 13.117188 -6.332031 13.074219 -6.578125 12.992188 -6.832031 C 12.855469 -7.253906 12.628906 -7.628906 12.316406 -7.964844 C 11.910156 -8.398438 11.441406 -8.695312 10.910156 -8.847656 C 10.722656 -8.902344 10.570312 -8.929688 10.449219 -8.929688 C 10.679688 -8.929688 10.816406 -8.933594 10.863281 -8.9375 L 11.113281 -8.96875 L 11.367188 -8.96875 C 10.949219 -8.96875 10.535156 -8.902344 10.136719 -8.769531 C 9.542969 -8.570312 9.027344 -8.25 8.582031 -7.808594 C 8.140625 -7.367188 7.820312 -6.851562 7.625 -6.257812 C 7.492188 -5.855469 7.421875 -5.445312 7.421875 -5.027344 L 7.421875 -7.417969 L 11.488281 -7.417969 L 11.488281 -3.355469 L 10.53125 -3.355469 C 10.679688 -3.355469 10.847656 -3.382812 11.042969 -3.441406 C 11.4375 -3.558594 11.800781 -3.765625 12.128906 -4.058594 C 12.503906 -4.394531 12.78125 -4.792969 12.953125 -5.253906 C 13.0625 -5.550781 13.117188 -5.832031 13.117188 -6.101562 Z M 4.992188 -6.101562 C 4.992188 -6.8125 5.105469 -7.476562 5.339844 -8.101562 C 5.636719 -8.894531 6.09375 -9.566406 6.71875 -10.121094 C 7.734375 -11.027344 9.003906 -11.480469 10.53125 -11.480469 L 15.550781 -11.480469 L 15.550781 -5.027344 C 15.550781 -4.566406 15.476562 -4.121094 15.335938 -3.6875 C 15.128906 -3.066406 14.792969 -2.523438 14.332031 -2.0625 C 13.867188 -1.601562 13.328125 -1.265625 12.703125 -1.058594 C 12.273438 -0.914062 11.828125 -0.84375 11.367188 -0.84375 L 11.367188 -4.90625 L 11.871094 -0.875 C 11.492188 -0.828125 11.015625 -0.800781 10.449219 -0.800781 C 8.746094 -0.800781 7.390625 -1.335938 6.390625 -2.40625 C 5.457031 -3.398438 4.992188 -4.632812 4.992188 -6.101562 Z M 4.992188 -6.101562 "/></g></g></g><g fill="#000000" fill-opacity="1"><g transform="translate(58.139983, 38.354156)"><g><path d="M 2.871094 4.0625 C 1.164062 4.0625 -0.207031 3.546875 -1.238281 2.515625 C -2.269531 1.480469 -2.785156 0.113281 -2.785156 -1.59375 L -2.785156 -16.910156 C -2.785156 -18.4375 -2.453125 -19.710938 -1.785156 -20.730469 C -1.082031 -21.808594 0.0234375 -22.636719 1.53125 -23.21875 C 4.257812 -24.273438 7.574219 -24.804688 11.488281 -24.804688 L 12.683594 -24.804688 C 14.417969 -24.804688 15.792969 -24.292969 16.8125 -23.273438 C 17.832031 -22.253906 18.34375 -20.878906 18.34375 -19.144531 L 18.34375 -14.878906 C 18.34375 -13.214844 17.859375 -11.875 16.894531 -10.851562 C 15.867188 -9.761719 14.464844 -9.21875 12.683594 -9.21875 L 11.128906 -9.21875 C 10.988281 -9.21875 10.878906 -9.214844 10.792969 -9.210938 C 10.773438 -9.210938 10.757812 -9.210938 10.746094 -9.210938 C 10.765625 -9.210938 10.792969 -9.214844 10.824219 -9.21875 L 10.539062 -9.179688 L 10.25 -9.179688 C 10.738281 -9.179688 11.214844 -9.269531 11.671875 -9.453125 C 12.285156 -9.699219 12.800781 -10.074219 13.222656 -10.582031 C 13.578125 -11.007812 13.832031 -11.488281 13.980469 -12.019531 C 14.070312 -12.347656 14.113281 -12.671875 14.113281 -13.003906 L 14.113281 -1.59375 C 14.113281 0.0664062 13.632812 1.410156 12.667969 2.429688 C 11.636719 3.519531 10.234375 4.0625 8.457031 4.0625 Z M 2.871094 -4.0625 L 8.457031 -4.0625 C 8.382812 -4.0625 8.269531 -4.042969 8.113281 -3.996094 C 7.605469 -3.851562 7.15625 -3.570312 6.757812 -3.148438 C 6.40625 -2.777344 6.171875 -2.367188 6.046875 -1.921875 C 6.007812 -1.777344 5.988281 -1.667969 5.988281 -1.59375 L 5.988281 -13.003906 C 5.988281 -14.0625 6.316406 -14.988281 6.980469 -15.785156 C 7.433594 -16.328125 7.992188 -16.734375 8.652344 -17 C 9.164062 -17.203125 9.695312 -17.304688 10.25 -17.304688 L 10.25 -13.242188 L 9.675781 -17.265625 C 10.050781 -17.320312 10.535156 -17.34375 11.128906 -17.34375 L 12.683594 -17.34375 C 12.609375 -17.34375 12.496094 -17.324219 12.339844 -17.277344 C 11.835938 -17.132812 11.382812 -16.851562 10.984375 -16.429688 C 10.632812 -16.058594 10.398438 -15.648438 10.277344 -15.203125 C 10.234375 -15.058594 10.214844 -14.949219 10.214844 -14.878906 L 10.214844 -19.144531 C 10.214844 -19.09375 10.234375 -18.996094 10.269531 -18.859375 C 10.402344 -18.371094 10.667969 -17.925781 11.066406 -17.527344 C 11.464844 -17.128906 11.910156 -16.863281 12.398438 -16.734375 C 12.535156 -16.695312 12.628906 -16.675781 12.683594 -16.675781 L 11.488281 -16.675781 C 8.589844 -16.675781 6.246094 -16.328125 4.449219 -15.632812 C 4.394531 -15.609375 4.355469 -15.59375 4.324219 -15.578125 C 4.335938 -15.582031 4.355469 -15.597656 4.382812 -15.613281 C 4.613281 -15.769531 4.824219 -15.992188 5.015625 -16.285156 C 5.179688 -16.535156 5.285156 -16.773438 5.335938 -17.003906 C 5.339844 -17.023438 5.34375 -17.039062 5.34375 -17.050781 C 5.339844 -17.015625 5.339844 -16.96875 5.339844 -16.910156 L 5.339844 -1.59375 C 5.339844 -1.6875 5.316406 -1.816406 5.269531 -1.980469 C 5.132812 -2.441406 4.882812 -2.859375 4.507812 -3.230469 C 4.136719 -3.605469 3.71875 -3.859375 3.257812 -3.992188 C 3.09375 -4.039062 2.964844 -4.0625 2.871094 -4.0625 Z M 2.871094 -4.0625 "/></g></g></g><g fill="#000000" fill-opacity="1"><g transform="translate(72.738108, 38.354156)"><g><path d="M 2.871094 4.0625 C 1.164062 4.0625 -0.199219 3.554688 -1.21875 2.535156 C -2.238281 1.515625 -2.746094 0.136719 -2.746094 -1.59375 L -2.746094 -27.921875 C -2.746094 -29.652344 -2.238281 -31.03125 -1.21875 -32.050781 C -0.199219 -33.070312 1.164062 -33.578125 2.871094 -33.578125 L 8.496094 -33.578125 C 10.25 -33.578125 11.636719 -33.035156 12.667969 -31.945312 C 13.632812 -30.925781 14.113281 -29.582031 14.113281 -27.921875 L 14.113281 -13.921875 L 10.050781 -13.921875 L 10.050781 -17.984375 L 10.6875 -17.984375 L 10.6875 -13.921875 L 6.960938 -15.539062 L 9.195312 -20.683594 C 9.847656 -22.164062 10.742188 -23.238281 11.886719 -23.90625 C 12.90625 -24.503906 14.222656 -24.804688 15.835938 -24.804688 L 20.222656 -24.804688 C 21.597656 -24.804688 22.761719 -24.5 23.71875 -23.890625 C 24.476562 -23.410156 25.058594 -22.777344 25.464844 -21.996094 C 25.847656 -21.269531 26.039062 -20.476562 26.039062 -19.625 C 26.039062 -18.902344 25.855469 -18.066406 25.484375 -17.113281 L 25.441406 -17.007812 L 21.6875 -8.765625 L 17.988281 -10.449219 L 21.585938 -12.34375 L 22.015625 -11.519531 L 25.636719 -3.996094 C 26.144531 -2.980469 26.398438 -1.996094 26.398438 -1.035156 C 26.398438 -0.125 26.171875 0.714844 25.722656 1.480469 C 25.277344 2.234375 24.660156 2.835938 23.875 3.277344 C 22.949219 3.800781 21.824219 4.0625 20.5 4.0625 L 15.953125 4.0625 C 14.320312 4.0625 13.007812 3.820312 12.007812 3.335938 C 11.191406 2.941406 10.503906 2.367188 9.945312 1.613281 C 9.515625 1.035156 9.175781 0.363281 8.933594 -0.398438 L 7.417969 -5.097656 C 7.601562 -4.546875 7.941406 -4.085938 8.429688 -3.71875 C 8.96875 -3.316406 9.546875 -3.117188 10.171875 -3.117188 L 10.050781 -3.117188 L 10.050781 -7.179688 L 14.113281 -7.179688 L 14.113281 -1.59375 C 14.113281 0.0664062 13.632812 1.410156 12.667969 2.429688 C 11.636719 3.519531 10.25 4.0625 8.496094 4.0625 Z M 2.871094 -4.0625 L 8.496094 -4.0625 C 8.398438 -4.0625 8.261719 -4.039062 8.089844 -3.988281 C 7.589844 -3.839844 7.148438 -3.5625 6.757812 -3.148438 C 6.40625 -2.777344 6.171875 -2.367188 6.046875 -1.921875 C 6.007812 -1.777344 5.988281 -1.667969 5.988281 -1.59375 L 5.988281 -11.242188 L 10.171875 -11.242188 C 11.351562 -11.242188 12.398438 -10.902344 13.308594 -10.222656 C 14.171875 -9.574219 14.785156 -8.695312 15.15625 -7.585938 L 16.671875 -2.875 C 16.644531 -2.96875 16.574219 -3.089844 16.46875 -3.230469 C 16.238281 -3.542969 15.929688 -3.792969 15.554688 -3.976562 C 15.4375 -4.03125 15.332031 -4.070312 15.238281 -4.097656 L 15.242188 -4.101562 C 15.410156 -4.074219 15.648438 -4.0625 15.953125 -4.0625 L 20.5 -4.0625 C 20.546875 -4.0625 20.578125 -4.0625 20.605469 -4.066406 C 20.59375 -4.066406 20.578125 -4.0625 20.550781 -4.058594 C 20.339844 -4.019531 20.117188 -3.929688 19.878906 -3.796875 C 19.398438 -3.527344 19.011719 -3.144531 18.722656 -2.648438 C 18.421875 -2.140625 18.273438 -1.601562 18.273438 -1.035156 C 18.273438 -0.800781 18.300781 -0.589844 18.355469 -0.40625 C 18.363281 -0.382812 18.367188 -0.363281 18.375 -0.351562 C 18.367188 -0.367188 18.347656 -0.40625 18.316406 -0.472656 L 14.726562 -7.929688 L 18.386719 -9.691406 L 14.792969 -7.800781 L 13.464844 -10.320312 L 18 -20.273438 L 21.699219 -18.585938 L 17.910156 -20.058594 C 17.949219 -20.164062 17.976562 -20.230469 17.984375 -20.261719 C 17.9375 -20.089844 17.914062 -19.875 17.914062 -19.625 C 17.914062 -19.144531 18.03125 -18.675781 18.269531 -18.226562 C 18.53125 -17.726562 18.894531 -17.328125 19.355469 -17.035156 C 19.625 -16.863281 19.886719 -16.75 20.148438 -16.695312 C 20.195312 -16.6875 20.234375 -16.679688 20.265625 -16.675781 C 20.261719 -16.675781 20.246094 -16.675781 20.222656 -16.675781 L 15.835938 -16.675781 C 15.636719 -16.675781 15.496094 -16.671875 15.417969 -16.65625 C 15.578125 -16.683594 15.769531 -16.765625 15.996094 -16.894531 C 16.265625 -17.054688 16.476562 -17.234375 16.628906 -17.4375 C 16.65625 -17.46875 16.671875 -17.496094 16.683594 -17.511719 C 16.671875 -17.496094 16.660156 -17.472656 16.648438 -17.449219 L 13.355469 -9.855469 L 5.988281 -9.855469 L 5.988281 -27.921875 C 5.988281 -27.847656 6.007812 -27.738281 6.046875 -27.59375 C 6.171875 -27.148438 6.40625 -26.738281 6.757812 -26.367188 C 7.148438 -25.953125 7.589844 -25.675781 8.089844 -25.527344 C 8.261719 -25.476562 8.398438 -25.453125 8.496094 -25.453125 L 2.871094 -25.453125 C 2.949219 -25.453125 3.066406 -25.472656 3.21875 -25.515625 C 3.703125 -25.652344 4.136719 -25.914062 4.527344 -26.304688 C 4.925781 -26.703125 5.191406 -27.144531 5.324219 -27.632812 C 5.359375 -27.769531 5.378906 -27.867188 5.378906 -27.921875 L 5.378906 -1.59375 C 5.378906 -1.648438 5.359375 -1.742188 5.324219 -1.882812 C 5.191406 -2.371094 4.925781 -2.8125 4.527344 -3.210938 C 4.136719 -3.601562 3.703125 -3.863281 3.21875 -4 C 3.066406 -4.042969 2.949219 -4.0625 2.871094 -4.0625 Z M 2.871094 -4.0625 "/></g></g></g><g fill="#000000" fill-opacity="1"><g transform="translate(94.794844, 38.354156)"><g><path d="M 11.128906 4.660156 C 6.4375 4.660156 2.855469 3.375 0.382812 0.800781 C -2.050781 -1.726562 -3.265625 -4.984375 -3.265625 -8.972656 L -3.265625 -11.804688 C -3.265625 -13.84375 -2.957031 -15.683594 -2.335938 -17.324219 C -1.664062 -19.109375 -0.644531 -20.625 0.722656 -21.878906 C 3.28125 -24.226562 6.761719 -25.402344 11.167969 -25.402344 C 14.109375 -25.402344 16.648438 -24.855469 18.785156 -23.757812 C 21.074219 -22.582031 22.800781 -20.949219 23.957031 -18.859375 C 25.054688 -16.878906 25.601562 -14.6875 25.601562 -12.285156 L 25.601562 -10.332031 C 25.601562 -8.574219 25.066406 -7.121094 23.996094 -5.96875 C 22.847656 -4.730469 21.269531 -4.113281 19.265625 -4.113281 L 9.574219 -4.113281 L 9.574219 -8.175781 L 13.636719 -8.175781 L 13.636719 -7.65625 L 13.632812 -7.65625 C 13.628906 -7.710938 13.613281 -7.773438 13.59375 -7.84375 C 13.511719 -8.148438 13.355469 -8.4375 13.128906 -8.714844 C 12.832031 -9.078125 12.46875 -9.34375 12.039062 -9.515625 C 11.761719 -9.628906 11.496094 -9.6875 11.246094 -9.6875 C 11.292969 -9.6875 11.332031 -9.6875 11.355469 -9.691406 C 11.34375 -9.691406 11.320312 -9.6875 11.289062 -9.679688 C 11.0625 -9.628906 10.824219 -9.523438 10.578125 -9.363281 C 10.527344 -9.332031 10.492188 -9.300781 10.46875 -9.277344 C 10.488281 -9.296875 10.515625 -9.332031 10.550781 -9.378906 C 10.953125 -9.917969 11.394531 -10.359375 11.871094 -10.703125 C 12.726562 -11.328125 13.703125 -11.640625 14.796875 -11.640625 C 15.75 -11.640625 16.722656 -11.40625 17.722656 -10.9375 L 15.996094 -7.257812 L 17.546875 -11.015625 L 21.019531 -9.578125 C 21.964844 -9.1875 22.742188 -8.65625 23.34375 -7.992188 C 23.765625 -7.527344 24.089844 -7.011719 24.316406 -6.445312 C 24.5625 -5.835938 24.683594 -5.203125 24.683594 -4.546875 C 24.683594 -3.613281 24.449219 -2.675781 23.976562 -1.734375 L 23.957031 -1.691406 L 23.933594 -1.652344 C 22.75 0.585938 20.964844 2.238281 18.578125 3.296875 C 16.523438 4.207031 14.042969 4.660156 11.128906 4.660156 Z M 11.128906 -3.464844 C 12.894531 -3.464844 14.28125 -3.6875 15.285156 -4.132812 C 15.953125 -4.429688 16.441406 -4.867188 16.75 -5.449219 L 20.339844 -3.550781 L 16.707031 -5.367188 C 16.609375 -5.167969 16.558594 -4.894531 16.558594 -4.546875 C 16.558594 -4.15625 16.632812 -3.773438 16.78125 -3.40625 C 16.910156 -3.078125 17.09375 -2.789062 17.320312 -2.535156 C 17.464844 -2.378906 17.613281 -2.246094 17.769531 -2.148438 C 17.832031 -2.109375 17.878906 -2.082031 17.910156 -2.070312 L 14.351562 -3.542969 L 14.265625 -3.582031 C 14.25 -3.589844 14.242188 -3.59375 14.238281 -3.59375 C 14.257812 -3.585938 14.28125 -3.578125 14.308594 -3.574219 C 14.453125 -3.535156 14.617188 -3.515625 14.796875 -3.515625 C 15.464844 -3.515625 16.082031 -3.722656 16.648438 -4.132812 C 16.832031 -4.265625 16.964844 -4.390625 17.050781 -4.503906 C 16.445312 -3.695312 15.769531 -3.046875 15.027344 -2.5625 C 14.007812 -1.894531 12.746094 -1.558594 11.246094 -1.558594 C 10.441406 -1.558594 9.6875 -1.703125 8.992188 -1.984375 C 8.144531 -2.328125 7.429688 -2.847656 6.855469 -3.550781 C 5.957031 -4.636719 5.507812 -6.007812 5.507812 -7.65625 L 5.507812 -12.238281 L 19.265625 -12.238281 C 19.285156 -12.238281 19.300781 -12.242188 19.316406 -12.242188 L 19.304688 -12.238281 C 19.246094 -12.230469 19.171875 -12.214844 19.089844 -12.1875 C 18.703125 -12.066406 18.355469 -11.835938 18.042969 -11.5 C 17.808594 -11.25 17.640625 -10.972656 17.542969 -10.667969 C 17.496094 -10.527344 17.476562 -10.414062 17.476562 -10.332031 L 17.476562 -12.285156 C 17.476562 -13.285156 17.265625 -14.167969 16.847656 -14.925781 C 16.488281 -15.570312 15.898438 -16.105469 15.078125 -16.527344 C 14.105469 -17.027344 12.800781 -17.277344 11.167969 -17.277344 C 8.871094 -17.277344 7.222656 -16.8125 6.21875 -15.890625 C 5.3125 -15.0625 4.859375 -13.699219 4.859375 -11.804688 L 4.859375 -8.972656 C 4.859375 -7.167969 5.320312 -5.785156 6.238281 -4.832031 C 7.113281 -3.921875 8.746094 -3.464844 11.128906 -3.464844 Z M 8.699219 -13.480469 L 8.699219 -13.839844 L 8.703125 -13.835938 C 8.707031 -13.777344 8.722656 -13.710938 8.738281 -13.632812 C 8.828125 -13.28125 9.003906 -12.941406 9.265625 -12.621094 C 9.652344 -12.144531 10.113281 -11.816406 10.65625 -11.636719 C 10.863281 -11.566406 11.035156 -11.53125 11.167969 -11.53125 C 11.320312 -11.53125 11.507812 -11.570312 11.722656 -11.640625 C 12.222656 -11.8125 12.652344 -12.105469 13.015625 -12.53125 C 13.296875 -12.859375 13.488281 -13.207031 13.585938 -13.578125 C 13.621094 -13.703125 13.636719 -13.789062 13.636719 -13.839844 L 13.636719 -13.480469 L 9.574219 -13.480469 L 9.574219 -17.542969 L 12.761719 -17.542969 L 12.761719 -13.480469 Z M 16.828125 -9.417969 L 5.507812 -9.417969 L 5.507812 -13.839844 C 5.507812 -15.453125 5.953125 -16.78125 6.847656 -17.820312 C 7.449219 -18.523438 8.207031 -19.03125 9.117188 -19.339844 C 9.746094 -19.550781 10.429688 -19.660156 11.167969 -19.660156 C 11.914062 -19.660156 12.597656 -19.554688 13.226562 -19.34375 C 14.1875 -19.023438 14.972656 -18.488281 15.582031 -17.734375 C 16.410156 -16.707031 16.828125 -15.410156 16.828125 -13.839844 Z M 16.828125 -9.417969 "/></g></g></g><g fill="#000000" fill-opacity="1"><g transform="translate(116.931344, 38.354156)"><g><path d="M 13.71875 4.0625 C 9.199219 4.0625 5.703125 3.097656 3.226562 1.171875 C 1.765625 0.0351562 0.679688 -1.445312 -0.0234375 -3.269531 C -0.644531 -4.863281 -0.953125 -6.699219 -0.953125 -8.773438 L -0.953125 -14 L 3.109375 -14 L 3.109375 -9.9375 L 1.753906 -9.9375 C 0.046875 -9.9375 -1.316406 -10.445312 -2.335938 -11.464844 C -3.355469 -12.484375 -3.863281 -13.863281 -3.863281 -15.59375 L -3.863281 -19.144531 C -3.863281 -20.878906 -3.355469 -22.253906 -2.335938 -23.273438 C -1.316406 -24.292969 0.046875 -24.804688 1.753906 -24.804688 L 3.109375 -24.804688 L 3.109375 -20.742188 L -0.953125 -20.742188 L -0.953125 -23.929688 C -0.953125 -25.710938 -0.40625 -27.113281 0.679688 -28.140625 C 1.703125 -29.109375 3.042969 -29.589844 4.707031 -29.589844 L 10.289062 -29.589844 C 12.023438 -29.589844 13.402344 -29.082031 14.421875 -28.0625 C 15.441406 -27.042969 15.949219 -25.664062 15.949219 -23.929688 L 15.949219 -20.742188 L 11.886719 -20.742188 L 11.886719 -24.804688 L 13.800781 -24.804688 C 15.554688 -24.804688 16.941406 -24.261719 17.972656 -23.171875 C 18.9375 -22.148438 19.417969 -20.808594 19.417969 -19.144531 L 19.417969 -15.59375 C 19.417969 -13.933594 18.9375 -12.589844 17.972656 -11.570312 C 16.941406 -10.480469 15.554688 -9.9375 13.800781 -9.9375 L 11.886719 -9.9375 L 11.886719 -14 L 15.949219 -14 L 15.949219 -9.492188 C 15.949219 -9.609375 15.921875 -9.757812 15.863281 -9.933594 C 15.742188 -10.300781 15.539062 -10.632812 15.25 -10.929688 C 14.949219 -11.234375 14.609375 -11.453125 14.226562 -11.582031 C 14.03125 -11.648438 13.863281 -11.679688 13.71875 -11.679688 C 15.453125 -11.679688 16.835938 -11.164062 17.871094 -10.132812 C 18.902344 -9.101562 19.417969 -7.714844 19.417969 -5.984375 L 19.417969 -1.714844 C 19.417969 0.00390625 18.929688 1.378906 17.945312 2.414062 C 16.90625 3.515625 15.496094 4.0625 13.71875 4.0625 Z M 13.71875 -4.0625 C 13.632812 -4.0625 13.507812 -4.039062 13.34375 -3.988281 C 12.859375 -3.847656 12.425781 -3.574219 12.046875 -3.171875 C 11.695312 -2.800781 11.460938 -2.394531 11.34375 -1.957031 C 11.316406 -1.867188 11.300781 -1.789062 11.292969 -1.71875 L 11.292969 -1.714844 L 11.292969 -5.984375 C 11.292969 -5.914062 11.3125 -5.808594 11.355469 -5.660156 C 11.488281 -5.191406 11.742188 -4.765625 12.125 -4.386719 C 12.503906 -4.003906 12.929688 -3.75 13.398438 -3.617188 C 13.546875 -3.574219 13.652344 -3.554688 13.71875 -3.554688 C 12.964844 -3.554688 12.261719 -3.667969 11.609375 -3.890625 C 10.765625 -4.175781 10.046875 -4.628906 9.441406 -5.246094 C 8.363281 -6.347656 7.824219 -7.761719 7.824219 -9.492188 L 7.824219 -18.0625 L 13.800781 -18.0625 C 13.703125 -18.0625 13.566406 -18.039062 13.394531 -17.988281 C 12.894531 -17.839844 12.453125 -17.558594 12.0625 -17.148438 C 11.710938 -16.777344 11.476562 -16.367188 11.351562 -15.921875 C 11.3125 -15.777344 11.292969 -15.667969 11.292969 -15.59375 L 11.292969 -19.144531 C 11.292969 -19.074219 11.3125 -18.964844 11.351562 -18.820312 C 11.476562 -18.371094 11.710938 -17.964844 12.0625 -17.589844 C 12.453125 -17.179688 12.894531 -16.902344 13.394531 -16.753906 C 13.566406 -16.703125 13.703125 -16.675781 13.800781 -16.675781 L 7.824219 -16.675781 L 7.824219 -23.929688 C 7.824219 -23.878906 7.839844 -23.78125 7.878906 -23.644531 C 8.011719 -23.15625 8.273438 -22.714844 8.671875 -22.316406 C 9.070312 -21.917969 9.515625 -21.652344 10.003906 -21.519531 C 10.140625 -21.480469 10.238281 -21.464844 10.289062 -21.464844 L 4.707031 -21.464844 C 4.777344 -21.464844 4.886719 -21.484375 5.03125 -21.523438 C 5.480469 -21.644531 5.886719 -21.882812 6.261719 -22.234375 C 6.679688 -22.632812 6.964844 -23.082031 7.109375 -23.585938 C 7.152344 -23.742188 7.175781 -23.859375 7.175781 -23.929688 L 7.175781 -16.675781 L 1.753906 -16.675781 C 1.832031 -16.675781 1.949219 -16.699219 2.101562 -16.742188 C 2.585938 -16.875 3.023438 -17.136719 3.410156 -17.527344 C 3.808594 -17.925781 4.074219 -18.371094 4.207031 -18.859375 C 4.246094 -18.996094 4.261719 -19.09375 4.261719 -19.144531 L 4.261719 -15.59375 C 4.261719 -15.648438 4.246094 -15.742188 4.207031 -15.882812 C 4.074219 -16.371094 3.808594 -16.8125 3.410156 -17.210938 C 3.023438 -17.601562 2.585938 -17.863281 2.101562 -18 C 1.949219 -18.042969 1.832031 -18.0625 1.753906 -18.0625 L 7.175781 -18.0625 L 7.175781 -8.773438 C 7.175781 -6.960938 7.523438 -5.78125 8.21875 -5.242188 C 8.644531 -4.910156 9.246094 -4.644531 10.03125 -4.445312 C 11.035156 -4.191406 12.265625 -4.0625 13.71875 -4.0625 Z M 13.71875 -4.0625 "/></g></g></g><g clip-path="url(#f70138fded)"><g fill="#000000" fill-opacity="1"><g transform="translate(132.965351, 38.354156)"><g><path d="M 2.871094 12.796875 C 1.210938 12.796875 -0.132812 12.316406 -1.15625 11.351562 C -2.242188 10.324219 -2.785156 8.917969 -2.785156 7.140625 L -2.785156 -17.511719 C -2.785156 -19.125 -2.390625 -20.445312 -1.601562 -21.46875 C -0.941406 -22.324219 0.0625 -23.035156 1.40625 -23.605469 C 2.800781 -24.167969 4.285156 -24.609375 5.863281 -24.925781 C 7.457031 -25.242188 9.34375 -25.402344 11.527344 -25.402344 C 15.839844 -25.402344 19.1875 -24.25 21.570312 -21.945312 C 22.820312 -20.738281 23.75 -19.289062 24.363281 -17.59375 C 24.921875 -16.046875 25.203125 -14.316406 25.203125 -12.40625 L 25.203125 -8.734375 C 25.203125 -4.582031 24.007812 -1.308594 21.621094 1.078125 C 19.230469 3.46875 15.945312 4.660156 11.765625 4.660156 L 11.71875 4.660156 L 9.957031 4.621094 L 10.050781 0.558594 L 14.113281 0.558594 L 14.113281 7.140625 C 14.113281 8.875 13.605469 10.25 12.585938 11.269531 C 11.566406 12.289062 10.1875 12.796875 8.457031 12.796875 Z M 2.871094 4.671875 L 8.457031 4.671875 C 8.402344 4.671875 8.308594 4.691406 8.171875 4.726562 C 7.679688 4.859375 7.238281 5.125 6.839844 5.523438 C 6.441406 5.921875 6.175781 6.363281 6.042969 6.855469 C 6.007812 6.992188 5.988281 7.085938 5.988281 7.140625 L 5.988281 -3.601562 L 11.859375 -3.464844 L 11.765625 0.597656 L 11.765625 -3.464844 C 13.703125 -3.464844 15.070312 -3.867188 15.871094 -4.667969 C 16.675781 -5.46875 17.074219 -6.824219 17.074219 -8.734375 L 17.074219 -12.40625 C 17.074219 -14.128906 16.691406 -15.359375 15.921875 -16.105469 C 15.113281 -16.886719 13.648438 -17.277344 11.527344 -17.277344 C 9.878906 -17.277344 8.523438 -17.167969 7.457031 -16.957031 C 6.378906 -16.738281 5.417969 -16.460938 4.574219 -16.121094 C 4.4375 -16.0625 4.351562 -16.023438 4.3125 -16 C 4.484375 -16.105469 4.65625 -16.273438 4.832031 -16.5 C 5.082031 -16.824219 5.246094 -17.152344 5.320312 -17.488281 C 5.332031 -17.539062 5.339844 -17.578125 5.34375 -17.605469 C 5.339844 -17.585938 5.339844 -17.554688 5.339844 -17.511719 L 5.339844 7.140625 C 5.339844 7.066406 5.316406 6.953125 5.273438 6.796875 C 5.128906 6.289062 4.847656 5.839844 4.425781 5.441406 C 4.054688 5.089844 3.644531 4.855469 3.199219 4.730469 C 3.054688 4.691406 2.945312 4.671875 2.871094 4.671875 Z M 10.964844 -10.898438 C 11.003906 -10.890625 11.03125 -10.886719 11.054688 -10.882812 C 11.046875 -10.882812 11.03125 -10.882812 11.007812 -10.882812 C 10.84375 -10.882812 10.660156 -10.855469 10.457031 -10.792969 C 10.046875 -10.671875 9.675781 -10.464844 9.335938 -10.167969 C 8.945312 -9.820312 8.660156 -9.410156 8.480469 -8.929688 C 8.359375 -8.617188 8.300781 -8.3125 8.300781 -8.015625 L 8.300781 -12.804688 C 8.300781 -12.453125 8.371094 -12.105469 8.511719 -11.753906 C 8.699219 -11.28125 8.988281 -10.878906 9.371094 -10.542969 C 9.703125 -10.253906 10.070312 -10.046875 10.472656 -9.921875 C 10.707031 -9.851562 10.925781 -9.816406 11.128906 -9.816406 C 11.113281 -9.816406 11.105469 -9.816406 11.101562 -9.816406 C 11.109375 -9.816406 11.125 -9.820312 11.144531 -9.820312 C 11.25 -9.835938 11.367188 -9.863281 11.496094 -9.90625 L 11.347656 -9.855469 L 11.195312 -9.820312 C 12.03125 -10.027344 12.71875 -10.472656 13.265625 -11.152344 C 13.832031 -11.859375 14.113281 -12.664062 14.113281 -13.5625 L 14.113281 -6.941406 L 10.050781 -6.941406 Z M 5.988281 -3.707031 L 5.988281 -13.5625 C 5.988281 -14.566406 6.296875 -15.453125 6.917969 -16.230469 C 7.515625 -16.976562 8.285156 -17.46875 9.226562 -17.703125 L 10.210938 -13.761719 L 8.925781 -17.617188 C 9.582031 -17.835938 10.316406 -17.945312 11.128906 -17.945312 C 12.542969 -17.945312 13.742188 -17.515625 14.722656 -16.660156 C 15.316406 -16.136719 15.761719 -15.507812 16.058594 -14.769531 C 16.304688 -14.152344 16.429688 -13.496094 16.429688 -12.804688 L 16.429688 -8.015625 C 16.429688 -7.324219 16.3125 -6.667969 16.082031 -6.058594 C 15.785156 -5.277344 15.332031 -4.617188 14.714844 -4.074219 C 13.71875 -3.195312 12.484375 -2.757812 11.007812 -2.757812 C 10.40625 -2.757812 9.785156 -2.832031 9.136719 -2.980469 Z M 5.988281 -3.707031 "/></g></g></g></g><g fill="#000000" fill-opacity="1"><g transform="translate(154.942305, 38.354156)"><g><path d="M 2.910156 4.0625 C 1.203125 4.0625 -0.164062 3.546875 -1.199219 2.515625 C -2.230469 1.480469 -2.746094 0.113281 -2.746094 -1.59375 L -2.746094 -27.921875 C -2.746094 -29.699219 -2.203125 -31.101562 -1.113281 -32.128906 C -0.09375 -33.097656 1.25 -33.578125 2.910156 -33.578125 L 8.496094 -33.578125 C 10.230469 -33.578125 11.605469 -33.070312 12.625 -32.050781 C 13.644531 -31.03125 14.15625 -29.652344 14.15625 -27.921875 L 14.15625 -1.59375 C 14.15625 0.0664062 13.671875 1.410156 12.707031 2.429688 C 11.679688 3.519531 10.273438 4.0625 8.496094 4.0625 Z M 2.910156 -4.0625 L 8.496094 -4.0625 C 8.421875 -4.0625 8.308594 -4.042969 8.152344 -3.996094 C 7.648438 -3.851562 7.195312 -3.570312 6.796875 -3.148438 C 6.445312 -2.777344 6.210938 -2.367188 6.085938 -1.921875 C 6.046875 -1.777344 6.027344 -1.667969 6.027344 -1.59375 L 6.027344 -27.921875 C 6.027344 -27.867188 6.046875 -27.769531 6.082031 -27.632812 C 6.214844 -27.144531 6.480469 -26.703125 6.878906 -26.304688 C 7.277344 -25.90625 7.722656 -25.640625 8.210938 -25.507812 C 8.347656 -25.46875 8.441406 -25.453125 8.496094 -25.453125 L 2.910156 -25.453125 C 2.984375 -25.453125 3.09375 -25.472656 3.238281 -25.511719 C 3.683594 -25.632812 4.09375 -25.871094 4.464844 -26.222656 C 4.886719 -26.621094 5.167969 -27.070312 5.3125 -27.578125 C 5.355469 -27.730469 5.378906 -27.847656 5.378906 -27.921875 L 5.378906 -1.59375 C 5.378906 -1.6875 5.355469 -1.816406 5.308594 -1.980469 C 5.175781 -2.441406 4.921875 -2.859375 4.546875 -3.230469 C 4.175781 -3.605469 3.757812 -3.859375 3.296875 -3.992188 C 3.132812 -4.039062 3.003906 -4.0625 2.910156 -4.0625 Z M 2.910156 -4.0625 "/></g></g></g><g fill="#000000" fill-opacity="1"><g transform="translate(166.349593, 38.354156)"><g><path d="M 10.488281 4.660156 C 7.480469 4.660156 5.058594 4.363281 3.222656 3.761719 C 0.847656 2.984375 -0.886719 1.695312 -1.980469 -0.109375 C -2.945312 -1.699219 -3.425781 -3.683594 -3.425781 -6.0625 C -3.425781 -8.695312 -2.84375 -10.847656 -1.675781 -12.519531 C -0.433594 -14.296875 1.382812 -15.507812 3.773438 -16.148438 C 5.554688 -16.628906 7.859375 -16.867188 10.6875 -16.867188 L 11.488281 -16.867188 L 11.488281 -12.804688 L 7.421875 -12.804688 L 7.421875 -13.960938 C 7.421875 -13.628906 7.492188 -13.292969 7.628906 -12.949219 C 7.828125 -12.457031 8.132812 -12.039062 8.546875 -11.699219 C 8.875 -11.425781 9.234375 -11.234375 9.621094 -11.128906 C 9.800781 -11.078125 9.957031 -11.054688 10.089844 -11.054688 C 10.222656 -11.054688 10.375 -11.078125 10.550781 -11.125 C 10.902344 -11.21875 11.238281 -11.386719 11.546875 -11.628906 C 11.597656 -11.667969 11.648438 -11.722656 11.707031 -11.800781 C 11.429688 -11.433594 11.199219 -11.15625 11.011719 -10.96875 L 8.136719 -13.839844 L 11.386719 -11.402344 C 10.878906 -10.722656 10.273438 -10.191406 9.570312 -9.804688 C 8.765625 -9.359375 7.902344 -9.140625 6.980469 -9.140625 C 6.152344 -9.140625 5.261719 -9.324219 4.3125 -9.695312 L 0.734375 -11.15625 C -0.222656 -11.554688 -1.003906 -12.082031 -1.605469 -12.746094 C -2.027344 -13.210938 -2.351562 -13.726562 -2.578125 -14.296875 C -2.824219 -14.902344 -2.945312 -15.535156 -2.945312 -16.195312 C -2.945312 -17.125 -2.710938 -18.0625 -2.238281 -19.007812 L -2.21875 -19.046875 L -2.195312 -19.089844 C -1.011719 -21.328125 0.773438 -22.976562 3.160156 -24.035156 C 5.210938 -24.945312 7.695312 -25.402344 10.609375 -25.402344 C 15.210938 -25.402344 18.644531 -24.234375 20.917969 -21.898438 C 23.164062 -19.59375 24.285156 -16.46875 24.285156 -12.523438 L 24.285156 -3.070312 C 24.285156 -1.523438 23.980469 -0.261719 23.367188 0.71875 C 22.710938 1.769531 21.664062 2.59375 20.230469 3.191406 C 18 4.171875 14.753906 4.660156 10.488281 4.660156 Z M 10.488281 -3.464844 C 12.148438 -3.464844 13.5625 -3.546875 14.738281 -3.714844 C 15.730469 -3.855469 16.519531 -4.054688 17.105469 -4.308594 C 17.148438 -4.328125 17.183594 -4.34375 17.207031 -4.355469 C 17.191406 -4.347656 17.164062 -4.332031 17.132812 -4.308594 C 16.890625 -4.136719 16.671875 -3.898438 16.476562 -3.589844 C 16.300781 -3.308594 16.195312 -3.050781 16.148438 -2.816406 C 16.15625 -2.847656 16.160156 -2.929688 16.160156 -3.070312 L 16.160156 -12.523438 C 16.160156 -14.269531 15.804688 -15.503906 15.097656 -16.230469 C 14.84375 -16.492188 14.429688 -16.710938 13.859375 -16.886719 C 13.015625 -17.144531 11.929688 -17.277344 10.609375 -17.277344 C 8.84375 -17.277344 7.457031 -17.050781 6.453125 -16.605469 C 5.78125 -16.308594 5.292969 -15.871094 4.988281 -15.292969 L 1.394531 -17.191406 L 5.03125 -15.375 C 5.128906 -15.574219 5.179688 -15.847656 5.179688 -16.195312 C 5.179688 -16.585938 5.105469 -16.964844 4.957031 -17.332031 C 4.824219 -17.660156 4.644531 -17.953125 4.417969 -18.203125 C 4.273438 -18.363281 4.121094 -18.492188 3.964844 -18.59375 C 3.90625 -18.632812 3.855469 -18.660156 3.8125 -18.679688 L 7.257812 -17.269531 C 7.316406 -17.246094 7.351562 -17.230469 7.363281 -17.230469 C 7.261719 -17.253906 7.132812 -17.265625 6.980469 -17.265625 C 6.507812 -17.265625 6.0625 -17.148438 5.644531 -16.917969 C 5.328125 -16.746094 5.074219 -16.53125 4.886719 -16.277344 L 5.058594 -16.507812 L 5.261719 -16.714844 C 5.183594 -16.632812 5.125 -16.570312 5.082031 -16.519531 C 5.109375 -16.550781 5.152344 -16.605469 5.203125 -16.675781 C 5.582031 -17.179688 6.035156 -17.636719 6.558594 -18.042969 C 7.53125 -18.800781 8.710938 -19.179688 10.089844 -19.179688 C 11.53125 -19.179688 12.746094 -18.773438 13.730469 -17.957031 C 14.375 -17.421875 14.855469 -16.765625 15.167969 -15.984375 C 15.421875 -15.351562 15.550781 -14.675781 15.550781 -13.960938 L 15.550781 -8.738281 L 10.6875 -8.738281 C 8.574219 -8.738281 6.96875 -8.59375 5.878906 -8.300781 C 5.398438 -8.171875 5.097656 -8.023438 4.984375 -7.863281 C 4.9375 -7.792969 4.886719 -7.65625 4.835938 -7.457031 C 4.746094 -7.089844 4.703125 -6.625 4.703125 -6.0625 C 4.703125 -5.550781 4.742188 -5.117188 4.820312 -4.765625 C 4.863281 -4.558594 4.914062 -4.410156 4.972656 -4.320312 C 4.960938 -4.332031 4.953125 -4.34375 4.949219 -4.351562 C 4.960938 -4.335938 4.984375 -4.320312 5.015625 -4.296875 C 5.183594 -4.179688 5.425781 -4.066406 5.75 -3.960938 C 6.761719 -3.628906 8.34375 -3.464844 10.488281 -3.464844 Z M 13.117188 -6.101562 C 13.117188 -6.332031 13.074219 -6.578125 12.992188 -6.832031 C 12.855469 -7.253906 12.628906 -7.628906 12.316406 -7.964844 C 11.910156 -8.398438 11.441406 -8.695312 10.910156 -8.847656 C 10.722656 -8.902344 10.570312 -8.929688 10.449219 -8.929688 C 10.679688 -8.929688 10.816406 -8.933594 10.863281 -8.9375 L 11.113281 -8.96875 L 11.367188 -8.96875 C 10.949219 -8.96875 10.535156 -8.902344 10.136719 -8.769531 C 9.542969 -8.570312 9.027344 -8.25 8.582031 -7.808594 C 8.140625 -7.367188 7.820312 -6.851562 7.625 -6.257812 C 7.492188 -5.855469 7.421875 -5.445312 7.421875 -5.027344 L 7.421875 -7.417969 L 11.488281 -7.417969 L 11.488281 -3.355469 L 10.53125 -3.355469 C 10.679688 -3.355469 10.847656 -3.382812 11.042969 -3.441406 C 11.4375 -3.558594 11.800781 -3.765625 12.128906 -4.058594 C 12.503906 -4.394531 12.78125 -4.792969 12.953125 -5.253906 C 13.0625 -5.550781 13.117188 -5.832031 13.117188 -6.101562 Z M 4.992188 -6.101562 C 4.992188 -6.8125 5.105469 -7.476562 5.339844 -8.101562 C 5.636719 -8.894531 6.09375 -9.566406 6.71875 -10.121094 C 7.734375 -11.027344 9.003906 -11.480469 10.53125 -11.480469 L 15.550781 -11.480469 L 15.550781 -5.027344 C 15.550781 -4.566406 15.476562 -4.121094 15.335938 -3.6875 C 15.128906 -3.066406 14.792969 -2.523438 14.332031 -2.0625 C 13.867188 -1.601562 13.328125 -1.265625 12.703125 -1.058594 C 12.273438 -0.914062 11.828125 -0.84375 11.367188 -0.84375 L 11.367188 -4.90625 L 11.871094 -0.875 C 11.492188 -0.828125 11.015625 -0.800781 10.449219 -0.800781 C 8.746094 -0.800781 7.390625 -1.335938 6.390625 -2.40625 C 5.457031 -3.398438 4.992188 -4.632812 4.992188 -6.101562 Z M 4.992188 -6.101562 "/></g></g></g><g fill="#000000" fill-opacity="1"><g transform="translate(187.608605, 38.354156)"><g><path d="M 10.648438 4.660156 C 6.214844 4.660156 2.800781 3.480469 0.402344 1.121094 C -2.015625 -1.257812 -3.226562 -4.476562 -3.226562 -8.535156 L -3.226562 -12.246094 C -3.226562 -14.179688 -2.925781 -15.9375 -2.320312 -17.519531 C -1.671875 -19.222656 -0.695312 -20.683594 0.609375 -21.910156 C 3.09375 -24.238281 6.585938 -25.402344 11.089844 -25.402344 C 14.378906 -25.402344 17.140625 -24.632812 19.378906 -23.089844 C 21.644531 -21.527344 23.226562 -19.46875 24.132812 -16.910156 C 24.421875 -16.046875 24.566406 -15.289062 24.566406 -14.636719 C 24.566406 -13.976562 24.449219 -13.34375 24.21875 -12.746094 C 23.960938 -12.078125 23.582031 -11.492188 23.074219 -10.988281 C 22.386719 -10.300781 21.484375 -9.792969 20.371094 -9.464844 L 19.226562 -13.363281 L 20.5 -9.503906 L 15.675781 -7.910156 C 14.945312 -7.664062 14.214844 -7.542969 13.480469 -7.542969 C 12.851562 -7.542969 12.25 -7.644531 11.675781 -7.851562 C 11.019531 -8.085938 10.4375 -8.441406 9.929688 -8.914062 C 9.300781 -9.503906 8.777344 -10.296875 8.367188 -11.296875 C 8.339844 -11.367188 8.316406 -11.417969 8.304688 -11.445312 L 8.304688 -11.449219 C 8.308594 -11.433594 8.316406 -11.421875 8.328125 -11.40625 C 8.464844 -11.179688 8.664062 -10.957031 8.925781 -10.746094 C 9.226562 -10.503906 9.554688 -10.324219 9.917969 -10.214844 C 10.167969 -10.136719 10.414062 -10.097656 10.648438 -10.097656 C 11.117188 -10.097656 11.570312 -10.207031 12.007812 -10.425781 C 12.488281 -10.664062 12.878906 -11 13.179688 -11.429688 C 13.484375 -11.863281 13.636719 -12.296875 13.636719 -12.722656 L 13.636719 -8.015625 C 13.636719 -8.195312 13.605469 -8.386719 13.546875 -8.589844 C 13.449219 -8.921875 13.285156 -9.234375 13.0625 -9.519531 C 12.777344 -9.878906 12.421875 -10.160156 11.996094 -10.367188 C 11.5625 -10.578125 11.113281 -10.683594 10.648438 -10.683594 C 10.496094 -10.683594 10.324219 -10.660156 10.136719 -10.613281 C 9.769531 -10.519531 9.425781 -10.355469 9.105469 -10.117188 C 8.769531 -9.871094 8.515625 -9.605469 8.339844 -9.316406 C 8.320312 -9.285156 8.308594 -9.265625 8.304688 -9.253906 C 8.316406 -9.28125 8.332031 -9.320312 8.351562 -9.367188 L 12.125 -7.859375 L 8.292969 -9.210938 C 8.675781 -10.289062 9.207031 -11.144531 9.890625 -11.785156 C 10.398438 -12.257812 10.980469 -12.613281 11.636719 -12.847656 C 12.207031 -13.054688 12.808594 -13.15625 13.441406 -13.15625 C 14.019531 -13.15625 14.71875 -13.035156 15.546875 -12.792969 L 20.539062 -11.316406 C 21.613281 -11.023438 22.515625 -10.511719 23.246094 -9.785156 C 23.742188 -9.285156 24.121094 -8.71875 24.382812 -8.078125 C 24.636719 -7.449219 24.765625 -6.792969 24.765625 -6.101562 C 24.765625 -5.253906 24.574219 -4.386719 24.195312 -3.503906 C 23.058594 -0.851562 21.332031 1.183594 19.015625 2.605469 C 16.78125 3.976562 13.992188 4.660156 10.648438 4.660156 Z M 10.648438 -3.464844 C 12.464844 -3.464844 13.835938 -3.75 14.765625 -4.320312 C 15.613281 -4.839844 16.269531 -5.636719 16.726562 -6.707031 C 16.667969 -6.566406 16.636719 -6.367188 16.636719 -6.101562 C 16.636719 -5.730469 16.710938 -5.367188 16.855469 -5.011719 C 17.007812 -4.636719 17.222656 -4.3125 17.5 -4.035156 C 17.6875 -3.847656 17.886719 -3.699219 18.097656 -3.589844 C 18.1875 -3.542969 18.230469 -3.523438 18.230469 -3.523438 L 13.253906 -4.996094 C 13.132812 -5.03125 13.042969 -5.054688 12.992188 -5.066406 C 13.105469 -5.042969 13.253906 -5.03125 13.441406 -5.03125 C 13.753906 -5.03125 14.066406 -5.085938 14.378906 -5.199219 C 14.777344 -5.339844 15.128906 -5.554688 15.4375 -5.84375 C 15.644531 -6.039062 15.804688 -6.238281 15.921875 -6.445312 C 15.941406 -6.480469 15.957031 -6.511719 15.96875 -6.535156 C 15.96875 -6.53125 15.964844 -6.523438 15.957031 -6.503906 L 15.929688 -6.425781 L 15.898438 -6.347656 C 15.398438 -5.097656 14.734375 -4.167969 13.910156 -3.5625 C 12.996094 -2.894531 11.910156 -2.558594 10.648438 -2.558594 C 9.863281 -2.558594 9.128906 -2.726562 8.4375 -3.0625 C 7.75 -3.398438 7.164062 -3.871094 6.683594 -4.480469 C 5.898438 -5.472656 5.507812 -6.652344 5.507812 -8.015625 L 5.507812 -12.722656 C 5.507812 -14.003906 5.847656 -15.125 6.523438 -16.089844 C 7.007812 -16.785156 7.625 -17.320312 8.375 -17.695312 C 9.078125 -18.046875 9.835938 -18.222656 10.648438 -18.222656 C 11.957031 -18.222656 13.089844 -17.832031 14.050781 -17.054688 C 14.808594 -16.4375 15.417969 -15.550781 15.882812 -14.390625 C 15.894531 -14.359375 15.90625 -14.335938 15.914062 -14.320312 C 15.910156 -14.332031 15.898438 -14.34375 15.886719 -14.367188 C 15.789062 -14.527344 15.652344 -14.691406 15.476562 -14.855469 C 15.167969 -15.144531 14.816406 -15.359375 14.421875 -15.5 C 14.105469 -15.613281 13.792969 -15.671875 13.480469 -15.671875 C 13.335938 -15.671875 13.214844 -15.65625 13.125 -15.625 L 18.011719 -17.242188 L 18.078125 -17.261719 L 18.082031 -17.261719 C 18.046875 -17.246094 18.007812 -17.226562 17.960938 -17.207031 C 17.742188 -17.09375 17.53125 -16.9375 17.328125 -16.734375 C 17.023438 -16.425781 16.789062 -16.070312 16.632812 -15.664062 C 16.503906 -15.324219 16.4375 -14.980469 16.4375 -14.636719 C 16.4375 -14.453125 16.453125 -14.296875 16.480469 -14.164062 C 16.476562 -14.175781 16.476562 -14.1875 16.472656 -14.199219 C 16.152344 -15.101562 15.582031 -15.832031 14.765625 -16.398438 C 13.917969 -16.984375 12.691406 -17.277344 11.089844 -17.277344 C 8.730469 -17.277344 7.089844 -16.84375 6.167969 -15.980469 C 5.324219 -15.1875 4.902344 -13.941406 4.902344 -12.246094 L 4.902344 -8.535156 C 4.902344 -6.746094 5.300781 -5.457031 6.101562 -4.671875 C 6.917969 -3.867188 8.433594 -3.464844 10.648438 -3.464844 Z M 10.648438 -3.464844 "/></g></g></g><g clip-path="url(#d984a72b73)"><g fill="#000000" fill-opacity="1"><g transform="translate(208.548539, 38.354156)"><g><path d="M 11.128906 4.660156 C 6.4375 4.660156 2.855469 3.375 0.382812 0.800781 C -2.050781 -1.726562 -3.265625 -4.984375 -3.265625 -8.972656 L -3.265625 -11.804688 C -3.265625 -13.84375 -2.957031 -15.683594 -2.335938 -17.324219 C -1.664062 -19.109375 -0.644531 -20.625 0.722656 -21.878906 C 3.28125 -24.226562 6.761719 -25.402344 11.167969 -25.402344 C 14.109375 -25.402344 16.648438 -24.855469 18.785156 -23.757812 C 21.074219 -22.582031 22.800781 -20.949219 23.957031 -18.859375 C 25.054688 -16.878906 25.601562 -14.6875 25.601562 -12.285156 L 25.601562 -10.332031 C 25.601562 -8.574219 25.066406 -7.121094 23.996094 -5.96875 C 22.847656 -4.730469 21.269531 -4.113281 19.265625 -4.113281 L 9.574219 -4.113281 L 9.574219 -8.175781 L 13.636719 -8.175781 L 13.636719 -7.65625 L 13.632812 -7.65625 C 13.628906 -7.710938 13.613281 -7.773438 13.59375 -7.84375 C 13.511719 -8.148438 13.355469 -8.4375 13.128906 -8.714844 C 12.832031 -9.078125 12.46875 -9.34375 12.039062 -9.515625 C 11.761719 -9.628906 11.496094 -9.6875 11.246094 -9.6875 C 11.292969 -9.6875 11.332031 -9.6875 11.355469 -9.691406 C 11.34375 -9.691406 11.320312 -9.6875 11.289062 -9.679688 C 11.0625 -9.628906 10.824219 -9.523438 10.578125 -9.363281 C 10.527344 -9.332031 10.492188 -9.300781 10.46875 -9.277344 C 10.488281 -9.296875 10.515625 -9.332031 10.550781 -9.378906 C 10.953125 -9.917969 11.394531 -10.359375 11.871094 -10.703125 C 12.726562 -11.328125 13.703125 -11.640625 14.796875 -11.640625 C 15.75 -11.640625 16.722656 -11.40625 17.722656 -10.9375 L 15.996094 -7.257812 L 17.546875 -11.015625 L 21.019531 -9.578125 C 21.964844 -9.1875 22.742188 -8.65625 23.34375 -7.992188 C 23.765625 -7.527344 24.089844 -7.011719 24.316406 -6.445312 C 24.5625 -5.835938 24.683594 -5.203125 24.683594 -4.546875 C 24.683594 -3.613281 24.449219 -2.675781 23.976562 -1.734375 L 23.957031 -1.691406 L 23.933594 -1.652344 C 22.75 0.585938 20.964844 2.238281 18.578125 3.296875 C 16.523438 4.207031 14.042969 4.660156 11.128906 4.660156 Z M 11.128906 -3.464844 C 12.894531 -3.464844 14.28125 -3.6875 15.285156 -4.132812 C 15.953125 -4.429688 16.441406 -4.867188 16.75 -5.449219 L 20.339844 -3.550781 L 16.707031 -5.367188 C 16.609375 -5.167969 16.558594 -4.894531 16.558594 -4.546875 C 16.558594 -4.15625 16.632812 -3.773438 16.78125 -3.40625 C 16.910156 -3.078125 17.09375 -2.789062 17.320312 -2.535156 C 17.464844 -2.378906 17.613281 -2.246094 17.769531 -2.148438 C 17.832031 -2.109375 17.878906 -2.082031 17.910156 -2.070312 L 14.351562 -3.542969 L 14.265625 -3.582031 C 14.25 -3.589844 14.242188 -3.59375 14.238281 -3.59375 C 14.257812 -3.585938 14.28125 -3.578125 14.308594 -3.574219 C 14.453125 -3.535156 14.617188 -3.515625 14.796875 -3.515625 C 15.464844 -3.515625 16.082031 -3.722656 16.648438 -4.132812 C 16.832031 -4.265625 16.964844 -4.390625 17.050781 -4.503906 C 16.445312 -3.695312 15.769531 -3.046875 15.027344 -2.5625 C 14.007812 -1.894531 12.746094 -1.558594 11.246094 -1.558594 C 10.441406 -1.558594 9.6875 -1.703125 8.992188 -1.984375 C 8.144531 -2.328125 7.429688 -2.847656 6.855469 -3.550781 C 5.957031 -4.636719 5.507812 -6.007812 5.507812 -7.65625 L 5.507812 -12.238281 L 19.265625 -12.238281 C 19.285156 -12.238281 19.300781 -12.242188 19.316406 -12.242188 L 19.304688 -12.238281 C 19.246094 -12.230469 19.171875 -12.214844 19.089844 -12.1875 C 18.703125 -12.066406 18.355469 -11.835938 18.042969 -11.5 C 17.808594 -11.25 17.640625 -10.972656 17.542969 -10.667969 C 17.496094 -10.527344 17.476562 -10.414062 17.476562 -10.332031 L 17.476562 -12.285156 C 17.476562 -13.285156 17.265625 -14.167969 16.847656 -14.925781 C 16.488281 -15.570312 15.898438 -16.105469 15.078125 -16.527344 C 14.105469 -17.027344 12.800781 -17.277344 11.167969 -17.277344 C 8.871094 -17.277344 7.222656 -16.8125 6.21875 -15.890625 C 5.3125 -15.0625 4.859375 -13.699219 4.859375 -11.804688 L 4.859375 -8.972656 C 4.859375 -7.167969 5.320312 -5.785156 6.238281 -4.832031 C 7.113281 -3.921875 8.746094 -3.464844 11.128906 -3.464844 Z M 8.699219 -13.480469 L 8.699219 -13.839844 L 8.703125 -13.835938 C 8.707031 -13.777344 8.722656 -13.710938 8.738281 -13.632812 C 8.828125 -13.28125 9.003906 -12.941406 9.265625 -12.621094 C 9.652344 -12.144531 10.113281 -11.816406 10.65625 -11.636719 C 10.863281 -11.566406 11.035156 -11.53125 11.167969 -11.53125 C 11.320312 -11.53125 11.507812 -11.570312 11.722656 -11.640625 C 12.222656 -11.8125 12.652344 -12.105469 13.015625 -12.53125 C 13.296875 -12.859375 13.488281 -13.207031 13.585938 -13.578125 C 13.621094 -13.703125 13.636719 -13.789062 13.636719 -13.839844 L 13.636719 -13.480469 L 9.574219 -13.480469 L 9.574219 -17.542969 L 12.761719 -17.542969 L 12.761719 -13.480469 Z M 16.828125 -9.417969 L 5.507812 -9.417969 L 5.507812 -13.839844 C 5.507812 -15.453125 5.953125 -16.78125 6.847656 -17.820312 C 7.449219 -18.523438 8.207031 -19.03125 9.117188 -19.339844 C 9.746094 -19.550781 10.429688 -19.660156 11.167969 -19.660156 C 11.914062 -19.660156 12.597656 -19.554688 13.226562 -19.34375 C 14.1875 -19.023438 14.972656 -18.488281 15.582031 -17.734375 C 16.410156 -16.707031 16.828125 -15.410156 16.828125 -13.839844 Z M 16.828125 -9.417969 "/></g></g></g></g><g fill="#ffde59" fill-opacity="1"><g transform="translate(3.69616, 38.354156)"><g><path d="M 3.34375 0 C 2.6875 0 2.226562 -0.117188 1.96875 -0.359375 C 1.71875 -0.597656 1.59375 -1.035156 1.59375 -1.671875 L 1.59375 -26.640625 C 1.59375 -27.285156 1.71875 -27.726562 1.96875 -27.96875 C 2.226562 -28.207031 2.6875 -28.328125 3.34375 -28.328125 L 8.21875 -28.328125 C 8.957031 -28.328125 9.492188 -28.242188 9.828125 -28.078125 C 10.160156 -27.921875 10.445312 -27.585938 10.6875 -27.078125 L 16.515625 -14.71875 L 22.375 -27.046875 C 22.613281 -27.578125 22.882812 -27.921875 23.1875 -28.078125 C 23.5 -28.242188 24 -28.328125 24.6875 -28.328125 L 29.84375 -28.328125 C 30.5 -28.328125 30.953125 -28.207031 31.203125 -27.96875 C 31.460938 -27.726562 31.59375 -27.285156 31.59375 -26.640625 L 31.59375 -1.671875 C 31.59375 -1.035156 31.460938 -0.597656 31.203125 -0.359375 C 30.953125 -0.117188 30.5 0 29.84375 0 L 24.171875 0 C 23.503906 0 23.046875 -0.117188 22.796875 -0.359375 C 22.546875 -0.597656 22.421875 -1.035156 22.421875 -1.671875 L 22.421875 -4.15625 C 22.421875 -5.820312 22.550781 -7.457031 22.8125 -9.0625 C 23.082031 -10.675781 23.671875 -13.015625 24.578125 -16.078125 L 24.09375 -16.078125 C 22.894531 -12.910156 22.148438 -10.96875 21.859375 -10.25 L 20.140625 -6.296875 C 19.953125 -5.878906 19.71875 -5.582031 19.4375 -5.40625 C 19.164062 -5.226562 18.75 -5.140625 18.1875 -5.140625 L 14.6875 -5.140625 C 14.125 -5.140625 13.703125 -5.226562 13.421875 -5.40625 C 13.140625 -5.582031 12.894531 -5.878906 12.6875 -6.296875 L 10.890625 -10.25 C 10.617188 -10.832031 9.941406 -12.773438 8.859375 -16.078125 L 8.375 -16.078125 C 9.28125 -12.648438 9.84375 -10.203125 10.0625 -8.734375 C 10.289062 -7.273438 10.40625 -5.734375 10.40625 -4.109375 L 10.40625 -1.671875 C 10.40625 -1.035156 10.28125 -0.597656 10.03125 -0.359375 C 9.78125 -0.117188 9.320312 0 8.65625 0 Z M 3.34375 0 "/></g></g></g><g fill="#ffde59" fill-opacity="1"><g transform="translate(36.880967, 38.354156)"><g><path d="M 10.484375 0.59375 C 7.910156 0.59375 5.910156 0.363281 4.484375 -0.09375 C 3.066406 -0.5625 2.070312 -1.265625 1.5 -2.203125 C 0.925781 -3.148438 0.640625 -4.4375 0.640625 -6.0625 C 0.640625 -7.84375 0.976562 -9.21875 1.65625 -10.1875 C 2.332031 -11.15625 3.390625 -11.832031 4.828125 -12.21875 C 6.265625 -12.613281 8.21875 -12.8125 10.6875 -12.8125 L 11.484375 -12.8125 L 11.484375 -13.96875 C 11.484375 -14.738281 11.019531 -15.125 10.09375 -15.125 C 9.644531 -15.125 9.300781 -15.03125 9.0625 -14.84375 C 8.820312 -14.65625 8.617188 -14.453125 8.453125 -14.234375 C 8.296875 -14.023438 8.191406 -13.894531 8.140625 -13.84375 C 7.816406 -13.414062 7.429688 -13.203125 6.984375 -13.203125 C 6.660156 -13.203125 6.257812 -13.296875 5.78125 -13.484375 L 2.28125 -14.921875 C 1.5 -15.234375 1.109375 -15.660156 1.109375 -16.203125 C 1.109375 -16.492188 1.203125 -16.820312 1.390625 -17.1875 C 2.140625 -18.601562 3.273438 -19.648438 4.796875 -20.328125 C 6.328125 -21.003906 8.265625 -21.34375 10.609375 -21.34375 C 14.066406 -21.34375 16.53125 -20.582031 18 -19.0625 C 19.476562 -17.550781 20.21875 -15.375 20.21875 -12.53125 L 20.21875 -3.078125 C 20.21875 -2.304688 20.117188 -1.757812 19.921875 -1.4375 C 19.722656 -1.113281 19.304688 -0.820312 18.671875 -0.5625 C 16.910156 0.207031 14.179688 0.59375 10.484375 0.59375 Z M 9.0625 -6.109375 C 9.0625 -5.703125 9.160156 -5.390625 9.359375 -5.171875 C 9.554688 -4.960938 9.921875 -4.859375 10.453125 -4.859375 C 10.847656 -4.859375 11.15625 -4.875 11.375 -4.90625 C 11.445312 -4.90625 11.484375 -4.945312 11.484375 -5.03125 L 11.484375 -7.421875 L 10.53125 -7.421875 C 9.550781 -7.421875 9.0625 -6.984375 9.0625 -6.109375 Z M 9.0625 -6.109375 "/></g></g></g><g fill="#ffde59" fill-opacity="1"><g transform="translate(58.139983, 38.354156)"><g><path d="M 2.875 0 C 2.289062 0 1.878906 -0.117188 1.640625 -0.359375 C 1.398438 -0.597656 1.28125 -1.007812 1.28125 -1.59375 L 1.28125 -16.90625 C 1.28125 -17.625 1.390625 -18.15625 1.609375 -18.5 C 1.835938 -18.851562 2.296875 -19.160156 2.984375 -19.421875 C 5.242188 -20.304688 8.078125 -20.75 11.484375 -20.75 L 12.6875 -20.75 C 13.300781 -20.75 13.71875 -20.632812 13.9375 -20.40625 C 14.164062 -20.175781 14.28125 -19.753906 14.28125 -19.140625 L 14.28125 -14.875 C 14.28125 -14.289062 14.164062 -13.878906 13.9375 -13.640625 C 13.71875 -13.398438 13.300781 -13.28125 12.6875 -13.28125 L 11.125 -13.28125 C 10.726562 -13.28125 10.4375 -13.269531 10.25 -13.25 C 10.113281 -13.25 10.046875 -13.164062 10.046875 -13 L 10.046875 -1.59375 C 10.046875 -1.007812 9.929688 -0.597656 9.703125 -0.359375 C 9.484375 -0.117188 9.066406 0 8.453125 0 Z M 2.875 0 "/></g></g></g><g fill="#ffde59" fill-opacity="1"><g transform="translate(72.738108, 38.354156)"><g><path d="M 2.875 0 C 2.289062 0 1.882812 -0.109375 1.65625 -0.328125 C 1.425781 -0.554688 1.3125 -0.976562 1.3125 -1.59375 L 1.3125 -27.921875 C 1.3125 -28.535156 1.425781 -28.953125 1.65625 -29.171875 C 1.882812 -29.398438 2.289062 -29.515625 2.875 -29.515625 L 8.5 -29.515625 C 9.082031 -29.515625 9.484375 -29.394531 9.703125 -29.15625 C 9.929688 -28.914062 10.046875 -28.503906 10.046875 -27.921875 L 10.046875 -13.921875 L 10.6875 -13.921875 L 12.921875 -19.0625 C 13.210938 -19.726562 13.550781 -20.175781 13.9375 -20.40625 C 14.320312 -20.632812 14.957031 -20.75 15.84375 -20.75 L 20.21875 -20.75 C 21.394531 -20.75 21.984375 -20.375 21.984375 -19.625 C 21.984375 -19.414062 21.890625 -19.070312 21.703125 -18.59375 L 17.984375 -10.453125 L 18.390625 -9.6875 L 21.984375 -2.234375 C 22.222656 -1.753906 22.34375 -1.351562 22.34375 -1.03125 C 22.34375 -0.34375 21.726562 0 20.5 0 L 15.953125 0 C 14.941406 0 14.21875 -0.101562 13.78125 -0.3125 C 13.34375 -0.53125 13.019531 -0.972656 12.8125 -1.640625 L 11.28125 -6.34375 C 11.101562 -6.90625 10.734375 -7.1875 10.171875 -7.1875 L 10.046875 -7.1875 L 10.046875 -1.59375 C 10.046875 -1.007812 9.929688 -0.597656 9.703125 -0.359375 C 9.484375 -0.117188 9.082031 0 8.5 0 Z M 2.875 0 "/></g></g></g><g fill="#ffde59" fill-opacity="1"><g transform="translate(94.794844, 38.354156)"><g><path d="M 11.125 0.59375 C 7.59375 0.59375 4.988281 -0.273438 3.3125 -2.015625 C 1.632812 -3.753906 0.796875 -6.070312 0.796875 -8.96875 L 0.796875 -11.8125 C 0.796875 -14.894531 1.6875 -17.253906 3.46875 -18.890625 C 5.25 -20.523438 7.816406 -21.34375 11.171875 -21.34375 C 13.453125 -21.34375 15.367188 -20.941406 16.921875 -20.140625 C 18.484375 -19.347656 19.644531 -18.265625 20.40625 -16.890625 C 21.164062 -15.523438 21.546875 -13.988281 21.546875 -12.28125 L 21.546875 -10.328125 C 21.546875 -9.640625 21.367188 -9.109375 21.015625 -8.734375 C 20.671875 -8.359375 20.085938 -8.171875 19.265625 -8.171875 L 9.578125 -8.171875 L 9.578125 -7.65625 C 9.578125 -6.300781 10.132812 -5.625 11.25 -5.625 C 11.9375 -5.625 12.453125 -5.734375 12.796875 -5.953125 C 13.148438 -6.179688 13.484375 -6.507812 13.796875 -6.9375 C 13.960938 -7.15625 14.117188 -7.316406 14.265625 -7.421875 C 14.410156 -7.523438 14.585938 -7.578125 14.796875 -7.578125 C 15.140625 -7.578125 15.539062 -7.472656 16 -7.265625 L 19.46875 -5.828125 C 20.238281 -5.503906 20.625 -5.078125 20.625 -4.546875 C 20.625 -4.253906 20.53125 -3.921875 20.34375 -3.546875 C 19.601562 -2.140625 18.46875 -1.097656 16.9375 -0.421875 C 15.40625 0.253906 13.46875 0.59375 11.125 0.59375 Z M 12.765625 -13.484375 L 12.765625 -13.84375 C 12.765625 -14.457031 12.648438 -14.898438 12.421875 -15.171875 C 12.203125 -15.453125 11.785156 -15.59375 11.171875 -15.59375 C 10.585938 -15.59375 10.175781 -15.453125 9.9375 -15.171875 C 9.695312 -14.898438 9.578125 -14.457031 9.578125 -13.84375 L 9.578125 -13.484375 Z M 12.765625 -13.484375 "/></g></g></g><g fill="#ffde59" fill-opacity="1"><g transform="translate(116.931344, 38.354156)"><g><path d="M 13.71875 0 C 10.132812 0 7.46875 -0.675781 5.71875 -2.03125 C 3.976562 -3.382812 3.109375 -5.632812 3.109375 -8.78125 L 3.109375 -14 L 1.75 -14 C 1.164062 -14 0.757812 -14.113281 0.53125 -14.34375 C 0.3125 -14.570312 0.203125 -14.988281 0.203125 -15.59375 L 0.203125 -19.140625 C 0.203125 -19.753906 0.3125 -20.175781 0.53125 -20.40625 C 0.757812 -20.632812 1.164062 -20.75 1.75 -20.75 L 3.109375 -20.75 L 3.109375 -23.9375 C 3.109375 -24.550781 3.226562 -24.96875 3.46875 -25.1875 C 3.707031 -25.414062 4.117188 -25.53125 4.703125 -25.53125 L 10.296875 -25.53125 C 10.898438 -25.53125 11.316406 -25.414062 11.546875 -25.1875 C 11.773438 -24.96875 11.890625 -24.550781 11.890625 -23.9375 L 11.890625 -20.75 L 13.796875 -20.75 C 14.390625 -20.75 14.796875 -20.628906 15.015625 -20.390625 C 15.242188 -20.148438 15.359375 -19.734375 15.359375 -19.140625 L 15.359375 -15.59375 C 15.359375 -15.007812 15.242188 -14.597656 15.015625 -14.359375 C 14.796875 -14.117188 14.390625 -14 13.796875 -14 L 11.890625 -14 L 11.890625 -9.5 C 11.890625 -8.25 12.5 -7.625 13.71875 -7.625 C 14.332031 -7.625 14.757812 -7.503906 15 -7.265625 C 15.238281 -7.023438 15.359375 -6.597656 15.359375 -5.984375 L 15.359375 -1.71875 C 15.359375 -1.082031 15.238281 -0.632812 15 -0.375 C 14.757812 -0.125 14.332031 0 13.71875 0 Z M 13.71875 0 "/></g></g></g><g fill="#ffde59" fill-opacity="1"><g transform="translate(132.965351, 38.354156)"><g><path d="M 2.875 8.734375 C 2.289062 8.734375 1.878906 8.617188 1.640625 8.390625 C 1.398438 8.171875 1.28125 7.753906 1.28125 7.140625 L 1.28125 -17.515625 C 1.28125 -18.203125 1.390625 -18.691406 1.609375 -18.984375 C 1.835938 -19.273438 2.296875 -19.566406 2.984375 -19.859375 C 4.109375 -20.316406 5.332031 -20.675781 6.65625 -20.9375 C 7.988281 -21.207031 9.613281 -21.34375 11.53125 -21.34375 C 14.75 -21.34375 17.15625 -20.570312 18.75 -19.03125 C 20.34375 -17.488281 21.140625 -15.28125 21.140625 -12.40625 L 21.140625 -8.734375 C 21.140625 -5.703125 20.34375 -3.390625 18.75 -1.796875 C 17.15625 -0.203125 14.828125 0.59375 11.765625 0.59375 L 10.046875 0.5625 L 10.046875 7.140625 C 10.046875 7.753906 9.929688 8.171875 9.703125 8.390625 C 9.484375 8.617188 9.066406 8.734375 8.453125 8.734375 Z M 10.046875 -6.9375 C 10.398438 -6.863281 10.722656 -6.828125 11.015625 -6.828125 C 11.910156 -6.828125 12.359375 -7.222656 12.359375 -8.015625 L 12.359375 -12.8125 C 12.359375 -13.15625 12.253906 -13.414062 12.046875 -13.59375 C 11.835938 -13.78125 11.53125 -13.875 11.125 -13.875 C 10.757812 -13.875 10.457031 -13.835938 10.21875 -13.765625 C 10.101562 -13.734375 10.046875 -13.664062 10.046875 -13.5625 Z M 10.046875 -6.9375 "/></g></g></g><g fill="#ffde59" fill-opacity="1"><g transform="translate(154.942305, 38.354156)"><g><path d="M 2.90625 0 C 2.320312 0 1.910156 -0.117188 1.671875 -0.359375 C 1.429688 -0.597656 1.3125 -1.007812 1.3125 -1.59375 L 1.3125 -27.921875 C 1.3125 -28.535156 1.429688 -28.953125 1.671875 -29.171875 C 1.910156 -29.398438 2.320312 -29.515625 2.90625 -29.515625 L 8.5 -29.515625 C 9.113281 -29.515625 9.53125 -29.398438 9.75 -29.171875 C 9.976562 -28.953125 10.09375 -28.535156 10.09375 -27.921875 L 10.09375 -1.59375 C 10.09375 -1.007812 9.976562 -0.597656 9.75 -0.359375 C 9.53125 -0.117188 9.113281 0 8.5 0 Z M 2.90625 0 "/></g></g></g><g fill="#ffde59" fill-opacity="1"><g transform="translate(166.349593, 38.354156)"><g><path d="M 10.484375 0.59375 C 7.910156 0.59375 5.910156 0.363281 4.484375 -0.09375 C 3.066406 -0.5625 2.070312 -1.265625 1.5 -2.203125 C 0.925781 -3.148438 0.640625 -4.4375 0.640625 -6.0625 C 0.640625 -7.84375 0.976562 -9.21875 1.65625 -10.1875 C 2.332031 -11.15625 3.390625 -11.832031 4.828125 -12.21875 C 6.265625 -12.613281 8.21875 -12.8125 10.6875 -12.8125 L 11.484375 -12.8125 L 11.484375 -13.96875 C 11.484375 -14.738281 11.019531 -15.125 10.09375 -15.125 C 9.644531 -15.125 9.300781 -15.03125 9.0625 -14.84375 C 8.820312 -14.65625 8.617188 -14.453125 8.453125 -14.234375 C 8.296875 -14.023438 8.191406 -13.894531 8.140625 -13.84375 C 7.816406 -13.414062 7.429688 -13.203125 6.984375 -13.203125 C 6.660156 -13.203125 6.257812 -13.296875 5.78125 -13.484375 L 2.28125 -14.921875 C 1.5 -15.234375 1.109375 -15.660156 1.109375 -16.203125 C 1.109375 -16.492188 1.203125 -16.820312 1.390625 -17.1875 C 2.140625 -18.601562 3.273438 -19.648438 4.796875 -20.328125 C 6.328125 -21.003906 8.265625 -21.34375 10.609375 -21.34375 C 14.066406 -21.34375 16.53125 -20.582031 18 -19.0625 C 19.476562 -17.550781 20.21875 -15.375 20.21875 -12.53125 L 20.21875 -3.078125 C 20.21875 -2.304688 20.117188 -1.757812 19.921875 -1.4375 C 19.722656 -1.113281 19.304688 -0.820312 18.671875 -0.5625 C 16.910156 0.207031 14.179688 0.59375 10.484375 0.59375 Z M 9.0625 -6.109375 C 9.0625 -5.703125 9.160156 -5.390625 9.359375 -5.171875 C 9.554688 -4.960938 9.921875 -4.859375 10.453125 -4.859375 C 10.847656 -4.859375 11.15625 -4.875 11.375 -4.90625 C 11.445312 -4.90625 11.484375 -4.945312 11.484375 -5.03125 L 11.484375 -7.421875 L 10.53125 -7.421875 C 9.550781 -7.421875 9.0625 -6.984375 9.0625 -6.109375 Z M 9.0625 -6.109375 "/></g></g></g><g fill="#ffde59" fill-opacity="1"><g transform="translate(187.608605, 38.354156)"><g><path d="M 10.65625 0.59375 C 7.332031 0.59375 4.863281 -0.195312 3.25 -1.78125 C 1.644531 -3.363281 0.84375 -5.613281 0.84375 -8.53125 L 0.84375 -12.25 C 0.84375 -15.113281 1.691406 -17.34375 3.390625 -18.9375 C 5.085938 -20.539062 7.65625 -21.34375 11.09375 -21.34375 C 13.539062 -21.34375 15.535156 -20.8125 17.078125 -19.75 C 18.617188 -18.6875 19.691406 -17.289062 20.296875 -15.5625 C 20.429688 -15.15625 20.5 -14.847656 20.5 -14.640625 C 20.5 -14.316406 20.398438 -14.054688 20.203125 -13.859375 C 20.003906 -13.660156 19.679688 -13.492188 19.234375 -13.359375 L 14.40625 -11.765625 C 14.082031 -11.660156 13.773438 -11.609375 13.484375 -11.609375 C 13.160156 -11.609375 12.898438 -11.703125 12.703125 -11.890625 C 12.503906 -12.078125 12.3125 -12.394531 12.125 -12.84375 C 11.914062 -13.375 11.703125 -13.722656 11.484375 -13.890625 C 11.273438 -14.066406 11 -14.15625 10.65625 -14.15625 C 10.300781 -14.15625 10.03125 -14.019531 9.84375 -13.75 C 9.664062 -13.488281 9.578125 -13.144531 9.578125 -12.71875 L 9.578125 -8.015625 C 9.578125 -7.585938 9.675781 -7.25 9.875 -7 C 10.070312 -6.75 10.332031 -6.625 10.65625 -6.625 C 11.019531 -6.625 11.300781 -6.695312 11.5 -6.84375 C 11.707031 -6.988281 11.914062 -7.328125 12.125 -7.859375 C 12.28125 -8.304688 12.457031 -8.625 12.65625 -8.8125 C 12.863281 -9 13.125 -9.09375 13.4375 -9.09375 C 13.625 -9.09375 13.945312 -9.023438 14.40625 -8.890625 L 19.390625 -7.421875 C 20.265625 -7.179688 20.703125 -6.742188 20.703125 -6.109375 C 20.703125 -5.816406 20.625 -5.484375 20.46875 -5.109375 C 19.664062 -3.242188 18.472656 -1.828125 16.890625 -0.859375 C 15.304688 0.109375 13.226562 0.59375 10.65625 0.59375 Z M 10.65625 0.59375 "/></g></g></g><g fill="#ffde59" fill-opacity="1"><g transform="translate(208.548539, 38.354156)"><g><path d="M 11.125 0.59375 C 7.59375 0.59375 4.988281 -0.273438 3.3125 -2.015625 C 1.632812 -3.753906 0.796875 -6.070312 0.796875 -8.96875 L 0.796875 -11.8125 C 0.796875 -14.894531 1.6875 -17.253906 3.46875 -18.890625 C 5.25 -20.523438 7.816406 -21.34375 11.171875 -21.34375 C 13.453125 -21.34375 15.367188 -20.941406 16.921875 -20.140625 C 18.484375 -19.347656 19.644531 -18.265625 20.40625 -16.890625 C 21.164062 -15.523438 21.546875 -13.988281 21.546875 -12.28125 L 21.546875 -10.328125 C 21.546875 -9.640625 21.367188 -9.109375 21.015625 -8.734375 C 20.671875 -8.359375 20.085938 -8.171875 19.265625 -8.171875 L 9.578125 -8.171875 L 9.578125 -7.65625 C 9.578125 -6.300781 10.132812 -5.625 11.25 -5.625 C 11.9375 -5.625 12.453125 -5.734375 12.796875 -5.953125 C 13.148438 -6.179688 13.484375 -6.507812 13.796875 -6.9375 C 13.960938 -7.15625 14.117188 -7.316406 14.265625 -7.421875 C 14.410156 -7.523438 14.585938 -7.578125 14.796875 -7.578125 C 15.140625 -7.578125 15.539062 -7.472656 16 -7.265625 L 19.46875 -5.828125 C 20.238281 -5.503906 20.625 -5.078125 20.625 -4.546875 C 20.625 -4.253906 20.53125 -3.921875 20.34375 -3.546875 C 19.601562 -2.140625 18.46875 -1.097656 16.9375 -0.421875 C 15.40625 0.253906 13.46875 0.59375 11.125 0.59375 Z M 12.765625 -13.484375 L 12.765625 -13.84375 C 12.765625 -14.457031 12.648438 -14.898438 12.421875 -15.171875 C 12.203125 -15.453125 11.785156 -15.59375 11.171875 -15.59375 C 10.585938 -15.59375 10.175781 -15.453125 9.9375 -15.171875 C 9.695312 -14.898438 9.578125 -14.457031 9.578125 -13.84375 L 9.578125 -13.484375 Z M 12.765625 -13.484375 "/></g></g></g></g></g></svg>