<svg xmlns="http://www.w3.org/2000/svg" xmlns:xlink="http://www.w3.org/1999/xlink" width="1920" zoomAndPan="magnify" viewBox="0 0 1440 809.999993" height="1080" preserveAspectRatio="xMidYMid meet" version="1.0"><defs><g/><clipPath id="47aba35c10"><path d="M 1242 22 L 1394.761719 22 L 1394.761719 176 L 1242 176 Z M 1242 22 " clip-rule="nonzero"/></clipPath><clipPath id="d62900c11d"><rect x="0" width="1395" y="0" height="213"/></clipPath></defs><g transform="matrix(1, 0, 0, 1, 27, 298)"><g clip-path="url(#d62900c11d)"><g fill="#000000" fill-opacity="1"><g transform="translate(724.080698, 159.282494)"><g><path d="M 98.484375 -136.796875 C 104.183594 -136.796875 108.917969 -135.464844 112.6875 -132.804688 C 115.765625 -130.632812 118.023438 -127.773438 119.457031 -124.230469 C 120.488281 -121.683594 121.003906 -118.929688 121.003906 -115.972656 C 121.003906 -114.625 120.816406 -112.828125 120.445312 -110.585938 L 107.515625 -37.089844 C 104.167969 -18.609375 96.429688 -4.617188 84.300781 4.886719 C 72.476562 14.152344 56.769531 18.785156 37.1875 18.785156 C 21.652344 18.785156 9.007812 15.078125 -0.742188 7.660156 C -10.851562 -0.0234375 -17.269531 -10.6875 -19.996094 -24.324219 C -20.320312 -25.941406 -20.480469 -27.738281 -20.480469 -29.714844 C -20.480469 -35.679688 -18.582031 -40.773438 -14.785156 -44.992188 C -11.855469 -48.25 -7.847656 -50.722656 -2.757812 -52.421875 L 18.222656 -59.527344 C 21.765625 -60.777344 25.03125 -61.402344 28.015625 -61.402344 C 30.722656 -61.402344 33.292969 -60.917969 35.722656 -59.945312 C 38.476562 -58.84375 40.863281 -57.203125 42.886719 -55.027344 C 45.515625 -52.195312 47.394531 -48.523438 48.523438 -44.011719 C 48.542969 -43.9375 48.5625 -43.875 48.582031 -43.824219 C 48.554688 -43.890625 48.511719 -43.984375 48.449219 -44.097656 C 48.128906 -44.679688 47.664062 -45.238281 47.058594 -45.773438 C 46.277344 -46.460938 45.398438 -46.972656 44.429688 -47.304688 C 43.761719 -47.535156 43.160156 -47.652344 42.621094 -47.652344 C 41.644531 -47.652344 40.648438 -47.425781 39.625 -46.976562 C 38.496094 -46.480469 37.550781 -45.796875 36.789062 -44.933594 C 36.425781 -44.519531 36.191406 -44.1875 36.085938 -43.929688 C 36.226562 -44.261719 36.359375 -44.792969 36.492188 -45.523438 L 49.089844 -116.335938 L 49.136719 -116.570312 C 50.421875 -122.738281 52.96875 -127.542969 56.773438 -130.984375 C 61.050781 -134.859375 66.691406 -136.796875 73.695312 -136.796875 Z M 98.484375 -104.320312 L 73.695312 -104.320312 C 73.617188 -104.320312 73.550781 -104.320312 73.5 -104.316406 L 73.519531 -104.320312 C 73.726562 -104.34375 73.972656 -104.394531 74.261719 -104.46875 C 75.78125 -104.875 77.214844 -105.6875 78.558594 -106.90625 C 79.601562 -107.847656 80.363281 -108.84375 80.851562 -109.898438 C 80.929688 -110.0625 80.984375 -110.195312 81.011719 -110.292969 C 80.992188 -110.222656 80.964844 -110.105469 80.929688 -109.945312 L 65.035156 -113.257812 L 81.019531 -110.414062 L 68.445312 -39.714844 C 67.226562 -33.027344 64.808594 -27.621094 61.183594 -23.496094 C 58.785156 -20.765625 55.957031 -18.683594 52.703125 -17.25 C 49.558594 -15.867188 46.199219 -15.175781 42.621094 -15.175781 C 35.992188 -15.175781 30.324219 -17.246094 25.617188 -21.382812 C 21.460938 -25.039062 18.59375 -29.957031 17.019531 -36.136719 L 17.015625 -36.160156 C 17.0625 -36.015625 17.128906 -35.851562 17.214844 -35.664062 C 17.644531 -34.726562 18.269531 -33.8125 19.089844 -32.929688 C 20.375 -31.542969 21.902344 -30.5 23.664062 -29.792969 C 25.105469 -29.21875 26.554688 -28.929688 28.015625 -28.929688 C 28.640625 -28.929688 29.148438 -28.972656 29.542969 -29.0625 C 29.417969 -29.035156 29.117188 -28.9375 28.640625 -28.769531 L 7.511719 -21.613281 C 7.351562 -21.558594 7.230469 -21.515625 7.144531 -21.476562 C 7.175781 -21.492188 7.238281 -21.523438 7.324219 -21.574219 C 8.007812 -21.960938 8.683594 -22.523438 9.351562 -23.269531 C 10.308594 -24.332031 11.019531 -25.53125 11.480469 -26.867188 C 11.820312 -27.851562 11.992188 -28.800781 11.992188 -29.714844 L 11.988281 -29.730469 C 11.964844 -30.011719 11.917969 -30.335938 11.847656 -30.691406 C 12.96875 -25.085938 15.324219 -20.917969 18.910156 -18.1875 C 22.855469 -15.191406 28.949219 -13.691406 37.1875 -13.691406 C 49.300781 -13.691406 58.328125 -16.019531 64.273438 -20.675781 C 69.917969 -25.097656 73.671875 -32.445312 75.53125 -42.714844 L 88.410156 -115.925781 C 88.488281 -116.386719 88.539062 -116.734375 88.570312 -116.96875 C 88.542969 -116.753906 88.53125 -116.421875 88.53125 -115.972656 C 88.53125 -114.714844 88.804688 -113.40625 89.355469 -112.046875 C 90.308594 -109.691406 91.84375 -107.769531 93.960938 -106.273438 C 95.304688 -105.324219 96.667969 -104.707031 98.046875 -104.414062 C 98.28125 -104.367188 98.480469 -104.332031 98.644531 -104.320312 L 98.648438 -104.320312 C 98.601562 -104.320312 98.546875 -104.320312 98.484375 -104.320312 Z M 98.484375 -104.320312 "/></g></g></g><g fill="#000000" fill-opacity="1"><g transform="translate(823.583678, 159.282494)"><g><path d="M 100.351562 -136.796875 C 106.117188 -136.796875 110.925781 -135.402344 114.78125 -132.617188 C 117.839844 -130.410156 120.078125 -127.53125 121.5 -123.976562 C 122.527344 -121.40625 123.042969 -118.625 123.042969 -115.632812 C 123.042969 -113.71875 122.910156 -111.980469 122.652344 -110.417969 L 119.222656 -91.214844 C 118.15625 -84.542969 115.398438 -79.371094 110.949219 -75.691406 C 106.644531 -72.136719 101.132812 -70.359375 94.410156 -70.359375 L 52.296875 -70.359375 L 52.296875 -86.597656 L 68.296875 -83.828125 L 66.769531 -75 L 50.769531 -77.769531 L 50.769531 -94.007812 L 83.371094 -94.007812 C 89.183594 -94.007812 93.976562 -92.675781 97.746094 -90.015625 C 100.902344 -87.789062 103.1875 -84.835938 104.609375 -81.160156 C 105.578125 -78.652344 106.0625 -75.9375 106.0625 -73.015625 L 106.0625 -72.003906 L 105.542969 -67.863281 L 102.074219 -48.425781 C 101.027344 -41.886719 98.390625 -36.789062 94.15625 -33.132812 C 89.863281 -29.425781 84.285156 -27.570312 77.429688 -27.570312 L 44.828125 -27.570312 L 44.828125 -43.808594 L 60.820312 -41.003906 L 59.121094 -31.324219 L 43.128906 -34.128906 L 43.128906 -50.367188 L 86.429688 -50.367188 C 92.242188 -50.367188 97.03125 -49.035156 100.800781 -46.375 C 103.957031 -44.148438 106.246094 -41.195312 107.667969 -37.519531 C 108.632812 -35.015625 109.117188 -32.300781 109.117188 -29.375 L 109.117188 -28.363281 L 108.601562 -24.234375 L 105.132812 -4.640625 C 104.066406 2.046875 101.304688 7.226562 96.855469 10.90625 C 92.550781 14.460938 87.039062 16.238281 80.316406 16.238281 L 5.09375 16.238281 C -0.71875 16.238281 -5.511719 14.90625 -9.277344 12.246094 C -12.433594 10.019531 -14.722656 7.066406 -16.144531 3.390625 C -17.113281 0.882812 -17.597656 -1.832031 -17.597656 -4.753906 L -17.597656 -5.765625 L -17.078125 -9.894531 L 1.671875 -115.914062 C 2.71875 -122.46875 5.359375 -127.578125 9.59375 -131.234375 C 13.886719 -134.941406 19.460938 -136.796875 26.320312 -136.796875 Z M 100.351562 -104.320312 L 26.320312 -104.320312 C 26.242188 -104.320312 26.175781 -104.320312 26.125 -104.316406 L 26.128906 -104.320312 C 26.316406 -104.339844 26.542969 -104.386719 26.8125 -104.457031 C 28.210938 -104.824219 29.546875 -105.558594 30.820312 -106.65625 C 32.066406 -107.730469 32.96875 -108.914062 33.527344 -110.199219 C 33.625 -110.429688 33.699219 -110.625 33.742188 -110.78125 C 33.730469 -110.742188 33.699219 -110.570312 33.648438 -110.257812 L 14.96875 -4.644531 L -1.019531 -7.472656 L 15.09375 -5.457031 L 14.753906 -2.742188 L -1.359375 -4.753906 L 14.878906 -4.753906 C 14.878906 -5.867188 14.636719 -7.054688 14.148438 -8.3125 C 13.210938 -10.746094 11.640625 -12.734375 9.449219 -14.285156 C 8.074219 -15.253906 6.6875 -15.882812 5.296875 -16.167969 C 5.089844 -16.207031 4.925781 -16.234375 4.800781 -16.242188 C 4.855469 -16.238281 4.953125 -16.238281 5.09375 -16.238281 L 80.316406 -16.238281 C 80.429688 -16.238281 80.5 -16.238281 80.523438 -16.242188 C 80.351562 -16.222656 80.144531 -16.179688 79.898438 -16.117188 C 78.609375 -15.78125 77.371094 -15.121094 76.171875 -14.132812 C 74.878906 -13.0625 73.933594 -11.863281 73.335938 -10.539062 C 73.21875 -10.28125 73.136719 -10.054688 73.082031 -9.863281 L 73.078125 -9.851562 C 73.089844 -9.898438 73.113281 -10.050781 73.15625 -10.300781 L 76.550781 -29.488281 L 92.542969 -26.660156 L 76.429688 -28.671875 L 76.769531 -31.390625 L 92.882812 -29.375 L 76.644531 -29.375 C 76.644531 -28.261719 76.886719 -27.074219 77.375 -25.816406 C 78.3125 -23.382812 79.878906 -21.394531 82.074219 -19.847656 C 83.449219 -18.875 84.835938 -18.246094 86.226562 -17.964844 C 86.429688 -17.921875 86.59375 -17.894531 86.722656 -17.886719 C 86.667969 -17.890625 86.570312 -17.894531 86.429688 -17.894531 L 23.796875 -17.894531 L 31.191406 -60.046875 L 77.429688 -60.046875 C 77.507812 -60.046875 77.570312 -60.046875 77.625 -60.050781 L 77.621094 -60.046875 C 77.429688 -60.027344 77.203125 -59.980469 76.9375 -59.910156 C 75.535156 -59.542969 74.199219 -58.808594 72.929688 -57.710938 C 71.683594 -56.636719 70.78125 -55.453125 70.222656 -54.167969 C 70.121094 -53.9375 70.050781 -53.742188 70.007812 -53.585938 C 70.019531 -53.625 70.050781 -53.808594 70.105469 -54.132812 L 73.5 -73.152344 L 89.484375 -70.296875 L 73.371094 -72.3125 L 73.710938 -75.027344 L 89.824219 -73.015625 L 73.585938 -73.015625 C 73.585938 -71.902344 73.832031 -70.714844 74.316406 -69.453125 C 75.257812 -67.023438 76.824219 -65.03125 79.015625 -63.484375 C 80.394531 -62.511719 81.777344 -61.886719 83.171875 -61.601562 C 83.375 -61.5625 83.539062 -61.535156 83.664062 -61.523438 C 83.609375 -61.527344 83.511719 -61.53125 83.371094 -61.53125 L 31.480469 -61.53125 L 38.628906 -102.835938 L 94.410156 -102.835938 C 94.523438 -102.835938 94.59375 -102.835938 94.617188 -102.839844 C 94.445312 -102.820312 94.238281 -102.78125 93.992188 -102.714844 C 92.703125 -102.378906 91.460938 -101.71875 90.265625 -100.730469 C 88.972656 -99.660156 88.027344 -98.460938 87.429688 -97.136719 C 87.3125 -96.878906 87.230469 -96.652344 87.175781 -96.460938 L 87.171875 -96.449219 C 87.183594 -96.5 87.210938 -96.65625 87.253906 -96.925781 L 90.617188 -115.757812 C 90.585938 -115.570312 90.566406 -115.421875 90.5625 -115.3125 C 90.566406 -115.378906 90.566406 -115.484375 90.566406 -115.632812 C 90.566406 -114.457031 90.828125 -113.214844 91.347656 -111.917969 C 92.257812 -109.636719 93.734375 -107.761719 95.769531 -106.292969 C 97.0625 -105.359375 98.382812 -104.742188 99.730469 -104.4375 C 99.988281 -104.378906 100.214844 -104.34375 100.410156 -104.324219 C 100.4375 -104.320312 100.457031 -104.320312 100.464844 -104.320312 C 100.4375 -104.320312 100.398438 -104.320312 100.351562 -104.320312 Z M 100.351562 -104.320312 "/></g></g></g><g fill="#000000" fill-opacity="1"><g transform="translate(924.10547, 159.282494)"><g><path d="M 76.070312 -136.796875 C 91.824219 -136.796875 104.601562 -132.46875 114.40625 -123.820312 C 119.691406 -119.152344 123.65625 -113.546875 126.300781 -107 C 128.769531 -100.875 130.003906 -94.078125 130.003906 -86.597656 C 130.003906 -81.945312 129.625 -77.640625 128.863281 -73.683594 C 127.121094 -63.964844 123.679688 -55.320312 118.535156 -47.753906 C 113.320312 -40.085938 106.5 -33.769531 98.066406 -28.800781 L 89.824219 -42.789062 L 103.523438 -51.507812 C 105.792969 -47.941406 107.703125 -43.914062 109.25 -39.421875 L 118.007812 -14.351562 L 118.113281 -14.003906 C 118.910156 -11.351562 119.304688 -8.777344 119.304688 -6.28125 C 119.304688 -3.199219 118.75 -0.292969 117.640625 2.433594 C 116.402344 5.472656 114.5625 8.097656 112.125 10.316406 C 107.78125 14.265625 102.328125 16.238281 95.765625 16.238281 L 72.84375 16.238281 C 65.136719 16.238281 58.757812 14.613281 53.707031 11.367188 C 47.804688 7.570312 43.859375 1.949219 41.875 -5.496094 L 36.167969 -25.628906 L 51.789062 -30.054688 L 36.316406 -25.132812 C 36.125 -25.734375 35.957031 -26.191406 35.816406 -26.496094 C 35.890625 -26.339844 36.058594 -26.082031 36.328125 -25.734375 C 37.761719 -23.847656 39.546875 -22.503906 41.671875 -21.707031 C 42.71875 -21.316406 43.65625 -21.117188 44.488281 -21.117188 L 43.640625 -21.117188 L 43.640625 -37.355469 L 59.628906 -34.539062 L 54.367188 -4.65625 C 53.296875 2.042969 50.535156 7.226562 46.085938 10.90625 C 41.78125 14.460938 36.269531 16.238281 29.546875 16.238281 L 5.09375 16.238281 C -0.71875 16.238281 -5.511719 14.90625 -9.277344 12.246094 C -12.433594 10.019531 -14.722656 7.066406 -16.144531 3.390625 C -17.113281 0.882812 -17.597656 -1.832031 -17.597656 -4.753906 L -17.597656 -5.765625 L -17.078125 -9.894531 L 1.671875 -115.914062 C 2.71875 -122.46875 5.359375 -127.578125 9.59375 -131.234375 C 13.886719 -134.941406 19.460938 -136.796875 26.320312 -136.796875 Z M 76.070312 -104.320312 L 26.320312 -104.320312 C 26.242188 -104.320312 26.175781 -104.320312 26.125 -104.316406 L 26.128906 -104.320312 C 26.316406 -104.339844 26.542969 -104.386719 26.8125 -104.457031 C 28.210938 -104.824219 29.546875 -105.558594 30.820312 -106.65625 C 32.066406 -107.730469 32.96875 -108.914062 33.527344 -110.199219 C 33.625 -110.429688 33.699219 -110.625 33.742188 -110.78125 C 33.730469 -110.742188 33.699219 -110.570312 33.648438 -110.257812 L 14.96875 -4.644531 L -1.019531 -7.472656 L 15.09375 -5.457031 L 14.753906 -2.742188 L -1.359375 -4.753906 L 14.878906 -4.753906 C 14.878906 -5.867188 14.636719 -7.054688 14.148438 -8.3125 C 13.210938 -10.746094 11.640625 -12.734375 9.449219 -14.285156 C 8.074219 -15.253906 6.6875 -15.882812 5.296875 -16.167969 C 5.089844 -16.207031 4.925781 -16.234375 4.800781 -16.242188 C 4.855469 -16.238281 4.953125 -16.238281 5.09375 -16.238281 L 29.546875 -16.238281 C 29.660156 -16.238281 29.730469 -16.238281 29.75 -16.242188 C 29.582031 -16.222656 29.371094 -16.179688 29.128906 -16.117188 C 27.839844 -15.78125 26.597656 -15.121094 25.402344 -14.132812 C 24.105469 -13.0625 23.160156 -11.863281 22.566406 -10.539062 C 22.449219 -10.28125 22.367188 -10.054688 22.3125 -9.863281 L 22.308594 -9.851562 C 22.320312 -9.898438 22.34375 -10.046875 22.382812 -10.289062 L 30.011719 -53.59375 L 44.488281 -53.59375 C 47.582031 -53.59375 50.445312 -53.101562 53.074219 -52.113281 C 56.789062 -50.722656 59.816406 -48.488281 62.15625 -45.414062 C 64.199219 -42.734375 65.902344 -39.253906 67.261719 -34.976562 L 67.339844 -34.730469 L 73.25 -13.863281 C 73.265625 -13.808594 73.277344 -13.769531 73.289062 -13.738281 C 73.285156 -13.742188 73.28125 -13.757812 73.269531 -13.78125 C 73.203125 -13.933594 73.109375 -14.105469 72.984375 -14.292969 C 72.550781 -14.941406 71.980469 -15.492188 71.265625 -15.949219 C 70.964844 -16.144531 70.679688 -16.296875 70.414062 -16.402344 C 70.359375 -16.421875 70.3125 -16.4375 70.28125 -16.449219 C 70.296875 -16.441406 70.324219 -16.4375 70.367188 -16.425781 C 70.9375 -16.300781 71.765625 -16.238281 72.84375 -16.238281 L 95.765625 -16.238281 C 95.304688 -16.238281 94.738281 -16.132812 94.066406 -15.921875 C 92.6875 -15.492188 91.425781 -14.753906 90.277344 -13.710938 C 89.085938 -12.628906 88.179688 -11.328125 87.566406 -9.820312 C 87.074219 -8.621094 86.832031 -7.441406 86.832031 -6.28125 C 86.832031 -5.597656 86.890625 -5.0625 87.007812 -4.671875 L 102.558594 -9.339844 L 87.230469 -3.984375 L 78.550781 -28.835938 C 77.832031 -30.914062 77.027344 -32.660156 76.125 -34.074219 L 67.105469 -48.25 L 81.582031 -56.777344 C 85.828125 -59.28125 89.195312 -62.359375 91.679688 -66.011719 C 94.230469 -69.765625 95.996094 -74.367188 96.972656 -79.816406 C 97.34375 -81.746094 97.527344 -84.007812 97.527344 -86.597656 C 97.527344 -89.875 97.082031 -92.625 96.183594 -94.851562 C 95.457031 -96.652344 94.367188 -98.191406 92.921875 -99.46875 C 89.253906 -102.703125 83.636719 -104.320312 76.070312 -104.320312 Z M 62.316406 -85.515625 C 61.640625 -85.515625 60.898438 -85.347656 60.101562 -85.007812 C 59.101562 -84.582031 58.265625 -83.988281 57.585938 -83.226562 C 57.105469 -82.691406 56.746094 -82.078125 56.5 -81.394531 C 56.34375 -80.953125 56.265625 -80.59375 56.265625 -80.316406 C 56.265625 -79.339844 56.476562 -78.304688 56.890625 -77.21875 C 57.519531 -75.574219 58.496094 -74.148438 59.828125 -72.945312 C 61.039062 -71.847656 62.363281 -71.082031 63.804688 -70.648438 C 64.441406 -70.457031 64.964844 -70.359375 65.375 -70.359375 L 52.296875 -70.359375 L 52.296875 -86.597656 L 68.289062 -83.777344 L 65.230469 -66.457031 L 49.242188 -69.277344 L 49.242188 -85.515625 Z M 62.316406 -53.042969 L 29.886719 -53.042969 L 38.675781 -102.835938 L 65.375 -102.835938 C 71.921875 -102.835938 77.335938 -100.898438 81.617188 -97.027344 C 84.132812 -94.746094 86.003906 -92.007812 87.226562 -88.804688 C 88.238281 -86.160156 88.742188 -83.332031 88.742188 -80.316406 C 88.742188 -73.019531 86.433594 -66.785156 81.820312 -61.613281 C 79.273438 -58.757812 76.269531 -56.59375 72.808594 -55.121094 C 69.550781 -53.734375 66.050781 -53.042969 62.316406 -53.042969 Z M 62.316406 -53.042969 "/></g></g></g><g fill="#000000" fill-opacity="1"><g transform="translate(1037.192502, 159.282494)"><g><path d="M -5.972656 -90.4375 C -4.566406 -98.40625 -1.808594 -105.519531 2.300781 -111.785156 C 6.460938 -118.128906 11.898438 -123.4375 18.613281 -127.714844 C 30.785156 -135.46875 46.652344 -139.34375 66.222656 -139.34375 C 81.6875 -139.34375 94.230469 -136.6875 103.859375 -131.382812 C 109.335938 -128.363281 113.96875 -124.488281 117.757812 -119.757812 C 121.472656 -115.117188 124.285156 -109.769531 126.195312 -103.703125 L 110.710938 -98.824219 L 125.96875 -104.371094 C 127.074219 -101.335938 127.625 -98.355469 127.625 -95.429688 C 127.625 -92.566406 127.070312 -89.84375 125.953125 -87.265625 C 124.835938 -84.675781 123.230469 -82.402344 121.136719 -80.441406 C 118.816406 -78.265625 115.6875 -76.347656 111.746094 -74.691406 L 111.558594 -74.609375 L 90.992188 -66.554688 C 87.195312 -65.128906 83.808594 -64.417969 80.824219 -64.417969 C 78.144531 -64.417969 75.597656 -64.90625 73.183594 -65.886719 C 70.492188 -66.980469 68.15625 -68.601562 66.175781 -70.746094 C 63.917969 -73.191406 62.136719 -76.367188 60.835938 -80.273438 C 61.195312 -79.234375 61.773438 -78.300781 62.5625 -77.46875 C 63.519531 -76.464844 64.617188 -75.738281 65.855469 -75.296875 C 65.242188 -75.515625 64.234375 -75.625 62.828125 -75.625 C 61.496094 -75.625 60.441406 -75.558594 59.660156 -75.425781 C 59.503906 -75.402344 59.40625 -75.382812 59.371094 -75.371094 C 59.574219 -75.433594 59.816406 -75.535156 60.101562 -75.679688 C 61.550781 -76.414062 62.789062 -77.558594 63.8125 -79.113281 C 65.035156 -80.972656 65.648438 -82.957031 65.648438 -85.070312 C 65.648438 -88.109375 64.621094 -90.785156 62.566406 -93.097656 C 61.324219 -94.496094 60.007812 -95.425781 58.621094 -95.890625 C 60.488281 -95.265625 64.207031 -94.515625 69.773438 -93.636719 C 83.167969 -91.566406 94.703125 -87.195312 104.382812 -80.527344 C 110.640625 -76.21875 115.34375 -70.664062 118.5 -63.863281 C 121.414062 -57.582031 122.871094 -50.441406 122.871094 -42.449219 C 122.871094 -37.9375 122.476562 -33.777344 121.683594 -29.96875 L 105.785156 -33.28125 L 121.773438 -30.449219 C 120.25 -21.847656 117.359375 -14.316406 113.09375 -7.863281 C 108.625 -1.09375 102.789062 4.316406 95.585938 8.375 C 83.261719 15.3125 66.964844 18.785156 46.695312 18.785156 C 31.367188 18.785156 18.222656 16.203125 7.261719 11.039062 C 0.710938 7.953125 -4.625 3.945312 -8.746094 -0.984375 C -13.132812 -6.234375 -15.984375 -12.300781 -17.304688 -19.1875 C -17.613281 -20.71875 -17.765625 -22.53125 -17.765625 -24.621094 C -17.765625 -27.382812 -17.328125 -29.996094 -16.457031 -32.464844 C -15.4375 -35.359375 -13.878906 -37.910156 -11.789062 -40.117188 C -9.070312 -42.984375 -5.371094 -45.3125 -0.6875 -47.097656 L 19.726562 -54.707031 L 19.996094 -54.796875 C 24.039062 -56.144531 27.449219 -56.820312 30.222656 -56.820312 C 35.394531 -56.820312 39.929688 -55.128906 43.832031 -51.75 C 46.558594 -49.382812 48.753906 -46.265625 50.414062 -42.394531 L 50.492188 -42.210938 L 50.5625 -42.027344 C 50.121094 -43.140625 49.4375 -44.125 48.519531 -44.980469 C 47.757812 -45.695312 46.960938 -46.203125 46.132812 -46.503906 C 46.273438 -46.453125 46.609375 -46.390625 47.144531 -46.320312 C 48.128906 -46.1875 49.339844 -46.121094 50.769531 -46.121094 C 52.515625 -46.121094 53.980469 -46.191406 55.164062 -46.332031 C 55.832031 -46.410156 56.242188 -46.472656 56.398438 -46.527344 C 55.109375 -46.089844 53.914062 -45.285156 52.808594 -44.117188 C 51.40625 -42.632812 50.515625 -40.933594 50.128906 -39.011719 L 66.050781 -35.828125 L 49.996094 -38.238281 C 49.808594 -36.992188 49.839844 -35.714844 50.085938 -34.402344 C 50.394531 -32.769531 51.003906 -31.253906 51.917969 -29.859375 C 53.222656 -27.867188 54.8125 -26.488281 56.679688 -25.722656 C 55.359375 -26.261719 52.4375 -26.886719 47.914062 -27.597656 C 39.144531 -29.015625 31.414062 -30.949219 24.722656 -33.402344 C 16.394531 -36.453125 9.222656 -41.433594 3.207031 -48.34375 C -3.644531 -56.210938 -7.066406 -66.300781 -7.066406 -78.617188 C -7.066406 -81.835938 -6.71875 -85.671875 -6.023438 -90.125 Z M 26.0625 -85.109375 C 25.625 -82.320312 25.40625 -80.152344 25.40625 -78.617188 C 25.40625 -74.40625 26.171875 -71.421875 27.699219 -69.667969 C 30.058594 -66.957031 32.792969 -65.03125 35.894531 -63.894531 C 40.640625 -62.15625 46.324219 -60.75 52.945312 -59.679688 C 59.96875 -58.578125 65.3125 -57.277344 68.972656 -55.78125 C 73.332031 -53.996094 76.703125 -51.289062 79.082031 -47.65625 C 81.882812 -43.378906 82.890625 -38.636719 82.109375 -33.417969 L 82.050781 -33.03125 L 81.972656 -32.644531 C 81.136719 -28.460938 79.28125 -24.847656 76.40625 -21.808594 C 73.832031 -19.082031 70.65625 -17.078125 66.878906 -15.789062 C 62.6875 -14.363281 57.320312 -13.648438 50.769531 -13.648438 C 44.5625 -13.648438 39.316406 -14.425781 35.035156 -15.984375 C 31.714844 -17.191406 28.824219 -18.941406 26.363281 -21.242188 C 23.746094 -23.683594 21.761719 -26.589844 20.414062 -29.96875 L 35.488281 -35.996094 L 20.5625 -29.601562 C 20.605469 -29.507812 20.699219 -29.351562 20.84375 -29.125 C 21.285156 -28.457031 21.855469 -27.820312 22.5625 -27.207031 C 24.765625 -25.300781 27.320312 -24.34375 30.222656 -24.34375 C 30.960938 -24.34375 31.511719 -24.386719 31.875 -24.472656 C 31.515625 -24.386719 30.976562 -24.226562 30.265625 -23.988281 L 25.128906 -39.394531 L 30.804688 -24.179688 L 10.875 -16.75 C 10.519531 -16.613281 10.300781 -16.523438 10.21875 -16.476562 C 10.707031 -16.761719 11.230469 -17.195312 11.789062 -17.785156 C 12.863281 -18.917969 13.652344 -20.207031 14.164062 -21.65625 C 14.527344 -22.683594 14.710938 -23.671875 14.710938 -24.621094 C 14.710938 -24.535156 14.710938 -24.464844 14.710938 -24.40625 L 14.710938 -24.417969 C 14.691406 -24.703125 14.648438 -25 14.589844 -25.300781 C 14.851562 -23.921875 15.382812 -22.757812 16.175781 -21.808594 C 17.230469 -20.542969 18.871094 -19.386719 21.097656 -18.339844 C 27.679688 -15.242188 36.210938 -13.691406 46.695312 -13.691406 C 61.289062 -13.691406 72.273438 -15.765625 79.648438 -19.921875 C 82.292969 -21.410156 84.410156 -23.355469 85.996094 -25.757812 C 87.789062 -28.472656 89.054688 -31.921875 89.796875 -36.109375 L 89.839844 -36.351562 L 89.890625 -36.59375 C 90.226562 -38.21875 90.398438 -40.167969 90.398438 -42.449219 C 90.398438 -45.664062 89.945312 -48.246094 89.039062 -50.199219 C 88.375 -51.632812 87.347656 -52.828125 85.960938 -53.785156 C 80.359375 -57.644531 73.277344 -60.234375 64.707031 -61.558594 C 57.371094 -62.71875 51.917969 -63.890625 48.351562 -65.082031 C 44.25 -66.449219 40.894531 -68.597656 38.292969 -71.523438 C 34.882812 -75.363281 33.175781 -79.878906 33.175781 -85.070312 C 33.175781 -89.445312 34.347656 -93.410156 36.6875 -96.96875 C 38.832031 -100.222656 41.746094 -102.785156 45.429688 -104.648438 C 49.972656 -106.949219 55.769531 -108.097656 62.828125 -108.097656 C 67.984375 -108.097656 72.632812 -107.359375 76.777344 -105.878906 C 80.394531 -104.589844 83.5 -102.578125 86.097656 -99.84375 C 88.527344 -97.289062 90.378906 -94.1875 91.644531 -90.542969 C 91.675781 -90.457031 91.695312 -90.394531 91.710938 -90.355469 C 91.683594 -90.421875 91.644531 -90.511719 91.585938 -90.621094 C 91.222656 -91.332031 90.707031 -92.050781 90.039062 -92.773438 C 88.738281 -94.179688 87.195312 -95.25 85.410156 -95.972656 C 83.902344 -96.585938 82.375 -96.894531 80.824219 -96.894531 C 80.054688 -96.894531 79.398438 -96.828125 78.859375 -96.699219 C 78.917969 -96.714844 79.015625 -96.746094 79.148438 -96.792969 L 99.523438 -104.773438 L 105.445312 -89.65625 L 99.144531 -104.621094 C 99.609375 -104.816406 99.933594 -104.964844 100.121094 -105.074219 C 99.792969 -104.882812 99.394531 -104.570312 98.925781 -104.132812 C 97.738281 -103.019531 96.8125 -101.691406 96.144531 -100.152344 C 95.484375 -98.621094 95.152344 -97.046875 95.152344 -95.429688 C 95.152344 -94.539062 95.25 -93.820312 95.449219 -93.273438 L 95.328125 -93.605469 L 95.222656 -93.945312 C 94.53125 -96.144531 93.59375 -97.980469 92.410156 -99.457031 C 91.304688 -100.835938 89.898438 -101.996094 88.183594 -102.941406 C 83.4375 -105.558594 76.113281 -106.867188 66.222656 -106.867188 C 52.960938 -106.867188 42.910156 -104.6875 36.0625 -100.324219 C 33.265625 -98.546875 31.066406 -96.429688 29.453125 -93.972656 C 27.789062 -91.433594 26.640625 -88.375 26.007812 -84.796875 Z M 26.0625 -85.109375 "/></g></g></g><g fill="#000000" fill-opacity="1"><g transform="translate(1147.392895, 159.282494)"><g><path d="M 100.351562 -136.796875 C 106.117188 -136.796875 110.925781 -135.402344 114.78125 -132.617188 C 117.839844 -130.410156 120.078125 -127.53125 121.5 -123.976562 C 122.527344 -121.40625 123.042969 -118.625 123.042969 -115.632812 C 123.042969 -113.71875 122.910156 -111.980469 122.652344 -110.417969 L 119.222656 -91.214844 C 118.15625 -84.542969 115.398438 -79.371094 110.949219 -75.691406 C 106.644531 -72.136719 101.132812 -70.359375 94.410156 -70.359375 L 52.296875 -70.359375 L 52.296875 -86.597656 L 68.296875 -83.828125 L 66.769531 -75 L 50.769531 -77.769531 L 50.769531 -94.007812 L 83.371094 -94.007812 C 89.183594 -94.007812 93.976562 -92.675781 97.746094 -90.015625 C 100.902344 -87.789062 103.1875 -84.835938 104.609375 -81.160156 C 105.578125 -78.652344 106.0625 -75.9375 106.0625 -73.015625 L 106.0625 -72.003906 L 105.542969 -67.863281 L 102.074219 -48.425781 C 101.027344 -41.886719 98.390625 -36.789062 94.15625 -33.132812 C 89.863281 -29.425781 84.285156 -27.570312 77.429688 -27.570312 L 44.828125 -27.570312 L 44.828125 -43.808594 L 60.820312 -41.003906 L 59.121094 -31.324219 L 43.128906 -34.128906 L 43.128906 -50.367188 L 86.429688 -50.367188 C 92.242188 -50.367188 97.03125 -49.035156 100.800781 -46.375 C 103.957031 -44.148438 106.246094 -41.195312 107.667969 -37.519531 C 108.632812 -35.015625 109.117188 -32.300781 109.117188 -29.375 L 109.117188 -28.363281 L 108.601562 -24.234375 L 105.132812 -4.640625 C 104.066406 2.046875 101.304688 7.226562 96.855469 10.90625 C 92.550781 14.460938 87.039062 16.238281 80.316406 16.238281 L 5.09375 16.238281 C -0.71875 16.238281 -5.511719 14.90625 -9.277344 12.246094 C -12.433594 10.019531 -14.722656 7.066406 -16.144531 3.390625 C -17.113281 0.882812 -17.597656 -1.832031 -17.597656 -4.753906 L -17.597656 -5.765625 L -17.078125 -9.894531 L 1.671875 -115.914062 C 2.71875 -122.46875 5.359375 -127.578125 9.59375 -131.234375 C 13.886719 -134.941406 19.460938 -136.796875 26.320312 -136.796875 Z M 100.351562 -104.320312 L 26.320312 -104.320312 C 26.242188 -104.320312 26.175781 -104.320312 26.125 -104.316406 L 26.128906 -104.320312 C 26.316406 -104.339844 26.542969 -104.386719 26.8125 -104.457031 C 28.210938 -104.824219 29.546875 -105.558594 30.820312 -106.65625 C 32.066406 -107.730469 32.96875 -108.914062 33.527344 -110.199219 C 33.625 -110.429688 33.699219 -110.625 33.742188 -110.78125 C 33.730469 -110.742188 33.699219 -110.570312 33.648438 -110.257812 L 14.96875 -4.644531 L -1.019531 -7.472656 L 15.09375 -5.457031 L 14.753906 -2.742188 L -1.359375 -4.753906 L 14.878906 -4.753906 C 14.878906 -5.867188 14.636719 -7.054688 14.148438 -8.3125 C 13.210938 -10.746094 11.640625 -12.734375 9.449219 -14.285156 C 8.074219 -15.253906 6.6875 -15.882812 5.296875 -16.167969 C 5.089844 -16.207031 4.925781 -16.234375 4.800781 -16.242188 C 4.855469 -16.238281 4.953125 -16.238281 5.09375 -16.238281 L 80.316406 -16.238281 C 80.429688 -16.238281 80.5 -16.238281 80.523438 -16.242188 C 80.351562 -16.222656 80.144531 -16.179688 79.898438 -16.117188 C 78.609375 -15.78125 77.371094 -15.121094 76.171875 -14.132812 C 74.878906 -13.0625 73.933594 -11.863281 73.335938 -10.539062 C 73.21875 -10.28125 73.136719 -10.054688 73.082031 -9.863281 L 73.078125 -9.851562 C 73.089844 -9.898438 73.113281 -10.050781 73.15625 -10.300781 L 76.550781 -29.488281 L 92.542969 -26.660156 L 76.429688 -28.671875 L 76.769531 -31.390625 L 92.882812 -29.375 L 76.644531 -29.375 C 76.644531 -28.261719 76.886719 -27.074219 77.375 -25.816406 C 78.3125 -23.382812 79.878906 -21.394531 82.074219 -19.847656 C 83.449219 -18.875 84.835938 -18.246094 86.226562 -17.964844 C 86.429688 -17.921875 86.59375 -17.894531 86.722656 -17.886719 C 86.667969 -17.890625 86.570312 -17.894531 86.429688 -17.894531 L 23.796875 -17.894531 L 31.191406 -60.046875 L 77.429688 -60.046875 C 77.507812 -60.046875 77.570312 -60.046875 77.625 -60.050781 L 77.621094 -60.046875 C 77.429688 -60.027344 77.203125 -59.980469 76.9375 -59.910156 C 75.535156 -59.542969 74.199219 -58.808594 72.929688 -57.710938 C 71.683594 -56.636719 70.78125 -55.453125 70.222656 -54.167969 C 70.121094 -53.9375 70.050781 -53.742188 70.007812 -53.585938 C 70.019531 -53.625 70.050781 -53.808594 70.105469 -54.132812 L 73.5 -73.152344 L 89.484375 -70.296875 L 73.371094 -72.3125 L 73.710938 -75.027344 L 89.824219 -73.015625 L 73.585938 -73.015625 C 73.585938 -71.902344 73.832031 -70.714844 74.316406 -69.453125 C 75.257812 -67.023438 76.824219 -65.03125 79.015625 -63.484375 C 80.394531 -62.511719 81.777344 -61.886719 83.171875 -61.601562 C 83.375 -61.5625 83.539062 -61.535156 83.664062 -61.523438 C 83.609375 -61.527344 83.511719 -61.53125 83.371094 -61.53125 L 31.480469 -61.53125 L 38.628906 -102.835938 L 94.410156 -102.835938 C 94.523438 -102.835938 94.59375 -102.835938 94.617188 -102.839844 C 94.445312 -102.820312 94.238281 -102.78125 93.992188 -102.714844 C 92.703125 -102.378906 91.460938 -101.71875 90.265625 -100.730469 C 88.972656 -99.660156 88.027344 -98.460938 87.429688 -97.136719 C 87.3125 -96.878906 87.230469 -96.652344 87.175781 -96.460938 L 87.171875 -96.449219 C 87.183594 -96.5 87.210938 -96.65625 87.253906 -96.925781 L 90.617188 -115.757812 C 90.585938 -115.570312 90.566406 -115.421875 90.5625 -115.3125 C 90.566406 -115.378906 90.566406 -115.484375 90.566406 -115.632812 C 90.566406 -114.457031 90.828125 -113.214844 91.347656 -111.917969 C 92.257812 -109.636719 93.734375 -107.761719 95.769531 -106.292969 C 97.0625 -105.359375 98.382812 -104.742188 99.730469 -104.4375 C 99.988281 -104.378906 100.214844 -104.34375 100.410156 -104.324219 C 100.4375 -104.320312 100.457031 -104.320312 100.464844 -104.320312 C 100.4375 -104.320312 100.398438 -104.320312 100.351562 -104.320312 Z M 100.351562 -104.320312 "/></g></g></g><g clip-path="url(#47aba35c10)"><g fill="#000000" fill-opacity="1"><g transform="translate(1247.914673, 159.282494)"><g><path d="M 125.3125 -136.796875 C 129.964844 -136.796875 133.996094 -135.722656 137.402344 -133.578125 C 140.230469 -131.796875 142.417969 -129.449219 143.960938 -126.53125 C 145.410156 -123.796875 146.136719 -120.839844 146.136719 -117.671875 C 146.136719 -112.515625 144.269531 -107.605469 140.539062 -102.945312 L 127.859375 -113.085938 L 140.816406 -103.300781 L 90.558594 -36.742188 L 77.597656 -46.523438 L 93.597656 -43.742188 L 86.804688 -4.6875 C 85.730469 2.03125 82.96875 7.226562 78.515625 10.90625 C 74.214844 14.460938 68.699219 16.238281 61.976562 16.238281 L 37.527344 16.238281 C 31.714844 16.238281 26.921875 14.90625 23.152344 12.246094 C 19.996094 10.019531 17.707031 7.066406 16.289062 3.390625 C 15.320312 0.882812 14.835938 -1.832031 14.835938 -4.753906 L 14.835938 -5.765625 L 15.351562 -9.882812 L 22.210938 -48.992188 L 38.207031 -46.1875 L 23.109375 -40.207031 L -3.378906 -107.109375 L 11.714844 -113.085938 L -3.121094 -106.492188 C -4.507812 -109.609375 -5.199219 -112.882812 -5.199219 -116.3125 C -5.199219 -119.296875 -4.625 -122.097656 -3.476562 -124.710938 C -2.109375 -127.8125 -0.0742188 -130.390625 2.632812 -132.441406 C 6.464844 -135.34375 11.136719 -136.796875 16.640625 -136.796875 L 40.582031 -136.796875 C 47.488281 -136.796875 52.753906 -136.042969 56.382812 -134.542969 C 62.523438 -132.003906 66.898438 -126.960938 69.511719 -119.417969 L 79.445312 -89.109375 L 64.015625 -84.050781 L 50.785156 -93.46875 L 72.183594 -123.523438 C 76.066406 -129.132812 80.5 -132.875 85.480469 -134.742188 C 89.128906 -136.113281 94.257812 -136.796875 100.863281 -136.796875 Z M 125.3125 -104.320312 L 100.863281 -104.320312 C 99.109375 -104.320312 97.707031 -104.265625 96.660156 -104.15625 C 96.363281 -104.125 96.152344 -104.097656 96.027344 -104.070312 C 96.242188 -104.113281 96.527344 -104.203125 96.882812 -104.335938 C 98.015625 -104.761719 98.890625 -105.261719 99.507812 -105.847656 C 99.378906 -105.726562 99.089844 -105.339844 98.636719 -104.691406 L 58.597656 -48.441406 L 38.824219 -108.792969 C 38.796875 -108.867188 38.777344 -108.925781 38.757812 -108.96875 C 38.761719 -108.960938 38.769531 -108.941406 38.785156 -108.910156 C 38.914062 -108.652344 39.089844 -108.371094 39.316406 -108.0625 C 40.441406 -106.527344 41.992188 -105.351562 43.96875 -104.535156 C 44.484375 -104.320312 44.929688 -104.175781 45.308594 -104.097656 C 45.242188 -104.109375 45.082031 -104.128906 44.832031 -104.15625 C 43.804688 -104.265625 42.386719 -104.320312 40.582031 -104.320312 L 16.640625 -104.320312 C 17.050781 -104.320312 17.558594 -104.398438 18.164062 -104.550781 C 19.597656 -104.910156 20.957031 -105.578125 22.242188 -106.554688 C 24.015625 -107.898438 25.351562 -109.589844 26.25 -111.632812 C 26.933594 -113.183594 27.273438 -114.746094 27.273438 -116.3125 C 27.273438 -117.480469 27.035156 -118.601562 26.554688 -119.683594 L 26.691406 -119.375 L 54.992188 -47.898438 L 47.40625 -4.664062 L 31.414062 -7.472656 L 47.523438 -5.457031 L 47.183594 -2.742188 L 31.074219 -4.753906 L 47.3125 -4.753906 C 47.3125 -5.867188 47.066406 -7.054688 46.582031 -8.3125 C 45.640625 -10.746094 44.074219 -12.734375 41.878906 -14.285156 C 40.503906 -15.253906 39.121094 -15.882812 37.726562 -16.167969 C 37.523438 -16.207031 37.359375 -16.234375 37.234375 -16.242188 C 37.289062 -16.238281 37.386719 -16.238281 37.527344 -16.238281 L 61.976562 -16.238281 C 62.09375 -16.238281 62.160156 -16.238281 62.183594 -16.242188 C 62.011719 -16.222656 61.804688 -16.179688 61.558594 -16.117188 C 60.273438 -15.78125 59.03125 -15.121094 57.832031 -14.132812 C 56.539062 -13.0625 55.59375 -11.863281 55 -10.539062 C 54.882812 -10.28125 54.796875 -10.054688 54.742188 -9.863281 L 54.738281 -9.851562 C 54.75 -9.898438 54.773438 -10.035156 54.808594 -10.253906 L 62.273438 -53.175781 L 115.039062 -123.054688 L 115.179688 -123.230469 C 114.988281 -122.988281 114.777344 -122.613281 114.550781 -122.101562 C 113.957031 -120.765625 113.660156 -119.289062 113.660156 -117.671875 C 113.660156 -115.464844 114.195312 -113.351562 115.261719 -111.335938 C 116.421875 -109.144531 118.035156 -107.394531 120.101562 -106.097656 C 121.359375 -105.300781 122.65625 -104.765625 123.984375 -104.488281 C 124.511719 -104.375 124.953125 -104.320312 125.3125 -104.320312 Z M 125.3125 -104.320312 "/></g></g></g></g><g fill="#ffffff" fill-opacity="1"><g transform="translate(724.080698, 159.282494)"><g><path d="M 98.484375 -120.5625 C 100.742188 -120.5625 102.351562 -120.21875 103.3125 -119.53125 C 104.28125 -118.851562 104.765625 -117.664062 104.765625 -115.96875 C 104.765625 -115.519531 104.648438 -114.613281 104.421875 -113.25 L 91.515625 -39.90625 C 88.910156 -25.53125 83.164062 -14.859375 74.28125 -7.890625 C 65.394531 -0.929688 53.03125 2.546875 37.1875 2.546875 C 25.300781 2.546875 15.929688 -0.0546875 9.078125 -5.265625 C 2.234375 -10.472656 -2.148438 -17.882812 -4.078125 -27.5 C -4.191406 -28.070312 -4.25 -28.8125 -4.25 -29.71875 C -4.25 -31.53125 -3.738281 -33 -2.71875 -34.125 C -1.695312 -35.257812 0 -36.222656 2.375 -37.015625 L 23.4375 -44.140625 C 25.351562 -44.828125 26.878906 -45.171875 28.015625 -45.171875 C 29.265625 -45.171875 30.253906 -44.769531 30.984375 -43.96875 C 31.722656 -43.175781 32.316406 -41.878906 32.765625 -40.078125 C 34.242188 -34.296875 37.53125 -31.40625 42.625 -31.40625 C 47.832031 -31.40625 51.113281 -35.144531 52.46875 -42.625 L 65.03125 -113.25 C 65.59375 -115.96875 66.46875 -117.863281 67.65625 -118.9375 C 68.851562 -120.019531 70.863281 -120.5625 73.6875 -120.5625 Z M 98.484375 -120.5625 "/></g></g></g><g fill="#ffffff" fill-opacity="1"><g transform="translate(823.583678, 159.282494)"><g><path d="M 100.34375 -120.5625 C 102.613281 -120.5625 104.253906 -120.191406 105.265625 -119.453125 C 106.285156 -118.710938 106.796875 -117.4375 106.796875 -115.625 C 106.796875 -114.613281 106.738281 -113.765625 106.625 -113.078125 L 103.234375 -94.0625 C 102.785156 -91.238281 101.910156 -89.285156 100.609375 -88.203125 C 99.304688 -87.128906 97.238281 -86.59375 94.40625 -86.59375 L 52.296875 -86.59375 L 50.765625 -77.765625 L 83.375 -77.765625 C 85.75 -77.765625 87.414062 -77.425781 88.375 -76.75 C 89.34375 -76.070312 89.828125 -74.828125 89.828125 -73.015625 L 89.484375 -70.296875 L 86.09375 -51.28125 C 85.632812 -48.445312 84.78125 -46.492188 83.53125 -45.421875 C 82.289062 -44.347656 80.253906 -43.8125 77.421875 -43.8125 L 44.828125 -43.8125 L 43.125 -34.125 L 86.421875 -34.125 C 88.804688 -34.125 90.476562 -33.785156 91.4375 -33.109375 C 92.394531 -32.429688 92.875 -31.1875 92.875 -29.375 L 92.546875 -26.65625 L 89.140625 -7.46875 C 88.691406 -4.632812 87.816406 -2.679688 86.515625 -1.609375 C 85.210938 -0.535156 83.144531 0 80.3125 0 L 5.09375 0 C 2.71875 0 1.046875 -0.335938 0.078125 -1.015625 C -0.878906 -1.691406 -1.359375 -2.9375 -1.359375 -4.75 L -1.015625 -7.46875 L 17.65625 -113.078125 C 18.113281 -115.910156 18.960938 -117.863281 20.203125 -118.9375 C 21.453125 -120.019531 23.488281 -120.5625 26.3125 -120.5625 Z M 100.34375 -120.5625 "/></g></g></g><g fill="#ffffff" fill-opacity="1"><g transform="translate(924.10547, 159.282494)"><g><path d="M 76.0625 -120.5625 C 87.726562 -120.5625 96.925781 -117.585938 103.65625 -111.640625 C 110.394531 -105.703125 113.765625 -97.351562 113.765625 -86.59375 C 113.765625 -82.96875 113.484375 -79.6875 112.921875 -76.75 C 110.203125 -61.582031 102.503906 -50.257812 89.828125 -42.78125 C 91.410156 -40.289062 92.765625 -37.40625 93.890625 -34.125 L 102.5625 -9.34375 C 102.894531 -8.207031 103.0625 -7.1875 103.0625 -6.28125 C 103.0625 -4.351562 102.4375 -2.820312 101.1875 -1.6875 C 99.945312 -0.5625 98.140625 0 95.765625 0 L 72.84375 0 C 68.3125 0 64.859375 -0.757812 62.484375 -2.28125 C 60.109375 -3.8125 58.46875 -6.273438 57.5625 -9.671875 L 51.78125 -30.046875 C 50.988281 -32.546875 50.140625 -34.390625 49.234375 -35.578125 C 48.328125 -36.765625 46.742188 -37.359375 44.484375 -37.359375 L 43.640625 -37.359375 L 38.375 -7.46875 C 37.914062 -4.632812 37.035156 -2.679688 35.734375 -1.609375 C 34.441406 -0.535156 32.378906 0 29.546875 0 L 5.09375 0 C 2.71875 0 1.046875 -0.335938 0.078125 -1.015625 C -0.878906 -1.691406 -1.359375 -2.9375 -1.359375 -4.75 L -1.015625 -7.46875 L 17.65625 -113.078125 C 18.113281 -115.910156 18.960938 -117.863281 20.203125 -118.9375 C 21.453125 -120.019531 23.488281 -120.5625 26.3125 -120.5625 Z M 62.3125 -69.28125 C 65.375 -69.28125 67.835938 -70.328125 69.703125 -72.421875 C 71.566406 -74.515625 72.5 -77.144531 72.5 -80.3125 C 72.5 -82.351562 71.90625 -83.910156 70.71875 -84.984375 C 69.53125 -86.054688 67.75 -86.59375 65.375 -86.59375 L 52.296875 -86.59375 L 49.234375 -69.28125 Z M 62.3125 -69.28125 "/></g></g></g><g fill="#ffffff" fill-opacity="1"><g transform="translate(1037.192502, 159.282494)"><g><path d="M 10.015625 -87.609375 C 12.054688 -99.160156 17.828125 -107.960938 27.328125 -114.015625 C 36.835938 -120.078125 49.800781 -123.109375 66.21875 -123.109375 C 78.894531 -123.109375 88.828125 -121.125 96.015625 -117.15625 C 103.203125 -113.195312 108.097656 -107.085938 110.703125 -98.828125 C 111.160156 -97.578125 111.390625 -96.441406 111.390625 -95.421875 C 111.390625 -94.179688 110.9375 -93.132812 110.03125 -92.28125 C 109.125 -91.4375 107.59375 -90.5625 105.4375 -89.65625 L 85.0625 -81.671875 C 83.25 -80.992188 81.835938 -80.65625 80.828125 -80.65625 C 79.691406 -80.65625 78.785156 -81.019531 78.109375 -81.75 C 77.429688 -82.488281 76.804688 -83.707031 76.234375 -85.40625 C 75.328125 -88.007812 73.6875 -89.734375 71.3125 -90.578125 C 68.9375 -91.429688 66.109375 -91.859375 62.828125 -91.859375 C 53.878906 -91.859375 49.40625 -89.59375 49.40625 -85.0625 C 49.40625 -82.914062 50.765625 -81.390625 53.484375 -80.484375 C 56.203125 -79.578125 60.785156 -78.613281 67.234375 -77.59375 C 78.210938 -75.894531 87.519531 -72.414062 95.15625 -67.15625 C 102.800781 -61.894531 106.625 -53.660156 106.625 -42.453125 C 106.625 -39.054688 106.34375 -36 105.78125 -33.28125 C 103.519531 -20.488281 97.460938 -11.316406 87.609375 -5.765625 C 77.765625 -0.222656 64.125 2.546875 46.6875 2.546875 C 33.789062 2.546875 22.953125 0.484375 14.171875 -3.640625 C 5.398438 -7.773438 0.222656 -13.976562 -1.359375 -22.25 C -1.472656 -22.8125 -1.53125 -23.601562 -1.53125 -24.625 C -1.53125 -26.4375 -1.019531 -27.878906 0 -28.953125 C 1.019531 -30.023438 2.71875 -31.015625 5.09375 -31.921875 L 25.125 -39.390625 C 27.507812 -40.179688 29.207031 -40.578125 30.21875 -40.578125 C 31.351562 -40.578125 32.34375 -40.207031 33.1875 -39.46875 C 34.039062 -38.738281 34.804688 -37.582031 35.484375 -36 C 36.390625 -33.726562 38.085938 -32.140625 40.578125 -31.234375 C 43.066406 -30.335938 46.460938 -29.890625 50.765625 -29.890625 C 55.523438 -29.890625 59.148438 -30.3125 61.640625 -31.15625 C 64.128906 -32.007812 65.597656 -33.566406 66.046875 -35.828125 C 66.390625 -38.085938 65.316406 -39.726562 62.828125 -40.75 C 60.335938 -41.769531 56.207031 -42.734375 50.4375 -43.640625 C 42.738281 -44.878906 36.03125 -46.546875 30.3125 -48.640625 C 24.59375 -50.734375 19.640625 -54.1875 15.453125 -59 C 11.265625 -63.8125 9.171875 -70.347656 9.171875 -78.609375 C 9.171875 -80.992188 9.453125 -83.992188 10.015625 -87.609375 Z M 10.015625 -87.609375 "/></g></g></g><g fill="#ffffff" fill-opacity="1"><g transform="translate(1147.392895, 159.282494)"><g><path d="M 100.34375 -120.5625 C 102.613281 -120.5625 104.253906 -120.191406 105.265625 -119.453125 C 106.285156 -118.710938 106.796875 -117.4375 106.796875 -115.625 C 106.796875 -114.613281 106.738281 -113.765625 106.625 -113.078125 L 103.234375 -94.0625 C 102.785156 -91.238281 101.910156 -89.285156 100.609375 -88.203125 C 99.304688 -87.128906 97.238281 -86.59375 94.40625 -86.59375 L 52.296875 -86.59375 L 50.765625 -77.765625 L 83.375 -77.765625 C 85.75 -77.765625 87.414062 -77.425781 88.375 -76.75 C 89.34375 -76.070312 89.828125 -74.828125 89.828125 -73.015625 L 89.484375 -70.296875 L 86.09375 -51.28125 C 85.632812 -48.445312 84.78125 -46.492188 83.53125 -45.421875 C 82.289062 -44.347656 80.253906 -43.8125 77.421875 -43.8125 L 44.828125 -43.8125 L 43.125 -34.125 L 86.421875 -34.125 C 88.804688 -34.125 90.476562 -33.785156 91.4375 -33.109375 C 92.394531 -32.429688 92.875 -31.1875 92.875 -29.375 L 92.546875 -26.65625 L 89.140625 -7.46875 C 88.691406 -4.632812 87.816406 -2.679688 86.515625 -1.609375 C 85.210938 -0.535156 83.144531 0 80.3125 0 L 5.09375 0 C 2.71875 0 1.046875 -0.335938 0.078125 -1.015625 C -0.878906 -1.691406 -1.359375 -2.9375 -1.359375 -4.75 L -1.015625 -7.46875 L 17.65625 -113.078125 C 18.113281 -115.910156 18.960938 -117.863281 20.203125 -118.9375 C 21.453125 -120.019531 23.488281 -120.5625 26.3125 -120.5625 Z M 100.34375 -120.5625 "/></g></g></g><g fill="#ffffff" fill-opacity="1"><g transform="translate(1247.914673, 159.282494)"><g><path d="M 125.3125 -120.5625 C 128.363281 -120.5625 129.890625 -119.597656 129.890625 -117.671875 C 129.890625 -116.304688 129.210938 -114.773438 127.859375 -113.078125 L 77.59375 -46.53125 L 70.8125 -7.46875 C 70.351562 -4.632812 69.472656 -2.679688 68.171875 -1.609375 C 66.867188 -0.535156 64.800781 0 61.96875 0 L 37.53125 0 C 35.144531 0 33.472656 -0.335938 32.515625 -1.015625 C 31.554688 -1.691406 31.078125 -2.9375 31.078125 -4.75 L 31.40625 -7.46875 L 38.203125 -46.1875 L 11.71875 -113.078125 C 11.257812 -114.097656 11.03125 -115.175781 11.03125 -116.3125 C 11.03125 -119.144531 12.898438 -120.5625 16.640625 -120.5625 L 40.578125 -120.5625 C 45.335938 -120.5625 48.535156 -120.21875 50.171875 -119.53125 C 51.816406 -118.851562 53.148438 -117.046875 54.171875 -114.109375 L 64.015625 -84.046875 L 85.40625 -114.109375 C 87.445312 -117.046875 89.367188 -118.851562 91.171875 -119.53125 C 92.984375 -120.21875 96.210938 -120.5625 100.859375 -120.5625 Z M 125.3125 -120.5625 "/></g></g></g><g fill="#000000" fill-opacity="1"><g transform="translate(20.724782, 159.282494)"><g><path d="M 46.523438 17.296875 C 38.917969 17.296875 32.886719 15.070312 28.433594 10.617188 C 23.980469 6.164062 21.753906 0.136719 21.753906 -7.472656 L 21.753906 -46.1875 L 39.054688 -46.1875 L 24.050781 -37.578125 L -14.324219 -104.480469 C -16.761719 -108.742188 -17.976562 -112.96875 -17.976562 -117.164062 C -17.976562 -120.449219 -17.261719 -123.523438 -15.832031 -126.382812 C -14.25 -129.546875 -11.972656 -132.121094 -9 -134.101562 C -5.246094 -136.605469 -0.773438 -137.855469 4.414062 -137.855469 L 29.035156 -137.855469 C 35.832031 -137.855469 41.109375 -137.128906 44.875 -135.671875 C 50.601562 -133.457031 55.265625 -129 58.871094 -122.308594 L 58.964844 -122.128906 L 74.339844 -91.890625 L 58.921875 -84.050781 L 43.644531 -92.164062 L 59.605469 -122.21875 C 63.203125 -128.90625 67.796875 -133.367188 73.382812 -135.601562 C 77.140625 -137.105469 82.453125 -137.855469 89.316406 -137.855469 L 113.085938 -137.855469 C 118.277344 -137.855469 122.75 -136.605469 126.503906 -134.101562 C 129.476562 -132.121094 131.753906 -129.546875 133.335938 -126.382812 C 134.765625 -123.523438 135.480469 -120.449219 135.480469 -117.164062 C 135.480469 -112.96875 134.265625 -108.75 131.84375 -104.503906 L 93.433594 -37.886719 L 78.449219 -46.523438 L 95.746094 -46.523438 L 95.746094 -7.472656 C 95.746094 0.136719 93.519531 6.164062 89.066406 10.617188 C 84.613281 15.070312 78.582031 17.296875 70.976562 17.296875 Z M 46.523438 -17.296875 L 70.976562 -17.296875 L 71.003906 -17.292969 C 70.699219 -17.257812 70.355469 -17.1875 69.972656 -17.082031 C 68.007812 -16.539062 66.21875 -15.460938 64.601562 -13.84375 C 62.984375 -12.226562 61.90625 -10.4375 61.367188 -8.476562 C 61.261719 -8.089844 61.191406 -7.746094 61.15625 -7.445312 L 61.148438 -7.472656 L 61.148438 -51.15625 L 101.804688 -121.667969 C 101.691406 -121.46875 101.566406 -121.167969 101.429688 -120.765625 C 101.066406 -119.667969 100.882812 -118.46875 100.882812 -117.164062 C 100.882812 -115.007812 101.386719 -112.921875 102.390625 -110.910156 C 103.546875 -108.597656 105.1875 -106.730469 107.3125 -105.316406 C 108.679688 -104.402344 110.097656 -103.785156 111.5625 -103.460938 C 112.164062 -103.328125 112.671875 -103.261719 113.085938 -103.261719 L 89.316406 -103.261719 C 87.609375 -103.261719 86.273438 -103.207031 85.300781 -103.105469 C 85.078125 -103.078125 84.945312 -103.0625 84.898438 -103.054688 C 85.277344 -103.132812 85.71875 -103.273438 86.230469 -103.476562 C 87.855469 -104.128906 89.152344 -104.988281 90.121094 -106.054688 C 90.253906 -106.203125 90.34375 -106.3125 90.394531 -106.386719 C 90.324219 -106.28125 90.246094 -106.148438 90.160156 -105.992188 L 58.585938 -46.542969 L 28.21875 -106.265625 L 43.640625 -114.105469 L 28.40625 -105.90625 C 28.300781 -106.101562 28.21875 -106.242188 28.160156 -106.328125 C 28.222656 -106.234375 28.332031 -106.109375 28.480469 -105.945312 C 29.460938 -104.882812 30.761719 -104.035156 32.386719 -103.40625 C 32.84375 -103.230469 33.234375 -103.109375 33.558594 -103.042969 C 33.488281 -103.054688 33.332031 -103.074219 33.089844 -103.101562 C 32.097656 -103.207031 30.746094 -103.261719 29.035156 -103.261719 L 4.414062 -103.261719 C 4.832031 -103.261719 5.339844 -103.328125 5.9375 -103.460938 C 7.40625 -103.785156 8.820312 -104.402344 10.191406 -105.316406 C 12.3125 -106.730469 13.953125 -108.597656 15.113281 -110.910156 C 16.117188 -112.921875 16.621094 -115.007812 16.621094 -117.164062 C 16.621094 -118.46875 16.4375 -119.667969 16.070312 -120.765625 C 15.9375 -121.167969 15.808594 -121.480469 15.683594 -121.695312 L 56.351562 -50.792969 L 56.351562 -7.472656 L 56.34375 -7.445312 C 56.3125 -7.746094 56.242188 -8.089844 56.136719 -8.476562 C 55.59375 -10.4375 54.515625 -12.226562 52.898438 -13.84375 C 51.28125 -15.460938 49.492188 -16.539062 47.53125 -17.082031 C 47.144531 -17.1875 46.800781 -17.257812 46.5 -17.292969 Z M 46.523438 -17.296875 "/></g></g></g><g fill="#000000" fill-opacity="1"><g transform="translate(138.226576, 159.282494)"><g><path d="M 14.261719 17.296875 C 6.65625 17.296875 0.625 15.070312 -3.828125 10.617188 C -8.28125 6.164062 -10.507812 0.136719 -10.507812 -7.472656 L -10.507812 -113.085938 C -10.507812 -120.695312 -8.28125 -126.722656 -3.828125 -131.175781 C 0.625 -135.628906 6.65625 -137.855469 14.261719 -137.855469 L 88.296875 -137.855469 C 95.902344 -137.855469 101.933594 -135.628906 106.386719 -131.175781 C 110.839844 -126.722656 113.066406 -120.695312 113.066406 -113.085938 L 113.066406 -94.070312 C 113.066406 -86.460938 110.839844 -80.433594 106.386719 -75.980469 C 101.933594 -71.527344 95.902344 -69.300781 88.296875 -69.300781 L 46.1875 -69.300781 L 46.1875 -86.597656 L 63.484375 -86.597656 L 63.484375 -77.769531 L 46.1875 -77.769531 L 46.1875 -95.066406 L 78.789062 -95.066406 C 86.394531 -95.066406 92.425781 -92.839844 96.878906 -88.386719 C 101.332031 -83.933594 103.558594 -77.90625 103.558594 -70.296875 L 103.558594 -51.28125 C 103.558594 -43.671875 101.332031 -37.644531 96.878906 -33.191406 C 92.425781 -28.738281 86.394531 -26.511719 78.789062 -26.511719 L 46.1875 -26.511719 L 46.1875 -43.808594 L 63.484375 -43.808594 L 63.484375 -34.128906 L 46.1875 -34.128906 L 46.1875 -51.429688 L 89.484375 -51.429688 C 97.089844 -51.429688 103.121094 -49.203125 107.574219 -44.75 C 112.027344 -40.296875 114.253906 -34.265625 114.253906 -26.660156 L 114.253906 -7.472656 C 114.253906 0.136719 112.027344 6.164062 107.574219 10.617188 C 103.121094 15.070312 97.089844 17.296875 89.484375 17.296875 Z M 14.261719 -17.296875 L 89.484375 -17.296875 L 89.511719 -17.292969 C 89.207031 -17.257812 88.863281 -17.1875 88.480469 -17.082031 C 86.519531 -16.539062 84.726562 -15.460938 83.109375 -13.84375 C 81.492188 -12.226562 80.414062 -10.4375 79.875 -8.476562 C 79.769531 -8.089844 79.699219 -7.746094 79.664062 -7.445312 L 79.65625 -7.472656 L 79.65625 -26.660156 L 79.664062 -26.683594 C 79.699219 -26.382812 79.769531 -26.039062 79.875 -25.652344 C 80.414062 -23.691406 81.492188 -21.902344 83.109375 -20.285156 C 84.726562 -18.667969 86.519531 -17.589844 88.480469 -17.046875 C 88.863281 -16.941406 89.207031 -16.871094 89.511719 -16.839844 L 89.484375 -16.832031 L 28.886719 -16.832031 L 28.886719 -61.105469 L 78.789062 -61.105469 L 78.8125 -61.101562 C 78.511719 -61.066406 78.167969 -60.996094 77.78125 -60.890625 C 75.820312 -60.347656 74.03125 -59.269531 72.414062 -57.652344 C 70.796875 -56.035156 69.71875 -54.246094 69.175781 -52.285156 C 69.070312 -51.898438 69 -51.554688 68.96875 -51.253906 L 68.960938 -51.28125 L 68.960938 -70.296875 L 68.96875 -70.324219 C 69 -70.019531 69.070312 -69.675781 69.175781 -69.292969 C 69.71875 -67.332031 70.796875 -65.539062 72.414062 -63.921875 C 74.03125 -62.304688 75.820312 -61.226562 77.78125 -60.6875 C 78.167969 -60.582031 78.511719 -60.511719 78.8125 -60.476562 L 78.789062 -60.46875 L 28.886719 -60.46875 L 28.886719 -103.898438 L 88.296875 -103.898438 L 88.320312 -103.890625 C 88.019531 -103.855469 87.675781 -103.785156 87.289062 -103.679688 C 85.328125 -103.140625 83.539062 -102.058594 81.921875 -100.441406 C 80.304688 -98.828125 79.226562 -97.035156 78.6875 -95.074219 C 78.582031 -94.691406 78.511719 -94.347656 78.476562 -94.042969 L 78.46875 -94.070312 L 78.46875 -113.085938 L 78.476562 -113.113281 C 78.511719 -112.808594 78.582031 -112.464844 78.6875 -112.082031 C 79.226562 -110.121094 80.304688 -108.332031 81.921875 -106.714844 C 83.539062 -105.097656 85.328125 -104.015625 87.289062 -103.476562 C 87.675781 -103.371094 88.019531 -103.300781 88.320312 -103.265625 L 88.296875 -103.261719 L 14.261719 -103.261719 L 14.238281 -103.265625 C 14.539062 -103.300781 14.882812 -103.371094 15.269531 -103.476562 C 17.230469 -104.015625 19.019531 -105.097656 20.636719 -106.714844 C 22.253906 -108.332031 23.332031 -110.121094 23.875 -112.082031 C 23.980469 -112.464844 24.050781 -112.808594 24.082031 -113.113281 L 24.089844 -113.085938 L 24.089844 -7.472656 L 24.082031 -7.445312 C 24.050781 -7.746094 23.980469 -8.089844 23.875 -8.476562 C 23.332031 -10.4375 22.253906 -12.226562 20.636719 -13.84375 C 19.019531 -15.460938 17.230469 -16.539062 15.269531 -17.082031 C 14.882812 -17.1875 14.539062 -17.257812 14.238281 -17.292969 Z M 14.261719 -17.296875 "/></g></g></g><g fill="#000000" fill-opacity="1"><g transform="translate(238.748373, 159.282494)"><g><path d="M 14.261719 17.296875 C 6.65625 17.296875 0.625 15.070312 -3.828125 10.617188 C -8.28125 6.164062 -10.507812 0.136719 -10.507812 -7.472656 L -10.507812 -113.085938 C -10.507812 -120.695312 -8.28125 -126.722656 -3.828125 -131.175781 C 0.625 -135.628906 6.65625 -137.855469 14.261719 -137.855469 L 38.714844 -137.855469 C 46.320312 -137.855469 52.351562 -135.628906 56.804688 -131.175781 C 61.257812 -126.722656 63.484375 -120.695312 63.484375 -113.085938 L 63.484375 -34.128906 L 46.1875 -34.128906 L 46.1875 -51.429688 L 84.050781 -51.429688 C 91.65625 -51.429688 97.6875 -49.203125 102.140625 -44.75 C 106.59375 -40.296875 108.820312 -34.265625 108.820312 -26.660156 L 108.820312 -7.472656 C 108.820312 0.136719 106.59375 6.164062 102.140625 10.617188 C 97.6875 15.070312 91.65625 17.296875 84.050781 17.296875 Z M 14.261719 -17.296875 L 84.050781 -17.296875 L 84.078125 -17.292969 C 83.773438 -17.257812 83.429688 -17.1875 83.046875 -17.082031 C 81.085938 -16.539062 79.292969 -15.460938 77.675781 -13.84375 C 76.058594 -12.226562 74.980469 -10.4375 74.441406 -8.476562 C 74.335938 -8.089844 74.265625 -7.746094 74.230469 -7.445312 L 74.222656 -7.472656 L 74.222656 -26.660156 L 74.230469 -26.683594 C 74.265625 -26.382812 74.335938 -26.039062 74.441406 -25.652344 C 74.980469 -23.691406 76.058594 -21.902344 77.675781 -20.285156 C 79.292969 -18.667969 81.085938 -17.589844 83.046875 -17.046875 C 83.429688 -16.941406 83.773438 -16.871094 84.078125 -16.839844 L 84.050781 -16.832031 L 28.886719 -16.832031 L 28.886719 -113.085938 L 28.894531 -113.113281 C 28.929688 -112.808594 29 -112.464844 29.105469 -112.082031 C 29.644531 -110.121094 30.722656 -108.332031 32.339844 -106.714844 C 33.957031 -105.097656 35.746094 -104.015625 37.710938 -103.476562 C 38.09375 -103.371094 38.4375 -103.300781 38.738281 -103.265625 L 38.714844 -103.261719 L 14.261719 -103.261719 L 14.238281 -103.265625 C 14.539062 -103.300781 14.882812 -103.371094 15.269531 -103.476562 C 17.230469 -104.015625 19.019531 -105.097656 20.636719 -106.714844 C 22.253906 -108.332031 23.332031 -110.121094 23.875 -112.082031 C 23.980469 -112.464844 24.050781 -112.808594 24.082031 -113.113281 L 24.089844 -113.085938 L 24.089844 -7.472656 L 24.082031 -7.445312 C 24.050781 -7.746094 23.980469 -8.089844 23.875 -8.476562 C 23.332031 -10.4375 22.253906 -12.226562 20.636719 -13.84375 C 19.019531 -15.460938 17.230469 -16.539062 15.269531 -17.082031 C 14.882812 -17.1875 14.539062 -17.257812 14.238281 -17.292969 Z M 14.261719 -17.296875 "/></g></g></g><g fill="#000000" fill-opacity="1"><g transform="translate(331.968726, 159.282494)"><g><path d="M 14.261719 17.296875 C 6.65625 17.296875 0.625 15.070312 -3.828125 10.617188 C -8.28125 6.164062 -10.507812 0.136719 -10.507812 -7.472656 L -10.507812 -113.085938 C -10.507812 -120.695312 -8.28125 -126.722656 -3.828125 -131.175781 C 0.625 -135.628906 6.65625 -137.855469 14.261719 -137.855469 L 38.714844 -137.855469 C 46.320312 -137.855469 52.351562 -135.628906 56.804688 -131.175781 C 61.257812 -126.722656 63.484375 -120.695312 63.484375 -113.085938 L 63.484375 -34.128906 L 46.1875 -34.128906 L 46.1875 -51.429688 L 84.050781 -51.429688 C 91.65625 -51.429688 97.6875 -49.203125 102.140625 -44.75 C 106.59375 -40.296875 108.820312 -34.265625 108.820312 -26.660156 L 108.820312 -7.472656 C 108.820312 0.136719 106.59375 6.164062 102.140625 10.617188 C 97.6875 15.070312 91.65625 17.296875 84.050781 17.296875 Z M 14.261719 -17.296875 L 84.050781 -17.296875 L 84.078125 -17.292969 C 83.773438 -17.257812 83.429688 -17.1875 83.046875 -17.082031 C 81.085938 -16.539062 79.292969 -15.460938 77.675781 -13.84375 C 76.058594 -12.226562 74.980469 -10.4375 74.441406 -8.476562 C 74.335938 -8.089844 74.265625 -7.746094 74.230469 -7.445312 L 74.222656 -7.472656 L 74.222656 -26.660156 L 74.230469 -26.683594 C 74.265625 -26.382812 74.335938 -26.039062 74.441406 -25.652344 C 74.980469 -23.691406 76.058594 -21.902344 77.675781 -20.285156 C 79.292969 -18.667969 81.085938 -17.589844 83.046875 -17.046875 C 83.429688 -16.941406 83.773438 -16.871094 84.078125 -16.839844 L 84.050781 -16.832031 L 28.886719 -16.832031 L 28.886719 -113.085938 L 28.894531 -113.113281 C 28.929688 -112.808594 29 -112.464844 29.105469 -112.082031 C 29.644531 -110.121094 30.722656 -108.332031 32.339844 -106.714844 C 33.957031 -105.097656 35.746094 -104.015625 37.710938 -103.476562 C 38.09375 -103.371094 38.4375 -103.300781 38.738281 -103.265625 L 38.714844 -103.261719 L 14.261719 -103.261719 L 14.238281 -103.265625 C 14.539062 -103.300781 14.882812 -103.371094 15.269531 -103.476562 C 17.230469 -104.015625 19.019531 -105.097656 20.636719 -106.714844 C 22.253906 -108.332031 23.332031 -110.121094 23.875 -112.082031 C 23.980469 -112.464844 24.050781 -112.808594 24.082031 -113.113281 L 24.089844 -113.085938 L 24.089844 -7.472656 L 24.082031 -7.445312 C 24.050781 -7.746094 23.980469 -8.089844 23.875 -8.476562 C 23.332031 -10.4375 22.253906 -12.226562 20.636719 -13.84375 C 19.019531 -15.460938 17.230469 -16.539062 15.269531 -17.082031 C 14.882812 -17.1875 14.539062 -17.257812 14.238281 -17.292969 Z M 14.261719 -17.296875 "/></g></g></g><g fill="#000000" fill-opacity="1"><g transform="translate(423.321277, 159.282494)"><g><path d="M 58.410156 19.84375 C 36.699219 19.84375 19.460938 13.960938 6.695312 2.1875 C 0.0195312 -3.96875 -4.984375 -11.296875 -8.316406 -19.792969 C -11.472656 -27.851562 -13.054688 -36.816406 -13.054688 -46.695312 L -13.054688 -73.863281 C -13.054688 -83.742188 -11.472656 -92.707031 -8.316406 -100.765625 C -4.984375 -109.261719 0.0195312 -116.589844 6.695312 -122.746094 C 19.460938 -134.519531 36.699219 -140.402344 58.410156 -140.402344 C 80.125 -140.402344 97.363281 -134.519531 110.125 -122.746094 C 116.804688 -116.589844 121.808594 -109.261719 125.136719 -100.765625 C 128.296875 -92.707031 129.875 -83.742188 129.875 -73.863281 L 129.875 -46.695312 C 129.875 -36.816406 128.296875 -27.851562 125.136719 -19.792969 C 121.808594 -11.296875 116.804688 -3.96875 110.125 2.1875 C 97.363281 13.960938 80.125 19.84375 58.410156 19.84375 Z M 58.410156 -14.75 C 71.113281 -14.75 80.53125 -17.582031 86.671875 -23.246094 C 89.449219 -25.804688 91.535156 -28.863281 92.929688 -32.421875 C 94.496094 -36.417969 95.277344 -41.175781 95.277344 -46.695312 L 95.277344 -73.863281 C 95.277344 -79.382812 94.496094 -84.140625 92.929688 -88.136719 C 91.535156 -91.695312 89.449219 -94.753906 86.671875 -97.3125 C 80.53125 -102.976562 71.113281 -105.808594 58.410156 -105.808594 C 45.710938 -105.808594 36.289062 -102.976562 30.148438 -97.3125 C 27.375 -94.753906 25.289062 -91.695312 23.894531 -88.136719 C 22.328125 -84.140625 21.542969 -79.382812 21.542969 -73.863281 L 21.542969 -46.695312 C 21.542969 -41.175781 22.328125 -36.417969 23.894531 -32.421875 C 25.289062 -28.863281 27.375 -25.804688 30.148438 -23.246094 C 36.289062 -17.582031 45.710938 -14.75 58.410156 -14.75 Z M 60.9375 -44.488281 L 60.925781 -44.472656 C 60.878906 -44.734375 60.792969 -45.027344 60.664062 -45.347656 C 60.261719 -46.359375 59.636719 -47.230469 58.789062 -47.964844 C 58.203125 -48.472656 57.644531 -48.808594 57.113281 -48.96875 C 57.308594 -48.910156 57.738281 -48.882812 58.410156 -48.882812 C 59.082031 -48.882812 59.515625 -48.910156 59.710938 -48.96875 C 59.179688 -48.808594 58.621094 -48.472656 58.035156 -47.964844 C 57.183594 -47.230469 56.558594 -46.359375 56.15625 -45.347656 C 56.03125 -45.027344 55.945312 -44.734375 55.898438 -44.472656 L 55.886719 -44.488281 L 55.886719 -76.070312 L 55.898438 -76.085938 C 55.945312 -75.824219 56.03125 -75.53125 56.15625 -75.210938 C 56.558594 -74.199219 57.183594 -73.328125 58.035156 -72.59375 C 58.621094 -72.082031 59.179688 -71.75 59.710938 -71.589844 C 59.515625 -71.648438 59.082031 -71.675781 58.410156 -71.675781 C 57.738281 -71.675781 57.308594 -71.648438 57.113281 -71.589844 C 57.644531 -71.75 58.203125 -72.082031 58.789062 -72.59375 C 59.636719 -73.328125 60.261719 -74.199219 60.664062 -75.210938 C 60.792969 -75.53125 60.878906 -75.824219 60.925781 -76.085938 L 60.9375 -76.070312 Z M 26.339844 -44.488281 L 26.339844 -76.070312 C 26.339844 -80.375 27.066406 -84.355469 28.523438 -88.011719 C 30.199219 -92.21875 32.734375 -95.792969 36.128906 -98.738281 C 41.929688 -103.761719 49.355469 -106.273438 58.410156 -106.273438 C 67.46875 -106.273438 74.894531 -103.761719 80.691406 -98.738281 C 84.089844 -95.792969 86.625 -92.21875 88.300781 -88.011719 C 89.753906 -84.355469 90.484375 -80.375 90.484375 -76.070312 L 90.484375 -44.488281 C 90.484375 -40.183594 89.753906 -36.203125 88.300781 -32.546875 C 86.625 -28.339844 84.089844 -24.765625 80.691406 -21.820312 C 74.894531 -16.796875 67.46875 -14.285156 58.410156 -14.285156 C 49.355469 -14.285156 41.929688 -16.796875 36.128906 -21.820312 C 32.734375 -24.765625 30.199219 -28.339844 28.523438 -32.546875 C 27.066406 -36.203125 26.339844 -40.183594 26.339844 -44.488281 Z M 26.339844 -44.488281 "/></g></g></g><g fill="#000000" fill-opacity="1"><g transform="translate(537.087497, 159.282494)"><g><path d="M 37.355469 17.296875 C 31.628906 17.296875 26.746094 16.167969 22.707031 13.90625 C 19.421875 12.0625 16.746094 9.496094 14.683594 6.195312 C 13.1875 3.800781 12.078125 1.089844 11.359375 -1.9375 L -15.261719 -109.261719 C -15.941406 -111.976562 -16.28125 -114.496094 -16.28125 -116.824219 C -16.28125 -119.785156 -15.746094 -122.558594 -14.679688 -125.148438 C -13.21875 -128.695312 -10.941406 -131.574219 -7.847656 -133.785156 C -4.046875 -136.5 0.664062 -137.855469 6.28125 -137.855469 L 31.753906 -137.855469 C 38.230469 -137.855469 43.546875 -136.609375 47.699219 -134.117188 C 53.390625 -130.703125 57.050781 -125.257812 58.675781 -117.78125 L 58.816406 -117.128906 L 64.003906 -79.449219 C 64.746094 -74.230469 65.304688 -67.988281 65.667969 -60.726562 C 66.023438 -53.699219 66.199219 -47.890625 66.199219 -43.300781 L 48.902344 -43.300781 L 48.902344 -60.597656 L 50.261719 -60.597656 L 50.261719 -43.300781 L 32.960938 -43.300781 C 32.960938 -47.800781 33.234375 -53.691406 33.773438 -60.96875 C 34.34375 -68.605469 35.21875 -75.1875 36.402344 -80.714844 L 43.832031 -117.527344 C 44.542969 -120.8125 45.628906 -123.683594 47.078125 -126.144531 C 49.128906 -129.621094 51.835938 -132.328125 55.199219 -134.269531 C 59.347656 -136.660156 64.492188 -137.855469 70.636719 -137.855469 L 94.070312 -137.855469 C 100.113281 -137.855469 105.207031 -136.707031 109.347656 -134.40625 C 112.917969 -132.421875 115.746094 -129.609375 117.839844 -125.960938 C 119.347656 -123.335938 120.386719 -120.375 120.960938 -117.070312 L 103.917969 -114.105469 L 120.859375 -117.601562 L 128.5 -80.585938 C 129.550781 -75.210938 130.328125 -69.554688 130.832031 -63.613281 C 131.304688 -58.074219 131.714844 -51.574219 132.066406 -44.109375 L 114.785156 -43.300781 L 114.785156 -60.597656 L 116.144531 -60.597656 L 116.144531 -43.300781 L 98.851562 -43.730469 C 99.203125 -57.898438 99.984375 -69.742188 101.1875 -79.261719 L 106.171875 -116.730469 L 106.234375 -117.070312 C 106.792969 -120.300781 107.792969 -123.203125 109.226562 -125.777344 C 111.257812 -129.421875 114.023438 -132.253906 117.515625 -134.269531 C 121.664062 -136.660156 126.921875 -137.855469 133.292969 -137.855469 L 156.726562 -137.855469 C 162.347656 -137.855469 167.054688 -136.5 170.855469 -133.785156 C 173.949219 -131.574219 176.226562 -128.695312 177.6875 -125.148438 C 178.753906 -122.558594 179.289062 -119.785156 179.289062 -116.824219 C 179.289062 -114.496094 178.945312 -111.96875 178.261719 -109.230469 L 151.257812 -2.054688 C 149.332031 5.003906 145.777344 10.15625 140.59375 13.394531 C 136.429688 15.996094 131.394531 17.296875 125.484375 17.296875 L 99.671875 17.296875 C 93.761719 17.296875 88.730469 16.050781 84.574219 13.558594 C 81.535156 11.734375 79.035156 9.285156 77.078125 6.210938 C 75.578125 3.851562 74.457031 1.199219 73.722656 -1.746094 L 73.605469 -2.214844 L 68.761719 -27.476562 C 66.421875 -39.910156 65.128906 -53.410156 64.886719 -67.972656 L 82.183594 -68.261719 L 82.183594 -50.960938 L 80.65625 -50.960938 L 80.65625 -68.261719 L 97.9375 -67.515625 C 97.335938 -53.554688 95.828125 -40.171875 93.410156 -27.355469 L 88.695312 -2.394531 L 88.515625 -1.730469 C 86.648438 5.113281 83.121094 10.15625 77.9375 13.394531 C 73.773438 15.996094 68.679688 17.296875 62.65625 17.296875 Z M 37.355469 -17.296875 L 62.65625 -17.296875 C 62.820312 -17.296875 62.945312 -17.300781 63.027344 -17.308594 C 62.953125 -17.304688 62.84375 -17.285156 62.695312 -17.253906 C 61.699219 -17.046875 60.667969 -16.609375 59.601562 -15.941406 C 57.96875 -14.921875 56.695312 -13.664062 55.785156 -12.171875 C 55.445312 -11.613281 55.226562 -11.167969 55.136719 -10.835938 L 71.824219 -6.28125 L 54.828125 -9.492188 L 59.410156 -33.769531 C 61.523438 -44.957031 62.84375 -56.699219 63.371094 -69.003906 L 64.085938 -85.558594 L 99.195312 -85.558594 L 99.480469 -68.546875 C 99.691406 -55.941406 100.777344 -44.421875 102.738281 -33.992188 L 107.492188 -9.203125 L 90.503906 -5.941406 L 107.285156 -10.136719 C 107.113281 -10.820312 106.773438 -11.5625 106.265625 -12.363281 C 105.300781 -13.882812 104.003906 -15.128906 102.375 -16.105469 C 101.398438 -16.695312 100.460938 -17.078125 99.566406 -17.261719 C 99.4375 -17.289062 99.34375 -17.304688 99.285156 -17.308594 C 99.375 -17.300781 99.503906 -17.296875 99.671875 -17.296875 L 125.484375 -17.296875 C 125.601562 -17.296875 125.679688 -17.300781 125.722656 -17.304688 C 125.613281 -17.292969 125.472656 -17.269531 125.296875 -17.234375 C 124.308594 -17.019531 123.292969 -16.589844 122.257812 -15.941406 C 120.625 -14.921875 119.351562 -13.664062 118.441406 -12.171875 C 118.101562 -11.613281 117.855469 -11.058594 117.707031 -10.507812 L 144.699219 -117.621094 C 144.722656 -117.71875 144.742188 -117.800781 144.753906 -117.871094 L 144.753906 -117.859375 C 144.710938 -117.574219 144.691406 -117.230469 144.691406 -116.824219 C 144.691406 -115.21875 145.027344 -113.605469 145.695312 -111.976562 C 146.761719 -109.390625 148.445312 -107.277344 150.746094 -105.632812 C 152.324219 -104.503906 153.964844 -103.765625 155.660156 -103.410156 C 156.144531 -103.308594 156.5 -103.261719 156.726562 -103.261719 L 133.292969 -103.261719 C 132.671875 -103.261719 132.273438 -103.242188 132.089844 -103.210938 C 132.886719 -103.351562 133.792969 -103.71875 134.804688 -104.300781 C 136.828125 -105.46875 138.375 -107.011719 139.445312 -108.929688 C 139.917969 -109.777344 140.207031 -110.515625 140.316406 -111.140625 L 123.273438 -114.105469 L 140.421875 -111.824219 L 135.511719 -74.917969 C 134.453125 -66.550781 133.761719 -55.867188 133.4375 -42.867188 L 133.015625 -26 L 98.277344 -26 L 97.503906 -42.488281 C 97.175781 -49.515625 96.792969 -55.578125 96.359375 -60.679688 C 95.960938 -65.378906 95.378906 -69.683594 94.617188 -73.59375 L 86.921875 -110.875 L 86.875 -111.140625 C 86.996094 -110.441406 87.316406 -109.644531 87.832031 -108.746094 C 88.933594 -106.824219 90.503906 -105.296875 92.546875 -104.164062 C 93.429688 -103.671875 94.222656 -103.363281 94.929688 -103.230469 C 94.824219 -103.25 94.539062 -103.261719 94.070312 -103.261719 L 70.636719 -103.261719 C 70.179688 -103.261719 69.914062 -103.253906 69.835938 -103.238281 C 70.636719 -103.386719 71.519531 -103.742188 72.488281 -104.300781 C 74.382812 -105.390625 75.84375 -106.8125 76.875 -108.5625 C 77.308594 -109.296875 77.597656 -110.003906 77.746094 -110.683594 L 70.230469 -73.464844 C 69.378906 -69.484375 68.726562 -64.460938 68.277344 -58.402344 C 67.796875 -51.980469 67.558594 -46.945312 67.558594 -43.300781 L 67.558594 -26 L 31.605469 -26 L 31.605469 -43.300781 C 31.605469 -47.308594 31.441406 -52.539062 31.117188 -58.984375 C 30.804688 -65.191406 30.339844 -70.441406 29.726562 -74.730469 L 24.632812 -111.746094 L 41.769531 -114.105469 L 24.867188 -110.429688 C 24.964844 -109.992188 25.207031 -109.429688 25.597656 -108.746094 C 26.597656 -107.003906 28.03125 -105.570312 29.898438 -104.453125 C 31 -103.792969 32 -103.378906 32.898438 -103.21875 C 32.742188 -103.246094 32.359375 -103.261719 31.753906 -103.261719 L 6.28125 -103.261719 C 6.507812 -103.261719 6.863281 -103.308594 7.347656 -103.410156 C 9.046875 -103.765625 10.683594 -104.503906 12.261719 -105.632812 C 14.5625 -107.277344 16.246094 -109.390625 17.3125 -111.976562 C 17.980469 -113.605469 18.316406 -115.21875 18.316406 -116.824219 C 18.316406 -117.230469 18.296875 -117.574219 18.253906 -117.859375 L 18.253906 -117.871094 C 18.265625 -117.800781 18.289062 -117.710938 18.316406 -117.589844 L 45.015625 -9.949219 C 44.859375 -10.597656 44.53125 -11.328125 44.023438 -12.140625 C 42.953125 -13.851562 41.480469 -15.234375 39.609375 -16.28125 C 38.6875 -16.796875 37.828125 -17.132812 37.027344 -17.285156 C 36.964844 -17.296875 36.90625 -17.308594 36.859375 -17.3125 L 36.867188 -17.3125 C 36.992188 -17.304688 37.152344 -17.296875 37.355469 -17.296875 Z M 37.355469 -17.296875 "/></g></g></g><g fill="#ffde59" fill-opacity="1"><g transform="translate(20.724782, 159.282494)"><g><path d="M 46.53125 0 C 43.695312 0 41.738281 -0.535156 40.65625 -1.609375 C 39.582031 -2.679688 39.046875 -4.632812 39.046875 -7.46875 L 39.046875 -46.1875 L 0.671875 -113.078125 C -0.222656 -114.671875 -0.671875 -116.03125 -0.671875 -117.15625 C -0.671875 -119.425781 1.023438 -120.5625 4.421875 -120.5625 L 29.03125 -120.5625 C 33.675781 -120.5625 36.875 -120.21875 38.625 -119.53125 C 40.382812 -118.851562 42.054688 -117.046875 43.640625 -114.109375 L 58.921875 -84.046875 L 74.875 -114.109375 C 76.457031 -117.046875 78.097656 -118.851562 79.796875 -119.53125 C 81.492188 -120.21875 84.664062 -120.5625 89.3125 -120.5625 L 113.078125 -120.5625 C 116.472656 -120.5625 118.171875 -119.425781 118.171875 -117.15625 C 118.171875 -116.03125 117.71875 -114.671875 116.8125 -113.078125 L 78.453125 -46.53125 L 78.453125 -7.46875 C 78.453125 -4.632812 77.910156 -2.679688 76.828125 -1.609375 C 75.753906 -0.535156 73.800781 0 70.96875 0 Z M 46.53125 0 "/></g></g></g><g fill="#ffde59" fill-opacity="1"><g transform="translate(138.226576, 159.282494)"><g><path d="M 14.265625 0 C 11.429688 0 9.476562 -0.535156 8.40625 -1.609375 C 7.332031 -2.679688 6.796875 -4.632812 6.796875 -7.46875 L 6.796875 -113.078125 C 6.796875 -115.910156 7.332031 -117.863281 8.40625 -118.9375 C 9.476562 -120.019531 11.429688 -120.5625 14.265625 -120.5625 L 88.296875 -120.5625 C 91.128906 -120.5625 93.082031 -120.019531 94.15625 -118.9375 C 95.226562 -117.863281 95.765625 -115.910156 95.765625 -113.078125 L 95.765625 -94.0625 C 95.765625 -91.238281 95.226562 -89.285156 94.15625 -88.203125 C 93.082031 -87.128906 91.128906 -86.59375 88.296875 -86.59375 L 46.1875 -86.59375 L 46.1875 -77.765625 L 78.78125 -77.765625 C 81.613281 -77.765625 83.566406 -77.226562 84.640625 -76.15625 C 85.710938 -75.082031 86.25 -73.128906 86.25 -70.296875 L 86.25 -51.28125 C 86.25 -48.445312 85.710938 -46.492188 84.640625 -45.421875 C 83.566406 -44.347656 81.613281 -43.8125 78.78125 -43.8125 L 46.1875 -43.8125 L 46.1875 -34.125 L 89.484375 -34.125 C 92.316406 -34.125 94.269531 -33.585938 95.34375 -32.515625 C 96.414062 -31.441406 96.953125 -29.488281 96.953125 -26.65625 L 96.953125 -7.46875 C 96.953125 -4.632812 96.414062 -2.679688 95.34375 -1.609375 C 94.269531 -0.535156 92.316406 0 89.484375 0 Z M 14.265625 0 "/></g></g></g><g fill="#ffde59" fill-opacity="1"><g transform="translate(238.748373, 159.282494)"><g><path d="M 14.265625 0 C 11.429688 0 9.476562 -0.535156 8.40625 -1.609375 C 7.332031 -2.679688 6.796875 -4.632812 6.796875 -7.46875 L 6.796875 -113.078125 C 6.796875 -115.910156 7.332031 -117.863281 8.40625 -118.9375 C 9.476562 -120.019531 11.429688 -120.5625 14.265625 -120.5625 L 38.71875 -120.5625 C 41.539062 -120.5625 43.488281 -120.019531 44.5625 -118.9375 C 45.644531 -117.863281 46.1875 -115.910156 46.1875 -113.078125 L 46.1875 -34.125 L 84.046875 -34.125 C 86.878906 -34.125 88.832031 -33.585938 89.90625 -32.515625 C 90.976562 -31.441406 91.515625 -29.488281 91.515625 -26.65625 L 91.515625 -7.46875 C 91.515625 -4.632812 90.976562 -2.679688 89.90625 -1.609375 C 88.832031 -0.535156 86.878906 0 84.046875 0 Z M 14.265625 0 "/></g></g></g><g fill="#ffde59" fill-opacity="1"><g transform="translate(331.968726, 159.282494)"><g><path d="M 14.265625 0 C 11.429688 0 9.476562 -0.535156 8.40625 -1.609375 C 7.332031 -2.679688 6.796875 -4.632812 6.796875 -7.46875 L 6.796875 -113.078125 C 6.796875 -115.910156 7.332031 -117.863281 8.40625 -118.9375 C 9.476562 -120.019531 11.429688 -120.5625 14.265625 -120.5625 L 38.71875 -120.5625 C 41.539062 -120.5625 43.488281 -120.019531 44.5625 -118.9375 C 45.644531 -117.863281 46.1875 -115.910156 46.1875 -113.078125 L 46.1875 -34.125 L 84.046875 -34.125 C 86.878906 -34.125 88.832031 -33.585938 89.90625 -32.515625 C 90.976562 -31.441406 91.515625 -29.488281 91.515625 -26.65625 L 91.515625 -7.46875 C 91.515625 -4.632812 90.976562 -2.679688 89.90625 -1.609375 C 88.832031 -0.535156 86.878906 0 84.046875 0 Z M 14.265625 0 "/></g></g></g><g fill="#ffde59" fill-opacity="1"><g transform="translate(423.321277, 159.282494)"><g><path d="M 58.40625 2.546875 C 41.195312 2.546875 27.867188 -1.8125 18.421875 -10.53125 C 8.972656 -19.25 4.25 -31.300781 4.25 -46.6875 L 4.25 -73.859375 C 4.25 -89.253906 8.972656 -101.3125 18.421875 -110.03125 C 27.867188 -118.75 41.195312 -123.109375 58.40625 -123.109375 C 75.613281 -123.109375 88.941406 -118.75 98.390625 -110.03125 C 107.847656 -101.3125 112.578125 -89.253906 112.578125 -73.859375 L 112.578125 -46.6875 C 112.578125 -31.300781 107.847656 -19.25 98.390625 -10.53125 C 88.941406 -1.8125 75.613281 2.546875 58.40625 2.546875 Z M 43.640625 -44.484375 C 43.640625 -40.296875 44.910156 -37.097656 47.453125 -34.890625 C 50.003906 -32.679688 53.65625 -31.578125 58.40625 -31.578125 C 63.164062 -31.578125 66.816406 -32.679688 69.359375 -34.890625 C 71.910156 -37.097656 73.1875 -40.296875 73.1875 -44.484375 L 73.1875 -76.0625 C 73.1875 -80.25 71.910156 -83.445312 69.359375 -85.65625 C 66.816406 -87.863281 63.164062 -88.96875 58.40625 -88.96875 C 53.65625 -88.96875 50.003906 -87.863281 47.453125 -85.65625 C 44.910156 -83.445312 43.640625 -80.25 43.640625 -76.0625 Z M 43.640625 -44.484375 "/></g></g></g><g fill="#ffde59" fill-opacity="1"><g transform="translate(537.087497, 159.282494)"><g><path d="M 37.359375 0 C 34.640625 0 32.570312 -0.394531 31.15625 -1.1875 C 29.738281 -1.976562 28.75 -3.5625 28.1875 -5.9375 L 1.53125 -113.421875 C 1.1875 -114.785156 1.015625 -115.914062 1.015625 -116.8125 C 1.015625 -118.175781 1.410156 -119.140625 2.203125 -119.703125 C 2.992188 -120.273438 4.351562 -120.5625 6.28125 -120.5625 L 31.75 -120.5625 C 35.03125 -120.5625 37.378906 -120.132812 38.796875 -119.28125 C 40.210938 -118.4375 41.203125 -116.710938 41.765625 -114.109375 L 46.859375 -77.09375 C 47.535156 -72.332031 48.046875 -66.582031 48.390625 -59.84375 C 48.734375 -53.113281 48.90625 -47.597656 48.90625 -43.296875 L 50.265625 -43.296875 C 50.265625 -47.367188 50.515625 -52.828125 51.015625 -59.671875 C 51.523438 -66.523438 52.289062 -72.332031 53.3125 -77.09375 L 60.78125 -114.109375 C 61.351562 -116.710938 62.375 -118.4375 63.84375 -119.28125 C 65.3125 -120.132812 67.578125 -120.5625 70.640625 -120.5625 L 94.0625 -120.5625 C 97.125 -120.5625 99.414062 -120.132812 100.9375 -119.28125 C 102.46875 -118.4375 103.460938 -116.710938 103.921875 -114.109375 L 111.5625 -77.09375 C 112.46875 -72.445312 113.144531 -67.460938 113.59375 -62.140625 C 114.039062 -56.828125 114.4375 -50.546875 114.78125 -43.296875 L 116.140625 -43.296875 C 116.484375 -56.878906 117.21875 -68.144531 118.34375 -77.09375 L 123.265625 -114.109375 C 123.722656 -116.710938 124.6875 -118.4375 126.15625 -119.28125 C 127.625 -120.132812 130.003906 -120.5625 133.296875 -120.5625 L 156.71875 -120.5625 C 158.644531 -120.5625 160.003906 -120.273438 160.796875 -119.703125 C 161.585938 -119.140625 161.984375 -118.175781 161.984375 -116.8125 C 161.984375 -115.914062 161.816406 -114.785156 161.484375 -113.421875 L 134.484375 -6.28125 C 133.796875 -3.789062 132.773438 -2.117188 131.421875 -1.265625 C 130.066406 -0.421875 128.085938 0 125.484375 0 L 99.671875 0 C 96.953125 0 94.882812 -0.421875 93.46875 -1.265625 C 92.050781 -2.117188 91.0625 -3.675781 90.5 -5.9375 L 85.75 -30.734375 C 83.59375 -42.160156 82.40625 -54.671875 82.1875 -68.265625 L 80.65625 -68.265625 C 80.082031 -55.128906 78.664062 -42.5625 76.40625 -30.5625 L 71.828125 -6.28125 C 71.148438 -3.789062 70.128906 -2.117188 68.765625 -1.265625 C 67.410156 -0.421875 65.375 0 62.65625 0 Z M 37.359375 0 "/></g></g></g></g></g></svg>