<svg xmlns="http://www.w3.org/2000/svg" xmlns:xlink="http://www.w3.org/1999/xlink" viewBox="27 297 1378 215" preserveAspectRatio="xMidYMid meet" version="1.0"><defs><g/><clipPath id="5d3288a20f"><path d="M 1257 39 L 1377.960938 39 L 1377.960938 162 L 1257 162 Z M 1257 39 " clip-rule="nonzero"/></clipPath><clipPath id="302634c0bb"><rect x="0" width="1378" y="0" height="215"/></clipPath></defs><g transform="matrix(1, 0, 0, 1, 27, 297)"><g clip-path="url(#302634c0bb)"><g fill="#000000" fill-opacity="1"><g transform="translate(718.145137, 161.06633)"><g><path d="M 99.265625 -121.515625 C 101.546875 -121.515625 103.171875 -121.171875 104.140625 -120.484375 C 105.117188 -119.804688 105.609375 -118.613281 105.609375 -116.90625 C 105.609375 -116.445312 105.492188 -115.53125 105.265625 -114.15625 L 92.25 -40.21875 C 89.625 -25.726562 83.832031 -14.972656 74.875 -7.953125 C 65.914062 -0.941406 53.453125 2.5625 37.484375 2.5625 C 25.503906 2.5625 16.0625 -0.0546875 9.15625 -5.296875 C 2.25 -10.546875 -2.171875 -18.023438 -4.109375 -27.734375 C -4.222656 -28.296875 -4.28125 -29.035156 -4.28125 -29.953125 C -4.28125 -31.773438 -3.765625 -33.253906 -2.734375 -34.390625 C -1.710938 -35.535156 -0.00390625 -36.507812 2.390625 -37.3125 L 23.625 -44.5 C 25.5625 -45.1875 27.097656 -45.53125 28.234375 -45.53125 C 29.492188 -45.53125 30.492188 -45.128906 31.234375 -44.328125 C 31.972656 -43.523438 32.570312 -42.210938 33.03125 -40.390625 C 34.519531 -34.566406 37.828125 -31.65625 42.953125 -31.65625 C 48.203125 -31.65625 51.515625 -35.421875 52.890625 -42.953125 L 65.546875 -114.15625 C 66.117188 -116.894531 67.003906 -118.804688 68.203125 -119.890625 C 69.398438 -120.972656 71.425781 -121.515625 74.28125 -121.515625 Z M 99.265625 -121.515625 "/></g></g></g><g fill="#000000" fill-opacity="1"><g transform="translate(818.446094, 161.06633)"><g><path d="M 101.15625 -121.515625 C 103.4375 -121.515625 105.085938 -121.144531 106.109375 -120.40625 C 107.140625 -119.664062 107.65625 -118.382812 107.65625 -116.5625 C 107.65625 -115.53125 107.597656 -114.671875 107.484375 -113.984375 L 104.0625 -94.828125 C 103.601562 -91.972656 102.71875 -90.003906 101.40625 -88.921875 C 100.09375 -87.835938 98.007812 -87.296875 95.15625 -87.296875 L 52.71875 -87.296875 L 51.171875 -78.390625 L 84.03125 -78.390625 C 86.425781 -78.390625 88.109375 -78.046875 89.078125 -77.359375 C 90.054688 -76.671875 90.546875 -75.414062 90.546875 -73.59375 L 90.203125 -70.859375 L 86.78125 -51.6875 C 86.320312 -48.832031 85.460938 -46.863281 84.203125 -45.78125 C 82.953125 -44.695312 80.898438 -44.15625 78.046875 -44.15625 L 45.1875 -44.15625 L 43.46875 -34.40625 L 87.125 -34.40625 C 89.519531 -34.40625 91.203125 -34.0625 92.171875 -33.375 C 93.140625 -32.6875 93.625 -31.429688 93.625 -29.609375 L 93.28125 -26.875 L 89.859375 -7.53125 C 89.398438 -4.675781 88.515625 -2.707031 87.203125 -1.625 C 85.890625 -0.539062 83.804688 0 80.953125 0 L 5.140625 0 C 2.742188 0 1.054688 -0.335938 0.078125 -1.015625 C -0.890625 -1.703125 -1.375 -2.960938 -1.375 -4.796875 L -1.03125 -7.53125 L 17.796875 -113.984375 C 18.253906 -116.835938 19.109375 -118.804688 20.359375 -119.890625 C 21.617188 -120.972656 23.675781 -121.515625 26.53125 -121.515625 Z M 101.15625 -121.515625 "/></g></g></g><g fill="#000000" fill-opacity="1"><g transform="translate(919.774035, 161.06633)"><g><path d="M 76.671875 -121.515625 C 88.429688 -121.515625 97.703125 -118.519531 104.484375 -112.53125 C 111.273438 -106.539062 114.671875 -98.128906 114.671875 -87.296875 C 114.671875 -83.640625 114.382812 -80.328125 113.8125 -77.359375 C 111.082031 -62.066406 103.328125 -50.65625 90.546875 -43.125 C 92.140625 -40.613281 93.507812 -37.707031 94.65625 -34.40625 L 103.375 -9.40625 C 103.71875 -8.269531 103.890625 -7.242188 103.890625 -6.328125 C 103.890625 -4.390625 103.257812 -2.847656 102 -1.703125 C 100.75 -0.566406 98.925781 0 96.53125 0 L 73.421875 0 C 68.859375 0 65.378906 -0.769531 62.984375 -2.3125 C 60.585938 -3.851562 58.929688 -6.332031 58.015625 -9.75 L 52.203125 -30.296875 C 51.398438 -32.804688 50.539062 -34.660156 49.625 -35.859375 C 48.71875 -37.054688 47.125 -37.65625 44.84375 -37.65625 L 43.984375 -37.65625 L 38.6875 -7.53125 C 38.226562 -4.675781 37.34375 -2.707031 36.03125 -1.625 C 34.71875 -0.539062 32.632812 0 29.78125 0 L 5.140625 0 C 2.742188 0 1.054688 -0.335938 0.078125 -1.015625 C -0.890625 -1.703125 -1.375 -2.960938 -1.375 -4.796875 L -1.03125 -7.53125 L 17.796875 -113.984375 C 18.253906 -116.835938 19.109375 -118.804688 20.359375 -119.890625 C 21.617188 -120.972656 23.675781 -121.515625 26.53125 -121.515625 Z M 62.8125 -69.828125 C 65.894531 -69.828125 68.375 -70.882812 70.25 -73 C 72.132812 -75.113281 73.078125 -77.765625 73.078125 -80.953125 C 73.078125 -83.003906 72.476562 -84.570312 71.28125 -85.65625 C 70.082031 -86.75 68.285156 -87.296875 65.890625 -87.296875 L 52.71875 -87.296875 L 49.640625 -69.828125 Z M 62.8125 -69.828125 "/></g></g></g><g fill="#000000" fill-opacity="1"><g transform="translate(1033.767983, 161.06633)"><g><path d="M 10.09375 -88.3125 C 12.144531 -99.957031 17.960938 -108.832031 27.546875 -114.9375 C 37.140625 -121.039062 50.207031 -124.09375 66.75 -124.09375 C 79.53125 -124.09375 89.539062 -122.09375 96.78125 -118.09375 C 104.03125 -114.101562 108.96875 -107.941406 111.59375 -99.609375 C 112.050781 -98.359375 112.28125 -97.21875 112.28125 -96.1875 C 112.28125 -94.9375 111.820312 -93.878906 110.90625 -93.015625 C 110 -92.160156 108.457031 -91.28125 106.28125 -90.375 L 85.75 -82.328125 C 83.925781 -81.640625 82.5 -81.296875 81.46875 -81.296875 C 80.332031 -81.296875 79.421875 -81.664062 78.734375 -82.40625 C 78.046875 -83.15625 77.414062 -84.382812 76.84375 -86.09375 C 75.9375 -88.71875 74.285156 -90.457031 71.890625 -91.3125 C 69.492188 -92.164062 66.640625 -92.59375 63.328125 -92.59375 C 54.316406 -92.59375 49.8125 -90.3125 49.8125 -85.75 C 49.8125 -83.582031 51.175781 -82.039062 53.90625 -81.125 C 56.644531 -80.21875 61.269531 -79.25 67.78125 -78.21875 C 78.84375 -76.507812 88.222656 -73 95.921875 -67.6875 C 103.628906 -62.382812 107.484375 -54.082031 107.484375 -42.78125 C 107.484375 -39.363281 107.195312 -36.285156 106.625 -33.546875 C 104.34375 -20.648438 98.238281 -11.40625 88.3125 -5.8125 C 78.382812 -0.226562 64.632812 2.5625 47.0625 2.5625 C 34.0625 2.5625 23.140625 0.484375 14.296875 -3.671875 C 5.453125 -7.835938 0.226562 -14.085938 -1.375 -22.421875 C -1.488281 -22.992188 -1.546875 -23.789062 -1.546875 -24.8125 C -1.546875 -26.644531 -1.03125 -28.101562 0 -29.1875 C 1.03125 -30.269531 2.742188 -31.265625 5.140625 -32.171875 L 25.328125 -39.703125 C 27.722656 -40.503906 29.4375 -40.90625 30.46875 -40.90625 C 31.601562 -40.90625 32.597656 -40.535156 33.453125 -39.796875 C 34.316406 -39.054688 35.085938 -37.882812 35.765625 -36.28125 C 36.679688 -34 38.394531 -32.398438 40.90625 -31.484375 C 43.414062 -30.578125 46.835938 -30.125 51.171875 -30.125 C 55.960938 -30.125 59.613281 -30.550781 62.125 -31.40625 C 64.632812 -32.257812 66.117188 -33.828125 66.578125 -36.109375 C 66.921875 -38.390625 65.835938 -40.046875 63.328125 -41.078125 C 60.816406 -42.109375 56.648438 -43.078125 50.828125 -43.984375 C 43.066406 -45.242188 36.304688 -46.925781 30.546875 -49.03125 C 24.785156 -51.144531 19.796875 -54.625 15.578125 -59.46875 C 11.359375 -64.320312 9.25 -70.914062 9.25 -79.25 C 9.25 -81.644531 9.53125 -84.664062 10.09375 -88.3125 Z M 10.09375 -88.3125 "/></g></g></g><g fill="#000000" fill-opacity="1"><g transform="translate(1144.852143, 161.06633)"><g><path d="M 101.15625 -121.515625 C 103.4375 -121.515625 105.085938 -121.144531 106.109375 -120.40625 C 107.140625 -119.664062 107.65625 -118.382812 107.65625 -116.5625 C 107.65625 -115.53125 107.597656 -114.671875 107.484375 -113.984375 L 104.0625 -94.828125 C 103.601562 -91.972656 102.71875 -90.003906 101.40625 -88.921875 C 100.09375 -87.835938 98.007812 -87.296875 95.15625 -87.296875 L 52.71875 -87.296875 L 51.171875 -78.390625 L 84.03125 -78.390625 C 86.425781 -78.390625 88.109375 -78.046875 89.078125 -77.359375 C 90.054688 -76.671875 90.546875 -75.414062 90.546875 -73.59375 L 90.203125 -70.859375 L 86.78125 -51.6875 C 86.320312 -48.832031 85.460938 -46.863281 84.203125 -45.78125 C 82.953125 -44.695312 80.898438 -44.15625 78.046875 -44.15625 L 45.1875 -44.15625 L 43.46875 -34.40625 L 87.125 -34.40625 C 89.519531 -34.40625 91.203125 -34.0625 92.171875 -33.375 C 93.140625 -32.6875 93.625 -31.429688 93.625 -29.609375 L 93.28125 -26.875 L 89.859375 -7.53125 C 89.398438 -4.675781 88.515625 -2.707031 87.203125 -1.625 C 85.890625 -0.539062 83.804688 0 80.953125 0 L 5.140625 0 C 2.742188 0 1.054688 -0.335938 0.078125 -1.015625 C -0.890625 -1.703125 -1.375 -2.960938 -1.375 -4.796875 L -1.03125 -7.53125 L 17.796875 -113.984375 C 18.253906 -116.835938 19.109375 -118.804688 20.359375 -119.890625 C 21.617188 -120.972656 23.675781 -121.515625 26.53125 -121.515625 Z M 101.15625 -121.515625 "/></g></g></g><g clip-path="url(#5d3288a20f)"><g fill="#000000" fill-opacity="1"><g transform="translate(1246.180069, 161.06633)"><g><path d="M 126.3125 -121.515625 C 129.394531 -121.515625 130.9375 -120.546875 130.9375 -118.609375 C 130.9375 -117.242188 130.25 -115.703125 128.875 -113.984375 L 78.21875 -46.890625 L 71.375 -7.53125 C 70.914062 -4.675781 70.03125 -2.707031 68.71875 -1.625 C 67.40625 -0.539062 65.320312 0 62.46875 0 L 37.828125 0 C 35.429688 0 33.75 -0.335938 32.78125 -1.015625 C 31.8125 -1.703125 31.328125 -2.960938 31.328125 -4.796875 L 31.65625 -7.53125 L 38.515625 -46.546875 L 11.8125 -113.984375 C 11.351562 -115.015625 11.125 -116.097656 11.125 -117.234375 C 11.125 -120.085938 13.003906 -121.515625 16.765625 -121.515625 L 40.90625 -121.515625 C 45.695312 -121.515625 48.921875 -121.171875 50.578125 -120.484375 C 52.234375 -119.804688 53.570312 -117.984375 54.59375 -115.015625 L 64.53125 -84.71875 L 86.09375 -115.015625 C 88.144531 -117.984375 90.082031 -119.804688 91.90625 -120.484375 C 93.738281 -121.171875 96.992188 -121.515625 101.671875 -121.515625 Z M 126.3125 -121.515625 "/></g></g></g></g><g fill="#004aad" fill-opacity="1"><g transform="translate(20.696679, 161.06633)"><g><path d="M 46.898438 17.4375 C 39.230469 17.4375 33.152344 15.191406 28.664062 10.703125 C 24.175781 6.214844 21.929688 0.136719 21.929688 -7.53125 L 21.929688 -46.554688 L 39.367188 -46.554688 L 24.242188 -37.878906 L -14.441406 -105.316406 C -16.894531 -109.613281 -18.121094 -113.875 -18.121094 -118.101562 C -18.121094 -121.417969 -17.402344 -124.515625 -15.960938 -127.398438 C -14.367188 -130.585938 -12.070312 -133.179688 -9.074219 -135.179688 C -5.289062 -137.699219 -0.78125 -138.960938 4.449219 -138.960938 L 29.269531 -138.960938 C 36.117188 -138.960938 41.441406 -138.226562 45.234375 -136.757812 C 51.007812 -134.523438 55.707031 -130.035156 59.339844 -123.289062 L 59.4375 -123.109375 L 74.9375 -92.628906 L 59.394531 -84.726562 L 43.992188 -92.902344 L 60.082031 -123.199219 C 63.710938 -129.941406 68.339844 -134.4375 73.96875 -136.6875 C 77.761719 -138.203125 83.113281 -138.960938 90.03125 -138.960938 L 113.992188 -138.960938 C 119.226562 -138.960938 123.734375 -137.699219 127.519531 -135.179688 C 130.515625 -133.179688 132.808594 -130.585938 134.40625 -127.398438 C 135.84375 -124.515625 136.566406 -121.417969 136.566406 -118.101562 C 136.566406 -113.875 135.34375 -109.621094 132.898438 -105.34375 L 94.183594 -38.1875 L 79.078125 -46.898438 L 96.515625 -46.898438 L 96.515625 -7.53125 C 96.515625 0.136719 94.269531 6.214844 89.78125 10.703125 C 85.292969 15.191406 79.214844 17.4375 71.546875 17.4375 Z M 46.898438 -17.4375 L 71.546875 -17.4375 L 71.570312 -17.429688 C 71.265625 -17.394531 70.921875 -17.324219 70.53125 -17.21875 C 68.554688 -16.671875 66.75 -15.585938 65.121094 -13.957031 C 63.492188 -12.324219 62.402344 -10.523438 61.859375 -8.542969 C 61.753906 -8.15625 61.679688 -7.808594 61.648438 -7.503906 L 61.640625 -7.53125 L 61.640625 -51.566406 L 102.621094 -122.644531 C 102.503906 -122.445312 102.378906 -122.140625 102.246094 -121.734375 C 101.875 -120.628906 101.691406 -119.417969 101.691406 -118.101562 C 101.691406 -115.929688 102.199219 -113.828125 103.210938 -111.800781 C 104.378906 -109.46875 106.03125 -107.589844 108.171875 -106.160156 C 109.550781 -105.242188 110.980469 -104.617188 112.457031 -104.289062 C 113.0625 -104.15625 113.574219 -104.089844 113.992188 -104.089844 L 90.03125 -104.089844 C 88.3125 -104.089844 86.964844 -104.035156 85.984375 -103.929688 C 85.761719 -103.90625 85.625 -103.890625 85.582031 -103.878906 C 85.960938 -103.960938 86.40625 -104.101562 86.921875 -104.308594 C 88.558594 -104.964844 89.867188 -105.828125 90.84375 -106.90625 C 90.976562 -107.054688 91.070312 -107.164062 91.121094 -107.242188 C 91.046875 -107.132812 90.96875 -107 90.882812 -106.84375 L 59.058594 -46.914062 L 28.445312 -107.117188 L 43.988281 -115.019531 L 28.636719 -106.753906 C 28.53125 -106.949219 28.445312 -107.09375 28.386719 -107.183594 C 28.449219 -107.085938 28.558594 -106.957031 28.707031 -106.796875 C 29.695312 -105.722656 31.007812 -104.871094 32.644531 -104.238281 C 33.105469 -104.058594 33.5 -103.933594 33.828125 -103.867188 C 33.753906 -103.882812 33.597656 -103.902344 33.355469 -103.929688 C 32.355469 -104.035156 30.992188 -104.089844 29.269531 -104.089844 L 4.449219 -104.089844 C 4.871094 -104.089844 5.382812 -104.15625 5.988281 -104.289062 C 7.464844 -104.617188 8.894531 -105.242188 10.273438 -106.160156 C 12.414062 -107.589844 14.066406 -109.46875 15.234375 -111.800781 C 16.246094 -113.828125 16.753906 -115.929688 16.753906 -118.101562 C 16.753906 -119.417969 16.570312 -120.628906 16.199219 -121.734375 C 16.0625 -122.140625 15.933594 -122.453125 15.808594 -122.671875 L 56.804688 -51.203125 L 56.804688 -7.53125 L 56.796875 -7.503906 C 56.761719 -7.808594 56.691406 -8.15625 56.585938 -8.542969 C 56.039062 -10.523438 54.953125 -12.324219 53.324219 -13.957031 C 51.691406 -15.585938 49.890625 -16.671875 47.910156 -17.21875 C 47.523438 -17.324219 47.175781 -17.394531 46.871094 -17.429688 Z M 46.898438 -17.4375 "/></g></g></g><g fill="#004aad" fill-opacity="1"><g transform="translate(139.140795, 161.06633)"><g><path d="M 14.378906 17.4375 C 6.710938 17.4375 0.632812 15.191406 -3.859375 10.703125 C -8.347656 6.214844 -10.589844 0.136719 -10.589844 -7.53125 L -10.589844 -113.992188 C -10.589844 -121.660156 -8.347656 -127.742188 -3.859375 -132.230469 C 0.632812 -136.71875 6.710938 -138.960938 14.378906 -138.960938 L 89.003906 -138.960938 C 96.671875 -138.960938 102.75 -136.71875 107.238281 -132.230469 C 111.726562 -127.742188 113.972656 -121.660156 113.972656 -113.992188 L 113.972656 -94.824219 C 113.972656 -87.15625 111.726562 -81.078125 107.238281 -76.589844 C 102.75 -72.101562 96.671875 -69.855469 89.003906 -69.855469 L 46.554688 -69.855469 L 46.554688 -87.292969 L 63.992188 -87.292969 L 63.992188 -78.390625 L 46.554688 -78.390625 L 46.554688 -95.828125 L 79.417969 -95.828125 C 87.085938 -95.828125 93.164062 -93.585938 97.65625 -89.097656 C 102.144531 -84.609375 104.386719 -78.527344 104.386719 -70.859375 L 104.386719 -51.691406 C 104.386719 -44.023438 102.144531 -37.945312 97.65625 -33.457031 C 93.164062 -28.96875 87.085938 -26.722656 79.417969 -26.722656 L 46.554688 -26.722656 L 46.554688 -44.160156 L 63.992188 -44.160156 L 63.992188 -34.402344 L 46.554688 -34.402344 L 46.554688 -51.839844 L 90.203125 -51.839844 C 97.871094 -51.839844 103.949219 -49.597656 108.4375 -45.109375 C 112.925781 -40.617188 115.171875 -34.539062 115.171875 -26.871094 L 115.171875 -7.53125 C 115.171875 0.136719 112.925781 6.214844 108.4375 10.703125 C 103.949219 15.191406 97.871094 17.4375 90.203125 17.4375 Z M 14.378906 -17.4375 L 90.203125 -17.4375 L 90.226562 -17.429688 C 89.921875 -17.394531 89.578125 -17.324219 89.1875 -17.21875 C 87.210938 -16.671875 85.40625 -15.585938 83.777344 -13.957031 C 82.148438 -12.324219 81.058594 -10.523438 80.515625 -8.542969 C 80.410156 -8.15625 80.339844 -7.808594 80.304688 -7.503906 L 80.296875 -7.53125 L 80.296875 -26.871094 L 80.304688 -26.898438 C 80.339844 -26.59375 80.410156 -26.246094 80.515625 -25.859375 C 81.058594 -23.882812 82.148438 -22.078125 83.777344 -20.449219 C 85.40625 -18.816406 87.210938 -17.730469 89.1875 -17.183594 C 89.578125 -17.078125 89.921875 -17.007812 90.226562 -16.972656 L 90.203125 -16.964844 L 29.117188 -16.964844 L 29.117188 -61.597656 L 79.417969 -61.597656 L 79.445312 -61.589844 C 79.140625 -61.554688 78.792969 -61.484375 78.40625 -61.378906 C 76.429688 -60.832031 74.625 -59.746094 72.996094 -58.117188 C 71.363281 -56.484375 70.277344 -54.683594 69.730469 -52.703125 C 69.625 -52.316406 69.554688 -51.96875 69.519531 -51.664062 L 69.511719 -51.691406 L 69.511719 -70.859375 L 69.519531 -70.886719 C 69.554688 -70.582031 69.625 -70.234375 69.730469 -69.847656 C 70.277344 -67.871094 71.363281 -66.066406 72.996094 -64.4375 C 74.625 -62.804688 76.429688 -61.71875 78.40625 -61.175781 C 78.792969 -61.066406 79.140625 -60.996094 79.445312 -60.960938 L 79.417969 -60.953125 L 29.117188 -60.953125 L 29.117188 -104.730469 L 89.003906 -104.730469 L 89.03125 -104.722656 C 88.726562 -104.6875 88.378906 -104.617188 87.992188 -104.511719 C 86.011719 -103.964844 84.210938 -102.878906 82.578125 -101.25 C 80.949219 -99.617188 79.863281 -97.816406 79.316406 -95.835938 C 79.210938 -95.449219 79.140625 -95.101562 79.105469 -94.796875 L 79.097656 -94.824219 L 79.097656 -113.992188 L 79.105469 -114.019531 C 79.140625 -113.714844 79.210938 -113.367188 79.316406 -112.980469 C 79.863281 -111.003906 80.949219 -109.199219 82.578125 -107.570312 C 84.210938 -105.9375 86.011719 -104.851562 87.992188 -104.308594 C 88.378906 -104.199219 88.726562 -104.128906 89.03125 -104.09375 L 89.003906 -104.089844 L 14.378906 -104.089844 L 14.351562 -104.09375 C 14.65625 -104.128906 15.003906 -104.199219 15.390625 -104.308594 C 17.367188 -104.851562 19.171875 -105.9375 20.800781 -107.570312 C 22.433594 -109.199219 23.519531 -111.003906 24.066406 -112.980469 C 24.171875 -113.367188 24.242188 -113.714844 24.277344 -114.019531 L 24.285156 -113.992188 L 24.285156 -7.53125 L 24.277344 -7.503906 C 24.242188 -7.808594 24.171875 -8.15625 24.066406 -8.542969 C 23.519531 -10.523438 22.433594 -12.324219 20.800781 -13.957031 C 19.171875 -15.585938 17.367188 -16.671875 15.390625 -17.21875 C 15.003906 -17.324219 14.65625 -17.394531 14.351562 -17.429688 Z M 14.378906 -17.4375 "/></g></g></g><g fill="#004aad" fill-opacity="1"><g transform="translate(240.46874, 161.06633)"><g><path d="M 14.378906 17.4375 C 6.710938 17.4375 0.632812 15.191406 -3.859375 10.703125 C -8.347656 6.214844 -10.589844 0.136719 -10.589844 -7.53125 L -10.589844 -113.992188 C -10.589844 -121.660156 -8.347656 -127.742188 -3.859375 -132.230469 C 0.632812 -136.71875 6.710938 -138.960938 14.378906 -138.960938 L 39.023438 -138.960938 C 46.691406 -138.960938 52.769531 -136.71875 57.261719 -132.230469 C 61.75 -127.742188 63.992188 -121.660156 63.992188 -113.992188 L 63.992188 -34.402344 L 46.554688 -34.402344 L 46.554688 -51.839844 L 84.726562 -51.839844 C 92.394531 -51.839844 98.472656 -49.597656 102.960938 -45.109375 C 107.449219 -40.617188 109.695312 -34.539062 109.695312 -26.871094 L 109.695312 -7.53125 C 109.695312 0.136719 107.449219 6.214844 102.960938 10.703125 C 98.472656 15.191406 92.394531 17.4375 84.726562 17.4375 Z M 14.378906 -17.4375 L 84.726562 -17.4375 L 84.75 -17.429688 C 84.445312 -17.394531 84.101562 -17.324219 83.710938 -17.21875 C 81.734375 -16.671875 79.929688 -15.585938 78.300781 -13.957031 C 76.671875 -12.324219 75.582031 -10.523438 75.039062 -8.542969 C 74.929688 -8.15625 74.859375 -7.808594 74.828125 -7.503906 L 74.820312 -7.53125 L 74.820312 -26.871094 L 74.828125 -26.898438 C 74.859375 -26.59375 74.929688 -26.246094 75.039062 -25.859375 C 75.582031 -23.882812 76.671875 -22.078125 78.300781 -20.449219 C 79.929688 -18.816406 81.734375 -17.730469 83.710938 -17.183594 C 84.101562 -17.078125 84.445312 -17.007812 84.75 -16.972656 L 84.726562 -16.964844 L 29.117188 -16.964844 L 29.117188 -113.992188 L 29.125 -114.019531 C 29.160156 -113.714844 29.230469 -113.367188 29.339844 -112.980469 C 29.882812 -111.003906 30.96875 -109.199219 32.601562 -107.570312 C 34.230469 -105.9375 36.035156 -104.851562 38.011719 -104.308594 C 38.398438 -104.199219 38.746094 -104.128906 39.050781 -104.09375 L 39.023438 -104.089844 L 14.378906 -104.089844 L 14.351562 -104.09375 C 14.65625 -104.128906 15.003906 -104.199219 15.390625 -104.308594 C 17.367188 -104.851562 19.171875 -105.9375 20.800781 -107.570312 C 22.433594 -109.199219 23.519531 -111.003906 24.066406 -112.980469 C 24.171875 -113.367188 24.242188 -113.714844 24.277344 -114.019531 L 24.285156 -113.992188 L 24.285156 -7.53125 L 24.277344 -7.503906 C 24.242188 -7.808594 24.171875 -8.15625 24.066406 -8.542969 C 23.519531 -10.523438 22.433594 -12.324219 20.800781 -13.957031 C 19.171875 -15.585938 17.367188 -16.671875 15.390625 -17.21875 C 15.003906 -17.324219 14.65625 -17.394531 14.351562 -17.429688 Z M 14.378906 -17.4375 "/></g></g></g><g fill="#004aad" fill-opacity="1"><g transform="translate(334.436686, 161.06633)"><g><path d="M 14.378906 17.4375 C 6.710938 17.4375 0.632812 15.191406 -3.859375 10.703125 C -8.347656 6.214844 -10.589844 0.136719 -10.589844 -7.53125 L -10.589844 -113.992188 C -10.589844 -121.660156 -8.347656 -127.742188 -3.859375 -132.230469 C 0.632812 -136.71875 6.710938 -138.960938 14.378906 -138.960938 L 39.023438 -138.960938 C 46.691406 -138.960938 52.769531 -136.71875 57.261719 -132.230469 C 61.75 -127.742188 63.992188 -121.660156 63.992188 -113.992188 L 63.992188 -34.402344 L 46.554688 -34.402344 L 46.554688 -51.839844 L 84.726562 -51.839844 C 92.394531 -51.839844 98.472656 -49.597656 102.960938 -45.109375 C 107.449219 -40.617188 109.695312 -34.539062 109.695312 -26.871094 L 109.695312 -7.53125 C 109.695312 0.136719 107.449219 6.214844 102.960938 10.703125 C 98.472656 15.191406 92.394531 17.4375 84.726562 17.4375 Z M 14.378906 -17.4375 L 84.726562 -17.4375 L 84.75 -17.429688 C 84.445312 -17.394531 84.101562 -17.324219 83.710938 -17.21875 C 81.734375 -16.671875 79.929688 -15.585938 78.300781 -13.957031 C 76.671875 -12.324219 75.582031 -10.523438 75.039062 -8.542969 C 74.929688 -8.15625 74.859375 -7.808594 74.828125 -7.503906 L 74.820312 -7.53125 L 74.820312 -26.871094 L 74.828125 -26.898438 C 74.859375 -26.59375 74.929688 -26.246094 75.039062 -25.859375 C 75.582031 -23.882812 76.671875 -22.078125 78.300781 -20.449219 C 79.929688 -18.816406 81.734375 -17.730469 83.710938 -17.183594 C 84.101562 -17.078125 84.445312 -17.007812 84.75 -16.972656 L 84.726562 -16.964844 L 29.117188 -16.964844 L 29.117188 -113.992188 L 29.125 -114.019531 C 29.160156 -113.714844 29.230469 -113.367188 29.339844 -112.980469 C 29.882812 -111.003906 30.96875 -109.199219 32.601562 -107.570312 C 34.230469 -105.9375 36.035156 -104.851562 38.011719 -104.308594 C 38.398438 -104.199219 38.746094 -104.128906 39.050781 -104.09375 L 39.023438 -104.089844 L 14.378906 -104.089844 L 14.351562 -104.09375 C 14.65625 -104.128906 15.003906 -104.199219 15.390625 -104.308594 C 17.367188 -104.851562 19.171875 -105.9375 20.800781 -107.570312 C 22.433594 -109.199219 23.519531 -111.003906 24.066406 -112.980469 C 24.171875 -113.367188 24.242188 -113.714844 24.277344 -114.019531 L 24.285156 -113.992188 L 24.285156 -7.53125 L 24.277344 -7.503906 C 24.242188 -7.808594 24.171875 -8.15625 24.066406 -8.542969 C 23.519531 -10.523438 22.433594 -12.324219 20.800781 -13.957031 C 19.171875 -15.585938 17.367188 -16.671875 15.390625 -17.21875 C 15.003906 -17.324219 14.65625 -17.394531 14.351562 -17.429688 Z M 14.378906 -17.4375 "/></g></g></g><g fill="#004aad" fill-opacity="1"><g transform="translate(426.521851, 161.06633)"><g><path d="M 58.878906 20.003906 C 36.992188 20.003906 19.617188 14.070312 6.75 2.207031 C 0.0195312 -4 -5.023438 -11.386719 -8.382812 -19.953125 C -11.566406 -28.074219 -13.160156 -37.113281 -13.160156 -47.070312 L -13.160156 -74.457031 C -13.160156 -84.414062 -11.566406 -93.453125 -8.382812 -101.574219 C -5.023438 -110.140625 0.0195312 -117.527344 6.75 -123.730469 C 19.617188 -135.597656 36.992188 -141.53125 58.878906 -141.53125 C 80.765625 -141.53125 98.144531 -135.597656 111.007812 -123.730469 C 117.738281 -117.527344 122.785156 -110.140625 126.140625 -101.574219 C 129.324219 -93.453125 130.917969 -84.414062 130.917969 -74.457031 L 130.917969 -47.070312 C 130.917969 -37.113281 129.324219 -28.074219 126.140625 -19.953125 C 122.785156 -11.386719 117.738281 -4 111.007812 2.207031 C 98.144531 14.070312 80.765625 20.003906 58.878906 20.003906 Z M 58.878906 -14.871094 C 71.683594 -14.871094 81.179688 -17.722656 87.367188 -23.429688 C 90.164062 -26.011719 92.265625 -29.09375 93.671875 -32.679688 C 95.253906 -36.710938 96.042969 -41.507812 96.042969 -47.070312 L 96.042969 -74.457031 C 96.042969 -80.019531 95.253906 -84.8125 93.671875 -88.84375 C 92.265625 -92.429688 90.164062 -95.515625 87.367188 -98.09375 C 81.179688 -103.800781 71.683594 -106.65625 58.878906 -106.65625 C 46.078125 -106.65625 36.582031 -103.800781 30.390625 -98.09375 C 27.59375 -95.515625 25.492188 -92.429688 24.085938 -88.84375 C 22.507812 -84.8125 21.714844 -80.019531 21.714844 -74.457031 L 21.714844 -47.070312 C 21.714844 -41.507812 22.507812 -36.710938 24.085938 -32.679688 C 25.492188 -29.09375 27.59375 -26.011719 30.390625 -23.429688 C 36.582031 -17.722656 46.078125 -14.871094 58.878906 -14.871094 Z M 61.425781 -44.84375 L 61.414062 -44.828125 C 61.367188 -45.09375 61.28125 -45.390625 61.152344 -45.710938 C 60.746094 -46.730469 60.117188 -47.609375 59.261719 -48.351562 C 58.667969 -48.863281 58.105469 -49.199219 57.570312 -49.363281 C 57.765625 -49.304688 58.203125 -49.273438 58.878906 -49.273438 C 59.558594 -49.273438 59.992188 -49.304688 60.1875 -49.363281 C 59.652344 -49.199219 59.089844 -48.863281 58.5 -48.351562 C 57.644531 -47.609375 57.011719 -46.730469 56.609375 -45.710938 C 56.480469 -45.390625 56.390625 -45.09375 56.347656 -44.828125 L 56.332031 -44.84375 L 56.332031 -76.679688 L 56.347656 -76.699219 C 56.390625 -76.429688 56.480469 -76.136719 56.609375 -75.8125 C 57.011719 -74.796875 57.644531 -73.914062 58.5 -73.175781 C 59.089844 -72.660156 59.652344 -72.324219 60.1875 -72.164062 C 59.992188 -72.222656 59.558594 -72.25 58.878906 -72.25 C 58.203125 -72.25 57.765625 -72.222656 57.570312 -72.164062 C 58.105469 -72.324219 58.667969 -72.660156 59.261719 -73.175781 C 60.117188 -73.914062 60.746094 -74.796875 61.152344 -75.8125 C 61.28125 -76.136719 61.367188 -76.429688 61.414062 -76.699219 L 61.425781 -76.679688 Z M 26.550781 -44.84375 L 26.550781 -76.679688 C 26.550781 -81.019531 27.285156 -85.03125 28.75 -88.714844 C 30.441406 -92.957031 32.996094 -96.5625 36.417969 -99.527344 C 42.265625 -104.59375 49.75 -107.125 58.878906 -107.125 C 68.007812 -107.125 75.496094 -104.59375 81.339844 -99.527344 C 84.761719 -96.5625 87.320312 -92.957031 89.007812 -88.714844 C 90.476562 -85.03125 91.207031 -81.019531 91.207031 -76.679688 L 91.207031 -44.84375 C 91.207031 -40.503906 90.476562 -36.492188 89.007812 -32.808594 C 87.320312 -28.566406 84.761719 -24.964844 81.339844 -21.996094 C 75.496094 -16.929688 68.007812 -14.398438 58.878906 -14.398438 C 49.75 -14.398438 42.265625 -16.929688 36.417969 -21.996094 C 32.996094 -24.964844 30.441406 -28.566406 28.75 -32.808594 C 27.285156 -36.492188 26.550781 -40.503906 26.550781 -44.84375 Z M 26.550781 -44.84375 "/></g></g></g><g fill="#004aad" fill-opacity="1"><g transform="translate(541.200435, 161.06633)"><g><path d="M 37.65625 17.4375 C 31.882812 17.4375 26.960938 16.296875 22.886719 14.015625 C 19.574219 12.160156 16.882812 9.570312 14.804688 6.246094 C 13.292969 3.832031 12.175781 1.097656 11.449219 -1.953125 L -15.382812 -110.140625 C -16.066406 -112.875 -16.410156 -115.414062 -16.410156 -117.757812 C -16.410156 -120.742188 -15.871094 -123.542969 -14.796875 -126.152344 C -13.324219 -129.730469 -11.03125 -132.628906 -7.910156 -134.859375 C -4.078125 -137.59375 0.667969 -138.960938 6.332031 -138.960938 L 32.007812 -138.960938 C 38.535156 -138.960938 43.894531 -137.707031 48.082031 -135.195312 C 53.820312 -131.75 57.507812 -126.261719 59.144531 -118.726562 L 59.289062 -118.066406 L 64.515625 -80.085938 C 65.265625 -74.824219 65.828125 -68.535156 66.195312 -61.210938 C 66.554688 -54.132812 66.730469 -48.277344 66.730469 -43.644531 L 49.292969 -43.644531 L 49.292969 -61.082031 L 50.664062 -61.082031 L 50.664062 -43.644531 L 33.226562 -43.644531 C 33.226562 -48.1875 33.5 -54.121094 34.046875 -61.457031 C 34.617188 -69.15625 35.5 -75.789062 36.695312 -81.359375 L 44.183594 -118.472656 C 44.902344 -121.78125 45.992188 -124.675781 47.457031 -127.15625 C 49.523438 -130.660156 52.253906 -133.390625 55.644531 -135.34375 C 59.824219 -137.757812 65.007812 -138.960938 71.203125 -138.960938 L 94.824219 -138.960938 C 100.917969 -138.960938 106.050781 -137.804688 110.222656 -135.484375 C 113.820312 -133.484375 116.675781 -130.648438 118.785156 -126.972656 C 120.304688 -124.328125 121.351562 -121.339844 121.929688 -118.007812 L 104.75 -115.019531 L 121.828125 -118.546875 L 129.53125 -81.234375 C 130.589844 -75.816406 131.371094 -70.113281 131.882812 -64.125 C 132.355469 -58.539062 132.769531 -51.988281 133.125 -44.460938 L 115.707031 -43.644531 L 115.707031 -61.082031 L 117.074219 -61.082031 L 117.074219 -43.644531 L 99.644531 -44.082031 C 100 -58.363281 100.785156 -70.300781 102 -79.898438 L 107.023438 -117.664062 L 107.085938 -118.007812 C 107.652344 -121.265625 108.65625 -124.191406 110.101562 -126.785156 C 112.152344 -130.460938 114.9375 -133.3125 118.460938 -135.34375 C 122.640625 -137.757812 127.941406 -138.960938 134.363281 -138.960938 L 157.984375 -138.960938 C 163.648438 -138.960938 168.394531 -137.59375 172.226562 -134.859375 C 175.34375 -132.628906 177.640625 -129.730469 179.113281 -126.152344 C 180.1875 -123.542969 180.726562 -120.742188 180.726562 -117.757812 C 180.726562 -115.414062 180.382812 -112.863281 179.691406 -110.105469 L 152.46875 -2.074219 C 150.53125 5.042969 146.949219 10.238281 141.722656 13.503906 C 137.523438 16.125 132.449219 17.4375 126.488281 17.4375 L 100.472656 17.4375 C 94.515625 17.4375 89.441406 16.179688 85.253906 13.667969 C 82.1875 11.828125 79.667969 9.359375 77.695312 6.257812 C 76.183594 3.882812 75.054688 1.210938 74.3125 -1.761719 L 74.195312 -2.230469 L 69.3125 -27.695312 C 66.953125 -40.230469 65.652344 -53.835938 65.40625 -68.515625 L 82.84375 -68.808594 L 82.84375 -51.371094 L 81.300781 -51.371094 L 81.300781 -68.808594 L 98.722656 -68.054688 C 98.117188 -53.984375 96.59375 -40.492188 94.15625 -27.578125 L 89.40625 -2.414062 L 89.222656 -1.746094 C 87.34375 5.152344 83.789062 10.238281 78.5625 13.503906 C 74.367188 16.125 69.230469 17.4375 63.160156 17.4375 Z M 37.65625 -17.4375 L 63.160156 -17.4375 C 63.324219 -17.4375 63.449219 -17.441406 63.535156 -17.449219 C 63.457031 -17.441406 63.347656 -17.421875 63.195312 -17.390625 C 62.191406 -17.183594 61.152344 -16.742188 60.078125 -16.070312 C 58.433594 -15.042969 57.152344 -13.773438 56.234375 -12.269531 C 55.886719 -11.707031 55.671875 -11.253906 55.578125 -10.921875 L 72.402344 -6.332031 L 55.265625 -9.566406 L 59.886719 -34.042969 C 62.015625 -45.316406 63.347656 -57.15625 63.882812 -69.558594 L 64.601562 -86.246094 L 99.992188 -86.246094 L 100.277344 -69.097656 C 100.488281 -56.390625 101.585938 -44.78125 103.5625 -34.265625 L 108.355469 -9.273438 L 91.230469 -5.992188 L 108.144531 -10.21875 C 107.972656 -10.910156 107.632812 -11.65625 107.117188 -12.464844 C 106.144531 -13.996094 104.835938 -15.253906 103.195312 -16.234375 C 102.210938 -16.828125 101.265625 -17.214844 100.367188 -17.402344 C 100.234375 -17.429688 100.140625 -17.445312 100.082031 -17.449219 C 100.171875 -17.441406 100.300781 -17.4375 100.472656 -17.4375 L 126.488281 -17.4375 C 126.609375 -17.4375 126.6875 -17.4375 126.730469 -17.441406 C 126.621094 -17.433594 126.476562 -17.410156 126.300781 -17.371094 C 125.304688 -17.15625 124.285156 -16.722656 123.238281 -16.070312 C 121.59375 -15.042969 120.308594 -13.773438 119.390625 -12.269531 C 119.046875 -11.707031 118.800781 -11.144531 118.652344 -10.59375 L 145.859375 -118.566406 C 145.882812 -118.664062 145.902344 -118.746094 145.917969 -118.816406 L 145.917969 -118.804688 C 145.875 -118.519531 145.851562 -118.171875 145.851562 -117.757812 C 145.851562 -116.144531 146.191406 -114.515625 146.867188 -112.875 C 147.9375 -110.269531 149.636719 -108.136719 151.957031 -106.480469 C 153.546875 -105.34375 155.199219 -104.597656 156.910156 -104.242188 C 157.398438 -104.140625 157.753906 -104.089844 157.984375 -104.089844 L 134.363281 -104.089844 C 133.738281 -104.089844 133.332031 -104.070312 133.148438 -104.039062 C 133.953125 -104.183594 134.867188 -104.546875 135.886719 -105.136719 C 137.925781 -106.3125 139.488281 -107.871094 140.566406 -109.804688 C 141.039062 -110.660156 141.332031 -111.402344 141.441406 -112.035156 L 124.265625 -115.019531 L 141.550781 -112.722656 L 136.597656 -75.519531 C 135.53125 -67.085938 134.835938 -56.316406 134.507812 -43.210938 L 134.082031 -26.210938 L 99.066406 -26.210938 L 98.289062 -42.828125 C 97.957031 -49.910156 97.570312 -56.023438 97.132812 -61.167969 C 96.730469 -65.90625 96.144531 -70.242188 95.375 -74.183594 L 87.617188 -111.765625 L 87.570312 -112.035156 C 87.695312 -111.328125 88.015625 -110.523438 88.535156 -109.617188 C 89.644531 -107.679688 91.230469 -106.140625 93.289062 -105 C 94.179688 -104.503906 94.980469 -104.191406 95.691406 -104.058594 C 95.585938 -104.078125 95.296875 -104.089844 94.824219 -104.089844 L 71.203125 -104.089844 C 70.742188 -104.089844 70.472656 -104.082031 70.394531 -104.066406 C 71.203125 -104.21875 72.09375 -104.574219 73.070312 -105.136719 C 74.976562 -106.238281 76.449219 -107.667969 77.492188 -109.433594 C 77.929688 -110.171875 78.222656 -110.886719 78.367188 -111.570312 L 70.796875 -74.054688 C 69.933594 -70.039062 69.277344 -64.980469 68.824219 -58.871094 C 68.34375 -52.398438 68.101562 -47.324219 68.101562 -43.644531 L 68.101562 -26.210938 L 31.859375 -26.210938 L 31.859375 -43.644531 C 31.859375 -47.691406 31.695312 -52.960938 31.367188 -59.457031 C 31.050781 -65.714844 30.582031 -71.003906 29.964844 -75.332031 L 24.832031 -112.644531 L 42.105469 -115.019531 L 25.066406 -111.316406 C 25.164062 -110.871094 25.410156 -110.304688 25.804688 -109.617188 C 26.8125 -107.859375 28.257812 -106.417969 30.140625 -105.289062 C 31.25 -104.625 32.257812 -104.207031 33.164062 -104.046875 C 33.003906 -104.074219 32.621094 -104.089844 32.007812 -104.089844 L 6.332031 -104.089844 C 6.5625 -104.089844 6.917969 -104.140625 7.40625 -104.242188 C 9.117188 -104.597656 10.769531 -105.34375 12.359375 -106.480469 C 14.679688 -108.136719 16.378906 -110.269531 17.449219 -112.875 C 18.125 -114.515625 18.464844 -116.144531 18.464844 -117.757812 C 18.464844 -118.171875 18.441406 -118.519531 18.398438 -118.804688 L 18.398438 -118.816406 C 18.414062 -118.746094 18.433594 -118.652344 18.464844 -118.535156 L 45.375 -10.03125 C 45.21875 -10.683594 44.886719 -11.421875 44.375 -12.238281 C 43.296875 -13.964844 41.8125 -15.355469 39.929688 -16.414062 C 39 -16.933594 38.132812 -17.269531 37.324219 -17.425781 C 37.257812 -17.4375 37.203125 -17.445312 37.15625 -17.453125 L 37.164062 -17.453125 C 37.289062 -17.441406 37.453125 -17.4375 37.65625 -17.4375 Z M 37.65625 -17.4375 "/></g></g></g><g fill="#ffde59" fill-opacity="1"><g transform="translate(20.696679, 161.06633)"><g><path d="M 46.890625 0 C 44.046875 0 42.078125 -0.539062 40.984375 -1.625 C 39.898438 -2.707031 39.359375 -4.675781 39.359375 -7.53125 L 39.359375 -46.546875 L 0.6875 -113.984375 C -0.226562 -115.585938 -0.6875 -116.957031 -0.6875 -118.09375 C -0.6875 -120.375 1.023438 -121.515625 4.453125 -121.515625 L 29.265625 -121.515625 C 33.941406 -121.515625 37.164062 -121.171875 38.9375 -120.484375 C 40.707031 -119.804688 42.390625 -117.984375 43.984375 -115.015625 L 59.390625 -84.71875 L 75.484375 -115.015625 C 77.078125 -117.984375 78.726562 -119.804688 80.4375 -120.484375 C 82.15625 -121.171875 85.351562 -121.515625 90.03125 -121.515625 L 113.984375 -121.515625 C 117.410156 -121.515625 119.125 -120.375 119.125 -118.09375 C 119.125 -116.957031 118.664062 -115.585938 117.75 -113.984375 L 79.078125 -46.890625 L 79.078125 -7.53125 C 79.078125 -4.675781 78.535156 -2.707031 77.453125 -1.625 C 76.367188 -0.539062 74.398438 0 71.546875 0 Z M 46.890625 0 "/></g></g></g><g fill="#ffde59" fill-opacity="1"><g transform="translate(139.140795, 161.06633)"><g><path d="M 14.375 0 C 11.519531 0 9.550781 -0.539062 8.46875 -1.625 C 7.382812 -2.707031 6.84375 -4.675781 6.84375 -7.53125 L 6.84375 -113.984375 C 6.84375 -116.835938 7.382812 -118.804688 8.46875 -119.890625 C 9.550781 -120.972656 11.519531 -121.515625 14.375 -121.515625 L 89 -121.515625 C 91.851562 -121.515625 93.820312 -120.972656 94.90625 -119.890625 C 95.988281 -118.804688 96.53125 -116.835938 96.53125 -113.984375 L 96.53125 -94.828125 C 96.53125 -91.972656 95.988281 -90.003906 94.90625 -88.921875 C 93.820312 -87.835938 91.851562 -87.296875 89 -87.296875 L 46.546875 -87.296875 L 46.546875 -78.390625 L 79.421875 -78.390625 C 82.273438 -78.390625 84.242188 -77.847656 85.328125 -76.765625 C 86.410156 -75.679688 86.953125 -73.710938 86.953125 -70.859375 L 86.953125 -51.6875 C 86.953125 -48.832031 86.410156 -46.863281 85.328125 -45.78125 C 84.242188 -44.695312 82.273438 -44.15625 79.421875 -44.15625 L 46.546875 -44.15625 L 46.546875 -34.40625 L 90.203125 -34.40625 C 93.054688 -34.40625 95.023438 -33.863281 96.109375 -32.78125 C 97.191406 -31.695312 97.734375 -29.726562 97.734375 -26.875 L 97.734375 -7.53125 C 97.734375 -4.675781 97.191406 -2.707031 96.109375 -1.625 C 95.023438 -0.539062 93.054688 0 90.203125 0 Z M 14.375 0 "/></g></g></g><g fill="#ffde59" fill-opacity="1"><g transform="translate(240.46874, 161.06633)"><g><path d="M 14.375 0 C 11.519531 0 9.550781 -0.539062 8.46875 -1.625 C 7.382812 -2.707031 6.84375 -4.675781 6.84375 -7.53125 L 6.84375 -113.984375 C 6.84375 -116.835938 7.382812 -118.804688 8.46875 -119.890625 C 9.550781 -120.972656 11.519531 -121.515625 14.375 -121.515625 L 39.03125 -121.515625 C 41.875 -121.515625 43.835938 -120.972656 44.921875 -119.890625 C 46.003906 -118.804688 46.546875 -116.835938 46.546875 -113.984375 L 46.546875 -34.40625 L 84.71875 -34.40625 C 87.570312 -34.40625 89.539062 -33.863281 90.625 -32.78125 C 91.707031 -31.695312 92.25 -29.726562 92.25 -26.875 L 92.25 -7.53125 C 92.25 -4.675781 91.707031 -2.707031 90.625 -1.625 C 89.539062 -0.539062 87.570312 0 84.71875 0 Z M 14.375 0 "/></g></g></g><g fill="#ffde59" fill-opacity="1"><g transform="translate(334.436686, 161.06633)"><g><path d="M 14.375 0 C 11.519531 0 9.550781 -0.539062 8.46875 -1.625 C 7.382812 -2.707031 6.84375 -4.675781 6.84375 -7.53125 L 6.84375 -113.984375 C 6.84375 -116.835938 7.382812 -118.804688 8.46875 -119.890625 C 9.550781 -120.972656 11.519531 -121.515625 14.375 -121.515625 L 39.03125 -121.515625 C 41.875 -121.515625 43.835938 -120.972656 44.921875 -119.890625 C 46.003906 -118.804688 46.546875 -116.835938 46.546875 -113.984375 L 46.546875 -34.40625 L 84.71875 -34.40625 C 87.570312 -34.40625 89.539062 -33.863281 90.625 -32.78125 C 91.707031 -31.695312 92.25 -29.726562 92.25 -26.875 L 92.25 -7.53125 C 92.25 -4.675781 91.707031 -2.707031 90.625 -1.625 C 89.539062 -0.539062 87.570312 0 84.71875 0 Z M 14.375 0 "/></g></g></g><g fill="#ffde59" fill-opacity="1"><g transform="translate(426.521851, 161.06633)"><g><path d="M 58.875 2.5625 C 41.53125 2.5625 28.09375 -1.828125 18.5625 -10.609375 C 9.039062 -19.398438 4.28125 -31.550781 4.28125 -47.0625 L 4.28125 -74.453125 C 4.28125 -89.972656 9.039062 -102.125 18.5625 -110.90625 C 28.09375 -119.695312 41.53125 -124.09375 58.875 -124.09375 C 76.21875 -124.09375 89.648438 -119.695312 99.171875 -110.90625 C 108.703125 -102.125 113.46875 -89.972656 113.46875 -74.453125 L 113.46875 -47.0625 C 113.46875 -31.550781 108.703125 -19.398438 99.171875 -10.609375 C 89.648438 -1.828125 76.21875 2.5625 58.875 2.5625 Z M 43.984375 -44.84375 C 43.984375 -40.625 45.265625 -37.398438 47.828125 -35.171875 C 50.398438 -32.941406 54.082031 -31.828125 58.875 -31.828125 C 63.664062 -31.828125 67.34375 -32.941406 69.90625 -35.171875 C 72.476562 -37.398438 73.765625 -40.625 73.765625 -44.84375 L 73.765625 -76.671875 C 73.765625 -80.898438 72.476562 -84.125 69.90625 -86.34375 C 67.34375 -88.570312 63.664062 -89.6875 58.875 -89.6875 C 54.082031 -89.6875 50.398438 -88.570312 47.828125 -86.34375 C 45.265625 -84.125 43.984375 -80.898438 43.984375 -76.671875 Z M 43.984375 -44.84375 "/></g></g></g><g fill="#ffde59" fill-opacity="1"><g transform="translate(541.200435, 161.06633)"><g><path d="M 37.65625 0 C 34.914062 0 32.832031 -0.394531 31.40625 -1.1875 C 29.976562 -1.988281 28.976562 -3.585938 28.40625 -5.984375 L 1.546875 -114.328125 C 1.203125 -115.703125 1.03125 -116.84375 1.03125 -117.75 C 1.03125 -119.125 1.425781 -120.09375 2.21875 -120.65625 C 3.019531 -121.226562 4.390625 -121.515625 6.328125 -121.515625 L 32 -121.515625 C 35.3125 -121.515625 37.679688 -121.085938 39.109375 -120.234375 C 40.535156 -119.378906 41.535156 -117.640625 42.109375 -115.015625 L 47.234375 -77.703125 C 47.921875 -72.910156 48.4375 -67.117188 48.78125 -60.328125 C 49.125 -53.546875 49.296875 -47.984375 49.296875 -43.640625 L 50.65625 -43.640625 C 50.65625 -47.753906 50.910156 -53.257812 51.421875 -60.15625 C 51.941406 -67.0625 52.71875 -72.910156 53.75 -77.703125 L 61.28125 -115.015625 C 61.84375 -117.640625 62.863281 -119.378906 64.34375 -120.234375 C 65.832031 -121.085938 68.117188 -121.515625 71.203125 -121.515625 L 94.828125 -121.515625 C 97.898438 -121.515625 100.207031 -121.085938 101.75 -120.234375 C 103.289062 -119.378906 104.289062 -117.640625 104.75 -115.015625 L 112.453125 -77.703125 C 113.359375 -73.023438 114.039062 -68.003906 114.5 -62.640625 C 114.957031 -57.273438 115.359375 -50.941406 115.703125 -43.640625 L 117.078125 -43.640625 C 117.410156 -57.335938 118.148438 -68.691406 119.296875 -77.703125 L 124.265625 -115.015625 C 124.710938 -117.640625 125.675781 -119.378906 127.15625 -120.234375 C 128.644531 -121.085938 131.046875 -121.515625 134.359375 -121.515625 L 157.984375 -121.515625 C 159.921875 -121.515625 161.285156 -121.226562 162.078125 -120.65625 C 162.878906 -120.09375 163.28125 -119.125 163.28125 -117.75 C 163.28125 -116.84375 163.109375 -115.703125 162.765625 -114.328125 L 135.5625 -6.328125 C 134.875 -3.816406 133.84375 -2.132812 132.46875 -1.28125 C 131.101562 -0.425781 129.109375 0 126.484375 0 L 100.46875 0 C 97.726562 0 95.644531 -0.425781 94.21875 -1.28125 C 92.789062 -2.132812 91.789062 -3.703125 91.21875 -5.984375 L 86.4375 -30.984375 C 84.269531 -42.503906 83.070312 -55.113281 82.84375 -68.8125 L 81.296875 -68.8125 C 80.722656 -55.570312 79.296875 -42.90625 77.015625 -30.8125 L 72.40625 -6.328125 C 71.71875 -3.816406 70.6875 -2.132812 69.3125 -1.28125 C 67.945312 -0.425781 65.894531 0 63.15625 0 Z M 37.65625 0 "/></g></g></g></g></g></svg>