<svg xmlns="http://www.w3.org/2000/svg" xmlns:xlink="http://www.w3.org/1999/xlink" width="2950" zoomAndPan="magnify" viewBox="0 0 2212.5 422.250001" height="563" preserveAspectRatio="xMidYMid meet" version="1.0"><defs><g/><clipPath id="cbca0fe73a"><path d="M 1.710938 28.351562 L 2209.863281 28.351562 L 2209.863281 355.027344 L 1.710938 355.027344 Z M 1.710938 28.351562 " clip-rule="nonzero"/></clipPath><clipPath id="1ba404544f"><path d="M 0.710938 0.351562 L 2208.863281 0.351562 L 2208.863281 327.027344 L 0.710938 327.027344 Z M 0.710938 0.351562 " clip-rule="nonzero"/></clipPath><clipPath id="3d27bc16d6"><rect x="0" width="2209" y="0" height="328"/></clipPath><clipPath id="cd1db6a09a"><rect x="0" width="2114" y="0" height="332"/></clipPath></defs><g clip-path="url(#cbca0fe73a)"><g transform="matrix(1, 0, 0, 1, 1, 28)"><g clip-path="url(#3d27bc16d6)"><g clip-path="url(#1ba404544f)"><path fill="#ffde59" d="M 0.710938 0.351562 L 2208.304688 0.351562 L 2208.304688 327.027344 L 0.710938 327.027344 Z M 0.710938 0.351562 " fill-opacity="1" fill-rule="nonzero"/></g></g></g></g><g transform="matrix(1, 0, 0, 1, 61, 42)"><g clip-path="url(#cd1db6a09a)"><g fill="#ffffff" fill-opacity="1"><g transform="translate(5.575341, 247.447943)"><g><path d="M 72.96875 0 C 68.519531 0 65.453125 -0.84375 63.765625 -2.53125 C 62.085938 -4.21875 61.25 -7.28125 61.25 -11.71875 L 61.25 -72.421875 L 1.0625 -177.34375 C -0.351562 -179.832031 -1.0625 -181.960938 -1.0625 -183.734375 C -1.0625 -187.285156 1.597656 -189.0625 6.921875 -189.0625 L 45.53125 -189.0625 C 52.8125 -189.0625 57.828125 -188.523438 60.578125 -187.453125 C 63.328125 -186.390625 65.945312 -183.550781 68.4375 -178.9375 L 92.40625 -131.8125 L 117.4375 -178.9375 C 119.914062 -183.550781 122.484375 -186.390625 125.140625 -187.453125 C 127.804688 -188.523438 132.78125 -189.0625 140.0625 -189.0625 L 177.34375 -189.0625 C 182.664062 -189.0625 185.328125 -187.285156 185.328125 -183.734375 C 185.328125 -181.960938 184.617188 -179.832031 183.203125 -177.34375 L 123.015625 -72.96875 L 123.015625 -11.71875 C 123.015625 -7.28125 122.171875 -4.21875 120.484375 -2.53125 C 118.804688 -0.84375 115.75 0 111.3125 0 Z M 72.96875 0 "/></g></g></g><g fill="#ffffff" fill-opacity="1"><g transform="translate(189.831268, 247.447943)"><g><path d="M 22.375 0 C 17.925781 0 14.859375 -0.84375 13.171875 -2.53125 C 11.492188 -4.21875 10.65625 -7.28125 10.65625 -11.71875 L 10.65625 -177.34375 C 10.65625 -181.78125 11.492188 -184.84375 13.171875 -186.53125 C 14.859375 -188.21875 17.925781 -189.0625 22.375 -189.0625 L 138.46875 -189.0625 C 142.90625 -189.0625 145.96875 -188.21875 147.65625 -186.53125 C 149.34375 -184.84375 150.1875 -181.78125 150.1875 -177.34375 L 150.1875 -147.515625 C 150.1875 -143.078125 149.34375 -140.015625 147.65625 -138.328125 C 145.96875 -136.640625 142.90625 -135.796875 138.46875 -135.796875 L 72.421875 -135.796875 L 72.421875 -121.953125 L 123.546875 -121.953125 C 127.992188 -121.953125 131.054688 -121.109375 132.734375 -119.421875 C 134.421875 -117.734375 135.265625 -114.671875 135.265625 -110.234375 L 135.265625 -80.421875 C 135.265625 -75.984375 134.421875 -72.921875 132.734375 -71.234375 C 131.054688 -69.546875 127.992188 -68.703125 123.546875 -68.703125 L 72.421875 -68.703125 L 72.421875 -53.515625 L 140.328125 -53.515625 C 144.765625 -53.515625 147.828125 -52.671875 149.515625 -50.984375 C 151.203125 -49.304688 152.046875 -46.25 152.046875 -41.8125 L 152.046875 -11.71875 C 152.046875 -7.28125 151.203125 -4.21875 149.515625 -2.53125 C 147.828125 -0.84375 144.765625 0 140.328125 0 Z M 22.375 0 "/></g></g></g><g fill="#ffffff" fill-opacity="1"><g transform="translate(347.460633, 247.447943)"><g><path d="M 22.375 0 C 17.925781 0 14.859375 -0.84375 13.171875 -2.53125 C 11.492188 -4.21875 10.65625 -7.28125 10.65625 -11.71875 L 10.65625 -177.34375 C 10.65625 -181.78125 11.492188 -184.84375 13.171875 -186.53125 C 14.859375 -188.21875 17.925781 -189.0625 22.375 -189.0625 L 60.71875 -189.0625 C 65.15625 -189.0625 68.210938 -188.21875 69.890625 -186.53125 C 71.578125 -184.84375 72.421875 -181.78125 72.421875 -177.34375 L 72.421875 -53.515625 L 131.8125 -53.515625 C 136.25 -53.515625 139.3125 -52.671875 141 -50.984375 C 142.6875 -49.304688 143.53125 -46.25 143.53125 -41.8125 L 143.53125 -11.71875 C 143.53125 -7.28125 142.6875 -4.21875 141 -2.53125 C 139.3125 -0.84375 136.25 0 131.8125 0 Z M 22.375 0 "/></g></g></g><g fill="#ffffff" fill-opacity="1"><g transform="translate(493.640562, 247.447943)"><g><path d="M 22.375 0 C 17.925781 0 14.859375 -0.84375 13.171875 -2.53125 C 11.492188 -4.21875 10.65625 -7.28125 10.65625 -11.71875 L 10.65625 -177.34375 C 10.65625 -181.78125 11.492188 -184.84375 13.171875 -186.53125 C 14.859375 -188.21875 17.925781 -189.0625 22.375 -189.0625 L 60.71875 -189.0625 C 65.15625 -189.0625 68.210938 -188.21875 69.890625 -186.53125 C 71.578125 -184.84375 72.421875 -181.78125 72.421875 -177.34375 L 72.421875 -53.515625 L 131.8125 -53.515625 C 136.25 -53.515625 139.3125 -52.671875 141 -50.984375 C 142.6875 -49.304688 143.53125 -46.25 143.53125 -41.8125 L 143.53125 -11.71875 C 143.53125 -7.28125 142.6875 -4.21875 141 -2.53125 C 139.3125 -0.84375 136.25 0 131.8125 0 Z M 22.375 0 "/></g></g></g><g fill="#ffffff" fill-opacity="1"><g transform="translate(639.820491, 247.447943)"><g><path d="M 91.59375 4 C 64.613281 4 43.710938 -2.832031 28.890625 -16.5 C 14.066406 -30.175781 6.65625 -49.085938 6.65625 -73.234375 L 6.65625 -115.828125 C 6.65625 -139.972656 14.066406 -158.878906 28.890625 -172.546875 C 43.710938 -186.210938 64.613281 -193.046875 91.59375 -193.046875 C 118.582031 -193.046875 139.488281 -186.210938 154.3125 -172.546875 C 169.132812 -158.878906 176.546875 -139.972656 176.546875 -115.828125 L 176.546875 -73.234375 C 176.546875 -49.085938 169.132812 -30.175781 154.3125 -16.5 C 139.488281 -2.832031 118.582031 4 91.59375 4 Z M 68.4375 -69.765625 C 68.4375 -63.191406 70.429688 -58.175781 74.421875 -54.71875 C 78.421875 -51.257812 84.144531 -49.53125 91.59375 -49.53125 C 99.050781 -49.53125 104.773438 -51.257812 108.765625 -54.71875 C 112.765625 -58.175781 114.765625 -63.191406 114.765625 -69.765625 L 114.765625 -119.296875 C 114.765625 -125.859375 112.765625 -130.867188 108.765625 -134.328125 C 104.773438 -137.796875 99.050781 -139.53125 91.59375 -139.53125 C 84.144531 -139.53125 78.421875 -137.796875 74.421875 -134.328125 C 70.429688 -130.867188 68.4375 -125.859375 68.4375 -119.296875 Z M 68.4375 -69.765625 "/></g></g></g><g fill="#ffffff" fill-opacity="1"><g transform="translate(823.011371, 247.447943)"><g><path d="M 58.578125 0 C 54.316406 0 51.078125 -0.617188 48.859375 -1.859375 C 46.640625 -3.109375 45.085938 -5.59375 44.203125 -9.3125 L 2.390625 -177.875 C 1.859375 -180.007812 1.59375 -181.785156 1.59375 -183.203125 C 1.59375 -185.328125 2.210938 -186.832031 3.453125 -187.71875 C 4.703125 -188.613281 6.835938 -189.0625 9.859375 -189.0625 L 49.796875 -189.0625 C 54.941406 -189.0625 58.625 -188.394531 60.84375 -187.0625 C 63.0625 -185.726562 64.613281 -183.019531 65.5 -178.9375 L 73.5 -120.890625 C 74.5625 -113.429688 75.359375 -104.421875 75.890625 -93.859375 C 76.421875 -83.296875 76.6875 -74.644531 76.6875 -67.90625 L 78.8125 -67.90625 C 78.8125 -74.289062 79.210938 -82.851562 80.015625 -93.59375 C 80.816406 -104.332031 82.015625 -113.429688 83.609375 -120.890625 L 95.328125 -178.9375 C 96.210938 -183.019531 97.804688 -185.726562 100.109375 -187.0625 C 102.421875 -188.394531 105.972656 -189.0625 110.765625 -189.0625 L 147.515625 -189.0625 C 152.304688 -189.0625 155.898438 -188.394531 158.296875 -187.0625 C 160.703125 -185.726562 162.257812 -183.019531 162.96875 -178.9375 L 174.953125 -120.890625 C 176.367188 -113.609375 177.429688 -105.796875 178.140625 -97.453125 C 178.847656 -89.109375 179.46875 -79.257812 180 -67.90625 L 182.140625 -67.90625 C 182.671875 -89.207031 183.820312 -106.867188 185.59375 -120.890625 L 193.3125 -178.9375 C 194.03125 -183.019531 195.539062 -185.726562 197.84375 -187.0625 C 200.15625 -188.394531 203.882812 -189.0625 209.03125 -189.0625 L 245.78125 -189.0625 C 248.789062 -189.0625 250.914062 -188.613281 252.15625 -187.71875 C 253.40625 -186.832031 254.03125 -185.328125 254.03125 -183.203125 C 254.03125 -181.785156 253.765625 -180.007812 253.234375 -177.875 L 210.890625 -9.859375 C 209.828125 -5.953125 208.226562 -3.332031 206.09375 -2 C 203.96875 -0.664062 200.863281 0 196.78125 0 L 156.3125 0 C 152.050781 0 148.8125 -0.664062 146.59375 -2 C 144.375 -3.332031 142.816406 -5.769531 141.921875 -9.3125 L 134.46875 -48.203125 C 131.09375 -66.128906 129.226562 -85.742188 128.875 -107.046875 L 126.484375 -107.046875 C 125.597656 -86.453125 123.378906 -66.75 119.828125 -47.9375 L 112.640625 -9.859375 C 111.578125 -5.953125 109.976562 -3.332031 107.84375 -2 C 105.71875 -0.664062 102.523438 0 98.265625 0 Z M 58.578125 0 "/></g></g></g><g fill="#000000" fill-opacity="1"><g transform="translate(1078.439515, 247.447943)"><g><path d="M 154.4375 -189.0625 C 157.988281 -189.0625 160.519531 -188.523438 162.03125 -187.453125 C 163.539062 -186.390625 164.296875 -184.53125 164.296875 -181.875 C 164.296875 -181.164062 164.117188 -179.742188 163.765625 -177.609375 L 143.53125 -62.578125 C 139.445312 -40.035156 130.4375 -23.300781 116.5 -12.375 C 102.5625 -1.457031 83.164062 4 58.3125 4 C 39.675781 4 24.988281 -0.0820312 14.25 -8.25 C 3.507812 -16.414062 -3.367188 -28.046875 -6.390625 -43.140625 C -6.566406 -44.023438 -6.65625 -45.175781 -6.65625 -46.59375 C -6.65625 -49.4375 -5.851562 -51.742188 -4.25 -53.515625 C -2.65625 -55.296875 0.00390625 -56.804688 3.734375 -58.046875 L 36.75 -69.234375 C 39.769531 -70.296875 42.164062 -70.828125 43.9375 -70.828125 C 45.882812 -70.828125 47.4375 -70.207031 48.59375 -68.96875 C 49.75 -67.726562 50.679688 -65.6875 51.390625 -62.84375 C 53.703125 -53.789062 58.851562 -49.265625 66.84375 -49.265625 C 75 -49.265625 80.144531 -55.125 82.28125 -66.84375 L 101.984375 -177.609375 C 102.867188 -181.867188 104.242188 -184.84375 106.109375 -186.53125 C 107.972656 -188.21875 111.125 -189.0625 115.5625 -189.0625 Z M 154.4375 -189.0625 "/></g></g></g><g fill="#000000" fill-opacity="1"><g transform="translate(1234.471275, 247.447943)"><g><path d="M 157.375 -189.0625 C 160.925781 -189.0625 163.5 -188.484375 165.09375 -187.328125 C 166.6875 -186.171875 167.484375 -184.175781 167.484375 -181.34375 C 167.484375 -179.738281 167.394531 -178.40625 167.21875 -177.34375 L 161.90625 -147.515625 C 161.1875 -143.078125 159.804688 -140.015625 157.765625 -138.328125 C 155.722656 -136.640625 152.484375 -135.796875 148.046875 -135.796875 L 82.015625 -135.796875 L 79.625 -121.953125 L 130.75 -121.953125 C 134.476562 -121.953125 137.09375 -121.421875 138.59375 -120.359375 C 140.101562 -119.296875 140.859375 -117.34375 140.859375 -114.5 L 140.328125 -110.234375 L 135 -80.421875 C 134.289062 -75.984375 132.957031 -72.921875 131 -71.234375 C 129.050781 -69.546875 125.859375 -68.703125 121.421875 -68.703125 L 70.296875 -68.703125 L 67.640625 -53.515625 L 135.53125 -53.515625 C 139.257812 -53.515625 141.878906 -52.984375 143.390625 -51.921875 C 144.898438 -50.859375 145.65625 -48.90625 145.65625 -46.0625 L 145.125 -41.8125 L 139.796875 -11.71875 C 139.085938 -7.28125 137.710938 -4.21875 135.671875 -2.53125 C 133.628906 -0.84375 130.390625 0 125.953125 0 L 7.984375 0 C 4.253906 0 1.632812 -0.53125 0.125 -1.59375 C -1.375 -2.664062 -2.125 -4.617188 -2.125 -7.453125 L -1.59375 -11.71875 L 27.6875 -177.34375 C 28.40625 -181.78125 29.738281 -184.84375 31.6875 -186.53125 C 33.632812 -188.21875 36.832031 -189.0625 41.28125 -189.0625 Z M 157.375 -189.0625 "/></g></g></g><g fill="#000000" fill-opacity="1"><g transform="translate(1392.100641, 247.447943)"><g><path d="M 119.296875 -189.0625 C 137.578125 -189.0625 152 -184.398438 162.5625 -175.078125 C 173.125 -165.753906 178.40625 -152.660156 178.40625 -135.796875 C 178.40625 -130.117188 177.960938 -124.972656 177.078125 -120.359375 C 172.816406 -96.566406 160.742188 -78.816406 140.859375 -67.109375 C 143.347656 -63.203125 145.476562 -58.671875 147.25 -53.515625 L 160.828125 -14.640625 C 161.359375 -12.867188 161.625 -11.273438 161.625 -9.859375 C 161.625 -6.835938 160.648438 -4.4375 158.703125 -2.65625 C 156.753906 -0.882812 153.914062 0 150.1875 0 L 114.234375 0 C 107.128906 0 101.710938 -1.195312 97.984375 -3.59375 C 94.265625 -5.988281 91.691406 -9.847656 90.265625 -15.171875 L 81.21875 -47.125 C 79.976562 -51.03125 78.644531 -53.914062 77.21875 -55.78125 C 75.800781 -57.644531 73.316406 -58.578125 69.765625 -58.578125 L 68.4375 -58.578125 L 60.171875 -11.71875 C 59.460938 -7.28125 58.085938 -4.21875 56.046875 -2.53125 C 54.003906 -0.84375 50.765625 0 46.328125 0 L 7.984375 0 C 4.253906 0 1.632812 -0.53125 0.125 -1.59375 C -1.375 -2.664062 -2.125 -4.617188 -2.125 -7.453125 L -1.59375 -11.71875 L 27.6875 -177.34375 C 28.40625 -181.78125 29.738281 -184.84375 31.6875 -186.53125 C 33.632812 -188.21875 36.832031 -189.0625 41.28125 -189.0625 Z M 97.71875 -108.640625 C 102.519531 -108.640625 106.382812 -110.28125 109.3125 -113.5625 C 112.238281 -116.851562 113.703125 -120.984375 113.703125 -125.953125 C 113.703125 -129.148438 112.769531 -131.585938 110.90625 -133.265625 C 109.039062 -134.953125 106.242188 -135.796875 102.515625 -135.796875 L 82.015625 -135.796875 L 77.21875 -108.640625 Z M 97.71875 -108.640625 "/></g></g></g><g fill="#000000" fill-opacity="1"><g transform="translate(1569.433663, 247.447943)"><g><path d="M 15.703125 -137.40625 C 18.898438 -155.507812 27.953125 -169.304688 42.859375 -178.796875 C 57.773438 -188.296875 78.101562 -193.046875 103.84375 -193.046875 C 123.726562 -193.046875 139.304688 -189.941406 150.578125 -183.734375 C 161.847656 -177.523438 169.523438 -167.9375 173.609375 -154.96875 C 174.328125 -153.019531 174.6875 -151.25 174.6875 -149.65625 C 174.6875 -147.695312 173.972656 -146.050781 172.546875 -144.71875 C 171.128906 -143.394531 168.734375 -142.019531 165.359375 -140.59375 L 133.40625 -128.078125 C 130.5625 -127.015625 128.34375 -126.484375 126.75 -126.484375 C 124.976562 -126.484375 123.554688 -127.054688 122.484375 -128.203125 C 121.421875 -129.359375 120.445312 -131.269531 119.5625 -133.9375 C 118.144531 -138.019531 115.570312 -140.726562 111.84375 -142.0625 C 108.113281 -143.394531 103.675781 -144.0625 98.53125 -144.0625 C 84.5 -144.0625 77.484375 -140.507812 77.484375 -133.40625 C 77.484375 -130.03125 79.613281 -127.632812 83.875 -126.21875 C 88.132812 -124.800781 95.328125 -123.289062 105.453125 -121.6875 C 122.671875 -119.03125 137.269531 -113.570312 149.25 -105.3125 C 161.226562 -97.0625 167.21875 -84.148438 167.21875 -66.578125 C 167.21875 -61.242188 166.773438 -56.445312 165.890625 -52.1875 C 162.335938 -32.125 152.835938 -17.742188 137.390625 -9.046875 C 121.953125 -0.347656 100.566406 4 73.234375 4 C 52.992188 4 35.992188 0.757812 22.234375 -5.71875 C 8.472656 -12.195312 0.351562 -21.921875 -2.125 -34.890625 C -2.300781 -35.773438 -2.390625 -37.015625 -2.390625 -38.609375 C -2.390625 -41.453125 -1.59375 -43.71875 0 -45.40625 C 1.59375 -47.09375 4.253906 -48.644531 7.984375 -50.0625 L 39.40625 -61.78125 C 43.132812 -63.019531 45.796875 -63.640625 47.390625 -63.640625 C 49.171875 -63.640625 50.726562 -63.0625 52.0625 -61.90625 C 53.394531 -60.75 54.59375 -58.929688 55.65625 -56.453125 C 57.070312 -52.898438 59.734375 -50.410156 63.640625 -48.984375 C 67.546875 -47.566406 72.875 -46.859375 79.625 -46.859375 C 87.070312 -46.859375 92.75 -47.523438 96.65625 -48.859375 C 100.5625 -50.191406 102.867188 -52.632812 103.578125 -56.1875 C 104.109375 -59.738281 102.421875 -62.3125 98.515625 -63.90625 C 94.617188 -65.5 88.140625 -67.007812 79.078125 -68.4375 C 67.015625 -70.382812 56.5 -73 47.53125 -76.28125 C 38.5625 -79.570312 30.789062 -84.988281 24.21875 -92.53125 C 17.65625 -100.070312 14.375 -110.320312 14.375 -123.28125 C 14.375 -127.007812 14.816406 -131.71875 15.703125 -137.40625 Z M 15.703125 -137.40625 "/></g></g></g><g fill="#000000" fill-opacity="1"><g transform="translate(1742.240153, 247.447943)"><g><path d="M 157.375 -189.0625 C 160.925781 -189.0625 163.5 -188.484375 165.09375 -187.328125 C 166.6875 -186.171875 167.484375 -184.175781 167.484375 -181.34375 C 167.484375 -179.738281 167.394531 -178.40625 167.21875 -177.34375 L 161.90625 -147.515625 C 161.1875 -143.078125 159.804688 -140.015625 157.765625 -138.328125 C 155.722656 -136.640625 152.484375 -135.796875 148.046875 -135.796875 L 82.015625 -135.796875 L 79.625 -121.953125 L 130.75 -121.953125 C 134.476562 -121.953125 137.09375 -121.421875 138.59375 -120.359375 C 140.101562 -119.296875 140.859375 -117.34375 140.859375 -114.5 L 140.328125 -110.234375 L 135 -80.421875 C 134.289062 -75.984375 132.957031 -72.921875 131 -71.234375 C 129.050781 -69.546875 125.859375 -68.703125 121.421875 -68.703125 L 70.296875 -68.703125 L 67.640625 -53.515625 L 135.53125 -53.515625 C 139.257812 -53.515625 141.878906 -52.984375 143.390625 -51.921875 C 144.898438 -50.859375 145.65625 -48.90625 145.65625 -46.0625 L 145.125 -41.8125 L 139.796875 -11.71875 C 139.085938 -7.28125 137.710938 -4.21875 135.671875 -2.53125 C 133.628906 -0.84375 130.390625 0 125.953125 0 L 7.984375 0 C 4.253906 0 1.632812 -0.53125 0.125 -1.59375 C -1.375 -2.664062 -2.125 -4.617188 -2.125 -7.453125 L -1.59375 -11.71875 L 27.6875 -177.34375 C 28.40625 -181.78125 29.738281 -184.84375 31.6875 -186.53125 C 33.632812 -188.21875 36.832031 -189.0625 41.28125 -189.0625 Z M 157.375 -189.0625 "/></g></g></g><g fill="#000000" fill-opacity="1"><g transform="translate(1899.869518, 247.447943)"><g><path d="M 196.515625 -189.0625 C 201.304688 -189.0625 203.703125 -187.550781 203.703125 -184.53125 C 203.703125 -182.40625 202.640625 -180.007812 200.515625 -177.34375 L 121.6875 -72.96875 L 111.046875 -11.71875 C 110.328125 -7.28125 108.945312 -4.21875 106.90625 -2.53125 C 104.863281 -0.84375 101.625 0 97.1875 0 L 58.84375 0 C 55.113281 0 52.492188 -0.53125 50.984375 -1.59375 C 49.484375 -2.664062 48.734375 -4.617188 48.734375 -7.453125 L 49.265625 -11.71875 L 59.90625 -72.421875 L 18.375 -177.34375 C 17.664062 -178.9375 17.3125 -180.625 17.3125 -182.40625 C 17.3125 -186.84375 20.238281 -189.0625 26.09375 -189.0625 L 63.640625 -189.0625 C 71.097656 -189.0625 76.113281 -188.523438 78.6875 -187.453125 C 81.257812 -186.390625 83.34375 -183.550781 84.9375 -178.9375 L 100.390625 -131.8125 L 133.9375 -178.9375 C 137.132812 -183.550781 140.148438 -186.390625 142.984375 -187.453125 C 145.828125 -188.523438 150.890625 -189.0625 158.171875 -189.0625 Z M 196.515625 -189.0625 "/></g></g></g></g></g></svg>