<svg xmlns="http://www.w3.org/2000/svg" xmlns:xlink="http://www.w3.org/1999/xlink" width="1920" zoomAndPan="magnify" viewBox="0 0 1440 809.999993" height="1080" preserveAspectRatio="xMidYMid meet" version="1.0"><defs><g/><clipPath id="926eea3d7e"><rect x="0" width="1395" y="0" height="215"/></clipPath></defs><g transform="matrix(1, 0, 0, 1, 27, 297)"><g clip-path="url(#926eea3d7e)"><g fill="#000000" fill-opacity="1"><g transform="translate(718.145137, 161.06633)"><g><path d="M 99.273438 -137.894531 C 105.019531 -137.894531 109.792969 -136.550781 113.589844 -133.871094 C 116.695312 -131.679688 118.96875 -128.796875 120.414062 -125.226562 C 121.453125 -122.660156 121.976562 -119.882812 121.976562 -116.902344 C 121.976562 -115.542969 121.785156 -113.734375 121.410156 -111.472656 L 108.375 -37.386719 C 105.003906 -18.757812 97.203125 -4.652344 84.976562 4.925781 C 73.054688 14.265625 57.226562 18.933594 37.484375 18.933594 C 21.824219 18.933594 9.082031 15.199219 -0.75 7.722656 C -10.9375 -0.0234375 -17.40625 -10.769531 -20.15625 -24.519531 C -20.484375 -26.148438 -20.648438 -27.960938 -20.648438 -29.953125 C -20.648438 -35.964844 -18.734375 -41.097656 -14.90625 -45.351562 C -11.949219 -48.636719 -7.910156 -51.132812 -2.78125 -52.839844 L 18.371094 -60.003906 C 21.941406 -61.265625 25.230469 -61.898438 28.242188 -61.898438 C 30.972656 -61.898438 33.558594 -61.40625 36.011719 -60.425781 C 38.785156 -59.316406 41.191406 -57.664062 43.230469 -55.46875 C 45.882812 -52.613281 47.777344 -48.910156 48.914062 -44.363281 C 48.933594 -44.289062 48.953125 -44.226562 48.972656 -44.175781 C 48.945312 -44.242188 48.898438 -44.335938 48.835938 -44.453125 C 48.515625 -45.039062 48.046875 -45.601562 47.4375 -46.140625 C 46.648438 -46.832031 45.765625 -47.347656 44.785156 -47.683594 C 44.113281 -47.917969 43.503906 -48.03125 42.960938 -48.03125 C 41.980469 -48.03125 40.972656 -47.804688 39.941406 -47.351562 C 38.804688 -46.851562 37.851562 -46.164062 37.085938 -45.292969 C 36.71875 -44.878906 36.484375 -44.539062 36.375 -44.28125 C 36.515625 -44.617188 36.652344 -45.152344 36.785156 -45.890625 L 49.484375 -117.269531 L 49.53125 -117.503906 C 50.828125 -123.722656 53.390625 -128.566406 57.226562 -132.035156 C 61.542969 -135.941406 67.226562 -137.894531 74.285156 -137.894531 Z M 99.273438 -105.15625 L 74.285156 -105.15625 C 74.207031 -105.15625 74.140625 -105.15625 74.089844 -105.152344 L 74.109375 -105.15625 C 74.316406 -105.179688 74.566406 -105.230469 74.855469 -105.308594 C 76.390625 -105.71875 77.835938 -106.535156 79.1875 -107.761719 C 80.238281 -108.710938 81.007812 -109.71875 81.5 -110.78125 C 81.578125 -110.945312 81.632812 -111.078125 81.664062 -111.175781 C 81.640625 -111.105469 81.613281 -110.988281 81.578125 -110.828125 L 65.554688 -114.164062 L 81.667969 -111.296875 L 68.992188 -40.035156 C 67.765625 -33.289062 65.328125 -27.839844 61.675781 -23.683594 C 59.253906 -20.929688 56.40625 -18.832031 53.125 -17.390625 C 49.957031 -15.996094 46.570312 -15.296875 42.960938 -15.296875 C 36.277344 -15.296875 30.566406 -17.382812 25.820312 -21.554688 C 21.632812 -25.238281 18.742188 -30.195312 17.15625 -36.425781 L 17.152344 -36.449219 C 17.199219 -36.304688 17.269531 -36.136719 17.351562 -35.949219 C 17.785156 -35.003906 18.414062 -34.085938 19.242188 -33.195312 C 20.539062 -31.796875 22.078125 -30.742188 23.851562 -30.03125 C 25.304688 -29.453125 26.769531 -29.160156 28.242188 -29.160156 C 28.867188 -29.160156 29.382812 -29.207031 29.78125 -29.292969 C 29.652344 -29.265625 29.351562 -29.167969 28.871094 -29 L 7.570312 -21.785156 C 7.414062 -21.734375 7.289062 -21.6875 7.199219 -21.648438 C 7.234375 -21.664062 7.292969 -21.695312 7.382812 -21.746094 C 8.074219 -22.136719 8.753906 -22.707031 9.425781 -23.453125 C 10.390625 -24.527344 11.105469 -25.734375 11.574219 -27.082031 C 11.917969 -28.074219 12.089844 -29.03125 12.089844 -29.953125 L 12.082031 -29.96875 C 12.0625 -30.253906 12.015625 -30.578125 11.941406 -30.9375 C 13.070312 -25.285156 15.445312 -21.085938 19.0625 -18.335938 C 23.039062 -15.3125 29.179688 -13.800781 37.484375 -13.800781 C 49.695312 -13.800781 58.796875 -16.148438 64.789062 -20.84375 C 70.480469 -25.300781 74.261719 -32.707031 76.136719 -43.058594 L 89.121094 -116.855469 C 89.199219 -117.320312 89.25 -117.671875 89.28125 -117.90625 C 89.253906 -117.6875 89.238281 -117.355469 89.238281 -116.902344 C 89.238281 -115.636719 89.515625 -114.316406 90.070312 -112.945312 C 91.03125 -110.574219 92.578125 -108.632812 94.714844 -107.125 C 96.070312 -106.167969 97.441406 -105.546875 98.832031 -105.253906 C 99.070312 -105.203125 99.269531 -105.171875 99.433594 -105.15625 L 99.4375 -105.15625 C 99.394531 -105.15625 99.339844 -105.15625 99.273438 -105.15625 Z M 99.273438 -105.15625 "/></g></g></g><g fill="#000000" fill-opacity="1"><g transform="translate(818.446094, 161.06633)"><g><path d="M 101.15625 -137.894531 C 106.96875 -137.894531 111.816406 -136.488281 115.703125 -133.679688 C 118.785156 -131.457031 121.039062 -128.554688 122.472656 -124.972656 C 123.511719 -122.378906 124.027344 -119.574219 124.027344 -116.5625 C 124.027344 -114.632812 123.898438 -112.878906 123.636719 -111.304688 L 120.179688 -91.945312 C 119.105469 -85.222656 116.324219 -80.007812 111.835938 -76.300781 C 107.5 -72.71875 101.941406 -70.925781 95.167969 -70.925781 L 52.71875 -70.925781 L 52.71875 -87.292969 L 68.847656 -84.5 L 67.304688 -75.601562 L 51.175781 -78.390625 L 51.175781 -94.761719 L 84.039062 -94.761719 C 89.898438 -94.761719 94.730469 -93.417969 98.527344 -90.738281 C 101.710938 -88.492188 104.015625 -85.515625 105.449219 -81.808594 C 106.425781 -79.285156 106.914062 -76.546875 106.914062 -73.601562 L 106.914062 -72.582031 L 106.390625 -68.40625 L 102.890625 -48.8125 C 101.839844 -42.222656 99.179688 -37.085938 94.910156 -33.398438 C 90.582031 -29.660156 84.960938 -27.792969 78.050781 -27.792969 L 45.1875 -27.792969 L 45.1875 -44.160156 L 61.308594 -41.332031 L 59.597656 -31.574219 L 43.476562 -34.402344 L 43.476562 -50.769531 L 87.121094 -50.769531 C 92.980469 -50.769531 97.808594 -49.429688 101.609375 -46.75 C 104.792969 -44.503906 107.097656 -41.527344 108.53125 -37.820312 C 109.503906 -35.296875 109.992188 -32.558594 109.992188 -29.609375 L 109.992188 -28.59375 L 109.472656 -24.429688 L 105.976562 -4.679688 C 104.898438 2.0625 102.117188 7.285156 97.632812 10.992188 C 93.292969 14.574219 87.738281 16.367188 80.960938 16.367188 L 5.136719 16.367188 C -0.726562 16.367188 -5.554688 15.027344 -9.351562 12.34375 C -12.535156 10.097656 -14.839844 7.125 -16.273438 3.417969 C -17.25 0.890625 -17.738281 -1.84375 -17.738281 -4.792969 L -17.738281 -5.8125 L -17.214844 -9.972656 L 1.683594 -116.84375 C 2.738281 -123.453125 5.402344 -128.601562 9.671875 -132.285156 C 13.996094 -136.023438 19.617188 -137.894531 26.53125 -137.894531 Z M 101.15625 -105.15625 L 26.53125 -105.15625 C 26.453125 -105.15625 26.386719 -105.15625 26.332031 -105.152344 L 26.335938 -105.15625 C 26.527344 -105.175781 26.757812 -105.222656 27.027344 -105.292969 C 28.4375 -105.664062 29.785156 -106.40625 31.066406 -107.511719 C 32.320312 -108.597656 33.230469 -109.785156 33.796875 -111.082031 C 33.894531 -111.316406 33.96875 -111.511719 34.011719 -111.667969 C 34 -111.632812 33.96875 -111.457031 33.917969 -111.144531 L 15.089844 -4.679688 L -1.027344 -7.53125 L 15.214844 -5.5 L 14.871094 -2.761719 L -1.371094 -4.792969 L 15 -4.792969 C 15 -5.914062 14.753906 -7.109375 14.261719 -8.378906 C 13.316406 -10.832031 11.734375 -12.835938 9.523438 -14.398438 C 8.136719 -15.378906 6.742188 -16.011719 5.335938 -16.296875 C 5.132812 -16.335938 4.964844 -16.363281 4.839844 -16.375 C 4.894531 -16.371094 4.992188 -16.367188 5.136719 -16.367188 L 80.960938 -16.367188 C 81.074219 -16.367188 81.144531 -16.367188 81.167969 -16.371094 C 80.996094 -16.351562 80.785156 -16.3125 80.539062 -16.246094 C 79.242188 -15.910156 77.988281 -15.242188 76.78125 -14.246094 C 75.476562 -13.167969 74.523438 -11.960938 73.925781 -10.621094 C 73.808594 -10.363281 73.722656 -10.136719 73.667969 -9.941406 L 73.664062 -9.929688 C 73.675781 -9.980469 73.703125 -10.132812 73.742188 -10.382812 L 77.167969 -29.726562 L 93.285156 -26.871094 L 77.042969 -28.902344 L 77.382812 -31.640625 L 93.625 -29.609375 L 77.257812 -29.609375 C 77.257812 -28.488281 77.503906 -27.292969 77.996094 -26.023438 C 78.941406 -23.570312 80.519531 -21.566406 82.730469 -20.003906 C 84.121094 -19.027344 85.515625 -18.394531 86.917969 -18.109375 C 87.125 -18.066406 87.289062 -18.039062 87.417969 -18.027344 C 87.363281 -18.035156 87.261719 -18.035156 87.121094 -18.035156 L 23.984375 -18.035156 L 31.441406 -60.527344 L 78.050781 -60.527344 C 78.128906 -60.527344 78.195312 -60.527344 78.246094 -60.53125 L 78.242188 -60.53125 C 78.050781 -60.507812 77.824219 -60.464844 77.554688 -60.390625 C 76.140625 -60.019531 74.796875 -59.28125 73.515625 -58.171875 C 72.257812 -57.089844 71.347656 -55.898438 70.785156 -54.601562 C 70.683594 -54.371094 70.613281 -54.175781 70.570312 -54.015625 C 70.578125 -54.054688 70.613281 -54.238281 70.667969 -54.566406 L 74.089844 -73.738281 L 90.203125 -70.859375 L 73.960938 -72.890625 L 74.304688 -75.628906 L 90.542969 -73.601562 L 74.175781 -73.601562 C 74.175781 -72.476562 74.421875 -71.28125 74.914062 -70.011719 C 75.859375 -67.5625 77.441406 -65.554688 79.652344 -63.992188 C 81.039062 -63.015625 82.433594 -62.382812 83.839844 -62.097656 C 84.042969 -62.054688 84.210938 -62.027344 84.335938 -62.019531 C 84.28125 -62.023438 84.183594 -62.023438 84.039062 -62.023438 L 31.734375 -62.023438 L 38.941406 -103.660156 L 95.167969 -103.660156 C 95.28125 -103.660156 95.351562 -103.660156 95.375 -103.664062 C 95.203125 -103.644531 94.992188 -103.605469 94.746094 -103.539062 C 93.449219 -103.203125 92.195312 -102.535156 90.988281 -101.539062 C 89.683594 -100.460938 88.730469 -99.253906 88.132812 -97.914062 C 88.015625 -97.65625 87.929688 -97.429688 87.875 -97.234375 L 87.871094 -97.222656 C 87.882812 -97.273438 87.910156 -97.433594 87.953125 -97.703125 L 91.34375 -116.683594 C 91.3125 -116.496094 91.292969 -116.347656 91.285156 -116.238281 C 91.292969 -116.304688 91.292969 -116.410156 91.292969 -116.5625 C 91.292969 -115.371094 91.554688 -114.125 92.078125 -112.816406 C 93 -110.515625 94.484375 -108.625 96.539062 -107.144531 C 97.839844 -106.203125 99.171875 -105.582031 100.53125 -105.277344 C 100.789062 -105.21875 101.019531 -105.179688 101.214844 -105.160156 C 101.242188 -105.15625 101.261719 -105.15625 101.269531 -105.15625 C 101.242188 -105.15625 101.203125 -105.15625 101.15625 -105.15625 Z M 101.15625 -105.15625 "/></g></g></g><g fill="#000000" fill-opacity="1"><g transform="translate(919.774035, 161.06633)"><g><path d="M 76.679688 -137.894531 C 92.558594 -137.894531 105.441406 -133.53125 115.324219 -124.8125 C 120.652344 -120.109375 124.648438 -114.457031 127.3125 -107.859375 C 129.800781 -101.6875 131.046875 -94.832031 131.046875 -87.292969 C 131.046875 -82.601562 130.664062 -78.261719 129.894531 -74.273438 C 128.140625 -64.476562 124.671875 -55.765625 119.484375 -48.136719 C 114.230469 -40.40625 107.351562 -34.039062 98.855469 -29.03125 L 90.542969 -43.132812 L 104.355469 -51.921875 C 106.640625 -48.324219 108.566406 -44.265625 110.125 -39.738281 L 118.953125 -14.46875 L 119.058594 -14.117188 C 119.863281 -11.441406 120.261719 -8.847656 120.261719 -6.332031 C 120.261719 -3.226562 119.703125 -0.296875 118.582031 2.453125 C 117.335938 5.515625 115.480469 8.164062 113.023438 10.398438 C 108.644531 14.378906 103.148438 16.367188 96.535156 16.367188 L 73.429688 16.367188 C 65.660156 16.367188 59.230469 14.730469 54.136719 11.457031 C 48.1875 7.632812 44.210938 1.964844 42.210938 -5.539062 L 36.457031 -25.832031 L 52.203125 -30.296875 L 36.609375 -25.332031 C 36.414062 -25.941406 36.246094 -26.398438 36.101562 -26.710938 C 36.175781 -26.550781 36.347656 -26.292969 36.617188 -25.9375 C 38.066406 -24.039062 39.863281 -22.683594 42.007812 -21.882812 C 43.0625 -21.484375 44.007812 -21.289062 44.84375 -21.289062 L 43.988281 -21.289062 L 43.988281 -37.65625 L 60.109375 -34.816406 L 54.800781 -4.691406 C 53.722656 2.058594 50.941406 7.285156 46.453125 10.992188 C 42.117188 14.574219 36.558594 16.367188 29.78125 16.367188 L 5.136719 16.367188 C -0.726562 16.367188 -5.554688 15.027344 -9.351562 12.34375 C -12.535156 10.097656 -14.839844 7.125 -16.273438 3.417969 C -17.25 0.890625 -17.738281 -1.84375 -17.738281 -4.792969 L -17.738281 -5.8125 L -17.214844 -9.972656 L 1.683594 -116.84375 C 2.738281 -123.453125 5.402344 -128.601562 9.671875 -132.285156 C 13.996094 -136.023438 19.617188 -137.894531 26.53125 -137.894531 Z M 76.679688 -105.15625 L 26.53125 -105.15625 C 26.453125 -105.15625 26.386719 -105.15625 26.332031 -105.152344 L 26.335938 -105.15625 C 26.527344 -105.175781 26.757812 -105.222656 27.027344 -105.292969 C 28.4375 -105.664062 29.785156 -106.40625 31.066406 -107.511719 C 32.320312 -108.597656 33.230469 -109.785156 33.796875 -111.082031 C 33.894531 -111.316406 33.96875 -111.511719 34.011719 -111.667969 C 34 -111.632812 33.96875 -111.457031 33.917969 -111.144531 L 15.089844 -4.679688 L -1.027344 -7.53125 L 15.214844 -5.5 L 14.871094 -2.761719 L -1.371094 -4.792969 L 15 -4.792969 C 15 -5.914062 14.753906 -7.109375 14.261719 -8.378906 C 13.316406 -10.832031 11.734375 -12.835938 9.523438 -14.398438 C 8.136719 -15.378906 6.742188 -16.011719 5.335938 -16.296875 C 5.132812 -16.335938 4.964844 -16.363281 4.839844 -16.375 C 4.894531 -16.371094 4.992188 -16.367188 5.136719 -16.367188 L 29.78125 -16.367188 C 29.898438 -16.367188 29.96875 -16.367188 29.992188 -16.371094 C 29.820312 -16.351562 29.609375 -16.3125 29.359375 -16.246094 C 28.0625 -15.910156 26.8125 -15.242188 25.605469 -14.246094 C 24.300781 -13.167969 23.347656 -11.960938 22.746094 -10.621094 C 22.628906 -10.363281 22.542969 -10.136719 22.492188 -9.941406 L 22.488281 -9.929688 C 22.496094 -9.980469 22.523438 -10.125 22.5625 -10.371094 L 30.253906 -54.023438 L 44.84375 -54.023438 C 47.964844 -54.023438 50.851562 -53.527344 53.5 -52.53125 C 57.242188 -51.128906 60.292969 -48.878906 62.65625 -45.777344 C 64.714844 -43.078125 66.429688 -39.570312 67.800781 -35.257812 L 67.882812 -35.007812 L 73.839844 -13.972656 C 73.851562 -13.921875 73.867188 -13.878906 73.875 -13.847656 C 73.875 -13.855469 73.867188 -13.867188 73.859375 -13.890625 C 73.789062 -14.046875 73.695312 -14.21875 73.566406 -14.40625 C 73.132812 -15.058594 72.554688 -15.617188 71.839844 -16.078125 C 71.53125 -16.277344 71.246094 -16.425781 70.976562 -16.53125 C 70.921875 -16.554688 70.878906 -16.570312 70.84375 -16.578125 C 70.859375 -16.574219 70.890625 -16.566406 70.933594 -16.558594 C 71.507812 -16.429688 72.339844 -16.367188 73.429688 -16.367188 L 96.535156 -16.367188 C 96.070312 -16.367188 95.496094 -16.261719 94.820312 -16.050781 C 93.429688 -15.617188 92.160156 -14.875 91.003906 -13.824219 C 89.800781 -12.726562 88.886719 -11.421875 88.265625 -9.898438 C 87.773438 -8.6875 87.527344 -7.5 87.527344 -6.332031 C 87.527344 -5.644531 87.585938 -5.105469 87.703125 -4.710938 L 103.382812 -9.414062 L 87.929688 -4.015625 L 79.179688 -29.066406 C 78.457031 -31.160156 77.644531 -32.921875 76.734375 -34.34375 L 67.644531 -48.636719 L 82.234375 -57.234375 C 86.515625 -59.757812 89.910156 -62.859375 92.414062 -66.542969 C 94.988281 -70.324219 96.765625 -74.964844 97.75 -80.457031 C 98.125 -82.402344 98.3125 -84.679688 98.3125 -87.292969 C 98.3125 -90.59375 97.859375 -93.367188 96.953125 -95.613281 C 96.222656 -97.425781 95.125 -98.976562 93.664062 -100.265625 C 89.96875 -103.527344 84.308594 -105.15625 76.679688 -105.15625 Z M 62.816406 -86.203125 C 62.132812 -86.203125 61.386719 -86.03125 60.582031 -85.6875 C 59.578125 -85.261719 58.730469 -84.664062 58.046875 -83.894531 C 57.5625 -83.355469 57.199219 -82.738281 56.953125 -82.046875 C 56.796875 -81.601562 56.71875 -81.242188 56.71875 -80.960938 C 56.71875 -79.972656 56.929688 -78.933594 57.347656 -77.839844 C 57.980469 -76.179688 58.96875 -74.742188 60.308594 -73.53125 C 61.527344 -72.425781 62.863281 -71.652344 64.316406 -71.214844 C 64.960938 -71.023438 65.484375 -70.925781 65.898438 -70.925781 L 52.71875 -70.925781 L 52.71875 -87.292969 L 68.835938 -84.449219 L 65.753906 -66.988281 L 49.636719 -69.835938 L 49.636719 -86.203125 Z M 62.816406 -53.464844 L 30.128906 -53.464844 L 38.984375 -103.660156 L 65.898438 -103.660156 C 72.496094 -103.660156 77.953125 -101.707031 82.269531 -97.804688 C 84.808594 -95.507812 86.695312 -92.742188 87.929688 -89.515625 C 88.945312 -86.851562 89.453125 -84 89.453125 -80.960938 C 89.453125 -73.605469 87.128906 -67.320312 82.476562 -62.105469 C 79.910156 -59.226562 76.882812 -57.046875 73.394531 -55.5625 C 70.105469 -54.164062 66.582031 -53.464844 62.816406 -53.464844 Z M 62.816406 -53.464844 "/></g></g></g><g fill="#000000" fill-opacity="1"><g transform="translate(1033.767983, 161.06633)"><g><path d="M -6.019531 -91.164062 C -4.601562 -99.195312 -1.824219 -106.367188 2.316406 -112.679688 C 6.511719 -119.074219 11.996094 -124.429688 18.765625 -128.742188 C 31.03125 -136.554688 47.027344 -140.460938 66.753906 -140.460938 C 82.339844 -140.460938 94.988281 -137.785156 104.691406 -132.4375 C 110.210938 -129.394531 114.882812 -125.488281 118.703125 -120.71875 C 122.449219 -116.042969 125.28125 -110.648438 127.207031 -104.535156 L 111.597656 -99.617188 L 126.980469 -105.210938 C 128.09375 -102.148438 128.648438 -99.144531 128.648438 -96.191406 C 128.648438 -93.308594 128.085938 -90.5625 126.964844 -87.964844 C 125.835938 -85.355469 124.21875 -83.0625 122.109375 -81.085938 C 119.769531 -78.894531 116.613281 -76.960938 112.644531 -75.289062 L 112.453125 -75.207031 L 91.722656 -67.089844 C 87.894531 -65.652344 84.480469 -64.933594 81.472656 -64.933594 C 78.769531 -64.933594 76.203125 -65.429688 73.773438 -66.417969 C 71.058594 -67.519531 68.703125 -69.152344 66.707031 -71.3125 C 64.429688 -73.777344 62.636719 -76.980469 61.324219 -80.917969 C 61.6875 -79.871094 62.269531 -78.929688 63.066406 -78.089844 C 64.027344 -77.078125 65.132812 -76.347656 66.382812 -75.902344 C 65.765625 -76.121094 64.75 -76.230469 63.328125 -76.230469 C 61.992188 -76.230469 60.925781 -76.164062 60.136719 -76.03125 C 59.980469 -76.003906 59.882812 -75.988281 59.847656 -75.976562 C 60.054688 -76.039062 60.296875 -76.140625 60.582031 -76.285156 C 62.042969 -77.023438 63.292969 -78.179688 64.324219 -79.746094 C 65.558594 -81.621094 66.175781 -83.625 66.175781 -85.753906 C 66.175781 -88.816406 65.140625 -91.515625 63.070312 -93.84375 C 61.816406 -95.253906 60.488281 -96.191406 59.09375 -96.660156 C 60.972656 -96.03125 64.722656 -95.273438 70.332031 -94.386719 C 83.835938 -92.300781 95.464844 -87.894531 105.222656 -81.171875 C 111.527344 -76.828125 116.269531 -71.230469 119.449219 -64.378906 C 122.386719 -58.042969 123.859375 -50.847656 123.859375 -42.789062 C 123.859375 -38.242188 123.457031 -34.050781 122.65625 -30.210938 L 106.632812 -33.546875 L 122.75 -30.695312 C 121.214844 -22.023438 118.300781 -14.433594 114 -7.925781 C 109.496094 -1.101562 103.613281 4.351562 96.351562 8.441406 C 83.929688 15.4375 67.503906 18.933594 47.070312 18.933594 C 31.621094 18.933594 18.371094 16.332031 7.316406 11.128906 C 0.71875 8.019531 -4.660156 3.976562 -8.816406 -0.992188 C -13.238281 -6.285156 -16.113281 -12.402344 -17.445312 -19.339844 C -17.753906 -20.882812 -17.90625 -22.710938 -17.90625 -24.820312 C -17.90625 -27.601562 -17.46875 -30.238281 -16.589844 -32.726562 C -15.5625 -35.640625 -13.992188 -38.214844 -11.882812 -40.441406 C -9.144531 -43.332031 -5.414062 -45.675781 -0.691406 -47.472656 L 19.882812 -55.144531 L 20.15625 -55.238281 C 24.230469 -56.597656 27.667969 -57.273438 30.46875 -57.273438 C 35.679688 -57.273438 40.25 -55.570312 44.183594 -52.164062 C 46.933594 -49.78125 49.144531 -46.636719 50.816406 -42.734375 L 50.894531 -42.550781 L 50.96875 -42.363281 C 50.519531 -43.484375 49.835938 -44.480469 48.910156 -45.34375 C 48.140625 -46.0625 47.335938 -46.574219 46.5 -46.875 C 46.644531 -46.824219 46.984375 -46.761719 47.519531 -46.691406 C 48.515625 -46.558594 49.734375 -46.492188 51.175781 -46.492188 C 52.9375 -46.492188 54.414062 -46.5625 55.605469 -46.703125 C 56.277344 -46.78125 56.695312 -46.847656 56.851562 -46.898438 C 55.550781 -46.457031 54.347656 -45.648438 53.234375 -44.472656 C 51.820312 -42.976562 50.917969 -41.261719 50.53125 -39.324219 L 66.582031 -36.117188 L 50.394531 -38.542969 C 50.207031 -37.289062 50.238281 -36 50.488281 -34.679688 C 50.796875 -33.03125 51.414062 -31.503906 52.335938 -30.097656 C 53.652344 -28.089844 55.25 -26.699219 57.132812 -25.929688 C 55.804688 -26.472656 52.859375 -27.105469 48.296875 -27.820312 C 39.457031 -29.25 31.664062 -31.199219 24.921875 -33.667969 C 16.527344 -36.746094 9.296875 -41.765625 3.230469 -48.730469 C -3.671875 -56.660156 -7.125 -66.832031 -7.125 -79.25 C -7.125 -82.492188 -6.773438 -86.359375 -6.074219 -90.847656 Z M 26.269531 -85.792969 C 25.832031 -82.980469 25.609375 -80.796875 25.609375 -79.25 C 25.609375 -75.003906 26.378906 -71.996094 27.921875 -70.226562 C 30.300781 -67.492188 33.054688 -65.550781 36.183594 -64.40625 C 40.964844 -62.65625 46.695312 -61.238281 53.371094 -60.160156 C 60.453125 -59.046875 65.835938 -57.738281 69.527344 -56.226562 C 73.921875 -54.429688 77.316406 -51.699219 79.714844 -48.039062 C 82.539062 -43.726562 83.558594 -38.945312 82.769531 -33.6875 L 82.710938 -33.292969 L 82.632812 -32.90625 C 81.789062 -28.6875 79.917969 -25.046875 77.019531 -21.980469 C 74.425781 -19.238281 71.222656 -17.214844 67.414062 -15.917969 C 63.191406 -14.476562 57.777344 -13.757812 51.175781 -13.757812 C 44.917969 -13.757812 39.632812 -14.542969 35.3125 -16.113281 C 31.96875 -17.328125 29.054688 -19.09375 26.574219 -21.410156 C 23.9375 -23.871094 21.9375 -26.804688 20.574219 -30.207031 L 35.773438 -36.285156 L 20.730469 -29.839844 C 20.769531 -29.746094 20.863281 -29.585938 21.011719 -29.359375 C 21.457031 -28.6875 22.03125 -28.042969 22.742188 -27.425781 C 24.960938 -25.503906 27.539062 -24.539062 30.46875 -24.539062 C 31.210938 -24.539062 31.765625 -24.582031 32.132812 -24.667969 C 31.769531 -24.582031 31.226562 -24.421875 30.507812 -24.183594 L 25.332031 -39.710938 L 31.050781 -24.375 L 10.960938 -16.882812 C 10.601562 -16.746094 10.382812 -16.652344 10.300781 -16.605469 C 10.792969 -16.894531 11.320312 -17.335938 11.882812 -17.925781 C 12.964844 -19.070312 13.761719 -20.371094 14.277344 -21.832031 C 14.644531 -22.867188 14.828125 -23.863281 14.828125 -24.820312 C 14.828125 -24.730469 14.828125 -24.660156 14.828125 -24.601562 L 14.828125 -24.617188 C 14.808594 -24.902344 14.765625 -25.199219 14.707031 -25.503906 C 14.972656 -24.113281 15.503906 -22.941406 16.304688 -21.984375 C 17.371094 -20.710938 19.023438 -19.542969 21.265625 -18.488281 C 27.902344 -15.363281 36.503906 -13.800781 47.070312 -13.800781 C 61.78125 -13.800781 72.851562 -15.894531 80.289062 -20.082031 C 82.953125 -21.582031 85.085938 -23.542969 86.6875 -25.964844 C 88.492188 -28.699219 89.769531 -32.179688 90.515625 -36.402344 L 90.558594 -36.644531 L 90.609375 -36.886719 C 90.953125 -38.523438 91.121094 -40.492188 91.121094 -42.789062 C 91.121094 -46.03125 90.667969 -48.632812 89.753906 -50.601562 C 89.082031 -52.046875 88.046875 -53.253906 86.652344 -54.214844 C 81.003906 -58.105469 73.863281 -60.71875 65.226562 -62.054688 C 57.832031 -63.222656 52.335938 -64.40625 48.742188 -65.601562 C 44.605469 -66.980469 41.222656 -69.148438 38.601562 -72.097656 C 35.160156 -75.96875 33.441406 -80.519531 33.441406 -85.753906 C 33.441406 -90.164062 34.621094 -94.160156 36.980469 -97.746094 C 39.140625 -101.027344 42.078125 -103.609375 45.796875 -105.488281 C 50.371094 -107.808594 56.21875 -108.964844 63.328125 -108.964844 C 68.527344 -108.964844 73.21875 -108.21875 77.394531 -106.730469 C 81.039062 -105.425781 84.171875 -103.398438 86.789062 -100.644531 C 89.238281 -98.066406 91.101562 -94.941406 92.378906 -91.269531 C 92.410156 -91.179688 92.429688 -91.117188 92.445312 -91.082031 C 92.417969 -91.148438 92.378906 -91.234375 92.320312 -91.347656 C 91.953125 -92.066406 91.433594 -92.789062 90.761719 -93.515625 C 89.449219 -94.9375 87.894531 -96.011719 86.09375 -96.746094 C 84.574219 -97.359375 83.035156 -97.667969 81.472656 -97.667969 C 80.695312 -97.667969 80.035156 -97.605469 79.492188 -97.472656 C 79.550781 -97.488281 79.648438 -97.519531 79.785156 -97.570312 L 100.324219 -105.613281 L 106.292969 -90.375 L 99.941406 -105.457031 C 100.40625 -105.65625 100.734375 -105.808594 100.925781 -105.917969 C 100.59375 -105.726562 100.191406 -105.410156 99.71875 -104.96875 C 98.523438 -103.84375 97.589844 -102.507812 96.917969 -100.957031 C 96.25 -99.410156 95.914062 -97.824219 95.914062 -96.191406 C 95.914062 -95.296875 96.015625 -94.574219 96.214844 -94.023438 L 96.09375 -94.359375 L 95.988281 -94.699219 C 95.289062 -96.914062 94.34375 -98.765625 93.152344 -100.253906 C 92.039062 -101.644531 90.617188 -102.816406 88.890625 -103.769531 C 84.105469 -106.40625 76.726562 -107.726562 66.753906 -107.726562 C 53.386719 -107.726562 43.253906 -105.527344 36.351562 -101.128906 C 33.535156 -99.335938 31.3125 -97.203125 29.691406 -94.726562 C 28.011719 -92.167969 26.855469 -89.082031 26.21875 -85.476562 Z M 26.269531 -85.792969 "/></g></g></g><g fill="#000000" fill-opacity="1"><g transform="translate(1144.852143, 161.06633)"><g><path d="M 101.15625 -137.894531 C 106.96875 -137.894531 111.816406 -136.488281 115.703125 -133.679688 C 118.785156 -131.457031 121.039062 -128.554688 122.472656 -124.972656 C 123.511719 -122.378906 124.027344 -119.574219 124.027344 -116.5625 C 124.027344 -114.632812 123.898438 -112.878906 123.636719 -111.304688 L 120.179688 -91.945312 C 119.105469 -85.222656 116.324219 -80.007812 111.835938 -76.300781 C 107.5 -72.71875 101.941406 -70.925781 95.167969 -70.925781 L 52.71875 -70.925781 L 52.71875 -87.292969 L 68.847656 -84.5 L 67.304688 -75.601562 L 51.175781 -78.390625 L 51.175781 -94.761719 L 84.039062 -94.761719 C 89.898438 -94.761719 94.730469 -93.417969 98.527344 -90.738281 C 101.710938 -88.492188 104.015625 -85.515625 105.449219 -81.808594 C 106.425781 -79.285156 106.914062 -76.546875 106.914062 -73.601562 L 106.914062 -72.582031 L 106.390625 -68.40625 L 102.890625 -48.8125 C 101.839844 -42.222656 99.179688 -37.085938 94.910156 -33.398438 C 90.582031 -29.660156 84.960938 -27.792969 78.050781 -27.792969 L 45.1875 -27.792969 L 45.1875 -44.160156 L 61.308594 -41.332031 L 59.597656 -31.574219 L 43.476562 -34.402344 L 43.476562 -50.769531 L 87.121094 -50.769531 C 92.980469 -50.769531 97.808594 -49.429688 101.609375 -46.75 C 104.792969 -44.503906 107.097656 -41.527344 108.53125 -37.820312 C 109.503906 -35.296875 109.992188 -32.558594 109.992188 -29.609375 L 109.992188 -28.59375 L 109.472656 -24.429688 L 105.976562 -4.679688 C 104.898438 2.0625 102.117188 7.285156 97.632812 10.992188 C 93.292969 14.574219 87.738281 16.367188 80.960938 16.367188 L 5.136719 16.367188 C -0.726562 16.367188 -5.554688 15.027344 -9.351562 12.34375 C -12.535156 10.097656 -14.839844 7.125 -16.273438 3.417969 C -17.25 0.890625 -17.738281 -1.84375 -17.738281 -4.792969 L -17.738281 -5.8125 L -17.214844 -9.972656 L 1.683594 -116.84375 C 2.738281 -123.453125 5.402344 -128.601562 9.671875 -132.285156 C 13.996094 -136.023438 19.617188 -137.894531 26.53125 -137.894531 Z M 101.15625 -105.15625 L 26.53125 -105.15625 C 26.453125 -105.15625 26.386719 -105.15625 26.332031 -105.152344 L 26.335938 -105.15625 C 26.527344 -105.175781 26.757812 -105.222656 27.027344 -105.292969 C 28.4375 -105.664062 29.785156 -106.40625 31.066406 -107.511719 C 32.320312 -108.597656 33.230469 -109.785156 33.796875 -111.082031 C 33.894531 -111.316406 33.96875 -111.511719 34.011719 -111.667969 C 34 -111.632812 33.96875 -111.457031 33.917969 -111.144531 L 15.089844 -4.679688 L -1.027344 -7.53125 L 15.214844 -5.5 L 14.871094 -2.761719 L -1.371094 -4.792969 L 15 -4.792969 C 15 -5.914062 14.753906 -7.109375 14.261719 -8.378906 C 13.316406 -10.832031 11.734375 -12.835938 9.523438 -14.398438 C 8.136719 -15.378906 6.742188 -16.011719 5.335938 -16.296875 C 5.132812 -16.335938 4.964844 -16.363281 4.839844 -16.375 C 4.894531 -16.371094 4.992188 -16.367188 5.136719 -16.367188 L 80.960938 -16.367188 C 81.074219 -16.367188 81.144531 -16.367188 81.167969 -16.371094 C 80.996094 -16.351562 80.785156 -16.3125 80.539062 -16.246094 C 79.242188 -15.910156 77.988281 -15.242188 76.78125 -14.246094 C 75.476562 -13.167969 74.523438 -11.960938 73.925781 -10.621094 C 73.808594 -10.363281 73.722656 -10.136719 73.667969 -9.941406 L 73.664062 -9.929688 C 73.675781 -9.980469 73.703125 -10.132812 73.742188 -10.382812 L 77.167969 -29.726562 L 93.285156 -26.871094 L 77.042969 -28.902344 L 77.382812 -31.640625 L 93.625 -29.609375 L 77.257812 -29.609375 C 77.257812 -28.488281 77.503906 -27.292969 77.996094 -26.023438 C 78.941406 -23.570312 80.519531 -21.566406 82.730469 -20.003906 C 84.121094 -19.027344 85.515625 -18.394531 86.917969 -18.109375 C 87.125 -18.066406 87.289062 -18.039062 87.417969 -18.027344 C 87.363281 -18.035156 87.261719 -18.035156 87.121094 -18.035156 L 23.984375 -18.035156 L 31.441406 -60.527344 L 78.050781 -60.527344 C 78.128906 -60.527344 78.195312 -60.527344 78.246094 -60.53125 L 78.242188 -60.53125 C 78.050781 -60.507812 77.824219 -60.464844 77.554688 -60.390625 C 76.140625 -60.019531 74.796875 -59.28125 73.515625 -58.171875 C 72.257812 -57.089844 71.347656 -55.898438 70.785156 -54.601562 C 70.683594 -54.371094 70.613281 -54.175781 70.570312 -54.015625 C 70.578125 -54.054688 70.613281 -54.238281 70.667969 -54.566406 L 74.089844 -73.738281 L 90.203125 -70.859375 L 73.960938 -72.890625 L 74.304688 -75.628906 L 90.542969 -73.601562 L 74.175781 -73.601562 C 74.175781 -72.476562 74.421875 -71.28125 74.914062 -70.011719 C 75.859375 -67.5625 77.441406 -65.554688 79.652344 -63.992188 C 81.039062 -63.015625 82.433594 -62.382812 83.839844 -62.097656 C 84.042969 -62.054688 84.210938 -62.027344 84.335938 -62.019531 C 84.28125 -62.023438 84.183594 -62.023438 84.039062 -62.023438 L 31.734375 -62.023438 L 38.941406 -103.660156 L 95.167969 -103.660156 C 95.28125 -103.660156 95.351562 -103.660156 95.375 -103.664062 C 95.203125 -103.644531 94.992188 -103.605469 94.746094 -103.539062 C 93.449219 -103.203125 92.195312 -102.535156 90.988281 -101.539062 C 89.683594 -100.460938 88.730469 -99.253906 88.132812 -97.914062 C 88.015625 -97.65625 87.929688 -97.429688 87.875 -97.234375 L 87.871094 -97.222656 C 87.882812 -97.273438 87.910156 -97.433594 87.953125 -97.703125 L 91.34375 -116.683594 C 91.3125 -116.496094 91.292969 -116.347656 91.285156 -116.238281 C 91.292969 -116.304688 91.292969 -116.410156 91.292969 -116.5625 C 91.292969 -115.371094 91.554688 -114.125 92.078125 -112.816406 C 93 -110.515625 94.484375 -108.625 96.539062 -107.144531 C 97.839844 -106.203125 99.171875 -105.582031 100.53125 -105.277344 C 100.789062 -105.21875 101.019531 -105.179688 101.214844 -105.160156 C 101.242188 -105.15625 101.261719 -105.15625 101.269531 -105.15625 C 101.242188 -105.15625 101.203125 -105.15625 101.15625 -105.15625 Z M 101.15625 -105.15625 "/></g></g></g><g fill="#000000" fill-opacity="1"><g transform="translate(1246.180069, 161.06633)"><g><path d="M 126.316406 -137.894531 C 131.007812 -137.894531 135.070312 -136.8125 138.503906 -134.648438 C 141.355469 -132.851562 143.558594 -130.484375 145.117188 -127.546875 C 146.578125 -124.789062 147.308594 -121.8125 147.308594 -118.617188 C 147.308594 -113.417969 145.425781 -108.46875 141.667969 -103.769531 L 128.886719 -113.992188 L 141.945312 -104.132812 L 91.28125 -37.035156 L 78.222656 -46.898438 L 94.347656 -44.09375 L 87.5 -4.726562 C 86.417969 2.046875 83.632812 7.285156 79.144531 10.992188 C 74.808594 14.574219 69.25 16.367188 62.472656 16.367188 L 37.828125 16.367188 C 31.96875 16.367188 27.136719 15.027344 23.339844 12.34375 C 20.15625 10.097656 17.851562 7.125 16.417969 3.417969 C 15.441406 0.890625 14.957031 -1.84375 14.957031 -4.792969 L 14.957031 -5.8125 L 15.472656 -9.960938 L 22.390625 -49.382812 L 38.511719 -46.554688 L 23.292969 -40.53125 L -3.40625 -107.96875 L 11.808594 -113.992188 L -3.148438 -107.347656 C -4.542969 -110.488281 -5.242188 -113.789062 -5.242188 -117.246094 C -5.242188 -120.253906 -4.664062 -123.074219 -3.503906 -125.710938 C -2.125 -128.835938 -0.0742188 -131.433594 2.652344 -133.5 C 6.519531 -136.429688 11.222656 -137.894531 16.773438 -137.894531 L 40.90625 -137.894531 C 47.867188 -137.894531 53.179688 -137.136719 56.835938 -135.621094 C 63.023438 -133.0625 67.4375 -127.980469 70.066406 -120.375 L 80.082031 -89.820312 L 64.527344 -84.726562 L 51.195312 -94.21875 L 72.761719 -124.511719 C 76.675781 -130.171875 81.144531 -133.941406 86.167969 -135.824219 C 89.84375 -137.203125 95.011719 -137.894531 101.671875 -137.894531 Z M 126.316406 -105.15625 L 101.671875 -105.15625 C 99.902344 -105.15625 98.492188 -105.101562 97.4375 -104.992188 C 97.136719 -104.960938 96.921875 -104.929688 96.796875 -104.90625 C 97.015625 -104.949219 97.300781 -105.039062 97.660156 -105.171875 C 98.800781 -105.601562 99.683594 -106.109375 100.308594 -106.695312 C 100.175781 -106.574219 99.882812 -106.183594 99.429688 -105.527344 L 59.066406 -48.828125 L 39.132812 -109.667969 C 39.109375 -109.738281 39.085938 -109.796875 39.070312 -109.84375 C 39.070312 -109.835938 39.082031 -109.816406 39.097656 -109.78125 C 39.222656 -109.527344 39.402344 -109.242188 39.632812 -108.925781 C 40.765625 -107.382812 42.328125 -106.199219 44.320312 -105.375 C 44.839844 -105.160156 45.292969 -105.011719 45.671875 -104.929688 C 45.605469 -104.945312 45.445312 -104.964844 45.191406 -104.992188 C 44.152344 -105.101562 42.726562 -105.15625 40.90625 -105.15625 L 16.773438 -105.15625 C 17.1875 -105.15625 17.699219 -105.234375 18.308594 -105.386719 C 19.753906 -105.753906 21.125 -106.425781 22.421875 -107.410156 C 24.207031 -108.761719 25.554688 -110.46875 26.460938 -112.527344 C 27.148438 -114.089844 27.492188 -115.664062 27.492188 -117.246094 C 27.492188 -118.421875 27.25 -119.550781 26.765625 -120.640625 L 26.902344 -120.332031 L 55.433594 -48.28125 L 47.785156 -4.703125 L 31.664062 -7.53125 L 47.90625 -5.5 L 47.5625 -2.761719 L 31.324219 -4.792969 L 47.691406 -4.792969 C 47.691406 -5.914062 47.445312 -7.109375 46.953125 -8.378906 C 46.007812 -10.832031 44.429688 -12.835938 42.214844 -14.398438 C 40.828125 -15.378906 39.433594 -16.011719 38.03125 -16.296875 C 37.824219 -16.335938 37.660156 -16.363281 37.53125 -16.375 C 37.585938 -16.371094 37.683594 -16.367188 37.828125 -16.367188 L 62.472656 -16.367188 C 62.589844 -16.367188 62.660156 -16.367188 62.683594 -16.371094 C 62.511719 -16.351562 62.300781 -16.3125 62.054688 -16.246094 C 60.757812 -15.910156 59.503906 -15.242188 58.296875 -14.246094 C 56.992188 -13.167969 56.039062 -11.960938 55.4375 -10.621094 C 55.320312 -10.363281 55.238281 -10.136719 55.183594 -9.941406 L 55.179688 -9.929688 C 55.1875 -9.980469 55.210938 -10.113281 55.25 -10.335938 L 62.773438 -53.601562 L 115.960938 -124.039062 L 116.105469 -124.21875 C 115.910156 -123.976562 115.699219 -123.597656 115.46875 -123.082031 C 114.871094 -121.734375 114.570312 -120.246094 114.570312 -118.617188 C 114.570312 -116.390625 115.109375 -114.261719 116.183594 -112.230469 C 117.355469 -110.019531 118.980469 -108.257812 121.0625 -106.945312 C 122.335938 -106.144531 123.640625 -105.605469 124.976562 -105.324219 C 125.507812 -105.214844 125.957031 -105.15625 126.316406 -105.15625 Z M 126.316406 -105.15625 "/></g></g></g><g fill="#ffffff" fill-opacity="1"><g transform="translate(718.145137, 161.06633)"><g><path d="M 99.265625 -121.515625 C 101.546875 -121.515625 103.171875 -121.171875 104.140625 -120.484375 C 105.117188 -119.804688 105.609375 -118.613281 105.609375 -116.90625 C 105.609375 -116.445312 105.492188 -115.53125 105.265625 -114.15625 L 92.25 -40.21875 C 89.625 -25.726562 83.832031 -14.972656 74.875 -7.953125 C 65.914062 -0.941406 53.453125 2.5625 37.484375 2.5625 C 25.503906 2.5625 16.0625 -0.0546875 9.15625 -5.296875 C 2.25 -10.546875 -2.171875 -18.023438 -4.109375 -27.734375 C -4.222656 -28.296875 -4.28125 -29.035156 -4.28125 -29.953125 C -4.28125 -31.773438 -3.765625 -33.253906 -2.734375 -34.390625 C -1.710938 -35.535156 -0.00390625 -36.507812 2.390625 -37.3125 L 23.625 -44.5 C 25.5625 -45.1875 27.097656 -45.53125 28.234375 -45.53125 C 29.492188 -45.53125 30.492188 -45.128906 31.234375 -44.328125 C 31.972656 -43.523438 32.570312 -42.210938 33.03125 -40.390625 C 34.519531 -34.566406 37.828125 -31.65625 42.953125 -31.65625 C 48.203125 -31.65625 51.515625 -35.421875 52.890625 -42.953125 L 65.546875 -114.15625 C 66.117188 -116.894531 67.003906 -118.804688 68.203125 -119.890625 C 69.398438 -120.972656 71.425781 -121.515625 74.28125 -121.515625 Z M 99.265625 -121.515625 "/></g></g></g><g fill="#ffffff" fill-opacity="1"><g transform="translate(818.446094, 161.06633)"><g><path d="M 101.15625 -121.515625 C 103.4375 -121.515625 105.085938 -121.144531 106.109375 -120.40625 C 107.140625 -119.664062 107.65625 -118.382812 107.65625 -116.5625 C 107.65625 -115.53125 107.597656 -114.671875 107.484375 -113.984375 L 104.0625 -94.828125 C 103.601562 -91.972656 102.71875 -90.003906 101.40625 -88.921875 C 100.09375 -87.835938 98.007812 -87.296875 95.15625 -87.296875 L 52.71875 -87.296875 L 51.171875 -78.390625 L 84.03125 -78.390625 C 86.425781 -78.390625 88.109375 -78.046875 89.078125 -77.359375 C 90.054688 -76.671875 90.546875 -75.414062 90.546875 -73.59375 L 90.203125 -70.859375 L 86.78125 -51.6875 C 86.320312 -48.832031 85.460938 -46.863281 84.203125 -45.78125 C 82.953125 -44.695312 80.898438 -44.15625 78.046875 -44.15625 L 45.1875 -44.15625 L 43.46875 -34.40625 L 87.125 -34.40625 C 89.519531 -34.40625 91.203125 -34.0625 92.171875 -33.375 C 93.140625 -32.6875 93.625 -31.429688 93.625 -29.609375 L 93.28125 -26.875 L 89.859375 -7.53125 C 89.398438 -4.675781 88.515625 -2.707031 87.203125 -1.625 C 85.890625 -0.539062 83.804688 0 80.953125 0 L 5.140625 0 C 2.742188 0 1.054688 -0.335938 0.078125 -1.015625 C -0.890625 -1.703125 -1.375 -2.960938 -1.375 -4.796875 L -1.03125 -7.53125 L 17.796875 -113.984375 C 18.253906 -116.835938 19.109375 -118.804688 20.359375 -119.890625 C 21.617188 -120.972656 23.675781 -121.515625 26.53125 -121.515625 Z M 101.15625 -121.515625 "/></g></g></g><g fill="#ffffff" fill-opacity="1"><g transform="translate(919.774035, 161.06633)"><g><path d="M 76.671875 -121.515625 C 88.429688 -121.515625 97.703125 -118.519531 104.484375 -112.53125 C 111.273438 -106.539062 114.671875 -98.128906 114.671875 -87.296875 C 114.671875 -83.640625 114.382812 -80.328125 113.8125 -77.359375 C 111.082031 -62.066406 103.328125 -50.65625 90.546875 -43.125 C 92.140625 -40.613281 93.507812 -37.707031 94.65625 -34.40625 L 103.375 -9.40625 C 103.71875 -8.269531 103.890625 -7.242188 103.890625 -6.328125 C 103.890625 -4.390625 103.257812 -2.847656 102 -1.703125 C 100.75 -0.566406 98.925781 0 96.53125 0 L 73.421875 0 C 68.859375 0 65.378906 -0.769531 62.984375 -2.3125 C 60.585938 -3.851562 58.929688 -6.332031 58.015625 -9.75 L 52.203125 -30.296875 C 51.398438 -32.804688 50.539062 -34.660156 49.625 -35.859375 C 48.71875 -37.054688 47.125 -37.65625 44.84375 -37.65625 L 43.984375 -37.65625 L 38.6875 -7.53125 C 38.226562 -4.675781 37.34375 -2.707031 36.03125 -1.625 C 34.71875 -0.539062 32.632812 0 29.78125 0 L 5.140625 0 C 2.742188 0 1.054688 -0.335938 0.078125 -1.015625 C -0.890625 -1.703125 -1.375 -2.960938 -1.375 -4.796875 L -1.03125 -7.53125 L 17.796875 -113.984375 C 18.253906 -116.835938 19.109375 -118.804688 20.359375 -119.890625 C 21.617188 -120.972656 23.675781 -121.515625 26.53125 -121.515625 Z M 62.8125 -69.828125 C 65.894531 -69.828125 68.375 -70.882812 70.25 -73 C 72.132812 -75.113281 73.078125 -77.765625 73.078125 -80.953125 C 73.078125 -83.003906 72.476562 -84.570312 71.28125 -85.65625 C 70.082031 -86.75 68.285156 -87.296875 65.890625 -87.296875 L 52.71875 -87.296875 L 49.640625 -69.828125 Z M 62.8125 -69.828125 "/></g></g></g><g fill="#ffffff" fill-opacity="1"><g transform="translate(1033.767983, 161.06633)"><g><path d="M 10.09375 -88.3125 C 12.144531 -99.957031 17.960938 -108.832031 27.546875 -114.9375 C 37.140625 -121.039062 50.207031 -124.09375 66.75 -124.09375 C 79.53125 -124.09375 89.539062 -122.09375 96.78125 -118.09375 C 104.03125 -114.101562 108.96875 -107.941406 111.59375 -99.609375 C 112.050781 -98.359375 112.28125 -97.21875 112.28125 -96.1875 C 112.28125 -94.9375 111.820312 -93.878906 110.90625 -93.015625 C 110 -92.160156 108.457031 -91.28125 106.28125 -90.375 L 85.75 -82.328125 C 83.925781 -81.640625 82.5 -81.296875 81.46875 -81.296875 C 80.332031 -81.296875 79.421875 -81.664062 78.734375 -82.40625 C 78.046875 -83.15625 77.414062 -84.382812 76.84375 -86.09375 C 75.9375 -88.71875 74.285156 -90.457031 71.890625 -91.3125 C 69.492188 -92.164062 66.640625 -92.59375 63.328125 -92.59375 C 54.316406 -92.59375 49.8125 -90.3125 49.8125 -85.75 C 49.8125 -83.582031 51.175781 -82.039062 53.90625 -81.125 C 56.644531 -80.21875 61.269531 -79.25 67.78125 -78.21875 C 78.84375 -76.507812 88.222656 -73 95.921875 -67.6875 C 103.628906 -62.382812 107.484375 -54.082031 107.484375 -42.78125 C 107.484375 -39.363281 107.195312 -36.285156 106.625 -33.546875 C 104.34375 -20.648438 98.238281 -11.40625 88.3125 -5.8125 C 78.382812 -0.226562 64.632812 2.5625 47.0625 2.5625 C 34.0625 2.5625 23.140625 0.484375 14.296875 -3.671875 C 5.453125 -7.835938 0.226562 -14.085938 -1.375 -22.421875 C -1.488281 -22.992188 -1.546875 -23.789062 -1.546875 -24.8125 C -1.546875 -26.644531 -1.03125 -28.101562 0 -29.1875 C 1.03125 -30.269531 2.742188 -31.265625 5.140625 -32.171875 L 25.328125 -39.703125 C 27.722656 -40.503906 29.4375 -40.90625 30.46875 -40.90625 C 31.601562 -40.90625 32.597656 -40.535156 33.453125 -39.796875 C 34.316406 -39.054688 35.085938 -37.882812 35.765625 -36.28125 C 36.679688 -34 38.394531 -32.398438 40.90625 -31.484375 C 43.414062 -30.578125 46.835938 -30.125 51.171875 -30.125 C 55.960938 -30.125 59.613281 -30.550781 62.125 -31.40625 C 64.632812 -32.257812 66.117188 -33.828125 66.578125 -36.109375 C 66.921875 -38.390625 65.835938 -40.046875 63.328125 -41.078125 C 60.816406 -42.109375 56.648438 -43.078125 50.828125 -43.984375 C 43.066406 -45.242188 36.304688 -46.925781 30.546875 -49.03125 C 24.785156 -51.144531 19.796875 -54.625 15.578125 -59.46875 C 11.359375 -64.320312 9.25 -70.914062 9.25 -79.25 C 9.25 -81.644531 9.53125 -84.664062 10.09375 -88.3125 Z M 10.09375 -88.3125 "/></g></g></g><g fill="#ffffff" fill-opacity="1"><g transform="translate(1144.852143, 161.06633)"><g><path d="M 101.15625 -121.515625 C 103.4375 -121.515625 105.085938 -121.144531 106.109375 -120.40625 C 107.140625 -119.664062 107.65625 -118.382812 107.65625 -116.5625 C 107.65625 -115.53125 107.597656 -114.671875 107.484375 -113.984375 L 104.0625 -94.828125 C 103.601562 -91.972656 102.71875 -90.003906 101.40625 -88.921875 C 100.09375 -87.835938 98.007812 -87.296875 95.15625 -87.296875 L 52.71875 -87.296875 L 51.171875 -78.390625 L 84.03125 -78.390625 C 86.425781 -78.390625 88.109375 -78.046875 89.078125 -77.359375 C 90.054688 -76.671875 90.546875 -75.414062 90.546875 -73.59375 L 90.203125 -70.859375 L 86.78125 -51.6875 C 86.320312 -48.832031 85.460938 -46.863281 84.203125 -45.78125 C 82.953125 -44.695312 80.898438 -44.15625 78.046875 -44.15625 L 45.1875 -44.15625 L 43.46875 -34.40625 L 87.125 -34.40625 C 89.519531 -34.40625 91.203125 -34.0625 92.171875 -33.375 C 93.140625 -32.6875 93.625 -31.429688 93.625 -29.609375 L 93.28125 -26.875 L 89.859375 -7.53125 C 89.398438 -4.675781 88.515625 -2.707031 87.203125 -1.625 C 85.890625 -0.539062 83.804688 0 80.953125 0 L 5.140625 0 C 2.742188 0 1.054688 -0.335938 0.078125 -1.015625 C -0.890625 -1.703125 -1.375 -2.960938 -1.375 -4.796875 L -1.03125 -7.53125 L 17.796875 -113.984375 C 18.253906 -116.835938 19.109375 -118.804688 20.359375 -119.890625 C 21.617188 -120.972656 23.675781 -121.515625 26.53125 -121.515625 Z M 101.15625 -121.515625 "/></g></g></g><g fill="#ffffff" fill-opacity="1"><g transform="translate(1246.180069, 161.06633)"><g><path d="M 126.3125 -121.515625 C 129.394531 -121.515625 130.9375 -120.546875 130.9375 -118.609375 C 130.9375 -117.242188 130.25 -115.703125 128.875 -113.984375 L 78.21875 -46.890625 L 71.375 -7.53125 C 70.914062 -4.675781 70.03125 -2.707031 68.71875 -1.625 C 67.40625 -0.539062 65.320312 0 62.46875 0 L 37.828125 0 C 35.429688 0 33.75 -0.335938 32.78125 -1.015625 C 31.8125 -1.703125 31.328125 -2.960938 31.328125 -4.796875 L 31.65625 -7.53125 L 38.515625 -46.546875 L 11.8125 -113.984375 C 11.351562 -115.015625 11.125 -116.097656 11.125 -117.234375 C 11.125 -120.085938 13.003906 -121.515625 16.765625 -121.515625 L 40.90625 -121.515625 C 45.695312 -121.515625 48.921875 -121.171875 50.578125 -120.484375 C 52.234375 -119.804688 53.570312 -117.984375 54.59375 -115.015625 L 64.53125 -84.71875 L 86.09375 -115.015625 C 88.144531 -117.984375 90.082031 -119.804688 91.90625 -120.484375 C 93.738281 -121.171875 96.992188 -121.515625 101.671875 -121.515625 Z M 126.3125 -121.515625 "/></g></g></g><g fill="#000000" fill-opacity="1"><g transform="translate(20.696679, 161.06633)"><g><path d="M 46.898438 17.4375 C 39.230469 17.4375 33.152344 15.191406 28.664062 10.703125 C 24.175781 6.214844 21.929688 0.136719 21.929688 -7.53125 L 21.929688 -46.554688 L 39.367188 -46.554688 L 24.242188 -37.878906 L -14.441406 -105.316406 C -16.894531 -109.613281 -18.121094 -113.875 -18.121094 -118.101562 C -18.121094 -121.417969 -17.402344 -124.515625 -15.960938 -127.398438 C -14.367188 -130.585938 -12.070312 -133.179688 -9.074219 -135.179688 C -5.289062 -137.699219 -0.78125 -138.960938 4.449219 -138.960938 L 29.269531 -138.960938 C 36.117188 -138.960938 41.441406 -138.226562 45.234375 -136.757812 C 51.007812 -134.523438 55.707031 -130.035156 59.339844 -123.289062 L 59.4375 -123.109375 L 74.9375 -92.628906 L 59.394531 -84.726562 L 43.992188 -92.902344 L 60.082031 -123.199219 C 63.710938 -129.941406 68.339844 -134.4375 73.96875 -136.6875 C 77.761719 -138.203125 83.113281 -138.960938 90.03125 -138.960938 L 113.992188 -138.960938 C 119.226562 -138.960938 123.734375 -137.699219 127.519531 -135.179688 C 130.515625 -133.179688 132.808594 -130.585938 134.40625 -127.398438 C 135.84375 -124.515625 136.566406 -121.417969 136.566406 -118.101562 C 136.566406 -113.875 135.34375 -109.621094 132.898438 -105.34375 L 94.183594 -38.1875 L 79.078125 -46.898438 L 96.515625 -46.898438 L 96.515625 -7.53125 C 96.515625 0.136719 94.269531 6.214844 89.78125 10.703125 C 85.292969 15.191406 79.214844 17.4375 71.546875 17.4375 Z M 46.898438 -17.4375 L 71.546875 -17.4375 L 71.570312 -17.429688 C 71.265625 -17.394531 70.921875 -17.324219 70.53125 -17.21875 C 68.554688 -16.671875 66.75 -15.585938 65.121094 -13.957031 C 63.492188 -12.324219 62.402344 -10.523438 61.859375 -8.542969 C 61.753906 -8.15625 61.679688 -7.808594 61.648438 -7.503906 L 61.640625 -7.53125 L 61.640625 -51.566406 L 102.621094 -122.644531 C 102.503906 -122.445312 102.378906 -122.140625 102.246094 -121.734375 C 101.875 -120.628906 101.691406 -119.417969 101.691406 -118.101562 C 101.691406 -115.929688 102.199219 -113.828125 103.210938 -111.800781 C 104.378906 -109.46875 106.03125 -107.589844 108.171875 -106.160156 C 109.550781 -105.242188 110.980469 -104.617188 112.457031 -104.289062 C 113.0625 -104.15625 113.574219 -104.089844 113.992188 -104.089844 L 90.03125 -104.089844 C 88.3125 -104.089844 86.964844 -104.035156 85.984375 -103.929688 C 85.761719 -103.90625 85.625 -103.890625 85.582031 -103.878906 C 85.960938 -103.960938 86.40625 -104.101562 86.921875 -104.308594 C 88.558594 -104.964844 89.867188 -105.828125 90.84375 -106.90625 C 90.976562 -107.054688 91.070312 -107.164062 91.121094 -107.242188 C 91.046875 -107.132812 90.96875 -107 90.882812 -106.84375 L 59.058594 -46.914062 L 28.445312 -107.117188 L 43.988281 -115.019531 L 28.636719 -106.753906 C 28.53125 -106.949219 28.445312 -107.09375 28.386719 -107.183594 C 28.449219 -107.085938 28.558594 -106.957031 28.707031 -106.796875 C 29.695312 -105.722656 31.007812 -104.871094 32.644531 -104.238281 C 33.105469 -104.058594 33.5 -103.933594 33.828125 -103.867188 C 33.753906 -103.882812 33.597656 -103.902344 33.355469 -103.929688 C 32.355469 -104.035156 30.992188 -104.089844 29.269531 -104.089844 L 4.449219 -104.089844 C 4.871094 -104.089844 5.382812 -104.15625 5.988281 -104.289062 C 7.464844 -104.617188 8.894531 -105.242188 10.273438 -106.160156 C 12.414062 -107.589844 14.066406 -109.46875 15.234375 -111.800781 C 16.246094 -113.828125 16.753906 -115.929688 16.753906 -118.101562 C 16.753906 -119.417969 16.570312 -120.628906 16.199219 -121.734375 C 16.0625 -122.140625 15.933594 -122.453125 15.808594 -122.671875 L 56.804688 -51.203125 L 56.804688 -7.53125 L 56.796875 -7.503906 C 56.761719 -7.808594 56.691406 -8.15625 56.585938 -8.542969 C 56.039062 -10.523438 54.953125 -12.324219 53.324219 -13.957031 C 51.691406 -15.585938 49.890625 -16.671875 47.910156 -17.21875 C 47.523438 -17.324219 47.175781 -17.394531 46.871094 -17.429688 Z M 46.898438 -17.4375 "/></g></g></g><g fill="#000000" fill-opacity="1"><g transform="translate(139.140795, 161.06633)"><g><path d="M 14.378906 17.4375 C 6.710938 17.4375 0.632812 15.191406 -3.859375 10.703125 C -8.347656 6.214844 -10.589844 0.136719 -10.589844 -7.53125 L -10.589844 -113.992188 C -10.589844 -121.660156 -8.347656 -127.742188 -3.859375 -132.230469 C 0.632812 -136.71875 6.710938 -138.960938 14.378906 -138.960938 L 89.003906 -138.960938 C 96.671875 -138.960938 102.75 -136.71875 107.238281 -132.230469 C 111.726562 -127.742188 113.972656 -121.660156 113.972656 -113.992188 L 113.972656 -94.824219 C 113.972656 -87.15625 111.726562 -81.078125 107.238281 -76.589844 C 102.75 -72.101562 96.671875 -69.855469 89.003906 -69.855469 L 46.554688 -69.855469 L 46.554688 -87.292969 L 63.992188 -87.292969 L 63.992188 -78.390625 L 46.554688 -78.390625 L 46.554688 -95.828125 L 79.417969 -95.828125 C 87.085938 -95.828125 93.164062 -93.585938 97.65625 -89.097656 C 102.144531 -84.609375 104.386719 -78.527344 104.386719 -70.859375 L 104.386719 -51.691406 C 104.386719 -44.023438 102.144531 -37.945312 97.65625 -33.457031 C 93.164062 -28.96875 87.085938 -26.722656 79.417969 -26.722656 L 46.554688 -26.722656 L 46.554688 -44.160156 L 63.992188 -44.160156 L 63.992188 -34.402344 L 46.554688 -34.402344 L 46.554688 -51.839844 L 90.203125 -51.839844 C 97.871094 -51.839844 103.949219 -49.597656 108.4375 -45.109375 C 112.925781 -40.617188 115.171875 -34.539062 115.171875 -26.871094 L 115.171875 -7.53125 C 115.171875 0.136719 112.925781 6.214844 108.4375 10.703125 C 103.949219 15.191406 97.871094 17.4375 90.203125 17.4375 Z M 14.378906 -17.4375 L 90.203125 -17.4375 L 90.226562 -17.429688 C 89.921875 -17.394531 89.578125 -17.324219 89.1875 -17.21875 C 87.210938 -16.671875 85.40625 -15.585938 83.777344 -13.957031 C 82.148438 -12.324219 81.058594 -10.523438 80.515625 -8.542969 C 80.410156 -8.15625 80.339844 -7.808594 80.304688 -7.503906 L 80.296875 -7.53125 L 80.296875 -26.871094 L 80.304688 -26.898438 C 80.339844 -26.59375 80.410156 -26.246094 80.515625 -25.859375 C 81.058594 -23.882812 82.148438 -22.078125 83.777344 -20.449219 C 85.40625 -18.816406 87.210938 -17.730469 89.1875 -17.183594 C 89.578125 -17.078125 89.921875 -17.007812 90.226562 -16.972656 L 90.203125 -16.964844 L 29.117188 -16.964844 L 29.117188 -61.597656 L 79.417969 -61.597656 L 79.445312 -61.589844 C 79.140625 -61.554688 78.792969 -61.484375 78.40625 -61.378906 C 76.429688 -60.832031 74.625 -59.746094 72.996094 -58.117188 C 71.363281 -56.484375 70.277344 -54.683594 69.730469 -52.703125 C 69.625 -52.316406 69.554688 -51.96875 69.519531 -51.664062 L 69.511719 -51.691406 L 69.511719 -70.859375 L 69.519531 -70.886719 C 69.554688 -70.582031 69.625 -70.234375 69.730469 -69.847656 C 70.277344 -67.871094 71.363281 -66.066406 72.996094 -64.4375 C 74.625 -62.804688 76.429688 -61.71875 78.40625 -61.175781 C 78.792969 -61.066406 79.140625 -60.996094 79.445312 -60.960938 L 79.417969 -60.953125 L 29.117188 -60.953125 L 29.117188 -104.730469 L 89.003906 -104.730469 L 89.03125 -104.722656 C 88.726562 -104.6875 88.378906 -104.617188 87.992188 -104.511719 C 86.011719 -103.964844 84.210938 -102.878906 82.578125 -101.25 C 80.949219 -99.617188 79.863281 -97.816406 79.316406 -95.835938 C 79.210938 -95.449219 79.140625 -95.101562 79.105469 -94.796875 L 79.097656 -94.824219 L 79.097656 -113.992188 L 79.105469 -114.019531 C 79.140625 -113.714844 79.210938 -113.367188 79.316406 -112.980469 C 79.863281 -111.003906 80.949219 -109.199219 82.578125 -107.570312 C 84.210938 -105.9375 86.011719 -104.851562 87.992188 -104.308594 C 88.378906 -104.199219 88.726562 -104.128906 89.03125 -104.09375 L 89.003906 -104.089844 L 14.378906 -104.089844 L 14.351562 -104.09375 C 14.65625 -104.128906 15.003906 -104.199219 15.390625 -104.308594 C 17.367188 -104.851562 19.171875 -105.9375 20.800781 -107.570312 C 22.433594 -109.199219 23.519531 -111.003906 24.066406 -112.980469 C 24.171875 -113.367188 24.242188 -113.714844 24.277344 -114.019531 L 24.285156 -113.992188 L 24.285156 -7.53125 L 24.277344 -7.503906 C 24.242188 -7.808594 24.171875 -8.15625 24.066406 -8.542969 C 23.519531 -10.523438 22.433594 -12.324219 20.800781 -13.957031 C 19.171875 -15.585938 17.367188 -16.671875 15.390625 -17.21875 C 15.003906 -17.324219 14.65625 -17.394531 14.351562 -17.429688 Z M 14.378906 -17.4375 "/></g></g></g><g fill="#000000" fill-opacity="1"><g transform="translate(240.46874, 161.06633)"><g><path d="M 14.378906 17.4375 C 6.710938 17.4375 0.632812 15.191406 -3.859375 10.703125 C -8.347656 6.214844 -10.589844 0.136719 -10.589844 -7.53125 L -10.589844 -113.992188 C -10.589844 -121.660156 -8.347656 -127.742188 -3.859375 -132.230469 C 0.632812 -136.71875 6.710938 -138.960938 14.378906 -138.960938 L 39.023438 -138.960938 C 46.691406 -138.960938 52.769531 -136.71875 57.261719 -132.230469 C 61.75 -127.742188 63.992188 -121.660156 63.992188 -113.992188 L 63.992188 -34.402344 L 46.554688 -34.402344 L 46.554688 -51.839844 L 84.726562 -51.839844 C 92.394531 -51.839844 98.472656 -49.597656 102.960938 -45.109375 C 107.449219 -40.617188 109.695312 -34.539062 109.695312 -26.871094 L 109.695312 -7.53125 C 109.695312 0.136719 107.449219 6.214844 102.960938 10.703125 C 98.472656 15.191406 92.394531 17.4375 84.726562 17.4375 Z M 14.378906 -17.4375 L 84.726562 -17.4375 L 84.75 -17.429688 C 84.445312 -17.394531 84.101562 -17.324219 83.710938 -17.21875 C 81.734375 -16.671875 79.929688 -15.585938 78.300781 -13.957031 C 76.671875 -12.324219 75.582031 -10.523438 75.039062 -8.542969 C 74.929688 -8.15625 74.859375 -7.808594 74.828125 -7.503906 L 74.820312 -7.53125 L 74.820312 -26.871094 L 74.828125 -26.898438 C 74.859375 -26.59375 74.929688 -26.246094 75.039062 -25.859375 C 75.582031 -23.882812 76.671875 -22.078125 78.300781 -20.449219 C 79.929688 -18.816406 81.734375 -17.730469 83.710938 -17.183594 C 84.101562 -17.078125 84.445312 -17.007812 84.75 -16.972656 L 84.726562 -16.964844 L 29.117188 -16.964844 L 29.117188 -113.992188 L 29.125 -114.019531 C 29.160156 -113.714844 29.230469 -113.367188 29.339844 -112.980469 C 29.882812 -111.003906 30.96875 -109.199219 32.601562 -107.570312 C 34.230469 -105.9375 36.035156 -104.851562 38.011719 -104.308594 C 38.398438 -104.199219 38.746094 -104.128906 39.050781 -104.09375 L 39.023438 -104.089844 L 14.378906 -104.089844 L 14.351562 -104.09375 C 14.65625 -104.128906 15.003906 -104.199219 15.390625 -104.308594 C 17.367188 -104.851562 19.171875 -105.9375 20.800781 -107.570312 C 22.433594 -109.199219 23.519531 -111.003906 24.066406 -112.980469 C 24.171875 -113.367188 24.242188 -113.714844 24.277344 -114.019531 L 24.285156 -113.992188 L 24.285156 -7.53125 L 24.277344 -7.503906 C 24.242188 -7.808594 24.171875 -8.15625 24.066406 -8.542969 C 23.519531 -10.523438 22.433594 -12.324219 20.800781 -13.957031 C 19.171875 -15.585938 17.367188 -16.671875 15.390625 -17.21875 C 15.003906 -17.324219 14.65625 -17.394531 14.351562 -17.429688 Z M 14.378906 -17.4375 "/></g></g></g><g fill="#000000" fill-opacity="1"><g transform="translate(334.436686, 161.06633)"><g><path d="M 14.378906 17.4375 C 6.710938 17.4375 0.632812 15.191406 -3.859375 10.703125 C -8.347656 6.214844 -10.589844 0.136719 -10.589844 -7.53125 L -10.589844 -113.992188 C -10.589844 -121.660156 -8.347656 -127.742188 -3.859375 -132.230469 C 0.632812 -136.71875 6.710938 -138.960938 14.378906 -138.960938 L 39.023438 -138.960938 C 46.691406 -138.960938 52.769531 -136.71875 57.261719 -132.230469 C 61.75 -127.742188 63.992188 -121.660156 63.992188 -113.992188 L 63.992188 -34.402344 L 46.554688 -34.402344 L 46.554688 -51.839844 L 84.726562 -51.839844 C 92.394531 -51.839844 98.472656 -49.597656 102.960938 -45.109375 C 107.449219 -40.617188 109.695312 -34.539062 109.695312 -26.871094 L 109.695312 -7.53125 C 109.695312 0.136719 107.449219 6.214844 102.960938 10.703125 C 98.472656 15.191406 92.394531 17.4375 84.726562 17.4375 Z M 14.378906 -17.4375 L 84.726562 -17.4375 L 84.75 -17.429688 C 84.445312 -17.394531 84.101562 -17.324219 83.710938 -17.21875 C 81.734375 -16.671875 79.929688 -15.585938 78.300781 -13.957031 C 76.671875 -12.324219 75.582031 -10.523438 75.039062 -8.542969 C 74.929688 -8.15625 74.859375 -7.808594 74.828125 -7.503906 L 74.820312 -7.53125 L 74.820312 -26.871094 L 74.828125 -26.898438 C 74.859375 -26.59375 74.929688 -26.246094 75.039062 -25.859375 C 75.582031 -23.882812 76.671875 -22.078125 78.300781 -20.449219 C 79.929688 -18.816406 81.734375 -17.730469 83.710938 -17.183594 C 84.101562 -17.078125 84.445312 -17.007812 84.75 -16.972656 L 84.726562 -16.964844 L 29.117188 -16.964844 L 29.117188 -113.992188 L 29.125 -114.019531 C 29.160156 -113.714844 29.230469 -113.367188 29.339844 -112.980469 C 29.882812 -111.003906 30.96875 -109.199219 32.601562 -107.570312 C 34.230469 -105.9375 36.035156 -104.851562 38.011719 -104.308594 C 38.398438 -104.199219 38.746094 -104.128906 39.050781 -104.09375 L 39.023438 -104.089844 L 14.378906 -104.089844 L 14.351562 -104.09375 C 14.65625 -104.128906 15.003906 -104.199219 15.390625 -104.308594 C 17.367188 -104.851562 19.171875 -105.9375 20.800781 -107.570312 C 22.433594 -109.199219 23.519531 -111.003906 24.066406 -112.980469 C 24.171875 -113.367188 24.242188 -113.714844 24.277344 -114.019531 L 24.285156 -113.992188 L 24.285156 -7.53125 L 24.277344 -7.503906 C 24.242188 -7.808594 24.171875 -8.15625 24.066406 -8.542969 C 23.519531 -10.523438 22.433594 -12.324219 20.800781 -13.957031 C 19.171875 -15.585938 17.367188 -16.671875 15.390625 -17.21875 C 15.003906 -17.324219 14.65625 -17.394531 14.351562 -17.429688 Z M 14.378906 -17.4375 "/></g></g></g><g fill="#000000" fill-opacity="1"><g transform="translate(426.521851, 161.06633)"><g><path d="M 58.878906 20.003906 C 36.992188 20.003906 19.617188 14.070312 6.75 2.207031 C 0.0195312 -4 -5.023438 -11.386719 -8.382812 -19.953125 C -11.566406 -28.074219 -13.160156 -37.113281 -13.160156 -47.070312 L -13.160156 -74.457031 C -13.160156 -84.414062 -11.566406 -93.453125 -8.382812 -101.574219 C -5.023438 -110.140625 0.0195312 -117.527344 6.75 -123.730469 C 19.617188 -135.597656 36.992188 -141.53125 58.878906 -141.53125 C 80.765625 -141.53125 98.144531 -135.597656 111.007812 -123.730469 C 117.738281 -117.527344 122.785156 -110.140625 126.140625 -101.574219 C 129.324219 -93.453125 130.917969 -84.414062 130.917969 -74.457031 L 130.917969 -47.070312 C 130.917969 -37.113281 129.324219 -28.074219 126.140625 -19.953125 C 122.785156 -11.386719 117.738281 -4 111.007812 2.207031 C 98.144531 14.070312 80.765625 20.003906 58.878906 20.003906 Z M 58.878906 -14.871094 C 71.683594 -14.871094 81.179688 -17.722656 87.367188 -23.429688 C 90.164062 -26.011719 92.265625 -29.09375 93.671875 -32.679688 C 95.253906 -36.710938 96.042969 -41.507812 96.042969 -47.070312 L 96.042969 -74.457031 C 96.042969 -80.019531 95.253906 -84.8125 93.671875 -88.84375 C 92.265625 -92.429688 90.164062 -95.515625 87.367188 -98.09375 C 81.179688 -103.800781 71.683594 -106.65625 58.878906 -106.65625 C 46.078125 -106.65625 36.582031 -103.800781 30.390625 -98.09375 C 27.59375 -95.515625 25.492188 -92.429688 24.085938 -88.84375 C 22.507812 -84.8125 21.714844 -80.019531 21.714844 -74.457031 L 21.714844 -47.070312 C 21.714844 -41.507812 22.507812 -36.710938 24.085938 -32.679688 C 25.492188 -29.09375 27.59375 -26.011719 30.390625 -23.429688 C 36.582031 -17.722656 46.078125 -14.871094 58.878906 -14.871094 Z M 61.425781 -44.84375 L 61.414062 -44.828125 C 61.367188 -45.09375 61.28125 -45.390625 61.152344 -45.710938 C 60.746094 -46.730469 60.117188 -47.609375 59.261719 -48.351562 C 58.667969 -48.863281 58.105469 -49.199219 57.570312 -49.363281 C 57.765625 -49.304688 58.203125 -49.273438 58.878906 -49.273438 C 59.558594 -49.273438 59.992188 -49.304688 60.1875 -49.363281 C 59.652344 -49.199219 59.089844 -48.863281 58.5 -48.351562 C 57.644531 -47.609375 57.011719 -46.730469 56.609375 -45.710938 C 56.480469 -45.390625 56.390625 -45.09375 56.347656 -44.828125 L 56.332031 -44.84375 L 56.332031 -76.679688 L 56.347656 -76.699219 C 56.390625 -76.429688 56.480469 -76.136719 56.609375 -75.8125 C 57.011719 -74.796875 57.644531 -73.914062 58.5 -73.175781 C 59.089844 -72.660156 59.652344 -72.324219 60.1875 -72.164062 C 59.992188 -72.222656 59.558594 -72.25 58.878906 -72.25 C 58.203125 -72.25 57.765625 -72.222656 57.570312 -72.164062 C 58.105469 -72.324219 58.667969 -72.660156 59.261719 -73.175781 C 60.117188 -73.914062 60.746094 -74.796875 61.152344 -75.8125 C 61.28125 -76.136719 61.367188 -76.429688 61.414062 -76.699219 L 61.425781 -76.679688 Z M 26.550781 -44.84375 L 26.550781 -76.679688 C 26.550781 -81.019531 27.285156 -85.03125 28.75 -88.714844 C 30.441406 -92.957031 32.996094 -96.5625 36.417969 -99.527344 C 42.265625 -104.59375 49.75 -107.125 58.878906 -107.125 C 68.007812 -107.125 75.496094 -104.59375 81.339844 -99.527344 C 84.761719 -96.5625 87.320312 -92.957031 89.007812 -88.714844 C 90.476562 -85.03125 91.207031 -81.019531 91.207031 -76.679688 L 91.207031 -44.84375 C 91.207031 -40.503906 90.476562 -36.492188 89.007812 -32.808594 C 87.320312 -28.566406 84.761719 -24.964844 81.339844 -21.996094 C 75.496094 -16.929688 68.007812 -14.398438 58.878906 -14.398438 C 49.75 -14.398438 42.265625 -16.929688 36.417969 -21.996094 C 32.996094 -24.964844 30.441406 -28.566406 28.75 -32.808594 C 27.285156 -36.492188 26.550781 -40.503906 26.550781 -44.84375 Z M 26.550781 -44.84375 "/></g></g></g><g fill="#000000" fill-opacity="1"><g transform="translate(541.200435, 161.06633)"><g><path d="M 37.65625 17.4375 C 31.882812 17.4375 26.960938 16.296875 22.886719 14.015625 C 19.574219 12.160156 16.882812 9.570312 14.804688 6.246094 C 13.292969 3.832031 12.175781 1.097656 11.449219 -1.953125 L -15.382812 -110.140625 C -16.066406 -112.875 -16.410156 -115.414062 -16.410156 -117.757812 C -16.410156 -120.742188 -15.871094 -123.542969 -14.796875 -126.152344 C -13.324219 -129.730469 -11.03125 -132.628906 -7.910156 -134.859375 C -4.078125 -137.59375 0.667969 -138.960938 6.332031 -138.960938 L 32.007812 -138.960938 C 38.535156 -138.960938 43.894531 -137.707031 48.082031 -135.195312 C 53.820312 -131.75 57.507812 -126.261719 59.144531 -118.726562 L 59.289062 -118.066406 L 64.515625 -80.085938 C 65.265625 -74.824219 65.828125 -68.535156 66.195312 -61.210938 C 66.554688 -54.132812 66.730469 -48.277344 66.730469 -43.644531 L 49.292969 -43.644531 L 49.292969 -61.082031 L 50.664062 -61.082031 L 50.664062 -43.644531 L 33.226562 -43.644531 C 33.226562 -48.1875 33.5 -54.121094 34.046875 -61.457031 C 34.617188 -69.15625 35.5 -75.789062 36.695312 -81.359375 L 44.183594 -118.472656 C 44.902344 -121.78125 45.992188 -124.675781 47.457031 -127.15625 C 49.523438 -130.660156 52.253906 -133.390625 55.644531 -135.34375 C 59.824219 -137.757812 65.007812 -138.960938 71.203125 -138.960938 L 94.824219 -138.960938 C 100.917969 -138.960938 106.050781 -137.804688 110.222656 -135.484375 C 113.820312 -133.484375 116.675781 -130.648438 118.785156 -126.972656 C 120.304688 -124.328125 121.351562 -121.339844 121.929688 -118.007812 L 104.75 -115.019531 L 121.828125 -118.546875 L 129.53125 -81.234375 C 130.589844 -75.816406 131.371094 -70.113281 131.882812 -64.125 C 132.355469 -58.539062 132.769531 -51.988281 133.125 -44.460938 L 115.707031 -43.644531 L 115.707031 -61.082031 L 117.074219 -61.082031 L 117.074219 -43.644531 L 99.644531 -44.082031 C 100 -58.363281 100.785156 -70.300781 102 -79.898438 L 107.023438 -117.664062 L 107.085938 -118.007812 C 107.652344 -121.265625 108.65625 -124.191406 110.101562 -126.785156 C 112.152344 -130.460938 114.9375 -133.3125 118.460938 -135.34375 C 122.640625 -137.757812 127.941406 -138.960938 134.363281 -138.960938 L 157.984375 -138.960938 C 163.648438 -138.960938 168.394531 -137.59375 172.226562 -134.859375 C 175.34375 -132.628906 177.640625 -129.730469 179.113281 -126.152344 C 180.1875 -123.542969 180.726562 -120.742188 180.726562 -117.757812 C 180.726562 -115.414062 180.382812 -112.863281 179.691406 -110.105469 L 152.46875 -2.074219 C 150.53125 5.042969 146.949219 10.238281 141.722656 13.503906 C 137.523438 16.125 132.449219 17.4375 126.488281 17.4375 L 100.472656 17.4375 C 94.515625 17.4375 89.441406 16.179688 85.253906 13.667969 C 82.1875 11.828125 79.667969 9.359375 77.695312 6.257812 C 76.183594 3.882812 75.054688 1.210938 74.3125 -1.761719 L 74.195312 -2.230469 L 69.3125 -27.695312 C 66.953125 -40.230469 65.652344 -53.835938 65.40625 -68.515625 L 82.84375 -68.808594 L 82.84375 -51.371094 L 81.300781 -51.371094 L 81.300781 -68.808594 L 98.722656 -68.054688 C 98.117188 -53.984375 96.59375 -40.492188 94.15625 -27.578125 L 89.40625 -2.414062 L 89.222656 -1.746094 C 87.34375 5.152344 83.789062 10.238281 78.5625 13.503906 C 74.367188 16.125 69.230469 17.4375 63.160156 17.4375 Z M 37.65625 -17.4375 L 63.160156 -17.4375 C 63.324219 -17.4375 63.449219 -17.441406 63.535156 -17.449219 C 63.457031 -17.441406 63.347656 -17.421875 63.195312 -17.390625 C 62.191406 -17.183594 61.152344 -16.742188 60.078125 -16.070312 C 58.433594 -15.042969 57.152344 -13.773438 56.234375 -12.269531 C 55.886719 -11.707031 55.671875 -11.253906 55.578125 -10.921875 L 72.402344 -6.332031 L 55.265625 -9.566406 L 59.886719 -34.042969 C 62.015625 -45.316406 63.347656 -57.15625 63.882812 -69.558594 L 64.601562 -86.246094 L 99.992188 -86.246094 L 100.277344 -69.097656 C 100.488281 -56.390625 101.585938 -44.78125 103.5625 -34.265625 L 108.355469 -9.273438 L 91.230469 -5.992188 L 108.144531 -10.21875 C 107.972656 -10.910156 107.632812 -11.65625 107.117188 -12.464844 C 106.144531 -13.996094 104.835938 -15.253906 103.195312 -16.234375 C 102.210938 -16.828125 101.265625 -17.214844 100.367188 -17.402344 C 100.234375 -17.429688 100.140625 -17.445312 100.082031 -17.449219 C 100.171875 -17.441406 100.300781 -17.4375 100.472656 -17.4375 L 126.488281 -17.4375 C 126.609375 -17.4375 126.6875 -17.4375 126.730469 -17.441406 C 126.621094 -17.433594 126.476562 -17.410156 126.300781 -17.371094 C 125.304688 -17.15625 124.285156 -16.722656 123.238281 -16.070312 C 121.59375 -15.042969 120.308594 -13.773438 119.390625 -12.269531 C 119.046875 -11.707031 118.800781 -11.144531 118.652344 -10.59375 L 145.859375 -118.566406 C 145.882812 -118.664062 145.902344 -118.746094 145.917969 -118.816406 L 145.917969 -118.804688 C 145.875 -118.519531 145.851562 -118.171875 145.851562 -117.757812 C 145.851562 -116.144531 146.191406 -114.515625 146.867188 -112.875 C 147.9375 -110.269531 149.636719 -108.136719 151.957031 -106.480469 C 153.546875 -105.34375 155.199219 -104.597656 156.910156 -104.242188 C 157.398438 -104.140625 157.753906 -104.089844 157.984375 -104.089844 L 134.363281 -104.089844 C 133.738281 -104.089844 133.332031 -104.070312 133.148438 -104.039062 C 133.953125 -104.183594 134.867188 -104.546875 135.886719 -105.136719 C 137.925781 -106.3125 139.488281 -107.871094 140.566406 -109.804688 C 141.039062 -110.660156 141.332031 -111.402344 141.441406 -112.035156 L 124.265625 -115.019531 L 141.550781 -112.722656 L 136.597656 -75.519531 C 135.53125 -67.085938 134.835938 -56.316406 134.507812 -43.210938 L 134.082031 -26.210938 L 99.066406 -26.210938 L 98.289062 -42.828125 C 97.957031 -49.910156 97.570312 -56.023438 97.132812 -61.167969 C 96.730469 -65.90625 96.144531 -70.242188 95.375 -74.183594 L 87.617188 -111.765625 L 87.570312 -112.035156 C 87.695312 -111.328125 88.015625 -110.523438 88.535156 -109.617188 C 89.644531 -107.679688 91.230469 -106.140625 93.289062 -105 C 94.179688 -104.503906 94.980469 -104.191406 95.691406 -104.058594 C 95.585938 -104.078125 95.296875 -104.089844 94.824219 -104.089844 L 71.203125 -104.089844 C 70.742188 -104.089844 70.472656 -104.082031 70.394531 -104.066406 C 71.203125 -104.21875 72.09375 -104.574219 73.070312 -105.136719 C 74.976562 -106.238281 76.449219 -107.667969 77.492188 -109.433594 C 77.929688 -110.171875 78.222656 -110.886719 78.367188 -111.570312 L 70.796875 -74.054688 C 69.933594 -70.039062 69.277344 -64.980469 68.824219 -58.871094 C 68.34375 -52.398438 68.101562 -47.324219 68.101562 -43.644531 L 68.101562 -26.210938 L 31.859375 -26.210938 L 31.859375 -43.644531 C 31.859375 -47.691406 31.695312 -52.960938 31.367188 -59.457031 C 31.050781 -65.714844 30.582031 -71.003906 29.964844 -75.332031 L 24.832031 -112.644531 L 42.105469 -115.019531 L 25.066406 -111.316406 C 25.164062 -110.871094 25.410156 -110.304688 25.804688 -109.617188 C 26.8125 -107.859375 28.257812 -106.417969 30.140625 -105.289062 C 31.25 -104.625 32.257812 -104.207031 33.164062 -104.046875 C 33.003906 -104.074219 32.621094 -104.089844 32.007812 -104.089844 L 6.332031 -104.089844 C 6.5625 -104.089844 6.917969 -104.140625 7.40625 -104.242188 C 9.117188 -104.597656 10.769531 -105.34375 12.359375 -106.480469 C 14.679688 -108.136719 16.378906 -110.269531 17.449219 -112.875 C 18.125 -114.515625 18.464844 -116.144531 18.464844 -117.757812 C 18.464844 -118.171875 18.441406 -118.519531 18.398438 -118.804688 L 18.398438 -118.816406 C 18.414062 -118.746094 18.433594 -118.652344 18.464844 -118.535156 L 45.375 -10.03125 C 45.21875 -10.683594 44.886719 -11.421875 44.375 -12.238281 C 43.296875 -13.964844 41.8125 -15.355469 39.929688 -16.414062 C 39 -16.933594 38.132812 -17.269531 37.324219 -17.425781 C 37.257812 -17.4375 37.203125 -17.445312 37.15625 -17.453125 L 37.164062 -17.453125 C 37.289062 -17.441406 37.453125 -17.4375 37.65625 -17.4375 Z M 37.65625 -17.4375 "/></g></g></g><g fill="#ffde59" fill-opacity="1"><g transform="translate(20.696679, 161.06633)"><g><path d="M 46.890625 0 C 44.046875 0 42.078125 -0.539062 40.984375 -1.625 C 39.898438 -2.707031 39.359375 -4.675781 39.359375 -7.53125 L 39.359375 -46.546875 L 0.6875 -113.984375 C -0.226562 -115.585938 -0.6875 -116.957031 -0.6875 -118.09375 C -0.6875 -120.375 1.023438 -121.515625 4.453125 -121.515625 L 29.265625 -121.515625 C 33.941406 -121.515625 37.164062 -121.171875 38.9375 -120.484375 C 40.707031 -119.804688 42.390625 -117.984375 43.984375 -115.015625 L 59.390625 -84.71875 L 75.484375 -115.015625 C 77.078125 -117.984375 78.726562 -119.804688 80.4375 -120.484375 C 82.15625 -121.171875 85.351562 -121.515625 90.03125 -121.515625 L 113.984375 -121.515625 C 117.410156 -121.515625 119.125 -120.375 119.125 -118.09375 C 119.125 -116.957031 118.664062 -115.585938 117.75 -113.984375 L 79.078125 -46.890625 L 79.078125 -7.53125 C 79.078125 -4.675781 78.535156 -2.707031 77.453125 -1.625 C 76.367188 -0.539062 74.398438 0 71.546875 0 Z M 46.890625 0 "/></g></g></g><g fill="#ffde59" fill-opacity="1"><g transform="translate(139.140795, 161.06633)"><g><path d="M 14.375 0 C 11.519531 0 9.550781 -0.539062 8.46875 -1.625 C 7.382812 -2.707031 6.84375 -4.675781 6.84375 -7.53125 L 6.84375 -113.984375 C 6.84375 -116.835938 7.382812 -118.804688 8.46875 -119.890625 C 9.550781 -120.972656 11.519531 -121.515625 14.375 -121.515625 L 89 -121.515625 C 91.851562 -121.515625 93.820312 -120.972656 94.90625 -119.890625 C 95.988281 -118.804688 96.53125 -116.835938 96.53125 -113.984375 L 96.53125 -94.828125 C 96.53125 -91.972656 95.988281 -90.003906 94.90625 -88.921875 C 93.820312 -87.835938 91.851562 -87.296875 89 -87.296875 L 46.546875 -87.296875 L 46.546875 -78.390625 L 79.421875 -78.390625 C 82.273438 -78.390625 84.242188 -77.847656 85.328125 -76.765625 C 86.410156 -75.679688 86.953125 -73.710938 86.953125 -70.859375 L 86.953125 -51.6875 C 86.953125 -48.832031 86.410156 -46.863281 85.328125 -45.78125 C 84.242188 -44.695312 82.273438 -44.15625 79.421875 -44.15625 L 46.546875 -44.15625 L 46.546875 -34.40625 L 90.203125 -34.40625 C 93.054688 -34.40625 95.023438 -33.863281 96.109375 -32.78125 C 97.191406 -31.695312 97.734375 -29.726562 97.734375 -26.875 L 97.734375 -7.53125 C 97.734375 -4.675781 97.191406 -2.707031 96.109375 -1.625 C 95.023438 -0.539062 93.054688 0 90.203125 0 Z M 14.375 0 "/></g></g></g><g fill="#ffde59" fill-opacity="1"><g transform="translate(240.46874, 161.06633)"><g><path d="M 14.375 0 C 11.519531 0 9.550781 -0.539062 8.46875 -1.625 C 7.382812 -2.707031 6.84375 -4.675781 6.84375 -7.53125 L 6.84375 -113.984375 C 6.84375 -116.835938 7.382812 -118.804688 8.46875 -119.890625 C 9.550781 -120.972656 11.519531 -121.515625 14.375 -121.515625 L 39.03125 -121.515625 C 41.875 -121.515625 43.835938 -120.972656 44.921875 -119.890625 C 46.003906 -118.804688 46.546875 -116.835938 46.546875 -113.984375 L 46.546875 -34.40625 L 84.71875 -34.40625 C 87.570312 -34.40625 89.539062 -33.863281 90.625 -32.78125 C 91.707031 -31.695312 92.25 -29.726562 92.25 -26.875 L 92.25 -7.53125 C 92.25 -4.675781 91.707031 -2.707031 90.625 -1.625 C 89.539062 -0.539062 87.570312 0 84.71875 0 Z M 14.375 0 "/></g></g></g><g fill="#ffde59" fill-opacity="1"><g transform="translate(334.436686, 161.06633)"><g><path d="M 14.375 0 C 11.519531 0 9.550781 -0.539062 8.46875 -1.625 C 7.382812 -2.707031 6.84375 -4.675781 6.84375 -7.53125 L 6.84375 -113.984375 C 6.84375 -116.835938 7.382812 -118.804688 8.46875 -119.890625 C 9.550781 -120.972656 11.519531 -121.515625 14.375 -121.515625 L 39.03125 -121.515625 C 41.875 -121.515625 43.835938 -120.972656 44.921875 -119.890625 C 46.003906 -118.804688 46.546875 -116.835938 46.546875 -113.984375 L 46.546875 -34.40625 L 84.71875 -34.40625 C 87.570312 -34.40625 89.539062 -33.863281 90.625 -32.78125 C 91.707031 -31.695312 92.25 -29.726562 92.25 -26.875 L 92.25 -7.53125 C 92.25 -4.675781 91.707031 -2.707031 90.625 -1.625 C 89.539062 -0.539062 87.570312 0 84.71875 0 Z M 14.375 0 "/></g></g></g><g fill="#ffde59" fill-opacity="1"><g transform="translate(426.521851, 161.06633)"><g><path d="M 58.875 2.5625 C 41.53125 2.5625 28.09375 -1.828125 18.5625 -10.609375 C 9.039062 -19.398438 4.28125 -31.550781 4.28125 -47.0625 L 4.28125 -74.453125 C 4.28125 -89.972656 9.039062 -102.125 18.5625 -110.90625 C 28.09375 -119.695312 41.53125 -124.09375 58.875 -124.09375 C 76.21875 -124.09375 89.648438 -119.695312 99.171875 -110.90625 C 108.703125 -102.125 113.46875 -89.972656 113.46875 -74.453125 L 113.46875 -47.0625 C 113.46875 -31.550781 108.703125 -19.398438 99.171875 -10.609375 C 89.648438 -1.828125 76.21875 2.5625 58.875 2.5625 Z M 43.984375 -44.84375 C 43.984375 -40.625 45.265625 -37.398438 47.828125 -35.171875 C 50.398438 -32.941406 54.082031 -31.828125 58.875 -31.828125 C 63.664062 -31.828125 67.34375 -32.941406 69.90625 -35.171875 C 72.476562 -37.398438 73.765625 -40.625 73.765625 -44.84375 L 73.765625 -76.671875 C 73.765625 -80.898438 72.476562 -84.125 69.90625 -86.34375 C 67.34375 -88.570312 63.664062 -89.6875 58.875 -89.6875 C 54.082031 -89.6875 50.398438 -88.570312 47.828125 -86.34375 C 45.265625 -84.125 43.984375 -80.898438 43.984375 -76.671875 Z M 43.984375 -44.84375 "/></g></g></g><g fill="#ffde59" fill-opacity="1"><g transform="translate(541.200435, 161.06633)"><g><path d="M 37.65625 0 C 34.914062 0 32.832031 -0.394531 31.40625 -1.1875 C 29.976562 -1.988281 28.976562 -3.585938 28.40625 -5.984375 L 1.546875 -114.328125 C 1.203125 -115.703125 1.03125 -116.84375 1.03125 -117.75 C 1.03125 -119.125 1.425781 -120.09375 2.21875 -120.65625 C 3.019531 -121.226562 4.390625 -121.515625 6.328125 -121.515625 L 32 -121.515625 C 35.3125 -121.515625 37.679688 -121.085938 39.109375 -120.234375 C 40.535156 -119.378906 41.535156 -117.640625 42.109375 -115.015625 L 47.234375 -77.703125 C 47.921875 -72.910156 48.4375 -67.117188 48.78125 -60.328125 C 49.125 -53.546875 49.296875 -47.984375 49.296875 -43.640625 L 50.65625 -43.640625 C 50.65625 -47.753906 50.910156 -53.257812 51.421875 -60.15625 C 51.941406 -67.0625 52.71875 -72.910156 53.75 -77.703125 L 61.28125 -115.015625 C 61.84375 -117.640625 62.863281 -119.378906 64.34375 -120.234375 C 65.832031 -121.085938 68.117188 -121.515625 71.203125 -121.515625 L 94.828125 -121.515625 C 97.898438 -121.515625 100.207031 -121.085938 101.75 -120.234375 C 103.289062 -119.378906 104.289062 -117.640625 104.75 -115.015625 L 112.453125 -77.703125 C 113.359375 -73.023438 114.039062 -68.003906 114.5 -62.640625 C 114.957031 -57.273438 115.359375 -50.941406 115.703125 -43.640625 L 117.078125 -43.640625 C 117.410156 -57.335938 118.148438 -68.691406 119.296875 -77.703125 L 124.265625 -115.015625 C 124.710938 -117.640625 125.675781 -119.378906 127.15625 -120.234375 C 128.644531 -121.085938 131.046875 -121.515625 134.359375 -121.515625 L 157.984375 -121.515625 C 159.921875 -121.515625 161.285156 -121.226562 162.078125 -120.65625 C 162.878906 -120.09375 163.28125 -119.125 163.28125 -117.75 C 163.28125 -116.84375 163.109375 -115.703125 162.765625 -114.328125 L 135.5625 -6.328125 C 134.875 -3.816406 133.84375 -2.132812 132.46875 -1.28125 C 131.101562 -0.425781 129.109375 0 126.484375 0 L 100.46875 0 C 97.726562 0 95.644531 -0.425781 94.21875 -1.28125 C 92.789062 -2.132812 91.789062 -3.703125 91.21875 -5.984375 L 86.4375 -30.984375 C 84.269531 -42.503906 83.070312 -55.113281 82.84375 -68.8125 L 81.296875 -68.8125 C 80.722656 -55.570312 79.296875 -42.90625 77.015625 -30.8125 L 72.40625 -6.328125 C 71.71875 -3.816406 70.6875 -2.132812 69.3125 -1.28125 C 67.945312 -0.425781 65.894531 0 63.15625 0 Z M 37.65625 0 "/></g></g></g></g></g></svg>