<svg xmlns="http://www.w3.org/2000/svg" xmlns:xlink="http://www.w3.org/1999/xlink" width="2959" zoomAndPan="magnify" viewBox="0 0 2219.25 427.499982" height="570" preserveAspectRatio="xMidYMid meet" version="1.0"><defs><g/><clipPath id="29a9cc154a"><path d="M 0.921875 0 L 2217.578125 0 L 2217.578125 427 L 0.921875 427 Z M 0.921875 0 " clip-rule="nonzero"/></clipPath></defs><g clip-path="url(#29a9cc154a)"><path fill="#ffffff" d="M 0.921875 0 L 2217.578125 0 L 2217.578125 427 L 0.921875 427 Z M 0.921875 0 " fill-opacity="1" fill-rule="nonzero"/></g><g fill="#000000" fill-opacity="1"><g transform="translate(1158.036734, 296.332612)"><g><path d="M 154.558594 -214.683594 C 163.503906 -214.683594 170.933594 -212.59375 176.847656 -208.417969 C 181.679688 -205.007812 185.222656 -200.523438 187.472656 -194.964844 C 189.089844 -190.964844 189.898438 -186.644531 189.898438 -182.003906 C 189.898438 -179.886719 189.605469 -177.070312 189.019531 -173.550781 L 168.730469 -58.207031 C 163.476562 -29.203125 151.332031 -7.242188 132.300781 7.667969 C 113.738281 22.207031 89.09375 29.480469 58.359375 29.480469 C 33.980469 29.480469 14.136719 23.660156 -1.167969 12.023438 C -17.03125 -0.0390625 -27.101562 -16.769531 -31.382812 -38.171875 C -31.890625 -40.710938 -32.144531 -43.53125 -32.144531 -46.632812 C -32.144531 -55.996094 -29.164062 -63.988281 -23.203125 -70.609375 C -18.605469 -75.71875 -12.3125 -79.605469 -4.328125 -82.265625 L 28.597656 -93.417969 C 34.160156 -95.382812 39.28125 -96.367188 43.96875 -96.367188 C 48.21875 -96.367188 52.25 -95.601562 56.0625 -94.078125 C 60.382812 -92.347656 64.132812 -89.773438 67.304688 -86.355469 C 71.433594 -81.914062 74.382812 -76.148438 76.152344 -69.070312 C 76.179688 -68.957031 76.210938 -68.855469 76.242188 -68.773438 C 76.203125 -68.882812 76.132812 -69.027344 76.03125 -69.207031 C 75.53125 -70.121094 74.804688 -70.996094 73.851562 -71.832031 C 72.625 -72.914062 71.25 -73.714844 69.726562 -74.238281 C 68.679688 -74.601562 67.730469 -74.78125 66.886719 -74.78125 C 65.355469 -74.78125 63.789062 -74.429688 62.1875 -73.722656 C 60.414062 -72.941406 58.929688 -71.875 57.738281 -70.515625 C 57.167969 -69.867188 56.800781 -69.34375 56.632812 -68.941406 C 56.851562 -69.464844 57.0625 -70.296875 57.269531 -71.445312 L 77.039062 -182.570312 L 77.113281 -182.9375 C 79.132812 -192.621094 83.125 -200.164062 89.09375 -205.5625 C 95.8125 -211.640625 104.664062 -214.683594 115.652344 -214.683594 Z M 154.558594 -163.71875 L 115.652344 -163.71875 C 115.53125 -163.71875 115.429688 -163.714844 115.351562 -163.710938 L 115.375 -163.714844 C 115.703125 -163.75 116.089844 -163.828125 116.542969 -163.949219 C 118.929688 -164.589844 121.179688 -165.863281 123.289062 -167.773438 C 124.921875 -169.25 126.121094 -170.816406 126.886719 -172.46875 C 127.007812 -172.730469 127.089844 -172.9375 127.136719 -173.089844 C 127.105469 -172.976562 127.058594 -172.796875 127.007812 -172.542969 L 102.0625 -177.742188 L 127.148438 -173.277344 L 107.414062 -62.328125 C 105.503906 -51.828125 101.707031 -43.34375 96.019531 -36.875 C 92.253906 -32.585938 87.816406 -29.320312 82.710938 -27.074219 C 77.777344 -24.902344 72.5 -23.816406 66.886719 -23.816406 C 56.480469 -23.816406 47.585938 -27.0625 40.199219 -33.558594 C 33.675781 -39.292969 29.179688 -47.011719 26.707031 -56.707031 L 26.703125 -56.746094 C 26.777344 -56.519531 26.882812 -56.261719 27.015625 -55.96875 C 27.691406 -54.496094 28.671875 -53.066406 29.960938 -51.679688 C 31.976562 -49.503906 34.371094 -47.863281 37.136719 -46.757812 C 39.398438 -45.851562 41.675781 -45.402344 43.96875 -45.402344 C 44.945312 -45.402344 45.746094 -45.46875 46.367188 -45.609375 C 46.167969 -45.5625 45.695312 -45.410156 44.949219 -45.148438 L 11.789062 -33.917969 C 11.539062 -33.835938 11.347656 -33.765625 11.210938 -33.703125 C 11.261719 -33.726562 11.355469 -33.777344 11.496094 -33.855469 C 12.570312 -34.464844 13.628906 -35.351562 14.675781 -36.515625 C 16.179688 -38.183594 17.292969 -40.066406 18.019531 -42.164062 C 18.554688 -43.707031 18.820312 -45.199219 18.820312 -46.632812 L 18.8125 -46.65625 C 18.777344 -47.101562 18.703125 -47.605469 18.59375 -48.167969 C 20.351562 -39.367188 24.046875 -32.828125 29.679688 -28.546875 C 35.871094 -23.839844 45.429688 -21.484375 58.359375 -21.484375 C 77.367188 -21.484375 91.539062 -25.140625 100.867188 -32.449219 C 109.726562 -39.390625 115.617188 -50.917969 118.535156 -67.039062 L 138.75 -181.929688 C 138.871094 -182.652344 138.953125 -183.199219 139 -183.566406 C 138.957031 -183.226562 138.933594 -182.707031 138.933594 -182.003906 C 138.933594 -180.03125 139.367188 -177.976562 140.230469 -175.839844 C 141.726562 -172.148438 144.132812 -169.128906 147.457031 -166.78125 C 149.566406 -165.292969 151.707031 -164.320312 153.871094 -163.863281 C 154.238281 -163.785156 154.550781 -163.738281 154.808594 -163.714844 L 154.8125 -163.714844 C 154.742188 -163.714844 154.660156 -163.71875 154.558594 -163.71875 Z M 154.558594 -163.71875 "/></g></g></g><g fill="#000000" fill-opacity="1"><g transform="translate(1314.19276, 296.332612)"><g><path d="M 157.488281 -214.683594 C 166.535156 -214.683594 174.085938 -212.496094 180.136719 -208.125 C 184.929688 -204.660156 188.445312 -200.140625 190.675781 -194.566406 C 192.289062 -190.53125 193.097656 -186.164062 193.097656 -181.472656 C 193.097656 -178.46875 192.894531 -175.738281 192.484375 -173.285156 L 187.105469 -143.148438 C 185.433594 -132.679688 181.101562 -124.558594 174.117188 -118.789062 C 167.363281 -113.210938 158.710938 -110.421875 148.160156 -110.421875 L 82.074219 -110.421875 L 82.074219 -135.902344 L 107.183594 -131.558594 L 104.785156 -117.703125 L 79.675781 -122.046875 L 79.675781 -147.527344 L 130.839844 -147.527344 C 139.964844 -147.527344 147.480469 -145.441406 153.398438 -141.265625 C 158.351562 -137.769531 161.941406 -133.136719 164.171875 -127.367188 C 165.691406 -123.433594 166.449219 -119.175781 166.449219 -114.585938 L 166.449219 -113 L 165.636719 -106.5 L 160.191406 -75.996094 C 158.550781 -65.738281 154.410156 -57.738281 147.761719 -51.996094 C 141.027344 -46.179688 132.277344 -43.269531 121.515625 -43.269531 L 70.351562 -43.269531 L 70.351562 -68.75 L 95.449219 -64.347656 L 92.785156 -49.160156 L 67.683594 -53.5625 L 67.683594 -79.042969 L 135.636719 -79.042969 C 144.761719 -79.042969 152.277344 -76.957031 158.195312 -72.78125 C 163.148438 -69.285156 166.738281 -64.652344 168.96875 -58.882812 C 170.484375 -54.949219 171.246094 -50.691406 171.246094 -46.101562 L 171.246094 -44.515625 L 170.4375 -38.035156 L 164.992188 -7.285156 C 163.316406 3.210938 158.984375 11.34375 152 17.113281 C 145.246094 22.691406 136.59375 25.480469 126.042969 25.480469 L 7.996094 25.480469 C -1.128906 25.480469 -8.648438 23.394531 -14.5625 19.21875 C -19.515625 15.722656 -23.105469 11.089844 -25.335938 5.320312 C -26.855469 1.386719 -27.613281 -2.871094 -27.613281 -7.460938 L -27.613281 -9.046875 L -26.804688 -15.527344 L 2.621094 -181.914062 C 4.265625 -192.199219 8.410156 -200.214844 15.054688 -205.953125 C 21.792969 -211.773438 30.542969 -214.683594 41.304688 -214.683594 Z M 157.488281 -163.71875 L 41.304688 -163.71875 C 41.183594 -163.71875 41.082031 -163.714844 40.996094 -163.710938 L 41.003906 -163.714844 C 41.300781 -163.746094 41.660156 -163.816406 42.078125 -163.929688 C 44.273438 -164.507812 46.371094 -165.660156 48.367188 -167.382812 C 50.320312 -169.070312 51.738281 -170.925781 52.613281 -172.945312 C 52.773438 -173.304688 52.882812 -173.609375 52.949219 -173.855469 C 52.933594 -173.796875 52.886719 -173.523438 52.804688 -173.035156 L 23.492188 -7.289062 L -1.597656 -11.726562 L 23.6875 -8.5625 L 23.152344 -4.300781 L -2.132812 -7.460938 L 23.351562 -7.460938 C 23.351562 -9.207031 22.96875 -11.070312 22.203125 -13.046875 C 20.730469 -16.863281 18.269531 -19.988281 14.828125 -22.417969 C 12.667969 -23.941406 10.496094 -24.925781 8.308594 -25.371094 C 7.992188 -25.4375 7.730469 -25.476562 7.535156 -25.492188 C 7.621094 -25.484375 7.773438 -25.480469 7.996094 -25.480469 L 126.042969 -25.480469 C 126.222656 -25.480469 126.332031 -25.484375 126.367188 -25.488281 C 126.101562 -25.457031 125.773438 -25.394531 125.386719 -25.292969 C 123.367188 -24.769531 121.421875 -23.730469 119.542969 -22.175781 C 117.507812 -20.5 116.027344 -18.621094 115.089844 -16.539062 C 114.910156 -16.132812 114.777344 -15.78125 114.691406 -15.480469 L 114.6875 -15.457031 C 114.703125 -15.535156 114.742188 -15.773438 114.808594 -16.167969 L 120.136719 -46.277344 L 145.230469 -41.835938 L 119.945312 -44.996094 L 120.476562 -49.261719 L 145.761719 -46.101562 L 120.28125 -46.101562 C 120.28125 -44.355469 120.664062 -42.492188 121.425781 -40.515625 C 122.902344 -36.699219 125.359375 -33.574219 128.804688 -31.144531 C 130.964844 -29.621094 133.136719 -28.636719 135.320312 -28.191406 C 135.640625 -28.125 135.898438 -28.085938 136.097656 -28.070312 C 136.011719 -28.078125 135.859375 -28.078125 135.636719 -28.078125 L 37.34375 -28.078125 L 48.949219 -94.234375 L 121.515625 -94.234375 C 121.636719 -94.234375 121.738281 -94.234375 121.820312 -94.238281 L 121.8125 -94.238281 C 121.515625 -94.203125 121.160156 -94.132812 120.742188 -94.023438 C 118.542969 -93.441406 116.445312 -92.292969 114.453125 -90.570312 C 112.496094 -88.878906 111.082031 -87.027344 110.203125 -85.007812 C 110.046875 -84.648438 109.933594 -84.34375 109.867188 -84.097656 C 109.882812 -84.15625 109.933594 -84.441406 110.019531 -84.957031 L 115.347656 -114.800781 L 140.433594 -110.320312 L 115.148438 -113.484375 L 115.679688 -117.746094 L 140.96875 -114.585938 L 115.484375 -114.585938 C 115.484375 -112.839844 115.867188 -110.976562 116.632812 -109 C 118.105469 -105.183594 120.5625 -102.058594 124.007812 -99.628906 C 126.167969 -98.105469 128.339844 -97.121094 130.523438 -96.675781 C 130.84375 -96.613281 131.101562 -96.570312 131.300781 -96.554688 C 131.214844 -96.5625 131.0625 -96.566406 130.839844 -96.566406 L 49.40625 -96.566406 L 60.625 -161.386719 L 148.160156 -161.386719 C 148.34375 -161.386719 148.449219 -161.386719 148.484375 -161.390625 C 148.21875 -161.363281 147.890625 -161.296875 147.507812 -161.199219 C 145.488281 -160.671875 143.539062 -159.632812 141.660156 -158.082031 C 139.628906 -156.402344 138.144531 -154.523438 137.210938 -152.441406 C 137.027344 -152.035156 136.894531 -151.683594 136.808594 -151.382812 L 136.804688 -151.363281 C 136.820312 -151.441406 136.863281 -151.6875 136.933594 -152.109375 L 142.214844 -181.664062 C 142.164062 -181.371094 142.132812 -181.136719 142.121094 -180.96875 C 142.128906 -181.070312 142.132812 -181.238281 142.132812 -181.472656 C 142.132812 -179.621094 142.539062 -177.675781 143.355469 -175.636719 C 144.785156 -172.0625 147.101562 -169.117188 150.296875 -166.808594 C 152.324219 -165.34375 154.398438 -164.375 156.511719 -163.902344 C 156.917969 -163.808594 157.273438 -163.75 157.582031 -163.722656 C 157.621094 -163.71875 157.652344 -163.714844 157.664062 -163.714844 C 157.621094 -163.714844 157.5625 -163.71875 157.488281 -163.71875 Z M 157.488281 -163.71875 "/></g></g></g><g fill="#000000" fill-opacity="1"><g transform="translate(1471.94767, 296.332612)"><g><path d="M 119.382812 -214.683594 C 144.105469 -214.683594 164.15625 -207.894531 179.542969 -194.316406 C 187.84375 -186.996094 194.0625 -178.195312 198.207031 -167.921875 C 202.085938 -158.3125 204.023438 -147.640625 204.023438 -135.902344 C 204.023438 -128.601562 203.425781 -121.84375 202.230469 -115.636719 C 199.5 -100.382812 194.097656 -86.816406 186.023438 -74.941406 C 177.839844 -62.910156 167.132812 -52.996094 153.902344 -45.199219 L 140.96875 -67.152344 L 162.464844 -80.832031 C 166.027344 -75.234375 169.023438 -68.914062 171.453125 -61.867188 L 185.195312 -22.523438 L 185.359375 -21.980469 C 186.609375 -17.8125 187.234375 -13.773438 187.234375 -9.859375 C 187.234375 -5.023438 186.363281 -0.460938 184.617188 3.820312 C 182.675781 8.585938 179.789062 12.710938 175.960938 16.191406 C 169.148438 22.386719 160.59375 25.480469 150.292969 25.480469 L 114.320312 25.480469 C 102.222656 25.480469 92.210938 22.933594 84.285156 17.835938 C 75.019531 11.882812 68.832031 3.0625 65.714844 -8.625 L 56.757812 -40.21875 L 81.277344 -47.167969 L 56.992188 -39.441406 C 56.691406 -40.386719 56.429688 -41.101562 56.207031 -41.585938 C 56.324219 -41.335938 56.589844 -40.933594 57.007812 -40.382812 C 59.265625 -37.425781 62.0625 -35.316406 65.398438 -34.066406 C 67.039062 -33.449219 68.511719 -33.144531 69.816406 -33.144531 L 68.484375 -33.144531 L 68.484375 -58.625 L 93.582031 -54.203125 L 85.320312 -7.304688 C 83.640625 3.203125 79.308594 11.34375 72.324219 17.113281 C 65.570312 22.691406 56.917969 25.480469 46.367188 25.480469 L 7.996094 25.480469 C -1.128906 25.480469 -8.648438 23.394531 -14.5625 19.21875 C -19.515625 15.722656 -23.105469 11.089844 -25.335938 5.320312 C -26.855469 1.386719 -27.613281 -2.871094 -27.613281 -7.460938 L -27.613281 -9.046875 L -26.804688 -15.527344 L 2.621094 -181.914062 C 4.265625 -192.199219 8.410156 -200.214844 15.054688 -205.953125 C 21.792969 -211.773438 30.542969 -214.683594 41.304688 -214.683594 Z M 119.382812 -163.71875 L 41.304688 -163.71875 C 41.183594 -163.71875 41.082031 -163.714844 40.996094 -163.710938 L 41.003906 -163.714844 C 41.300781 -163.746094 41.660156 -163.816406 42.078125 -163.929688 C 44.273438 -164.507812 46.371094 -165.660156 48.367188 -167.382812 C 50.320312 -169.070312 51.738281 -170.925781 52.613281 -172.945312 C 52.773438 -173.304688 52.882812 -173.609375 52.949219 -173.855469 C 52.933594 -173.796875 52.886719 -173.523438 52.804688 -173.035156 L 23.492188 -7.289062 L -1.597656 -11.726562 L 23.6875 -8.5625 L 23.152344 -4.300781 L -2.132812 -7.460938 L 23.351562 -7.460938 C 23.351562 -9.207031 22.96875 -11.070312 22.203125 -13.046875 C 20.730469 -16.863281 18.269531 -19.988281 14.828125 -22.417969 C 12.667969 -23.941406 10.496094 -24.925781 8.308594 -25.371094 C 7.992188 -25.4375 7.730469 -25.476562 7.535156 -25.492188 C 7.621094 -25.484375 7.773438 -25.480469 7.996094 -25.480469 L 46.367188 -25.480469 C 46.546875 -25.480469 46.65625 -25.484375 46.691406 -25.488281 C 46.421875 -25.457031 46.097656 -25.394531 45.710938 -25.292969 C 43.691406 -24.769531 41.742188 -23.730469 39.863281 -22.175781 C 37.832031 -20.5 36.347656 -18.621094 35.414062 -16.539062 C 35.230469 -16.132812 35.097656 -15.78125 35.015625 -15.480469 L 35.007812 -15.457031 C 35.027344 -15.535156 35.066406 -15.765625 35.128906 -16.144531 L 47.097656 -84.109375 L 69.816406 -84.109375 C 74.675781 -84.109375 79.167969 -83.332031 83.292969 -81.785156 C 89.121094 -79.601562 93.871094 -76.097656 97.546875 -71.269531 C 100.753906 -67.066406 103.421875 -61.605469 105.558594 -54.894531 L 105.683594 -54.503906 L 114.957031 -21.753906 C 114.980469 -21.671875 115 -21.609375 115.015625 -21.558594 C 115.011719 -21.570312 115.003906 -21.589844 114.988281 -21.628906 C 114.882812 -21.867188 114.734375 -22.132812 114.535156 -22.429688 C 113.859375 -23.445312 112.960938 -24.316406 111.84375 -25.03125 C 111.367188 -25.339844 110.917969 -25.574219 110.503906 -25.738281 C 110.417969 -25.773438 110.347656 -25.796875 110.296875 -25.8125 C 110.320312 -25.804688 110.367188 -25.792969 110.433594 -25.78125 C 111.328125 -25.582031 112.625 -25.480469 114.320312 -25.480469 L 150.292969 -25.480469 C 149.566406 -25.480469 148.675781 -25.316406 147.621094 -24.988281 C 145.460938 -24.3125 143.480469 -23.15625 141.679688 -21.519531 C 139.804688 -19.816406 138.386719 -17.78125 137.421875 -15.410156 C 136.652344 -13.527344 136.269531 -11.675781 136.269531 -9.859375 C 136.269531 -8.789062 136.363281 -7.945312 136.546875 -7.335938 L 160.953125 -14.65625 L 136.894531 -6.253906 L 123.273438 -45.253906 C 122.148438 -48.515625 120.878906 -51.253906 119.46875 -53.472656 L 105.3125 -75.71875 L 128.03125 -89.105469 C 134.695312 -93.035156 139.980469 -97.867188 143.878906 -103.597656 C 147.882812 -109.488281 150.652344 -116.707031 152.183594 -125.261719 C 152.765625 -128.289062 153.058594 -131.835938 153.058594 -135.902344 C 153.058594 -141.046875 152.355469 -145.363281 150.945312 -148.855469 C 149.804688 -151.679688 148.097656 -154.097656 145.824219 -156.101562 C 140.070312 -161.179688 131.257812 -163.71875 119.382812 -163.71875 Z M 97.796875 -134.207031 C 96.734375 -134.207031 95.574219 -133.9375 94.320312 -133.40625 C 92.753906 -132.738281 91.4375 -131.808594 90.371094 -130.613281 C 89.621094 -129.769531 89.054688 -128.8125 88.671875 -127.738281 C 88.425781 -127.046875 88.304688 -126.480469 88.304688 -126.042969 C 88.304688 -124.511719 88.628906 -122.890625 89.28125 -121.183594 C 90.265625 -118.601562 91.804688 -116.363281 93.890625 -114.476562 C 95.792969 -112.757812 97.875 -111.554688 100.132812 -110.875 C 101.132812 -110.574219 101.953125 -110.421875 102.59375 -110.421875 L 82.074219 -110.421875 L 82.074219 -135.902344 L 107.167969 -131.476562 L 102.375 -104.292969 L 77.277344 -108.722656 L 77.277344 -134.207031 Z M 97.796875 -83.242188 L 46.90625 -83.242188 L 60.695312 -161.386719 L 102.59375 -161.386719 C 112.871094 -161.386719 121.367188 -158.347656 128.085938 -152.269531 C 132.039062 -148.691406 134.972656 -144.390625 136.894531 -139.363281 C 138.476562 -135.214844 139.269531 -130.777344 139.269531 -126.042969 C 139.269531 -114.59375 135.648438 -104.8125 128.40625 -96.691406 C 124.410156 -92.210938 119.695312 -88.816406 114.265625 -86.507812 C 109.148438 -84.328125 103.660156 -83.242188 97.796875 -83.242188 Z M 97.796875 -83.242188 "/></g></g></g><g fill="#000000" fill-opacity="1"><g transform="translate(1649.421968, 296.332612)"><g><path d="M -9.371094 -141.929688 C -7.164062 -154.433594 -2.839844 -165.601562 3.609375 -175.429688 C 10.140625 -185.386719 18.675781 -193.722656 29.214844 -200.433594 C 48.3125 -212.597656 73.214844 -218.679688 103.925781 -218.679688 C 128.195312 -218.679688 147.882812 -214.515625 162.992188 -206.1875 C 171.585938 -201.449219 178.855469 -195.367188 184.804688 -187.941406 C 190.636719 -180.664062 195.050781 -172.265625 198.046875 -162.746094 L 173.742188 -155.089844 L 197.691406 -163.796875 C 199.425781 -159.03125 200.292969 -154.351562 200.292969 -149.761719 C 200.292969 -145.269531 199.417969 -140.996094 197.664062 -136.949219 C 195.910156 -132.890625 193.390625 -129.320312 190.105469 -126.242188 C 186.464844 -122.828125 181.550781 -119.816406 175.371094 -117.214844 L 175.074219 -117.089844 L 142.796875 -104.449219 C 136.839844 -102.214844 131.523438 -101.09375 126.84375 -101.09375 C 122.636719 -101.09375 118.640625 -101.863281 114.855469 -103.402344 C 110.628906 -105.117188 106.960938 -107.660156 103.855469 -111.023438 C 100.3125 -114.863281 97.519531 -119.851562 95.472656 -125.980469 C 96.039062 -124.347656 96.945312 -122.878906 98.183594 -121.578125 C 99.683594 -120 101.40625 -118.863281 103.351562 -118.167969 C 102.390625 -118.511719 100.804688 -118.683594 98.597656 -118.683594 C 96.511719 -118.683594 94.855469 -118.578125 93.628906 -118.371094 C 93.382812 -118.332031 93.234375 -118.300781 93.175781 -118.285156 C 93.496094 -118.382812 93.875 -118.542969 94.320312 -118.765625 C 96.597656 -119.917969 98.539062 -121.714844 100.144531 -124.15625 C 102.066406 -127.074219 103.027344 -130.191406 103.027344 -133.503906 C 103.027344 -138.277344 101.414062 -142.476562 98.191406 -146.105469 C 96.238281 -148.300781 94.175781 -149.761719 92 -150.484375 C 94.929688 -149.507812 100.761719 -148.332031 109.5 -146.949219 C 130.519531 -143.699219 148.625 -136.84375 163.816406 -126.378906 C 173.632812 -119.613281 181.015625 -110.898438 185.96875 -100.226562 C 190.542969 -90.363281 192.832031 -79.160156 192.832031 -66.621094 C 192.832031 -59.539062 192.207031 -53.011719 190.960938 -47.03125 L 166.015625 -52.230469 L 191.109375 -47.789062 C 188.71875 -34.285156 184.175781 -22.46875 177.484375 -12.335938 C 170.472656 -1.71875 161.3125 6.777344 150.007812 13.144531 C 130.671875 24.035156 105.09375 29.480469 73.28125 29.480469 C 49.230469 29.480469 28.597656 25.425781 11.394531 17.324219 C 1.117188 12.484375 -7.257812 6.195312 -13.726562 -1.546875 C -20.609375 -9.785156 -25.085938 -19.304688 -27.15625 -30.109375 C -27.640625 -32.515625 -27.878906 -35.359375 -27.878906 -38.640625 C -27.878906 -42.96875 -27.195312 -47.074219 -25.828125 -50.949219 C -24.226562 -55.492188 -21.78125 -59.492188 -18.5 -62.960938 C -14.234375 -67.460938 -8.429688 -71.109375 -1.078125 -73.910156 L 30.957031 -85.855469 L 31.378906 -85.996094 C 37.726562 -88.113281 43.078125 -89.171875 47.433594 -89.171875 C 55.546875 -89.171875 62.664062 -86.519531 68.785156 -81.210938 C 73.070312 -77.5 76.511719 -72.605469 79.117188 -66.53125 L 79.238281 -66.246094 L 79.355469 -65.957031 C 78.65625 -67.703125 77.585938 -69.246094 76.144531 -70.59375 C 74.945312 -71.710938 73.695312 -72.507812 72.398438 -72.980469 C 72.617188 -72.898438 73.148438 -72.804688 73.984375 -72.691406 C 75.53125 -72.484375 77.429688 -72.382812 79.675781 -72.382812 C 82.414062 -72.382812 84.714844 -72.492188 86.570312 -72.707031 C 87.617188 -72.832031 88.265625 -72.933594 88.507812 -73.019531 C 86.488281 -72.328125 84.609375 -71.066406 82.878906 -69.238281 C 80.675781 -66.910156 79.273438 -64.238281 78.671875 -61.222656 L 103.660156 -56.226562 L 78.460938 -60.007812 C 78.167969 -58.054688 78.214844 -56.046875 78.601562 -53.992188 C 79.085938 -51.425781 80.042969 -49.050781 81.480469 -46.859375 C 83.527344 -43.730469 86.019531 -41.570312 88.949219 -40.371094 C 86.878906 -41.21875 82.292969 -42.195312 75.195312 -43.3125 C 61.429688 -45.535156 49.296875 -48.574219 38.800781 -52.417969 C 25.726562 -57.207031 14.472656 -65.023438 5.03125 -75.871094 C -5.71875 -88.214844 -11.09375 -104.050781 -11.09375 -123.378906 C -11.09375 -128.429688 -10.546875 -134.449219 -9.453125 -141.4375 Z M 40.898438 -133.570312 C 40.214844 -129.1875 39.871094 -125.789062 39.871094 -123.378906 C 39.871094 -116.769531 41.070312 -112.085938 43.46875 -109.332031 C 47.175781 -105.078125 51.460938 -102.058594 56.332031 -100.273438 C 63.777344 -97.546875 72.699219 -95.339844 83.09375 -93.660156 C 94.113281 -91.929688 102.5 -89.890625 108.246094 -87.539062 C 115.085938 -84.742188 120.371094 -80.492188 124.109375 -74.789062 C 128.503906 -68.078125 130.089844 -60.632812 128.859375 -52.445312 L 128.769531 -51.835938 L 128.648438 -51.230469 C 127.335938 -44.664062 124.421875 -38.996094 119.910156 -34.222656 C 115.871094 -29.949219 110.882812 -26.800781 104.953125 -24.78125 C 98.378906 -22.539062 89.953125 -21.417969 79.675781 -21.417969 C 69.933594 -21.417969 61.699219 -22.640625 54.980469 -25.085938 C 49.773438 -26.976562 45.234375 -29.726562 41.371094 -33.335938 C 37.265625 -37.167969 34.152344 -41.730469 32.035156 -47.03125 L 55.695312 -56.492188 L 32.273438 -46.457031 C 32.335938 -46.308594 32.480469 -46.0625 32.714844 -45.710938 C 33.402344 -44.660156 34.300781 -43.65625 35.40625 -42.699219 C 38.863281 -39.703125 42.871094 -38.207031 47.433594 -38.207031 C 48.589844 -38.207031 49.453125 -38.273438 50.027344 -38.40625 C 49.460938 -38.273438 48.617188 -38.023438 47.496094 -37.648438 L 39.4375 -61.824219 L 48.34375 -37.945312 L 17.066406 -26.285156 C 16.507812 -26.070312 16.164062 -25.929688 16.039062 -25.855469 C 16.804688 -26.304688 17.625 -26.988281 18.5 -27.910156 C 20.183594 -29.6875 21.429688 -31.714844 22.230469 -33.988281 C 22.800781 -35.601562 23.082031 -37.152344 23.082031 -38.640625 C 23.082031 -38.503906 23.085938 -38.394531 23.089844 -38.304688 L 23.085938 -38.324219 C 23.054688 -38.769531 22.988281 -39.234375 22.894531 -39.707031 C 23.308594 -37.542969 24.140625 -35.714844 25.382812 -34.226562 C 27.042969 -32.242188 29.617188 -30.425781 33.109375 -28.78125 C 43.4375 -23.917969 56.828125 -21.484375 73.28125 -21.484375 C 96.183594 -21.484375 113.421875 -24.746094 124.996094 -31.261719 C 129.148438 -33.601562 132.46875 -36.65625 134.960938 -40.425781 C 137.773438 -44.683594 139.761719 -50.097656 140.921875 -56.671875 L 140.992188 -57.050781 L 141.070312 -57.425781 C 141.601562 -59.976562 141.867188 -63.039062 141.867188 -66.621094 C 141.867188 -71.664062 141.15625 -75.71875 139.734375 -78.78125 C 138.691406 -81.03125 137.078125 -82.910156 134.90625 -84.40625 C 126.113281 -90.464844 114.996094 -94.53125 101.550781 -96.609375 C 90.035156 -98.429688 81.480469 -100.269531 75.882812 -102.136719 C 69.441406 -104.28125 64.179688 -107.652344 60.097656 -112.246094 C 54.742188 -118.273438 52.0625 -125.359375 52.0625 -133.503906 C 52.0625 -140.371094 53.902344 -146.597656 57.578125 -152.179688 C 60.9375 -157.289062 65.511719 -161.304688 71.296875 -164.234375 C 78.425781 -167.84375 87.523438 -169.648438 98.597656 -169.648438 C 106.691406 -169.648438 113.988281 -168.484375 120.492188 -166.164062 C 126.167969 -164.136719 131.042969 -160.980469 135.117188 -156.695312 C 138.933594 -152.679688 141.835938 -147.8125 143.824219 -142.097656 C 143.871094 -141.957031 143.90625 -141.859375 143.925781 -141.804688 C 143.886719 -141.90625 143.820312 -142.042969 143.734375 -142.214844 C 143.160156 -143.332031 142.351562 -144.460938 141.304688 -145.59375 C 139.265625 -147.804688 136.839844 -149.480469 134.035156 -150.617188 C 131.671875 -151.578125 129.273438 -152.058594 126.84375 -152.058594 C 125.632812 -152.058594 124.605469 -151.957031 123.761719 -151.753906 C 123.851562 -151.777344 124.003906 -151.828125 124.210938 -151.902344 L 156.191406 -164.429688 L 165.484375 -140.699219 L 155.59375 -164.1875 C 156.320312 -164.492188 156.832031 -164.730469 157.125 -164.898438 C 156.609375 -164.601562 155.984375 -164.109375 155.25 -163.421875 C 153.386719 -161.675781 151.933594 -159.59375 150.886719 -157.175781 C 149.847656 -154.773438 149.328125 -152.300781 149.328125 -149.761719 C 149.328125 -148.367188 149.484375 -147.242188 149.796875 -146.382812 L 149.605469 -146.902344 L 149.4375 -147.433594 C 148.351562 -150.882812 146.882812 -153.765625 145.027344 -156.082031 C 143.292969 -158.246094 141.082031 -160.070312 138.394531 -161.554688 C 130.941406 -165.660156 119.453125 -167.714844 103.925781 -167.714844 C 83.117188 -167.714844 67.339844 -164.292969 56.59375 -157.445312 C 52.207031 -154.65625 48.75 -151.332031 46.222656 -147.476562 C 43.609375 -143.492188 41.808594 -138.691406 40.816406 -133.074219 Z M 40.898438 -133.570312 "/></g></g></g><g fill="#000000" fill-opacity="1"><g transform="translate(1822.36609, 296.332612)"><g><path d="M 157.488281 -214.683594 C 166.535156 -214.683594 174.085938 -212.496094 180.136719 -208.125 C 184.929688 -204.660156 188.445312 -200.140625 190.675781 -194.566406 C 192.289062 -190.53125 193.097656 -186.164062 193.097656 -181.472656 C 193.097656 -178.46875 192.894531 -175.738281 192.484375 -173.285156 L 187.105469 -143.148438 C 185.433594 -132.679688 181.101562 -124.558594 174.117188 -118.789062 C 167.363281 -113.210938 158.710938 -110.421875 148.160156 -110.421875 L 82.074219 -110.421875 L 82.074219 -135.902344 L 107.183594 -131.558594 L 104.785156 -117.703125 L 79.675781 -122.046875 L 79.675781 -147.527344 L 130.839844 -147.527344 C 139.964844 -147.527344 147.480469 -145.441406 153.398438 -141.265625 C 158.351562 -137.769531 161.941406 -133.136719 164.171875 -127.367188 C 165.691406 -123.433594 166.449219 -119.175781 166.449219 -114.585938 L 166.449219 -113 L 165.636719 -106.5 L 160.191406 -75.996094 C 158.550781 -65.738281 154.410156 -57.738281 147.761719 -51.996094 C 141.027344 -46.179688 132.277344 -43.269531 121.515625 -43.269531 L 70.351562 -43.269531 L 70.351562 -68.75 L 95.449219 -64.347656 L 92.785156 -49.160156 L 67.683594 -53.5625 L 67.683594 -79.042969 L 135.636719 -79.042969 C 144.761719 -79.042969 152.277344 -76.957031 158.195312 -72.78125 C 163.148438 -69.285156 166.738281 -64.652344 168.96875 -58.882812 C 170.484375 -54.949219 171.246094 -50.691406 171.246094 -46.101562 L 171.246094 -44.515625 L 170.4375 -38.035156 L 164.992188 -7.285156 C 163.316406 3.210938 158.984375 11.34375 152 17.113281 C 145.246094 22.691406 136.59375 25.480469 126.042969 25.480469 L 7.996094 25.480469 C -1.128906 25.480469 -8.648438 23.394531 -14.5625 19.21875 C -19.515625 15.722656 -23.105469 11.089844 -25.335938 5.320312 C -26.855469 1.386719 -27.613281 -2.871094 -27.613281 -7.460938 L -27.613281 -9.046875 L -26.804688 -15.527344 L 2.621094 -181.914062 C 4.265625 -192.199219 8.410156 -200.214844 15.054688 -205.953125 C 21.792969 -211.773438 30.542969 -214.683594 41.304688 -214.683594 Z M 157.488281 -163.71875 L 41.304688 -163.71875 C 41.183594 -163.71875 41.082031 -163.714844 40.996094 -163.710938 L 41.003906 -163.714844 C 41.300781 -163.746094 41.660156 -163.816406 42.078125 -163.929688 C 44.273438 -164.507812 46.371094 -165.660156 48.367188 -167.382812 C 50.320312 -169.070312 51.738281 -170.925781 52.613281 -172.945312 C 52.773438 -173.304688 52.882812 -173.609375 52.949219 -173.855469 C 52.933594 -173.796875 52.886719 -173.523438 52.804688 -173.035156 L 23.492188 -7.289062 L -1.597656 -11.726562 L 23.6875 -8.5625 L 23.152344 -4.300781 L -2.132812 -7.460938 L 23.351562 -7.460938 C 23.351562 -9.207031 22.96875 -11.070312 22.203125 -13.046875 C 20.730469 -16.863281 18.269531 -19.988281 14.828125 -22.417969 C 12.667969 -23.941406 10.496094 -24.925781 8.308594 -25.371094 C 7.992188 -25.4375 7.730469 -25.476562 7.535156 -25.492188 C 7.621094 -25.484375 7.773438 -25.480469 7.996094 -25.480469 L 126.042969 -25.480469 C 126.222656 -25.480469 126.332031 -25.484375 126.367188 -25.488281 C 126.101562 -25.457031 125.773438 -25.394531 125.386719 -25.292969 C 123.367188 -24.769531 121.421875 -23.730469 119.542969 -22.175781 C 117.507812 -20.5 116.027344 -18.621094 115.089844 -16.539062 C 114.910156 -16.132812 114.777344 -15.78125 114.691406 -15.480469 L 114.6875 -15.457031 C 114.703125 -15.535156 114.742188 -15.773438 114.808594 -16.167969 L 120.136719 -46.277344 L 145.230469 -41.835938 L 119.945312 -44.996094 L 120.476562 -49.261719 L 145.761719 -46.101562 L 120.28125 -46.101562 C 120.28125 -44.355469 120.664062 -42.492188 121.425781 -40.515625 C 122.902344 -36.699219 125.359375 -33.574219 128.804688 -31.144531 C 130.964844 -29.621094 133.136719 -28.636719 135.320312 -28.191406 C 135.640625 -28.125 135.898438 -28.085938 136.097656 -28.070312 C 136.011719 -28.078125 135.859375 -28.078125 135.636719 -28.078125 L 37.34375 -28.078125 L 48.949219 -94.234375 L 121.515625 -94.234375 C 121.636719 -94.234375 121.738281 -94.234375 121.820312 -94.238281 L 121.8125 -94.238281 C 121.515625 -94.203125 121.160156 -94.132812 120.742188 -94.023438 C 118.542969 -93.441406 116.445312 -92.292969 114.453125 -90.570312 C 112.496094 -88.878906 111.082031 -87.027344 110.203125 -85.007812 C 110.046875 -84.648438 109.933594 -84.34375 109.867188 -84.097656 C 109.882812 -84.15625 109.933594 -84.441406 110.019531 -84.957031 L 115.347656 -114.800781 L 140.433594 -110.320312 L 115.148438 -113.484375 L 115.679688 -117.746094 L 140.96875 -114.585938 L 115.484375 -114.585938 C 115.484375 -112.839844 115.867188 -110.976562 116.632812 -109 C 118.105469 -105.183594 120.5625 -102.058594 124.007812 -99.628906 C 126.167969 -98.105469 128.339844 -97.121094 130.523438 -96.675781 C 130.84375 -96.613281 131.101562 -96.570312 131.300781 -96.554688 C 131.214844 -96.5625 131.0625 -96.566406 130.839844 -96.566406 L 49.40625 -96.566406 L 60.625 -161.386719 L 148.160156 -161.386719 C 148.34375 -161.386719 148.449219 -161.386719 148.484375 -161.390625 C 148.21875 -161.363281 147.890625 -161.296875 147.507812 -161.199219 C 145.488281 -160.671875 143.539062 -159.632812 141.660156 -158.082031 C 139.628906 -156.402344 138.144531 -154.523438 137.210938 -152.441406 C 137.027344 -152.035156 136.894531 -151.683594 136.808594 -151.382812 L 136.804688 -151.363281 C 136.820312 -151.441406 136.863281 -151.6875 136.933594 -152.109375 L 142.214844 -181.664062 C 142.164062 -181.371094 142.132812 -181.136719 142.121094 -180.96875 C 142.128906 -181.070312 142.132812 -181.238281 142.132812 -181.472656 C 142.132812 -179.621094 142.539062 -177.675781 143.355469 -175.636719 C 144.785156 -172.0625 147.101562 -169.117188 150.296875 -166.808594 C 152.324219 -165.34375 154.398438 -164.375 156.511719 -163.902344 C 156.917969 -163.808594 157.273438 -163.75 157.582031 -163.722656 C 157.621094 -163.71875 157.652344 -163.714844 157.664062 -163.714844 C 157.621094 -163.714844 157.5625 -163.71875 157.488281 -163.71875 Z M 157.488281 -163.71875 "/></g></g></g><g fill="#000000" fill-opacity="1"><g transform="translate(1980.120978, 296.332612)"><g><path d="M 196.660156 -214.683594 C 203.960938 -214.683594 210.285156 -213 215.632812 -209.632812 C 220.074219 -206.835938 223.503906 -203.152344 225.925781 -198.574219 C 228.199219 -194.277344 229.339844 -189.644531 229.339844 -184.667969 C 229.339844 -176.578125 226.410156 -168.875 220.554688 -161.554688 L 200.65625 -177.472656 L 220.992188 -162.117188 L 142.117188 -57.660156 L 121.78125 -73.015625 L 146.886719 -68.648438 L 136.226562 -7.359375 C 134.542969 3.1875 130.207031 11.34375 123.21875 17.113281 C 116.46875 22.691406 107.816406 25.480469 97.265625 25.480469 L 58.890625 25.480469 C 49.769531 25.480469 42.25 23.394531 36.335938 19.21875 C 31.382812 15.722656 27.792969 11.089844 25.5625 5.320312 C 24.042969 1.386719 23.285156 -2.871094 23.285156 -7.460938 L 23.285156 -9.046875 L 24.089844 -15.507812 L 34.859375 -76.886719 L 59.957031 -72.480469 L 36.265625 -63.101562 L -5.304688 -168.09375 L 18.386719 -177.472656 L -4.898438 -167.125 C -7.074219 -172.019531 -8.160156 -177.15625 -8.160156 -182.539062 C -8.160156 -187.21875 -7.257812 -191.613281 -5.453125 -195.714844 C -3.3125 -200.585938 -0.117188 -204.628906 4.132812 -207.847656 C 10.148438 -212.402344 17.476562 -214.683594 26.113281 -214.683594 L 63.6875 -214.683594 C 74.527344 -214.683594 82.792969 -213.503906 88.488281 -211.148438 C 98.121094 -207.160156 104.988281 -199.246094 109.085938 -187.410156 L 124.675781 -139.839844 L 100.460938 -131.90625 L 79.703125 -146.683594 L 113.277344 -193.851562 C 119.375 -202.660156 126.332031 -208.527344 134.152344 -211.460938 C 139.878906 -213.609375 147.925781 -214.683594 158.289062 -214.683594 Z M 196.660156 -163.71875 L 158.289062 -163.71875 C 155.539062 -163.71875 153.339844 -163.628906 151.695312 -163.457031 C 151.230469 -163.410156 150.898438 -163.363281 150.699219 -163.324219 C 151.039062 -163.390625 151.488281 -163.53125 152.046875 -163.742188 C 153.820312 -164.40625 155.191406 -165.195312 156.167969 -166.113281 C 155.960938 -165.921875 155.503906 -165.3125 154.796875 -164.296875 L 91.960938 -76.023438 L 60.925781 -170.738281 C 60.886719 -170.851562 60.851562 -170.941406 60.824219 -171.011719 C 60.828125 -171 60.84375 -170.96875 60.871094 -170.917969 C 61.066406 -170.515625 61.34375 -170.074219 61.703125 -169.585938 C 63.46875 -167.179688 65.902344 -165.335938 69 -164.054688 C 69.8125 -163.71875 70.511719 -163.488281 71.105469 -163.363281 C 71 -163.386719 70.753906 -163.417969 70.359375 -163.460938 C 68.742188 -163.632812 66.519531 -163.71875 63.6875 -163.71875 L 26.113281 -163.71875 C 26.761719 -163.71875 27.558594 -163.835938 28.507812 -164.078125 C 30.753906 -164.644531 32.886719 -165.691406 34.90625 -167.222656 C 37.6875 -169.332031 39.785156 -171.984375 41.195312 -175.191406 C 42.265625 -177.625 42.804688 -180.074219 42.804688 -182.539062 C 42.804688 -184.367188 42.425781 -186.128906 41.671875 -187.824219 L 41.886719 -187.34375 L 86.300781 -75.167969 L 74.398438 -7.320312 L 49.296875 -11.726562 L 74.582031 -8.5625 L 74.050781 -4.300781 L 48.765625 -7.460938 L 74.246094 -7.460938 C 74.246094 -9.207031 73.867188 -11.070312 73.101562 -13.046875 C 71.628906 -16.863281 69.167969 -19.988281 65.726562 -22.417969 C 63.566406 -23.941406 61.394531 -24.925781 59.207031 -25.371094 C 58.886719 -25.4375 58.628906 -25.476562 58.433594 -25.492188 C 58.519531 -25.484375 58.671875 -25.480469 58.890625 -25.480469 L 97.265625 -25.480469 C 97.445312 -25.480469 97.554688 -25.484375 97.589844 -25.488281 C 97.320312 -25.457031 96.992188 -25.394531 96.609375 -25.292969 C 94.589844 -24.769531 92.640625 -23.730469 90.761719 -22.175781 C 88.730469 -20.5 87.246094 -18.621094 86.3125 -16.539062 C 86.128906 -16.132812 85.996094 -15.78125 85.914062 -15.480469 L 85.90625 -15.457031 C 85.921875 -15.535156 85.960938 -15.746094 86.015625 -16.089844 L 97.730469 -83.453125 L 180.539062 -193.113281 L 180.761719 -193.394531 C 180.457031 -193.015625 180.128906 -192.425781 179.769531 -191.621094 C 178.839844 -189.527344 178.375 -187.207031 178.375 -184.667969 C 178.375 -181.203125 179.210938 -177.890625 180.886719 -174.730469 C 182.707031 -171.285156 185.238281 -168.542969 188.480469 -166.503906 C 190.460938 -165.257812 192.492188 -164.414062 194.574219 -163.976562 C 195.402344 -163.804688 196.097656 -163.71875 196.660156 -163.71875 Z M 196.660156 -163.71875 "/></g></g></g><g fill="#ffffff" fill-opacity="1"><g transform="translate(1158.036734, 296.332612)"><g><path d="M 154.5625 -189.203125 C 158.113281 -189.203125 160.644531 -188.664062 162.15625 -187.59375 C 163.664062 -186.53125 164.421875 -184.671875 164.421875 -182.015625 C 164.421875 -181.296875 164.242188 -179.875 163.890625 -177.75 L 143.640625 -62.625 C 139.546875 -40.0625 130.523438 -23.316406 116.578125 -12.390625 C 102.640625 -1.460938 83.234375 4 58.359375 4 C 39.703125 4 25 -0.0820312 14.25 -8.25 C 3.507812 -16.425781 -3.367188 -28.066406 -6.390625 -43.171875 C -6.566406 -44.054688 -6.65625 -45.210938 -6.65625 -46.640625 C -6.65625 -49.484375 -5.851562 -51.789062 -4.25 -53.5625 C -2.65625 -55.34375 0.00390625 -56.851562 3.734375 -58.09375 L 36.78125 -69.28125 C 39.800781 -70.351562 42.195312 -70.890625 43.96875 -70.890625 C 45.925781 -70.890625 47.476562 -70.265625 48.625 -69.015625 C 49.78125 -67.773438 50.71875 -65.734375 51.4375 -62.890625 C 53.738281 -53.828125 58.890625 -49.296875 66.890625 -49.296875 C 75.054688 -49.296875 80.207031 -55.160156 82.34375 -66.890625 L 102.0625 -177.75 C 102.945312 -182.007812 104.320312 -184.984375 106.1875 -186.671875 C 108.050781 -188.359375 111.207031 -189.203125 115.65625 -189.203125 Z M 154.5625 -189.203125 "/></g></g></g><g fill="#ffffff" fill-opacity="1"><g transform="translate(1314.19276, 296.332612)"><g><path d="M 157.5 -189.203125 C 161.050781 -189.203125 163.625 -188.625 165.21875 -187.46875 C 166.820312 -186.3125 167.625 -184.3125 167.625 -181.46875 C 167.625 -179.875 167.535156 -178.546875 167.359375 -177.484375 L 162.015625 -147.625 C 161.304688 -143.1875 159.929688 -140.125 157.890625 -138.4375 C 155.847656 -136.75 152.609375 -135.90625 148.171875 -135.90625 L 82.078125 -135.90625 L 79.671875 -122.046875 L 130.84375 -122.046875 C 134.570312 -122.046875 137.191406 -121.515625 138.703125 -120.453125 C 140.210938 -119.390625 140.96875 -117.4375 140.96875 -114.59375 L 140.4375 -110.328125 L 135.109375 -80.484375 C 134.398438 -76.035156 133.066406 -72.96875 131.109375 -71.28125 C 129.148438 -69.59375 125.953125 -68.75 121.515625 -68.75 L 70.359375 -68.75 L 67.6875 -53.5625 L 135.640625 -53.5625 C 139.367188 -53.5625 141.988281 -53.023438 143.5 -51.953125 C 145.007812 -50.890625 145.765625 -48.941406 145.765625 -46.109375 L 145.234375 -41.84375 L 139.90625 -11.71875 C 139.195312 -7.28125 137.816406 -4.21875 135.765625 -2.53125 C 133.722656 -0.84375 130.484375 0 126.046875 0 L 8 0 C 4.257812 0 1.632812 -0.53125 0.125 -1.59375 C -1.375 -2.664062 -2.125 -4.625 -2.125 -7.46875 L -1.59375 -11.71875 L 27.71875 -177.484375 C 28.425781 -181.921875 29.753906 -184.984375 31.703125 -186.671875 C 33.660156 -188.359375 36.863281 -189.203125 41.3125 -189.203125 Z M 157.5 -189.203125 "/></g></g></g><g fill="#ffffff" fill-opacity="1"><g transform="translate(1471.94767, 296.332612)"><g><path d="M 119.390625 -189.203125 C 137.679688 -189.203125 152.113281 -184.535156 162.6875 -175.203125 C 173.257812 -165.878906 178.546875 -152.78125 178.546875 -135.90625 C 178.546875 -130.21875 178.101562 -125.066406 177.21875 -120.453125 C 172.945312 -96.640625 160.863281 -78.875 140.96875 -67.15625 C 143.457031 -63.25 145.585938 -58.71875 147.359375 -53.5625 L 160.953125 -14.65625 C 161.484375 -12.875 161.75 -11.273438 161.75 -9.859375 C 161.75 -6.835938 160.769531 -4.4375 158.8125 -2.65625 C 156.863281 -0.882812 154.023438 0 150.296875 0 L 114.328125 0 C 107.210938 0 101.789062 -1.195312 98.0625 -3.59375 C 94.332031 -5.988281 91.757812 -9.851562 90.34375 -15.1875 L 81.28125 -47.171875 C 80.03125 -51.078125 78.695312 -53.960938 77.28125 -55.828125 C 75.863281 -57.691406 73.375 -58.625 69.8125 -58.625 L 68.484375 -58.625 L 60.21875 -11.71875 C 59.507812 -7.28125 58.132812 -4.21875 56.09375 -2.53125 C 54.050781 -0.84375 50.8125 0 46.375 0 L 8 0 C 4.257812 0 1.632812 -0.53125 0.125 -1.59375 C -1.375 -2.664062 -2.125 -4.625 -2.125 -7.46875 L -1.59375 -11.71875 L 27.71875 -177.484375 C 28.425781 -181.921875 29.753906 -184.984375 31.703125 -186.671875 C 33.660156 -188.359375 36.863281 -189.203125 41.3125 -189.203125 Z M 97.796875 -108.71875 C 102.597656 -108.71875 106.460938 -110.359375 109.390625 -113.640625 C 112.316406 -116.929688 113.78125 -121.066406 113.78125 -126.046875 C 113.78125 -129.242188 112.847656 -131.6875 110.984375 -133.375 C 109.117188 -135.0625 106.320312 -135.90625 102.59375 -135.90625 L 82.078125 -135.90625 L 77.28125 -108.71875 Z M 97.796875 -108.71875 "/></g></g></g><g fill="#ffffff" fill-opacity="1"><g transform="translate(1649.421968, 296.332612)"><g><path d="M 15.71875 -137.5 C 18.914062 -155.625 27.972656 -169.4375 42.890625 -178.9375 C 57.816406 -188.445312 78.160156 -193.203125 103.921875 -193.203125 C 123.828125 -193.203125 139.421875 -190.09375 150.703125 -183.875 C 161.984375 -177.65625 169.664062 -168.0625 173.75 -155.09375 C 174.457031 -153.132812 174.8125 -151.359375 174.8125 -149.765625 C 174.8125 -147.804688 174.097656 -146.160156 172.671875 -144.828125 C 171.253906 -143.492188 168.859375 -142.117188 165.484375 -140.703125 L 133.515625 -128.171875 C 130.671875 -127.109375 128.445312 -126.578125 126.84375 -126.578125 C 125.070312 -126.578125 123.648438 -127.15625 122.578125 -128.3125 C 121.515625 -129.46875 120.539062 -131.378906 119.65625 -134.046875 C 118.226562 -138.128906 115.648438 -140.835938 111.921875 -142.171875 C 108.191406 -143.503906 103.75 -144.171875 98.59375 -144.171875 C 84.5625 -144.171875 77.546875 -140.617188 77.546875 -133.515625 C 77.546875 -130.140625 79.675781 -127.738281 83.9375 -126.3125 C 88.207031 -124.894531 95.40625 -123.382812 105.53125 -121.78125 C 122.757812 -119.113281 137.367188 -113.648438 149.359375 -105.390625 C 161.359375 -97.128906 167.359375 -84.207031 167.359375 -66.625 C 167.359375 -61.289062 166.910156 -56.492188 166.015625 -52.234375 C 162.460938 -32.160156 152.957031 -17.769531 137.5 -9.0625 C 122.050781 -0.351562 100.644531 4 73.28125 4 C 53.03125 4 36.019531 0.757812 22.25 -5.71875 C 8.476562 -12.207031 0.351562 -21.9375 -2.125 -34.90625 C -2.300781 -35.789062 -2.390625 -37.035156 -2.390625 -38.640625 C -2.390625 -41.484375 -1.59375 -43.75 0 -45.4375 C 1.59375 -47.125 4.257812 -48.675781 8 -50.09375 L 39.4375 -61.828125 C 43.164062 -63.066406 45.832031 -63.6875 47.4375 -63.6875 C 49.207031 -63.6875 50.757812 -63.109375 52.09375 -61.953125 C 53.425781 -60.796875 54.625 -58.976562 55.6875 -56.5 C 57.113281 -52.945312 59.78125 -50.457031 63.6875 -49.03125 C 67.59375 -47.613281 72.921875 -46.90625 79.671875 -46.90625 C 87.140625 -46.90625 92.828125 -47.570312 96.734375 -48.90625 C 100.640625 -50.238281 102.945312 -52.679688 103.65625 -56.234375 C 104.195312 -59.785156 102.507812 -62.359375 98.59375 -63.953125 C 94.6875 -65.554688 88.203125 -67.066406 79.140625 -68.484375 C 67.066406 -70.441406 56.539062 -73.0625 47.5625 -76.34375 C 38.59375 -79.632812 30.820312 -85.050781 24.25 -92.59375 C 17.675781 -100.144531 14.390625 -110.40625 14.390625 -123.375 C 14.390625 -127.113281 14.832031 -131.820312 15.71875 -137.5 Z M 15.71875 -137.5 "/></g></g></g><g fill="#ffffff" fill-opacity="1"><g transform="translate(1822.36609, 296.332612)"><g><path d="M 157.5 -189.203125 C 161.050781 -189.203125 163.625 -188.625 165.21875 -187.46875 C 166.820312 -186.3125 167.625 -184.3125 167.625 -181.46875 C 167.625 -179.875 167.535156 -178.546875 167.359375 -177.484375 L 162.015625 -147.625 C 161.304688 -143.1875 159.929688 -140.125 157.890625 -138.4375 C 155.847656 -136.75 152.609375 -135.90625 148.171875 -135.90625 L 82.078125 -135.90625 L 79.671875 -122.046875 L 130.84375 -122.046875 C 134.570312 -122.046875 137.191406 -121.515625 138.703125 -120.453125 C 140.210938 -119.390625 140.96875 -117.4375 140.96875 -114.59375 L 140.4375 -110.328125 L 135.109375 -80.484375 C 134.398438 -76.035156 133.066406 -72.96875 131.109375 -71.28125 C 129.148438 -69.59375 125.953125 -68.75 121.515625 -68.75 L 70.359375 -68.75 L 67.6875 -53.5625 L 135.640625 -53.5625 C 139.367188 -53.5625 141.988281 -53.023438 143.5 -51.953125 C 145.007812 -50.890625 145.765625 -48.941406 145.765625 -46.109375 L 145.234375 -41.84375 L 139.90625 -11.71875 C 139.195312 -7.28125 137.816406 -4.21875 135.765625 -2.53125 C 133.722656 -0.84375 130.484375 0 126.046875 0 L 8 0 C 4.257812 0 1.632812 -0.53125 0.125 -1.59375 C -1.375 -2.664062 -2.125 -4.625 -2.125 -7.46875 L -1.59375 -11.71875 L 27.71875 -177.484375 C 28.425781 -181.921875 29.753906 -184.984375 31.703125 -186.671875 C 33.660156 -188.359375 36.863281 -189.203125 41.3125 -189.203125 Z M 157.5 -189.203125 "/></g></g></g><g fill="#ffffff" fill-opacity="1"><g transform="translate(1980.120978, 296.332612)"><g><path d="M 196.671875 -189.203125 C 201.460938 -189.203125 203.859375 -187.691406 203.859375 -184.671875 C 203.859375 -182.535156 202.789062 -180.140625 200.65625 -177.484375 L 121.78125 -73.015625 L 111.125 -11.71875 C 110.414062 -7.28125 109.035156 -4.21875 106.984375 -2.53125 C 104.941406 -0.84375 101.703125 0 97.265625 0 L 58.890625 0 C 55.160156 0 52.539062 -0.53125 51.03125 -1.59375 C 49.519531 -2.664062 48.765625 -4.625 48.765625 -7.46875 L 49.296875 -11.71875 L 59.953125 -72.484375 L 18.390625 -177.484375 C 17.679688 -179.078125 17.328125 -180.765625 17.328125 -182.546875 C 17.328125 -186.984375 20.253906 -189.203125 26.109375 -189.203125 L 63.6875 -189.203125 C 71.144531 -189.203125 76.160156 -188.664062 78.734375 -187.59375 C 81.316406 -186.53125 83.410156 -183.691406 85.015625 -179.078125 L 100.46875 -131.90625 L 134.046875 -179.078125 C 137.242188 -183.691406 140.257812 -186.53125 143.09375 -187.59375 C 145.9375 -188.664062 151.003906 -189.203125 158.296875 -189.203125 Z M 196.671875 -189.203125 "/></g></g></g><g fill="#000000" fill-opacity="1"><g transform="translate(54.217885, 296.332612)"><g><path d="M 73.015625 27.148438 C 61.078125 27.148438 51.613281 23.652344 44.625 16.664062 C 37.636719 9.675781 34.140625 0.214844 34.140625 -11.726562 L 34.140625 -72.480469 L 61.289062 -72.480469 L 37.742188 -58.972656 L -22.484375 -163.96875 C -26.304688 -170.652344 -28.214844 -177.289062 -28.214844 -183.871094 C -28.214844 -189.03125 -27.089844 -193.855469 -24.847656 -198.34375 C -22.367188 -203.308594 -18.792969 -207.34375 -14.125 -210.457031 C -8.234375 -214.382812 -1.214844 -216.347656 6.929688 -216.347656 L 45.566406 -216.347656 C 56.230469 -216.347656 64.519531 -215.203125 70.425781 -212.917969 C 79.410156 -209.4375 86.730469 -202.449219 92.386719 -191.945312 L 92.539062 -191.664062 L 116.667969 -144.210938 L 92.46875 -131.90625 L 68.492188 -144.640625 L 93.539062 -191.804688 C 99.191406 -202.300781 106.398438 -209.300781 115.164062 -212.808594 C 121.0625 -215.167969 129.398438 -216.347656 140.167969 -216.347656 L 177.472656 -216.347656 C 185.617188 -216.347656 192.636719 -214.382812 198.527344 -210.457031 C 203.195312 -207.34375 206.769531 -203.308594 209.25 -198.34375 C 211.496094 -193.855469 212.617188 -189.03125 212.617188 -183.871094 C 212.617188 -177.289062 210.714844 -170.664062 206.90625 -164.003906 L 146.632812 -59.457031 L 123.113281 -73.015625 L 150.261719 -73.015625 L 150.261719 -11.726562 C 150.261719 0.214844 146.765625 9.675781 139.777344 16.664062 C 132.789062 23.652344 123.324219 27.148438 111.386719 27.148438 Z M 73.015625 -27.148438 L 111.386719 -27.148438 L 111.429688 -27.136719 C 110.953125 -27.082031 110.414062 -26.972656 109.808594 -26.804688 C 106.730469 -25.957031 103.921875 -24.265625 101.386719 -21.726562 C 98.847656 -19.191406 97.15625 -16.382812 96.304688 -13.304688 C 96.140625 -12.699219 96.03125 -12.160156 95.976562 -11.683594 L 95.964844 -11.726562 L 95.964844 -80.28125 L 159.765625 -190.945312 C 159.585938 -190.632812 159.394531 -190.15625 159.179688 -189.523438 C 158.609375 -187.804688 158.320312 -185.917969 158.320312 -183.871094 C 158.320312 -180.484375 159.109375 -177.214844 160.6875 -174.0625 C 162.503906 -170.429688 165.078125 -167.5 168.410156 -165.277344 C 170.558594 -163.847656 172.78125 -162.875 175.082031 -162.367188 C 176.023438 -162.15625 176.820312 -162.050781 177.472656 -162.050781 L 140.167969 -162.050781 C 137.492188 -162.050781 135.390625 -161.96875 133.867188 -161.808594 C 133.519531 -161.769531 133.308594 -161.742188 133.238281 -161.726562 C 133.828125 -161.851562 134.527344 -162.074219 135.328125 -162.394531 C 137.875 -163.414062 139.910156 -164.761719 141.429688 -166.4375 C 141.640625 -166.667969 141.78125 -166.84375 141.863281 -166.960938 C 141.75 -166.792969 141.625 -166.585938 141.492188 -166.339844 L 91.945312 -73.039062 L 44.285156 -166.769531 L 68.484375 -179.074219 L 44.582031 -166.203125 C 44.417969 -166.507812 44.289062 -166.730469 44.191406 -166.871094 C 44.292969 -166.722656 44.460938 -166.519531 44.695312 -166.269531 C 46.234375 -164.597656 48.277344 -163.269531 50.824219 -162.285156 C 51.542969 -162.003906 52.15625 -161.8125 52.664062 -161.710938 C 52.554688 -161.730469 52.308594 -161.761719 51.929688 -161.804688 C 50.371094 -161.96875 48.25 -162.050781 45.566406 -162.050781 L 6.929688 -162.050781 C 7.582031 -162.050781 8.378906 -162.15625 9.320312 -162.367188 C 11.621094 -162.875 13.84375 -163.847656 15.992188 -165.277344 C 19.324219 -167.5 21.898438 -170.429688 23.714844 -174.0625 C 25.292969 -177.214844 26.082031 -180.484375 26.082031 -183.871094 C 26.082031 -185.917969 25.796875 -187.804688 25.222656 -189.523438 C 25.011719 -190.15625 24.808594 -190.644531 24.613281 -190.980469 L 88.4375 -79.714844 L 88.4375 -11.726562 L 88.425781 -11.683594 C 88.371094 -12.160156 88.261719 -12.699219 88.097656 -13.304688 C 87.25 -16.382812 85.554688 -19.191406 83.019531 -21.726562 C 80.480469 -24.265625 77.671875 -25.957031 74.59375 -26.804688 C 73.988281 -26.972656 73.449219 -27.082031 72.976562 -27.136719 Z M 73.015625 -27.148438 "/></g></g></g><g fill="#000000" fill-opacity="1"><g transform="translate(238.620536, 296.332612)"><g><path d="M 22.382812 27.148438 C 10.445312 27.148438 0.984375 23.652344 -6.003906 16.664062 C -12.996094 9.675781 -16.488281 0.214844 -16.488281 -11.726562 L -16.488281 -177.472656 C -16.488281 -189.414062 -12.996094 -198.875 -6.003906 -205.863281 C 0.984375 -212.851562 10.445312 -216.347656 22.382812 -216.347656 L 138.570312 -216.347656 C 150.507812 -216.347656 159.96875 -212.851562 166.957031 -205.863281 C 173.945312 -198.875 177.441406 -189.414062 177.441406 -177.472656 L 177.441406 -147.628906 C 177.441406 -135.691406 173.945312 -126.226562 166.957031 -119.238281 C 159.96875 -112.25 150.507812 -108.757812 138.570312 -108.757812 L 72.480469 -108.757812 L 72.480469 -135.902344 L 99.628906 -135.902344 L 99.628906 -122.046875 L 72.480469 -122.046875 L 72.480469 -149.195312 L 123.644531 -149.195312 C 135.582031 -149.195312 145.046875 -145.699219 152.035156 -138.710938 C 159.023438 -131.722656 162.519531 -122.261719 162.519531 -110.320312 L 162.519531 -80.476562 C 162.519531 -68.539062 159.023438 -59.074219 152.035156 -52.085938 C 145.046875 -45.097656 135.582031 -41.605469 123.644531 -41.605469 L 72.480469 -41.605469 L 72.480469 -68.75 L 99.628906 -68.75 L 99.628906 -53.5625 L 72.480469 -53.5625 L 72.480469 -80.710938 L 140.433594 -80.710938 C 152.371094 -80.710938 161.835938 -77.214844 168.824219 -70.226562 C 175.8125 -63.238281 179.308594 -53.773438 179.308594 -41.835938 L 179.308594 -11.726562 C 179.308594 0.214844 175.8125 9.675781 168.824219 16.664062 C 161.835938 23.652344 152.371094 27.148438 140.433594 27.148438 Z M 22.382812 -27.148438 L 140.433594 -27.148438 L 140.472656 -27.136719 C 140 -27.082031 139.460938 -26.972656 138.855469 -26.804688 C 135.777344 -25.957031 132.96875 -24.265625 130.429688 -21.726562 C 127.894531 -19.191406 126.199219 -16.382812 125.351562 -13.304688 C 125.1875 -12.699219 125.078125 -12.160156 125.023438 -11.683594 L 125.011719 -11.726562 L 125.011719 -41.835938 L 125.023438 -41.875 C 125.078125 -41.402344 125.1875 -40.863281 125.351562 -40.257812 C 126.199219 -37.179688 127.894531 -34.371094 130.429688 -31.835938 C 132.96875 -29.296875 135.777344 -27.601562 138.855469 -26.753906 C 139.460938 -26.589844 140 -26.480469 140.472656 -26.425781 L 140.433594 -26.414062 L 45.335938 -26.414062 L 45.335938 -95.898438 L 123.644531 -95.898438 L 123.6875 -95.886719 C 123.210938 -95.835938 122.671875 -95.722656 122.066406 -95.558594 C 118.988281 -94.710938 116.179688 -93.015625 113.644531 -90.480469 C 111.105469 -87.941406 109.414062 -85.132812 108.566406 -82.054688 C 108.398438 -81.449219 108.289062 -80.910156 108.234375 -80.4375 L 108.222656 -80.476562 L 108.222656 -110.320312 L 108.234375 -110.363281 C 108.289062 -109.886719 108.398438 -109.347656 108.566406 -108.746094 C 109.414062 -105.664062 111.105469 -102.855469 113.644531 -100.320312 C 116.179688 -97.78125 118.988281 -96.089844 122.066406 -95.242188 C 122.671875 -95.074219 123.210938 -94.964844 123.6875 -94.910156 L 123.644531 -94.898438 L 45.335938 -94.898438 L 45.335938 -163.050781 L 138.570312 -163.050781 L 138.609375 -163.039062 C 138.132812 -162.988281 137.59375 -162.875 136.992188 -162.710938 C 133.914062 -161.863281 131.105469 -160.167969 128.566406 -157.632812 C 126.027344 -155.09375 124.335938 -152.285156 123.488281 -149.207031 C 123.320312 -148.601562 123.210938 -148.0625 123.15625 -147.589844 L 123.144531 -147.628906 L 123.144531 -177.472656 L 123.15625 -177.515625 C 123.210938 -177.039062 123.320312 -176.5 123.488281 -175.898438 C 124.335938 -172.816406 126.027344 -170.007812 128.566406 -167.472656 C 131.105469 -164.933594 133.914062 -163.242188 136.992188 -162.394531 C 137.59375 -162.226562 138.132812 -162.117188 138.609375 -162.0625 L 138.570312 -162.050781 L 22.382812 -162.050781 L 22.34375 -162.0625 C 22.820312 -162.117188 23.359375 -162.226562 23.960938 -162.394531 C 27.039062 -163.242188 29.847656 -164.933594 32.386719 -167.472656 C 34.925781 -170.007812 36.617188 -172.816406 37.464844 -175.898438 C 37.632812 -176.5 37.742188 -177.039062 37.796875 -177.515625 L 37.808594 -177.472656 L 37.808594 -11.726562 L 37.796875 -11.683594 C 37.742188 -12.160156 37.632812 -12.699219 37.464844 -13.304688 C 36.617188 -16.382812 34.925781 -19.191406 32.386719 -21.726562 C 29.847656 -24.265625 27.039062 -25.957031 23.960938 -26.804688 C 23.359375 -26.972656 22.820312 -27.082031 22.34375 -27.136719 Z M 22.382812 -27.148438 "/></g></g></g><g fill="#000000" fill-opacity="1"><g transform="translate(396.375455, 296.332612)"><g><path d="M 22.382812 27.148438 C 10.445312 27.148438 0.984375 23.652344 -6.003906 16.664062 C -12.996094 9.675781 -16.488281 0.214844 -16.488281 -11.726562 L -16.488281 -177.472656 C -16.488281 -189.414062 -12.996094 -198.875 -6.003906 -205.863281 C 0.984375 -212.851562 10.445312 -216.347656 22.382812 -216.347656 L 60.757812 -216.347656 C 72.695312 -216.347656 82.160156 -212.851562 89.148438 -205.863281 C 96.136719 -198.875 99.628906 -189.414062 99.628906 -177.472656 L 99.628906 -53.5625 L 72.480469 -53.5625 L 72.480469 -80.710938 L 131.90625 -80.710938 C 143.84375 -80.710938 153.308594 -77.214844 160.296875 -70.226562 C 167.285156 -63.238281 170.78125 -53.773438 170.78125 -41.835938 L 170.78125 -11.726562 C 170.78125 0.214844 167.285156 9.675781 160.296875 16.664062 C 153.308594 23.652344 143.84375 27.148438 131.90625 27.148438 Z M 22.382812 -27.148438 L 131.90625 -27.148438 L 131.945312 -27.136719 C 131.472656 -27.082031 130.933594 -26.972656 130.328125 -26.804688 C 127.25 -25.957031 124.441406 -24.265625 121.902344 -21.726562 C 119.367188 -19.191406 117.671875 -16.382812 116.824219 -13.304688 C 116.660156 -12.699219 116.550781 -12.160156 116.496094 -11.683594 L 116.484375 -11.726562 L 116.484375 -41.835938 L 116.496094 -41.875 C 116.550781 -41.402344 116.660156 -40.863281 116.824219 -40.257812 C 117.671875 -37.179688 119.367188 -34.371094 121.902344 -31.835938 C 124.441406 -29.296875 127.25 -27.601562 130.328125 -26.753906 C 130.933594 -26.589844 131.472656 -26.480469 131.945312 -26.425781 L 131.90625 -26.414062 L 45.335938 -26.414062 L 45.335938 -177.472656 L 45.347656 -177.515625 C 45.398438 -177.039062 45.507812 -176.5 45.675781 -175.898438 C 46.523438 -172.816406 48.214844 -170.007812 50.753906 -167.472656 C 53.292969 -164.933594 56.101562 -163.242188 59.179688 -162.394531 C 59.785156 -162.226562 60.324219 -162.117188 60.796875 -162.0625 L 60.757812 -162.050781 L 22.382812 -162.050781 L 22.34375 -162.0625 C 22.820312 -162.117188 23.359375 -162.226562 23.960938 -162.394531 C 27.039062 -163.242188 29.847656 -164.933594 32.386719 -167.472656 C 34.925781 -170.007812 36.617188 -172.816406 37.464844 -175.898438 C 37.632812 -176.5 37.742188 -177.039062 37.796875 -177.515625 L 37.808594 -177.472656 L 37.808594 -11.726562 L 37.796875 -11.683594 C 37.742188 -12.160156 37.632812 -12.699219 37.464844 -13.304688 C 36.617188 -16.382812 34.925781 -19.191406 32.386719 -21.726562 C 29.847656 -24.265625 27.039062 -25.957031 23.960938 -26.804688 C 23.359375 -26.972656 22.820312 -27.082031 22.34375 -27.136719 Z M 22.382812 -27.148438 "/></g></g></g><g fill="#000000" fill-opacity="1"><g transform="translate(542.671776, 296.332612)"><g><path d="M 22.382812 27.148438 C 10.445312 27.148438 0.984375 23.652344 -6.003906 16.664062 C -12.996094 9.675781 -16.488281 0.214844 -16.488281 -11.726562 L -16.488281 -177.472656 C -16.488281 -189.414062 -12.996094 -198.875 -6.003906 -205.863281 C 0.984375 -212.851562 10.445312 -216.347656 22.382812 -216.347656 L 60.757812 -216.347656 C 72.695312 -216.347656 82.160156 -212.851562 89.148438 -205.863281 C 96.136719 -198.875 99.628906 -189.414062 99.628906 -177.472656 L 99.628906 -53.5625 L 72.480469 -53.5625 L 72.480469 -80.710938 L 131.90625 -80.710938 C 143.84375 -80.710938 153.308594 -77.214844 160.296875 -70.226562 C 167.285156 -63.238281 170.78125 -53.773438 170.78125 -41.835938 L 170.78125 -11.726562 C 170.78125 0.214844 167.285156 9.675781 160.296875 16.664062 C 153.308594 23.652344 143.84375 27.148438 131.90625 27.148438 Z M 22.382812 -27.148438 L 131.90625 -27.148438 L 131.945312 -27.136719 C 131.472656 -27.082031 130.933594 -26.972656 130.328125 -26.804688 C 127.25 -25.957031 124.441406 -24.265625 121.902344 -21.726562 C 119.367188 -19.191406 117.671875 -16.382812 116.824219 -13.304688 C 116.660156 -12.699219 116.550781 -12.160156 116.496094 -11.683594 L 116.484375 -11.726562 L 116.484375 -41.835938 L 116.496094 -41.875 C 116.550781 -41.402344 116.660156 -40.863281 116.824219 -40.257812 C 117.671875 -37.179688 119.367188 -34.371094 121.902344 -31.835938 C 124.441406 -29.296875 127.25 -27.601562 130.328125 -26.753906 C 130.933594 -26.589844 131.472656 -26.480469 131.945312 -26.425781 L 131.90625 -26.414062 L 45.335938 -26.414062 L 45.335938 -177.472656 L 45.347656 -177.515625 C 45.398438 -177.039062 45.507812 -176.5 45.675781 -175.898438 C 46.523438 -172.816406 48.214844 -170.007812 50.753906 -167.472656 C 53.292969 -164.933594 56.101562 -163.242188 59.179688 -162.394531 C 59.785156 -162.226562 60.324219 -162.117188 60.796875 -162.0625 L 60.757812 -162.050781 L 22.382812 -162.050781 L 22.34375 -162.0625 C 22.820312 -162.117188 23.359375 -162.226562 23.960938 -162.394531 C 27.039062 -163.242188 29.847656 -164.933594 32.386719 -167.472656 C 34.925781 -170.007812 36.617188 -172.816406 37.464844 -175.898438 C 37.632812 -176.5 37.742188 -177.039062 37.796875 -177.515625 L 37.808594 -177.472656 L 37.808594 -11.726562 L 37.796875 -11.683594 C 37.742188 -12.160156 37.632812 -12.699219 37.464844 -13.304688 C 36.617188 -16.382812 34.925781 -19.191406 32.386719 -21.726562 C 29.847656 -24.265625 27.039062 -25.957031 23.960938 -26.804688 C 23.359375 -26.972656 22.820312 -27.082031 22.34375 -27.136719 Z M 22.382812 -27.148438 "/></g></g></g><g fill="#000000" fill-opacity="1"><g transform="translate(686.036843, 296.332612)"><g><path d="M 91.667969 31.144531 C 57.59375 31.144531 30.542969 21.910156 10.507812 3.4375 C 0.03125 -6.226562 -7.820312 -17.726562 -13.050781 -31.0625 C -18.007812 -43.707031 -20.484375 -57.78125 -20.484375 -73.28125 L -20.484375 -115.917969 C -20.484375 -131.417969 -18.007812 -145.492188 -13.050781 -158.136719 C -7.820312 -171.472656 0.03125 -182.972656 10.507812 -192.636719 C 30.542969 -211.109375 57.59375 -220.34375 91.667969 -220.34375 C 125.742188 -220.34375 152.796875 -211.109375 172.828125 -192.636719 C 183.304688 -182.972656 191.160156 -171.472656 196.386719 -158.136719 C 201.34375 -145.492188 203.824219 -131.417969 203.824219 -115.917969 L 203.824219 -73.28125 C 203.824219 -57.78125 201.34375 -43.707031 196.386719 -31.0625 C 191.160156 -17.726562 183.304688 -6.226562 172.828125 3.4375 C 152.796875 21.910156 125.742188 31.144531 91.667969 31.144531 Z M 91.667969 -23.152344 C 111.601562 -23.152344 126.382812 -27.59375 136.019531 -36.480469 C 140.375 -40.496094 143.648438 -45.296875 145.835938 -50.878906 C 148.296875 -57.15625 149.527344 -64.621094 149.527344 -73.28125 L 149.527344 -115.917969 C 149.527344 -124.578125 148.296875 -132.046875 145.835938 -138.320312 C 143.648438 -143.902344 140.375 -148.703125 136.019531 -152.71875 C 126.382812 -161.605469 111.601562 -166.050781 91.667969 -166.050781 C 71.738281 -166.050781 56.953125 -161.605469 47.316406 -152.71875 C 42.960938 -148.703125 39.6875 -143.902344 37.5 -138.320312 C 35.039062 -132.046875 33.808594 -124.578125 33.808594 -115.917969 L 33.808594 -73.28125 C 33.808594 -64.621094 35.039062 -57.15625 37.5 -50.878906 C 39.6875 -45.296875 42.960938 -40.496094 47.316406 -36.480469 C 56.953125 -27.59375 71.738281 -23.152344 91.667969 -23.152344 Z M 95.632812 -69.816406 L 95.613281 -69.792969 C 95.542969 -70.207031 95.40625 -70.664062 95.207031 -71.167969 C 94.574219 -72.753906 93.59375 -74.121094 92.261719 -75.277344 C 91.339844 -76.074219 90.464844 -76.597656 89.632812 -76.851562 C 89.933594 -76.757812 90.613281 -76.710938 91.667969 -76.710938 C 92.722656 -76.710938 93.402344 -76.757812 93.707031 -76.851562 C 92.871094 -76.597656 91.996094 -76.074219 91.078125 -75.277344 C 89.746094 -74.121094 88.761719 -72.753906 88.132812 -71.167969 C 87.933594 -70.664062 87.796875 -70.207031 87.722656 -69.792969 L 87.703125 -69.816406 L 87.703125 -119.382812 L 87.722656 -119.40625 C 87.796875 -118.992188 87.933594 -118.535156 88.132812 -118.03125 C 88.761719 -116.445312 89.746094 -115.078125 91.078125 -113.921875 C 91.996094 -113.125 92.871094 -112.601562 93.707031 -112.347656 C 93.402344 -112.441406 92.722656 -112.488281 91.667969 -112.488281 C 90.613281 -112.488281 89.933594 -112.441406 89.632812 -112.347656 C 90.464844 -112.601562 91.339844 -113.125 92.261719 -113.921875 C 93.59375 -115.078125 94.574219 -116.445312 95.207031 -118.03125 C 95.40625 -118.535156 95.542969 -118.992188 95.613281 -119.40625 L 95.632812 -119.382812 Z M 41.335938 -69.816406 L 41.335938 -119.382812 C 41.335938 -126.140625 42.480469 -132.386719 44.761719 -138.121094 C 47.390625 -144.722656 51.371094 -150.335938 56.699219 -154.953125 C 65.800781 -162.839844 77.457031 -166.78125 91.667969 -166.78125 C 105.882812 -166.78125 117.539062 -162.839844 126.636719 -154.953125 C 131.964844 -150.335938 135.945312 -144.722656 138.574219 -138.121094 C 140.859375 -132.386719 142 -126.140625 142 -119.382812 L 142 -69.816406 C 142 -63.058594 140.859375 -56.8125 138.574219 -51.078125 C 135.945312 -44.476562 131.964844 -38.863281 126.636719 -34.246094 C 117.539062 -26.359375 105.882812 -22.417969 91.667969 -22.417969 C 77.457031 -22.417969 65.800781 -26.359375 56.699219 -34.246094 C 51.371094 -38.863281 47.390625 -44.476562 44.761719 -51.078125 C 42.480469 -56.8125 41.335938 -63.058594 41.335938 -69.816406 Z M 41.335938 -69.816406 "/></g></g></g><g fill="#000000" fill-opacity="1"><g transform="translate(864.577031, 296.332612)"><g><path d="M 58.625 27.148438 C 49.640625 27.148438 41.976562 25.371094 35.632812 21.820312 C 30.476562 18.933594 26.28125 14.902344 23.046875 9.726562 C 20.695312 5.964844 18.957031 1.710938 17.824219 -3.039062 L -23.949219 -171.472656 C -25.015625 -175.734375 -25.550781 -179.6875 -25.550781 -183.335938 C -25.550781 -187.984375 -24.710938 -192.339844 -23.039062 -196.40625 C -20.746094 -201.972656 -17.171875 -206.488281 -12.316406 -209.957031 C -6.351562 -214.21875 1.039062 -216.347656 9.859375 -216.347656 L 49.832031 -216.347656 C 59.996094 -216.347656 68.339844 -214.390625 74.859375 -210.480469 C 83.789062 -205.121094 89.53125 -196.574219 92.082031 -184.839844 L 92.304688 -183.816406 L 100.441406 -124.683594 C 101.613281 -116.492188 102.484375 -106.699219 103.058594 -95.300781 C 103.617188 -84.273438 103.894531 -75.160156 103.894531 -67.953125 L 76.746094 -67.953125 L 76.746094 -95.101562 L 78.878906 -95.101562 L 78.878906 -67.953125 L 51.730469 -67.953125 C 51.730469 -75.019531 52.15625 -84.261719 53.003906 -95.679688 C 53.894531 -107.664062 55.269531 -117.996094 57.128906 -126.667969 L 68.789062 -184.445312 C 69.90625 -189.597656 71.605469 -194.105469 73.886719 -197.96875 C 77.101562 -203.421875 81.351562 -207.671875 86.628906 -210.714844 C 93.136719 -214.46875 101.210938 -216.347656 110.855469 -216.347656 L 147.628906 -216.347656 C 157.117188 -216.347656 165.109375 -214.542969 171.605469 -210.933594 C 177.207031 -207.820312 181.648438 -203.402344 184.933594 -197.679688 C 187.296875 -193.5625 188.929688 -188.910156 189.832031 -183.726562 L 163.085938 -179.074219 L 189.671875 -184.5625 L 201.664062 -126.46875 C 203.308594 -118.035156 204.53125 -109.15625 205.324219 -99.832031 C 206.0625 -91.140625 206.707031 -80.9375 207.257812 -69.222656 L 180.140625 -67.953125 L 180.140625 -95.101562 L 182.269531 -95.101562 L 182.269531 -67.953125 L 155.132812 -68.628906 C 155.6875 -90.863281 156.910156 -109.449219 158.800781 -124.390625 L 166.625 -183.191406 L 166.71875 -183.726562 C 167.597656 -188.792969 169.164062 -193.347656 171.414062 -197.386719 C 174.605469 -203.109375 178.941406 -207.550781 184.425781 -210.714844 C 190.933594 -214.46875 199.1875 -216.347656 209.183594 -216.347656 L 245.960938 -216.347656 C 254.78125 -216.347656 262.171875 -214.21875 268.132812 -209.957031 C 272.992188 -206.488281 276.566406 -201.972656 278.855469 -196.40625 C 280.53125 -192.339844 281.367188 -187.984375 281.367188 -183.335938 C 281.367188 -179.6875 280.832031 -175.714844 279.757812 -171.421875 L 237.375 -3.226562 C 234.355469 7.855469 228.78125 15.9375 220.640625 21.023438 C 214.109375 25.105469 206.203125 27.148438 196.925781 27.148438 L 156.421875 27.148438 C 147.144531 27.148438 139.25 25.191406 132.730469 21.28125 C 127.953125 18.417969 124.03125 14.570312 120.960938 9.746094 C 118.609375 6.046875 116.851562 1.882812 115.695312 -2.742188 L 115.511719 -3.472656 L 107.910156 -43.121094 C 104.238281 -62.632812 102.210938 -83.816406 101.832031 -106.671875 L 128.976562 -107.125 L 128.976562 -79.976562 L 126.578125 -79.976562 L 126.578125 -107.125 L 153.699219 -105.957031 C 152.753906 -84.046875 150.386719 -63.042969 146.59375 -42.933594 L 139.195312 -3.761719 L 138.910156 -2.714844 C 135.980469 8.023438 130.449219 15.9375 122.3125 21.023438 C 115.777344 25.105469 107.785156 27.148438 98.332031 27.148438 Z M 58.625 -27.148438 L 98.332031 -27.148438 C 98.589844 -27.148438 98.785156 -27.152344 98.914062 -27.164062 C 98.796875 -27.15625 98.621094 -27.125 98.390625 -27.078125 C 96.828125 -26.75 95.207031 -26.066406 93.535156 -25.019531 C 90.972656 -23.417969 88.976562 -21.445312 87.546875 -19.101562 C 87.011719 -18.222656 86.671875 -17.523438 86.527344 -17.003906 L 112.71875 -9.859375 L 86.042969 -14.898438 L 93.238281 -53 C 96.550781 -70.554688 98.621094 -88.984375 99.453125 -108.292969 L 100.574219 -134.273438 L 155.675781 -134.273438 L 156.121094 -107.578125 C 156.449219 -87.792969 158.152344 -69.714844 161.234375 -53.347656 L 168.695312 -14.441406 L 142.03125 -9.328125 L 168.371094 -15.910156 C 168.101562 -16.984375 167.566406 -18.148438 166.769531 -19.40625 C 165.25 -21.789062 163.21875 -23.746094 160.664062 -25.277344 C 159.128906 -26.199219 157.660156 -26.804688 156.257812 -27.089844 C 156.054688 -27.132812 155.910156 -27.15625 155.816406 -27.167969 C 155.957031 -27.152344 156.160156 -27.148438 156.421875 -27.148438 L 196.925781 -27.148438 C 197.113281 -27.148438 197.238281 -27.152344 197.304688 -27.15625 C 197.132812 -27.140625 196.910156 -27.105469 196.636719 -27.042969 C 195.082031 -26.710938 193.492188 -26.039062 191.867188 -25.019531 C 189.304688 -23.417969 187.308594 -21.445312 185.878906 -19.101562 C 185.339844 -18.222656 184.957031 -17.355469 184.726562 -16.492188 L 227.082031 -184.59375 C 227.121094 -184.746094 227.152344 -184.875 227.171875 -184.980469 L 227.171875 -184.964844 C 227.105469 -184.519531 227.074219 -183.976562 227.074219 -183.335938 C 227.074219 -180.824219 227.597656 -178.289062 228.652344 -175.730469 C 230.320312 -171.675781 232.964844 -168.355469 236.574219 -165.777344 C 239.054688 -164.007812 241.625 -162.84375 244.285156 -162.289062 C 245.046875 -162.132812 245.605469 -162.050781 245.960938 -162.050781 L 209.183594 -162.050781 C 208.210938 -162.050781 207.582031 -162.027344 207.296875 -161.976562 C 208.550781 -162.199219 209.96875 -162.769531 211.558594 -163.6875 C 214.734375 -165.519531 217.164062 -167.941406 218.839844 -170.953125 C 219.582031 -172.28125 220.039062 -173.4375 220.210938 -174.421875 L 193.464844 -179.074219 L 220.375 -175.492188 L 212.667969 -117.570312 C 211.007812 -104.445312 209.921875 -87.679688 209.410156 -67.273438 L 208.75 -40.804688 L 154.234375 -40.804688 L 153.019531 -66.679688 C 152.503906 -77.707031 151.90625 -87.222656 151.222656 -95.230469 C 150.597656 -102.605469 149.683594 -109.359375 148.488281 -115.492188 L 136.410156 -174.003906 L 136.339844 -174.421875 C 136.53125 -173.324219 137.03125 -172.070312 137.839844 -170.660156 C 139.566406 -167.644531 142.035156 -165.25 145.238281 -163.46875 C 146.625 -162.699219 147.871094 -162.210938 148.980469 -162.007812 C 148.816406 -162.035156 148.367188 -162.050781 147.628906 -162.050781 L 110.855469 -162.050781 C 110.140625 -162.050781 109.71875 -162.039062 109.597656 -162.015625 C 110.855469 -162.253906 112.242188 -162.808594 113.761719 -163.6875 C 116.730469 -165.398438 119.023438 -167.628906 120.644531 -170.371094 C 121.324219 -171.527344 121.78125 -172.636719 122.011719 -173.703125 L 110.21875 -115.292969 C 108.878906 -109.042969 107.855469 -101.164062 107.148438 -91.652344 C 106.398438 -81.574219 106.023438 -73.675781 106.023438 -67.953125 L 106.023438 -40.804688 L 49.597656 -40.804688 L 49.597656 -67.953125 C 49.597656 -74.246094 49.34375 -82.453125 48.832031 -92.566406 C 48.34375 -102.308594 47.617188 -110.546875 46.652344 -117.28125 L 38.660156 -175.371094 L 65.554688 -179.074219 L 39.027344 -173.304688 C 39.175781 -172.613281 39.558594 -171.730469 40.175781 -170.660156 C 41.742188 -167.925781 43.992188 -165.679688 46.921875 -163.921875 C 48.648438 -162.886719 50.21875 -162.242188 51.632812 -161.984375 C 51.386719 -162.03125 50.785156 -162.050781 49.832031 -162.050781 L 9.859375 -162.050781 C 10.214844 -162.050781 10.773438 -162.132812 11.53125 -162.289062 C 14.195312 -162.84375 16.765625 -164.007812 19.242188 -165.777344 C 22.855469 -168.355469 25.496094 -171.675781 27.167969 -175.730469 C 28.21875 -178.289062 28.746094 -180.824219 28.746094 -183.335938 C 28.746094 -183.976562 28.714844 -184.519531 28.644531 -184.964844 L 28.644531 -184.980469 C 28.667969 -184.875 28.699219 -184.730469 28.746094 -184.542969 L 70.644531 -15.613281 C 70.402344 -16.632812 69.882812 -17.78125 69.089844 -19.050781 C 67.40625 -21.742188 65.097656 -23.90625 62.164062 -25.550781 C 60.71875 -26.363281 59.367188 -26.886719 58.109375 -27.128906 C 58.007812 -27.148438 57.921875 -27.160156 57.847656 -27.171875 L 57.859375 -27.171875 C 58.050781 -27.15625 58.308594 -27.148438 58.625 -27.148438 Z M 58.625 -27.148438 "/></g></g></g><g fill="#ffde59" fill-opacity="1"><g transform="translate(54.217885, 296.332612)"><g><path d="M 73.015625 0 C 68.578125 0 65.515625 -0.84375 63.828125 -2.53125 C 62.140625 -4.21875 61.296875 -7.28125 61.296875 -11.71875 L 61.296875 -72.484375 L 1.0625 -177.484375 C -0.351562 -179.960938 -1.0625 -182.09375 -1.0625 -183.875 C -1.0625 -187.425781 1.597656 -189.203125 6.921875 -189.203125 L 45.5625 -189.203125 C 52.851562 -189.203125 57.875 -188.664062 60.625 -187.59375 C 63.375 -186.53125 65.992188 -183.691406 68.484375 -179.078125 L 92.46875 -131.90625 L 117.515625 -179.078125 C 120.003906 -183.691406 122.582031 -186.53125 125.25 -187.59375 C 127.914062 -188.664062 132.890625 -189.203125 140.171875 -189.203125 L 177.484375 -189.203125 C 182.804688 -189.203125 185.46875 -187.425781 185.46875 -183.875 C 185.46875 -182.09375 184.757812 -179.960938 183.34375 -177.484375 L 123.109375 -73.015625 L 123.109375 -11.71875 C 123.109375 -7.28125 122.265625 -4.21875 120.578125 -2.53125 C 118.890625 -0.84375 115.828125 0 111.390625 0 Z M 73.015625 0 "/></g></g></g><g fill="#ffde59" fill-opacity="1"><g transform="translate(238.620536, 296.332612)"><g><path d="M 22.390625 0 C 17.941406 0 14.875 -0.84375 13.1875 -2.53125 C 11.5 -4.21875 10.65625 -7.28125 10.65625 -11.71875 L 10.65625 -177.484375 C 10.65625 -181.921875 11.5 -184.984375 13.1875 -186.671875 C 14.875 -188.359375 17.941406 -189.203125 22.390625 -189.203125 L 138.578125 -189.203125 C 143.015625 -189.203125 146.078125 -188.359375 147.765625 -186.671875 C 149.453125 -184.984375 150.296875 -181.921875 150.296875 -177.484375 L 150.296875 -147.625 C 150.296875 -143.1875 149.453125 -140.125 147.765625 -138.4375 C 146.078125 -136.75 143.015625 -135.90625 138.578125 -135.90625 L 72.484375 -135.90625 L 72.484375 -122.046875 L 123.65625 -122.046875 C 128.09375 -122.046875 131.15625 -121.203125 132.84375 -119.515625 C 134.53125 -117.828125 135.375 -114.765625 135.375 -110.328125 L 135.375 -80.484375 C 135.375 -76.035156 134.53125 -72.96875 132.84375 -71.28125 C 131.15625 -69.59375 128.09375 -68.75 123.65625 -68.75 L 72.484375 -68.75 L 72.484375 -53.5625 L 140.4375 -53.5625 C 144.875 -53.5625 147.9375 -52.71875 149.625 -51.03125 C 151.3125 -49.34375 152.15625 -46.28125 152.15625 -41.84375 L 152.15625 -11.71875 C 152.15625 -7.28125 151.3125 -4.21875 149.625 -2.53125 C 147.9375 -0.84375 144.875 0 140.4375 0 Z M 22.390625 0 "/></g></g></g><g fill="#ffde59" fill-opacity="1"><g transform="translate(396.375455, 296.332612)"><g><path d="M 22.390625 0 C 17.941406 0 14.875 -0.84375 13.1875 -2.53125 C 11.5 -4.21875 10.65625 -7.28125 10.65625 -11.71875 L 10.65625 -177.484375 C 10.65625 -181.921875 11.5 -184.984375 13.1875 -186.671875 C 14.875 -188.359375 17.941406 -189.203125 22.390625 -189.203125 L 60.765625 -189.203125 C 65.203125 -189.203125 68.265625 -188.359375 69.953125 -186.671875 C 71.640625 -184.984375 72.484375 -181.921875 72.484375 -177.484375 L 72.484375 -53.5625 L 131.90625 -53.5625 C 136.351562 -53.5625 139.421875 -52.71875 141.109375 -51.03125 C 142.796875 -49.34375 143.640625 -46.28125 143.640625 -41.84375 L 143.640625 -11.71875 C 143.640625 -7.28125 142.796875 -4.21875 141.109375 -2.53125 C 139.421875 -0.84375 136.351562 0 131.90625 0 Z M 22.390625 0 "/></g></g></g><g fill="#ffde59" fill-opacity="1"><g transform="translate(542.671776, 296.332612)"><g><path d="M 22.390625 0 C 17.941406 0 14.875 -0.84375 13.1875 -2.53125 C 11.5 -4.21875 10.65625 -7.28125 10.65625 -11.71875 L 10.65625 -177.484375 C 10.65625 -181.921875 11.5 -184.984375 13.1875 -186.671875 C 14.875 -188.359375 17.941406 -189.203125 22.390625 -189.203125 L 60.765625 -189.203125 C 65.203125 -189.203125 68.265625 -188.359375 69.953125 -186.671875 C 71.640625 -184.984375 72.484375 -181.921875 72.484375 -177.484375 L 72.484375 -53.5625 L 131.90625 -53.5625 C 136.351562 -53.5625 139.421875 -52.71875 141.109375 -51.03125 C 142.796875 -49.34375 143.640625 -46.28125 143.640625 -41.84375 L 143.640625 -11.71875 C 143.640625 -7.28125 142.796875 -4.21875 141.109375 -2.53125 C 139.421875 -0.84375 136.351562 0 131.90625 0 Z M 22.390625 0 "/></g></g></g><g fill="#ffde59" fill-opacity="1"><g transform="translate(686.036843, 296.332612)"><g><path d="M 91.671875 4 C 64.671875 4 43.75 -2.835938 28.90625 -16.515625 C 14.070312 -30.203125 6.65625 -49.125 6.65625 -73.28125 L 6.65625 -115.921875 C 6.65625 -140.078125 14.070312 -158.992188 28.90625 -172.671875 C 43.75 -186.359375 64.671875 -193.203125 91.671875 -193.203125 C 118.671875 -193.203125 139.585938 -186.359375 154.421875 -172.671875 C 169.253906 -158.992188 176.671875 -140.078125 176.671875 -115.921875 L 176.671875 -73.28125 C 176.671875 -49.125 169.253906 -30.203125 154.421875 -16.515625 C 139.585938 -2.835938 118.671875 4 91.671875 4 Z M 68.484375 -69.8125 C 68.484375 -63.238281 70.484375 -58.21875 74.484375 -54.75 C 78.484375 -51.289062 84.210938 -49.5625 91.671875 -49.5625 C 99.128906 -49.5625 104.859375 -51.289062 108.859375 -54.75 C 112.859375 -58.21875 114.859375 -63.238281 114.859375 -69.8125 L 114.859375 -119.390625 C 114.859375 -125.960938 112.859375 -130.976562 108.859375 -134.4375 C 104.859375 -137.90625 99.128906 -139.640625 91.671875 -139.640625 C 84.210938 -139.640625 78.484375 -137.90625 74.484375 -134.4375 C 70.484375 -130.976562 68.484375 -125.960938 68.484375 -119.390625 Z M 68.484375 -69.8125 "/></g></g></g><g fill="#ffde59" fill-opacity="1"><g transform="translate(864.577031, 296.332612)"><g><path d="M 58.625 0 C 54.363281 0 51.117188 -0.617188 48.890625 -1.859375 C 46.671875 -3.109375 45.117188 -5.597656 44.234375 -9.328125 L 2.390625 -178.015625 C 1.859375 -180.140625 1.59375 -181.914062 1.59375 -183.34375 C 1.59375 -185.46875 2.210938 -186.972656 3.453125 -187.859375 C 4.703125 -188.753906 6.835938 -189.203125 9.859375 -189.203125 L 49.828125 -189.203125 C 54.984375 -189.203125 58.671875 -188.535156 60.890625 -187.203125 C 63.109375 -185.867188 64.664062 -183.160156 65.5625 -179.078125 L 73.546875 -120.984375 C 74.617188 -113.523438 75.421875 -104.507812 75.953125 -93.9375 C 76.484375 -83.363281 76.75 -74.703125 76.75 -67.953125 L 78.875 -67.953125 C 78.875 -74.347656 79.273438 -82.921875 80.078125 -93.671875 C 80.878906 -104.421875 82.078125 -113.523438 83.671875 -120.984375 L 95.40625 -179.078125 C 96.289062 -183.160156 97.882812 -185.867188 100.1875 -187.203125 C 102.5 -188.535156 106.054688 -189.203125 110.859375 -189.203125 L 147.625 -189.203125 C 152.425781 -189.203125 156.023438 -188.535156 158.421875 -187.203125 C 160.816406 -185.867188 162.375 -183.160156 163.09375 -179.078125 L 175.078125 -120.984375 C 176.503906 -113.703125 177.570312 -105.882812 178.28125 -97.53125 C 178.988281 -89.1875 179.609375 -79.328125 180.140625 -67.953125 L 182.28125 -67.953125 C 182.8125 -89.273438 183.960938 -106.953125 185.734375 -120.984375 L 193.46875 -179.078125 C 194.175781 -183.160156 195.6875 -185.867188 198 -187.203125 C 200.3125 -188.535156 204.039062 -189.203125 209.1875 -189.203125 L 245.96875 -189.203125 C 248.988281 -189.203125 251.117188 -188.753906 252.359375 -187.859375 C 253.597656 -186.972656 254.21875 -185.46875 254.21875 -183.34375 C 254.21875 -181.914062 253.953125 -180.140625 253.421875 -178.015625 L 211.0625 -9.859375 C 209.988281 -5.953125 208.382812 -3.332031 206.25 -2 C 204.125 -0.664062 201.019531 0 196.9375 0 L 156.421875 0 C 152.160156 0 148.921875 -0.664062 146.703125 -2 C 144.484375 -3.332031 142.925781 -5.773438 142.03125 -9.328125 L 134.578125 -48.234375 C 131.203125 -66.179688 129.335938 -85.8125 128.984375 -107.125 L 126.578125 -107.125 C 125.691406 -86.519531 123.472656 -66.800781 119.921875 -47.96875 L 112.71875 -9.859375 C 111.65625 -5.953125 110.054688 -3.332031 107.921875 -2 C 105.796875 -0.664062 102.597656 0 98.328125 0 Z M 58.625 0 "/></g></g></g></svg>