<svg xmlns="http://www.w3.org/2000/svg" xmlns:xlink="http://www.w3.org/1999/xlink" width="1920" zoomAndPan="magnify" viewBox="0 0 1440 809.999993" height="1080" preserveAspectRatio="xMidYMid meet" version="1.0"><defs><g/></defs><g fill="#000000" fill-opacity="1"><g transform="translate(739.795211, 488.249995)"><g><path d="M 154.738281 -214.933594 C 163.695312 -214.933594 171.132812 -212.84375 177.054688 -208.664062 C 181.890625 -205.246094 185.4375 -200.757812 187.691406 -195.191406 C 189.3125 -191.1875 190.121094 -186.863281 190.121094 -182.21875 C 190.121094 -180.097656 189.828125 -177.277344 189.242188 -173.753906 L 168.925781 -58.273438 C 163.667969 -29.234375 151.511719 -7.25 132.453125 7.675781 C 113.871094 22.234375 89.195312 29.515625 58.425781 29.515625 C 34.019531 29.515625 14.15625 23.6875 -1.167969 12.039062 C -17.050781 -0.0390625 -27.132812 -16.789062 -31.417969 -38.214844 C -31.925781 -40.757812 -32.183594 -43.582031 -32.183594 -46.6875 C -32.183594 -56.0625 -29.199219 -64.0625 -23.230469 -70.691406 C -18.628906 -75.808594 -12.328125 -79.699219 -4.332031 -82.363281 L 28.632812 -93.527344 C 34.199219 -95.496094 39.328125 -96.476562 44.019531 -96.476562 C 48.273438 -96.476562 52.308594 -95.714844 56.128906 -94.1875 C 60.457031 -92.457031 64.207031 -89.878906 67.382812 -86.457031 C 71.515625 -82.007812 74.46875 -76.238281 76.242188 -69.148438 C 76.269531 -69.035156 76.300781 -68.9375 76.332031 -68.855469 C 76.289062 -68.960938 76.222656 -69.105469 76.121094 -69.289062 C 75.617188 -70.203125 74.890625 -71.078125 73.941406 -71.917969 C 72.710938 -72.996094 71.332031 -73.800781 69.808594 -74.328125 C 68.757812 -74.6875 67.8125 -74.867188 66.964844 -74.867188 C 65.433594 -74.867188 63.863281 -74.515625 62.257812 -73.808594 C 60.484375 -73.027344 59 -71.957031 57.804688 -70.597656 C 57.234375 -69.949219 56.867188 -69.425781 56.699219 -69.023438 C 56.917969 -69.546875 57.128906 -70.378906 57.335938 -71.527344 L 77.128906 -182.785156 L 77.203125 -183.152344 C 79.222656 -192.847656 83.222656 -200.398438 89.199219 -205.804688 C 95.925781 -211.890625 104.789062 -214.933594 115.785156 -214.933594 Z M 154.738281 -163.910156 L 115.785156 -163.910156 C 115.667969 -163.910156 115.566406 -163.90625 115.484375 -163.902344 L 115.511719 -163.90625 C 115.835938 -163.941406 116.226562 -164.019531 116.679688 -164.140625 C 119.070312 -164.78125 121.320312 -166.058594 123.433594 -167.96875 C 125.066406 -169.449219 126.269531 -171.015625 127.035156 -172.671875 C 127.15625 -172.933594 127.238281 -173.140625 127.289062 -173.289062 C 127.253906 -173.179688 127.207031 -172.996094 127.15625 -172.746094 L 102.179688 -177.949219 L 127.296875 -173.480469 L 107.539062 -62.402344 C 105.628906 -51.890625 101.824219 -43.394531 96.132812 -36.917969 C 92.359375 -32.625 87.917969 -29.355469 82.808594 -27.105469 C 77.867188 -24.929688 72.585938 -23.84375 66.964844 -23.84375 C 56.546875 -23.84375 47.640625 -27.097656 40.246094 -33.597656 C 33.71875 -39.339844 29.214844 -47.066406 26.738281 -56.773438 L 26.734375 -56.8125 C 26.808594 -56.585938 26.914062 -56.328125 27.046875 -56.035156 C 27.722656 -54.5625 28.703125 -53.128906 29.996094 -51.738281 C 32.015625 -49.5625 34.410156 -47.917969 37.179688 -46.8125 C 39.441406 -45.90625 41.722656 -45.453125 44.019531 -45.453125 C 45 -45.453125 45.796875 -45.523438 46.417969 -45.660156 C 46.222656 -45.617188 45.75 -45.464844 45 -45.203125 L 11.800781 -33.957031 C 11.554688 -33.875 11.359375 -33.804688 11.222656 -33.742188 C 11.273438 -33.765625 11.371094 -33.816406 11.511719 -33.898438 C 12.582031 -34.503906 13.644531 -35.390625 14.695312 -36.558594 C 16.199219 -38.230469 17.3125 -40.113281 18.039062 -42.210938 C 18.574219 -43.757812 18.84375 -45.25 18.84375 -46.6875 L 18.832031 -46.710938 C 18.800781 -47.15625 18.726562 -47.660156 18.613281 -48.222656 C 20.375 -39.414062 24.074219 -32.867188 29.714844 -28.578125 C 35.914062 -23.867188 45.484375 -21.511719 58.425781 -21.511719 C 77.457031 -21.511719 91.644531 -25.167969 100.988281 -32.488281 C 109.855469 -39.4375 115.75 -50.980469 118.671875 -67.117188 L 138.910156 -182.144531 C 139.03125 -182.867188 139.113281 -183.414062 139.160156 -183.78125 C 139.117188 -183.441406 139.097656 -182.921875 139.097656 -182.21875 C 139.097656 -180.238281 139.53125 -178.183594 140.394531 -176.046875 C 141.890625 -172.347656 144.304688 -169.324219 147.628906 -166.976562 C 149.742188 -165.488281 151.882812 -164.511719 154.050781 -164.054688 C 154.417969 -163.980469 154.730469 -163.929688 154.988281 -163.90625 L 154.996094 -163.90625 C 154.925781 -163.90625 154.839844 -163.910156 154.738281 -163.910156 Z M 154.738281 -163.910156 "/></g></g></g><g fill="#ffffff" fill-opacity="1"><g transform="translate(739.795211, 488.249995)"><g><path d="M 154.734375 -189.421875 C 158.296875 -189.421875 160.832031 -188.882812 162.34375 -187.8125 C 163.851562 -186.75 164.609375 -184.882812 164.609375 -182.21875 C 164.609375 -181.507812 164.429688 -180.085938 164.078125 -177.953125 L 143.796875 -62.703125 C 139.710938 -40.109375 130.6875 -23.34375 116.71875 -12.40625 C 102.757812 -1.46875 83.328125 4 58.421875 4 C 39.753906 4 25.035156 -0.0859375 14.265625 -8.265625 C 3.503906 -16.453125 -3.382812 -28.101562 -6.40625 -43.21875 C -6.582031 -44.113281 -6.671875 -45.269531 -6.671875 -46.6875 C -6.671875 -49.53125 -5.867188 -51.84375 -4.265625 -53.625 C -2.671875 -55.40625 -0.00390625 -56.914062 3.734375 -58.15625 L 36.8125 -69.359375 C 39.84375 -70.429688 42.242188 -70.96875 44.015625 -70.96875 C 45.972656 -70.96875 47.53125 -70.34375 48.6875 -69.09375 C 49.84375 -67.851562 50.773438 -65.8125 51.484375 -62.96875 C 53.796875 -53.894531 58.957031 -49.359375 66.96875 -49.359375 C 75.144531 -49.359375 80.300781 -55.226562 82.4375 -66.96875 L 102.1875 -177.953125 C 103.070312 -182.222656 104.445312 -185.203125 106.3125 -186.890625 C 108.1875 -188.578125 111.347656 -189.421875 115.796875 -189.421875 Z M 154.734375 -189.421875 "/></g></g></g><g fill="#000000" fill-opacity="1"><g transform="translate(543.861435, 488.249995)"><g><path d="M 73.101562 27.179688 C 61.148438 27.179688 51.675781 23.679688 44.675781 16.683594 C 37.679688 9.6875 34.183594 0.214844 34.183594 -11.738281 L 34.183594 -72.566406 L 61.363281 -72.566406 L 37.785156 -59.042969 L -22.507812 -164.160156 C -26.335938 -170.851562 -28.246094 -177.496094 -28.246094 -184.085938 C -28.246094 -189.25 -27.125 -194.082031 -24.878906 -198.574219 C -22.390625 -203.546875 -18.8125 -207.585938 -14.144531 -210.703125 C -8.242188 -214.632812 -1.21875 -216.601562 6.9375 -216.601562 L 45.621094 -216.601562 C 56.296875 -216.601562 64.59375 -215.457031 70.507812 -213.167969 C 79.503906 -209.683594 86.832031 -202.683594 92.496094 -192.167969 L 92.648438 -191.886719 L 116.804688 -144.378906 L 92.574219 -132.0625 L 68.570312 -144.808594 L 93.648438 -192.03125 C 99.308594 -202.539062 106.523438 -209.546875 115.296875 -213.054688 C 121.203125 -215.417969 129.550781 -216.601562 140.332031 -216.601562 L 177.683594 -216.601562 C 185.835938 -216.601562 192.863281 -214.632812 198.761719 -210.703125 C 203.433594 -207.585938 207.011719 -203.546875 209.496094 -198.574219 C 211.742188 -194.082031 212.867188 -189.25 212.867188 -184.085938 C 212.867188 -177.496094 210.960938 -170.867188 207.148438 -164.199219 L 146.804688 -59.523438 L 123.257812 -73.101562 L 150.4375 -73.101562 L 150.4375 -11.738281 C 150.4375 0.214844 146.9375 9.6875 139.941406 16.683594 C 132.945312 23.679688 123.46875 27.179688 111.519531 27.179688 Z M 73.101562 -27.179688 L 111.519531 -27.179688 L 111.558594 -27.167969 C 111.082031 -27.113281 110.542969 -27.003906 109.9375 -26.835938 C 106.855469 -25.988281 104.042969 -24.292969 101.503906 -21.753906 C 98.960938 -19.210938 97.269531 -16.402344 96.417969 -13.320312 C 96.253906 -12.714844 96.144531 -12.171875 96.089844 -11.699219 L 96.078125 -11.738281 L 96.078125 -80.375 L 159.953125 -191.167969 C 159.773438 -190.855469 159.578125 -190.378906 159.367188 -189.746094 C 158.792969 -188.023438 158.507812 -186.136719 158.507812 -184.085938 C 158.507812 -180.695312 159.296875 -177.421875 160.875 -174.265625 C 162.695312 -170.628906 165.273438 -167.695312 168.609375 -165.472656 C 170.757812 -164.039062 172.984375 -163.066406 175.289062 -162.554688 C 176.230469 -162.347656 177.027344 -162.242188 177.683594 -162.242188 L 140.332031 -162.242188 C 137.652344 -162.242188 135.550781 -162.160156 134.023438 -161.996094 C 133.675781 -161.957031 133.464844 -161.933594 133.394531 -161.917969 C 133.988281 -162.042969 134.683594 -162.265625 135.484375 -162.585938 C 138.039062 -163.605469 140.074219 -164.957031 141.597656 -166.632812 C 141.804688 -166.863281 141.949219 -167.039062 142.027344 -167.15625 C 141.914062 -166.988281 141.792969 -166.78125 141.660156 -166.535156 L 92.050781 -73.125 L 44.335938 -166.964844 L 68.566406 -179.28125 L 44.632812 -166.398438 C 44.46875 -166.703125 44.339844 -166.925781 44.246094 -167.066406 C 44.347656 -166.917969 44.511719 -166.714844 44.746094 -166.464844 C 46.289062 -164.789062 48.335938 -163.460938 50.882812 -162.472656 C 51.601562 -162.195312 52.21875 -162.003906 52.726562 -161.898438 C 52.613281 -161.921875 52.371094 -161.953125 51.988281 -161.992188 C 50.429688 -162.160156 48.308594 -162.242188 45.621094 -162.242188 L 6.9375 -162.242188 C 7.589844 -162.242188 8.390625 -162.347656 9.332031 -162.554688 C 11.632812 -163.066406 13.859375 -164.039062 16.011719 -165.472656 C 19.347656 -167.695312 21.925781 -170.628906 23.742188 -174.265625 C 25.324219 -177.421875 26.113281 -180.695312 26.113281 -184.085938 C 26.113281 -186.136719 25.824219 -188.023438 25.25 -189.746094 C 25.039062 -190.378906 24.835938 -190.867188 24.644531 -191.207031 L 88.542969 -79.808594 L 88.542969 -11.738281 L 88.53125 -11.699219 C 88.476562 -12.171875 88.367188 -12.714844 88.199219 -13.320312 C 87.351562 -16.402344 85.65625 -19.210938 83.113281 -21.753906 C 80.574219 -24.292969 77.761719 -25.988281 74.679688 -26.835938 C 74.074219 -27.003906 73.535156 -27.113281 73.0625 -27.167969 Z M 73.101562 -27.179688 "/></g></g></g><g fill="#ffde59" fill-opacity="1"><g transform="translate(543.861435, 488.249995)"><g><path d="M 73.109375 0 C 68.660156 0 65.585938 -0.84375 63.890625 -2.53125 C 62.203125 -4.21875 61.359375 -7.285156 61.359375 -11.734375 L 61.359375 -72.5625 L 1.0625 -177.6875 C -0.351562 -180.175781 -1.0625 -182.3125 -1.0625 -184.09375 C -1.0625 -187.644531 1.601562 -189.421875 6.9375 -189.421875 L 45.625 -189.421875 C 52.914062 -189.421875 57.9375 -188.882812 60.6875 -187.8125 C 63.445312 -186.75 66.070312 -183.90625 68.5625 -179.28125 L 92.578125 -132.0625 L 117.65625 -179.28125 C 120.144531 -183.90625 122.722656 -186.75 125.390625 -187.8125 C 128.054688 -188.882812 133.035156 -189.421875 140.328125 -189.421875 L 177.6875 -189.421875 C 183.019531 -189.421875 185.6875 -187.644531 185.6875 -184.09375 C 185.6875 -182.3125 184.976562 -180.175781 183.5625 -177.6875 L 123.265625 -73.109375 L 123.265625 -11.734375 C 123.265625 -7.285156 122.414062 -4.21875 120.71875 -2.53125 C 119.03125 -0.84375 115.960938 0 111.515625 0 Z M 73.109375 0 "/></g></g></g></svg>